solid Kossel Fan Shroud4
facet normal -0.0 1.0 -0.0
outer loop
vertex 25.0 17.0 2.0
vertex 27.0 17.0 0.0
vertex 25.0 17.0 0.0
endloop
endfacet
facet normal -0.0 1.0 -0.0
outer loop
vertex 27.0 17.0 0.0
vertex 25.0 17.0 2.0
vertex 27.0 17.0 25.0
endloop
endfacet
facet normal -0.0 1.0 -0.0
outer loop
vertex 27.0 17.0 25.0
vertex 25.0 17.0 2.0
vertex 25.0 17.0 25.0
endloop
endfacet
facet normal -0.0 -0.0 1.0
outer loop
vertex 6.97017475453014 14.0221519551134 25.0
vertex 6.0 17.0 25.0
vertex 4.94899480768708 14.0221519551134 25.0
endloop
endfacet
facet normal -0.0 -0.0 1.0
outer loop
vertex 6.0 17.0 25.0
vertex 6.97017475453014 14.0221519551134 25.0
vertex 8.0 17.0 25.0
endloop
endfacet
facet normal -0.0 -0.0 1.0
outer loop
vertex 26.0298252454699 14.0221519551134 25.0
vertex 27.0 17.0 25.0
vertex 25.0 17.0 25.0
endloop
endfacet
facet normal -0.0 -0.0 1.0
outer loop
vertex 27.0 17.0 25.0
vertex 26.0298252454699 14.0221519551134 25.0
vertex 28.0510051923129 14.0221519551134 25.0
endloop
endfacet
facet normal 0.258819045102523 0.965925826289068 0.0
outer loop
vertex 14.3000381166285 8.78963047654291 2.0
vertex 16.5 8.49999999999998 0.0
vertex 14.3000381166285 8.78963047654291 0.0
endloop
endfacet
facet normal 2.39708856192902e-015 1.0 0.0
outer loop
vertex 16.5 8.49999999999998 0.0
vertex 14.3000381166285 8.78963047654291 2.0
vertex 16.5 8.49999999999998 2.0
endloop
endfacet
facet normal 0.5 0.866025403784439 0.0
outer loop
vertex 12.25 9.63878406783226 2.0
vertex 14.3000381166285 8.78963047654291 0.0
vertex 12.25 9.63878406783226 0.0
endloop
endfacet
facet normal 0.258819045102523 0.965925826289068 0.0
outer loop
vertex 14.3000381166285 8.78963047654291 0.0
vertex 12.25 9.63878406783226 2.0
vertex 14.3000381166285 8.78963047654291 2.0
endloop
endfacet
facet normal 0.707106781186548 0.707106781186548 0.0
outer loop
vertex 10.4895923599143 10.9895923599143 2.0
vertex 12.25 9.63878406783226 0.0
vertex 10.4895923599143 10.9895923599143 0.0
endloop
endfacet
facet normal 0.5 0.866025403784439 0.0
outer loop
vertex 12.25 9.63878406783226 0.0
vertex 10.4895923599143 10.9895923599143 2.0
vertex 12.25 9.63878406783226 2.0
endloop
endfacet
facet normal 0.866025403784439 0.499999999999999 0.0
outer loop
vertex 9.13878406783225 12.75 0.0
vertex 10.4895923599143 10.9895923599143 2.0
vertex 10.4895923599143 10.9895923599143 0.0
endloop
endfacet
facet normal 0.707106781186548 0.707106781186548 0.0
outer loop
vertex 10.4895923599143 10.9895923599143 2.0
vertex 9.13878406783225 12.75 0.0
vertex 9.13878406783225 12.75 2.0
endloop
endfacet
facet normal 0.96592582628907 0.258819045102516 0.0
outer loop
vertex 8.28963047654291 14.8000381166286 0.0
vertex 9.13878406783225 12.75 2.0
vertex 9.13878406783225 12.75 0.0
endloop
endfacet
facet normal 0.866025403784439 0.499999999999999 0.0
outer loop
vertex 9.13878406783225 12.75 2.0
vertex 8.28963047654291 14.8000381166286 0.0
vertex 8.28963047654291 14.8000381166286 2.0
endloop
endfacet
facet normal 0.991444861373811 0.130526192220046 -0.0
outer loop
vertex 8.0 17.0 0.0
vertex 8.28963047654291 14.8000381166286 2.0
vertex 8.28963047654291 14.8000381166286 0.0
endloop
endfacet
facet normal 0.96592582628907 0.258819045102516 0.0
outer loop
vertex 8.28963047654291 14.8000381166286 2.0
vertex 8.0 17.0 0.0
vertex 8.0 17.0 2.0
endloop
endfacet
facet normal 8.2694793773595e-016 1.0 -6.45947941600091e-017
outer loop
vertex 6.0 17.0 25.0
vertex 8.0 17.0 0.0
vertex 6.0 17.0 0.0
endloop
endfacet
facet normal 8.2694793773595e-016 1.0 -6.45947941600091e-017
outer loop
vertex 8.0 17.0 0.0
vertex 6.0 17.0 25.0
vertex 8.0 17.0 2.0
endloop
endfacet
facet normal 8.2694793773595e-016 1.0 -6.45947941600091e-017
outer loop
vertex 8.0 17.0 2.0
vertex 6.0 17.0 25.0
vertex 8.0 17.0 25.0
endloop
endfacet
facet normal 0.0 0.0 -1.0
outer loop
vertex 0.0 0.0 0.0
vertex 12.25 9.63878406783226 0.0
vertex 33.0 0.0 0.0
endloop
endfacet
facet normal 0.0 0.0 -1.0
outer loop
vertex 12.25 9.63878406783226 0.0
vertex 0.0 0.0 0.0
vertex 10.4895923599143 10.9895923599143 0.0
endloop
endfacet
facet normal 0.0 0.0 -1.0
outer loop
vertex 10.4895923599143 10.9895923599143 0.0
vertex 0.0 0.0 0.0
vertex 9.13878406783225 12.75 0.0
endloop
endfacet
facet normal 0.0 0.0 -1.0
outer loop
vertex 9.13878406783225 12.75 0.0
vertex 0.0 0.0 0.0
vertex 6.0 17.0 0.0
endloop
endfacet
facet normal 0.0 0.0 -1.0
outer loop
vertex 9.13878406783225 12.75 0.0
vertex 6.0 17.0 0.0
vertex 8.28963047654291 14.8000381166286 0.0
endloop
endfacet
facet normal 0.0 0.0 -1.0
outer loop
vertex 8.28963047654291 14.8000381166286 0.0
vertex 6.0 17.0 0.0
vertex 8.0 17.0 0.0
endloop
endfacet
facet normal 0.0 0.0 -1.0
outer loop
vertex 33.0 0.0 0.0
vertex 12.25 9.63878406783226 0.0
vertex 14.3000381166285 8.78963047654291 0.0
endloop
endfacet
facet normal 0.0 0.0 -1.0
outer loop
vertex 33.0 0.0 0.0
vertex 14.3000381166285 8.78963047654291 0.0
vertex 16.5 8.49999999999998 0.0
endloop
endfacet
facet normal 0.0 0.0 -1.0
outer loop
vertex 33.0 0.0 0.0
vertex 16.5 8.49999999999998 0.0
vertex 18.6999618833714 8.78963047654291 0.0
endloop
endfacet
facet normal 0.0 0.0 -1.0
outer loop
vertex 33.0 0.0 0.0
vertex 18.6999618833714 8.78963047654291 0.0
vertex 20.75 9.63878406783224 0.0
endloop
endfacet
facet normal 0.0 0.0 -1.0
outer loop
vertex 33.0 0.0 0.0
vertex 20.75 9.63878406783224 0.0
vertex 22.5104076400857 10.9895923599143 0.0
endloop
endfacet
facet normal 0.0 0.0 -1.0
outer loop
vertex 33.0 0.0 0.0
vertex 22.5104076400857 10.9895923599143 0.0
vertex 23.8612159321677 12.75 0.0
endloop
endfacet
facet normal 0.0 0.0 -1.0
outer loop
vertex 33.0 0.0 0.0
vertex 23.8612159321677 12.75 0.0
vertex 24.7103695234571 14.8000381166285 0.0
endloop
endfacet
facet normal 0.0 0.0 -1.0
outer loop
vertex 33.0 0.0 0.0
vertex 24.7103695234571 14.8000381166285 0.0
vertex 25.0 17.0 0.0
endloop
endfacet
facet normal 0.0 0.0 -1.0
outer loop
vertex 33.0 0.0 0.0
vertex 25.0 17.0 0.0
vertex 27.0 17.0 0.0
endloop
endfacet
facet normal -0.499999999999993 0.866025403784443 0.0
outer loop
vertex 20.75 9.63878406783224 2.0
vertex 22.5104076400857 10.9895923599143 0.0
vertex 20.75 9.63878406783224 0.0
endloop
endfacet
facet normal -0.707106781186546 0.707106781186549 0.0
outer loop
vertex 22.5104076400857 10.9895923599143 0.0
vertex 20.75 9.63878406783224 2.0
vertex 22.5104076400857 10.9895923599143 2.0
endloop
endfacet
facet normal -0.258819045102519 0.965925826289069 0.0
outer loop
vertex 18.6999618833714 8.78963047654291 2.0
vertex 20.75 9.63878406783224 0.0
vertex 18.6999618833714 8.78963047654291 0.0
endloop
endfacet
facet normal -0.499999999999993 0.866025403784443 0.0
outer loop
vertex 20.75 9.63878406783224 0.0
vertex 18.6999618833714 8.78963047654291 2.0
vertex 20.75 9.63878406783224 2.0
endloop
endfacet
facet normal 2.39708856192902e-015 1.0 0.0
outer loop
vertex 16.5 8.49999999999998 2.0
vertex 18.6999618833714 8.78963047654291 0.0
vertex 16.5 8.49999999999998 0.0
endloop
endfacet
facet normal -0.258819045102519 0.965925826289069 0.0
outer loop
vertex 18.6999618833714 8.78963047654291 0.0
vertex 16.5 8.49999999999998 2.0
vertex 18.6999618833714 8.78963047654291 2.0
endloop
endfacet
facet normal -0.965925826289069 0.258819045102519 0.0
outer loop
vertex 24.7103695234571 14.8000381166285 2.0
vertex 23.8612159321677 12.75 0.0
vertex 23.8612159321677 12.75 2.0
endloop
endfacet
facet normal -0.866025403784442 0.499999999999994 0.0
outer loop
vertex 23.8612159321677 12.75 0.0
vertex 24.7103695234571 14.8000381166285 2.0
vertex 24.7103695234571 14.8000381166285 0.0
endloop
endfacet
facet normal -0.866025403784442 0.499999999999994 0.0
outer loop
vertex 23.8612159321677 12.75 2.0
vertex 22.5104076400857 10.9895923599143 0.0
vertex 22.5104076400857 10.9895923599143 2.0
endloop
endfacet
facet normal -0.707106781186546 0.707106781186549 0.0
outer loop
vertex 22.5104076400857 10.9895923599143 0.0
vertex 23.8612159321677 12.75 2.0
vertex 23.8612159321677 12.75 0.0
endloop
endfacet
facet normal -0.99144486137381 0.130526192220053 0.0
outer loop
vertex 25.0 17.0 2.0
vertex 24.7103695234571 14.8000381166285 0.0
vertex 24.7103695234571 14.8000381166285 2.0
endloop
endfacet
facet normal -0.965925826289069 0.258819045102519 0.0
outer loop
vertex 24.7103695234571 14.8000381166285 0.0
vertex 25.0 17.0 2.0
vertex 25.0 17.0 0.0
endloop
endfacet
facet normal 1.02066761204603e-017 -1.0 4.61806893537621e-018
outer loop
vertex 33.0 0.0 0.0
vertex 28.3971255508162 -4.64738842887949e-018 2.00000413123759
vertex 0.0 0.0 0.0
endloop
endfacet
facet normal 1.02066761204603e-017 -1.0 4.61806893537621e-018
outer loop
vertex 28.3971255508162 -4.64738842887949e-018 2.00000413123759
vertex 33.0 0.0 0.0
vertex 28.6560414711566 -1.85079692319237e-018 2.03333420198708
endloop
endfacet
facet normal 1.02066761204603e-017 -1.0 4.61806893537621e-018
outer loop
vertex 28.6560414711566 -1.85079692319237e-018 2.03333420198708
vertex 33.0 0.0 0.0
vertex 28.8975085883662 1.07192333422377e-018 2.13254094938039
endloop
endfacet
facet normal 1.02066761204603e-017 -1.0 4.61806893537621e-018
outer loop
vertex 28.8975085883662 1.07192333422377e-018 2.13254094938039
vertex 33.0 0.0 0.0
vertex 29.1050713174504 3.92159378784963e-018 2.29086359752956
endloop
endfacet
facet normal 1.02066761204603e-017 -1.0 4.61806893537621e-018
outer loop
vertex 29.1050713174504 3.92159378784963e-018 2.29086359752956
vertex 33.0 0.0 0.0
vertex 29.2645846014359 6.50401410557369e-018 2.49751271960378
endloop
endfacet
facet normal 1.02066761204603e-017 -1.0 4.61806893537621e-018
outer loop
vertex 29.2645846014359 6.50401410557369e-018 2.49751271960378
vertex 33.0 0.0 0.0
vertex 30.8790874850212 -6.6435723422588e-016 5.5
endloop
endfacet
facet normal 1.02066761204603e-017 -1.0 4.61806893537621e-018
outer loop
vertex 30.8790874850212 -6.6435723422588e-016 5.5
vertex 33.0 0.0 0.0
vertex 33.0 0.0 25.0
endloop
endfacet
facet normal 1.02066761204603e-017 -1.0 4.61806893537621e-018
outer loop
vertex 0.0 0.0 0.0
vertex 28.3971255508162 -4.64738842887949e-018 2.00000413123759
vertex 26.4 -3.5258368548577e-016 2.0
endloop
endfacet
facet normal 1.02066761204603e-017 -1.0 4.61806893537621e-018
outer loop
vertex 29.2645846014359 6.50401410557369e-018 2.49751271960378
vertex 30.8790874850212 -6.6435723422588e-016 5.5
vertex 29.3651778736271 8.64319661039442e-018 2.73840551943751
endloop
endfacet
facet normal 1.02066761204603e-017 -1.0 4.61806893537621e-018
outer loop
vertex 29.3651778736271 8.64319661039442e-018 2.73840551943751
vertex 30.8790874850212 -6.6435723422588e-016 5.5
vertex 29.3999958687624 1.01933595497745e-017 2.99712555081625
endloop
endfacet
facet normal 1.02066761204603e-017 -1.0 4.61806893537621e-018
outer loop
vertex 29.3999958687624 1.01933595497745e-017 2.99712555081625
vertex 30.8790874850212 -6.6435723422588e-016 5.5
vertex 29.3666657980129 1.10488618811606e-017 3.25604147115661
endloop
endfacet
facet normal 1.02066761204603e-017 -1.0 4.61806893537621e-018
outer loop
vertex 29.3666657980129 1.10488618811606e-017 3.25604147115661
vertex 30.8790874850212 -6.6435723422588e-016 5.5
vertex 29.2674590506196 1.11514025344532e-017 3.49750858836619
endloop
endfacet
facet normal 1.02066761204603e-017 -1.0 4.61806893537621e-018
outer loop
vertex 29.2674590506196 1.11514025344532e-017 3.49750858836619
vertex 30.8790874850212 -6.6435723422588e-016 5.5
vertex 29.1091364024704 1.04939935335868e-017 3.70507131745043
endloop
endfacet
facet normal 1.02066761204603e-017 -1.0 4.61806893537621e-018
outer loop
vertex 29.1091364024704 1.04939935335868e-017 3.70507131745043
vertex 30.8790874850212 -6.6435723422588e-016 5.5
vertex 28.9024872803962 9.12143621555074e-018 3.86458460143586
endloop
endfacet
facet normal 1.02066761204603e-017 -1.0 4.61806893537621e-018
outer loop
vertex 28.9024872803962 9.12143621555074e-018 3.86458460143586
vertex 30.8790874850212 -6.6435723422588e-016 5.5
vertex 28.6615944805625 7.12726809331097e-018 3.96517787362705
endloop
endfacet
facet normal 1.02066761204603e-017 -1.0 4.61806893537621e-018
outer loop
vertex 28.6615944805625 7.12726809331097e-018 3.96517787362705
vertex 30.8790874850212 -6.6435723422588e-016 5.5
vertex 28.4028744491837 4.64738842887948e-018 3.99999586876241
endloop
endfacet
facet normal 1.02066761204603e-017 -1.0 4.61806893537621e-018
outer loop
vertex 28.4028744491837 4.64738842887948e-018 3.99999586876241
vertex 30.8790874850212 -6.6435723422588e-016 5.5
vertex 26.4 -3.5258368548577e-016 5.5
endloop
endfacet
facet normal 1.02066761204603e-017 -1.0 4.61806893537621e-018
outer loop
vertex 30.8790874850212 -6.6435723422588e-016 5.5
vertex 33.0 0.0 25.0
vertex 30.8790874850212 -7.04991620636974e-016 25.0
endloop
endfacet
facet normal 1.02066761204603e-017 -1.0 4.61806893537621e-018
outer loop
vertex 26.4 -3.5258368548577e-016 2.0
vertex 27.4333342019871 -1.10488618811606e-017 2.74395852884339
vertex 26.4 -3.5258368548577e-016 5.5
endloop
endfacet
facet normal 1.02066761204603e-017 -1.0 4.61806893537621e-018
outer loop
vertex 27.4333342019871 -1.10488618811606e-017 2.74395852884339
vertex 26.4 -3.5258368548577e-016 2.0
vertex 27.5325409493804 -1.11514025344532e-017 2.50249141163381
endloop
endfacet
facet normal 1.02066761204603e-017 -1.0 4.61806893537621e-018
outer loop
vertex 27.5325409493804 -1.11514025344532e-017 2.50249141163381
vertex 26.4 -3.5258368548577e-016 2.0
vertex 27.6908635975296 -1.04939935335868e-017 2.29492868254957
endloop
endfacet
facet normal 1.02066761204603e-017 -1.0 4.61806893537621e-018
outer loop
vertex 27.6908635975296 -1.04939935335868e-017 2.29492868254957
vertex 26.4 -3.5258368548577e-016 2.0
vertex 27.8975127196038 -9.12143621555074e-018 2.13541539856414
endloop
endfacet
facet normal 1.02066761204603e-017 -1.0 4.61806893537621e-018
outer loop
vertex 27.8975127196038 -9.12143621555074e-018 2.13541539856414
vertex 26.4 -3.5258368548577e-016 2.0
vertex 28.1384055194375 -7.12726809331097e-018 2.03482212637295
endloop
endfacet
facet normal 1.02066761204603e-017 -1.0 4.61806893537621e-018
outer loop
vertex 28.1384055194375 -7.12726809331097e-018 2.03482212637295
vertex 26.4 -3.5258368548577e-016 2.0
vertex 28.3971255508162 -4.64738842887949e-018 2.00000413123759
endloop
endfacet
facet normal 1.02066761204603e-017 -1.0 4.61806893537621e-018
outer loop
vertex 26.4 -3.5258368548577e-016 5.5
vertex 27.4333342019871 -1.10488618811606e-017 2.74395852884339
vertex 27.4000041312376 -1.01933595497745e-017 3.00287444918375
endloop
endfacet
facet normal 1.02066761204603e-017 -1.0 4.61806893537621e-018
outer loop
vertex 26.4 -3.5258368548577e-016 5.5
vertex 27.4000041312376 -1.01933595497745e-017 3.00287444918375
vertex 27.4348221263729 -8.64319661039442e-018 3.26159448056249
endloop
endfacet
facet normal 1.02066761204603e-017 -1.0 4.61806893537621e-018
outer loop
vertex 26.4 -3.5258368548577e-016 5.5
vertex 27.4348221263729 -8.64319661039442e-018 3.26159448056249
vertex 27.5354153985641 -6.50401410557369e-018 3.50248728039622
endloop
endfacet
facet normal 1.02066761204603e-017 -1.0 4.61806893537621e-018
outer loop
vertex 26.4 -3.5258368548577e-016 5.5
vertex 27.5354153985641 -6.50401410557369e-018 3.50248728039622
vertex 27.6949286825496 -3.92159378784963e-018 3.70913640247044
endloop
endfacet
facet normal 1.02066761204603e-017 -1.0 4.61806893537621e-018
outer loop
vertex 26.4 -3.5258368548577e-016 5.5
vertex 27.6949286825496 -3.92159378784963e-018 3.70913640247044
vertex 27.9024914116338 -1.07192333422377e-018 3.86745905061961
endloop
endfacet
facet normal 1.02066761204603e-017 -1.0 4.61806893537621e-018
outer loop
vertex 26.4 -3.5258368548577e-016 5.5
vertex 27.9024914116338 -1.07192333422377e-018 3.86745905061961
vertex 28.1439585288434 1.85079692319237e-018 3.96666579801292
endloop
endfacet
facet normal 1.02066761204603e-017 -1.0 4.61806893537621e-018
outer loop
vertex 26.4 -3.5258368548577e-016 5.5
vertex 28.1439585288434 1.85079692319237e-018 3.96666579801292
vertex 28.4028744491837 4.64738842887948e-018 3.99999586876241
endloop
endfacet
facet normal 1.02066761204603e-017 -1.0 4.61806893537621e-018
outer loop
vertex 6.6 -3.41506173351995e-016 2.0
vertex 4.88448675630462 -1.5235860077274e-018 2.04132002968286
vertex 4.62666847067544 -4.34422999823914e-018 2.00035566691356
endloop
endfacet
facet normal 1.02066761204603e-017 -1.0 4.61806893537621e-018
outer loop
vertex 4.88448675630462 -1.5235860077274e-018 2.04132002968286
vertex 6.6 -3.41506173351995e-016 2.0
vertex 5.12291773962823 1.40088785136603e-018 2.14761684813571
endloop
endfacet
facet normal 1.02066761204603e-017 -1.0 4.61806893537621e-018
outer loop
vertex 5.12291773962823 1.40088785136603e-018 2.14761684813571
vertex 6.6 -3.41506173351995e-016 2.0
vertex 5.3257127431586 4.2298935184655e-018 2.31200216975835
endloop
endfacet
facet normal 1.02066761204603e-017 -1.0 4.61806893537621e-018
outer loop
vertex 5.3257127431586 4.2298935184655e-018 2.31200216975835
vertex 6.6 -3.41506173351995e-016 2.0
vertex 5.47905162253973 6.7706389325111e-018 2.52327340654179
endloop
endfacet
facet normal 1.02066761204603e-017 -1.0 4.61806893537621e-018
outer loop
vertex 5.47905162253973 6.7706389325111e-018 2.52327340654179
vertex 6.6 -3.41506173351995e-016 2.0
vertex 5.57248458654627 8.84997649231593e-018 2.76703277284146
endloop
endfacet
facet normal 1.02066761204603e-017 -1.0 4.61806893537621e-018
outer loop
vertex 5.57248458654627 8.84997649231593e-018 2.76703277284146
vertex 6.6 -3.41506173351995e-016 2.0
vertex 6.6 -3.41506173351995e-016 5.49999999999999
endloop
endfacet
facet normal 1.02066761204603e-017 -1.0 4.61806893537621e-018
outer loop
vertex 5.57248458654627 8.84997649231593e-018 2.76703277284146
vertex 6.6 -3.41506173351995e-016 5.49999999999999
vertex 5.59964433308644 1.03262027794471e-017 3.02666847067544
endloop
endfacet
facet normal 1.02066761204603e-017 -1.0 4.61806893537621e-018
outer loop
vertex 5.59964433308644 1.03262027794471e-017 3.02666847067544
vertex 6.6 -3.41506173351995e-016 5.49999999999999
vertex 5.55867997031714 1.10987154120159e-017 3.28448675630462
endloop
endfacet
facet normal 1.02066761204603e-017 -1.0 4.61806893537621e-018
outer loop
vertex 5.55867997031714 1.10987154120159e-017 3.28448675630462
vertex 6.6 -3.41506173351995e-016 5.49999999999999
vertex 5.45238315186429 1.11148689307502e-017 3.52291773962823
endloop
endfacet
facet normal 1.02066761204603e-017 -1.0 4.61806893537621e-018
outer loop
vertex 5.45238315186429 1.11148689307502e-017 3.52291773962823
vertex 6.6 -3.41506173351995e-016 5.49999999999999
vertex 5.28799783024165 1.03735625000433e-017 3.7257127431586
endloop
endfacet
facet normal 1.02066761204603e-017 -1.0 4.61806893537621e-018
outer loop
vertex 5.28799783024165 1.03735625000433e-017 3.7257127431586
vertex 6.6 -3.41506173351995e-016 5.49999999999999
vertex 5.07672659345821 8.92531492808106e-018 3.87905162253973
endloop
endfacet
facet normal 1.02066761204603e-017 -1.0 4.61806893537621e-018
outer loop
vertex 5.07672659345821 8.92531492808106e-018 3.87905162253973
vertex 6.6 -3.41506173351995e-016 5.49999999999999
vertex 4.83296722715854 6.86882189355039e-018 3.97248458654627
endloop
endfacet
facet normal 1.02066761204603e-017 -1.0 4.61806893537621e-018
outer loop
vertex 4.83296722715854 6.86882189355039e-018 3.97248458654627
vertex 6.6 -3.41506173351995e-016 5.49999999999999
vertex 4.57333152932456 4.34422999823913e-018 3.99964433308644
endloop
endfacet
facet normal 1.02066761204603e-017 -1.0 4.61806893537621e-018
outer loop
vertex 0.0 0.0 0.0
vertex 2.12091251497882 -2.46747067222941e-015 5.5
vertex 0.0 0.0 25.0
endloop
endfacet
facet normal 1.02066761204603e-017 -1.0 4.61806893537621e-018
outer loop
vertex 2.12091251497882 -2.46747067222941e-015 5.5
vertex 0.0 0.0 0.0
vertex 3.74761684813571 -1.11148689307502e-017 2.47708226037177
endloop
endfacet
facet normal 1.02066761204603e-017 -1.0 4.61806893537621e-018
outer loop
vertex 3.74761684813571 -1.11148689307502e-017 2.47708226037177
vertex 0.0 0.0 0.0
vertex 3.91200216975835 -1.03735625000433e-017 2.2742872568414
endloop
endfacet
facet normal 1.02066761204603e-017 -1.0 4.61806893537621e-018
outer loop
vertex 3.91200216975835 -1.03735625000433e-017 2.2742872568414
vertex 0.0 0.0 0.0
vertex 4.12327340654179 -8.92531492808107e-018 2.12094837746027
endloop
endfacet
facet normal 1.02066761204603e-017 -1.0 4.61806893537621e-018
outer loop
vertex 4.12327340654179 -8.92531492808107e-018 2.12094837746027
vertex 0.0 0.0 0.0
vertex 4.36703277284146 -6.86882189355039e-018 2.02751541345373
endloop
endfacet
facet normal 1.02066761204603e-017 -1.0 4.61806893537621e-018
outer loop
vertex 4.36703277284146 -6.86882189355039e-018 2.02751541345373
vertex 0.0 0.0 0.0
vertex 4.62666847067544 -4.34422999823914e-018 2.00035566691356
endloop
endfacet
facet normal 1.02066761204603e-017 -1.0 4.61806893537621e-018
outer loop
vertex 4.62666847067544 -4.34422999823914e-018 2.00035566691356
vertex 0.0 0.0 0.0
vertex 6.6 -3.41506173351995e-016 2.0
endloop
endfacet
facet normal 1.02066761204603e-017 -1.0 4.61806893537621e-018
outer loop
vertex 6.6 -3.41506173351995e-016 2.0
vertex 0.0 0.0 0.0
vertex 26.4 -3.5258368548577e-016 2.0
endloop
endfacet
facet normal 1.02066761204603e-017 -1.0 4.61806893537621e-018
outer loop
vertex 2.12091251497882 -2.46747067222941e-015 5.5
vertex 3.74761684813571 -1.11148689307502e-017 2.47708226037177
vertex 3.64132002968286 -1.10987154120159e-017 2.71551324369538
endloop
endfacet
facet normal 1.02066761204603e-017 -1.0 4.61806893537621e-018
outer loop
vertex 2.12091251497882 -2.46747067222941e-015 5.5
vertex 3.64132002968286 -1.10987154120159e-017 2.71551324369538
vertex 3.60035566691356 -1.03262027794471e-017 2.97333152932456
endloop
endfacet
facet normal 1.02066761204603e-017 -1.0 4.61806893537621e-018
outer loop
vertex 2.12091251497882 -2.46747067222941e-015 5.5
vertex 3.60035566691356 -1.03262027794471e-017 2.97333152932456
vertex 3.62751541345373 -8.84997649231593e-018 3.23296722715854
endloop
endfacet
facet normal 1.02066761204603e-017 -1.0 4.61806893537621e-018
outer loop
vertex 2.12091251497882 -2.46747067222941e-015 5.5
vertex 3.62751541345373 -8.84997649231593e-018 3.23296722715854
vertex 3.72094837746027 -6.7706389325111e-018 3.47672659345821
endloop
endfacet
facet normal 1.02066761204603e-017 -1.0 4.61806893537621e-018
outer loop
vertex 2.12091251497882 -2.46747067222941e-015 5.5
vertex 3.72094837746027 -6.7706389325111e-018 3.47672659345821
vertex 3.8742872568414 -4.2298935184655e-018 3.68799783024165
endloop
endfacet
facet normal 1.02066761204603e-017 -1.0 4.61806893537621e-018
outer loop
vertex 2.12091251497882 -2.46747067222941e-015 5.5
vertex 3.8742872568414 -4.2298935184655e-018 3.68799783024165
vertex 4.07708226037177 -1.40088785136603e-018 3.85238315186429
endloop
endfacet
facet normal 1.02066761204603e-017 -1.0 4.61806893537621e-018
outer loop
vertex 2.12091251497882 -2.46747067222941e-015 5.5
vertex 4.07708226037177 -1.40088785136603e-018 3.85238315186429
vertex 4.31551324369538 1.5235860077274e-018 3.95867997031714
endloop
endfacet
facet normal 1.02066761204603e-017 -1.0 4.61806893537621e-018
outer loop
vertex 2.12091251497882 -2.46747067222941e-015 5.5
vertex 4.31551324369538 1.5235860077274e-018 3.95867997031714
vertex 4.57333152932456 4.34422999823913e-018 3.99964433308644
endloop
endfacet
facet normal 1.02066761204603e-017 -1.0 4.61806893537621e-018
outer loop
vertex 2.12091251497882 -2.46747067222941e-015 5.5
vertex 4.57333152932456 4.34422999823913e-018 3.99964433308644
vertex 6.6 -3.41506173351995e-016 5.49999999999999
endloop
endfacet
facet normal 1.02066761204603e-017 -1.0 4.61806893537621e-018
outer loop
vertex 0.0 0.0 25.0
vertex 2.12091251497882 -2.46747067222941e-015 5.5
vertex 2.12091251497882 -7.04991620636974e-016 25.0
endloop
endfacet
facet normal -0.0 -0.0 1.0
outer loop
vertex 2.12091251497882 -7.04991620636974e-016 25.0
vertex 2.82352941176471 8.0 25.0
vertex 0.0 0.0 25.0
endloop
endfacet
facet normal -0.0 -0.0 1.0
outer loop
vertex 2.82352941176471 8.0 25.0
vertex 2.12091251497882 -7.04991620636974e-016 25.0
vertex 4.88754191969467 8.0 25.0
endloop
endfacet
facet normal -0.0 -0.0 1.0
outer loop
vertex 30.8790874850212 -7.04991620636974e-016 25.0
vertex 30.1764705882353 8.0 25.0
vertex 28.1124580803053 8.0 25.0
endloop
endfacet
facet normal -0.0 -0.0 1.0
outer loop
vertex 30.1764705882353 8.0 25.0
vertex 30.8790874850212 -7.04991620636974e-016 25.0
vertex 33.0 0.0 25.0
endloop
endfacet
facet normal -0.0 -0.0 1.0
outer loop
vertex 28.1124580803053 8.0 19.0
vertex 28.0510051923129 14.0221519551134 19.0
vertex 26.0298252454699 14.0221519551134 19.0
endloop
endfacet
facet normal -0.0 -0.0 1.0
outer loop
vertex 28.0510051923129 14.0221519551134 19.0
vertex 28.1124580803053 8.0 19.0
vertex 30.1764705882353 8.0 19.0
endloop
endfacet
facet normal 0.0 -1.0 0.0
outer loop
vertex 28.0510051923129 14.0221519551134 25.0
vertex 26.0298252454699 14.0221519551134 19.0
vertex 28.0510051923129 14.0221519551134 19.0
endloop
endfacet
facet normal 0.0 -1.0 0.0
outer loop
vertex 26.0298252454699 14.0221519551134 19.0
vertex 28.0510051923129 14.0221519551134 25.0
vertex 26.0298252454699 14.0221519551134 25.0
endloop
endfacet
facet normal 6.83127275564841e-016 1.0 -0.0
outer loop
vertex 28.1124580803053 8.0 25.0
vertex 30.1764705882353 8.0 19.0
vertex 28.1124580803053 8.0 19.0
endloop
endfacet
facet normal 6.83127275564841e-016 1.0 -0.0
outer loop
vertex 30.1764705882353 8.0 19.0
vertex 28.1124580803053 8.0 25.0
vertex 30.1764705882353 8.0 25.0
endloop
endfacet
facet normal -0.0 -0.0 1.0
outer loop
vertex 4.88754191969467 8.0 19.0
vertex 4.94899480768708 14.0221519551134 19.0
vertex 2.82352941176471 8.0 19.0
endloop
endfacet
facet normal -0.0 -0.0 1.0
outer loop
vertex 4.94899480768708 14.0221519551134 19.0
vertex 4.88754191969467 8.0 19.0
vertex 6.97017475453014 14.0221519551134 19.0
endloop
endfacet
facet normal -0.0 1.0 -0.0
outer loop
vertex 2.82352941176471 8.0 25.0
vertex 4.88754191969467 8.0 19.0
vertex 2.82352941176471 8.0 19.0
endloop
endfacet
facet normal -0.0 1.0 -0.0
outer loop
vertex 4.88754191969467 8.0 19.0
vertex 2.82352941176471 8.0 25.0
vertex 4.88754191969467 8.0 25.0
endloop
endfacet
facet normal 0.0 -1.0 0.0
outer loop
vertex 6.97017475453014 14.0221519551134 25.0
vertex 4.94899480768708 14.0221519551134 19.0
vertex 6.97017475453014 14.0221519551134 19.0
endloop
endfacet
facet normal 0.0 -1.0 0.0
outer loop
vertex 4.94899480768708 14.0221519551134 19.0
vertex 6.97017475453014 14.0221519551134 25.0
vertex 4.94899480768708 14.0221519551134 25.0
endloop
endfacet
facet normal -0.945081028483052 -0.326836120405039 2.19055436816786e-016
outer loop
vertex 25.0 17.0 25.0
vertex 26.0298252454699 14.0221519551134 19.0
vertex 26.0298252454699 14.0221519551134 25.0
endloop
endfacet
facet normal -0.945081028483052 -0.326836120405039 2.19055436816786e-016
outer loop
vertex 28.1124580803053 8.0 25.0
vertex 30.8790874850212 -6.6435723422588e-016 5.5
vertex 30.8790874850212 -7.04991620636974e-016 25.0
endloop
endfacet
facet normal -0.945081028483052 -0.326836120405039 2.19055436816786e-016
outer loop
vertex 30.8790874850212 -6.6435723422588e-016 5.5
vertex 28.1124580803053 8.0 25.0
vertex 28.1124580803053 8.0 19.0
endloop
endfacet
facet normal -0.945081028483052 -0.326836120405039 2.19055436816786e-016
outer loop
vertex 30.8790874850212 -6.6435723422588e-016 5.5
vertex 28.1124580803053 8.0 19.0
vertex 26.4 12.9517527064127 5.5
endloop
endfacet
facet normal -0.945081028483052 -0.326836120405039 2.19055436816786e-016
outer loop
vertex 26.4 12.9517527064127 5.5
vertex 28.1124580803053 8.0 19.0
vertex 26.0298252454699 14.0221519551134 19.0
endloop
endfacet
facet normal -0.945081028483052 -0.326836120405039 2.19055436816786e-016
outer loop
vertex 26.4 12.9517527064127 5.5
vertex 26.0298252454699 14.0221519551134 19.0
vertex 26.4 12.9517527064127 2.0
endloop
endfacet
facet normal -0.945081028483052 -0.326836120405039 2.19055436816786e-016
outer loop
vertex 26.4 12.9517527064127 2.0
vertex 26.0298252454699 14.0221519551134 19.0
vertex 25.0 17.0 2.0
endloop
endfacet
facet normal -0.945081028483052 -0.326836120405039 2.19055436816786e-016
outer loop
vertex 25.0 17.0 2.0
vertex 26.0298252454699 14.0221519551134 19.0
vertex 25.0 17.0 25.0
endloop
endfacet
facet normal 1.57093070967829e-032 -1.59765841453433e-017 1.0
outer loop
vertex 26.4 -3.5258368548577e-016 2.0
vertex 6.6 12.9517527064127 2.0
vertex 6.6 -3.41506173351995e-016 2.0
endloop
endfacet
facet normal 1.57093070967829e-032 -1.59765841453433e-017 1.0
outer loop
vertex 6.6 12.9517527064127 2.0
vertex 26.4 -3.5258368548577e-016 2.0
vertex 12.25 9.63878406783226 2.0
endloop
endfacet
facet normal 1.57093070967829e-032 -1.59765841453433e-017 1.0
outer loop
vertex 6.6 12.9517527064127 2.0
vertex 12.25 9.63878406783226 2.0
vertex 10.4895923599143 10.9895923599143 2.0
endloop
endfacet
facet normal 1.57093070967829e-032 -1.59765841453433e-017 1.0
outer loop
vertex 6.6 12.9517527064127 2.0
vertex 10.4895923599143 10.9895923599143 2.0
vertex 9.13878406783225 12.75 2.0
endloop
endfacet
facet normal 1.57093070967829e-032 -1.59765841453433e-017 1.0
outer loop
vertex 6.6 12.9517527064127 2.0
vertex 9.13878406783225 12.75 2.0
vertex 8.28963047654291 14.8000381166286 2.0
endloop
endfacet
facet normal 1.57093070967829e-032 -1.59765841453433e-017 1.0
outer loop
vertex 6.6 12.9517527064127 2.0
vertex 8.28963047654291 14.8000381166286 2.0
vertex 8.0 17.0 2.0
endloop
endfacet
facet normal 1.57093070967829e-032 -1.59765841453433e-017 1.0
outer loop
vertex 12.25 9.63878406783226 2.0
vertex 26.4 -3.5258368548577e-016 2.0
vertex 14.3000381166285 8.78963047654291 2.0
endloop
endfacet
facet normal 1.57093070967829e-032 -1.59765841453433e-017 1.0
outer loop
vertex 14.3000381166285 8.78963047654291 2.0
vertex 26.4 -3.5258368548577e-016 2.0
vertex 16.5 8.49999999999998 2.0
endloop
endfacet
facet normal 1.57093070967829e-032 -1.59765841453433e-017 1.0
outer loop
vertex 16.5 8.49999999999998 2.0
vertex 26.4 -3.5258368548577e-016 2.0
vertex 18.6999618833714 8.78963047654291 2.0
endloop
endfacet
facet normal 1.57093070967829e-032 -1.59765841453433e-017 1.0
outer loop
vertex 18.6999618833714 8.78963047654291 2.0
vertex 26.4 -3.5258368548577e-016 2.0
vertex 20.75 9.63878406783224 2.0
endloop
endfacet
facet normal 1.57093070967829e-032 -1.59765841453433e-017 1.0
outer loop
vertex 20.75 9.63878406783224 2.0
vertex 26.4 -3.5258368548577e-016 2.0
vertex 22.5104076400857 10.9895923599143 2.0
endloop
endfacet
facet normal 1.57093070967829e-032 -1.59765841453433e-017 1.0
outer loop
vertex 22.5104076400857 10.9895923599143 2.0
vertex 26.4 -3.5258368548577e-016 2.0
vertex 23.8612159321677 12.75 2.0
endloop
endfacet
facet normal 1.57093070967829e-032 -1.59765841453433e-017 1.0
outer loop
vertex 23.8612159321677 12.75 2.0
vertex 26.4 -3.5258368548577e-016 2.0
vertex 24.7103695234571 14.8000381166285 2.0
endloop
endfacet
facet normal 1.57093070967829e-032 -1.59765841453433e-017 1.0
outer loop
vertex 24.7103695234571 14.8000381166285 2.0
vertex 26.4 -3.5258368548577e-016 2.0
vertex 25.0 17.0 2.0
endloop
endfacet
facet normal 1.57093070967829e-032 -1.59765841453433e-017 1.0
outer loop
vertex 25.0 17.0 2.0
vertex 26.4 -3.5258368548577e-016 2.0
vertex 26.4 12.9517527064127 2.0
endloop
endfacet
facet normal 0.945081028483052 -0.326836120405039 1.20666130449924e-016
outer loop
vertex 8.0 17.0 2.0
vertex 6.6 12.9517527064127 5.49999999999999
vertex 6.6 12.9517527064127 2.0
endloop
endfacet
facet normal 0.945081028483052 -0.326836120405039 1.20666130449924e-016
outer loop
vertex 6.6 12.9517527064127 5.49999999999999
vertex 8.0 17.0 2.0
vertex 6.97017475453014 14.0221519551134 19.0
endloop
endfacet
facet normal 0.945081028483052 -0.326836120405039 1.20666130449924e-016
outer loop
vertex 6.97017475453014 14.0221519551134 19.0
vertex 8.0 17.0 2.0
vertex 6.97017475453014 14.0221519551134 25.0
endloop
endfacet
facet normal 0.945081028483052 -0.326836120405039 1.20666130449924e-016
outer loop
vertex 6.97017475453014 14.0221519551134 25.0
vertex 8.0 17.0 2.0
vertex 8.0 17.0 25.0
endloop
endfacet
facet normal 0.945081028483052 -0.326836120405039 1.20666130449924e-016
outer loop
vertex 6.6 12.9517527064127 5.49999999999999
vertex 2.12091251497882 -7.04991620636974e-016 25.0
vertex 2.12091251497882 -2.46747067222941e-015 5.5
endloop
endfacet
facet normal 0.945081028483052 -0.326836120405039 1.20666130449924e-016
outer loop
vertex 2.12091251497882 -7.04991620636974e-016 25.0
vertex 6.6 12.9517527064127 5.49999999999999
vertex 4.88754191969467 8.0 19.0
endloop
endfacet
facet normal 0.945081028483052 -0.326836120405039 1.20666130449924e-016
outer loop
vertex 4.88754191969467 8.0 19.0
vertex 6.6 12.9517527064127 5.49999999999999
vertex 6.97017475453014 14.0221519551134 19.0
endloop
endfacet
facet normal 0.945081028483052 -0.326836120405039 1.20666130449924e-016
outer loop
vertex 4.88754191969467 8.0 25.0
vertex 2.12091251497882 -7.04991620636974e-016 25.0
vertex 4.88754191969467 8.0 19.0
endloop
endfacet
facet normal 9.39951944955505e-016 1.72651809348176e-031 1.0
outer loop
vertex 6.6 12.9517527064127 5.49999999999999
vertex 2.12091251497882 -2.46747067222941e-015 5.5
vertex 6.6 -3.41506173351995e-016 5.49999999999999
endloop
endfacet
facet normal 1.0 -1.08864280629435e-016 0.0
outer loop
vertex 6.6 12.9517527064127 2.0
vertex 6.6 -3.41506173351995e-016 5.49999999999999
vertex 6.6 -3.41506173351995e-016 2.0
endloop
endfacet
facet normal 1.0 -1.08864280629435e-016 0.0
outer loop
vertex 6.6 -3.41506173351995e-016 5.49999999999999
vertex 6.6 12.9517527064127 2.0
vertex 6.6 12.9517527064127 5.49999999999999
endloop
endfacet
facet normal -7.47200221775139e-016 2.51673422454176e-017 1.0
outer loop
vertex 30.8790874850212 -6.6435723422588e-016 5.5
vertex 26.4 12.9517527064127 5.5
vertex 26.4 -3.5258368548577e-016 5.5
endloop
endfacet
facet normal -1.0 -0.0 -0.0
outer loop
vertex 26.4 12.9517527064127 5.5
vertex 26.4 -3.5258368548577e-016 2.0
vertex 26.4 -3.5258368548577e-016 5.5
endloop
endfacet
facet normal -1.0 -0.0 -0.0
outer loop
vertex 26.4 -3.5258368548577e-016 2.0
vertex 26.4 12.9517527064127 5.5
vertex 26.4 12.9517527064127 2.0
endloop
endfacet
facet normal -0.94299033358289 0.332820117735137 0.0
outer loop
vertex 6.0 17.0 25.0
vertex 4.94899480768708 14.0221519551134 19.0
vertex 4.94899480768708 14.0221519551134 25.0
endloop
endfacet
facet normal -0.94299033358289 0.332820117735137 0.0
outer loop
vertex 4.94899480768708 14.0221519551134 19.0
vertex 6.0 17.0 25.0
vertex 5.07672659345821 14.3840586814649 3.87905162253973
endloop
endfacet
facet normal -0.94299033358289 0.332820117735137 0.0
outer loop
vertex 5.07672659345821 14.3840586814649 3.87905162253973
vertex 6.0 17.0 25.0
vertex 5.28799783024165 14.982660519018 3.7257127431586
endloop
endfacet
facet normal -0.94299033358289 0.332820117735137 0.0
outer loop
vertex 5.28799783024165 14.982660519018 3.7257127431586
vertex 6.0 17.0 25.0
vertex 5.45238315186429 15.4484189302822 3.52291773962823
endloop
endfacet
facet normal -0.94299033358289 0.332820117735137 0.0
outer loop
vertex 5.45238315186429 15.4484189302822 3.52291773962823
vertex 6.0 17.0 25.0
vertex 5.55867997031714 15.7495932492319 3.28448675630462
endloop
endfacet
facet normal -0.94299033358289 0.332820117735137 0.0
outer loop
vertex 5.55867997031714 15.7495932492319 3.28448675630462
vertex 6.0 17.0 25.0
vertex 5.59964433308644 15.8656589437449 3.02666847067544
endloop
endfacet
facet normal -0.94299033358289 0.332820117735137 0.0
outer loop
vertex 2.82352941176471 8.0 25.0
vertex 0.0 0.0 0.0
vertex 0.0 0.0 25.0
endloop
endfacet
facet normal -0.94299033358289 0.332820117735137 0.0
outer loop
vertex 0.0 0.0 0.0
vertex 2.82352941176471 8.0 25.0
vertex 2.82352941176471 8.0 19.0
endloop
endfacet
facet normal -0.94299033358289 0.332820117735137 0.0
outer loop
vertex 0.0 0.0 0.0
vertex 2.82352941176471 8.0 19.0
vertex 3.60035566691356 10.2010077229218 2.97333152932456
endloop
endfacet
facet normal -0.94299033358289 0.332820117735137 0.0
outer loop
vertex 0.0 0.0 0.0
vertex 3.60035566691356 10.2010077229218 2.97333152932456
vertex 3.64132002968286 10.3170734174348 2.71551324369538
endloop
endfacet
facet normal -0.94299033358289 0.332820117735137 0.0
outer loop
vertex 0.0 0.0 0.0
vertex 3.64132002968286 10.3170734174348 2.71551324369538
vertex 3.74761684813571 10.6182477363845 2.47708226037177
endloop
endfacet
facet normal -0.94299033358289 0.332820117735137 0.0
outer loop
vertex 0.0 0.0 0.0
vertex 3.74761684813571 10.6182477363845 2.47708226037177
vertex 3.91200216975835 11.0840061476487 2.2742872568414
endloop
endfacet
facet normal -0.94299033358289 0.332820117735137 0.0
outer loop
vertex 0.0 0.0 0.0
vertex 3.91200216975835 11.0840061476487 2.2742872568414
vertex 6.0 17.0 0.0
endloop
endfacet
facet normal -0.94299033358289 0.332820117735137 0.0
outer loop
vertex 6.0 17.0 0.0
vertex 3.91200216975835 11.0840061476487 2.2742872568414
vertex 4.12327340654179 11.6826079852017 2.12094837746027
endloop
endfacet
facet normal -0.94299033358289 0.332820117735137 0.0
outer loop
vertex 6.0 17.0 0.0
vertex 4.12327340654179 11.6826079852017 2.12094837746027
vertex 4.36703277284146 12.3732595230508 2.02751541345373
endloop
endfacet
facet normal -0.94299033358289 0.332820117735137 0.0
outer loop
vertex 6.0 17.0 0.0
vertex 4.36703277284146 12.3732595230508 2.02751541345373
vertex 4.62666847067544 13.1088940002471 2.00035566691356
endloop
endfacet
facet normal -0.94299033358289 0.332820117735137 0.0
outer loop
vertex 6.0 17.0 0.0
vertex 4.62666847067544 13.1088940002471 2.00035566691356
vertex 4.88448675630462 13.8393791428631 2.04132002968286
endloop
endfacet
facet normal -0.94299033358289 0.332820117735137 0.0
outer loop
vertex 6.0 17.0 0.0
vertex 4.88448675630462 13.8393791428631 2.04132002968286
vertex 5.12291773962823 14.5149335956133 2.14761684813571
endloop
endfacet
facet normal -0.94299033358289 0.332820117735137 0.0
outer loop
vertex 6.0 17.0 0.0
vertex 5.12291773962823 14.5149335956133 2.14761684813571
vertex 5.3257127431586 15.0895194389494 2.31200216975835
endloop
endfacet
facet normal -0.94299033358289 0.332820117735137 0.0
outer loop
vertex 6.0 17.0 0.0
vertex 5.3257127431586 15.0895194389494 2.31200216975835
vertex 5.47905162253973 15.5239795971959 2.52327340654179
endloop
endfacet
facet normal -0.94299033358289 0.332820117735137 0.0
outer loop
vertex 6.0 17.0 0.0
vertex 5.47905162253973 15.5239795971959 2.52327340654179
vertex 5.57248458654627 15.7887063285477 2.76703277284146
endloop
endfacet
facet normal -0.94299033358289 0.332820117735137 0.0
outer loop
vertex 6.0 17.0 0.0
vertex 5.57248458654627 15.7887063285477 2.76703277284146
vertex 5.59964433308644 15.8656589437449 3.02666847067544
endloop
endfacet
facet normal -0.94299033358289 0.332820117735137 0.0
outer loop
vertex 6.0 17.0 0.0
vertex 5.59964433308644 15.8656589437449 3.02666847067544
vertex 6.0 17.0 25.0
endloop
endfacet
facet normal -0.94299033358289 0.332820117735137 0.0
outer loop
vertex 4.94899480768708 14.0221519551134 19.0
vertex 3.60035566691356 10.2010077229218 2.97333152932456
vertex 2.82352941176471 8.0 19.0
endloop
endfacet
facet normal -0.94299033358289 0.332820117735137 0.0
outer loop
vertex 3.60035566691356 10.2010077229218 2.97333152932456
vertex 4.94899480768708 14.0221519551134 19.0
vertex 3.62751541345373 10.2779603381189 3.23296722715854
endloop
endfacet
facet normal -0.94299033358289 0.332820117735137 0.0
outer loop
vertex 3.62751541345373 10.2779603381189 3.23296722715854
vertex 4.94899480768708 14.0221519551134 19.0
vertex 3.72094837746027 10.5426870694708 3.47672659345821
endloop
endfacet
facet normal -0.94299033358289 0.332820117735137 0.0
outer loop
vertex 3.72094837746027 10.5426870694708 3.47672659345821
vertex 4.94899480768708 14.0221519551134 19.0
vertex 3.87428725684139 10.9771472277173 3.68799783024165
endloop
endfacet
facet normal -0.94299033358289 0.332820117735137 0.0
outer loop
vertex 3.87428725684139 10.9771472277173 3.68799783024165
vertex 4.94899480768708 14.0221519551134 19.0
vertex 4.07708226037177 11.5517330710533 3.85238315186429
endloop
endfacet
facet normal -0.94299033358289 0.332820117735137 0.0
outer loop
vertex 4.07708226037177 11.5517330710533 3.85238315186429
vertex 4.94899480768708 14.0221519551134 19.0
vertex 4.31551324369538 12.2272875238036 3.95867997031714
endloop
endfacet
facet normal -0.94299033358289 0.332820117735137 0.0
outer loop
vertex 4.31551324369538 12.2272875238036 3.95867997031714
vertex 4.94899480768708 14.0221519551134 19.0
vertex 4.57333152932456 12.9577726664196 3.99964433308644
endloop
endfacet
facet normal -0.94299033358289 0.332820117735137 0.0
outer loop
vertex 4.57333152932456 12.9577726664196 3.99964433308644
vertex 4.94899480768708 14.0221519551134 19.0
vertex 4.83296722715854 13.6934071436159 3.97248458654627
endloop
endfacet
facet normal -0.94299033358289 0.332820117735137 0.0
outer loop
vertex 4.83296722715854 13.6934071436159 3.97248458654627
vertex 4.94899480768708 14.0221519551134 19.0
vertex 5.07672659345821 14.3840586814649 3.87905162253973
endloop
endfacet
facet normal -0.85238315186429 -2.58084043729066e-017 -0.522917739628232
outer loop
vertex 5.45238315186429 1.11148689307502e-017 3.52291773962823
vertex 5.55867997031714 15.7495932492319 3.28448675630462
vertex 5.55867997031714 1.10987154120159e-017 3.28448675630462
endloop
endfacet
facet normal -0.974467874305563 -8.36012183137082e-017 -0.224526973761276
outer loop
vertex 5.55867997031714 15.7495932492319 3.28448675630462
vertex 5.45238315186429 1.11148689307502e-017 3.52291773962823
vertex 5.45238315186429 15.4484189302822 3.52291773962823
endloop
endfacet
facet normal -0.562546680973482 1.3254318861236e-018 -0.826765524030677
outer loop
vertex 5.07672659345821 14.3840586814649 3.87905162253973
vertex 5.28799783024165 1.03735625000433e-017 3.7257127431586
vertex 5.07672659345821 8.92531492808106e-018 3.87905162253973
endloop
endfacet
facet normal -0.687997830241647 -8.38207270902554e-018 -0.725712743158604
outer loop
vertex 5.28799783024165 1.03735625000433e-017 3.7257127431586
vertex 5.07672659345821 14.3840586814649 3.87905162253973
vertex 5.28799783024165 14.982660519018 3.7257127431586
endloop
endfacet
facet normal -0.0758009476507361 -2.61230164431997e-017 -0.997122969515421
outer loop
vertex 4.57333152932456 12.9577726664196 3.99964433308644
vertex 4.31551324369538 1.5235860077274e-018 3.95867997031714
vertex 4.31551324369538 12.2272875238036 3.95867997031714
endloop
endfacet
facet normal 0.28448675630462 -3.47095968133339e-018 -0.958679970317142
outer loop
vertex 4.31551324369538 1.5235860077274e-018 3.95867997031714
vertex 4.57333152932456 12.9577726664196 3.99964433308644
vertex 4.57333152932456 4.34422999823913e-018 3.99964433308644
endloop
endfacet
facet normal 0.438576037295333 1.01795502541116e-017 -0.89869408560996
outer loop
vertex 4.07708226037177 11.5517330710533 3.85238315186429
vertex 3.8742872568414 -4.2298935184655e-018 3.68799783024165
vertex 3.87428725684139 10.9771472277173 3.68799783024165
endloop
endfacet
facet normal 0.725712743158604 1.919564575085e-017 -0.687997830241647
outer loop
vertex 3.8742872568414 -4.2298935184655e-018 3.68799783024165
vertex 4.07708226037177 11.5517330710533 3.85238315186429
vertex 4.07708226037177 -1.40088785136603e-018 3.85238315186429
endloop
endfacet
facet normal 0.843084516708123 3.47333166718688e-017 -0.537781087141441
outer loop
vertex 3.72094837746027 10.5426870694708 3.47672659345821
vertex 3.8742872568414 -4.2298935184655e-018 3.68799783024165
vertex 3.72094837746027 -6.7706389325111e-018 3.47672659345821
endloop
endfacet
facet normal 0.725712743158604 1.919564575085e-017 -0.687997830241647
outer loop
vertex 3.8742872568414 -4.2298935184655e-018 3.68799783024165
vertex 3.72094837746027 10.5426870694708 3.47672659345821
vertex 3.87428725684139 10.9771472277173 3.68799783024165
endloop
endfacet
facet normal 0.962680843834669 2.51200367654214e-017 -0.270639230182488
outer loop
vertex 3.62751541345373 10.2779603381189 3.23296722715854
vertex 3.72094837746027 -6.7706389325111e-018 3.47672659345821
vertex 3.62751541345373 -8.84997649231593e-018 3.23296722715854
endloop
endfacet
facet normal 0.879051622539731 3.10045112701519e-017 -0.476726593458208
outer loop
vertex 3.72094837746027 -6.7706389325111e-018 3.47672659345821
vertex 3.62751541345373 10.2779603381189 3.23296722715854
vertex 3.72094837746027 10.5426870694708 3.47672659345821
endloop
endfacet
facet normal 0.999513970420761 1.89082650345849e-017 0.0311740747052189
outer loop
vertex 3.60035566691356 10.2010077229218 2.97333152932456
vertex 3.62751541345373 -8.84997649231593e-018 3.23296722715854
vertex 3.60035566691356 -1.03262027794471e-017 2.97333152932456
endloop
endfacet
facet normal 0.972484586546267 2.56480353581191e-017 -0.232967227158536
outer loop
vertex 3.62751541345373 -8.84997649231593e-018 3.23296722715854
vertex 3.60035566691356 10.2010077229218 2.97333152932456
vertex 3.62751541345373 10.2779603381189 3.23296722715854
endloop
endfacet
facet normal 0.944303152868244 2.90566026649499e-017 0.329076823071899
outer loop
vertex 3.64132002968286 10.3170734174348 2.71551324369538
vertex 3.60035566691356 -1.03262027794471e-017 2.97333152932456
vertex 3.64132002968286 -1.10987154120159e-017 2.71551324369538
endloop
endfacet
facet normal 0.99964433308644 1.91885189184758e-017 0.0266684706754407
outer loop
vertex 3.60035566691356 -1.03262027794471e-017 2.97333152932456
vertex 3.64132002968286 10.3170734174348 2.71551324369538
vertex 3.60035566691356 10.2010077229218 2.97333152932456
endloop
endfacet
facet normal 0.687997830241647 2.73076456422262e-018 0.725712743158604
outer loop
vertex 3.91200216975835 -1.03735625000433e-017 2.2742872568414
vertex 3.74761684813571 10.6182477363845 2.47708226037177
vertex 3.74761684813571 -1.11148689307502e-017 2.47708226037177
endloop
endfacet
facet normal 0.81063363599605 1.17324931445655e-017 0.585553676610286
outer loop
vertex 3.74761684813571 10.6182477363845 2.47708226037177
vertex 3.91200216975835 -1.03735625000433e-017 2.2742872568414
vertex 3.91200216975835 11.0840061476487 2.2742872568414
endloop
endfacet
facet normal -0.28448675630462 3.22083833699144e-017 0.958679970317142
outer loop
vertex 4.88448675630462 -1.5235860077274e-018 2.04132002968286
vertex 4.62666847067544 13.1088940002471 2.00035566691356
vertex 4.62666847067544 -4.34422999823914e-018 2.00035566691356
endloop
endfacet
facet normal -0.1290005110182 2.00799710549887e-017 0.991644527114955
outer loop
vertex 4.62666847067544 13.1088940002471 2.00035566691356
vertex 4.88448675630462 -1.5235860077274e-018 2.04132002968286
vertex 4.88448675630462 13.8393791428631 2.04132002968286
endloop
endfacet
facet normal -0.725712743158604 4.37098419454782e-017 0.687997830241647
outer loop
vertex 5.3257127431586 4.2298935184655e-018 2.31200216975835
vertex 5.12291773962823 14.5149335956133 2.14761684813571
vertex 5.12291773962823 1.40088785136603e-018 2.14761684813571
endloop
endfacet
facet normal -0.605270530453101 3.39885414548749e-017 0.796019839554908
outer loop
vertex 5.12291773962823 14.5149335956133 2.14761684813571
vertex 5.3257127431586 4.2298935184655e-018 2.31200216975835
vertex 5.3257127431586 15.0895194389494 2.31200216975835
endloop
endfacet
facet normal -0.879051622539731 3.48924711471459e-017 0.476726593458207
outer loop
vertex 5.47905162253973 6.7706389325111e-018 2.52327340654179
vertex 5.3257127431586 15.0895194389494 2.31200216975835
vertex 5.3257127431586 4.2298935184655e-018 2.31200216975835
endloop
endfacet
facet normal -0.787256377436422 5.12525243222572e-017 0.616625815374025
outer loop
vertex 5.3257127431586 15.0895194389494 2.31200216975835
vertex 5.47905162253973 6.7706389325111e-018 2.52327340654179
vertex 5.47905162253973 15.5239795971959 2.52327340654179
endloop
endfacet
facet normal -0.99964433308644 -5.99316716645951e-017 -0.026668470675442
outer loop
vertex 5.59964433308644 1.03262027794471e-017 3.02666847067544
vertex 5.57248458654627 15.7887063285477 2.76703277284146
vertex 5.57248458654627 8.84997649231593e-018 2.76703277284146
endloop
endfacet
facet normal -0.983612794574744 -8.01737687496186e-018 0.180293844456384
outer loop
vertex 5.57248458654627 15.7887063285477 2.76703277284146
vertex 5.59964433308644 1.03262027794471e-017 3.02666847067544
vertex 5.59964433308644 15.8656589437449 3.02666847067544
endloop
endfacet
facet normal -0.966665798012921 -2.78468457431123e-016 -0.256041471156612
outer loop
vertex 29.3666657980129 1.10488618811606e-017 3.25604147115661
vertex 29.3999958687624 10.2000117051732 2.99712555081625
vertex 29.3999958687624 1.01933595497745e-017 2.99712555081625
endloop
endfacet
facet normal -0.999994354411579 -1.52357530454137e-016 0.00336022989833252
outer loop
vertex 29.3999958687624 10.2000117051732 2.99712555081625
vertex 29.3666657980129 1.10488618811606e-017 3.25604147115661
vertex 29.3666657980129 10.2944469056301 3.25604147115661
endloop
endfacet
facet normal -0.643883425961159 5.51004774223347e-017 -0.765123606858736
outer loop
vertex 29.1091364024704 11.0241135263338 3.70507131745043
vertex 29.2674590506196 1.11514025344532e-017 3.49750858836619
vertex 29.1091364024704 1.04939935335868e-017 3.70507131745043
endloop
endfacet
facet normal -0.867459050619614 -9.11585523477635e-017 -0.497508588366189
outer loop
vertex 29.2674590506196 1.11514025344532e-017 3.49750858836619
vertex 29.1091364024704 11.0241135263338 3.70507131745043
vertex 29.2674590506196 10.5755326899111 3.49750858836619
endloop
endfacet
facet normal -0.643883425961159 5.51004774223347e-017 -0.765123606858736
outer loop
vertex 29.1091364024704 11.0241135263338 3.70507131745043
vertex 28.9024872803962 9.12143621555074e-018 3.86458460143586
vertex 28.9024872803962 11.6096193722107 3.86458460143586
endloop
endfacet
facet normal -0.502487280396222 3.7945106283012e-017 -0.864584601435862
outer loop
vertex 28.9024872803962 9.12143621555074e-018 3.86458460143586
vertex 29.1091364024704 11.0241135263338 3.70507131745043
vertex 29.1091364024704 1.04939935335868e-017 3.70507131745043
endloop
endfacet
facet normal -0.163027620231966 -2.08630093640758e-017 -0.986621505462709
outer loop
vertex 28.6615944805625 12.2921489717396 3.96517787362705
vertex 28.4028744491837 4.64738842887948e-018 3.99999586876241
vertex 28.4028744491837 13.025189060646 3.99999586876241
endloop
endfacet
facet normal -0.00287444918375193 -1.34599275347978e-017 -0.999995868762411
outer loop
vertex 28.4028744491837 4.64738842887948e-018 3.99999586876241
vertex 28.6615944805625 12.2921489717396 3.96517787362705
vertex 28.6615944805625 7.12726809331097e-018 3.96517787362705
endloop
endfacet
facet normal 0.353542871872604 4.22388026788954e-017 -0.93541832232861
outer loop
vertex 28.1439585288434 13.7587841682771 3.96666579801292
vertex 27.9024914116338 -1.07192333422377e-018 3.86745905061961
vertex 27.9024914116338 14.4429410003709 3.86745905061961
endloop
endfacet
facet normal 0.497508588366192 3.27059880685015e-017 -0.867459050619612
outer loop
vertex 27.9024914116338 -1.07192333422377e-018 3.86745905061961
vertex 28.1439585288434 13.7587841682771 3.96666579801292
vertex 28.1439585288434 1.85079692319237e-018 3.96666579801292
endloop
endfacet
facet normal 0.581817777808801 2.11573967026514e-017 -0.813319170698459
outer loop
vertex 27.9024914116338 14.4429410003709 3.86745905061961
vertex 27.6949286825496 -3.92159378784963e-018 3.70913640247044
vertex 27.6949286825496 15.0310353994429 3.70913640247044
endloop
endfacet
facet normal 0.70507131745043 -1.24112140820175e-017 -0.709136402470438
outer loop
vertex 27.6949286825496 -3.92159378784963e-018 3.70913640247044
vertex 27.9024914116338 14.4429410003709 3.86745905061961
vertex 27.9024914116338 -1.07192333422377e-018 3.86745905061961
endloop
endfacet
facet normal 0.903816381207048 -7.70674236493971e-018 -0.427920493855806
outer loop
vertex 27.5354153985641 15.4829897040683 3.50248728039622
vertex 27.6949286825496 -3.92159378784963e-018 3.70913640247044
vertex 27.5354153985641 -6.50401410557369e-018 3.50248728039622
endloop
endfacet
facet normal 0.70507131745043 -1.24112140820175e-017 -0.709136402470438
outer loop
vertex 27.6949286825496 -3.92159378784963e-018 3.70913640247044
vertex 27.5354153985641 15.4829897040683 3.50248728039622
vertex 27.6949286825496 15.0310353994429 3.70913640247044
endloop
endfacet
facet normal 0.978833020288698 8.66520021988653e-018 -0.204660495436967
outer loop
vertex 27.4348221263729 15.7680039752766 3.2615944805625
vertex 27.5354153985641 -6.50401410557369e-018 3.50248728039622
vertex 27.4348221263729 -8.64319661039442e-018 3.26159448056249
endloop
endfacet
facet normal 0.864584601435858 -2.13433471364024e-017 -0.502487280396228
outer loop
vertex 27.5354153985641 -6.50401410557369e-018 3.50248728039622
vertex 27.4348221263729 15.7680039752766 3.2615944805625
vertex 27.5354153985641 15.4829897040683 3.50248728039622
endloop
endfacet
facet normal 0.979817943139047 2.22186622261221e-016 0.199891966578868
outer loop
vertex 27.4333342019871 15.7722197610366 2.74395852884339
vertex 27.4000041312376 -1.01933595497745e-017 3.00287444918375
vertex 27.4333342019871 -1.10488618811606e-017 2.74395852884339
endloop
endfacet
facet normal 0.999995868762412 9.42047375613498e-017 -0.0028744491837569
outer loop
vertex 27.4000041312376 -1.01933595497745e-017 3.00287444918375
vertex 27.4333342019871 15.7722197610366 2.74395852884339
vertex 27.4000041312376 15.8666549614935 3.00287444918375
endloop
endfacet
facet normal 0.90611355772528 2.95370901446549e-016 0.423034538195685
outer loop
vertex 27.5325409493804 15.4911339767556 2.50249141163381
vertex 27.4333342019871 -1.10488618811606e-017 2.74395852884339
vertex 27.5325409493804 -1.11514025344532e-017 2.50249141163381
endloop
endfacet
facet normal 0.966665798012922 2.58657786322643e-016 0.256041471156609
outer loop
vertex 27.4333342019871 -1.10488618811606e-017 2.74395852884339
vertex 27.5325409493804 15.4911339767556 2.50249141163381
vertex 27.4333342019871 15.7722197610366 2.74395852884339
endloop
endfacet
facet normal 0.709136402470435 -1.48542097700669e-017 0.705071317450433
outer loop
vertex 27.6908635975296 -1.04939935335868e-017 2.29492868254957
vertex 27.5325409493804 15.4911339767556 2.50249141163381
vertex 27.5325409493804 -1.11514025344532e-017 2.50249141163381
endloop
endfacet
facet normal 0.90611355772528 2.95370901446549e-016 0.423034538195685
outer loop
vertex 27.5325409493804 15.4911339767556 2.50249141163381
vertex 27.6908635975296 -1.04939935335868e-017 2.29492868254957
vertex 27.6908635975296 15.0425531403329 2.29492868254958
endloop
endfacet
facet normal 0.502487280396224 -1.09214315570375e-016 0.864584601435861
outer loop
vertex 27.8975127196038 -9.12143621555074e-018 2.13541539856414
vertex 27.6908635975296 15.0425531403329 2.29492868254958
vertex 27.6908635975296 -1.04939935335868e-017 2.29492868254957
endloop
endfacet
facet normal 0.77279929273394 6.36910455688589e-017 0.634650496848401
outer loop
vertex 27.6908635975296 15.0425531403329 2.29492868254958
vertex 27.8975127196038 -9.12143621555074e-018 2.13541539856414
vertex 27.8975127196038 14.457047294456 2.13541539856414
endloop
endfacet
facet normal 0.261594480562497 -6.03694116695e-017 0.965177873627052
outer loop
vertex 28.1384055194375 -7.12726809331097e-018 2.03482212637295
vertex 27.8975127196038 14.457047294456 2.13541539856414
vertex 27.8975127196038 -9.12143621555074e-018 2.13541539856414
endloop
endfacet
facet normal 0.586422730396501 -1.19754082619978e-016 0.810005173609597
outer loop
vertex 27.8975127196038 14.457047294456 2.13541539856414
vertex 28.1384055194375 -7.12726809331097e-018 2.03482212637295
vertex 28.1384055194375 13.7745176949271 2.03482212637295
endloop
endfacet
facet normal -0.999995868762412 -1.52888028756611e-016 0.0028744491837456
outer loop
vertex 29.3999958687624 1.01933595497745e-017 2.99712555081625
vertex 29.3651778736271 10.29866269139 2.73840551943751
vertex 29.3651778736271 8.64319661039442e-018 2.73840551943751
endloop
endfacet
facet normal -0.95292041404986 5.99621194376227e-018 0.303220521216893
outer loop
vertex 29.3651778736271 10.29866269139 2.73840551943751
vertex 29.3999958687624 1.01933595497745e-017 2.99712555081625
vertex 29.3999958687624 10.2000117051732 2.99712555081625
endloop
endfacet
facet normal -0.331273055472986 -6.92712256832757e-018 -0.943534929251478
outer loop
vertex 4.83296722715854 13.6934071436159 3.97248458654627
vertex 4.57333152932456 4.34422999823913e-018 3.99964433308644
vertex 4.57333152932456 12.9577726664196 3.99964433308644
endloop
endfacet
facet normal 0.0266684706754416 -2.29411608531436e-017 -0.99964433308644
outer loop
vertex 4.57333152932456 4.34422999823913e-018 3.99964433308644
vertex 4.83296722715854 13.6934071436159 3.97248458654627
vertex 4.83296722715854 6.86882189355039e-018 3.97248458654627
endloop
endfacet
facet normal 0.00287444918375293 -6.6858142411412e-018 0.999995868762411
outer loop
vertex 28.3971255508162 -4.64738842887949e-018 2.00000413123759
vertex 28.1384055194375 13.7745176949271 2.03482212637295
vertex 28.1384055194375 -7.12726809331097e-018 2.03482212637295
endloop
endfacet
facet normal 0.358891241457759 -8.66461180876179e-017 0.93337938524745
outer loop
vertex 28.1384055194375 13.7745176949271 2.03482212637295
vertex 28.3971255508162 -4.64738842887949e-018 2.00000413123759
vertex 28.3971255508162 13.0414776060206 2.00000413123759
endloop
endfacet
facet normal -0.965177873627053 2.25069127832596e-018 0.261594480562494
outer loop
vertex 29.3651778736271 8.64319661039442e-018 2.73840551943751
vertex 29.2645846014359 10.5836769625984 2.49751271960378
vertex 29.2645846014359 6.50401410557369e-018 2.49751271960378
endloop
endfacet
facet normal -0.825408205442021 1.12877851065785e-016 0.564536353469803
outer loop
vertex 29.2645846014359 10.5836769625984 2.49751271960378
vertex 29.3651778736271 8.64319661039442e-018 2.73840551943751
vertex 29.3651778736271 10.29866269139 2.73840551943751
endloop
endfacet
facet normal 0.81063363599605 1.17324931445655e-017 0.585553676610286
outer loop
vertex 3.74761684813571 10.6182477363845 2.47708226037177
vertex 3.64132002968286 -1.10987154120159e-017 2.71551324369538
vertex 3.74761684813571 -1.11148689307502e-017 2.47708226037177
endloop
endfacet
facet normal 0.958679970317142 2.43403469828794e-017 0.284486756304619
outer loop
vertex 3.64132002968286 -1.10987154120159e-017 2.71551324369538
vertex 3.74761684813571 10.6182477363845 2.47708226037177
vertex 3.64132002968286 10.3170734174348 2.71551324369538
endloop
endfacet
facet normal -0.754235851474924 -1.59579361695241e-017 -0.656603594530137
outer loop
vertex 5.28799783024165 14.982660519018 3.7257127431586
vertex 5.45238315186429 1.11148689307502e-017 3.52291773962823
vertex 5.28799783024165 1.03735625000433e-017 3.7257127431586
endloop
endfacet
facet normal -0.85238315186429 -2.58084043729066e-017 -0.522917739628232
outer loop
vertex 5.45238315186429 1.11148689307502e-017 3.52291773962823
vertex 5.28799783024165 14.982660519018 3.7257127431586
vertex 5.45238315186429 15.4484189302822 3.52291773962823
endloop
endfacet
facet normal 0.438576037295333 1.01795502541116e-017 -0.89869408560996
outer loop
vertex 4.07708226037177 11.5517330710533 3.85238315186429
vertex 4.31551324369538 1.5235860077274e-018 3.95867997031714
vertex 4.07708226037177 -1.40088785136603e-018 3.85238315186429
endloop
endfacet
facet normal 0.28448675630462 -3.47095968133339e-018 -0.958679970317142
outer loop
vertex 4.31551324369538 1.5235860077274e-018 3.95867997031714
vertex 4.07708226037177 11.5517330710533 3.85238315186429
vertex 4.31551324369538 12.2272875238036 3.95867997031714
endloop
endfacet
facet normal -0.867459050619614 -9.11585523477635e-017 -0.497508588366189
outer loop
vertex 29.2674590506196 1.11514025344532e-017 3.49750858836619
vertex 29.3666657980129 10.2944469056301 3.25604147115661
vertex 29.3666657980129 1.10488618811606e-017 3.25604147115661
endloop
endfacet
facet normal -0.954902004925325 -2.72341869506603e-016 -0.296921135976532
outer loop
vertex 29.3666657980129 10.2944469056301 3.25604147115661
vertex 29.2674590506196 1.11514025344532e-017 3.49750858836619
vertex 29.2674590506196 10.5755326899111 3.49750858836619
endloop
endfacet
facet normal -0.705071317450428 1.57460765727919e-016 0.70913640247044
outer loop
vertex 29.1050713174504 3.92159378784963e-018 2.29086359752956
vertex 28.8975085883662 11.6237256662958 2.13254094938039
vertex 28.8975085883662 1.07192333422377e-018 2.13254094938039
endloop
endfacet
facet normal -0.411233487607663 1.04740802568705e-016 0.911530042659066
outer loop
vertex 28.8975085883662 11.6237256662958 2.13254094938039
vertex 29.1050713174504 3.92159378784963e-018 2.29086359752956
vertex 29.1050713174504 11.0356312672238 2.29086359752956
endloop
endfacet
facet normal -0.256041471156607 5.38549327483023e-017 0.966665798012923
outer loop
vertex 28.6560414711566 -1.85079692319237e-018 2.03333420198708
vertex 28.3971255508162 13.0414776060206 2.00000413123759
vertex 28.3971255508162 -4.64738842887949e-018 2.00000413123759
endloop
endfacet
facet normal 0.105313373871514 -2.17760737830596e-017 0.994439084752706
outer loop
vertex 28.3971255508162 13.0414776060206 2.00000413123759
vertex 28.6560414711566 -1.85079692319237e-018 2.03333420198708
vertex 28.6560414711566 12.3078824983896 2.03333420198708
endloop
endfacet
facet normal 0.0995792912394979 -2.88251396903165e-018 -0.995029630089596
outer loop
vertex 28.4028744491837 13.025189060646 3.99999586876241
vertex 28.1439585288434 1.85079692319237e-018 3.96666579801292
vertex 28.1439585288434 13.7587841682771 3.96666579801292
endloop
endfacet
facet normal 0.256041471156609 2.38631720142897e-017 -0.966665798012922
outer loop
vertex 28.1439585288434 1.85079692319237e-018 3.96666579801292
vertex 28.4028744491837 13.025189060646 3.99999586876241
vertex 28.4028744491837 4.64738842887948e-018 3.99999586876241
endloop
endfacet
facet normal -0.522917739628232 3.81953396844734e-017 0.85238315186429
outer loop
vertex 5.12291773962823 1.40088785136603e-018 2.14761684813571
vertex 4.88448675630462 13.8393791428631 2.04132002968286
vertex 4.88448675630462 -1.5235860077274e-018 2.04132002968286
endloop
endfacet
facet normal -0.380894089016815 4.07988007594868e-017 0.924618674347458
outer loop
vertex 4.88448675630462 13.8393791428631 2.04132002968286
vertex 5.12291773962823 1.40088785136603e-018 2.14761684813571
vertex 5.12291773962823 14.5149335956133 2.14761684813571
endloop
endfacet
facet normal 0.999997782798073 9.46842890547398e-017 -0.00210580125783245
outer loop
vertex 27.4000041312376 15.8666549614935 3.00287444918375
vertex 27.4348221263729 -8.64319661039442e-018 3.26159448056249
vertex 27.4000041312376 -1.01933595497745e-017 3.00287444918375
endloop
endfacet
facet normal 0.965177873627052 5.96394651152655e-018 -0.261594480562497
outer loop
vertex 27.4348221263729 -8.64319661039442e-018 3.26159448056249
vertex 27.4000041312376 15.8666549614935 3.00287444918375
vertex 27.4348221263729 15.7680039752766 3.2615944805625
endloop
endfacet
facet normal -0.86458460143586 7.75041097238995e-017 0.502487280396226
outer loop
vertex 29.2645846014359 6.50401410557369e-018 2.49751271960378
vertex 29.1050713174504 11.0356312672238 2.29086359752956
vertex 29.1050713174504 3.92159378784963e-018 2.29086359752956
endloop
endfacet
facet normal -0.639289297718988 1.67685586836954e-016 0.768966315141283
outer loop
vertex 29.1050713174504 11.0356312672238 2.29086359752956
vertex 29.2645846014359 6.50401410557369e-018 2.49751271960378
vertex 29.2645846014359 10.5836769625984 2.49751271960378
endloop
endfacet
facet normal -0.416580338163922 2.82334124241934e-017 -0.909098906530655
outer loop
vertex 28.9024872803962 11.6096193722107 3.86458460143586
vertex 28.6615944805625 7.12726809331097e-018 3.96517787362705
vertex 28.6615944805625 12.2921489717396 3.96517787362705
endloop
endfacet
facet normal -0.261594480562494 -1.00286163811936e-018 -0.965177873627053
outer loop
vertex 28.6615944805625 7.12726809331097e-018 3.96517787362705
vertex 28.9024872803962 11.6096193722107 3.86458460143586
vertex 28.9024872803962 9.12143621555074e-018 3.86458460143586
endloop
endfacet
facet normal -0.562546680973482 1.3254318861236e-018 -0.826765524030677
outer loop
vertex 5.07672659345821 14.3840586814649 3.87905162253973
vertex 4.83296722715854 6.86882189355039e-018 3.97248458654627
vertex 4.83296722715854 13.6934071436159 3.97248458654627
endloop
endfacet
facet normal -0.232967227158537 -1.58356959282849e-017 -0.972484586546266
outer loop
vertex 4.83296722715854 6.86882189355039e-018 3.97248458654627
vertex 5.07672659345821 14.3840586814649 3.87905162253973
vertex 5.07672659345821 8.92531492808106e-018 3.87905162253973
endloop
endfacet
facet normal -0.958679970317142 -6.74137038242847e-017 -0.284486756304619
outer loop
vertex 5.55867997031714 1.10987154120159e-017 3.28448675630462
vertex 5.59964433308644 15.8656589437449 3.02666847067544
vertex 5.59964433308644 1.03262027794471e-017 3.02666847067544
endloop
endfacet
facet normal -0.999808792692265 -5.76522155139656e-017 -0.0195544893882756
outer loop
vertex 5.59964433308644 15.8656589437449 3.02666847067544
vertex 5.55867997031714 1.10987154120159e-017 3.28448675630462
vertex 5.55867997031714 15.7495932492319 3.28448675630462
endloop
endfacet
facet normal 0.476726593458208 6.94126700031714e-018 0.87905162253973
outer loop
vertex 4.12327340654179 -8.92531492808107e-018 2.12094837746027
vertex 3.91200216975835 11.0840061476487 2.2742872568414
vertex 3.91200216975835 -1.03735625000433e-017 2.2742872568414
endloop
endfacet
facet normal 0.620058756150076 1.35408960377586e-018 0.78455537658066
outer loop
vertex 3.91200216975835 11.0840061476487 2.2742872568414
vertex 4.12327340654179 -8.92531492808107e-018 2.12094837746027
vertex 4.12327340654179 11.6826079852017 2.12094837746027
endloop
endfacet
facet normal -0.972484586546267 -1.26582973221195e-018 0.232967227158535
outer loop
vertex 5.57248458654627 8.84997649231593e-018 2.76703277284146
vertex 5.47905162253973 15.5239795971959 2.52327340654179
vertex 5.47905162253973 6.7706389325111e-018 2.52327340654179
endloop
endfacet
facet normal -0.915311711052113 2.24953270126565e-017 0.402746162751247
outer loop
vertex 5.47905162253973 15.5239795971959 2.52327340654179
vertex 5.57248458654627 8.84997649231593e-018 2.76703277284146
vertex 5.57248458654627 15.7887063285477 2.76703277284146
endloop
endfacet
facet normal 0.232967227158537 1.36765239239615e-017 0.972484586546266
outer loop
vertex 4.36703277284146 -6.86882189355039e-018 2.02751541345373
vertex 4.12327340654179 11.6826079852017 2.12094837746027
vertex 4.12327340654179 -8.92531492808107e-018 2.12094837746027
endloop
endfacet
facet normal 0.388969199888336 1.1498250195382e-017 0.921250759314872
outer loop
vertex 4.12327340654179 11.6826079852017 2.12094837746027
vertex 4.36703277284146 -6.86882189355039e-018 2.02751541345373
vertex 4.36703277284146 12.3732595230508 2.02751541345373
endloop
endfacet
facet normal -0.49750858836619 1.34248252705117e-016 0.867459050619614
outer loop
vertex 28.8975085883662 1.07192333422377e-018 2.13254094938039
vertex 28.6560414711566 12.3078824983896 2.03333420198708
vertex 28.6560414711566 -1.85079692319237e-018 2.03333420198708
endloop
endfacet
facet normal -0.157293597914189 2.21074422556713e-017 0.98755188423455
outer loop
vertex 28.6560414711566 12.3078824983896 2.03333420198708
vertex 28.8975085883662 1.07192333422377e-018 2.13254094938039
vertex 28.8975085883662 11.6237256662958 2.13254094938039
endloop
endfacet
facet normal -0.0266684706754402 1.75574064181913e-017 0.99964433308644
outer loop
vertex 4.62666847067544 -4.34422999823914e-018 2.00035566691356
vertex 4.36703277284146 12.3732595230508 2.02751541345373
vertex 4.36703277284146 -6.86882189355039e-018 2.02751541345373
endloop
endfacet
facet normal 0.133515442131121 1.40074308666893e-017 0.991046732860026
outer loop
vertex 4.36703277284146 12.3732595230508 2.02751541345373
vertex 4.62666847067544 -4.34422999823914e-018 2.00035566691356
vertex 4.62666847067544 13.1088940002471 2.00035566691356
endloop
endfacet
facet normal 0.942990333582889 0.332820117735138 -2.41407157748985e-018
outer loop
vertex 33.0 0.0 0.0
vertex 29.3651778736271 10.29866269139 2.73840551943751
vertex 33.0 0.0 25.0
endloop
endfacet
facet normal 0.942990333582889 0.332820117735138 -2.41407157748985e-018
outer loop
vertex 29.3651778736271 10.29866269139 2.73840551943751
vertex 33.0 0.0 0.0
vertex 29.2645846014359 10.5836769625984 2.49751271960378
endloop
endfacet
facet normal 0.942990333582889 0.332820117735138 -2.41407157748985e-018
outer loop
vertex 29.2645846014359 10.5836769625984 2.49751271960378
vertex 33.0 0.0 0.0
vertex 29.1050713174504 11.0356312672238 2.29086359752956
endloop
endfacet
facet normal 0.942990333582889 0.332820117735138 -2.41407157748985e-018
outer loop
vertex 29.1050713174504 11.0356312672238 2.29086359752956
vertex 33.0 0.0 0.0
vertex 27.0 17.0 0.0
endloop
endfacet
facet normal 0.942990333582889 0.332820117735138 -2.41407157748985e-018
outer loop
vertex 33.0 0.0 25.0
vertex 29.3651778736271 10.29866269139 2.73840551943751
vertex 29.3999958687624 10.2000117051732 2.99712555081625
endloop
endfacet
facet normal 0.942990333582889 0.332820117735138 -2.41407157748985e-018
outer loop
vertex 33.0 0.0 25.0
vertex 29.3999958687624 10.2000117051732 2.99712555081625
vertex 30.1764705882353 8.0 19.0
endloop
endfacet
facet normal 0.942990333582889 0.332820117735138 -2.41407157748985e-018
outer loop
vertex 29.1050713174504 11.0356312672238 2.29086359752956
vertex 27.0 17.0 0.0
vertex 28.8975085883662 11.6237256662958 2.13254094938039
endloop
endfacet
facet normal 0.942990333582889 0.332820117735138 -2.41407157748985e-018
outer loop
vertex 28.8975085883662 11.6237256662958 2.13254094938039
vertex 27.0 17.0 0.0
vertex 28.6560414711566 12.3078824983896 2.03333420198708
endloop
endfacet
facet normal 0.942990333582889 0.332820117735138 -2.41407157748985e-018
outer loop
vertex 28.6560414711566 12.3078824983896 2.03333420198708
vertex 27.0 17.0 0.0
vertex 28.3971255508162 13.0414776060206 2.00000413123759
endloop
endfacet
facet normal 0.942990333582889 0.332820117735138 -2.41407157748985e-018
outer loop
vertex 28.3971255508162 13.0414776060206 2.00000413123759
vertex 27.0 17.0 0.0
vertex 28.1384055194375 13.7745176949271 2.03482212637295
endloop
endfacet
facet normal 0.942990333582889 0.332820117735138 -2.41407157748985e-018
outer loop
vertex 28.1384055194375 13.7745176949271 2.03482212637295
vertex 27.0 17.0 0.0
vertex 27.8975127196038 14.457047294456 2.13541539856414
endloop
endfacet
facet normal 0.942990333582889 0.332820117735138 -2.41407157748985e-018
outer loop
vertex 27.8975127196038 14.457047294456 2.13541539856414
vertex 27.0 17.0 0.0
vertex 27.6908635975296 15.0425531403329 2.29492868254958
endloop
endfacet
facet normal 0.942990333582889 0.332820117735138 -2.41407157748985e-018
outer loop
vertex 27.6908635975296 15.0425531403329 2.29492868254958
vertex 27.0 17.0 0.0
vertex 27.5325409493804 15.4911339767556 2.50249141163381
endloop
endfacet
facet normal 0.942990333582889 0.332820117735138 -2.41407157748985e-018
outer loop
vertex 27.5325409493804 15.4911339767556 2.50249141163381
vertex 27.0 17.0 0.0
vertex 27.4333342019871 15.7722197610366 2.74395852884339
endloop
endfacet
facet normal 0.942990333582889 0.332820117735138 -2.41407157748985e-018
outer loop
vertex 27.4333342019871 15.7722197610366 2.74395852884339
vertex 27.0 17.0 0.0
vertex 27.4000041312376 15.8666549614935 3.00287444918375
endloop
endfacet
facet normal 0.942990333582889 0.332820117735138 -2.41407157748985e-018
outer loop
vertex 29.3999958687624 10.2000117051732 2.99712555081625
vertex 28.0510051923129 14.0221519551134 19.0
vertex 30.1764705882353 8.0 19.0
endloop
endfacet
facet normal 0.942990333582889 0.332820117735138 -2.41407157748985e-018
outer loop
vertex 28.0510051923129 14.0221519551134 19.0
vertex 29.3999958687624 10.2000117051732 2.99712555081625
vertex 29.3666657980129 10.2944469056301 3.25604147115661
endloop
endfacet
facet normal 0.942990333582889 0.332820117735138 -2.41407157748985e-018
outer loop
vertex 28.0510051923129 14.0221519551134 19.0
vertex 29.3666657980129 10.2944469056301 3.25604147115661
vertex 29.2674590506196 10.5755326899111 3.49750858836619
endloop
endfacet
facet normal 0.942990333582889 0.332820117735138 -2.41407157748985e-018
outer loop
vertex 28.0510051923129 14.0221519551134 19.0
vertex 29.2674590506196 10.5755326899111 3.49750858836619
vertex 29.1091364024704 11.0241135263338 3.70507131745043
endloop
endfacet
facet normal 0.942990333582889 0.332820117735138 -2.41407157748985e-018
outer loop
vertex 28.0510051923129 14.0221519551134 19.0
vertex 29.1091364024704 11.0241135263338 3.70507131745043
vertex 28.9024872803962 11.6096193722107 3.86458460143586
endloop
endfacet
facet normal 0.942990333582889 0.332820117735138 -2.41407157748985e-018
outer loop
vertex 28.0510051923129 14.0221519551134 19.0
vertex 28.9024872803962 11.6096193722107 3.86458460143586
vertex 28.6615944805625 12.2921489717396 3.96517787362705
endloop
endfacet
facet normal 0.942990333582889 0.332820117735138 -2.41407157748985e-018
outer loop
vertex 28.0510051923129 14.0221519551134 19.0
vertex 28.6615944805625 12.2921489717396 3.96517787362705
vertex 28.4028744491837 13.025189060646 3.99999586876241
endloop
endfacet
facet normal 0.942990333582889 0.332820117735138 -2.41407157748985e-018
outer loop
vertex 28.0510051923129 14.0221519551134 19.0
vertex 28.4028744491837 13.025189060646 3.99999586876241
vertex 28.1439585288434 13.7587841682771 3.96666579801292
endloop
endfacet
facet normal 0.942990333582889 0.332820117735138 -2.41407157748985e-018
outer loop
vertex 28.0510051923129 14.0221519551134 19.0
vertex 28.1439585288434 13.7587841682771 3.96666579801292
vertex 27.9024914116338 14.4429410003709 3.86745905061961
endloop
endfacet
facet normal 0.942990333582889 0.332820117735138 -2.41407157748985e-018
outer loop
vertex 28.0510051923129 14.0221519551134 19.0
vertex 27.9024914116338 14.4429410003709 3.86745905061961
vertex 28.0510051923129 14.0221519551134 25.0
endloop
endfacet
facet normal 0.942990333582889 0.332820117735138 -2.41407157748985e-018
outer loop
vertex 28.0510051923129 14.0221519551134 25.0
vertex 27.9024914116338 14.4429410003709 3.86745905061961
vertex 27.0 17.0 25.0
endloop
endfacet
facet normal 0.942990333582889 0.332820117735138 -2.41407157748985e-018
outer loop
vertex 27.0 17.0 25.0
vertex 27.9024914116338 14.4429410003709 3.86745905061961
vertex 27.6949286825496 15.0310353994429 3.70913640247044
endloop
endfacet
facet normal 0.942990333582889 0.332820117735138 -2.41407157748985e-018
outer loop
vertex 27.0 17.0 25.0
vertex 27.6949286825496 15.0310353994429 3.70913640247044
vertex 27.5354153985641 15.4829897040683 3.50248728039622
endloop
endfacet
facet normal 0.942990333582889 0.332820117735138 -2.41407157748985e-018
outer loop
vertex 27.0 17.0 25.0
vertex 27.5354153985641 15.4829897040683 3.50248728039622
vertex 27.4348221263729 15.7680039752766 3.2615944805625
endloop
endfacet
facet normal 0.942990333582889 0.332820117735138 -2.41407157748985e-018
outer loop
vertex 27.0 17.0 25.0
vertex 27.4348221263729 15.7680039752766 3.2615944805625
vertex 27.4000041312376 15.8666549614935 3.00287444918375
endloop
endfacet
facet normal 0.942990333582889 0.332820117735138 -2.41407157748985e-018
outer loop
vertex 27.0 17.0 25.0
vertex 27.4000041312376 15.8666549614935 3.00287444918375
vertex 27.0 17.0 0.0
endloop
endfacet
facet normal 0.942990333582889 0.332820117735138 -2.41407157748985e-018
outer loop
vertex 30.1764705882353 8.0 25.0
vertex 33.0 0.0 25.0
vertex 30.1764705882353 8.0 19.0
endloop
endfacet
endsolid Kossel Fan Shroud4
