solid My Glass Tab
facet normal 0.0 0.0 -1.0
outer loop
vertex 0.0 15.0 0.0
vertex 7.13933982822018 8.56066017177982 7.04991620636974e-015
vertex 0.0 0.0 0.0
endloop
endfacet
facet normal 0.0 0.0 -1.0
outer loop
vertex 7.13933982822018 8.56066017177982 7.04991620636974e-015
vertex 0.0 15.0 0.0
vertex 7.45 8.79903810567666 7.04991620636974e-015
endloop
endfacet
facet normal 0.0 0.0 -1.0
outer loop
vertex 7.45 8.79903810567666 7.04991620636974e-015
vertex 0.0 15.0 0.0
vertex 21.0 15.0 0.0
endloop
endfacet
facet normal 0.0 0.0 -1.0
outer loop
vertex 0.0 0.0 0.0
vertex 7.13933982822018 8.56066017177982 7.04991620636974e-015
vertex 6.90096189432334 8.25 7.04991620636974e-015
endloop
endfacet
facet normal 0.0 0.0 -1.0
outer loop
vertex 0.0 0.0 0.0
vertex 6.90096189432334 8.25 7.04991620636974e-015
vertex 6.7511112605664 7.88822856765378 7.04991620636974e-015
endloop
endfacet
facet normal 0.0 0.0 -1.0
outer loop
vertex 0.0 0.0 0.0
vertex 6.7511112605664 7.88822856765378 7.04991620636974e-015
vertex 6.7 7.5 7.04991620636974e-015
endloop
endfacet
facet normal 0.0 0.0 -1.0
outer loop
vertex 7.45 8.79903810567666 7.04991620636974e-015
vertex 21.0 15.0 0.0
vertex 7.81177143234622 8.9488887394336 7.04991620636974e-015
endloop
endfacet
facet normal 0.0 0.0 -1.0
outer loop
vertex 7.81177143234622 8.9488887394336 7.04991620636974e-015
vertex 21.0 15.0 0.0
vertex 8.2 9.0 7.04991620636974e-015
endloop
endfacet
facet normal 0.0 0.0 -1.0
outer loop
vertex 8.2 9.0 7.04991620636974e-015
vertex 21.0 15.0 0.0
vertex 8.58822856765378 8.9488887394336 7.04991620636974e-015
endloop
endfacet
facet normal 0.0 0.0 -1.0
outer loop
vertex 8.58822856765378 8.9488887394336 7.04991620636974e-015
vertex 21.0 15.0 0.0
vertex 8.95 8.79903810567666 7.04991620636974e-015
endloop
endfacet
facet normal 0.0 0.0 -1.0
outer loop
vertex 8.95 8.79903810567666 7.04991620636974e-015
vertex 21.0 15.0 0.0
vertex 9.26066017177982 8.56066017177982 7.04991620636974e-015
endloop
endfacet
facet normal 0.0 0.0 -1.0
outer loop
vertex 9.26066017177982 8.56066017177982 7.04991620636974e-015
vertex 21.0 15.0 0.0
vertex 9.49903810567666 8.25 7.04991620636974e-015
endloop
endfacet
facet normal 0.0 0.0 -1.0
outer loop
vertex 9.49903810567666 8.25 7.04991620636974e-015
vertex 21.0 15.0 0.0
vertex 9.6488887394336 7.88822856765378 7.04991620636974e-015
endloop
endfacet
facet normal 0.0 0.0 -1.0
outer loop
vertex 9.6488887394336 7.88822856765378 7.04991620636974e-015
vertex 21.0 15.0 0.0
vertex 9.7 7.5 7.04991620636974e-015
endloop
endfacet
facet normal 0.0 0.0 -1.0
outer loop
vertex 0.0 0.0 0.0
vertex 7.45 6.20096189432334 7.04991620636974e-015
vertex 21.0 0.0 0.0
endloop
endfacet
facet normal 0.0 0.0 -1.0
outer loop
vertex 7.45 6.20096189432334 7.04991620636974e-015
vertex 0.0 0.0 0.0
vertex 7.13933982822018 6.43933982822018 7.04991620636974e-015
endloop
endfacet
facet normal 0.0 0.0 -1.0
outer loop
vertex 7.13933982822018 6.43933982822018 7.04991620636974e-015
vertex 0.0 0.0 0.0
vertex 6.90096189432334 6.75 7.04991620636974e-015
endloop
endfacet
facet normal 0.0 0.0 -1.0
outer loop
vertex 6.90096189432334 6.75 7.04991620636974e-015
vertex 0.0 0.0 0.0
vertex 6.7511112605664 7.11177143234622 7.04991620636974e-015
endloop
endfacet
facet normal 0.0 0.0 -1.0
outer loop
vertex 6.7511112605664 7.11177143234622 7.04991620636974e-015
vertex 0.0 0.0 0.0
vertex 6.7 7.5 7.04991620636974e-015
endloop
endfacet
facet normal 0.0 0.0 -1.0
outer loop
vertex 21.0 0.0 0.0
vertex 7.45 6.20096189432334 7.04991620636974e-015
vertex 7.81177143234622 6.0511112605664 7.04991620636974e-015
endloop
endfacet
facet normal 0.0 0.0 -1.0
outer loop
vertex 21.0 0.0 0.0
vertex 7.81177143234622 6.0511112605664 7.04991620636974e-015
vertex 8.2 6.0 7.04991620636974e-015
endloop
endfacet
facet normal 0.0 0.0 -1.0
outer loop
vertex 21.0 0.0 0.0
vertex 8.2 6.0 7.04991620636974e-015
vertex 8.58822856765378 6.0511112605664 7.04991620636974e-015
endloop
endfacet
facet normal 0.0 0.0 -1.0
outer loop
vertex 21.0 0.0 0.0
vertex 8.58822856765378 6.0511112605664 7.04991620636974e-015
vertex 8.95 6.20096189432334 7.04991620636974e-015
endloop
endfacet
facet normal 0.0 0.0 -1.0
outer loop
vertex 21.0 0.0 0.0
vertex 8.95 6.20096189432334 7.04991620636974e-015
vertex 9.26066017177982 6.43933982822018 7.04991620636974e-015
endloop
endfacet
facet normal 0.0 0.0 -1.0
outer loop
vertex 21.0 0.0 0.0
vertex 9.26066017177982 6.43933982822018 7.04991620636974e-015
vertex 9.49903810567666 6.75 7.04991620636974e-015
endloop
endfacet
facet normal 0.0 0.0 -1.0
outer loop
vertex 21.0 0.0 0.0
vertex 9.49903810567666 6.75 7.04991620636974e-015
vertex 9.6488887394336 7.11177143234622 7.04991620636974e-015
endloop
endfacet
facet normal 0.0 0.0 -1.0
outer loop
vertex 21.0 0.0 0.0
vertex 9.6488887394336 7.11177143234622 7.04991620636974e-015
vertex 9.7 7.5 7.04991620636974e-015
endloop
endfacet
facet normal 0.0 0.0 -1.0
outer loop
vertex 21.0 0.0 0.0
vertex 9.7 7.5 7.04991620636974e-015
vertex 21.0 15.0 0.0
endloop
endfacet
facet normal -0.0 -0.0 1.0
outer loop
vertex 0.0 0.0 3.0
vertex 7.13933982822018 6.43933982822018 3.00000000000001
vertex 0.0 15.0 3.0
endloop
endfacet
facet normal -0.0 -0.0 1.0
outer loop
vertex 7.13933982822018 6.43933982822018 3.00000000000001
vertex 0.0 0.0 3.0
vertex 7.45 6.20096189432334 3.00000000000001
endloop
endfacet
facet normal -0.0 -0.0 1.0
outer loop
vertex 7.45 6.20096189432334 3.00000000000001
vertex 0.0 0.0 3.0
vertex 19.0 0.0 3.0
endloop
endfacet
facet normal -0.0 -0.0 1.0
outer loop
vertex 0.0 15.0 3.0
vertex 7.13933982822018 6.43933982822018 3.00000000000001
vertex 6.90096189432334 6.75 3.00000000000001
endloop
endfacet
facet normal -0.0 -0.0 1.0
outer loop
vertex 0.0 15.0 3.0
vertex 6.90096189432334 6.75 3.00000000000001
vertex 6.7511112605664 7.11177143234622 3.00000000000001
endloop
endfacet
facet normal -0.0 -0.0 1.0
outer loop
vertex 0.0 15.0 3.0
vertex 6.7511112605664 7.11177143234622 3.00000000000001
vertex 6.7 7.5 3.00000000000001
endloop
endfacet
facet normal -0.0 -0.0 1.0
outer loop
vertex 7.45 6.20096189432334 3.00000000000001
vertex 19.0 0.0 3.0
vertex 7.81177143234622 6.0511112605664 3.00000000000001
endloop
endfacet
facet normal -0.0 -0.0 1.0
outer loop
vertex 7.81177143234622 6.0511112605664 3.00000000000001
vertex 19.0 0.0 3.0
vertex 8.2 6.0 3.00000000000001
endloop
endfacet
facet normal -0.0 -0.0 1.0
outer loop
vertex 8.2 6.0 3.00000000000001
vertex 19.0 0.0 3.0
vertex 8.58822856765378 6.0511112605664 3.00000000000001
endloop
endfacet
facet normal -0.0 -0.0 1.0
outer loop
vertex 8.58822856765378 6.0511112605664 3.00000000000001
vertex 19.0 0.0 3.0
vertex 8.95 6.20096189432334 3.00000000000001
endloop
endfacet
facet normal -0.0 -0.0 1.0
outer loop
vertex 8.95 6.20096189432334 3.00000000000001
vertex 19.0 0.0 3.0
vertex 9.26066017177982 6.43933982822018 3.00000000000001
endloop
endfacet
facet normal -0.0 -0.0 1.0
outer loop
vertex 9.26066017177982 6.43933982822018 3.00000000000001
vertex 19.0 0.0 3.0
vertex 9.49903810567666 6.75 3.00000000000001
endloop
endfacet
facet normal -0.0 -0.0 1.0
outer loop
vertex 9.49903810567666 6.75 3.00000000000001
vertex 19.0 0.0 3.0
vertex 9.6488887394336 7.11177143234622 3.00000000000001
endloop
endfacet
facet normal -0.0 -0.0 1.0
outer loop
vertex 9.6488887394336 7.11177143234622 3.00000000000001
vertex 19.0 0.0 3.0
vertex 9.7 7.5 3.00000000000001
endloop
endfacet
facet normal -0.0 -0.0 1.0
outer loop
vertex 0.0 15.0 3.0
vertex 7.45 8.79903810567666 3.00000000000001
vertex 19.0 15.0 3.0
endloop
endfacet
facet normal -0.0 -0.0 1.0
outer loop
vertex 7.45 8.79903810567666 3.00000000000001
vertex 0.0 15.0 3.0
vertex 7.13933982822018 8.56066017177982 3.00000000000001
endloop
endfacet
facet normal -0.0 -0.0 1.0
outer loop
vertex 7.13933982822018 8.56066017177982 3.00000000000001
vertex 0.0 15.0 3.0
vertex 6.90096189432334 8.25 3.00000000000001
endloop
endfacet
facet normal -0.0 -0.0 1.0
outer loop
vertex 6.90096189432334 8.25 3.00000000000001
vertex 0.0 15.0 3.0
vertex 6.7511112605664 7.88822856765378 3.00000000000001
endloop
endfacet
facet normal -0.0 -0.0 1.0
outer loop
vertex 6.7511112605664 7.88822856765378 3.00000000000001
vertex 0.0 15.0 3.0
vertex 6.7 7.5 3.00000000000001
endloop
endfacet
facet normal -0.0 -0.0 1.0
outer loop
vertex 19.0 15.0 3.0
vertex 7.45 8.79903810567666 3.00000000000001
vertex 7.81177143234622 8.9488887394336 3.00000000000001
endloop
endfacet
facet normal -0.0 -0.0 1.0
outer loop
vertex 19.0 15.0 3.0
vertex 7.81177143234622 8.9488887394336 3.00000000000001
vertex 8.2 9.0 3.00000000000001
endloop
endfacet
facet normal -0.0 -0.0 1.0
outer loop
vertex 19.0 15.0 3.0
vertex 8.2 9.0 3.00000000000001
vertex 8.58822856765378 8.9488887394336 3.00000000000001
endloop
endfacet
facet normal -0.0 -0.0 1.0
outer loop
vertex 19.0 15.0 3.0
vertex 8.58822856765378 8.9488887394336 3.00000000000001
vertex 8.95 8.79903810567666 3.00000000000001
endloop
endfacet
facet normal -0.0 -0.0 1.0
outer loop
vertex 19.0 15.0 3.0
vertex 8.95 8.79903810567666 3.00000000000001
vertex 9.26066017177982 8.56066017177982 3.00000000000001
endloop
endfacet
facet normal -0.0 -0.0 1.0
outer loop
vertex 19.0 15.0 3.0
vertex 9.26066017177982 8.56066017177982 3.00000000000001
vertex 9.49903810567666 8.25 3.00000000000001
endloop
endfacet
facet normal -0.0 -0.0 1.0
outer loop
vertex 19.0 15.0 3.0
vertex 9.49903810567666 8.25 3.00000000000001
vertex 9.6488887394336 7.88822856765378 3.00000000000001
endloop
endfacet
facet normal -0.0 -0.0 1.0
outer loop
vertex 19.0 15.0 3.0
vertex 9.6488887394336 7.88822856765378 3.00000000000001
vertex 9.7 7.5 3.00000000000001
endloop
endfacet
facet normal -0.0 -0.0 1.0
outer loop
vertex 19.0 15.0 3.0
vertex 9.7 7.5 3.00000000000001
vertex 19.0 0.0 3.0
endloop
endfacet
facet normal -0.0 -1.0 -0.0
outer loop
vertex 21.0 0.0 0.0
vertex 19.0 0.0 3.0
vertex 0.0 0.0 0.0
endloop
endfacet
facet normal -0.0 -1.0 -0.0
outer loop
vertex 19.0 0.0 3.0
vertex 21.0 0.0 0.0
vertex 21.0 0.0 5.0
endloop
endfacet
facet normal -0.0 -1.0 -0.0
outer loop
vertex 19.0 0.0 3.0
vertex 21.0 0.0 5.0
vertex 19.0 0.0 5.0
endloop
endfacet
facet normal -0.0 -1.0 -0.0
outer loop
vertex 0.0 0.0 3.0
vertex 0.0 0.0 0.0
vertex 19.0 0.0 3.0
endloop
endfacet
facet normal -1.0 0.0 0.0
outer loop
vertex 0.0 15.0 3.0
vertex 0.0 0.0 0.0
vertex 0.0 0.0 3.0
endloop
endfacet
facet normal -1.0 0.0 0.0
outer loop
vertex 0.0 0.0 0.0
vertex 0.0 15.0 3.0
vertex 0.0 15.0 0.0
endloop
endfacet
facet normal -0.0 1.0 0.0
outer loop
vertex 0.0 15.0 3.0
vertex 21.0 15.0 0.0
vertex 0.0 15.0 0.0
endloop
endfacet
facet normal -0.0 1.0 0.0
outer loop
vertex 21.0 15.0 0.0
vertex 0.0 15.0 3.0
vertex 19.0 15.0 3.0
endloop
endfacet
facet normal -0.0 1.0 0.0
outer loop
vertex 21.0 15.0 0.0
vertex 19.0 15.0 3.0
vertex 21.0 15.0 5.0
endloop
endfacet
facet normal -0.0 1.0 0.0
outer loop
vertex 21.0 15.0 5.0
vertex 19.0 15.0 3.0
vertex 19.0 15.0 5.0
endloop
endfacet
facet normal 1.0 0.0 0.0
outer loop
vertex 21.0 15.0 0.0
vertex 21.0 0.0 5.0
vertex 21.0 0.0 0.0
endloop
endfacet
facet normal 1.0 0.0 0.0
outer loop
vertex 21.0 0.0 5.0
vertex 21.0 15.0 0.0
vertex 21.0 15.0 5.0
endloop
endfacet
facet normal 0.0 0.0 1.0
outer loop
vertex 21.0 0.0 5.0
vertex 19.0 15.0 5.0
vertex 19.0 0.0 5.0
endloop
endfacet
facet normal 0.0 0.0 1.0
outer loop
vertex 19.0 15.0 5.0
vertex 21.0 0.0 5.0
vertex 21.0 15.0 5.0
endloop
endfacet
facet normal -1.0 -0.0 -0.0
outer loop
vertex 19.0 15.0 5.0
vertex 19.0 0.0 3.0
vertex 19.0 0.0 5.0
endloop
endfacet
facet normal -1.0 -0.0 -0.0
outer loop
vertex 19.0 0.0 3.0
vertex 19.0 15.0 5.0
vertex 19.0 15.0 3.0
endloop
endfacet
facet normal 0.965925826289068 0.258819045102522 0.0
outer loop
vertex 6.7511112605664 7.11177143234622 7.04991620636974e-015
vertex 6.90096189432334 6.75 3.00000000000001
vertex 6.90096189432334 6.75 7.04991620636974e-015
endloop
endfacet
facet normal 0.866025403784438 0.5 0.0
outer loop
vertex 6.90096189432334 6.75 3.00000000000001
vertex 6.7511112605664 7.11177143234622 7.04991620636974e-015
vertex 6.7511112605664 7.11177143234622 3.00000000000001
endloop
endfacet
facet normal 0.866025403784438 0.5 0.0
outer loop
vertex 6.90096189432334 6.75 7.04991620636974e-015
vertex 7.13933982822018 6.43933982822018 3.00000000000001
vertex 7.13933982822018 6.43933982822018 7.04991620636974e-015
endloop
endfacet
facet normal 0.707106781186548 0.707106781186547 0.0
outer loop
vertex 7.13933982822018 6.43933982822018 3.00000000000001
vertex 6.90096189432334 6.75 7.04991620636974e-015
vertex 6.90096189432334 6.75 3.00000000000001
endloop
endfacet
facet normal 0.707106781186548 0.707106781186547 0.0
outer loop
vertex 7.13933982822018 6.43933982822018 3.00000000000001
vertex 7.45 6.20096189432334 7.04991620636974e-015
vertex 7.13933982822018 6.43933982822018 7.04991620636974e-015
endloop
endfacet
facet normal 0.5 0.866025403784438 0.0
outer loop
vertex 7.45 6.20096189432334 7.04991620636974e-015
vertex 7.13933982822018 6.43933982822018 3.00000000000001
vertex 7.45 6.20096189432334 3.00000000000001
endloop
endfacet
facet normal 0.5 0.866025403784438 0.0
outer loop
vertex 7.45 6.20096189432334 3.00000000000001
vertex 7.81177143234622 6.0511112605664 7.04991620636974e-015
vertex 7.45 6.20096189432334 7.04991620636974e-015
endloop
endfacet
facet normal 0.258819045102521 0.965925826289068 0.0
outer loop
vertex 7.81177143234622 6.0511112605664 7.04991620636974e-015
vertex 7.45 6.20096189432334 3.00000000000001
vertex 7.81177143234622 6.0511112605664 3.00000000000001
endloop
endfacet
facet normal 0.258819045102521 0.965925826289068 0.0
outer loop
vertex 7.81177143234622 6.0511112605664 3.00000000000001
vertex 8.2 6.0 7.04991620636974e-015
vertex 7.81177143234622 6.0511112605664 7.04991620636974e-015
endloop
endfacet
facet normal 2.22777747391173e-016 1.0 0.0
outer loop
vertex 8.2 6.0 7.04991620636974e-015
vertex 7.81177143234622 6.0511112605664 3.00000000000001
vertex 8.2 6.0 3.00000000000001
endloop
endfacet
facet normal 2.22777747391173e-016 1.0 0.0
outer loop
vertex 8.2 6.0 3.00000000000001
vertex 8.58822856765378 6.0511112605664 7.04991620636974e-015
vertex 8.2 6.0 7.04991620636974e-015
endloop
endfacet
facet normal -0.258819045102521 0.965925826289068 0.0
outer loop
vertex 8.58822856765378 6.0511112605664 7.04991620636974e-015
vertex 8.2 6.0 3.00000000000001
vertex 8.58822856765378 6.0511112605664 3.00000000000001
endloop
endfacet
facet normal -0.258819045102521 0.965925826289068 0.0
outer loop
vertex 8.58822856765378 6.0511112605664 3.00000000000001
vertex 8.95 6.20096189432334 7.04991620636974e-015
vertex 8.58822856765378 6.0511112605664 7.04991620636974e-015
endloop
endfacet
facet normal -0.500000000000001 0.866025403784438 0.0
outer loop
vertex 8.95 6.20096189432334 7.04991620636974e-015
vertex 8.58822856765378 6.0511112605664 3.00000000000001
vertex 8.95 6.20096189432334 3.00000000000001
endloop
endfacet
facet normal -0.500000000000001 0.866025403784438 0.0
outer loop
vertex 8.95 6.20096189432334 3.00000000000001
vertex 9.26066017177982 6.43933982822018 7.04991620636974e-015
vertex 8.95 6.20096189432334 7.04991620636974e-015
endloop
endfacet
facet normal -0.707106781186548 0.707106781186547 0.0
outer loop
vertex 9.26066017177982 6.43933982822018 7.04991620636974e-015
vertex 8.95 6.20096189432334 3.00000000000001
vertex 9.26066017177982 6.43933982822018 3.00000000000001
endloop
endfacet
facet normal -0.866025403784439 0.499999999999999 0.0
outer loop
vertex 9.49903810567666 6.75 3.00000000000001
vertex 9.26066017177982 6.43933982822018 7.04991620636974e-015
vertex 9.26066017177982 6.43933982822018 3.00000000000001
endloop
endfacet
facet normal -0.707106781186548 0.707106781186547 0.0
outer loop
vertex 9.26066017177982 6.43933982822018 7.04991620636974e-015
vertex 9.49903810567666 6.75 3.00000000000001
vertex 9.49903810567666 6.75 7.04991620636974e-015
endloop
endfacet
facet normal -0.965925826289068 0.25881904510252 0.0
outer loop
vertex 9.6488887394336 7.11177143234622 3.00000000000001
vertex 9.49903810567666 6.75 7.04991620636974e-015
vertex 9.49903810567666 6.75 3.00000000000001
endloop
endfacet
facet normal -0.866025403784439 0.499999999999999 0.0
outer loop
vertex 9.49903810567666 6.75 7.04991620636974e-015
vertex 9.6488887394336 7.11177143234622 3.00000000000001
vertex 9.6488887394336 7.11177143234622 7.04991620636974e-015
endloop
endfacet
facet normal -1.0 4.63377714573639e-016 0.0
outer loop
vertex 9.7 7.5 3.00000000000001
vertex 9.6488887394336 7.11177143234622 7.04991620636974e-015
vertex 9.6488887394336 7.11177143234622 3.00000000000001
endloop
endfacet
facet normal -0.965925826289068 0.25881904510252 0.0
outer loop
vertex 9.6488887394336 7.11177143234622 7.04991620636974e-015
vertex 9.7 7.5 3.00000000000001
vertex 9.7 7.5 7.04991620636974e-015
endloop
endfacet
facet normal -0.965925826289068 -0.258819045102522 0.0
outer loop
vertex 9.6488887394336 7.88822856765378 3.00000000000001
vertex 9.7 7.5 7.04991620636974e-015
vertex 9.7 7.5 3.00000000000001
endloop
endfacet
facet normal -1.0 4.63377714573639e-016 0.0
outer loop
vertex 9.7 7.5 7.04991620636974e-015
vertex 9.6488887394336 7.88822856765378 3.00000000000001
vertex 9.6488887394336 7.88822856765378 7.04991620636974e-015
endloop
endfacet
facet normal -0.866025403784438 -0.500000000000001 0.0
outer loop
vertex 9.49903810567666 8.25 3.00000000000001
vertex 9.6488887394336 7.88822856765378 7.04991620636974e-015
vertex 9.6488887394336 7.88822856765378 3.00000000000001
endloop
endfacet
facet normal -0.965925826289068 -0.258819045102522 0.0
outer loop
vertex 9.6488887394336 7.88822856765378 7.04991620636974e-015
vertex 9.49903810567666 8.25 3.00000000000001
vertex 9.49903810567666 8.25 7.04991620636974e-015
endloop
endfacet
facet normal -0.707106781186549 -0.707106781186546 0.0
outer loop
vertex 9.26066017177982 8.56066017177982 3.00000000000001
vertex 9.49903810567666 8.25 7.04991620636974e-015
vertex 9.49903810567666 8.25 3.00000000000001
endloop
endfacet
facet normal -0.866025403784438 -0.500000000000001 0.0
outer loop
vertex 9.49903810567666 8.25 7.04991620636974e-015
vertex 9.26066017177982 8.56066017177982 3.00000000000001
vertex 9.26066017177982 8.56066017177982 7.04991620636974e-015
endloop
endfacet
facet normal -0.707106781186549 -0.707106781186546 0.0
outer loop
vertex 9.26066017177982 8.56066017177982 3.00000000000001
vertex 8.95 8.79903810567666 7.04991620636974e-015
vertex 9.26066017177982 8.56066017177982 7.04991620636974e-015
endloop
endfacet
facet normal -0.5 -0.866025403784439 0.0
outer loop
vertex 8.95 8.79903810567666 7.04991620636974e-015
vertex 9.26066017177982 8.56066017177982 3.00000000000001
vertex 8.95 8.79903810567666 3.00000000000001
endloop
endfacet
facet normal -0.5 -0.866025403784439 0.0
outer loop
vertex 8.95 8.79903810567666 3.00000000000001
vertex 8.58822856765378 8.9488887394336 7.04991620636974e-015
vertex 8.95 8.79903810567666 7.04991620636974e-015
endloop
endfacet
facet normal -0.25881904510252 -0.965925826289069 0.0
outer loop
vertex 8.58822856765378 8.9488887394336 7.04991620636974e-015
vertex 8.95 8.79903810567666 3.00000000000001
vertex 8.58822856765378 8.9488887394336 3.00000000000001
endloop
endfacet
facet normal -0.25881904510252 -0.965925826289069 0.0
outer loop
vertex 8.58822856765378 8.9488887394336 3.00000000000001
vertex 8.2 9.0 7.04991620636974e-015
vertex 8.58822856765378 8.9488887394336 7.04991620636974e-015
endloop
endfacet
facet normal -2.40599967182466e-016 -1.0 0.0
outer loop
vertex 8.2 9.0 7.04991620636974e-015
vertex 8.58822856765378 8.9488887394336 3.00000000000001
vertex 8.2 9.0 3.00000000000001
endloop
endfacet
facet normal -2.40599967182466e-016 -1.0 0.0
outer loop
vertex 8.2 9.0 3.00000000000001
vertex 7.81177143234622 8.9488887394336 7.04991620636974e-015
vertex 8.2 9.0 7.04991620636974e-015
endloop
endfacet
facet normal 0.258819045102522 -0.965925826289068 0.0
outer loop
vertex 7.81177143234622 8.9488887394336 7.04991620636974e-015
vertex 8.2 9.0 3.00000000000001
vertex 7.81177143234622 8.9488887394336 3.00000000000001
endloop
endfacet
facet normal 0.258819045102522 -0.965925826289068 0.0
outer loop
vertex 7.81177143234622 8.9488887394336 3.00000000000001
vertex 7.45 8.79903810567666 7.04991620636974e-015
vertex 7.81177143234622 8.9488887394336 7.04991620636974e-015
endloop
endfacet
facet normal 0.5 -0.866025403784438 0.0
outer loop
vertex 7.45 8.79903810567666 7.04991620636974e-015
vertex 7.81177143234622 8.9488887394336 3.00000000000001
vertex 7.45 8.79903810567666 3.00000000000001
endloop
endfacet
facet normal 0.5 -0.866025403784438 0.0
outer loop
vertex 7.45 8.79903810567666 3.00000000000001
vertex 7.13933982822018 8.56066017177982 7.04991620636974e-015
vertex 7.45 8.79903810567666 7.04991620636974e-015
endloop
endfacet
facet normal 0.707106781186546 -0.707106781186549 0.0
outer loop
vertex 7.13933982822018 8.56066017177982 7.04991620636974e-015
vertex 7.45 8.79903810567666 3.00000000000001
vertex 7.13933982822018 8.56066017177982 3.00000000000001
endloop
endfacet
facet normal 0.707106781186546 -0.707106781186549 0.0
outer loop
vertex 7.13933982822018 8.56066017177982 7.04991620636974e-015
vertex 6.90096189432334 8.25 3.00000000000001
vertex 6.90096189432334 8.25 7.04991620636974e-015
endloop
endfacet
facet normal 0.866025403784438 -0.5 0.0
outer loop
vertex 6.90096189432334 8.25 3.00000000000001
vertex 7.13933982822018 8.56066017177982 7.04991620636974e-015
vertex 7.13933982822018 8.56066017177982 3.00000000000001
endloop
endfacet
facet normal 0.866025403784438 -0.5 0.0
outer loop
vertex 6.90096189432334 8.25 7.04991620636974e-015
vertex 6.7511112605664 7.88822856765378 3.00000000000001
vertex 6.7511112605664 7.88822856765378 7.04991620636974e-015
endloop
endfacet
facet normal 0.965925826289068 -0.25881904510252 0.0
outer loop
vertex 6.7511112605664 7.88822856765378 3.00000000000001
vertex 6.90096189432334 8.25 7.04991620636974e-015
vertex 6.90096189432334 8.25 3.00000000000001
endloop
endfacet
facet normal 0.965925826289068 -0.25881904510252 0.0
outer loop
vertex 6.7511112605664 7.88822856765378 7.04991620636974e-015
vertex 6.7 7.5 3.00000000000001
vertex 6.7 7.5 7.04991620636974e-015
endloop
endfacet
facet normal 1.0 0.0 0.0
outer loop
vertex 6.7 7.5 3.00000000000001
vertex 6.7511112605664 7.88822856765378 7.04991620636974e-015
vertex 6.7511112605664 7.88822856765378 3.00000000000001
endloop
endfacet
facet normal 1.0 0.0 0.0
outer loop
vertex 6.7 7.5 7.04991620636974e-015
vertex 6.7511112605664 7.11177143234622 3.00000000000001
vertex 6.7511112605664 7.11177143234622 7.04991620636974e-015
endloop
endfacet
facet normal 0.965925826289068 0.258819045102522 0.0
outer loop
vertex 6.7511112605664 7.11177143234622 3.00000000000001
vertex 6.7 7.5 7.04991620636974e-015
vertex 6.7 7.5 3.00000000000001
endloop
endfacet
endsolid My Glass Tab
