solid Kossel Mini Print Cooling Fan Bracket 80mm
facet normal 0.0 -1.0 0.0
outer loop
vertex 115.0 28.0 3.0
vertex 0.0 28.0 0.0
vertex 115.0 28.0 0.0
endloop
endfacet
facet normal 0.0 -1.0 0.0
outer loop
vertex 0.0 28.0 0.0
vertex 115.0 28.0 3.0
vertex 0.0 28.0 3.0
endloop
endfacet
facet normal 0.490058824596055 -0.871689364645189 0.0
outer loop
vertex 86.5 3.0 13.0
vertex 86.5 3.0 3.0
vertex 117.272277227723 20.3 3.0
endloop
endfacet
facet normal -0.0 1.0 -0.0
outer loop
vertex 72.0 0.0 0.0
vertex 77.0305702421956 0.0 4.19561158988262
vertex 86.5 0.0 0.0
endloop
endfacet
facet normal -0.0 1.0 -0.0
outer loop
vertex 77.0305702421956 0.0 4.19561158988262
vertex 72.0 0.0 0.0
vertex 76.4671831523117 0.0 4.52503860507532
endloop
endfacet
facet normal -0.0 1.0 -0.0
outer loop
vertex 76.4671831523117 0.0 4.52503860507532
vertex 72.0 0.0 0.0
vertex 76.0082549974981 0.0 4.98905597555412
endloop
endfacet
facet normal -0.0 1.0 -0.0
outer loop
vertex 76.0082549974981 0.0 4.98905597555412
vertex 72.0 0.0 0.0
vertex 75.6850609730908 0.0 5.55604168434584
endloop
endfacet
facet normal -0.0 1.0 -0.0
outer loop
vertex 75.6850609730908 0.0 5.55604168434584
vertex 72.0 0.0 0.0
vertex 72.0 0.0 13.0
endloop
endfacet
facet normal -0.0 1.0 -0.0
outer loop
vertex 86.5 0.0 0.0
vertex 77.0305702421956 0.0 4.19561158988262
vertex 77.6600223680155 0.0 4.02322483665752
endloop
endfacet
facet normal -0.0 1.0 -0.0
outer loop
vertex 86.5 0.0 0.0
vertex 77.6600223680155 0.0 4.02322483665752
vertex 78.3126434076155 0.0 4.01962621774972
endloop
endfacet
facet normal -0.0 1.0 -0.0
outer loop
vertex 75.6850609730908 0.0 5.55604168434584
vertex 72.0 0.0 13.0
vertex 75.5196262177497 0.0 6.18735659238452
endloop
endfacet
facet normal -0.0 1.0 -0.0
outer loop
vertex 75.5196262177497 0.0 6.18735659238452
vertex 72.0 0.0 13.0
vertex 75.5232248366575 0.0 6.83997763198453
endloop
endfacet
facet normal -0.0 1.0 -0.0
outer loop
vertex 75.5232248366575 0.0 6.83997763198453
vertex 72.0 0.0 13.0
vertex 75.6956115898826 0.0 7.4694297578044
endloop
endfacet
facet normal -0.0 1.0 -0.0
outer loop
vertex 75.6956115898826 0.0 7.4694297578044
vertex 72.0 0.0 13.0
vertex 76.0250386050753 0.0 8.03281684768832
endloop
endfacet
facet normal -0.0 1.0 -0.0
outer loop
vertex 76.0250386050753 0.0 8.03281684768832
vertex 72.0 0.0 13.0
vertex 76.4890559755541 0.0 8.49174500250189
endloop
endfacet
facet normal -0.0 1.0 -0.0
outer loop
vertex 76.4890559755541 0.0 8.49174500250189
vertex 72.0 0.0 13.0
vertex 77.0560416843458 0.0 8.8149390269092
endloop
endfacet
facet normal -0.0 1.0 -0.0
outer loop
vertex 77.0560416843458 0.0 8.8149390269092
vertex 72.0 0.0 13.0
vertex 77.6873565923845 0.0 8.98037378225028
endloop
endfacet
facet normal -0.0 1.0 -0.0
outer loop
vertex 86.5 0.0 0.0
vertex 79.9749613949247 0.0 4.96718315231168
vertex 86.5 0.0 13.0
endloop
endfacet
facet normal -0.0 1.0 -0.0
outer loop
vertex 79.9749613949247 0.0 4.96718315231168
vertex 86.5 0.0 0.0
vertex 79.5109440244459 0.0 4.5082549974981
endloop
endfacet
facet normal -0.0 1.0 -0.0
outer loop
vertex 79.5109440244459 0.0 4.5082549974981
vertex 86.5 0.0 0.0
vertex 78.9439583156542 0.0 4.18506097309079
endloop
endfacet
facet normal -0.0 1.0 -0.0
outer loop
vertex 78.9439583156542 0.0 4.18506097309079
vertex 86.5 0.0 0.0
vertex 78.3126434076155 0.0 4.01962621774972
endloop
endfacet
facet normal -0.0 1.0 -0.0
outer loop
vertex 86.5 0.0 13.0
vertex 79.9749613949247 0.0 4.96718315231168
vertex 80.3043884101174 0.0 5.5305702421956
endloop
endfacet
facet normal -0.0 1.0 -0.0
outer loop
vertex 86.5 0.0 13.0
vertex 80.3043884101174 0.0 5.5305702421956
vertex 80.4767751633425 0.0 6.16002236801547
endloop
endfacet
facet normal -0.0 1.0 -0.0
outer loop
vertex 86.5 0.0 13.0
vertex 80.4767751633425 0.0 6.16002236801547
vertex 80.4803737822503 0.0 6.81264340761548
endloop
endfacet
facet normal -0.0 1.0 -0.0
outer loop
vertex 86.5 0.0 13.0
vertex 80.4803737822503 0.0 6.81264340761548
vertex 80.3149390269092 0.0 7.44395831565416
endloop
endfacet
facet normal -0.0 1.0 -0.0
outer loop
vertex 86.5 0.0 13.0
vertex 80.3149390269092 0.0 7.44395831565416
vertex 79.9917450025019 0.0 8.01094402444588
endloop
endfacet
facet normal -0.0 1.0 -0.0
outer loop
vertex 86.5 0.0 13.0
vertex 79.9917450025019 0.0 8.01094402444588
vertex 79.5328168476883 0.0 8.47496139492467
endloop
endfacet
facet normal -0.0 1.0 -0.0
outer loop
vertex 86.5 0.0 13.0
vertex 79.5328168476883 0.0 8.47496139492467
vertex 78.9694297578044 0.0 8.80438841011738
endloop
endfacet
facet normal -0.0 1.0 -0.0
outer loop
vertex 86.5 0.0 13.0
vertex 78.9694297578044 0.0 8.80438841011738
vertex 78.3399776319845 0.0 8.97677516334248
endloop
endfacet
facet normal -0.0 1.0 -0.0
outer loop
vertex 86.5 0.0 13.0
vertex 78.3399776319845 0.0 8.97677516334248
vertex 77.6873565923845 0.0 8.98037378225028
endloop
endfacet
facet normal -0.0 1.0 -0.0
outer loop
vertex 86.5 0.0 13.0
vertex 77.6873565923845 0.0 8.98037378225028
vertex 72.0 0.0 13.0
endloop
endfacet
facet normal 0.0 0.0 -1.0
outer loop
vertex 10.0 3.0 13.0
vertex 0.0 0.0 13.0
vertex 0.0 3.0 13.0
endloop
endfacet
facet normal 0.0 0.0 -1.0
outer loop
vertex 0.0 0.0 13.0
vertex 10.0 3.0 13.0
vertex 10.0 0.0 13.0
endloop
endfacet
facet normal -0.366975924541375 0.0 -0.93023043962612
outer loop
vertex 25.0800450936331 3.0 7.05092194941947
vertex 10.0 0.0 13.0
vertex 10.0 3.0 13.0
endloop
endfacet
facet normal -0.366975924541375 0.0 -0.93023043962612
outer loop
vertex 10.0 0.0 13.0
vertex 25.0800450936331 3.0 7.05092194941947
vertex 25.0800450936331 0.0 7.05092194941947
endloop
endfacet
facet normal 1.0 0.0 0.0
outer loop
vertex 0.0 3.0 0.0
vertex 0.0 0.0 13.0
vertex 0.0 0.0 0.0
endloop
endfacet
facet normal 1.0 0.0 0.0
outer loop
vertex 0.0 0.0 13.0
vertex 0.0 3.0 0.0
vertex 0.0 3.0 13.0
endloop
endfacet
facet normal 1.0 0.0 0.0
outer loop
vertex 0.0 3.0 13.0
vertex 0.0 3.0 0.0
vertex 0.0 3.0 3.0
endloop
endfacet
facet normal 0.0 1.0 0.0
outer loop
vertex 57.0351519494793 0.0 7.19971479218393
vertex 72.0 0.0 0.0
vertex 57.0 0.0 0.0
endloop
endfacet
facet normal 0.0 1.0 0.0
outer loop
vertex 72.0 0.0 0.0
vertex 57.0351519494793 0.0 7.19971479218393
vertex 72.0 0.0 13.0
endloop
endfacet
facet normal 0.0 1.0 0.0
outer loop
vertex 25.0800450936331 0.0 7.05092194941947
vertex 57.0 0.0 0.0
vertex 25.0 0.0 0.0
endloop
endfacet
facet normal 0.0 1.0 0.0
outer loop
vertex 57.0 0.0 0.0
vertex 25.0800450936331 0.0 7.05092194941947
vertex 57.0351519494793 0.0 7.19971479218393
endloop
endfacet
facet normal -0.0 1.0 -0.0
outer loop
vertex 9.97443225870237 0.0 6.14336994364877
vertex 25.0 0.0 0.0
vertex 10.0 0.0 0.0
endloop
endfacet
facet normal -0.0 1.0 -0.0
outer loop
vertex 25.0 0.0 0.0
vertex 9.97443225870237 0.0 6.14336994364877
vertex 25.0800450936331 0.0 7.05092194941947
endloop
endfacet
facet normal -0.0 1.0 -0.0
outer loop
vertex 25.0800450936331 0.0 7.05092194941947
vertex 9.97443225870237 0.0 6.14336994364877
vertex 9.9824206747231 0.0 6.79595201250765
endloop
endfacet
facet normal -0.0 1.0 -0.0
outer loop
vertex 25.0800450936331 0.0 7.05092194941947
vertex 9.9824206747231 0.0 6.79595201250765
vertex 10.0 0.0 13.0
endloop
endfacet
facet normal 0.0 0.0 -1.0
outer loop
vertex 86.5 3.0 13.0
vertex 72.0 0.0 13.0
vertex 72.0 3.0 13.0
endloop
endfacet
facet normal 0.0 0.0 -1.0
outer loop
vertex 72.0 0.0 13.0
vertex 86.5 3.0 13.0
vertex 86.5 0.0 13.0
endloop
endfacet
facet normal -0.0 -1.0 0.0
outer loop
vertex 57.0351519494793 3.0 7.19971479218393
vertex 25.0 3.0 3.0
vertex 57.0 3.0 3.0
endloop
endfacet
facet normal -0.0 -1.0 0.0
outer loop
vertex 25.0 3.0 3.0
vertex 57.0351519494793 3.0 7.19971479218393
vertex 25.0800450936331 3.0 7.05092194941947
endloop
endfacet
facet normal 0.0 -1.0 0.0
outer loop
vertex 25.0800450936331 3.0 7.05092194941947
vertex 10.0 3.0 3.0
vertex 25.0 3.0 3.0
endloop
endfacet
facet normal 0.0 -1.0 0.0
outer loop
vertex 10.0 3.0 3.0
vertex 25.0800450936331 3.0 7.05092194941947
vertex 9.97443225870237 3.0 6.14336994364877
endloop
endfacet
facet normal 0.0 -1.0 0.0
outer loop
vertex 9.97443225870237 3.0 6.14336994364877
vertex 25.0800450936331 3.0 7.05092194941947
vertex 9.9824206747231 3.0 6.79595201250765
endloop
endfacet
facet normal 0.0 -1.0 0.0
outer loop
vertex 9.9824206747231 3.0 6.79595201250765
vertex 25.0800450936331 3.0 7.05092194941947
vertex 10.0 3.0 13.0
endloop
endfacet
facet normal -0.0 -1.0 0.0
outer loop
vertex 72.0 3.0 13.0
vertex 57.0 3.0 3.0
vertex 72.0 3.0 3.0
endloop
endfacet
facet normal -0.0 -1.0 0.0
outer loop
vertex 57.0 3.0 3.0
vertex 72.0 3.0 13.0
vertex 57.0351519494793 3.0 7.19971479218393
endloop
endfacet
facet normal 0.0 -1.0 0.0
outer loop
vertex 86.5 3.0 3.0
vertex 78.3126434076155 3.0 4.01962621774972
vertex 72.0 3.0 3.0
endloop
endfacet
facet normal 0.0 -1.0 0.0
outer loop
vertex 78.3126434076155 3.0 4.01962621774972
vertex 86.5 3.0 3.0
vertex 78.9439583156542 3.0 4.18506097309079
endloop
endfacet
facet normal 0.0 -1.0 0.0
outer loop
vertex 78.9439583156542 3.0 4.18506097309079
vertex 86.5 3.0 3.0
vertex 79.5109440244459 3.0 4.5082549974981
endloop
endfacet
facet normal 0.0 -1.0 0.0
outer loop
vertex 79.5109440244459 3.0 4.5082549974981
vertex 86.5 3.0 3.0
vertex 79.9749613949247 3.0 4.96718315231168
endloop
endfacet
facet normal 0.0 -1.0 0.0
outer loop
vertex 79.9749613949247 3.0 4.96718315231168
vertex 86.5 3.0 3.0
vertex 86.5 3.0 13.0
endloop
endfacet
facet normal 0.0 -1.0 0.0
outer loop
vertex 79.9749613949247 3.0 4.96718315231168
vertex 86.5 3.0 13.0
vertex 80.3043884101174 3.0 5.5305702421956
endloop
endfacet
facet normal 0.0 -1.0 0.0
outer loop
vertex 80.3043884101174 3.0 5.5305702421956
vertex 86.5 3.0 13.0
vertex 80.4767751633425 3.0 6.16002236801547
endloop
endfacet
facet normal 0.0 -1.0 0.0
outer loop
vertex 80.4767751633425 3.0 6.16002236801547
vertex 86.5 3.0 13.0
vertex 80.4803737822503 3.0 6.81264340761548
endloop
endfacet
facet normal 0.0 -1.0 0.0
outer loop
vertex 80.4803737822503 3.0 6.81264340761548
vertex 86.5 3.0 13.0
vertex 80.3149390269092 3.0 7.44395831565416
endloop
endfacet
facet normal 0.0 -1.0 0.0
outer loop
vertex 80.3149390269092 3.0 7.44395831565416
vertex 86.5 3.0 13.0
vertex 79.9917450025019 3.0 8.01094402444588
endloop
endfacet
facet normal 0.0 -1.0 0.0
outer loop
vertex 79.9917450025019 3.0 8.01094402444588
vertex 86.5 3.0 13.0
vertex 79.5328168476883 3.0 8.47496139492467
endloop
endfacet
facet normal 0.0 -1.0 0.0
outer loop
vertex 79.5328168476883 3.0 8.47496139492467
vertex 86.5 3.0 13.0
vertex 78.9694297578044 3.0 8.80438841011738
endloop
endfacet
facet normal 0.0 -1.0 0.0
outer loop
vertex 78.9694297578044 3.0 8.80438841011738
vertex 86.5 3.0 13.0
vertex 78.3399776319845 3.0 8.97677516334248
endloop
endfacet
facet normal 0.0 -1.0 0.0
outer loop
vertex 78.3399776319845 3.0 8.97677516334248
vertex 86.5 3.0 13.0
vertex 77.6873565923845 3.0 8.98037378225028
endloop
endfacet
facet normal 0.0 -1.0 0.0
outer loop
vertex 72.0 3.0 3.0
vertex 75.6850609730908 3.0 5.55604168434584
vertex 72.0 3.0 13.0
endloop
endfacet
facet normal 0.0 -1.0 0.0
outer loop
vertex 75.6850609730908 3.0 5.55604168434584
vertex 72.0 3.0 3.0
vertex 76.0082549974981 3.0 4.98905597555412
endloop
endfacet
facet normal 0.0 -1.0 0.0
outer loop
vertex 76.0082549974981 3.0 4.98905597555412
vertex 72.0 3.0 3.0
vertex 76.4671831523117 3.0 4.52503860507532
endloop
endfacet
facet normal 0.0 -1.0 0.0
outer loop
vertex 76.4671831523117 3.0 4.52503860507532
vertex 72.0 3.0 3.0
vertex 77.0305702421956 3.0 4.19561158988262
endloop
endfacet
facet normal 0.0 -1.0 0.0
outer loop
vertex 77.0305702421956 3.0 4.19561158988262
vertex 72.0 3.0 3.0
vertex 77.6600223680155 3.0 4.02322483665752
endloop
endfacet
facet normal 0.0 -1.0 0.0
outer loop
vertex 77.6600223680155 3.0 4.02322483665752
vertex 72.0 3.0 3.0
vertex 78.3126434076155 3.0 4.01962621774972
endloop
endfacet
facet normal 0.0 -1.0 0.0
outer loop
vertex 72.0 3.0 13.0
vertex 75.6850609730908 3.0 5.55604168434584
vertex 75.5196262177497 3.0 6.18735659238452
endloop
endfacet
facet normal 0.0 -1.0 0.0
outer loop
vertex 72.0 3.0 13.0
vertex 75.5196262177497 3.0 6.18735659238452
vertex 75.5232248366575 3.0 6.83997763198453
endloop
endfacet
facet normal 0.0 -1.0 0.0
outer loop
vertex 72.0 3.0 13.0
vertex 75.5232248366575 3.0 6.83997763198453
vertex 75.6956115898826 3.0 7.4694297578044
endloop
endfacet
facet normal 0.0 -1.0 0.0
outer loop
vertex 72.0 3.0 13.0
vertex 75.6956115898826 3.0 7.4694297578044
vertex 76.0250386050753 3.0 8.03281684768832
endloop
endfacet
facet normal 0.0 -1.0 0.0
outer loop
vertex 72.0 3.0 13.0
vertex 76.0250386050753 3.0 8.03281684768832
vertex 76.4890559755541 3.0 8.49174500250189
endloop
endfacet
facet normal 0.0 -1.0 0.0
outer loop
vertex 72.0 3.0 13.0
vertex 76.4890559755541 3.0 8.49174500250189
vertex 77.0560416843458 3.0 8.8149390269092
endloop
endfacet
facet normal 0.0 -1.0 0.0
outer loop
vertex 72.0 3.0 13.0
vertex 77.0560416843458 3.0 8.8149390269092
vertex 77.6873565923845 3.0 8.98037378225028
endloop
endfacet
facet normal 0.0 -1.0 0.0
outer loop
vertex 72.0 3.0 13.0
vertex 77.6873565923845 3.0 8.98037378225028
vertex 86.5 3.0 13.0
endloop
endfacet
facet normal 0.361397264916833 0.0 -0.932411935203873
outer loop
vertex 72.0 3.0 13.0
vertex 57.0351519494793 0.0 7.19971479218393
vertex 57.0351519494793 3.0 7.19971479218393
endloop
endfacet
facet normal 0.361397264916833 0.0 -0.932411935203873
outer loop
vertex 57.0351519494793 0.0 7.19971479218393
vertex 72.0 3.0 13.0
vertex 72.0 0.0 13.0
endloop
endfacet
facet normal 0.00465625824558817 0.0 -0.999989159570818
outer loop
vertex 57.0351519494793 3.0 7.19971479218393
vertex 25.0800450936331 0.0 7.05092194941947
vertex 25.0800450936331 3.0 7.05092194941947
endloop
endfacet
facet normal 0.00465625824558817 0.0 -0.999989159570818
outer loop
vertex 25.0800450936331 0.0 7.05092194941947
vertex 57.0351519494793 3.0 7.19971479218393
vertex 57.0351519494793 0.0 7.19971479218393
endloop
endfacet
facet normal 0.0 0.0 -1.0
outer loop
vertex 115.0 28.0 3.0
vertex 0.0 3.0 3.0
vertex 0.0 28.0 3.0
endloop
endfacet
facet normal 0.0 0.0 -1.0
outer loop
vertex 0.0 3.0 3.0
vertex 115.0 28.0 3.0
vertex 10.0 3.0 3.0
endloop
endfacet
facet normal 0.0 0.0 -1.0
outer loop
vertex 10.0 3.0 3.0
vertex 115.0 28.0 3.0
vertex 25.0 3.0 3.0
endloop
endfacet
facet normal 0.0 0.0 -1.0
outer loop
vertex 25.0 3.0 3.0
vertex 115.0 28.0 3.0
vertex 57.0 3.0 3.0
endloop
endfacet
facet normal 0.0 0.0 -1.0
outer loop
vertex 57.0 3.0 3.0
vertex 115.0 28.0 3.0
vertex 72.0 3.0 3.0
endloop
endfacet
facet normal 0.0 0.0 -1.0
outer loop
vertex 72.0 3.0 3.0
vertex 115.0 28.0 3.0
vertex 88.605217599058 11.738949355354 3.0
endloop
endfacet
facet normal 0.0 0.0 -1.0
outer loop
vertex 72.0 3.0 3.0
vertex 88.605217599058 11.738949355354 3.0
vertex 88.2672216732937 11.4125149824495 3.0
endloop
endfacet
facet normal 0.0 0.0 -1.0
outer loop
vertex 72.0 3.0 3.0
vertex 88.2672216732937 11.4125149824495 3.0
vertex 88.0252301121013 11.0097238083177 3.0
endloop
endfacet
facet normal 0.0 0.0 -1.0
outer loop
vertex 72.0 3.0 3.0
vertex 88.0252301121013 11.0097238083177 3.0
vertex 87.895734240466 10.5580253858318 3.0
endloop
endfacet
facet normal 0.0 0.0 -1.0
outer loop
vertex 72.0 3.0 3.0
vertex 87.895734240466 10.5580253858318 3.0
vertex 86.5 3.0 3.0
endloop
endfacet
facet normal 0.0 0.0 -1.0
outer loop
vertex 86.5 3.0 3.0
vertex 87.895734240466 10.5580253858318 3.0
vertex 87.8875589880378 10.0882022160173 3.0
endloop
endfacet
facet normal 0.0 0.0 -1.0
outer loop
vertex 88.605217599058 11.738949355354 3.0
vertex 115.0 28.0 3.0
vertex 89.016184025618 11.9667809639761 3.0
endloop
endfacet
facet normal 0.0 0.0 -1.0
outer loop
vertex 89.016184025618 11.9667809639761 3.0
vertex 115.0 28.0 3.0
vertex 89.4721142701578 12.0804834606977 3.0
endloop
endfacet
facet normal 0.0 0.0 -1.0
outer loop
vertex 89.4721142701578 12.0804834606977 3.0
vertex 115.0 28.0 3.0
vertex 89.9419374399724 12.0723082082695 3.0
endloop
endfacet
facet normal 0.0 0.0 -1.0
outer loop
vertex 89.9419374399724 12.0723082082695 3.0
vertex 115.0 28.0 3.0
vertex 90.3936358624583 11.9428123366342 3.0
endloop
endfacet
facet normal 0.0 0.0 -1.0
outer loop
vertex 90.3936358624583 11.9428123366342 3.0
vertex 115.0 28.0 3.0
vertex 90.7964270365901 11.7008207754418 3.0
endloop
endfacet
facet normal 0.0 0.0 -1.0
outer loop
vertex 90.7964270365901 11.7008207754418 3.0
vertex 115.0 28.0 3.0
vertex 91.1228614094946 11.3628248496775 3.0
endloop
endfacet
facet normal 0.0 0.0 -1.0
outer loop
vertex 91.1228614094946 11.3628248496775 3.0
vertex 115.0 28.0 3.0
vertex 91.3506930181167 10.9518584231175 3.0
endloop
endfacet
facet normal 0.0 0.0 -1.0
outer loop
vertex 91.3506930181167 10.9518584231175 3.0
vertex 115.0 28.0 3.0
vertex 91.4643955148383 10.4959281785777 3.0
endloop
endfacet
facet normal 0.0 0.0 -1.0
outer loop
vertex 91.4643955148383 10.4959281785777 3.0
vertex 115.0 28.0 3.0
vertex 108.394572673649 22.8039023207467 3.0
endloop
endfacet
facet normal 0.0 0.0 -1.0
outer loop
vertex 91.4643955148383 10.4959281785777 3.0
vertex 108.394572673649 22.8039023207467 3.0
vertex 108.108519152973 22.4311101146109 3.0
endloop
endfacet
facet normal 0.0 0.0 -1.0
outer loop
vertex 91.4643955148383 10.4959281785777 3.0
vertex 108.108519152973 22.4311101146109 3.0
vertex 107.928698392464 21.9969843957954 3.0
endloop
endfacet
facet normal 0.0 0.0 -1.0
outer loop
vertex 91.4643955148383 10.4959281785777 3.0
vertex 107.928698392464 21.9969843957954 3.0
vertex 107.867364879785 21.5311101146109 3.0
endloop
endfacet
facet normal 0.0 0.0 -1.0
outer loop
vertex 108.394572673649 22.8039023207467 3.0
vertex 115.0 28.0 3.0
vertex 108.767364879785 23.0899558414229 3.0
endloop
endfacet
facet normal 0.0 0.0 -1.0
outer loop
vertex 108.767364879785 23.0899558414229 3.0
vertex 115.0 28.0 3.0
vertex 109.2014905986 23.2697766019312 3.0
endloop
endfacet
facet normal 0.0 0.0 -1.0
outer loop
vertex 109.2014905986 23.2697766019312 3.0
vertex 115.0 28.0 3.0
vertex 109.667364879785 23.3311101146109 3.0
endloop
endfacet
facet normal 0.0 0.0 -1.0
outer loop
vertex 109.667364879785 23.3311101146109 3.0
vertex 115.0 28.0 3.0
vertex 110.133239160969 23.2697766019312 3.0
endloop
endfacet
facet normal 0.0 0.0 -1.0
outer loop
vertex 110.133239160969 23.2697766019312 3.0
vertex 115.0 28.0 3.0
vertex 110.567364879785 23.0899558414229 3.0
endloop
endfacet
facet normal 0.0 0.0 -1.0
outer loop
vertex 110.567364879785 23.0899558414229 3.0
vertex 115.0 28.0 3.0
vertex 110.94015708592 22.8039023207467 3.0
endloop
endfacet
facet normal 0.0 0.0 -1.0
outer loop
vertex 110.94015708592 22.8039023207467 3.0
vertex 115.0 28.0 3.0
vertex 111.226210606597 22.4311101146109 3.0
endloop
endfacet
facet normal 0.0 0.0 -1.0
outer loop
vertex 111.226210606597 22.4311101146109 3.0
vertex 115.0 28.0 3.0
vertex 111.406031367105 21.9969843957954 3.0
endloop
endfacet
facet normal 0.0 0.0 -1.0
outer loop
vertex 111.406031367105 21.9969843957954 3.0
vertex 115.0 28.0 3.0
vertex 111.467364879785 21.5311101146109 3.0
endloop
endfacet
facet normal 0.0 0.0 -1.0
outer loop
vertex 86.5 3.0 3.0
vertex 90.335770477258 8.61734943061883 3.0
vertex 117.272277227723 20.3 3.0
endloop
endfacet
facet normal 0.0 0.0 -1.0
outer loop
vertex 90.335770477258 8.61734943061883 3.0
vertex 86.5 3.0 3.0
vertex 89.8798402327182 8.50364693389723 3.0
endloop
endfacet
facet normal 0.0 0.0 -1.0
outer loop
vertex 89.8798402327182 8.50364693389723 3.0
vertex 86.5 3.0 3.0
vertex 89.4100170629037 8.51182218632544 3.0
endloop
endfacet
facet normal 0.0 0.0 -1.0
outer loop
vertex 89.4100170629037 8.51182218632544 3.0
vertex 86.5 3.0 3.0
vertex 88.9583186404178 8.64131805796072 3.0
endloop
endfacet
facet normal 0.0 0.0 -1.0
outer loop
vertex 88.9583186404178 8.64131805796072 3.0
vertex 86.5 3.0 3.0
vertex 88.555527466286 8.88330961915316 3.0
endloop
endfacet
facet normal 0.0 0.0 -1.0
outer loop
vertex 88.555527466286 8.88330961915316 3.0
vertex 86.5 3.0 3.0
vertex 88.2290930933815 9.22130554491747 3.0
endloop
endfacet
facet normal 0.0 0.0 -1.0
outer loop
vertex 88.2290930933815 9.22130554491747 3.0
vertex 86.5 3.0 3.0
vertex 88.0012614847594 9.63227197147749 3.0
endloop
endfacet
facet normal 0.0 0.0 -1.0
outer loop
vertex 88.0012614847594 9.63227197147749 3.0
vertex 86.5 3.0 3.0
vertex 87.8875589880378 10.0882022160173 3.0
endloop
endfacet
facet normal 0.0 0.0 -1.0
outer loop
vertex 117.272277227723 20.3 3.0
vertex 90.335770477258 8.61734943061883 3.0
vertex 90.746736903818 8.84518103924092 3.0
endloop
endfacet
facet normal 0.0 0.0 -1.0
outer loop
vertex 117.272277227723 20.3 3.0
vertex 90.746736903818 8.84518103924092 3.0
vertex 91.0847328295824 9.17161541214543 3.0
endloop
endfacet
facet normal 0.0 0.0 -1.0
outer loop
vertex 117.272277227723 20.3 3.0
vertex 91.0847328295824 9.17161541214543 3.0
vertex 91.3267243907748 9.57440658627724 3.0
endloop
endfacet
facet normal 0.0 0.0 -1.0
outer loop
vertex 117.272277227723 20.3 3.0
vertex 91.3267243907748 9.57440658627724 3.0
vertex 91.4562202624101 10.0261050087631 3.0
endloop
endfacet
facet normal 0.0 0.0 -1.0
outer loop
vertex 117.272277227723 20.3 3.0
vertex 91.4562202624101 10.0261050087631 3.0
vertex 91.4643955148383 10.4959281785777 3.0
endloop
endfacet
facet normal 0.0 0.0 -1.0
outer loop
vertex 117.272277227723 20.3 3.0
vertex 91.4643955148383 10.4959281785777 3.0
vertex 109.667364879785 19.7311101146109 3.0
endloop
endfacet
facet normal 0.0 0.0 -1.0
outer loop
vertex 109.667364879785 19.7311101146109 3.0
vertex 91.4643955148383 10.4959281785777 3.0
vertex 109.2014905986 19.7924436272906 3.0
endloop
endfacet
facet normal 0.0 0.0 -1.0
outer loop
vertex 109.2014905986 19.7924436272906 3.0
vertex 91.4643955148383 10.4959281785777 3.0
vertex 108.767364879785 19.9722643877989 3.0
endloop
endfacet
facet normal 0.0 0.0 -1.0
outer loop
vertex 108.767364879785 19.9722643877989 3.0
vertex 91.4643955148383 10.4959281785777 3.0
vertex 108.394572673649 20.2583179084751 3.0
endloop
endfacet
facet normal 0.0 0.0 -1.0
outer loop
vertex 108.394572673649 20.2583179084751 3.0
vertex 91.4643955148383 10.4959281785777 3.0
vertex 108.108519152973 20.6311101146109 3.0
endloop
endfacet
facet normal 0.0 0.0 -1.0
outer loop
vertex 108.108519152973 20.6311101146109 3.0
vertex 91.4643955148383 10.4959281785777 3.0
vertex 107.928698392464 21.0652358334264 3.0
endloop
endfacet
facet normal 0.0 0.0 -1.0
outer loop
vertex 107.928698392464 21.0652358334264 3.0
vertex 91.4643955148383 10.4959281785777 3.0
vertex 107.867364879785 21.5311101146109 3.0
endloop
endfacet
facet normal 0.0 0.0 -1.0
outer loop
vertex 117.272277227723 20.3 3.0
vertex 109.667364879785 19.7311101146109 3.0
vertex 110.133239160969 19.7924436272906 3.0
endloop
endfacet
facet normal 0.0 0.0 -1.0
outer loop
vertex 117.272277227723 20.3 3.0
vertex 110.133239160969 19.7924436272906 3.0
vertex 110.567364879785 19.9722643877989 3.0
endloop
endfacet
facet normal 0.0 0.0 -1.0
outer loop
vertex 117.272277227723 20.3 3.0
vertex 110.567364879785 19.9722643877989 3.0
vertex 110.94015708592 20.2583179084751 3.0
endloop
endfacet
facet normal 0.0 0.0 -1.0
outer loop
vertex 117.272277227723 20.3 3.0
vertex 110.94015708592 20.2583179084751 3.0
vertex 111.226210606597 20.6311101146109 3.0
endloop
endfacet
facet normal 0.0 0.0 -1.0
outer loop
vertex 117.272277227723 20.3 3.0
vertex 111.226210606597 20.6311101146109 3.0
vertex 111.406031367105 21.0652358334264 3.0
endloop
endfacet
facet normal 0.0 0.0 -1.0
outer loop
vertex 117.272277227723 20.3 3.0
vertex 111.406031367105 21.0652358334264 3.0
vertex 111.467364879785 21.5311101146109 3.0
endloop
endfacet
facet normal 0.0 0.0 -1.0
outer loop
vertex 117.272277227723 20.3 3.0
vertex 111.467364879785 21.5311101146109 3.0
vertex 115.0 28.0 3.0
endloop
endfacet
facet normal 0.0 0.0 -1.0
outer loop
vertex 117.272277227723 20.3 3.0
vertex 115.0 28.0 3.0
vertex 117.5 20.3 3.0
endloop
endfacet
facet normal 1.0 0.0 0.0
outer loop
vertex 0.0 28.0 0.0
vertex 0.0 3.0 3.0
vertex 0.0 3.0 0.0
endloop
endfacet
facet normal 1.0 0.0 0.0
outer loop
vertex 0.0 3.0 3.0
vertex 0.0 28.0 0.0
vertex 0.0 28.0 3.0
endloop
endfacet
facet normal -0.951124801889961 -0.308806753860376 0.0
outer loop
vertex 115.0 28.0 3.0
vertex 117.5 20.3 0.0
vertex 117.5 20.3 3.0
endloop
endfacet
facet normal -0.951124801889961 -0.308806753860376 0.0
outer loop
vertex 117.5 20.3 0.0
vertex 115.0 28.0 3.0
vertex 115.0 28.0 0.0
endloop
endfacet
facet normal -0.488532090341877 0.872545928135703 1.12274624320433e-016
outer loop
vertex 86.5 0.0 0.0
vertex 118.259947041795 17.7821623105005 3.00288449290513
vertex 118.259947041795 17.7821623105005 -1.76247905159244e-015
endloop
endfacet
facet normal -0.488532090341877 0.872545928135703 1.12274624320433e-016
outer loop
vertex 118.259947041795 17.7821623105005 3.00288449290513
vertex 86.5 0.0 0.0
vertex 86.5 0.0 13.0
endloop
endfacet
facet normal -0.251220907107057 -0.093751177998573 -0.963378831226941
outer loop
vertex 117.272277227723 20.3 3.0
vertex 86.5 0.0 13.0
vertex 86.5 3.0 13.0
endloop
endfacet
facet normal -0.957344004598884 -0.28895061318255 9.46523803767125e-018
outer loop
vertex 117.5 20.3 3.0
vertex 118.259947041795 17.7821623105005 -1.76247905159244e-015
vertex 118.259947041795 17.7821623105005 3.00288449290513
endloop
endfacet
facet normal -0.957344004598884 -0.28895061318255 9.46523803767125e-018
outer loop
vertex 118.259947041795 17.7821623105005 -1.76247905159244e-015
vertex 117.5 20.3 3.0
vertex 117.5 20.3 0.0
endloop
endfacet
facet normal -0.248209408593966 -0.0984688944693828 -0.963688728951113
outer loop
vertex 118.259947041795 17.7821623105005 3.00288449290513
vertex 86.5 0.0 13.0
vertex 117.272277227723 20.3 3.0
endloop
endfacet
facet normal 1.25674680419328e-017 -0.00114562230293011 -0.999999343774554
outer loop
vertex 118.259947041795 17.7821623105005 3.00288449290513
vertex 117.272277227723 20.3 3.0
vertex 117.5 20.3 3.0
endloop
endfacet
facet normal 4.57343517625656e-018 3.24939804754242e-018 1.0
outer loop
vertex 86.5 0.0 0.0
vertex 88.0012614847594 9.63227197147749 5.63993296509579e-015
vertex 87.8875589880378 10.0882022160173 5.63993296509579e-015
endloop
endfacet
facet normal 4.57343517625656e-018 3.24939804754242e-018 1.0
outer loop
vertex 88.0012614847594 9.63227197147749 5.63993296509579e-015
vertex 86.5 0.0 0.0
vertex 88.2290930933815 9.22130554491747 5.63993296509579e-015
endloop
endfacet
facet normal 4.57343517625656e-018 3.24939804754242e-018 1.0
outer loop
vertex 88.2290930933815 9.22130554491747 5.63993296509579e-015
vertex 86.5 0.0 0.0
vertex 88.555527466286 8.88330961915316 5.63993296509579e-015
endloop
endfacet
facet normal 4.57343517625656e-018 3.24939804754242e-018 1.0
outer loop
vertex 88.555527466286 8.88330961915316 5.63993296509579e-015
vertex 86.5 0.0 0.0
vertex 88.9583186404178 8.64131805796072 5.63993296509579e-015
endloop
endfacet
facet normal 4.57343517625656e-018 3.24939804754242e-018 1.0
outer loop
vertex 88.9583186404178 8.64131805796072 5.63993296509579e-015
vertex 86.5 0.0 0.0
vertex 89.4100170629037 8.51182218632544 5.63993296509579e-015
endloop
endfacet
facet normal 4.57343517625656e-018 3.24939804754242e-018 1.0
outer loop
vertex 89.4100170629037 8.51182218632544 5.63993296509579e-015
vertex 86.5 0.0 0.0
vertex 89.8798402327182 8.50364693389723 5.63993296509579e-015
endloop
endfacet
facet normal 4.57343517625656e-018 3.24939804754242e-018 1.0
outer loop
vertex 89.8798402327182 8.50364693389723 5.63993296509579e-015
vertex 86.5 0.0 0.0
vertex 90.335770477258 8.61734943061883 5.63993296509579e-015
endloop
endfacet
facet normal 4.57343517625656e-018 3.24939804754242e-018 1.0
outer loop
vertex 90.335770477258 8.61734943061883 5.63993296509579e-015
vertex 86.5 0.0 0.0
vertex 118.259947041795 17.7821623105005 -1.76247905159244e-015
endloop
endfacet
facet normal 4.57343517625656e-018 3.24939804754242e-018 1.0
outer loop
vertex 90.335770477258 8.61734943061883 5.63993296509579e-015
vertex 118.259947041795 17.7821623105005 -1.76247905159244e-015
vertex 90.746736903818 8.84518103924092 5.63993296509579e-015
endloop
endfacet
facet normal 4.57343517625656e-018 3.24939804754242e-018 1.0
outer loop
vertex 90.746736903818 8.84518103924092 5.63993296509579e-015
vertex 118.259947041795 17.7821623105005 -1.76247905159244e-015
vertex 91.0847328295824 9.17161541214543 5.63993296509579e-015
endloop
endfacet
facet normal 4.57343517625656e-018 3.24939804754242e-018 1.0
outer loop
vertex 91.0847328295824 9.17161541214543 5.63993296509579e-015
vertex 118.259947041795 17.7821623105005 -1.76247905159244e-015
vertex 91.3267243907748 9.57440658627724 5.63993296509579e-015
endloop
endfacet
facet normal 4.57343517625656e-018 3.24939804754242e-018 1.0
outer loop
vertex 91.3267243907748 9.57440658627724 5.63993296509579e-015
vertex 118.259947041795 17.7821623105005 -1.76247905159244e-015
vertex 91.4562202624101 10.0261050087631 5.63993296509579e-015
endloop
endfacet
facet normal 4.57343517625656e-018 3.24939804754242e-018 1.0
outer loop
vertex 91.4562202624101 10.0261050087631 5.63993296509579e-015
vertex 118.259947041795 17.7821623105005 -1.76247905159244e-015
vertex 91.4643955148383 10.4959281785777 5.63993296509579e-015
endloop
endfacet
facet normal 4.57343517625656e-018 3.24939804754242e-018 1.0
outer loop
vertex 91.4643955148383 10.4959281785777 5.63993296509579e-015
vertex 118.259947041795 17.7821623105005 -1.76247905159244e-015
vertex 109.2014905986 19.7924436272906 5.63993296509579e-015
endloop
endfacet
facet normal 4.57343517625656e-018 3.24939804754242e-018 1.0
outer loop
vertex 91.4643955148383 10.4959281785777 5.63993296509579e-015
vertex 109.2014905986 19.7924436272906 5.63993296509579e-015
vertex 108.767364879785 19.9722643877989 5.63993296509579e-015
endloop
endfacet
facet normal 4.57343517625656e-018 3.24939804754242e-018 1.0
outer loop
vertex 91.4643955148383 10.4959281785777 5.63993296509579e-015
vertex 108.767364879785 19.9722643877989 5.63993296509579e-015
vertex 108.394572673649 20.2583179084751 5.63993296509579e-015
endloop
endfacet
facet normal 4.57343517625656e-018 3.24939804754242e-018 1.0
outer loop
vertex 91.4643955148383 10.4959281785777 5.63993296509579e-015
vertex 108.394572673649 20.2583179084751 5.63993296509579e-015
vertex 108.108519152973 20.6311101146109 5.63993296509579e-015
endloop
endfacet
facet normal 4.57343517625656e-018 3.24939804754242e-018 1.0
outer loop
vertex 91.4643955148383 10.4959281785777 5.63993296509579e-015
vertex 108.108519152973 20.6311101146109 5.63993296509579e-015
vertex 107.928698392464 21.0652358334264 5.63993296509579e-015
endloop
endfacet
facet normal 4.57343517625656e-018 3.24939804754242e-018 1.0
outer loop
vertex 91.4643955148383 10.4959281785777 5.63993296509579e-015
vertex 107.928698392464 21.0652358334264 5.63993296509579e-015
vertex 107.867364879785 21.5311101146109 5.63993296509579e-015
endloop
endfacet
facet normal 4.57343517625656e-018 3.24939804754242e-018 1.0
outer loop
vertex 109.2014905986 19.7924436272906 5.63993296509579e-015
vertex 118.259947041795 17.7821623105005 -1.76247905159244e-015
vertex 109.667364879785 19.7311101146109 5.63993296509579e-015
endloop
endfacet
facet normal 4.57343517625656e-018 3.24939804754242e-018 1.0
outer loop
vertex 109.667364879785 19.7311101146109 5.63993296509579e-015
vertex 118.259947041795 17.7821623105005 -1.76247905159244e-015
vertex 110.133239160969 19.7924436272906 5.63993296509579e-015
endloop
endfacet
facet normal 4.57343517625656e-018 3.24939804754242e-018 1.0
outer loop
vertex 110.133239160969 19.7924436272906 5.63993296509579e-015
vertex 118.259947041795 17.7821623105005 -1.76247905159244e-015
vertex 110.567364879785 19.9722643877989 5.63993296509579e-015
endloop
endfacet
facet normal 4.57343517625656e-018 3.24939804754242e-018 1.0
outer loop
vertex 110.567364879785 19.9722643877989 5.63993296509579e-015
vertex 118.259947041795 17.7821623105005 -1.76247905159244e-015
vertex 110.94015708592 20.2583179084751 5.63993296509579e-015
endloop
endfacet
facet normal 4.57343517625656e-018 3.24939804754242e-018 1.0
outer loop
vertex 110.94015708592 20.2583179084751 5.63993296509579e-015
vertex 118.259947041795 17.7821623105005 -1.76247905159244e-015
vertex 111.226210606597 20.6311101146109 5.63993296509579e-015
endloop
endfacet
facet normal 4.57343517625656e-018 3.24939804754242e-018 1.0
outer loop
vertex 111.226210606597 20.6311101146109 5.63993296509579e-015
vertex 118.259947041795 17.7821623105005 -1.76247905159244e-015
vertex 111.406031367105 21.0652358334264 5.63993296509579e-015
endloop
endfacet
facet normal 4.57343517625656e-018 3.24939804754242e-018 1.0
outer loop
vertex 111.406031367105 21.0652358334264 5.63993296509579e-015
vertex 118.259947041795 17.7821623105005 -1.76247905159244e-015
vertex 111.467364879785 21.5311101146109 5.63993296509579e-015
endloop
endfacet
facet normal 4.57343517625656e-018 3.24939804754242e-018 1.0
outer loop
vertex 111.467364879785 21.5311101146109 5.63993296509579e-015
vertex 118.259947041795 17.7821623105005 -1.76247905159244e-015
vertex 115.0 28.0 0.0
endloop
endfacet
facet normal 4.57343517625656e-018 3.24939804754242e-018 1.0
outer loop
vertex 115.0 28.0 0.0
vertex 118.259947041795 17.7821623105005 -1.76247905159244e-015
vertex 117.5 20.3 0.0
endloop
endfacet
facet normal 4.57343517625656e-018 3.24939804754242e-018 1.0
outer loop
vertex 10.0 0.0 0.0
vertex 115.0 28.0 0.0
vertex 0.0 0.0 0.0
endloop
endfacet
facet normal 4.57343517625656e-018 3.24939804754242e-018 1.0
outer loop
vertex 115.0 28.0 0.0
vertex 10.0 0.0 0.0
vertex 25.0 0.0 0.0
endloop
endfacet
facet normal 4.57343517625656e-018 3.24939804754242e-018 1.0
outer loop
vertex 115.0 28.0 0.0
vertex 25.0 0.0 0.0
vertex 57.0 0.0 0.0
endloop
endfacet
facet normal 4.57343517625656e-018 3.24939804754242e-018 1.0
outer loop
vertex 115.0 28.0 0.0
vertex 57.0 0.0 0.0
vertex 88.605217599058 11.738949355354 5.63993296509579e-015
endloop
endfacet
facet normal 4.57343517625656e-018 3.24939804754242e-018 1.0
outer loop
vertex 88.605217599058 11.738949355354 5.63993296509579e-015
vertex 57.0 0.0 0.0
vertex 72.0 0.0 0.0
endloop
endfacet
facet normal 4.57343517625656e-018 3.24939804754242e-018 1.0
outer loop
vertex 88.605217599058 11.738949355354 5.63993296509579e-015
vertex 72.0 0.0 0.0
vertex 88.2672216732937 11.4125149824495 5.63993296509579e-015
endloop
endfacet
facet normal 4.57343517625656e-018 3.24939804754242e-018 1.0
outer loop
vertex 88.2672216732937 11.4125149824495 5.63993296509579e-015
vertex 72.0 0.0 0.0
vertex 88.0252301121013 11.0097238083177 5.63993296509579e-015
endloop
endfacet
facet normal 4.57343517625656e-018 3.24939804754242e-018 1.0
outer loop
vertex 88.0252301121013 11.0097238083177 5.63993296509579e-015
vertex 72.0 0.0 0.0
vertex 87.895734240466 10.5580253858318 5.63993296509579e-015
endloop
endfacet
facet normal 4.57343517625656e-018 3.24939804754242e-018 1.0
outer loop
vertex 87.895734240466 10.5580253858318 5.63993296509579e-015
vertex 72.0 0.0 0.0
vertex 86.5 0.0 0.0
endloop
endfacet
facet normal 4.57343517625656e-018 3.24939804754242e-018 1.0
outer loop
vertex 87.895734240466 10.5580253858318 5.63993296509579e-015
vertex 86.5 0.0 0.0
vertex 87.8875589880378 10.0882022160173 5.63993296509579e-015
endloop
endfacet
facet normal 4.57343517625656e-018 3.24939804754242e-018 1.0
outer loop
vertex 115.0 28.0 0.0
vertex 88.605217599058 11.738949355354 5.63993296509579e-015
vertex 89.016184025618 11.9667809639761 5.63993296509579e-015
endloop
endfacet
facet normal 4.57343517625656e-018 3.24939804754242e-018 1.0
outer loop
vertex 115.0 28.0 0.0
vertex 89.016184025618 11.9667809639761 5.63993296509579e-015
vertex 89.4721142701578 12.0804834606977 5.63993296509579e-015
endloop
endfacet
facet normal 4.57343517625656e-018 3.24939804754242e-018 1.0
outer loop
vertex 115.0 28.0 0.0
vertex 89.4721142701578 12.0804834606977 5.63993296509579e-015
vertex 89.9419374399724 12.0723082082695 5.63993296509579e-015
endloop
endfacet
facet normal 4.57343517625656e-018 3.24939804754242e-018 1.0
outer loop
vertex 115.0 28.0 0.0
vertex 89.9419374399724 12.0723082082695 5.63993296509579e-015
vertex 90.3936358624583 11.9428123366342 5.63993296509579e-015
endloop
endfacet
facet normal 4.57343517625656e-018 3.24939804754242e-018 1.0
outer loop
vertex 115.0 28.0 0.0
vertex 90.3936358624583 11.9428123366342 5.63993296509579e-015
vertex 90.7964270365901 11.7008207754418 5.63993296509579e-015
endloop
endfacet
facet normal 4.57343517625656e-018 3.24939804754242e-018 1.0
outer loop
vertex 115.0 28.0 0.0
vertex 90.7964270365901 11.7008207754418 5.63993296509579e-015
vertex 91.1228614094946 11.3628248496775 5.63993296509579e-015
endloop
endfacet
facet normal 4.57343517625656e-018 3.24939804754242e-018 1.0
outer loop
vertex 115.0 28.0 0.0
vertex 91.1228614094946 11.3628248496775 5.63993296509579e-015
vertex 91.3506930181167 10.9518584231175 5.63993296509579e-015
endloop
endfacet
facet normal 4.57343517625656e-018 3.24939804754242e-018 1.0
outer loop
vertex 115.0 28.0 0.0
vertex 91.3506930181167 10.9518584231175 5.63993296509579e-015
vertex 91.4643955148383 10.4959281785777 5.63993296509579e-015
endloop
endfacet
facet normal 4.57343517625656e-018 3.24939804754242e-018 1.0
outer loop
vertex 115.0 28.0 0.0
vertex 91.4643955148383 10.4959281785777 5.63993296509579e-015
vertex 108.394572673649 22.8039023207467 5.63993296509579e-015
endloop
endfacet
facet normal 4.57343517625656e-018 3.24939804754242e-018 1.0
outer loop
vertex 108.394572673649 22.8039023207467 5.63993296509579e-015
vertex 91.4643955148383 10.4959281785777 5.63993296509579e-015
vertex 108.108519152973 22.4311101146109 5.63993296509579e-015
endloop
endfacet
facet normal 4.57343517625656e-018 3.24939804754242e-018 1.0
outer loop
vertex 108.108519152973 22.4311101146109 5.63993296509579e-015
vertex 91.4643955148383 10.4959281785777 5.63993296509579e-015
vertex 107.928698392464 21.9969843957954 5.63993296509579e-015
endloop
endfacet
facet normal 4.57343517625656e-018 3.24939804754242e-018 1.0
outer loop
vertex 107.928698392464 21.9969843957954 5.63993296509579e-015
vertex 91.4643955148383 10.4959281785777 5.63993296509579e-015
vertex 107.867364879785 21.5311101146109 5.63993296509579e-015
endloop
endfacet
facet normal 4.57343517625656e-018 3.24939804754242e-018 1.0
outer loop
vertex 115.0 28.0 0.0
vertex 108.394572673649 22.8039023207467 5.63993296509579e-015
vertex 108.767364879785 23.0899558414229 5.63993296509579e-015
endloop
endfacet
facet normal 4.57343517625656e-018 3.24939804754242e-018 1.0
outer loop
vertex 115.0 28.0 0.0
vertex 108.767364879785 23.0899558414229 5.63993296509579e-015
vertex 109.2014905986 23.2697766019312 5.63993296509579e-015
endloop
endfacet
facet normal 4.57343517625656e-018 3.24939804754242e-018 1.0
outer loop
vertex 115.0 28.0 0.0
vertex 109.2014905986 23.2697766019312 5.63993296509579e-015
vertex 109.667364879785 23.3311101146109 5.63993296509579e-015
endloop
endfacet
facet normal 4.57343517625656e-018 3.24939804754242e-018 1.0
outer loop
vertex 115.0 28.0 0.0
vertex 109.667364879785 23.3311101146109 5.63993296509579e-015
vertex 110.133239160969 23.2697766019312 5.63993296509579e-015
endloop
endfacet
facet normal 4.57343517625656e-018 3.24939804754242e-018 1.0
outer loop
vertex 115.0 28.0 0.0
vertex 110.133239160969 23.2697766019312 5.63993296509579e-015
vertex 110.567364879785 23.0899558414229 5.63993296509579e-015
endloop
endfacet
facet normal 4.57343517625656e-018 3.24939804754242e-018 1.0
outer loop
vertex 115.0 28.0 0.0
vertex 110.567364879785 23.0899558414229 5.63993296509579e-015
vertex 110.94015708592 22.8039023207467 5.63993296509579e-015
endloop
endfacet
facet normal 4.57343517625656e-018 3.24939804754242e-018 1.0
outer loop
vertex 115.0 28.0 0.0
vertex 110.94015708592 22.8039023207467 5.63993296509579e-015
vertex 111.226210606597 22.4311101146109 5.63993296509579e-015
endloop
endfacet
facet normal 4.57343517625656e-018 3.24939804754242e-018 1.0
outer loop
vertex 115.0 28.0 0.0
vertex 111.226210606597 22.4311101146109 5.63993296509579e-015
vertex 111.406031367105 21.9969843957954 5.63993296509579e-015
endloop
endfacet
facet normal 4.57343517625656e-018 3.24939804754242e-018 1.0
outer loop
vertex 115.0 28.0 0.0
vertex 111.406031367105 21.9969843957954 5.63993296509579e-015
vertex 111.467364879785 21.5311101146109 5.63993296509579e-015
endloop
endfacet
facet normal -0.0 -0.0 1.0
outer loop
vertex 115.0 28.0 0.0
vertex 0.0 3.0 0.0
vertex 0.0 0.0 0.0
endloop
endfacet
facet normal -0.0 -0.0 1.0
outer loop
vertex 0.0 3.0 0.0
vertex 115.0 28.0 0.0
vertex 0.0 28.0 0.0
endloop
endfacet
facet normal -0.0 1.0 -0.0
outer loop
vertex 0.0 0.0 0.0
vertex 5.49813663906392 0.0 5.0024877015057
vertex 10.0 0.0 0.0
endloop
endfacet
facet normal -0.0 1.0 -0.0
outer loop
vertex 5.49813663906392 0.0 5.0024877015057
vertex 0.0 0.0 0.0
vertex 0.0 0.0 13.0
endloop
endfacet
facet normal -0.0 1.0 -0.0
outer loop
vertex 10.0 0.0 0.0
vertex 5.49813663906392 0.0 5.0024877015057
vertex 5.95393318209558 0.0 4.53539383219565
endloop
endfacet
facet normal -0.0 1.0 -0.0
outer loop
vertex 10.0 0.0 0.0
vertex 5.95393318209558 0.0 4.53539383219565
vertex 6.5150916237712 0.0 4.20218462655627
endloop
endfacet
facet normal -0.0 1.0 -0.0
outer loop
vertex 10.0 0.0 0.0
vertex 6.5150916237712 0.0 4.20218462655627
vertex 7.14336994364877 0.0 4.02556774129763
endloop
endfacet
facet normal -0.0 1.0 -0.0
outer loop
vertex 10.0 0.0 0.0
vertex 7.14336994364877 0.0 4.02556774129763
vertex 7.79595201250765 0.0 4.0175793252769
endloop
endfacet
facet normal -0.0 1.0 -0.0
outer loop
vertex 5.49813663906392 0.0 5.0024877015057
vertex 0.0 0.0 13.0
vertex 5.17876377584443 0.0 5.57163455920205
endloop
endfacet
facet normal -0.0 1.0 -0.0
outer loop
vertex 5.17876377584443 0.0 5.57163455920205
vertex 0.0 0.0 13.0
vertex 5.0175793252769 0.0 6.20404798749235
endloop
endfacet
facet normal -0.0 1.0 -0.0
outer loop
vertex 5.0175793252769 0.0 6.20404798749235
vertex 0.0 0.0 13.0
vertex 5.02556774129763 0.0 6.85663005635122
endloop
endfacet
facet normal -0.0 1.0 -0.0
outer loop
vertex 5.02556774129763 0.0 6.85663005635122
vertex 0.0 0.0 13.0
vertex 5.20218462655627 0.0 7.48490837622879
endloop
endfacet
facet normal -0.0 1.0 -0.0
outer loop
vertex 5.20218462655627 0.0 7.48490837622879
vertex 0.0 0.0 13.0
vertex 5.53539383219565 0.0 8.04606681790442
endloop
endfacet
facet normal -0.0 1.0 -0.0
outer loop
vertex 5.53539383219565 0.0 8.04606681790442
vertex 0.0 0.0 13.0
vertex 6.0024877015057 0.0 8.50186336093608
endloop
endfacet
facet normal -0.0 1.0 -0.0
outer loop
vertex 6.0024877015057 0.0 8.50186336093608
vertex 0.0 0.0 13.0
vertex 6.57163455920205 0.0 8.82123622415557
endloop
endfacet
facet normal -0.0 1.0 -0.0
outer loop
vertex 6.57163455920205 0.0 8.82123622415557
vertex 0.0 0.0 13.0
vertex 7.20404798749235 0.0 8.98242067472309
endloop
endfacet
facet normal -0.0 1.0 -0.0
outer loop
vertex 9.82123622415557 0.0 7.42836544079795
vertex 10.0 0.0 13.0
vertex 9.9824206747231 0.0 6.79595201250765
endloop
endfacet
facet normal -0.0 1.0 -0.0
outer loop
vertex 10.0 0.0 13.0
vertex 9.82123622415557 0.0 7.42836544079795
vertex 9.50186336093608 0.0 7.9975122984943
endloop
endfacet
facet normal -0.0 1.0 -0.0
outer loop
vertex 10.0 0.0 13.0
vertex 9.50186336093608 0.0 7.9975122984943
vertex 9.04606681790442 0.0 8.46460616780435
endloop
endfacet
facet normal -0.0 1.0 -0.0
outer loop
vertex 10.0 0.0 13.0
vertex 9.04606681790442 0.0 8.46460616780435
vertex 8.48490837622879 0.0 8.79781537344373
endloop
endfacet
facet normal -0.0 1.0 -0.0
outer loop
vertex 10.0 0.0 13.0
vertex 8.48490837622879 0.0 8.79781537344373
vertex 7.85663005635123 0.0 8.97443225870237
endloop
endfacet
facet normal -0.0 1.0 -0.0
outer loop
vertex 10.0 0.0 13.0
vertex 7.85663005635123 0.0 8.97443225870237
vertex 7.20404798749235 0.0 8.98242067472309
endloop
endfacet
facet normal -0.0 1.0 -0.0
outer loop
vertex 10.0 0.0 13.0
vertex 7.20404798749235 0.0 8.98242067472309
vertex 0.0 0.0 13.0
endloop
endfacet
facet normal -0.0 1.0 -0.0
outer loop
vertex 10.0 0.0 0.0
vertex 9.79781537344373 0.0 5.5150916237712
vertex 9.97443225870237 0.0 6.14336994364877
endloop
endfacet
facet normal -0.0 1.0 -0.0
outer loop
vertex 9.79781537344373 0.0 5.5150916237712
vertex 10.0 0.0 0.0
vertex 9.46460616780435 0.0 4.95393318209558
endloop
endfacet
facet normal -0.0 1.0 -0.0
outer loop
vertex 9.46460616780435 0.0 4.95393318209558
vertex 10.0 0.0 0.0
vertex 8.9975122984943 0.0 4.49813663906391
endloop
endfacet
facet normal -0.0 1.0 -0.0
outer loop
vertex 8.9975122984943 0.0 4.49813663906391
vertex 10.0 0.0 0.0
vertex 8.42836544079795 0.0 4.17876377584442
endloop
endfacet
facet normal -0.0 1.0 -0.0
outer loop
vertex 8.42836544079795 0.0 4.17876377584442
vertex 10.0 0.0 0.0
vertex 7.79595201250765 0.0 4.0175793252769
endloop
endfacet
facet normal 0.0 -1.0 0.0
outer loop
vertex 10.0 3.0 3.0
vertex 7.79595201250765 3.0 4.0175793252769
vertex 0.0 3.0 3.0
endloop
endfacet
facet normal 0.0 -1.0 0.0
outer loop
vertex 7.79595201250765 3.0 4.0175793252769
vertex 10.0 3.0 3.0
vertex 8.42836544079795 3.0 4.17876377584442
endloop
endfacet
facet normal 0.0 -1.0 0.0
outer loop
vertex 8.42836544079795 3.0 4.17876377584442
vertex 10.0 3.0 3.0
vertex 8.9975122984943 3.0 4.49813663906391
endloop
endfacet
facet normal 0.0 -1.0 0.0
outer loop
vertex 8.9975122984943 3.0 4.49813663906391
vertex 10.0 3.0 3.0
vertex 9.46460616780435 3.0 4.95393318209558
endloop
endfacet
facet normal 0.0 -1.0 0.0
outer loop
vertex 9.46460616780435 3.0 4.95393318209558
vertex 10.0 3.0 3.0
vertex 9.79781537344373 3.0 5.5150916237712
endloop
endfacet
facet normal 0.0 -1.0 0.0
outer loop
vertex 9.79781537344373 3.0 5.5150916237712
vertex 10.0 3.0 3.0
vertex 9.97443225870237 3.0 6.14336994364877
endloop
endfacet
facet normal 0.0 -1.0 0.0
outer loop
vertex 10.0 3.0 13.0
vertex 9.82123622415557 3.0 7.42836544079795
vertex 9.9824206747231 3.0 6.79595201250765
endloop
endfacet
facet normal 0.0 -1.0 0.0
outer loop
vertex 9.82123622415557 3.0 7.42836544079795
vertex 10.0 3.0 13.0
vertex 9.50186336093608 3.0 7.9975122984943
endloop
endfacet
facet normal 0.0 -1.0 0.0
outer loop
vertex 9.50186336093608 3.0 7.9975122984943
vertex 10.0 3.0 13.0
vertex 9.04606681790442 3.0 8.46460616780435
endloop
endfacet
facet normal 0.0 -1.0 0.0
outer loop
vertex 9.04606681790442 3.0 8.46460616780435
vertex 10.0 3.0 13.0
vertex 8.48490837622879 3.0 8.79781537344373
endloop
endfacet
facet normal 0.0 -1.0 0.0
outer loop
vertex 8.48490837622879 3.0 8.79781537344373
vertex 10.0 3.0 13.0
vertex 7.85663005635123 3.0 8.97443225870237
endloop
endfacet
facet normal 0.0 -1.0 0.0
outer loop
vertex 7.85663005635123 3.0 8.97443225870237
vertex 10.0 3.0 13.0
vertex 7.20404798749235 3.0 8.98242067472309
endloop
endfacet
facet normal 0.0 -1.0 0.0
outer loop
vertex 0.0 3.0 3.0
vertex 5.49813663906392 3.0 5.0024877015057
vertex 0.0 3.0 13.0
endloop
endfacet
facet normal 0.0 -1.0 0.0
outer loop
vertex 5.49813663906392 3.0 5.0024877015057
vertex 0.0 3.0 3.0
vertex 5.95393318209558 3.0 4.53539383219565
endloop
endfacet
facet normal 0.0 -1.0 0.0
outer loop
vertex 5.95393318209558 3.0 4.53539383219565
vertex 0.0 3.0 3.0
vertex 6.5150916237712 3.0 4.20218462655627
endloop
endfacet
facet normal 0.0 -1.0 0.0
outer loop
vertex 6.5150916237712 3.0 4.20218462655627
vertex 0.0 3.0 3.0
vertex 7.14336994364877 3.0 4.02556774129763
endloop
endfacet
facet normal 0.0 -1.0 0.0
outer loop
vertex 7.14336994364877 3.0 4.02556774129763
vertex 0.0 3.0 3.0
vertex 7.79595201250765 3.0 4.0175793252769
endloop
endfacet
facet normal 0.0 -1.0 0.0
outer loop
vertex 0.0 3.0 13.0
vertex 5.49813663906392 3.0 5.0024877015057
vertex 5.17876377584443 3.0 5.57163455920205
endloop
endfacet
facet normal 0.0 -1.0 0.0
outer loop
vertex 0.0 3.0 13.0
vertex 5.17876377584443 3.0 5.57163455920205
vertex 5.0175793252769 3.0 6.20404798749235
endloop
endfacet
facet normal 0.0 -1.0 0.0
outer loop
vertex 0.0 3.0 13.0
vertex 5.0175793252769 3.0 6.20404798749235
vertex 5.02556774129763 3.0 6.85663005635122
endloop
endfacet
facet normal 0.0 -1.0 0.0
outer loop
vertex 0.0 3.0 13.0
vertex 5.02556774129763 3.0 6.85663005635122
vertex 5.20218462655627 3.0 7.48490837622879
endloop
endfacet
facet normal 0.0 -1.0 0.0
outer loop
vertex 0.0 3.0 13.0
vertex 5.20218462655627 3.0 7.48490837622879
vertex 5.53539383219565 3.0 8.04606681790442
endloop
endfacet
facet normal 0.0 -1.0 0.0
outer loop
vertex 0.0 3.0 13.0
vertex 5.53539383219565 3.0 8.04606681790442
vertex 6.0024877015057 3.0 8.50186336093608
endloop
endfacet
facet normal 0.0 -1.0 0.0
outer loop
vertex 0.0 3.0 13.0
vertex 6.0024877015057 3.0 8.50186336093608
vertex 6.57163455920205 3.0 8.82123622415557
endloop
endfacet
facet normal 0.0 -1.0 0.0
outer loop
vertex 0.0 3.0 13.0
vertex 6.57163455920205 3.0 8.82123622415557
vertex 7.20404798749235 3.0 8.98242067472309
endloop
endfacet
facet normal 0.0 -1.0 0.0
outer loop
vertex 0.0 3.0 13.0
vertex 7.20404798749235 3.0 8.98242067472309
vertex 10.0 3.0 13.0
endloop
endfacet
facet normal 0.999925084397922 -0.0 -0.0122403264583972
outer loop
vertex 9.97443225870237 3.0 6.14336994364877
vertex 9.9824206747231 0.0 6.79595201250765
vertex 9.97443225870237 0.0 6.14336994364877
endloop
endfacet
facet normal 0.999925084397922 -0.0 -0.0122403264583972
outer loop
vertex 9.9824206747231 0.0 6.79595201250765
vertex 9.97443225870237 3.0 6.14336994364877
vertex 9.9824206747231 3.0 6.79595201250765
endloop
endfacet
facet normal 0.962685433768524 -0.0 -0.270622902966303
outer loop
vertex 9.79781537344373 3.0 5.5150916237712
vertex 9.97443225870237 0.0 6.14336994364877
vertex 9.79781537344373 0.0 5.5150916237712
endloop
endfacet
facet normal 0.962685433768524 -0.0 -0.270622902966303
outer loop
vertex 9.97443225870237 0.0 6.14336994364877
vertex 9.79781537344373 3.0 5.5150916237712
vertex 9.97443225870237 3.0 6.14336994364877
endloop
endfacet
facet normal 0.859840361740701 0.0 -0.510562975862547
outer loop
vertex 9.46460616780435 3.0 4.95393318209558
vertex 9.79781537344373 0.0 5.5150916237712
vertex 9.46460616780435 0.0 4.95393318209558
endloop
endfacet
facet normal 0.859840361740701 0.0 -0.510562975862547
outer loop
vertex 9.79781537344373 0.0 5.5150916237712
vertex 9.46460616780435 3.0 4.95393318209558
vertex 9.79781537344373 3.0 5.5150916237712
endloop
endfacet
facet normal 0.698398590013632 0.0 -0.715709025698971
outer loop
vertex 9.46460616780435 3.0 4.95393318209558
vertex 8.9975122984943 0.0 4.49813663906391
vertex 8.9975122984943 3.0 4.49813663906391
endloop
endfacet
facet normal 0.698398590013632 0.0 -0.715709025698971
outer loop
vertex 8.9975122984943 0.0 4.49813663906391
vertex 9.46460616780435 3.0 4.95393318209558
vertex 9.46460616780435 0.0 4.95393318209558
endloop
endfacet
facet normal 0.489362108535374 0.0 -0.872080688199098
outer loop
vertex 8.9975122984943 3.0 4.49813663906391
vertex 8.42836544079795 0.0 4.17876377584442
vertex 8.42836544079795 3.0 4.17876377584442
endloop
endfacet
facet normal 0.489362108535374 0.0 -0.872080688199098
outer loop
vertex 8.42836544079795 0.0 4.17876377584442
vertex 8.9975122984943 3.0 4.49813663906391
vertex 8.9975122984943 0.0 4.49813663906391
endloop
endfacet
facet normal 0.246976408069552 0.0 -0.969021492979935
outer loop
vertex 8.42836544079795 3.0 4.17876377584442
vertex 7.79595201250765 0.0 4.0175793252769
vertex 7.79595201250765 3.0 4.0175793252769
endloop
endfacet
facet normal 0.246976408069552 0.0 -0.969021492979935
outer loop
vertex 7.79595201250765 0.0 4.0175793252769
vertex 8.42836544079795 3.0 4.17876377584442
vertex 8.42836544079795 0.0 4.17876377584442
endloop
endfacet
facet normal -0.0122403264583972 -0.0 -0.999925084397922
outer loop
vertex 7.79595201250765 3.0 4.0175793252769
vertex 7.14336994364877 0.0 4.02556774129763
vertex 7.14336994364877 3.0 4.02556774129763
endloop
endfacet
facet normal -0.0122403264583972 -0.0 -0.999925084397922
outer loop
vertex 7.14336994364877 0.0 4.02556774129763
vertex 7.79595201250765 3.0 4.0175793252769
vertex 7.79595201250765 0.0 4.0175793252769
endloop
endfacet
facet normal -0.270622902966303 -0.0 -0.962685433768524
outer loop
vertex 7.14336994364877 3.0 4.02556774129763
vertex 6.5150916237712 0.0 4.20218462655627
vertex 6.5150916237712 3.0 4.20218462655627
endloop
endfacet
facet normal -0.270622902966303 -0.0 -0.962685433768524
outer loop
vertex 6.5150916237712 0.0 4.20218462655627
vertex 7.14336994364877 3.0 4.02556774129763
vertex 7.14336994364877 0.0 4.02556774129763
endloop
endfacet
facet normal -0.510562975862548 -0.0 -0.859840361740701
outer loop
vertex 6.5150916237712 3.0 4.20218462655627
vertex 5.95393318209558 0.0 4.53539383219565
vertex 5.95393318209558 3.0 4.53539383219565
endloop
endfacet
facet normal -0.510562975862548 -0.0 -0.859840361740701
outer loop
vertex 5.95393318209558 0.0 4.53539383219565
vertex 6.5150916237712 3.0 4.20218462655627
vertex 6.5150916237712 0.0 4.20218462655627
endloop
endfacet
facet normal -0.715709025698972 -0.0 -0.698398590013632
outer loop
vertex 5.49813663906392 3.0 5.0024877015057
vertex 5.95393318209558 0.0 4.53539383219565
vertex 5.49813663906392 0.0 5.0024877015057
endloop
endfacet
facet normal -0.715709025698972 -0.0 -0.698398590013632
outer loop
vertex 5.95393318209558 0.0 4.53539383219565
vertex 5.49813663906392 3.0 5.0024877015057
vertex 5.95393318209558 3.0 4.53539383219565
endloop
endfacet
facet normal -0.872080688199098 -0.0 -0.489362108535374
outer loop
vertex 5.17876377584443 3.0 5.57163455920205
vertex 5.49813663906392 0.0 5.0024877015057
vertex 5.17876377584443 0.0 5.57163455920205
endloop
endfacet
facet normal -0.872080688199098 -0.0 -0.489362108535374
outer loop
vertex 5.49813663906392 0.0 5.0024877015057
vertex 5.17876377584443 3.0 5.57163455920205
vertex 5.49813663906392 3.0 5.0024877015057
endloop
endfacet
facet normal -0.969021492979935 -0.0 -0.246976408069552
outer loop
vertex 5.0175793252769 3.0 6.20404798749235
vertex 5.17876377584443 0.0 5.57163455920205
vertex 5.0175793252769 0.0 6.20404798749235
endloop
endfacet
facet normal -0.969021492979935 -0.0 -0.246976408069552
outer loop
vertex 5.17876377584443 0.0 5.57163455920205
vertex 5.0175793252769 3.0 6.20404798749235
vertex 5.17876377584443 3.0 5.57163455920205
endloop
endfacet
facet normal -0.999925084397922 0.0 0.0122403264583972
outer loop
vertex 5.02556774129763 3.0 6.85663005635122
vertex 5.0175793252769 0.0 6.20404798749235
vertex 5.02556774129763 0.0 6.85663005635122
endloop
endfacet
facet normal -0.999925084397922 0.0 0.0122403264583972
outer loop
vertex 5.0175793252769 0.0 6.20404798749235
vertex 5.02556774129763 3.0 6.85663005635122
vertex 5.0175793252769 3.0 6.20404798749235
endloop
endfacet
facet normal -0.962685433768524 0.0 0.270622902966303
outer loop
vertex 5.20218462655627 3.0 7.48490837622879
vertex 5.02556774129763 0.0 6.85663005635122
vertex 5.20218462655627 0.0 7.48490837622879
endloop
endfacet
facet normal -0.962685433768524 0.0 0.270622902966303
outer loop
vertex 5.02556774129763 0.0 6.85663005635122
vertex 5.20218462655627 3.0 7.48490837622879
vertex 5.02556774129763 3.0 6.85663005635122
endloop
endfacet
facet normal -0.859840361740702 0.0 0.510562975862547
outer loop
vertex 5.53539383219565 3.0 8.04606681790442
vertex 5.20218462655627 0.0 7.48490837622879
vertex 5.53539383219565 0.0 8.04606681790442
endloop
endfacet
facet normal -0.859840361740702 0.0 0.510562975862547
outer loop
vertex 5.20218462655627 0.0 7.48490837622879
vertex 5.53539383219565 3.0 8.04606681790442
vertex 5.20218462655627 3.0 7.48490837622879
endloop
endfacet
facet normal -0.698398590013631 0.0 0.715709025698972
outer loop
vertex 6.0024877015057 0.0 8.50186336093608
vertex 5.53539383219565 3.0 8.04606681790442
vertex 5.53539383219565 0.0 8.04606681790442
endloop
endfacet
facet normal -0.698398590013631 0.0 0.715709025698972
outer loop
vertex 5.53539383219565 3.0 8.04606681790442
vertex 6.0024877015057 0.0 8.50186336093608
vertex 6.0024877015057 3.0 8.50186336093608
endloop
endfacet
facet normal -0.489362108535375 0.0 0.872080688199097
outer loop
vertex 6.57163455920205 0.0 8.82123622415557
vertex 6.0024877015057 3.0 8.50186336093608
vertex 6.0024877015057 0.0 8.50186336093608
endloop
endfacet
facet normal -0.489362108535375 0.0 0.872080688199097
outer loop
vertex 6.0024877015057 3.0 8.50186336093608
vertex 6.57163455920205 0.0 8.82123622415557
vertex 6.57163455920205 3.0 8.82123622415557
endloop
endfacet
facet normal -0.246976408069552 0.0 0.969021492979935
outer loop
vertex 7.20404798749235 0.0 8.98242067472309
vertex 6.57163455920205 3.0 8.82123622415557
vertex 6.57163455920205 0.0 8.82123622415557
endloop
endfacet
facet normal -0.246976408069552 0.0 0.969021492979935
outer loop
vertex 6.57163455920205 3.0 8.82123622415557
vertex 7.20404798749235 0.0 8.98242067472309
vertex 7.20404798749235 3.0 8.98242067472309
endloop
endfacet
facet normal 0.0122403264583972 0.0 0.999925084397922
outer loop
vertex 7.85663005635123 0.0 8.97443225870237
vertex 7.20404798749235 3.0 8.98242067472309
vertex 7.20404798749235 0.0 8.98242067472309
endloop
endfacet
facet normal 0.0122403264583972 0.0 0.999925084397922
outer loop
vertex 7.20404798749235 3.0 8.98242067472309
vertex 7.85663005635123 0.0 8.97443225870237
vertex 7.85663005635123 3.0 8.97443225870237
endloop
endfacet
facet normal 0.270622902966303 0.0 0.962685433768524
outer loop
vertex 8.48490837622879 0.0 8.79781537344373
vertex 7.85663005635123 3.0 8.97443225870237
vertex 7.85663005635123 0.0 8.97443225870237
endloop
endfacet
facet normal 0.270622902966303 0.0 0.962685433768524
outer loop
vertex 7.85663005635123 3.0 8.97443225870237
vertex 8.48490837622879 0.0 8.79781537344373
vertex 8.48490837622879 3.0 8.79781537344373
endloop
endfacet
facet normal 0.510562975862547 0.0 0.859840361740702
outer loop
vertex 9.04606681790442 0.0 8.46460616780435
vertex 8.48490837622879 3.0 8.79781537344373
vertex 8.48490837622879 0.0 8.79781537344373
endloop
endfacet
facet normal 0.510562975862547 0.0 0.859840361740702
outer loop
vertex 8.48490837622879 3.0 8.79781537344373
vertex 9.04606681790442 0.0 8.46460616780435
vertex 9.04606681790442 3.0 8.46460616780435
endloop
endfacet
facet normal 0.715709025698972 0.0 0.698398590013632
outer loop
vertex 9.50186336093608 3.0 7.9975122984943
vertex 9.04606681790442 0.0 8.46460616780435
vertex 9.50186336093608 0.0 7.9975122984943
endloop
endfacet
facet normal 0.715709025698972 0.0 0.698398590013632
outer loop
vertex 9.04606681790442 0.0 8.46460616780435
vertex 9.50186336093608 3.0 7.9975122984943
vertex 9.04606681790442 3.0 8.46460616780435
endloop
endfacet
facet normal 0.872080688199098 0.0 0.489362108535374
outer loop
vertex 9.82123622415557 3.0 7.42836544079795
vertex 9.50186336093608 0.0 7.9975122984943
vertex 9.82123622415557 0.0 7.42836544079795
endloop
endfacet
facet normal 0.872080688199098 0.0 0.489362108535374
outer loop
vertex 9.50186336093608 0.0 7.9975122984943
vertex 9.82123622415557 3.0 7.42836544079795
vertex 9.50186336093608 3.0 7.9975122984943
endloop
endfacet
facet normal 0.969021492979935 -0.0 0.246976408069554
outer loop
vertex 9.9824206747231 3.0 6.79595201250765
vertex 9.82123622415557 0.0 7.42836544079795
vertex 9.9824206747231 0.0 6.79595201250765
endloop
endfacet
facet normal 0.969021492979935 -0.0 0.246976408069554
outer loop
vertex 9.82123622415557 0.0 7.42836544079795
vertex 9.9824206747231 3.0 6.79595201250765
vertex 9.82123622415557 3.0 7.42836544079795
endloop
endfacet
facet normal -0.604377609778354 0.0 0.796698001000758
outer loop
vertex 76.4890559755541 0.0 8.49174500250189
vertex 76.0250386050753 3.0 8.03281684768832
vertex 76.0250386050753 0.0 8.03281684768832
endloop
endfacet
facet normal -0.789984557969873 0.0 0.613126739075327
outer loop
vertex 76.0250386050753 3.0 8.03281684768832
vertex 76.4890559755541 0.0 8.49174500250189
vertex 76.4890559755541 3.0 8.49174500250189
endloop
endfacet
facet normal -0.377583326261665 0.0 0.925975610763684
outer loop
vertex 77.0560416843458 0.0 8.8149390269092
vertex 76.4890559755541 3.0 8.49174500250189
vertex 76.4890559755541 0.0 8.49174500250189
endloop
endfacet
facet normal -0.604377609778354 0.0 0.796698001000758
outer loop
vertex 76.4890559755541 3.0 8.49174500250189
vertex 77.0560416843458 0.0 8.8149390269092
vertex 77.0560416843458 3.0 8.8149390269092
endloop
endfacet
facet normal -0.125057363046193 0.0 0.992149512900114
outer loop
vertex 77.6873565923845 0.0 8.98037378225028
vertex 77.0560416843458 3.0 8.8149390269092
vertex 77.0560416843458 0.0 8.8149390269092
endloop
endfacet
facet normal -0.377583326261665 0.0 0.925975610763684
outer loop
vertex 77.0560416843458 3.0 8.8149390269092
vertex 77.6873565923845 0.0 8.98037378225028
vertex 77.6873565923845 3.0 8.98037378225028
endloop
endfacet
facet normal 0.13599105279381 0.0 0.990710065336994
outer loop
vertex 78.3399776319845 0.0 8.97677516334248
vertex 77.6873565923845 3.0 8.98037378225028
vertex 77.6873565923845 0.0 8.98037378225028
endloop
endfacet
facet normal -0.125057363046193 0.0 0.992149512900114
outer loop
vertex 77.6873565923845 3.0 8.98037378225028
vertex 78.3399776319845 0.0 8.97677516334248
vertex 78.3399776319845 3.0 8.97677516334248
endloop
endfacet
facet normal 0.387771903121759 0.0 0.921755364046952
outer loop
vertex 78.9694297578044 0.0 8.80438841011738
vertex 78.3399776319845 3.0 8.97677516334248
vertex 78.3399776319845 0.0 8.97677516334248
endloop
endfacet
facet normal 0.13599105279381 0.0 0.990710065336994
outer loop
vertex 78.3399776319845 3.0 8.97677516334248
vertex 78.9694297578044 0.0 8.80438841011738
vertex 78.9694297578044 3.0 8.80438841011738
endloop
endfacet
facet normal 0.613126739075331 0.0 0.78998455796987
outer loop
vertex 79.5328168476883 0.0 8.47496139492467
vertex 78.9694297578044 3.0 8.80438841011738
vertex 78.9694297578044 0.0 8.80438841011738
endloop
endfacet
facet normal 0.387771903121759 0.0 0.921755364046952
outer loop
vertex 78.9694297578044 3.0 8.80438841011738
vertex 79.5328168476883 0.0 8.47496139492467
vertex 79.5328168476883 3.0 8.47496139492467
endloop
endfacet
facet normal 0.79669800100076 0.0 0.604377609778351
outer loop
vertex 79.9917450025019 3.0 8.01094402444588
vertex 79.5328168476883 0.0 8.47496139492467
vertex 79.9917450025019 0.0 8.01094402444588
endloop
endfacet
facet normal 0.613126739075331 0.0 0.78998455796987
outer loop
vertex 79.5328168476883 0.0 8.47496139492467
vertex 79.9917450025019 3.0 8.01094402444588
vertex 79.5328168476883 3.0 8.47496139492467
endloop
endfacet
facet normal 0.925975610763683 0.0 0.377583326261666
outer loop
vertex 80.3149390269092 3.0 7.44395831565416
vertex 79.9917450025019 0.0 8.01094402444588
vertex 80.3149390269092 0.0 7.44395831565416
endloop
endfacet
facet normal 0.79669800100076 0.0 0.604377609778351
outer loop
vertex 79.9917450025019 0.0 8.01094402444588
vertex 80.3149390269092 3.0 7.44395831565416
vertex 79.9917450025019 3.0 8.01094402444588
endloop
endfacet
facet normal 0.992149512900113 0.0 0.1250573630462
outer loop
vertex 80.4803737822503 3.0 6.81264340761548
vertex 80.3149390269092 0.0 7.44395831565416
vertex 80.4803737822503 0.0 6.81264340761548
endloop
endfacet
facet normal 0.925975610763683 0.0 0.377583326261666
outer loop
vertex 80.3149390269092 0.0 7.44395831565416
vertex 80.4803737822503 3.0 6.81264340761548
vertex 80.3149390269092 3.0 7.44395831565416
endloop
endfacet
facet normal 0.990710065336995 0.0 -0.135991052793807
outer loop
vertex 80.4767751633425 3.0 6.16002236801547
vertex 80.4803737822503 0.0 6.81264340761548
vertex 80.4767751633425 0.0 6.16002236801547
endloop
endfacet
facet normal 0.992149512900113 0.0 0.1250573630462
outer loop
vertex 80.4803737822503 0.0 6.81264340761548
vertex 80.4767751633425 3.0 6.16002236801547
vertex 80.4803737822503 3.0 6.81264340761548
endloop
endfacet
facet normal 0.92175536404695 0.0 -0.387771903121763
outer loop
vertex 80.3043884101174 3.0 5.5305702421956
vertex 80.4767751633425 0.0 6.16002236801547
vertex 80.3043884101174 0.0 5.5305702421956
endloop
endfacet
facet normal 0.990710065336995 0.0 -0.135991052793807
outer loop
vertex 80.4767751633425 0.0 6.16002236801547
vertex 80.3043884101174 3.0 5.5305702421956
vertex 80.4767751633425 3.0 6.16002236801547
endloop
endfacet
facet normal 0.789984557969869 0.0 -0.613126739075332
outer loop
vertex 79.9749613949247 3.0 4.96718315231168
vertex 80.3043884101174 0.0 5.5305702421956
vertex 79.9749613949247 0.0 4.96718315231168
endloop
endfacet
facet normal 0.92175536404695 0.0 -0.387771903121763
outer loop
vertex 80.3043884101174 0.0 5.5305702421956
vertex 79.9749613949247 3.0 4.96718315231168
vertex 80.3043884101174 3.0 5.5305702421956
endloop
endfacet
facet normal 0.789984557969869 0.0 -0.613126739075332
outer loop
vertex 79.9749613949247 3.0 4.96718315231168
vertex 79.5109440244459 0.0 4.5082549974981
vertex 79.5109440244459 3.0 4.5082549974981
endloop
endfacet
facet normal 0.604377609778354 0.0 -0.796698001000757
outer loop
vertex 79.5109440244459 0.0 4.5082549974981
vertex 79.9749613949247 3.0 4.96718315231168
vertex 79.9749613949247 0.0 4.96718315231168
endloop
endfacet
facet normal 0.604377609778354 0.0 -0.796698001000757
outer loop
vertex 79.5109440244459 3.0 4.5082549974981
vertex 78.9439583156542 0.0 4.18506097309079
vertex 78.9439583156542 3.0 4.18506097309079
endloop
endfacet
facet normal 0.377583326261665 0.0 -0.925975610763684
outer loop
vertex 78.9439583156542 0.0 4.18506097309079
vertex 79.5109440244459 3.0 4.5082549974981
vertex 79.5109440244459 0.0 4.5082549974981
endloop
endfacet
facet normal 0.377583326261665 0.0 -0.925975610763684
outer loop
vertex 78.9439583156542 3.0 4.18506097309079
vertex 78.3126434076155 0.0 4.01962621774972
vertex 78.3126434076155 3.0 4.01962621774972
endloop
endfacet
facet normal 0.125057363046192 0.0 -0.992149512900114
outer loop
vertex 78.3126434076155 0.0 4.01962621774972
vertex 78.9439583156542 3.0 4.18506097309079
vertex 78.9439583156542 0.0 4.18506097309079
endloop
endfacet
facet normal 0.125057363046192 0.0 -0.992149512900114
outer loop
vertex 78.3126434076155 3.0 4.01962621774972
vertex 77.6600223680155 0.0 4.02322483665752
vertex 77.6600223680155 3.0 4.02322483665752
endloop
endfacet
facet normal -0.135991052793812 0.0 -0.990710065336994
outer loop
vertex 77.6600223680155 0.0 4.02322483665752
vertex 78.3126434076155 3.0 4.01962621774972
vertex 78.3126434076155 0.0 4.01962621774972
endloop
endfacet
facet normal -0.135991052793812 0.0 -0.990710065336994
outer loop
vertex 77.6600223680155 3.0 4.02322483665752
vertex 77.0305702421956 0.0 4.19561158988262
vertex 77.0305702421956 3.0 4.19561158988262
endloop
endfacet
facet normal -0.387771903121759 0.0 -0.921755364046952
outer loop
vertex 77.0305702421956 0.0 4.19561158988262
vertex 77.6600223680155 3.0 4.02322483665752
vertex 77.6600223680155 0.0 4.02322483665752
endloop
endfacet
facet normal -0.387771903121759 0.0 -0.921755364046952
outer loop
vertex 77.0305702421956 3.0 4.19561158988262
vertex 76.4671831523117 0.0 4.52503860507532
vertex 76.4671831523117 3.0 4.52503860507532
endloop
endfacet
facet normal -0.613126739075331 0.0 -0.78998455796987
outer loop
vertex 76.4671831523117 0.0 4.52503860507532
vertex 77.0305702421956 3.0 4.19561158988262
vertex 77.0305702421956 0.0 4.19561158988262
endloop
endfacet
facet normal -0.79669800100076 0.0 -0.604377609778351
outer loop
vertex 76.0082549974981 3.0 4.98905597555412
vertex 76.4671831523117 0.0 4.52503860507532
vertex 76.0082549974981 0.0 4.98905597555412
endloop
endfacet
facet normal -0.613126739075331 0.0 -0.78998455796987
outer loop
vertex 76.4671831523117 0.0 4.52503860507532
vertex 76.0082549974981 3.0 4.98905597555412
vertex 76.4671831523117 3.0 4.52503860507532
endloop
endfacet
facet normal -0.925975610763683 0.0 -0.377583326261666
outer loop
vertex 75.6850609730908 3.0 5.55604168434584
vertex 76.0082549974981 0.0 4.98905597555412
vertex 75.6850609730908 0.0 5.55604168434584
endloop
endfacet
facet normal -0.79669800100076 0.0 -0.604377609778351
outer loop
vertex 76.0082549974981 0.0 4.98905597555412
vertex 75.6850609730908 3.0 5.55604168434584
vertex 76.0082549974981 3.0 4.98905597555412
endloop
endfacet
facet normal -0.992149512900113 0.0 -0.1250573630462
outer loop
vertex 75.5196262177497 3.0 6.18735659238452
vertex 75.6850609730908 0.0 5.55604168434584
vertex 75.5196262177497 0.0 6.18735659238452
endloop
endfacet
facet normal -0.925975610763683 0.0 -0.377583326261666
outer loop
vertex 75.6850609730908 0.0 5.55604168434584
vertex 75.5196262177497 3.0 6.18735659238452
vertex 75.6850609730908 3.0 5.55604168434584
endloop
endfacet
facet normal -0.990710065336994 0.0 0.135991052793815
outer loop
vertex 75.5232248366575 3.0 6.83997763198453
vertex 75.5196262177497 0.0 6.18735659238452
vertex 75.5232248366575 0.0 6.83997763198453
endloop
endfacet
facet normal -0.992149512900113 0.0 -0.1250573630462
outer loop
vertex 75.5196262177497 0.0 6.18735659238452
vertex 75.5232248366575 3.0 6.83997763198453
vertex 75.5196262177497 3.0 6.18735659238452
endloop
endfacet
facet normal -0.92175536404695 0.0 0.387771903121764
outer loop
vertex 75.6956115898826 3.0 7.4694297578044
vertex 75.5232248366575 0.0 6.83997763198453
vertex 75.6956115898826 0.0 7.4694297578044
endloop
endfacet
facet normal -0.990710065336994 0.0 0.135991052793815
outer loop
vertex 75.5232248366575 0.0 6.83997763198453
vertex 75.6956115898826 3.0 7.4694297578044
vertex 75.5232248366575 3.0 6.83997763198453
endloop
endfacet
facet normal -0.789984557969873 0.0 0.613126739075327
outer loop
vertex 76.0250386050753 3.0 8.03281684768832
vertex 75.6956115898826 0.0 7.4694297578044
vertex 76.0250386050753 0.0 8.03281684768832
endloop
endfacet
facet normal -0.92175536404695 0.0 0.387771903121764
outer loop
vertex 75.6956115898826 0.0 7.4694297578044
vertex 76.0250386050753 3.0 8.03281684768832
vertex 75.6956115898826 3.0 7.4694297578044
endloop
endfacet
facet normal -0.707106781186541 0.707106781186554 7.23130439447874e-032
outer loop
vertex 108.394572673649 22.8039023207467 3.0
vertex 108.108519152973 22.4311101146109 5.63993296509579e-015
vertex 108.108519152973 22.4311101146109 3.0
endloop
endfacet
facet normal -0.866025403784438 0.500000000000001 5.11330437415996e-032
outer loop
vertex 108.108519152973 22.4311101146109 5.63993296509579e-015
vertex 108.394572673649 22.8039023207467 3.0
vertex 108.394572673649 22.8039023207467 5.63993296509579e-015
endloop
endfacet
facet normal -0.707106781186541 0.707106781186554 7.23130439447874e-032
outer loop
vertex 108.394572673649 22.8039023207467 3.0
vertex 108.767364879785 23.0899558414229 5.63993296509579e-015
vertex 108.394572673649 22.8039023207467 5.63993296509579e-015
endloop
endfacet
facet normal -0.500000000000002 0.866025403784437 8.85650297060921e-032
outer loop
vertex 108.767364879785 23.0899558414229 5.63993296509579e-015
vertex 108.394572673649 22.8039023207467 3.0
vertex 108.767364879785 23.0899558414229 3.0
endloop
endfacet
facet normal -0.500000000000002 0.866025403784437 8.85650297060921e-032
outer loop
vertex 108.767364879785 23.0899558414229 3.0
vertex 109.2014905986 23.2697766019312 5.63993296509579e-015
vertex 108.767364879785 23.0899558414229 5.63993296509579e-015
endloop
endfacet
facet normal -0.258819045102521 0.965925826289068 9.87814550535592e-032
outer loop
vertex 109.2014905986 23.2697766019312 5.63993296509579e-015
vertex 108.767364879785 23.0899558414229 3.0
vertex 109.2014905986 23.2697766019312 3.0
endloop
endfacet
facet normal -0.258819045102521 0.965925826289068 9.87814550535592e-032
outer loop
vertex 109.2014905986 23.2697766019312 3.0
vertex 109.667364879785 23.3311101146109 5.63993296509579e-015
vertex 109.2014905986 23.2697766019312 5.63993296509579e-015
endloop
endfacet
facet normal 0.0 1.0 1.02266087483199e-031
outer loop
vertex 109.667364879785 23.3311101146109 5.63993296509579e-015
vertex 109.2014905986 23.2697766019312 3.0
vertex 109.667364879785 23.3311101146109 3.0
endloop
endfacet
facet normal 0.0 1.0 1.02266087483199e-031
outer loop
vertex 109.667364879785 23.3311101146109 3.0
vertex 110.133239160969 23.2697766019312 5.63993296509579e-015
vertex 109.667364879785 23.3311101146109 5.63993296509579e-015
endloop
endfacet
facet normal 0.258819045102521 0.965925826289068 9.87814550535592e-032
outer loop
vertex 110.133239160969 23.2697766019312 5.63993296509579e-015
vertex 109.667364879785 23.3311101146109 3.0
vertex 110.133239160969 23.2697766019312 3.0
endloop
endfacet
facet normal 0.258819045102521 0.965925826289068 9.87814550535592e-032
outer loop
vertex 110.133239160969 23.2697766019312 3.0
vertex 110.567364879785 23.0899558414229 5.63993296509579e-015
vertex 110.133239160969 23.2697766019312 5.63993296509579e-015
endloop
endfacet
facet normal 0.500000000000002 0.866025403784437 8.85650297060921e-032
outer loop
vertex 110.567364879785 23.0899558414229 5.63993296509579e-015
vertex 110.133239160969 23.2697766019312 3.0
vertex 110.567364879785 23.0899558414229 3.0
endloop
endfacet
facet normal 0.500000000000002 0.866025403784437 8.85650297060921e-032
outer loop
vertex 110.567364879785 23.0899558414229 3.0
vertex 110.94015708592 22.8039023207467 5.63993296509579e-015
vertex 110.567364879785 23.0899558414229 5.63993296509579e-015
endloop
endfacet
facet normal 0.707106781186543 0.707106781186552 7.23130439447873e-032
outer loop
vertex 110.94015708592 22.8039023207467 5.63993296509579e-015
vertex 110.567364879785 23.0899558414229 3.0
vertex 110.94015708592 22.8039023207467 3.0
endloop
endfacet
facet normal 0.707106781186543 0.707106781186552 7.23130439447873e-032
outer loop
vertex 110.94015708592 22.8039023207467 5.63993296509579e-015
vertex 111.226210606597 22.4311101146109 3.0
vertex 111.226210606597 22.4311101146109 5.63993296509579e-015
endloop
endfacet
facet normal 0.866025403784439 0.5 5.11330437415996e-032
outer loop
vertex 111.226210606597 22.4311101146109 3.0
vertex 110.94015708592 22.8039023207467 5.63993296509579e-015
vertex 110.94015708592 22.8039023207467 3.0
endloop
endfacet
facet normal 0.866025403784439 0.5 5.11330437415996e-032
outer loop
vertex 111.226210606597 22.4311101146109 5.63993296509579e-015
vertex 111.406031367105 21.9969843957954 3.0
vertex 111.406031367105 21.9969843957954 5.63993296509579e-015
endloop
endfacet
facet normal 0.965925826289072 0.258819045102509 2.64684111087713e-032
outer loop
vertex 111.406031367105 21.9969843957954 3.0
vertex 111.226210606597 22.4311101146109 5.63993296509579e-015
vertex 111.226210606597 22.4311101146109 3.0
endloop
endfacet
facet normal 0.965925826289072 0.258819045102509 2.64684111087713e-032
outer loop
vertex 111.406031367105 21.9969843957954 5.63993296509579e-015
vertex 111.467364879785 21.5311101146109 3.0
vertex 111.467364879785 21.5311101146109 5.63993296509579e-015
endloop
endfacet
facet normal 1.0 3.7426661561717e-016 9.6657360508554e-047
outer loop
vertex 111.467364879785 21.5311101146109 3.0
vertex 111.406031367105 21.9969843957954 5.63993296509579e-015
vertex 111.406031367105 21.9969843957954 3.0
endloop
endfacet
facet normal 1.0 3.7426661561717e-016 9.6657360508554e-047
outer loop
vertex 111.467364879785 21.5311101146109 5.63993296509579e-015
vertex 111.406031367105 21.0652358334264 3.0
vertex 111.406031367105 21.0652358334264 5.63993296509579e-015
endloop
endfacet
facet normal 0.965925826289072 -0.258819045102509 -2.64684111087712e-032
outer loop
vertex 111.406031367105 21.0652358334264 3.0
vertex 111.467364879785 21.5311101146109 5.63993296509579e-015
vertex 111.467364879785 21.5311101146109 3.0
endloop
endfacet
facet normal 0.965925826289072 -0.258819045102509 -2.64684111087712e-032
outer loop
vertex 111.406031367105 21.0652358334264 5.63993296509579e-015
vertex 111.226210606597 20.6311101146109 3.0
vertex 111.226210606597 20.6311101146109 5.63993296509579e-015
endloop
endfacet
facet normal 0.866025403784439 -0.5 -5.11330437415995e-032
outer loop
vertex 111.226210606597 20.6311101146109 3.0
vertex 111.406031367105 21.0652358334264 5.63993296509579e-015
vertex 111.406031367105 21.0652358334264 3.0
endloop
endfacet
facet normal 0.866025403784439 -0.5 -5.11330437415995e-032
outer loop
vertex 111.226210606597 20.6311101146109 5.63993296509579e-015
vertex 110.94015708592 20.2583179084751 3.0
vertex 110.94015708592 20.2583179084751 5.63993296509579e-015
endloop
endfacet
facet normal 0.707106781186541 -0.707106781186554 -7.23130439447874e-032
outer loop
vertex 110.94015708592 20.2583179084751 3.0
vertex 111.226210606597 20.6311101146109 5.63993296509579e-015
vertex 111.226210606597 20.6311101146109 3.0
endloop
endfacet
facet normal 0.707106781186541 -0.707106781186554 -7.23130439447874e-032
outer loop
vertex 110.94015708592 20.2583179084751 3.0
vertex 110.567364879785 19.9722643877989 5.63993296509579e-015
vertex 110.94015708592 20.2583179084751 5.63993296509579e-015
endloop
endfacet
facet normal 0.5 -0.866025403784439 -8.85650297060922e-032
outer loop
vertex 110.567364879785 19.9722643877989 5.63993296509579e-015
vertex 110.94015708592 20.2583179084751 3.0
vertex 110.567364879785 19.9722643877989 3.0
endloop
endfacet
facet normal 0.5 -0.866025403784439 -8.85650297060922e-032
outer loop
vertex 110.567364879785 19.9722643877989 3.0
vertex 110.133239160969 19.7924436272906 5.63993296509579e-015
vertex 110.567364879785 19.9722643877989 5.63993296509579e-015
endloop
endfacet
facet normal 0.258819045102521 -0.965925826289068 -9.87814550535592e-032
outer loop
vertex 110.133239160969 19.7924436272906 5.63993296509579e-015
vertex 110.567364879785 19.9722643877989 3.0
vertex 110.133239160969 19.7924436272906 3.0
endloop
endfacet
facet normal 0.258819045102521 -0.965925826289068 -9.87814550535592e-032
outer loop
vertex 110.133239160969 19.7924436272906 3.0
vertex 109.667364879785 19.7311101146109 5.63993296509579e-015
vertex 110.133239160969 19.7924436272906 5.63993296509579e-015
endloop
endfacet
facet normal 0.0 -1.0 -1.02266087483199e-031
outer loop
vertex 109.667364879785 19.7311101146109 5.63993296509579e-015
vertex 110.133239160969 19.7924436272906 3.0
vertex 109.667364879785 19.7311101146109 3.0
endloop
endfacet
facet normal 0.0 -1.0 -1.02266087483199e-031
outer loop
vertex 109.667364879785 19.7311101146109 3.0
vertex 109.2014905986 19.7924436272906 5.63993296509579e-015
vertex 109.667364879785 19.7311101146109 5.63993296509579e-015
endloop
endfacet
facet normal -0.258819045102521 -0.965925826289068 -9.87814550535592e-032
outer loop
vertex 109.2014905986 19.7924436272906 5.63993296509579e-015
vertex 109.667364879785 19.7311101146109 3.0
vertex 109.2014905986 19.7924436272906 3.0
endloop
endfacet
facet normal -0.258819045102521 -0.965925826289068 -9.87814550535592e-032
outer loop
vertex 109.2014905986 19.7924436272906 3.0
vertex 108.767364879785 19.9722643877989 5.63993296509579e-015
vertex 109.2014905986 19.7924436272906 5.63993296509579e-015
endloop
endfacet
facet normal -0.500000000000002 -0.866025403784437 -8.85650297060921e-032
outer loop
vertex 108.767364879785 19.9722643877989 5.63993296509579e-015
vertex 109.2014905986 19.7924436272906 3.0
vertex 108.767364879785 19.9722643877989 3.0
endloop
endfacet
facet normal -0.500000000000002 -0.866025403784437 -8.85650297060921e-032
outer loop
vertex 108.767364879785 19.9722643877989 3.0
vertex 108.394572673649 20.2583179084751 5.63993296509579e-015
vertex 108.767364879785 19.9722643877989 5.63993296509579e-015
endloop
endfacet
facet normal -0.707106781186543 -0.707106781186552 -7.23130439447873e-032
outer loop
vertex 108.394572673649 20.2583179084751 5.63993296509579e-015
vertex 108.767364879785 19.9722643877989 3.0
vertex 108.394572673649 20.2583179084751 3.0
endloop
endfacet
facet normal -0.866025403784439 -0.5 -5.11330437415996e-032
outer loop
vertex 108.108519152973 20.6311101146109 3.0
vertex 108.394572673649 20.2583179084751 5.63993296509579e-015
vertex 108.394572673649 20.2583179084751 3.0
endloop
endfacet
facet normal -0.707106781186543 -0.707106781186552 -7.23130439447873e-032
outer loop
vertex 108.394572673649 20.2583179084751 5.63993296509579e-015
vertex 108.108519152973 20.6311101146109 3.0
vertex 108.108519152973 20.6311101146109 5.63993296509579e-015
endloop
endfacet
facet normal -0.965925826289072 -0.258819045102509 -2.64684111087713e-032
outer loop
vertex 107.928698392464 21.0652358334264 3.0
vertex 108.108519152973 20.6311101146109 5.63993296509579e-015
vertex 108.108519152973 20.6311101146109 3.0
endloop
endfacet
facet normal -0.866025403784439 -0.5 -5.11330437415996e-032
outer loop
vertex 108.108519152973 20.6311101146109 5.63993296509579e-015
vertex 107.928698392464 21.0652358334264 3.0
vertex 107.928698392464 21.0652358334264 5.63993296509579e-015
endloop
endfacet
facet normal -1.0 -3.7426661561717e-016 -9.6657360508554e-047
outer loop
vertex 107.867364879785 21.5311101146109 3.0
vertex 107.928698392464 21.0652358334264 5.63993296509579e-015
vertex 107.928698392464 21.0652358334264 3.0
endloop
endfacet
facet normal -0.965925826289072 -0.258819045102509 -2.64684111087713e-032
outer loop
vertex 107.928698392464 21.0652358334264 5.63993296509579e-015
vertex 107.867364879785 21.5311101146109 3.0
vertex 107.867364879785 21.5311101146109 5.63993296509579e-015
endloop
endfacet
facet normal -0.965925826289072 0.258819045102509 2.64684111087712e-032
outer loop
vertex 107.928698392464 21.9969843957954 3.0
vertex 107.867364879785 21.5311101146109 5.63993296509579e-015
vertex 107.867364879785 21.5311101146109 3.0
endloop
endfacet
facet normal -1.0 -3.7426661561717e-016 -9.6657360508554e-047
outer loop
vertex 107.867364879785 21.5311101146109 5.63993296509579e-015
vertex 107.928698392464 21.9969843957954 3.0
vertex 107.928698392464 21.9969843957954 5.63993296509579e-015
endloop
endfacet
facet normal -0.866025403784438 0.500000000000001 5.11330437415996e-032
outer loop
vertex 108.108519152973 22.4311101146109 3.0
vertex 107.928698392464 21.9969843957954 5.63993296509579e-015
vertex 107.928698392464 21.9969843957954 3.0
endloop
endfacet
facet normal -0.965925826289072 0.258819045102509 2.64684111087712e-032
outer loop
vertex 107.928698392464 21.9969843957954 5.63993296509579e-015
vertex 108.108519152973 22.4311101146109 3.0
vertex 108.108519152973 22.4311101146109 5.63993296509579e-015
endloop
endfacet
facet normal 0.366551792122218 -0.930397648154804 4.75740636401808e-032
outer loop
vertex 90.335770477258 8.61734943061883 3.0
vertex 89.8798402327182 8.50364693389723 5.63993296509579e-015
vertex 90.335770477258 8.61734943061883 5.63993296509579e-015
endloop
endfacet
facet normal 0.113257211822332 -0.993565701889025 5.08040384948445e-032
outer loop
vertex 89.8798402327182 8.50364693389723 5.63993296509579e-015
vertex 90.335770477258 8.61734943061883 3.0
vertex 89.8798402327182 8.50364693389723 3.0
endloop
endfacet
facet normal 0.113257211822332 -0.993565701889025 5.08040384948445e-032
outer loop
vertex 89.8798402327182 8.50364693389723 3.0
vertex 89.4100170629037 8.51182218632544 5.63993296509579e-015
vertex 89.8798402327182 8.50364693389723 5.63993296509579e-015
endloop
endfacet
facet normal -0.14775566029685 -0.989023894984465 5.05718020837277e-032
outer loop
vertex 89.4100170629037 8.51182218632544 5.63993296509579e-015
vertex 89.8798402327182 8.50364693389723 3.0
vertex 89.4100170629037 8.51182218632544 3.0
endloop
endfacet
facet normal -0.14775566029685 -0.989023894984465 5.05718020837277e-032
outer loop
vertex 89.4100170629037 8.51182218632544 3.0
vertex 88.9583186404178 8.64131805796072 5.63993296509579e-015
vertex 89.4100170629037 8.51182218632544 5.63993296509579e-015
endloop
endfacet
facet normal -0.398699228344578 -0.917081744075978 4.68931809344593e-032
outer loop
vertex 88.9583186404178 8.64131805796072 5.63993296509579e-015
vertex 89.4100170629037 8.51182218632544 3.0
vertex 88.9583186404178 8.64131805796072 3.0
endloop
endfacet
facet normal -0.398699228344578 -0.917081744075978 4.68931809344593e-032
outer loop
vertex 88.9583186404178 8.64131805796072 3.0
vertex 88.555527466286 8.88330961915316 5.63993296509579e-015
vertex 88.9583186404178 8.64131805796072 5.63993296509579e-015
endloop
endfacet
facet normal -0.622472102862251 -0.782641987857953 4.00188669991531e-032
outer loop
vertex 88.555527466286 8.88330961915316 5.63993296509579e-015
vertex 88.9583186404178 8.64131805796072 3.0
vertex 88.555527466286 8.88330961915316 3.0
endloop
endfacet
facet normal -0.803824532253646 -0.594866473544448 3.04173334121593e-032
outer loop
vertex 88.2290930933815 9.22130554491747 3.0
vertex 88.555527466286 8.88330961915316 5.63993296509579e-015
vertex 88.555527466286 8.88330961915316 3.0
endloop
endfacet
facet normal -0.622472102862251 -0.782641987857953 4.00188669991531e-032
outer loop
vertex 88.555527466286 8.88330961915316 5.63993296509579e-015
vertex 88.2290930933815 9.22130554491747 3.0
vertex 88.2290930933815 9.22130554491747 5.63993296509579e-015
endloop
endfacet
facet normal -0.930397648154802 -0.366551792122224 1.87429088201474e-032
outer loop
vertex 88.0012614847594 9.63227197147749 3.0
vertex 88.2290930933815 9.22130554491747 5.63993296509579e-015
vertex 88.2290930933815 9.22130554491747 3.0
endloop
endfacet
facet normal -0.803824532253646 -0.594866473544448 3.04173334121593e-032
outer loop
vertex 88.2290930933815 9.22130554491747 5.63993296509579e-015
vertex 88.0012614847594 9.63227197147749 3.0
vertex 88.0012614847594 9.63227197147749 5.63993296509579e-015
endloop
endfacet
facet normal -0.993565701889025 -0.113257211822331 5.79118596616285e-033
outer loop
vertex 87.8875589880378 10.0882022160173 3.0
vertex 88.0012614847594 9.63227197147749 5.63993296509579e-015
vertex 88.0012614847594 9.63227197147749 3.0
endloop
endfacet
facet normal -0.930397648154802 -0.366551792122224 1.87429088201474e-032
outer loop
vertex 88.0012614847594 9.63227197147749 5.63993296509579e-015
vertex 87.8875589880378 10.0882022160173 3.0
vertex 87.8875589880378 10.0882022160173 5.63993296509579e-015
endloop
endfacet
facet normal -0.989023894984464 0.147755660296856 -7.55519664102803e-033
outer loop
vertex 87.895734240466 10.5580253858318 3.0
vertex 87.8875589880378 10.0882022160173 5.63993296509579e-015
vertex 87.8875589880378 10.0882022160173 3.0
endloop
endfacet
facet normal -0.993565701889025 -0.113257211822331 5.79118596616285e-033
outer loop
vertex 87.8875589880378 10.0882022160173 5.63993296509579e-015
vertex 87.895734240466 10.5580253858318 3.0
vertex 87.895734240466 10.5580253858318 5.63993296509579e-015
endloop
endfacet
facet normal -0.91708174407598 0.398699228344575 -2.0386705082685e-032
outer loop
vertex 88.0252301121013 11.0097238083177 3.0
vertex 87.895734240466 10.5580253858318 5.63993296509579e-015
vertex 87.895734240466 10.5580253858318 3.0
endloop
endfacet
facet normal -0.989023894984464 0.147755660296856 -7.55519664102803e-033
outer loop
vertex 87.895734240466 10.5580253858318 5.63993296509579e-015
vertex 88.0252301121013 11.0097238083177 3.0
vertex 88.0252301121013 11.0097238083177 5.63993296509579e-015
endloop
endfacet
facet normal -0.782641987857952 0.622472102862252 -3.18288932635808e-032
outer loop
vertex 88.2672216732937 11.4125149824495 3.0
vertex 88.0252301121013 11.0097238083177 5.63993296509579e-015
vertex 88.0252301121013 11.0097238083177 3.0
endloop
endfacet
facet normal -0.91708174407598 0.398699228344575 -2.0386705082685e-032
outer loop
vertex 88.0252301121013 11.0097238083177 5.63993296509579e-015
vertex 88.2672216732937 11.4125149824495 3.0
vertex 88.2672216732937 11.4125149824495 5.63993296509579e-015
endloop
endfacet
facet normal -0.782641987857952 0.622472102862252 -3.18288932635808e-032
outer loop
vertex 88.2672216732937 11.4125149824495 3.0
vertex 88.605217599058 11.738949355354 5.63993296509579e-015
vertex 88.2672216732937 11.4125149824495 5.63993296509579e-015
endloop
endfacet
facet normal -0.594866473544447 0.803824532253646 -4.11019949682964e-032
outer loop
vertex 88.605217599058 11.738949355354 5.63993296509579e-015
vertex 88.2672216732937 11.4125149824495 3.0
vertex 88.605217599058 11.738949355354 3.0
endloop
endfacet
facet normal -0.594866473544447 0.803824532253646 -4.11019949682964e-032
outer loop
vertex 88.605217599058 11.738949355354 3.0
vertex 89.016184025618 11.9667809639761 5.63993296509579e-015
vertex 88.605217599058 11.738949355354 5.63993296509579e-015
endloop
endfacet
facet normal -0.366551792122217 0.930397648154804 -4.75740636401808e-032
outer loop
vertex 89.016184025618 11.9667809639761 5.63993296509579e-015
vertex 88.605217599058 11.738949355354 3.0
vertex 89.016184025618 11.9667809639761 3.0
endloop
endfacet
facet normal -0.366551792122217 0.930397648154804 -4.75740636401808e-032
outer loop
vertex 89.016184025618 11.9667809639761 3.0
vertex 89.4721142701578 12.0804834606977 5.63993296509579e-015
vertex 89.016184025618 11.9667809639761 5.63993296509579e-015
endloop
endfacet
facet normal -0.113257211822332 0.993565701889025 -5.08040384948445e-032
outer loop
vertex 89.4721142701578 12.0804834606977 5.63993296509579e-015
vertex 89.016184025618 11.9667809639761 3.0
vertex 89.4721142701578 12.0804834606977 3.0
endloop
endfacet
facet normal -0.113257211822332 0.993565701889025 -5.08040384948445e-032
outer loop
vertex 89.4721142701578 12.0804834606977 3.0
vertex 89.9419374399724 12.0723082082695 5.63993296509579e-015
vertex 89.4721142701578 12.0804834606977 5.63993296509579e-015
endloop
endfacet
facet normal 0.14775566029685 0.989023894984465 -5.05718020837277e-032
outer loop
vertex 89.9419374399724 12.0723082082695 5.63993296509579e-015
vertex 89.4721142701578 12.0804834606977 3.0
vertex 89.9419374399724 12.0723082082695 3.0
endloop
endfacet
facet normal 0.14775566029685 0.989023894984465 -5.05718020837277e-032
outer loop
vertex 89.9419374399724 12.0723082082695 3.0
vertex 90.3936358624583 11.9428123366342 5.63993296509579e-015
vertex 89.9419374399724 12.0723082082695 5.63993296509579e-015
endloop
endfacet
facet normal 0.398699228344578 0.917081744075978 -4.68931809344593e-032
outer loop
vertex 90.3936358624583 11.9428123366342 5.63993296509579e-015
vertex 89.9419374399724 12.0723082082695 3.0
vertex 90.3936358624583 11.9428123366342 3.0
endloop
endfacet
facet normal 0.398699228344578 0.917081744075978 -4.68931809344593e-032
outer loop
vertex 90.3936358624583 11.9428123366342 3.0
vertex 90.7964270365901 11.7008207754418 5.63993296509579e-015
vertex 90.3936358624583 11.9428123366342 5.63993296509579e-015
endloop
endfacet
facet normal 0.622472102862251 0.782641987857953 -4.00188669991531e-032
outer loop
vertex 90.7964270365901 11.7008207754418 5.63993296509579e-015
vertex 90.3936358624583 11.9428123366342 3.0
vertex 90.7964270365901 11.7008207754418 3.0
endloop
endfacet
facet normal 0.622472102862251 0.782641987857953 -4.00188669991531e-032
outer loop
vertex 90.7964270365901 11.7008207754418 5.63993296509579e-015
vertex 91.1228614094946 11.3628248496775 3.0
vertex 91.1228614094946 11.3628248496775 5.63993296509579e-015
endloop
endfacet
facet normal 0.803824532253646 0.594866473544448 -3.04173334121593e-032
outer loop
vertex 91.1228614094946 11.3628248496775 3.0
vertex 90.7964270365901 11.7008207754418 5.63993296509579e-015
vertex 90.7964270365901 11.7008207754418 3.0
endloop
endfacet
facet normal 0.803824532253646 0.594866473544448 -3.04173334121593e-032
outer loop
vertex 91.1228614094946 11.3628248496775 5.63993296509579e-015
vertex 91.3506930181167 10.9518584231175 3.0
vertex 91.3506930181167 10.9518584231175 5.63993296509579e-015
endloop
endfacet
facet normal 0.930397648154802 0.366551792122223 -1.87429088201473e-032
outer loop
vertex 91.3506930181167 10.9518584231175 3.0
vertex 91.1228614094946 11.3628248496775 5.63993296509579e-015
vertex 91.1228614094946 11.3628248496775 3.0
endloop
endfacet
facet normal 0.930397648154802 0.366551792122223 -1.87429088201473e-032
outer loop
vertex 91.3506930181167 10.9518584231175 5.63993296509579e-015
vertex 91.4643955148383 10.4959281785777 3.0
vertex 91.4643955148383 10.4959281785777 5.63993296509579e-015
endloop
endfacet
facet normal 0.993565701889026 0.11325721182233 -5.79118596616283e-033
outer loop
vertex 91.4643955148383 10.4959281785777 3.0
vertex 91.3506930181167 10.9518584231175 5.63993296509579e-015
vertex 91.3506930181167 10.9518584231175 3.0
endloop
endfacet
facet normal 0.993565701889026 0.11325721182233 -5.79118596616283e-033
outer loop
vertex 91.4643955148383 10.4959281785777 5.63993296509579e-015
vertex 91.4562202624101 10.0261050087631 3.0
vertex 91.4562202624101 10.0261050087631 5.63993296509579e-015
endloop
endfacet
facet normal 0.989023894984464 -0.147755660296857 7.55519664102803e-033
outer loop
vertex 91.4562202624101 10.0261050087631 3.0
vertex 91.4643955148383 10.4959281785777 5.63993296509579e-015
vertex 91.4643955148383 10.4959281785777 3.0
endloop
endfacet
facet normal 0.989023894984464 -0.147755660296857 7.55519664102803e-033
outer loop
vertex 91.4562202624101 10.0261050087631 5.63993296509579e-015
vertex 91.3267243907748 9.57440658627724 3.0
vertex 91.3267243907748 9.57440658627724 5.63993296509579e-015
endloop
endfacet
facet normal 0.91708174407598 -0.398699228344575 2.0386705082685e-032
outer loop
vertex 91.3267243907748 9.57440658627724 3.0
vertex 91.4562202624101 10.0261050087631 5.63993296509579e-015
vertex 91.4562202624101 10.0261050087631 3.0
endloop
endfacet
facet normal 0.91708174407598 -0.398699228344575 2.0386705082685e-032
outer loop
vertex 91.3267243907748 9.57440658627724 5.63993296509579e-015
vertex 91.0847328295824 9.17161541214543 3.0
vertex 91.0847328295824 9.17161541214543 5.63993296509579e-015
endloop
endfacet
facet normal 0.782641987857951 -0.622472102862252 3.18288932635809e-032
outer loop
vertex 91.0847328295824 9.17161541214543 3.0
vertex 91.3267243907748 9.57440658627724 5.63993296509579e-015
vertex 91.3267243907748 9.57440658627724 3.0
endloop
endfacet
facet normal 0.782641987857951 -0.622472102862252 3.18288932635809e-032
outer loop
vertex 91.0847328295824 9.17161541214543 3.0
vertex 90.746736903818 8.84518103924092 5.63993296509579e-015
vertex 91.0847328295824 9.17161541214543 5.63993296509579e-015
endloop
endfacet
facet normal 0.594866473544448 -0.803824532253646 4.11019949682964e-032
outer loop
vertex 90.746736903818 8.84518103924092 5.63993296509579e-015
vertex 91.0847328295824 9.17161541214543 3.0
vertex 90.746736903818 8.84518103924092 3.0
endloop
endfacet
facet normal 0.594866473544448 -0.803824532253646 4.11019949682964e-032
outer loop
vertex 90.746736903818 8.84518103924092 3.0
vertex 90.335770477258 8.61734943061883 5.63993296509579e-015
vertex 90.746736903818 8.84518103924092 5.63993296509579e-015
endloop
endfacet
facet normal 0.366551792122218 -0.930397648154804 4.75740636401808e-032
outer loop
vertex 90.335770477258 8.61734943061883 5.63993296509579e-015
vertex 90.746736903818 8.84518103924092 3.0
vertex 90.335770477258 8.61734943061883 3.0
endloop
endfacet
endsolid Kossel Mini Print Cooling Fan Bracket 80mm
