solid slider-photo
facet normal -2.18128595494111e-019 -1.0 -4.27395716796278e-018
  outer loop
    vertex -6.99999999999999 0.0 20.0
    vertex -6.9517541003614e-047 0.0 0.0
    vertex 5.55111512312578e-015 0.0 20.0
  endloop
endfacet
facet normal -2.18128595494111e-019 -1.0 -4.27395716796278e-018
  outer loop
    vertex -6.9517541003614e-047 0.0 0.0
    vertex -6.99999999999999 0.0 20.0
    vertex -7.0 0.0 1.94289029309402e-015
  endloop
endfacet
facet normal 0.0 1.0 0.0
  outer loop
    vertex -7.0 100.0 5.32907051820075e-016
    vertex 5.55111512312578e-015 100.0 20.0
    vertex -6.9517541003614e-047 100.0 0.0
  endloop
endfacet
facet normal 0.0 1.0 0.0
  outer loop
    vertex 5.55111512312578e-015 100.0 20.0
    vertex -7.0 100.0 5.32907051820075e-016
    vertex -6.99999999999999 100.0 20.0
  endloop
endfacet
facet normal 1.0 0.0 -2.77555756156289e-016
  outer loop
    vertex 5.55111512312578e-015 13.125 20.0
    vertex -1.95674482349743e-031 11.25 -7.04991620636974e-016
    vertex -2.93511723524615e-031 13.125 -1.05748743095546e-015
  endloop
endfacet
facet normal 1.0 0.0 -2.77555756156289e-016
  outer loop
    vertex -1.95674482349743e-031 11.25 -7.04991620636974e-016
    vertex 5.55111512312578e-015 13.125 20.0
    vertex 5.55111512312578e-015 11.25 20.0
  endloop
endfacet
facet normal 0.0 -1.0 0.0
  outer loop
    vertex -0.999999999999994 15.0 20.0
    vertex -3.91348964699486e-031 15.0 -1.40998324127395e-015
    vertex 5.55111512312578e-015 15.0 20.0
  endloop
endfacet
facet normal 0.0 -1.0 0.0
  outer loop
    vertex -3.91348964699486e-031 15.0 -1.40998324127395e-015
    vertex -0.999999999999994 15.0 20.0
    vertex -1.0 15.0 -1.13242748511766e-015
  endloop
endfacet
facet normal 0.0 -1.0 0.0
  outer loop
    vertex -0.999999999999994 11.25 20.0
    vertex -1.95674482349743e-031 11.25 -7.04991620636974e-016
    vertex 5.55111512312578e-015 11.25 20.0
  endloop
endfacet
facet normal 0.0 -1.0 0.0
  outer loop
    vertex -1.95674482349743e-031 11.25 -7.04991620636974e-016
    vertex -0.999999999999994 11.25 20.0
    vertex -1.0 11.25 -4.27435864480685e-016
  endloop
endfacet
facet normal 0.0 1.0 0.0
  outer loop
    vertex -1.0 13.125 -7.79931674799172e-016
    vertex 5.55111512312578e-015 13.125 20.0
    vertex -2.93511723524615e-031 13.125 -1.05748743095546e-015
  endloop
endfacet
facet normal 0.0 1.0 0.0
  outer loop
    vertex 5.55111512312578e-015 13.125 20.0
    vertex -1.0 13.125 -7.79931674799172e-016
    vertex -0.999999999999994 13.125 20.0
  endloop
endfacet
facet normal 0.0 -1.0 0.0
  outer loop
    vertex -0.999999999999994 7.5 20.0
    vertex -6.9517541003614e-047 7.5 0.0
    vertex 5.55111512312578e-015 7.5 20.0
  endloop
endfacet
facet normal 0.0 -1.0 0.0
  outer loop
    vertex -6.9517541003614e-047 7.5 0.0
    vertex -0.999999999999994 7.5 20.0
    vertex -1.0 7.5 2.77555756156289e-016
  endloop
endfacet
facet normal 0.0 1.0 0.0
  outer loop
    vertex -1.0 5.625 2.77555756156289e-016
    vertex 5.55111512312578e-015 5.625 20.0
    vertex -6.9517541003614e-047 5.625 0.0
  endloop
endfacet
facet normal 0.0 1.0 0.0
  outer loop
    vertex 5.55111512312578e-015 5.625 20.0
    vertex -1.0 5.625 2.77555756156289e-016
    vertex -0.999999999999994 5.625 20.0
  endloop
endfacet
facet normal 1.0 0.0 -2.77555756156289e-016
  outer loop
    vertex -0.999999999999994 7.5 20.0
    vertex -1.0 5.625 2.77555756156289e-016
    vertex -1.0 7.5 2.77555756156289e-016
  endloop
endfacet
facet normal 1.0 0.0 -2.77555756156289e-016
  outer loop
    vertex -1.0 5.625 2.77555756156289e-016
    vertex -0.999999999999994 7.5 20.0
    vertex -0.999999999999994 5.625 20.0
  endloop
endfacet
facet normal 0.0 1.0 0.0
  outer loop
    vertex -1.0 9.375 -7.49400541621981e-017
    vertex 5.55111512312578e-015 9.375 20.0
    vertex -9.78372411748716e-032 9.375 -3.52495810318487e-016
  endloop
endfacet
facet normal 0.0 1.0 0.0
  outer loop
    vertex 5.55111512312578e-015 9.375 20.0
    vertex -1.0 9.375 -7.49400541621981e-017
    vertex -0.999999999999994 9.375 20.0
  endloop
endfacet
facet normal 1.0 0.0 -2.77555756156289e-016
  outer loop
    vertex -0.999999999999994 11.25 20.0
    vertex -1.0 9.375 -7.49400541621981e-017
    vertex -1.0 11.25 -4.27435864480685e-016
  endloop
endfacet
facet normal 1.0 0.0 -2.77555756156289e-016
  outer loop
    vertex -1.0 9.375 -7.49400541621981e-017
    vertex -0.999999999999994 11.25 20.0
    vertex -0.999999999999994 9.375 20.0
  endloop
endfacet
facet normal 1.0 0.0 -2.77555756156289e-016
  outer loop
    vertex -0.999999999999994 15.0 20.0
    vertex -1.0 13.125 -7.79931674799172e-016
    vertex -1.0 15.0 -1.13242748511766e-015
  endloop
endfacet
facet normal 1.0 0.0 -2.77555756156289e-016
  outer loop
    vertex -1.0 13.125 -7.79931674799172e-016
    vertex -0.999999999999994 15.0 20.0
    vertex -0.999999999999994 13.125 20.0
  endloop
endfacet
facet normal 2.77555756156289e-016 0.0 1.0
  outer loop
    vertex 5.55111512312578e-015 1.875 20.0
    vertex -6.99999999999999 0.0 20.0
    vertex 5.55111512312578e-015 0.0 20.0
  endloop
endfacet
facet normal 2.77555756156289e-016 0.0 1.0
  outer loop
    vertex -6.99999999999999 0.0 20.0
    vertex 5.55111512312578e-015 1.875 20.0
    vertex -0.999999999999994 1.875 20.0
  endloop
endfacet
facet normal 2.77555756156289e-016 0.0 1.0
  outer loop
    vertex -6.99999999999999 0.0 20.0
    vertex -0.999999999999994 1.875 20.0
    vertex -5.60935374827491 2.0 20.0
  endloop
endfacet
facet normal 2.77555756156289e-016 0.0 1.0
  outer loop
    vertex -6.99999999999999 0.0 20.0
    vertex -5.60935374827491 2.0 20.0
    vertex -20.0 35.0 20.0
  endloop
endfacet
facet normal 2.77555756156289e-016 0.0 1.0
  outer loop
    vertex -5.60935374827491 2.0 20.0
    vertex -0.999999999999994 1.875 20.0
    vertex -2.99999999999999 2.0 20.0
  endloop
endfacet
facet normal 2.77555756156289e-016 0.0 1.0
  outer loop
    vertex -20.0 35.0 20.0
    vertex -5.60935374827491 2.0 20.0
    vertex -6.26219482919175 3.75764906400686 20.0
  endloop
endfacet
facet normal 2.77555756156289e-016 0.0 1.0
  outer loop
    vertex -20.0 35.0 20.0
    vertex -6.26219482919175 3.75764906400686 20.0
    vertex -11.3729042682307 17.5172513998808 20.0
  endloop
endfacet
facet normal 2.77555756156289e-016 0.0 1.0
  outer loop
    vertex -20.0 35.0 20.0
    vertex -11.3729042682307 17.5172513998808 20.0
    vertex -12.0205783707573 19.2609893682218 20.0
  endloop
endfacet
facet normal 2.77555756156289e-016 0.0 1.0
  outer loop
    vertex -12.0205783707573 19.2609893682218 20.0
    vertex -11.3729042682307 17.5172513998808 20.0
    vertex -11.2498440376975 18.4062901951836 20.0
  endloop
endfacet
facet normal 2.77555756156289e-016 0.0 1.0
  outer loop
    vertex -11.2498440376975 18.4062901951836 20.0
    vertex -11.3729042682307 17.5172513998808 20.0
    vertex -3.31116357835597 18.4062901951836 20.0
  endloop
endfacet
facet normal 2.77555756156289e-016 0.0 1.0
  outer loop
    vertex -20.0 35.0 20.0
    vertex -12.0205783707573 19.2609893682218 20.0
    vertex -17.6366503641155 34.3811831964939 20.0
  endloop
endfacet
facet normal 2.77555756156289e-016 0.0 1.0
  outer loop
    vertex -20.0 35.0 20.0
    vertex -17.6366503641155 34.3811831964939 20.0
    vertex -8.99999999999999 34.660108542738 20.0
  endloop
endfacet
facet normal 2.77555756156289e-016 0.0 1.0
  outer loop
    vertex -20.0 35.0 20.0
    vertex -8.99999999999999 34.660108542738 20.0
    vertex -6.99999999999999 35.0 20.0
  endloop
endfacet
facet normal 2.77555756156289e-016 0.0 1.0
  outer loop
    vertex -20.0 35.0 20.0
    vertex -6.99999999999999 35.0 20.0
    vertex -8.99999999999999 35.3594322161829 20.0
  endloop
endfacet
facet normal 2.77555756156289e-016 0.0 1.0
  outer loop
    vertex -8.99999999999999 35.3594322161829 20.0
    vertex -6.99999999999999 35.0 20.0
    vertex -6.99999999999999 50.0 20.0
  endloop
endfacet
facet normal 2.77555756156289e-016 0.0 1.0
  outer loop
    vertex -8.99999999999999 35.3594322161829 20.0
    vertex -6.99999999999999 50.0 20.0
    vertex -8.99999999999999 40.5080256529399 20.0
  endloop
endfacet
facet normal 2.77555756156289e-016 0.0 1.0
  outer loop
    vertex -20.0 35.0 20.0
    vertex -18.0 35.3594322161829 20.0
    vertex -20.0 50.0 20.0
  endloop
endfacet
facet normal 2.77555756156289e-016 0.0 1.0
  outer loop
    vertex -18.0 35.3594322161829 20.0
    vertex -20.0 35.0 20.0
    vertex -8.99999999999999 35.3594322161829 20.0
  endloop
endfacet
facet normal 2.77555756156289e-016 0.0 1.0
  outer loop
    vertex -18.0 35.3594322161829 20.0
    vertex -8.99999999999999 35.3594322161829 20.0
    vertex -16.5177982908232 35.3594322161829 20.0
  endloop
endfacet
facet normal 2.77555756156289e-016 0.0 1.0
  outer loop
    vertex -20.0 50.0 20.0
    vertex -18.0 35.3594322161829 20.0
    vertex -8.99999999999999 40.5080256529399 20.0
  endloop
endfacet
facet normal 2.77555756156289e-016 0.0 1.0
  outer loop
    vertex -20.0 50.0 20.0
    vertex -8.99999999999999 40.5080256529399 20.0
    vertex -6.99999999999999 50.0 20.0
  endloop
endfacet
facet normal 2.77555756156289e-016 0.0 1.0
  outer loop
    vertex 5.55111512312578e-015 5.625 20.0
    vertex -0.999999999999994 3.75 20.0
    vertex 5.55111512312578e-015 3.75 20.0
  endloop
endfacet
facet normal 2.77555756156289e-016 0.0 1.0
  outer loop
    vertex 5.55111512312578e-015 9.375 20.0
    vertex -0.999999999999994 7.5 20.0
    vertex 5.55111512312578e-015 7.5 20.0
  endloop
endfacet
facet normal 2.77555756156289e-016 0.0 1.0
  outer loop
    vertex 5.55111512312578e-015 13.125 20.0
    vertex -0.999999999999994 11.25 20.0
    vertex 5.55111512312578e-015 11.25 20.0
  endloop
endfacet
facet normal 2.77555756156289e-016 0.0 1.0
  outer loop
    vertex -8.99999999999999 34.660108542738 20.0
    vertex -12.0205783707573 19.2609893682218 20.0
    vertex -11.2498440376975 18.4062901951836 20.0
  endloop
endfacet
facet normal 2.77555756156289e-016 0.0 1.0
  outer loop
    vertex -12.0205783707573 19.2609893682218 20.0
    vertex -8.99999999999999 34.660108542738 20.0
    vertex -9.92764997658171 34.3811831964939 20.0
  endloop
endfacet
facet normal 2.77555756156289e-016 0.0 1.0
  outer loop
    vertex -9.92764997658171 34.3811831964939 20.0
    vertex -8.99999999999999 34.660108542738 20.0
    vertex -11.3338320366537 34.3811831964939 20.0
  endloop
endfacet
facet normal 2.77555756156289e-016 0.0 1.0
  outer loop
    vertex -11.3338320366537 34.3811831964939 20.0
    vertex -8.99999999999999 34.660108542738 20.0
    vertex -17.6366503641155 34.3811831964939 20.0
  endloop
endfacet
facet normal 2.77555756156289e-016 0.0 1.0
  outer loop
    vertex -6.99999999999999 35.0 20.0
    vertex -0.999999999999994 15.0 20.0
    vertex 5.55111512312578e-015 15.0 20.0
  endloop
endfacet
facet normal 2.77555756156289e-016 0.0 1.0
  outer loop
    vertex -0.999999999999994 15.0 20.0
    vertex -6.99999999999999 35.0 20.0
    vertex -2.99999999999999 17.5172513998808 20.0
  endloop
endfacet
facet normal 2.77555756156289e-016 0.0 1.0
  outer loop
    vertex -2.99999999999999 17.5172513998808 20.0
    vertex -6.99999999999999 35.0 20.0
    vertex -3.31116357835597 18.4062901951836 20.0
  endloop
endfacet
facet normal 2.77555756156289e-016 0.0 1.0
  outer loop
    vertex -2.99999999999999 17.5172513998808 20.0
    vertex -3.31116357835597 18.4062901951836 20.0
    vertex -3.94840426122036 17.5172513998808 20.0
  endloop
endfacet
facet normal 2.77555756156289e-016 0.0 1.0
  outer loop
    vertex -3.94840426122036 17.5172513998808 20.0
    vertex -3.31116357835597 18.4062901951836 20.0
    vertex -11.3729042682307 17.5172513998808 20.0
  endloop
endfacet
facet normal 2.77555756156289e-016 0.0 1.0
  outer loop
    vertex -3.31116357835597 18.4062901951836 20.0
    vertex -6.99999999999999 35.0 20.0
    vertex -8.99999999999999 34.660108542738 20.0
  endloop
endfacet
facet normal 2.77555756156289e-016 0.0 1.0
  outer loop
    vertex -2.99999999999999 17.5172513998808 20.0
    vertex -6.26219482919175 3.75764906400686 20.0
    vertex -5.60935374827491 2.0 20.0
  endloop
endfacet
facet normal 2.77555756156289e-016 0.0 1.0
  outer loop
    vertex -6.26219482919175 3.75764906400686 20.0
    vertex -2.99999999999999 17.5172513998808 20.0
    vertex -3.94840426122036 17.5172513998808 20.0
  endloop
endfacet
facet normal 2.77555756156289e-016 0.0 1.0
  outer loop
    vertex -0.999999999999994 3.75 20.0
    vertex -2.99999999999999 2.0 20.0
    vertex -0.999999999999994 1.875 20.0
  endloop
endfacet
facet normal 2.77555756156289e-016 0.0 1.0
  outer loop
    vertex -2.99999999999999 2.0 20.0
    vertex -0.999999999999994 3.75 20.0
    vertex -2.99999999999999 7.375 20.0
  endloop
endfacet
facet normal 2.77555756156289e-016 0.0 1.0
  outer loop
    vertex -2.99999999999999 7.375 20.0
    vertex -0.999999999999994 3.75 20.0
    vertex -0.999999999999994 5.625 20.0
  endloop
endfacet
facet normal 2.77555756156289e-016 0.0 1.0
  outer loop
    vertex -0.999999999999994 5.625 20.0
    vertex -0.999999999999994 3.75 20.0
    vertex 5.55111512312578e-015 5.625 20.0
  endloop
endfacet
facet normal 2.77555756156289e-016 0.0 1.0
  outer loop
    vertex -2.99999999999999 7.375 20.0
    vertex -0.999999999999994 5.625 20.0
    vertex -0.999999999999994 7.5 20.0
  endloop
endfacet
facet normal 2.77555756156289e-016 0.0 1.0
  outer loop
    vertex -2.99999999999999 7.375 20.0
    vertex -0.999999999999994 7.5 20.0
    vertex -2.99999999999999 17.5172513998808 20.0
  endloop
endfacet
facet normal 2.77555756156289e-016 0.0 1.0
  outer loop
    vertex -2.99999999999999 17.5172513998808 20.0
    vertex -0.999999999999994 7.5 20.0
    vertex -0.999999999999994 9.375 20.0
  endloop
endfacet
facet normal 2.77555756156289e-016 0.0 1.0
  outer loop
    vertex -0.999999999999994 9.375 20.0
    vertex -0.999999999999994 7.5 20.0
    vertex 5.55111512312578e-015 9.375 20.0
  endloop
endfacet
facet normal 2.77555756156289e-016 0.0 1.0
  outer loop
    vertex -2.99999999999999 17.5172513998808 20.0
    vertex -0.999999999999994 9.375 20.0
    vertex -0.999999999999994 11.25 20.0
  endloop
endfacet
facet normal 2.77555756156289e-016 0.0 1.0
  outer loop
    vertex -2.99999999999999 17.5172513998808 20.0
    vertex -0.999999999999994 11.25 20.0
    vertex -0.999999999999994 13.125 20.0
  endloop
endfacet
facet normal 2.77555756156289e-016 0.0 1.0
  outer loop
    vertex -0.999999999999994 13.125 20.0
    vertex -0.999999999999994 11.25 20.0
    vertex 5.55111512312578e-015 13.125 20.0
  endloop
endfacet
facet normal 2.77555756156289e-016 0.0 1.0
  outer loop
    vertex -2.99999999999999 17.5172513998808 20.0
    vertex -0.999999999999994 13.125 20.0
    vertex -0.999999999999994 15.0 20.0
  endloop
endfacet
facet normal 2.77555756156289e-016 0.0 1.0
  outer loop
    vertex -6.99999999999999 50.0 20.0
    vertex -8.99999999999999 58.9546571819682 20.0
    vertex -20.0 50.0 20.0
  endloop
endfacet
facet normal 2.77555756156289e-016 0.0 1.0
  outer loop
    vertex -8.99999999999999 58.9546571819682 20.0
    vertex -6.99999999999999 50.0 20.0
    vertex -6.99999999999999 65.0 20.0
  endloop
endfacet
facet normal 2.77555756156289e-016 0.0 1.0
  outer loop
    vertex -8.99999999999999 58.9546571819682 20.0
    vertex -6.99999999999999 65.0 20.0
    vertex -8.99999999999999 60.339891457262 20.0
  endloop
endfacet
facet normal 2.77555756156289e-016 0.0 1.0
  outer loop
    vertex -8.99999999999999 60.339891457262 20.0
    vertex -6.99999999999999 65.0 20.0
    vertex -8.99999999999999 64.1032506187253 20.0
  endloop
endfacet
facet normal 2.77555756156289e-016 0.0 1.0
  outer loop
    vertex -8.99999999999999 64.1032506187253 20.0
    vertex -6.99999999999999 65.0 20.0
    vertex -15.5785408906754 64.1032506187253 20.0
  endloop
endfacet
facet normal 2.77555756156289e-016 0.0 1.0
  outer loop
    vertex -15.5785408906754 64.1032506187253 20.0
    vertex -6.99999999999999 65.0 20.0
    vertex -18.0 64.1032506187253 20.0
  endloop
endfacet
facet normal 2.77555756156289e-016 0.0 1.0
  outer loop
    vertex -11.19948797261 81.2299164391801 20.0
    vertex -10.3 65.339891457262 20.0
    vertex -8.99999999999999 65.339891457262 20.0
  endloop
endfacet
facet normal 2.77555756156289e-016 0.0 1.0
  outer loop
    vertex -10.3 65.339891457262 20.0
    vertex -11.19948797261 81.2299164391801 20.0
    vertex -12.3398044923199 79.8795556891098 20.0
  endloop
endfacet
facet normal 2.77555756156289e-016 0.0 1.0
  outer loop
    vertex 5.55111512312578e-015 88.75 20.0
    vertex -0.999999999999994 86.875 20.0
    vertex 5.55111512312578e-015 86.875 20.0
  endloop
endfacet
facet normal 2.77555756156289e-016 0.0 1.0
  outer loop
    vertex 5.55111512312578e-015 92.5 20.0
    vertex -0.999999999999994 90.625 20.0
    vertex 5.55111512312578e-015 90.625 20.0
  endloop
endfacet
facet normal 2.77555756156289e-016 0.0 1.0
  outer loop
    vertex 5.55111512312578e-015 96.25 20.0
    vertex -0.999999999999994 94.375 20.0
    vertex 5.55111512312578e-015 94.375 20.0
  endloop
endfacet
facet normal 2.77555756156289e-016 0.0 1.0
  outer loop
    vertex -5.60935374827492 98.0 20.0
    vertex -4.14561741094927 82.4827486001192 20.0
    vertex -3.0 82.4827486001192 20.0
  endloop
endfacet
facet normal 2.77555756156289e-016 0.0 1.0
  outer loop
    vertex -4.14561741094927 82.4827486001192 20.0
    vertex -5.60935374827492 98.0 20.0
    vertex -6.34423206194036 96.0214814632084 20.0
  endloop
endfacet
facet normal 2.77555756156289e-016 0.0 1.0
  outer loop
    vertex -8.99999999999999 58.9546571819682 20.0
    vertex -20.0 65.0 20.0
    vertex -20.0 50.0 20.0
  endloop
endfacet
facet normal 2.77555756156289e-016 0.0 1.0
  outer loop
    vertex -20.0 65.0 20.0
    vertex -8.99999999999999 58.9546571819682 20.0
    vertex -18.0 64.1032506187253 20.0
  endloop
endfacet
facet normal 2.77555756156289e-016 0.0 1.0
  outer loop
    vertex -20.0 65.0 20.0
    vertex -18.0 64.1032506187253 20.0
    vertex -6.99999999999999 65.0 20.0
  endloop
endfacet
facet normal 2.77555756156289e-016 0.0 1.0
  outer loop
    vertex -20.0 65.0 20.0
    vertex -6.99999999999999 65.0 20.0
    vertex -8.99999999999999 65.339891457262 20.0
  endloop
endfacet
facet normal 2.77555756156289e-016 0.0 1.0
  outer loop
    vertex -8.99999999999999 65.339891457262 20.0
    vertex -6.99999999999999 65.0 20.0
    vertex 5.55111512312578e-015 85.0 20.0
  endloop
endfacet
facet normal 2.77555756156289e-016 0.0 1.0
  outer loop
    vertex -8.99999999999999 65.339891457262 20.0
    vertex 5.55111512312578e-015 85.0 20.0
    vertex -3.43849125632868 81.2299164391801 20.0
  endloop
endfacet
facet normal 2.77555756156289e-016 0.0 1.0
  outer loop
    vertex -3.43849125632868 81.2299164391801 20.0
    vertex 5.55111512312578e-015 85.0 20.0
    vertex -3.0 82.4827486001192 20.0
  endloop
endfacet
facet normal 2.77555756156289e-016 0.0 1.0
  outer loop
    vertex -3.43849125632868 81.2299164391801 20.0
    vertex -3.0 82.4827486001192 20.0
    vertex -11.19948797261 81.2299164391801 20.0
  endloop
endfacet
facet normal 2.77555756156289e-016 0.0 1.0
  outer loop
    vertex -3.0 82.4827486001192 20.0
    vertex 5.55111512312578e-015 85.0 20.0
    vertex -0.999999999999994 85.0 20.0
  endloop
endfacet
facet normal 2.77555756156289e-016 0.0 1.0
  outer loop
    vertex -3.0 82.4827486001192 20.0
    vertex -0.999999999999994 85.0 20.0
    vertex -3.0 98.0 20.0
  endloop
endfacet
facet normal 2.77555756156289e-016 0.0 1.0
  outer loop
    vertex -3.0 98.0 20.0
    vertex -0.999999999999994 85.0 20.0
    vertex -0.999999999999994 86.875 20.0
  endloop
endfacet
facet normal 2.77555756156289e-016 0.0 1.0
  outer loop
    vertex -3.0 98.0 20.0
    vertex -0.999999999999994 86.875 20.0
    vertex -0.999999999999994 88.75 20.0
  endloop
endfacet
facet normal 2.77555756156289e-016 0.0 1.0
  outer loop
    vertex -0.999999999999994 88.75 20.0
    vertex -0.999999999999994 86.875 20.0
    vertex 5.55111512312578e-015 88.75 20.0
  endloop
endfacet
facet normal 2.77555756156289e-016 0.0 1.0
  outer loop
    vertex -3.0 98.0 20.0
    vertex -0.999999999999994 88.75 20.0
    vertex -0.999999999999994 90.625 20.0
  endloop
endfacet
facet normal 2.77555756156289e-016 0.0 1.0
  outer loop
    vertex -3.0 98.0 20.0
    vertex -0.999999999999994 90.625 20.0
    vertex -0.999999999999994 92.5 20.0
  endloop
endfacet
facet normal 2.77555756156289e-016 0.0 1.0
  outer loop
    vertex -0.999999999999994 92.5 20.0
    vertex -0.999999999999994 90.625 20.0
    vertex 5.55111512312578e-015 92.5 20.0
  endloop
endfacet
facet normal 2.77555756156289e-016 0.0 1.0
  outer loop
    vertex -3.0 98.0 20.0
    vertex -0.999999999999994 92.5 20.0
    vertex -0.999999999999994 94.375 20.0
  endloop
endfacet
facet normal 2.77555756156289e-016 0.0 1.0
  outer loop
    vertex -3.0 98.0 20.0
    vertex -0.999999999999994 94.375 20.0
    vertex -0.999999999999994 96.25 20.0
  endloop
endfacet
facet normal 2.77555756156289e-016 0.0 1.0
  outer loop
    vertex -0.999999999999994 96.25 20.0
    vertex -0.999999999999994 94.375 20.0
    vertex 5.55111512312578e-015 96.25 20.0
  endloop
endfacet
facet normal 2.77555756156289e-016 0.0 1.0
  outer loop
    vertex -3.0 98.0 20.0
    vertex -0.999999999999994 96.25 20.0
    vertex -0.999999999999994 98.125 20.0
  endloop
endfacet
facet normal 2.77555756156289e-016 0.0 1.0
  outer loop
    vertex -3.0 98.0 20.0
    vertex -0.999999999999994 98.125 20.0
    vertex -5.60935374827492 98.0 20.0
  endloop
endfacet
facet normal 2.77555756156289e-016 0.0 1.0
  outer loop
    vertex 5.55111512312578e-015 100.0 20.0
    vertex -0.999999999999994 98.125 20.0
    vertex 5.55111512312578e-015 98.125 20.0
  endloop
endfacet
facet normal 2.77555756156289e-016 0.0 1.0
  outer loop
    vertex -20.0 65.0 20.0
    vertex -17.7402512070062 65.339891457262 20.0
    vertex -6.99999999999999 100.0 20.0
  endloop
endfacet
facet normal 2.77555756156289e-016 0.0 1.0
  outer loop
    vertex -17.7402512070062 65.339891457262 20.0
    vertex -20.0 65.0 20.0
    vertex -8.99999999999999 65.339891457262 20.0
  endloop
endfacet
facet normal 2.77555756156289e-016 0.0 1.0
  outer loop
    vertex -17.7402512070062 65.339891457262 20.0
    vertex -8.99999999999999 65.339891457262 20.0
    vertex -10.3 65.339891457262 20.0
  endloop
endfacet
facet normal 2.77555756156289e-016 0.0 1.0
  outer loop
    vertex -6.99999999999999 100.0 20.0
    vertex -17.7402512070062 65.339891457262 20.0
    vertex -12.3398044923199 79.8795556891098 20.0
  endloop
endfacet
facet normal 2.77555756156289e-016 0.0 1.0
  outer loop
    vertex -6.99999999999999 100.0 20.0
    vertex -12.3398044923199 79.8795556891098 20.0
    vertex -11.3729042682306 82.4827486001192 20.0
  endloop
endfacet
facet normal 2.77555756156289e-016 0.0 1.0
  outer loop
    vertex -11.3729042682306 82.4827486001192 20.0
    vertex -12.3398044923199 79.8795556891098 20.0
    vertex -11.19948797261 81.2299164391801 20.0
  endloop
endfacet
facet normal 2.77555756156289e-016 0.0 1.0
  outer loop
    vertex -11.3729042682306 82.4827486001192 20.0
    vertex -11.19948797261 81.2299164391801 20.0
    vertex -3.0 82.4827486001192 20.0
  endloop
endfacet
facet normal 2.77555756156289e-016 0.0 1.0
  outer loop
    vertex -11.3729042682306 82.4827486001192 20.0
    vertex -3.0 82.4827486001192 20.0
    vertex -4.14561741094927 82.4827486001192 20.0
  endloop
endfacet
facet normal 2.77555756156289e-016 0.0 1.0
  outer loop
    vertex -6.99999999999999 100.0 20.0
    vertex -11.3729042682306 82.4827486001192 20.0
    vertex -6.34423206194036 96.0214814632084 20.0
  endloop
endfacet
facet normal 2.77555756156289e-016 0.0 1.0
  outer loop
    vertex -6.99999999999999 100.0 20.0
    vertex -6.34423206194036 96.0214814632084 20.0
    vertex -5.60935374827492 98.0 20.0
  endloop
endfacet
facet normal 2.77555756156289e-016 0.0 1.0
  outer loop
    vertex -6.99999999999999 100.0 20.0
    vertex -5.60935374827492 98.0 20.0
    vertex -0.999999999999994 98.125 20.0
  endloop
endfacet
facet normal 2.77555756156289e-016 0.0 1.0
  outer loop
    vertex -6.99999999999999 100.0 20.0
    vertex -0.999999999999994 98.125 20.0
    vertex 5.55111512312578e-015 100.0 20.0
  endloop
endfacet
facet normal 1.0 0.0 -2.77555756156289e-016
  outer loop
    vertex -7.0 65.0 5.32907051820075e-016
    vertex -7.0 51.2940952255126 5.17037086855466
    vertex -7.0 35.0 5.32907051820075e-016
  endloop
endfacet
facet normal 1.0 0.0 -2.77555756156289e-016
  outer loop
    vertex -7.0 51.2940952255126 5.17037086855466
    vertex -7.0 65.0 5.32907051820075e-016
    vertex -7.0 52.5 5.6698729810778
  endloop
endfacet
facet normal 1.0 0.0 -2.77555756156289e-016
  outer loop
    vertex -7.0 52.5 5.6698729810778
    vertex -7.0 65.0 5.32907051820075e-016
    vertex -7.0 53.5355339059327 6.46446609406726
  endloop
endfacet
facet normal 1.0 0.0 -2.77555756156289e-016
  outer loop
    vertex -7.0 53.5355339059327 6.46446609406726
    vertex -7.0 65.0 5.32907051820075e-016
    vertex -6.99999999999999 65.0 20.0
  endloop
endfacet
facet normal 1.0 0.0 -2.77555756156289e-016
  outer loop
    vertex -7.0 35.0 5.32907051820075e-016
    vertex -7.0 51.2940952255126 5.17037086855466
    vertex -7.0 50.0 5.0
  endloop
endfacet
facet normal 1.0 0.0 -2.77555756156289e-016
  outer loop
    vertex -7.0 53.5355339059327 6.46446609406726
    vertex -6.99999999999999 65.0 20.0
    vertex -7.0 54.3301270189222 7.5
  endloop
endfacet
facet normal 1.0 0.0 -2.77555756156289e-016
  outer loop
    vertex -7.0 54.3301270189222 7.5
    vertex -6.99999999999999 65.0 20.0
    vertex -7.0 54.8296291314453 8.70590477448739
  endloop
endfacet
facet normal 1.0 0.0 -2.77555756156289e-016
  outer loop
    vertex -7.0 54.8296291314453 8.70590477448739
    vertex -6.99999999999999 65.0 20.0
    vertex -7.0 55.0 10.0
  endloop
endfacet
facet normal 1.0 0.0 -2.77555756156289e-016
  outer loop
    vertex -7.0 55.0 10.0
    vertex -6.99999999999999 65.0 20.0
    vertex -7.0 54.8296291314453 11.2940952255126
  endloop
endfacet
facet normal 1.0 0.0 -2.77555756156289e-016
  outer loop
    vertex -7.0 54.8296291314453 11.2940952255126
    vertex -6.99999999999999 65.0 20.0
    vertex -7.0 54.3301270189222 12.5
  endloop
endfacet
facet normal 1.0 0.0 -2.77555756156289e-016
  outer loop
    vertex -7.0 54.3301270189222 12.5
    vertex -6.99999999999999 65.0 20.0
    vertex -7.0 53.5355339059327 13.5355339059327
  endloop
endfacet
facet normal 1.0 0.0 -2.77555756156289e-016
  outer loop
    vertex -7.0 53.5355339059327 13.5355339059327
    vertex -6.99999999999999 65.0 20.0
    vertex -7.0 52.5 14.3301270189222
  endloop
endfacet
facet normal 1.0 0.0 -2.77555756156289e-016
  outer loop
    vertex -7.0 52.5 14.3301270189222
    vertex -6.99999999999999 65.0 20.0
    vertex -7.0 51.2940952255126 14.8296291314453
  endloop
endfacet
facet normal 1.0 0.0 -2.77555756156289e-016
  outer loop
    vertex -7.0 51.2940952255126 14.8296291314453
    vertex -6.99999999999999 65.0 20.0
    vertex -7.0 50.0 15.0
  endloop
endfacet
facet normal 1.0 0.0 -2.77555756156289e-016
  outer loop
    vertex -7.0 35.0 5.32907051820075e-016
    vertex -7.0 46.4644660940673 6.46446609406726
    vertex -6.99999999999999 35.0 20.0
  endloop
endfacet
facet normal 1.0 0.0 -2.77555756156289e-016
  outer loop
    vertex -7.0 46.4644660940673 6.46446609406726
    vertex -7.0 35.0 5.32907051820075e-016
    vertex -7.0 47.5 5.66987298107781
  endloop
endfacet
facet normal 1.0 0.0 -2.77555756156289e-016
  outer loop
    vertex -7.0 47.5 5.66987298107781
    vertex -7.0 35.0 5.32907051820075e-016
    vertex -7.0 48.7059047744874 5.17037086855466
  endloop
endfacet
facet normal 1.0 0.0 -2.77555756156289e-016
  outer loop
    vertex -7.0 48.7059047744874 5.17037086855466
    vertex -7.0 35.0 5.32907051820075e-016
    vertex -7.0 50.0 5.0
  endloop
endfacet
facet normal 1.0 0.0 -2.77555756156289e-016
  outer loop
    vertex -6.99999999999999 35.0 20.0
    vertex -7.0 46.4644660940673 6.46446609406726
    vertex -7.0 45.6698729810778 7.5
  endloop
endfacet
facet normal 1.0 0.0 -2.77555756156289e-016
  outer loop
    vertex -6.99999999999999 35.0 20.0
    vertex -7.0 45.6698729810778 7.5
    vertex -7.0 45.1703708685547 8.7059047744874
  endloop
endfacet
facet normal 1.0 0.0 -2.77555756156289e-016
  outer loop
    vertex -6.99999999999999 35.0 20.0
    vertex -7.0 45.1703708685547 8.7059047744874
    vertex -7.0 45.0 10.0
  endloop
endfacet
facet normal 1.0 0.0 -2.77555756156289e-016
  outer loop
    vertex -6.99999999999999 35.0 20.0
    vertex -7.0 45.0 10.0
    vertex -7.0 45.1703708685547 11.2940952255126
  endloop
endfacet
facet normal 1.0 0.0 -2.77555756156289e-016
  outer loop
    vertex -6.99999999999999 35.0 20.0
    vertex -7.0 45.1703708685547 11.2940952255126
    vertex -7.0 45.6698729810778 12.5
  endloop
endfacet
facet normal 1.0 0.0 -2.77555756156289e-016
  outer loop
    vertex -6.99999999999999 35.0 20.0
    vertex -7.0 45.6698729810778 12.5
    vertex -7.0 46.4644660940673 13.5355339059327
  endloop
endfacet
facet normal 1.0 0.0 -2.77555756156289e-016
  outer loop
    vertex -6.99999999999999 35.0 20.0
    vertex -7.0 46.4644660940673 13.5355339059327
    vertex -7.0 47.5 14.3301270189222
  endloop
endfacet
facet normal 1.0 0.0 -2.77555756156289e-016
  outer loop
    vertex -6.99999999999999 35.0 20.0
    vertex -7.0 47.5 14.3301270189222
    vertex -7.0 48.7059047744874 14.8296291314453
  endloop
endfacet
facet normal 1.0 0.0 -2.77555756156289e-016
  outer loop
    vertex -6.99999999999999 35.0 20.0
    vertex -7.0 48.7059047744874 14.8296291314453
    vertex -7.0 50.0 15.0
  endloop
endfacet
facet normal 1.0 0.0 -2.77555756156289e-016
  outer loop
    vertex -6.99999999999999 35.0 20.0
    vertex -7.0 50.0 15.0
    vertex -6.99999999999999 65.0 20.0
  endloop
endfacet
facet normal 1.0 0.0 -2.77555756156289e-016
  outer loop
    vertex -6.99999999999999 35.0 20.0
    vertex -6.99999999999999 65.0 20.0
    vertex -6.99999999999999 50.0 20.0
  endloop
endfacet
facet normal 0.943858356366017 0.330350424728106 -2.61973319805602e-016
  outer loop
    vertex -6.99999999999999 35.0 20.0
    vertex -3.91348964699486e-031 15.0 -1.40998324127395e-015
    vertex -7.0 35.0 5.32907051820075e-016
  endloop
endfacet
facet normal 0.943858356366017 0.330350424728106 -2.61973319805602e-016
  outer loop
    vertex -3.91348964699486e-031 15.0 -1.40998324127395e-015
    vertex -6.99999999999999 35.0 20.0
    vertex 5.55111512312578e-015 15.0 20.0
  endloop
endfacet
facet normal 0.943858356366017 -0.330350424728106 -2.61973319805602e-016
  outer loop
    vertex 5.55111512312578e-015 85.0 20.0
    vertex -7.0 65.0 5.32907051820075e-016
    vertex -3.91348964699486e-031 85.0 -1.40998324127395e-015
  endloop
endfacet
facet normal 0.943858356366017 -0.330350424728106 -2.61973319805602e-016
  outer loop
    vertex -7.0 65.0 5.32907051820075e-016
    vertex 5.55111512312578e-015 85.0 20.0
    vertex -6.99999999999999 65.0 20.0
  endloop
endfacet
facet normal 1.0 0.0 -2.77555756156289e-016
  outer loop
    vertex -2.93511723524615e-031 88.75 -1.05748743095546e-015
    vertex 5.55111512312578e-015 86.875 20.0
    vertex -3.42430344112051e-031 86.875 -1.23373533611471e-015
  endloop
endfacet
facet normal 1.0 0.0 -2.77555756156289e-016
  outer loop
    vertex 5.55111512312578e-015 86.875 20.0
    vertex -2.93511723524615e-031 88.75 -1.05748743095546e-015
    vertex 5.55111512312578e-015 88.75 20.0
  endloop
endfacet
facet normal 1.0 0.0 -2.77555756156289e-016
  outer loop
    vertex 5.55111512312578e-015 5.625 20.0
    vertex -6.9517541003614e-047 3.75 0.0
    vertex -6.9517541003614e-047 5.625 0.0
  endloop
endfacet
facet normal 1.0 0.0 -2.77555756156289e-016
  outer loop
    vertex -6.9517541003614e-047 3.75 0.0
    vertex 5.55111512312578e-015 5.625 20.0
    vertex 5.55111512312578e-015 3.75 20.0
  endloop
endfacet
facet normal -0.937425272009765 -0.348186529603627 2.60187780212685e-016
  outer loop
    vertex -6.99999999999999 0.0 20.0
    vertex -20.0 35.0 5.55111512312578e-015
    vertex -7.0 0.0 1.94289029309402e-015
  endloop
endfacet
facet normal -0.937425272009765 -0.348186529603627 2.60187780212685e-016
  outer loop
    vertex -20.0 35.0 5.55111512312578e-015
    vertex -6.99999999999999 0.0 20.0
    vertex -20.0 35.0 20.0
  endloop
endfacet
facet normal 1.0 0.0 -2.77555756156289e-016
  outer loop
    vertex 5.55111512312578e-015 100.0 20.0
    vertex -6.9517541003614e-047 98.125 0.0
    vertex -6.9517541003614e-047 100.0 0.0
  endloop
endfacet
facet normal 1.0 0.0 -2.77555756156289e-016
  outer loop
    vertex -6.9517541003614e-047 98.125 0.0
    vertex 5.55111512312578e-015 100.0 20.0
    vertex 5.55111512312578e-015 98.125 20.0
  endloop
endfacet
facet normal -0.937425272009765 0.348186529603627 2.70379447072665e-016
  outer loop
    vertex -20.0 65.0 5.55111512312578e-015
    vertex -6.99999999999999 100.0 20.0
    vertex -7.0 100.0 5.32907051820075e-016
  endloop
endfacet
facet normal -0.937425272009765 0.348186529603627 2.70379447072665e-016
  outer loop
    vertex -6.99999999999999 100.0 20.0
    vertex -20.0 65.0 5.55111512312578e-015
    vertex -20.0 65.0 20.0
  endloop
endfacet
facet normal 1.0 0.0 -2.77555756156289e-016
  outer loop
    vertex -1.95674482349743e-031 92.5 -7.04991620636974e-016
    vertex 5.55111512312578e-015 90.625 20.0
    vertex -2.44593102937179e-031 90.625 -8.81239525796218e-016
  endloop
endfacet
facet normal 1.0 0.0 -2.77555756156289e-016
  outer loop
    vertex 5.55111512312578e-015 90.625 20.0
    vertex -1.95674482349743e-031 92.5 -7.04991620636974e-016
    vertex 5.55111512312578e-015 92.5 20.0
  endloop
endfacet
facet normal 1.0 0.0 -2.77555756156289e-016
  outer loop
    vertex -9.78372411748716e-032 96.25 -3.52495810318487e-016
    vertex 5.55111512312578e-015 94.375 20.0
    vertex -1.46755861762307e-031 94.375 -5.28743715477731e-016
  endloop
endfacet
facet normal 1.0 0.0 -2.77555756156289e-016
  outer loop
    vertex 5.55111512312578e-015 94.375 20.0
    vertex -9.78372411748716e-032 96.25 -3.52495810318487e-016
    vertex 5.55111512312578e-015 96.25 20.0
  endloop
endfacet
facet normal 0.0 1.0 0.0
  outer loop
    vertex -1.0 92.5 -4.27435864480685e-016
    vertex 5.55111512312578e-015 92.5 20.0
    vertex -1.95674482349743e-031 92.5 -7.04991620636974e-016
  endloop
endfacet
facet normal 0.0 1.0 0.0
  outer loop
    vertex 5.55111512312578e-015 92.5 20.0
    vertex -1.0 92.5 -4.27435864480685e-016
    vertex -0.999999999999994 92.5 20.0
  endloop
endfacet
facet normal 0.0 1.0 0.0
  outer loop
    vertex -1.0 96.25 -7.49400541621981e-017
    vertex 5.55111512312578e-015 96.25 20.0
    vertex -9.78372411748716e-032 96.25 -3.52495810318487e-016
  endloop
endfacet
facet normal 0.0 1.0 0.0
  outer loop
    vertex 5.55111512312578e-015 96.25 20.0
    vertex -1.0 96.25 -7.49400541621981e-017
    vertex -0.999999999999994 96.25 20.0
  endloop
endfacet
facet normal 0.0 -1.0 0.0
  outer loop
    vertex -0.999999999999994 3.75 20.0
    vertex -6.9517541003614e-047 3.75 0.0
    vertex 5.55111512312578e-015 3.75 20.0
  endloop
endfacet
facet normal 0.0 -1.0 0.0
  outer loop
    vertex -6.9517541003614e-047 3.75 0.0
    vertex -0.999999999999994 3.75 20.0
    vertex -1.0 3.75 2.77555756156289e-016
  endloop
endfacet
facet normal 0.0 -1.0 0.0
  outer loop
    vertex -0.999999999999994 94.375 20.0
    vertex -1.46755861762307e-031 94.375 -5.28743715477731e-016
    vertex 5.55111512312578e-015 94.375 20.0
  endloop
endfacet
facet normal 0.0 -1.0 0.0
  outer loop
    vertex -1.46755861762307e-031 94.375 -5.28743715477731e-016
    vertex -0.999999999999994 94.375 20.0
    vertex -1.0 94.375 -2.51187959321442e-016
  endloop
endfacet
facet normal 0.0 -1.0 0.0
  outer loop
    vertex -0.999999999999994 86.875 20.0
    vertex -3.42430344112051e-031 86.875 -1.23373533611471e-015
    vertex 5.55111512312578e-015 86.875 20.0
  endloop
endfacet
facet normal 0.0 -1.0 0.0
  outer loop
    vertex -3.42430344112051e-031 86.875 -1.23373533611471e-015
    vertex -0.999999999999994 86.875 20.0
    vertex -1.0 86.875 -9.56179579958416e-016
  endloop
endfacet
facet normal 0.0 1.0 0.0
  outer loop
    vertex -1.0 85.0 -1.13242748511766e-015
    vertex 5.55111512312578e-015 85.0 20.0
    vertex -3.91348964699486e-031 85.0 -1.40998324127395e-015
  endloop
endfacet
facet normal 0.0 1.0 0.0
  outer loop
    vertex 5.55111512312578e-015 85.0 20.0
    vertex -1.0 85.0 -1.13242748511766e-015
    vertex -0.999999999999994 85.0 20.0
  endloop
endfacet
facet normal 1.0 0.0 -2.77555756156289e-016
  outer loop
    vertex -1.0 86.875 -9.56179579958416e-016
    vertex -0.999999999999994 85.0 20.0
    vertex -1.0 85.0 -1.13242748511766e-015
  endloop
endfacet
facet normal 1.0 0.0 -2.77555756156289e-016
  outer loop
    vertex -0.999999999999994 85.0 20.0
    vertex -1.0 86.875 -9.56179579958416e-016
    vertex -0.999999999999994 86.875 20.0
  endloop
endfacet
facet normal 0.0 -1.0 0.0
  outer loop
    vertex -0.999999999999994 98.125 20.0
    vertex -6.9517541003614e-047 98.125 0.0
    vertex 5.55111512312578e-015 98.125 20.0
  endloop
endfacet
facet normal 0.0 -1.0 0.0
  outer loop
    vertex -6.9517541003614e-047 98.125 0.0
    vertex -0.999999999999994 98.125 20.0
    vertex -1.0 98.125 2.77555756156289e-016
  endloop
endfacet
facet normal 1.0 0.0 -2.77555756156289e-016
  outer loop
    vertex -1.0 98.125 2.77555756156289e-016
    vertex -0.999999999999994 96.25 20.0
    vertex -1.0 96.25 -7.49400541621981e-017
  endloop
endfacet
facet normal 1.0 0.0 -2.77555756156289e-016
  outer loop
    vertex -0.999999999999994 96.25 20.0
    vertex -1.0 98.125 2.77555756156289e-016
    vertex -0.999999999999994 98.125 20.0
  endloop
endfacet
facet normal 0.0 1.0 0.0
  outer loop
    vertex -1.0 88.75 -7.79931674799172e-016
    vertex 5.55111512312578e-015 88.75 20.0
    vertex -2.93511723524615e-031 88.75 -1.05748743095546e-015
  endloop
endfacet
facet normal 0.0 1.0 0.0
  outer loop
    vertex 5.55111512312578e-015 88.75 20.0
    vertex -1.0 88.75 -7.79931674799172e-016
    vertex -0.999999999999994 88.75 20.0
  endloop
endfacet
facet normal 0.0 -1.0 0.0
  outer loop
    vertex -0.999999999999994 90.625 20.0
    vertex -2.44593102937179e-031 90.625 -8.81239525796218e-016
    vertex 5.55111512312578e-015 90.625 20.0
  endloop
endfacet
facet normal 0.0 -1.0 0.0
  outer loop
    vertex -2.44593102937179e-031 90.625 -8.81239525796218e-016
    vertex -0.999999999999994 90.625 20.0
    vertex -1.0 90.625 -6.03683769639929e-016
  endloop
endfacet
facet normal 1.0 0.0 -2.77555756156289e-016
  outer loop
    vertex -1.0 94.375 -2.51187959321442e-016
    vertex -0.999999999999994 92.5 20.0
    vertex -1.0 92.5 -4.27435864480685e-016
  endloop
endfacet
facet normal 1.0 0.0 -2.77555756156289e-016
  outer loop
    vertex -0.999999999999994 92.5 20.0
    vertex -1.0 94.375 -2.51187959321442e-016
    vertex -0.999999999999994 94.375 20.0
  endloop
endfacet
facet normal 0.0 1.0 0.0
  outer loop
    vertex -1.0 1.875 2.77555756156289e-016
    vertex 5.55111512312578e-015 1.875 20.0
    vertex -6.9517541003614e-047 1.875 0.0
  endloop
endfacet
facet normal 0.0 1.0 0.0
  outer loop
    vertex 5.55111512312578e-015 1.875 20.0
    vertex -1.0 1.875 2.77555756156289e-016
    vertex -0.999999999999994 1.875 20.0
  endloop
endfacet
facet normal 1.0 0.0 -2.77555756156289e-016
  outer loop
    vertex -1.0 90.625 -6.03683769639929e-016
    vertex -0.999999999999994 88.75 20.0
    vertex -1.0 88.75 -7.79931674799172e-016
  endloop
endfacet
facet normal 1.0 0.0 -2.77555756156289e-016
  outer loop
    vertex -0.999999999999994 88.75 20.0
    vertex -1.0 90.625 -6.03683769639929e-016
    vertex -0.999999999999994 90.625 20.0
  endloop
endfacet
facet normal 1.0 0.0 -2.77555756156289e-016
  outer loop
    vertex 5.55111512312578e-015 1.875 20.0
    vertex -6.9517541003614e-047 0.0 0.0
    vertex -6.9517541003614e-047 1.875 0.0
  endloop
endfacet
facet normal 1.0 0.0 -2.77555756156289e-016
  outer loop
    vertex -6.9517541003614e-047 0.0 0.0
    vertex 5.55111512312578e-015 1.875 20.0
    vertex 5.55111512312578e-015 0.0 20.0
  endloop
endfacet
facet normal 1.0 0.0 -2.77555756156289e-016
  outer loop
    vertex -0.999999999999994 3.75 20.0
    vertex -1.0 1.875 2.77555756156289e-016
    vertex -1.0 3.75 2.77555756156289e-016
  endloop
endfacet
facet normal 1.0 0.0 -2.77555756156289e-016
  outer loop
    vertex -1.0 1.875 2.77555756156289e-016
    vertex -0.999999999999994 3.75 20.0
    vertex -0.999999999999994 1.875 20.0
  endloop
endfacet
facet normal 1.0 0.0 -2.77555756156289e-016
  outer loop
    vertex 5.55111512312578e-015 9.375 20.0
    vertex -6.9517541003614e-047 7.5 0.0
    vertex -9.78372411748716e-032 9.375 -3.52495810318487e-016
  endloop
endfacet
facet normal 1.0 0.0 -2.77555756156289e-016
  outer loop
    vertex -6.9517541003614e-047 7.5 0.0
    vertex 5.55111512312578e-015 9.375 20.0
    vertex 5.55111512312578e-015 7.5 20.0
  endloop
endfacet
facet normal -1.38777878078144e-016 0.866025403784439 -0.5
  outer loop
    vertex -20.0 45.6698729810778 12.5
    vertex -7.0 46.4644660940673 13.5355339059327
    vertex -7.0 45.6698729810778 12.5
  endloop
endfacet
facet normal -1.96261557335472e-016 0.707106781186547 -0.707106781186548
  outer loop
    vertex -7.0 46.4644660940673 13.5355339059327
    vertex -20.0 45.6698729810778 12.5
    vertex -20.0 46.4644660940673 13.5355339059327
  endloop
endfacet
facet normal 1.13525839898263e-030 -1.0 4.09019944210193e-015
  outer loop
    vertex -20.0 55.0 10.0
    vertex -7.0 54.8296291314453 8.70590477448739
    vertex -7.0 55.0 10.0
  endloop
endfacet
facet normal 7.18367157710794e-017 -0.965925826289068 0.258819045102523
  outer loop
    vertex -7.0 54.8296291314453 8.70590477448739
    vertex -20.0 55.0 10.0
    vertex -20.0 54.8296291314453 8.7059047744874
  endloop
endfacet
facet normal -2.68098273106551e-016 -0.25881904510252 -0.965925826289069
  outer loop
    vertex -20.0 51.2940952255126 14.8296291314453
    vertex -7.0 50.0 15.0
    vertex -20.0 50.0 15.0
  endloop
endfacet
facet normal -2.77555756156289e-016 0.0 -1.0
  outer loop
    vertex -7.0 50.0 15.0
    vertex -20.0 51.2940952255126 14.8296291314453
    vertex -7.0 51.2940952255126 14.8296291314453
  endloop
endfacet
facet normal 1.38777878078145e-016 -0.866025403784439 0.5
  outer loop
    vertex -20.0 54.3301270189222 7.5
    vertex -7.0 53.5355339059327 6.46446609406726
    vertex -7.0 54.3301270189222 7.5
  endloop
endfacet
facet normal 1.96261557335472e-016 -0.707106781186548 0.707106781186547
  outer loop
    vertex -7.0 53.5355339059327 6.46446609406726
    vertex -20.0 54.3301270189222 7.5
    vertex -20.0 53.5355339059327 6.46446609406727
  endloop
endfacet
facet normal -7.18367157710793e-017 -0.965925826289068 -0.258819045102522
  outer loop
    vertex -20.0 54.8296291314453 11.2940952255126
    vertex -7.0 55.0 10.0
    vertex -7.0 54.8296291314453 11.2940952255126
  endloop
endfacet
facet normal 1.13525839898263e-030 -1.0 4.09019944210193e-015
  outer loop
    vertex -7.0 55.0 10.0
    vertex -20.0 54.8296291314453 11.2940952255126
    vertex -20.0 55.0 10.0
  endloop
endfacet
facet normal -2.40370335797945e-016 -0.5 -0.866025403784438
  outer loop
    vertex -20.0 52.5 14.3301270189222
    vertex -7.0 51.2940952255126 14.8296291314453
    vertex -20.0 51.2940952255126 14.8296291314453
  endloop
endfacet
facet normal -2.68098273106551e-016 -0.25881904510252 -0.965925826289069
  outer loop
    vertex -7.0 51.2940952255126 14.8296291314453
    vertex -20.0 52.5 14.3301270189222
    vertex -7.0 52.5 14.3301270189222
  endloop
endfacet
facet normal -1.96261557335471e-016 -0.707106781186549 -0.707106781186546
  outer loop
    vertex -20.0 53.5355339059327 13.5355339059327
    vertex -7.0 52.5 14.3301270189222
    vertex -20.0 52.5 14.3301270189222
  endloop
endfacet
facet normal -2.40370335797945e-016 -0.5 -0.866025403784438
  outer loop
    vertex -7.0 52.5 14.3301270189222
    vertex -20.0 53.5355339059327 13.5355339059327
    vertex -7.0 53.5355339059327 13.5355339059327
  endloop
endfacet
facet normal -2.68098273106551e-016 0.25881904510252 -0.965925826289068
  outer loop
    vertex -20.0 48.7059047744874 14.8296291314453
    vertex -7.0 47.5 14.3301270189222
    vertex -20.0 47.5 14.3301270189222
  endloop
endfacet
facet normal -2.40370335797946e-016 0.499999999999999 -0.866025403784439
  outer loop
    vertex -7.0 47.5 14.3301270189222
    vertex -20.0 48.7059047744874 14.8296291314453
    vertex -7.0 48.7059047744874 14.8296291314453
  endloop
endfacet
facet normal -1.38777878078145e-016 -0.866025403784437 -0.500000000000003
  outer loop
    vertex -20.0 54.3301270189222 12.5
    vertex -7.0 54.8296291314453 11.2940952255126
    vertex -7.0 54.3301270189222 12.5
  endloop
endfacet
facet normal -7.18367157710793e-017 -0.965925826289068 -0.258819045102522
  outer loop
    vertex -7.0 54.8296291314453 11.2940952255126
    vertex -20.0 54.3301270189222 12.5
    vertex -20.0 54.8296291314453 11.2940952255126
  endloop
endfacet
facet normal 2.40370335797945e-016 -0.5 0.866025403784439
  outer loop
    vertex -7.0 52.5 5.6698729810778
    vertex -20.0 51.2940952255126 5.17037086855466
    vertex -7.0 51.2940952255126 5.17037086855466
  endloop
endfacet
facet normal 2.68098273106551e-016 -0.258819045102521 0.965925826289068
  outer loop
    vertex -20.0 51.2940952255126 5.17037086855466
    vertex -7.0 52.5 5.6698729810778
    vertex -20.0 52.5 5.66987298107781
  endloop
endfacet
facet normal 1.38777878078144e-016 0.866025403784439 0.5
  outer loop
    vertex -20.0 45.6698729810778 7.50000000000001
    vertex -7.0 45.1703708685547 8.7059047744874
    vertex -7.0 45.6698729810778 7.5
  endloop
endfacet
facet normal 7.18367157710788e-017 0.965925826289068 0.258819045102521
  outer loop
    vertex -7.0 45.1703708685547 8.7059047744874
    vertex -20.0 45.6698729810778 7.50000000000001
    vertex -20.0 45.1703708685547 8.7059047744874
  endloop
endfacet
facet normal 2.68098273106551e-016 -0.258819045102521 0.965925826289068
  outer loop
    vertex -7.0 51.2940952255126 5.17037086855466
    vertex -20.0 50.0 5.0
    vertex -7.0 50.0 5.0
  endloop
endfacet
facet normal 2.77555756156289e-016 2.49511077078113e-016 1.0
  outer loop
    vertex -20.0 50.0 5.0
    vertex -7.0 51.2940952255126 5.17037086855466
    vertex -20.0 51.2940952255126 5.17037086855466
  endloop
endfacet
facet normal 1.96261557335472e-016 -0.707106781186548 0.707106781186547
  outer loop
    vertex -7.0 53.5355339059327 6.46446609406726
    vertex -20.0 52.5 5.66987298107781
    vertex -7.0 52.5 5.6698729810778
  endloop
endfacet
facet normal 2.40370335797945e-016 -0.5 0.866025403784439
  outer loop
    vertex -20.0 52.5 5.66987298107781
    vertex -7.0 53.5355339059327 6.46446609406726
    vertex -20.0 53.5355339059327 6.46446609406727
  endloop
endfacet
facet normal 7.18367157710794e-017 -0.965925826289068 0.258819045102523
  outer loop
    vertex -20.0 54.8296291314453 8.7059047744874
    vertex -7.0 54.3301270189222 7.5
    vertex -7.0 54.8296291314453 8.70590477448739
  endloop
endfacet
facet normal 1.38777878078145e-016 -0.866025403784439 0.5
  outer loop
    vertex -7.0 54.3301270189222 7.5
    vertex -20.0 54.8296291314453 8.7059047744874
    vertex -20.0 54.3301270189222 7.5
  endloop
endfacet
facet normal -1.96261557335471e-016 -0.707106781186549 -0.707106781186546
  outer loop
    vertex -20.0 53.5355339059327 13.5355339059327
    vertex -7.0 54.3301270189222 12.5
    vertex -7.0 53.5355339059327 13.5355339059327
  endloop
endfacet
facet normal -1.38777878078145e-016 -0.866025403784437 -0.500000000000003
  outer loop
    vertex -7.0 54.3301270189222 12.5
    vertex -20.0 53.5355339059327 13.5355339059327
    vertex -20.0 54.3301270189222 12.5
  endloop
endfacet
facet normal -2.77555756156289e-016 0.0 -1.0
  outer loop
    vertex -20.0 50.0 15.0
    vertex -7.0 48.7059047744874 14.8296291314453
    vertex -20.0 48.7059047744874 14.8296291314453
  endloop
endfacet
facet normal -2.68098273106551e-016 0.25881904510252 -0.965925826289068
  outer loop
    vertex -7.0 48.7059047744874 14.8296291314453
    vertex -20.0 50.0 15.0
    vertex -7.0 50.0 15.0
  endloop
endfacet
facet normal 7.18367157710788e-017 0.965925826289068 0.258819045102521
  outer loop
    vertex -20.0 45.1703708685547 8.7059047744874
    vertex -7.0 45.0 10.0
    vertex -7.0 45.1703708685547 8.7059047744874
  endloop
endfacet
facet normal 4.20466073697271e-032 1.0 1.51488868225997e-016
  outer loop
    vertex -7.0 45.0 10.0
    vertex -20.0 45.1703708685547 8.7059047744874
    vertex -20.0 45.0 10.0
  endloop
endfacet
facet normal 4.20466073697271e-032 1.0 1.51488868225997e-016
  outer loop
    vertex -20.0 45.0 10.0
    vertex -7.0 45.1703708685547 11.2940952255126
    vertex -7.0 45.0 10.0
  endloop
endfacet
facet normal -7.18367157710787e-017 0.965925826289068 -0.25881904510252
  outer loop
    vertex -7.0 45.1703708685547 11.2940952255126
    vertex -20.0 45.0 10.0
    vertex -20.0 45.1703708685547 11.2940952255126
  endloop
endfacet
facet normal 1.96261557335472e-016 0.707106781186548 0.707106781186548
  outer loop
    vertex -20.0 46.4644660940673 6.46446609406727
    vertex -7.0 45.6698729810778 7.5
    vertex -7.0 46.4644660940673 6.46446609406726
  endloop
endfacet
facet normal 1.38777878078144e-016 0.866025403784439 0.5
  outer loop
    vertex -7.0 45.6698729810778 7.5
    vertex -20.0 46.4644660940673 6.46446609406727
    vertex -20.0 45.6698729810778 7.50000000000001
  endloop
endfacet
facet normal 2.40370335797945e-016 0.500000000000001 0.866025403784438
  outer loop
    vertex -7.0 47.5 5.66987298107781
    vertex -20.0 46.4644660940673 6.46446609406727
    vertex -7.0 46.4644660940673 6.46446609406726
  endloop
endfacet
facet normal 1.96261557335472e-016 0.707106781186548 0.707106781186548
  outer loop
    vertex -20.0 46.4644660940673 6.46446609406727
    vertex -7.0 47.5 5.66987298107781
    vertex -20.0 47.5 5.66987298107781
  endloop
endfacet
facet normal 2.68098273106551e-016 0.258819045102522 0.965925826289068
  outer loop
    vertex -7.0 48.7059047744874 5.17037086855466
    vertex -20.0 47.5 5.66987298107781
    vertex -7.0 47.5 5.66987298107781
  endloop
endfacet
facet normal 2.40370335797945e-016 0.500000000000001 0.866025403784438
  outer loop
    vertex -20.0 47.5 5.66987298107781
    vertex -7.0 48.7059047744874 5.17037086855466
    vertex -20.0 48.7059047744874 5.17037086855466
  endloop
endfacet
facet normal 2.77555756156289e-016 2.49511077078113e-016 1.0
  outer loop
    vertex -7.0 50.0 5.0
    vertex -20.0 48.7059047744874 5.17037086855466
    vertex -7.0 48.7059047744874 5.17037086855466
  endloop
endfacet
facet normal 2.68098273106551e-016 0.258819045102522 0.965925826289068
  outer loop
    vertex -20.0 48.7059047744874 5.17037086855466
    vertex -7.0 50.0 5.0
    vertex -20.0 50.0 5.0
  endloop
endfacet
facet normal -7.18367157710787e-017 0.965925826289068 -0.25881904510252
  outer loop
    vertex -20.0 45.1703708685547 11.2940952255126
    vertex -7.0 45.6698729810778 12.5
    vertex -7.0 45.1703708685547 11.2940952255126
  endloop
endfacet
facet normal -1.38777878078144e-016 0.866025403784439 -0.5
  outer loop
    vertex -7.0 45.6698729810778 12.5
    vertex -20.0 45.1703708685547 11.2940952255126
    vertex -20.0 45.6698729810778 12.5
  endloop
endfacet
facet normal -2.40370335797946e-016 0.499999999999999 -0.866025403784439
  outer loop
    vertex -20.0 47.5 14.3301270189222
    vertex -7.0 46.4644660940673 13.5355339059327
    vertex -20.0 46.4644660940673 13.5355339059327
  endloop
endfacet
facet normal -1.96261557335472e-016 0.707106781186547 -0.707106781186548
  outer loop
    vertex -7.0 46.4644660940673 13.5355339059327
    vertex -20.0 47.5 14.3301270189222
    vertex -7.0 47.5 14.3301270189222
  endloop
endfacet
facet normal -1.0 0.0 2.77555756156289e-016
  outer loop
    vertex -20.0 35.0 5.55111512312578e-015
    vertex -20.0 48.7059047744874 5.17037086855466
    vertex -20.0 65.0 5.55111512312578e-015
  endloop
endfacet
facet normal -1.0 0.0 2.77555756156289e-016
  outer loop
    vertex -20.0 48.7059047744874 5.17037086855466
    vertex -20.0 35.0 5.55111512312578e-015
    vertex -20.0 47.5 5.66987298107781
  endloop
endfacet
facet normal -1.0 0.0 2.77555756156289e-016
  outer loop
    vertex -20.0 47.5 5.66987298107781
    vertex -20.0 35.0 5.55111512312578e-015
    vertex -20.0 46.4644660940673 6.46446609406727
  endloop
endfacet
facet normal -1.0 0.0 2.77555756156289e-016
  outer loop
    vertex -20.0 46.4644660940673 6.46446609406727
    vertex -20.0 35.0 5.55111512312578e-015
    vertex -20.0 35.0 20.0
  endloop
endfacet
facet normal -1.0 0.0 2.77555756156289e-016
  outer loop
    vertex -20.0 65.0 5.55111512312578e-015
    vertex -20.0 48.7059047744874 5.17037086855466
    vertex -20.0 50.0 5.0
  endloop
endfacet
facet normal -1.0 0.0 2.77555756156289e-016
  outer loop
    vertex -20.0 46.4644660940673 6.46446609406727
    vertex -20.0 35.0 20.0
    vertex -20.0 45.6698729810778 7.50000000000001
  endloop
endfacet
facet normal -1.0 0.0 2.77555756156289e-016
  outer loop
    vertex -20.0 45.6698729810778 7.50000000000001
    vertex -20.0 35.0 20.0
    vertex -20.0 45.1703708685547 8.7059047744874
  endloop
endfacet
facet normal -1.0 0.0 2.77555756156289e-016
  outer loop
    vertex -20.0 45.1703708685547 8.7059047744874
    vertex -20.0 35.0 20.0
    vertex -20.0 45.0 10.0
  endloop
endfacet
facet normal -1.0 0.0 2.77555756156289e-016
  outer loop
    vertex -20.0 45.0 10.0
    vertex -20.0 35.0 20.0
    vertex -20.0 45.1703708685547 11.2940952255126
  endloop
endfacet
facet normal -1.0 0.0 2.77555756156289e-016
  outer loop
    vertex -20.0 45.1703708685547 11.2940952255126
    vertex -20.0 35.0 20.0
    vertex -20.0 45.6698729810778 12.5
  endloop
endfacet
facet normal -1.0 0.0 2.77555756156289e-016
  outer loop
    vertex -20.0 45.6698729810778 12.5
    vertex -20.0 35.0 20.0
    vertex -20.0 46.4644660940673 13.5355339059327
  endloop
endfacet
facet normal -1.0 0.0 2.77555756156289e-016
  outer loop
    vertex -20.0 46.4644660940673 13.5355339059327
    vertex -20.0 35.0 20.0
    vertex -20.0 47.5 14.3301270189222
  endloop
endfacet
facet normal -1.0 0.0 2.77555756156289e-016
  outer loop
    vertex -20.0 47.5 14.3301270189222
    vertex -20.0 35.0 20.0
    vertex -20.0 48.7059047744874 14.8296291314453
  endloop
endfacet
facet normal -1.0 0.0 2.77555756156289e-016
  outer loop
    vertex -20.0 48.7059047744874 14.8296291314453
    vertex -20.0 35.0 20.0
    vertex -20.0 50.0 15.0
  endloop
endfacet
facet normal -1.0 0.0 2.77555756156289e-016
  outer loop
    vertex -20.0 65.0 5.55111512312578e-015
    vertex -20.0 53.5355339059327 6.46446609406727
    vertex -20.0 65.0 20.0
  endloop
endfacet
facet normal -1.0 0.0 2.77555756156289e-016
  outer loop
    vertex -20.0 53.5355339059327 6.46446609406727
    vertex -20.0 65.0 5.55111512312578e-015
    vertex -20.0 52.5 5.66987298107781
  endloop
endfacet
facet normal -1.0 0.0 2.77555756156289e-016
  outer loop
    vertex -20.0 52.5 5.66987298107781
    vertex -20.0 65.0 5.55111512312578e-015
    vertex -20.0 51.2940952255126 5.17037086855466
  endloop
endfacet
facet normal -1.0 0.0 2.77555756156289e-016
  outer loop
    vertex -20.0 51.2940952255126 5.17037086855466
    vertex -20.0 65.0 5.55111512312578e-015
    vertex -20.0 50.0 5.0
  endloop
endfacet
facet normal -1.0 0.0 2.77555756156289e-016
  outer loop
    vertex -20.0 65.0 20.0
    vertex -20.0 53.5355339059327 6.46446609406727
    vertex -20.0 54.3301270189222 7.5
  endloop
endfacet
facet normal -1.0 0.0 2.77555756156289e-016
  outer loop
    vertex -20.0 65.0 20.0
    vertex -20.0 54.3301270189222 7.5
    vertex -20.0 54.8296291314453 8.7059047744874
  endloop
endfacet
facet normal -1.0 0.0 2.77555756156289e-016
  outer loop
    vertex -20.0 65.0 20.0
    vertex -20.0 54.8296291314453 8.7059047744874
    vertex -20.0 55.0 10.0
  endloop
endfacet
facet normal -1.0 0.0 2.77555756156289e-016
  outer loop
    vertex -20.0 65.0 20.0
    vertex -20.0 55.0 10.0
    vertex -20.0 54.8296291314453 11.2940952255126
  endloop
endfacet
facet normal -1.0 0.0 2.77555756156289e-016
  outer loop
    vertex -20.0 65.0 20.0
    vertex -20.0 54.8296291314453 11.2940952255126
    vertex -20.0 54.3301270189222 12.5
  endloop
endfacet
facet normal -1.0 0.0 2.77555756156289e-016
  outer loop
    vertex -20.0 65.0 20.0
    vertex -20.0 54.3301270189222 12.5
    vertex -20.0 53.5355339059327 13.5355339059327
  endloop
endfacet
facet normal -1.0 0.0 2.77555756156289e-016
  outer loop
    vertex -20.0 65.0 20.0
    vertex -20.0 53.5355339059327 13.5355339059327
    vertex -20.0 52.5 14.3301270189222
  endloop
endfacet
facet normal -1.0 0.0 2.77555756156289e-016
  outer loop
    vertex -20.0 65.0 20.0
    vertex -20.0 52.5 14.3301270189222
    vertex -20.0 51.2940952255126 14.8296291314453
  endloop
endfacet
facet normal -1.0 0.0 2.77555756156289e-016
  outer loop
    vertex -20.0 65.0 20.0
    vertex -20.0 51.2940952255126 14.8296291314453
    vertex -20.0 50.0 15.0
  endloop
endfacet
facet normal -1.0 0.0 2.77555756156289e-016
  outer loop
    vertex -20.0 65.0 20.0
    vertex -20.0 50.0 15.0
    vertex -20.0 35.0 20.0
  endloop
endfacet
facet normal -1.0 0.0 2.77555756156289e-016
  outer loop
    vertex -20.0 65.0 20.0
    vertex -20.0 35.0 20.0
    vertex -20.0 50.0 20.0
  endloop
endfacet
facet normal -2.89873704530272e-016 -4.39176189772448e-018 -1.0
  outer loop
    vertex -20.0 65.0 5.55111512312578e-015
    vertex -18.0 35.3594322161829 4.97136771406524e-015
    vertex -20.0 35.0 5.55111512312578e-015
  endloop
endfacet
facet normal -2.89873704530272e-016 -4.39176189772448e-018 -1.0
  outer loop
    vertex -18.0 35.3594322161829 4.97136771406524e-015
    vertex -20.0 65.0 5.55111512312578e-015
    vertex -18.0 64.1032506187253 4.28663800522837e-015
  endloop
endfacet
facet normal -2.89873704530272e-016 -4.39176189772448e-018 -1.0
  outer loop
    vertex -18.0 64.1032506187253 4.28663800522837e-015
    vertex -20.0 65.0 5.55111512312578e-015
    vertex -15.5785408906754 64.1032506187253 3.18565927504102e-015
  endloop
endfacet
facet normal -2.89873704530272e-016 -4.39176189772448e-018 -1.0
  outer loop
    vertex -15.5785408906754 64.1032506187253 3.18565927504102e-015
    vertex -20.0 65.0 5.55111512312578e-015
    vertex -9.0 64.1032506187253 1.11271567024186e-015
  endloop
endfacet
facet normal -2.89873704530272e-016 -4.39176189772448e-018 -1.0
  outer loop
    vertex -9.0 64.1032506187253 1.11271567024186e-015
    vertex -20.0 65.0 5.55111512312578e-015
    vertex -9.0 65.339891457262 1.11265446088062e-015
  endloop
endfacet
facet normal -2.89873704530272e-016 -4.39176189772448e-018 -1.0
  outer loop
    vertex -9.0 65.339891457262 1.11265446088062e-015
    vertex -20.0 65.0 5.55111512312578e-015
    vertex -17.7402512070062 65.339891457262 3.53856149363714e-015
  endloop
endfacet
facet normal -2.89873704530272e-016 -4.39176189772448e-018 -1.0
  outer loop
    vertex -9.0 65.339891457262 1.11265446088062e-015
    vertex -17.7402512070062 65.339891457262 3.53856149363714e-015
    vertex -10.3 65.339891457262 1.47347694388379e-015
  endloop
endfacet
facet normal -2.89873704530272e-016 -4.39176189772448e-018 -1.0
  outer loop
    vertex -1.0 1.875 2.77555756156289e-016
    vertex -3.0 2.0 8.33128064681817e-016
    vertex -1.0 3.75 2.77555756156289e-016
  endloop
endfacet
facet normal -2.89873704530272e-016 -4.39176189772448e-018 -1.0
  outer loop
    vertex -3.0 2.0 8.33128064681817e-016
    vertex -1.0 1.875 2.77555756156289e-016
    vertex -5.60935374827492 2.0 1.53075580427237e-015
  endloop
endfacet
facet normal -2.89873704530272e-016 -4.39176189772448e-018 -1.0
  outer loop
    vertex -1.0 3.75 2.77555756156289e-016
    vertex -3.0 2.0 8.33128064681817e-016
    vertex -3.0 7.375 4.88954981945829e-016
  endloop
endfacet
facet normal -2.89873704530272e-016 -4.39176189772448e-018 -1.0
  outer loop
    vertex -1.0 3.75 2.77555756156289e-016
    vertex -3.0 7.375 4.88954981945829e-016
    vertex -6.9517541003614e-047 3.75 0.0
  endloop
endfacet
facet normal -2.89873704530272e-016 -4.39176189772448e-018 -1.0
  outer loop
    vertex -6.9517541003614e-047 3.75 0.0
    vertex -3.0 7.375 4.88954981945829e-016
    vertex -1.0 5.625 2.77555756156289e-016
  endloop
endfacet
facet normal -2.89873704530272e-016 -4.39176189772448e-018 -1.0
  outer loop
    vertex -1.0 5.625 2.77555756156289e-016
    vertex -3.0 7.375 4.88954981945829e-016
    vertex -1.0 7.5 2.77555756156289e-016
  endloop
endfacet
facet normal -2.89873704530272e-016 -4.39176189772448e-018 -1.0
  outer loop
    vertex -1.0 7.5 2.77555756156289e-016
    vertex -3.0 7.375 4.88954981945829e-016
    vertex -3.0 17.5172513998808 1.24025937451924e-016
  endloop
endfacet
facet normal -2.89873704530272e-016 -4.39176189772448e-018 -1.0
  outer loop
    vertex -1.0 7.5 2.77555756156289e-016
    vertex -3.0 17.5172513998808 1.24025937451924e-016
    vertex -1.0 9.375 -7.49400541621981e-017
  endloop
endfacet
facet normal -2.89873704530272e-016 -4.39176189772448e-018 -1.0
  outer loop
    vertex -1.0 7.5 2.77555756156289e-016
    vertex -1.0 9.375 -7.49400541621981e-017
    vertex -6.9517541003614e-047 7.5 0.0
  endloop
endfacet
facet normal -2.89873704530272e-016 -4.39176189772448e-018 -1.0
  outer loop
    vertex -1.0 9.375 -7.49400541621981e-017
    vertex -3.0 17.5172513998808 1.24025937451924e-016
    vertex -1.0 11.25 -4.27435864480685e-016
  endloop
endfacet
facet normal -2.89873704530272e-016 -4.39176189772448e-018 -1.0
  outer loop
    vertex -1.0 11.25 -4.27435864480685e-016
    vertex -3.0 17.5172513998808 1.24025937451924e-016
    vertex -1.0 13.125 -7.79931674799172e-016
  endloop
endfacet
facet normal -2.89873704530272e-016 -4.39176189772448e-018 -1.0
  outer loop
    vertex -1.0 11.25 -4.27435864480685e-016
    vertex -1.0 13.125 -7.79931674799172e-016
    vertex -1.95674482349743e-031 11.25 -7.04991620636974e-016
  endloop
endfacet
facet normal -2.89873704530272e-016 -4.39176189772448e-018 -1.0
  outer loop
    vertex -1.0 13.125 -7.79931674799172e-016
    vertex -3.0 17.5172513998808 1.24025937451924e-016
    vertex -1.0 15.0 -1.13242748511766e-015
  endloop
endfacet
facet normal -2.89873704530272e-016 -4.39176189772448e-018 -1.0
  outer loop
    vertex -1.0 15.0 -1.13242748511766e-015
    vertex -3.0 17.5172513998808 1.24025937451924e-016
    vertex -3.91348964699486e-031 15.0 -1.40998324127395e-015
  endloop
endfacet
facet normal -2.89873704530272e-016 -4.39176189772448e-018 -1.0
  outer loop
    vertex -3.91348964699486e-031 15.0 -1.40998324127395e-015
    vertex -3.0 17.5172513998808 1.24025937451924e-016
    vertex -7.0 35.0 5.32907051820075e-016
  endloop
endfacet
facet normal -2.89873704530272e-016 -4.39176189772448e-018 -1.0
  outer loop
    vertex -7.0 35.0 5.32907051820075e-016
    vertex -3.0 17.5172513998808 1.24025937451924e-016
    vertex -3.31116357835597 18.4062901951836 1.7537555473382e-016
  endloop
endfacet
facet normal -2.89873704530272e-016 -4.39176189772448e-018 -1.0
  outer loop
    vertex -7.0 35.0 5.32907051820075e-016
    vertex -3.31116357835597 18.4062901951836 1.7537555473382e-016
    vertex -9.0 34.660108542738 1.11417300196123e-015
  endloop
endfacet
facet normal -2.89873704530272e-016 -4.39176189772448e-018 -1.0
  outer loop
    vertex -7.0 35.0 5.32907051820075e-016
    vertex -9.0 34.660108542738 1.11417300196123e-015
    vertex -9.0 35.3594322161829 2.47336590865864e-015
  endloop
endfacet
facet normal -2.89873704530272e-016 -4.39176189772448e-018 -1.0
  outer loop
    vertex -7.0 35.0 5.32907051820075e-016
    vertex -9.0 35.3594322161829 2.47336590865864e-015
    vertex -7.0 65.0 5.32907051820075e-016
  endloop
endfacet
facet normal -2.89873704530272e-016 -4.39176189772448e-018 -1.0
  outer loop
    vertex -7.0 65.0 5.32907051820075e-016
    vertex -9.0 35.3594322161829 2.47336590865864e-015
    vertex -9.0 40.5080256529399 1.45076860458208e-015
  endloop
endfacet
facet normal -2.89873704530272e-016 -4.39176189772448e-018 -1.0
  outer loop
    vertex -7.0 65.0 5.32907051820075e-016
    vertex -9.0 40.5080256529399 1.45076860458208e-015
    vertex -9.0 58.9546571819682 1.28195063985856e-015
  endloop
endfacet
facet normal -2.89873704530272e-016 -4.39176189772448e-018 -1.0
  outer loop
    vertex -7.0 65.0 5.32907051820075e-016
    vertex -9.0 58.9546571819682 1.28195063985856e-015
    vertex -9.0 60.339891457262 1.11290194325115e-015
  endloop
endfacet
facet normal -2.89873704530272e-016 -4.39176189772448e-018 -1.0
  outer loop
    vertex -7.0 65.0 5.32907051820075e-016
    vertex -9.0 60.339891457262 1.11290194325115e-015
    vertex -9.0 64.1032506187253 1.11271567024186e-015
  endloop
endfacet
facet normal -2.89873704530272e-016 -4.39176189772448e-018 -1.0
  outer loop
    vertex -7.0 65.0 5.32907051820075e-016
    vertex -9.0 64.1032506187253 1.11271567024186e-015
    vertex -9.0 65.339891457262 1.11265446088062e-015
  endloop
endfacet
facet normal -2.89873704530272e-016 -4.39176189772448e-018 -1.0
  outer loop
    vertex -7.0 65.0 5.32907051820075e-016
    vertex -9.0 65.339891457262 1.11265446088062e-015
    vertex -3.91348964699486e-031 85.0 -1.40998324127395e-015
  endloop
endfacet
facet normal -2.89873704530272e-016 -4.39176189772448e-018 -1.0
  outer loop
    vertex -3.91348964699486e-031 85.0 -1.40998324127395e-015
    vertex -9.0 65.339891457262 1.11265446088062e-015
    vertex -3.43849125632869 81.2299164391801 -4.40248868920797e-016
  endloop
endfacet
facet normal -2.89873704530272e-016 -4.39176189772448e-018 -1.0
  outer loop
    vertex -3.91348964699486e-031 85.0 -1.40998324127395e-015
    vertex -3.43849125632869 81.2299164391801 -4.40248868920797e-016
    vertex -3.0 82.4827486001192 -5.62685884382921e-016
  endloop
endfacet
facet normal -2.89873704530272e-016 -4.39176189772448e-018 -1.0
  outer loop
    vertex -3.0 82.4827486001192 -5.62685884382921e-016
    vertex -3.43849125632869 81.2299164391801 -4.40248868920797e-016
    vertex -11.3729042682307 82.4827486001192 2.15131676408836e-015
  endloop
endfacet
facet normal -2.89873704530272e-016 -4.39176189772448e-018 -1.0
  outer loop
    vertex -3.0 82.4827486001192 -5.62685884382921e-016
    vertex -11.3729042682307 82.4827486001192 2.15131676408836e-015
    vertex -4.14561741094928 82.4827486001192 -1.91344162580554e-016
  endloop
endfacet
facet normal -2.89873704530272e-016 -4.39176189772448e-018 -1.0
  outer loop
    vertex -3.91348964699486e-031 85.0 -1.40998324127395e-015
    vertex -3.0 82.4827486001192 -5.62685884382921e-016
    vertex -1.0 85.0 -1.13242748511766e-015
  endloop
endfacet
facet normal -2.89873704530272e-016 -4.39176189772448e-018 -1.0
  outer loop
    vertex -12.3398044923199 79.8795556891098 2.19656197590199e-015
    vertex -9.0 65.339891457262 1.11265446088062e-015
    vertex -10.3 65.339891457262 1.47347694388379e-015
  endloop
endfacet
facet normal -2.89873704530272e-016 -4.39176189772448e-018 -1.0
  outer loop
    vertex -9.0 65.339891457262 1.11265446088062e-015
    vertex -12.3398044923199 79.8795556891098 2.19656197590199e-015
    vertex -11.19948797261 81.2299164391801 1.97814869917917e-015
  endloop
endfacet
facet normal -2.89873704530272e-016 -4.39176189772448e-018 -1.0
  outer loop
    vertex -7.0 0.0 1.94289029309402e-015
    vertex -5.60935374827492 2.0 1.53075580427237e-015
    vertex -6.9517541003614e-047 0.0 0.0
  endloop
endfacet
facet normal -2.89873704530272e-016 -4.39176189772448e-018 -1.0
  outer loop
    vertex -5.60935374827492 2.0 1.53075580427237e-015
    vertex -7.0 0.0 1.94289029309402e-015
    vertex -20.0 35.0 5.55111512312578e-015
  endloop
endfacet
facet normal -2.89873704530272e-016 -4.39176189772448e-018 -1.0
  outer loop
    vertex -6.9517541003614e-047 0.0 0.0
    vertex -5.60935374827492 2.0 1.53075580427237e-015
    vertex -1.0 1.875 2.77555756156289e-016
  endloop
endfacet
facet normal -2.89873704530272e-016 -4.39176189772448e-018 -1.0
  outer loop
    vertex -5.60935374827492 2.0 1.53075580427237e-015
    vertex -20.0 35.0 5.55111512312578e-015
    vertex -6.26219482919175 3.75764906400686 1.67334259258429e-015
  endloop
endfacet
facet normal -2.89873704530272e-016 -4.39176189772448e-018 -1.0
  outer loop
    vertex -6.26219482919175 3.75764906400686 1.67334259258429e-015
    vertex -20.0 35.0 5.55111512312578e-015
    vertex -11.3729042682307 17.5172513998808 2.7895708236334e-015
  endloop
endfacet
facet normal -2.89873704530272e-016 -4.39176189772448e-018 -1.0
  outer loop
    vertex -11.3729042682307 17.5172513998808 2.7895708236334e-015
    vertex -20.0 35.0 5.55111512312578e-015
    vertex -12.0205783707573 19.2609893682218 2.81285925715978e-015
  endloop
endfacet
facet normal -2.89873704530272e-016 -4.39176189772448e-018 -1.0
  outer loop
    vertex -11.3729042682307 17.5172513998808 2.7895708236334e-015
    vertex -12.0205783707573 19.2609893682218 2.81285925715978e-015
    vertex -11.2498440376975 18.4062901951836 2.62559267384354e-015
  endloop
endfacet
facet normal -2.89873704530272e-016 -4.39176189772448e-018 -1.0
  outer loop
    vertex -11.3729042682307 17.5172513998808 2.7895708236334e-015
    vertex -11.2498440376975 18.4062901951836 2.62559267384354e-015
    vertex -3.94840426122037 17.5172513998808 4.25953924150725e-016
  endloop
endfacet
facet normal -2.89873704530272e-016 -4.39176189772448e-018 -1.0
  outer loop
    vertex -3.94840426122037 17.5172513998808 4.25953924150725e-016
    vertex -11.2498440376975 18.4062901951836 2.62559267384354e-015
    vertex -3.0 17.5172513998808 1.24025937451924e-016
  endloop
endfacet
facet normal -2.89873704530272e-016 -4.39176189772448e-018 -1.0
  outer loop
    vertex -12.0205783707573 19.2609893682218 2.81285925715978e-015
    vertex -20.0 35.0 5.55111512312578e-015
    vertex -17.6366503641155 34.3811831964939 3.89085933113207e-015
  endloop
endfacet
facet normal -2.89873704530272e-016 -4.39176189772448e-018 -1.0
  outer loop
    vertex -17.6366503641155 34.3811831964939 3.89085933113207e-015
    vertex -20.0 35.0 5.55111512312578e-015
    vertex -11.3338320366537 34.3811831964939 1.89885814558353e-015
  endloop
endfacet
facet normal -2.89873704530272e-016 -4.39176189772448e-018 -1.0
  outer loop
    vertex -11.3338320366537 34.3811831964939 1.89885814558353e-015
    vertex -20.0 35.0 5.55111512312578e-015
    vertex -9.92764997658172 34.3811831964939 1.45443531991586e-015
  endloop
endfacet
facet normal -2.89873704530272e-016 -4.39176189772448e-018 -1.0
  outer loop
    vertex -9.92764997658172 34.3811831964939 1.45443531991586e-015
    vertex -20.0 35.0 5.55111512312578e-015
    vertex -9.03860868343618 34.3811831964939 1.20095778461426e-015
  endloop
endfacet
facet normal -2.89873704530272e-016 -4.39176189772448e-018 -1.0
  outer loop
    vertex -9.03860868343618 34.3811831964939 1.20095778461426e-015
    vertex -20.0 35.0 5.55111512312578e-015
    vertex -9.0 34.660108542738 1.11417300196123e-015
  endloop
endfacet
facet normal -2.89873704530272e-016 -4.39176189772448e-018 -1.0
  outer loop
    vertex -9.0 34.660108542738 1.11417300196123e-015
    vertex -20.0 35.0 5.55111512312578e-015
    vertex -9.0 35.3594322161829 2.47336590865864e-015
  endloop
endfacet
facet normal -2.89873704530272e-016 -4.39176189772448e-018 -1.0
  outer loop
    vertex -9.0 35.3594322161829 2.47336590865864e-015
    vertex -20.0 35.0 5.55111512312578e-015
    vertex -18.0 35.3594322161829 4.97136771406524e-015
  endloop
endfacet
facet normal -2.89873704530272e-016 -4.39176189772448e-018 -1.0
  outer loop
    vertex -9.0 35.3594322161829 2.47336590865864e-015
    vertex -18.0 35.3594322161829 4.97136771406524e-015
    vertex -16.5177982908232 35.3594322161829 4.16974687476569e-015
  endloop
endfacet
facet normal -2.89873704530272e-016 -4.39176189772448e-018 -1.0
  outer loop
    vertex -3.31116357835597 18.4062901951836 1.7537555473382e-016
    vertex -3.0 17.5172513998808 1.24025937451924e-016
    vertex -11.2498440376975 18.4062901951836 2.62559267384354e-015
  endloop
endfacet
facet normal -2.89873704530272e-016 -4.39176189772448e-018 -1.0
  outer loop
    vertex -6.26219482919175 3.75764906400686 1.67334259258429e-015
    vertex -3.0 17.5172513998808 1.24025937451924e-016
    vertex -5.60935374827492 2.0 1.53075580427237e-015
  endloop
endfacet
facet normal -2.89873704530272e-016 -4.39176189772448e-018 -1.0
  outer loop
    vertex -3.0 17.5172513998808 1.24025937451924e-016
    vertex -6.26219482919175 3.75764906400686 1.67334259258429e-015
    vertex -3.94840426122037 17.5172513998808 4.25953924150725e-016
  endloop
endfacet
facet normal -2.89873704530272e-016 -4.39176189772448e-018 -1.0
  outer loop
    vertex -12.0205783707573 19.2609893682218 2.81285925715978e-015
    vertex -9.03860868343618 34.3811831964939 1.20095778461426e-015
    vertex -11.2498440376975 18.4062901951836 2.62559267384354e-015
  endloop
endfacet
facet normal -2.89873704530272e-016 -4.39176189772448e-018 -1.0
  outer loop
    vertex -9.03860868343618 34.3811831964939 1.20095778461426e-015
    vertex -12.0205783707573 19.2609893682218 2.81285925715978e-015
    vertex -9.92764997658172 34.3811831964939 1.45443531991586e-015
  endloop
endfacet
facet normal -2.89873704530272e-016 -4.39176189772448e-018 -1.0
  outer loop
    vertex -6.34423206194037 96.0214814632084 6.54554565049235e-016
    vertex -3.0 82.4827486001192 -5.62685884382921e-016
    vertex -4.14561741094928 82.4827486001192 -1.91344162580554e-016
  endloop
endfacet
facet normal -2.89873704530272e-016 -4.39176189772448e-018 -1.0
  outer loop
    vertex -3.0 82.4827486001192 -5.62685884382921e-016
    vertex -6.34423206194037 96.0214814632084 6.54554565049235e-016
    vertex -5.60935374827492 98.0 4.35821262168174e-016
  endloop
endfacet
facet normal -2.89873704530272e-016 -4.39176189772448e-018 -1.0
  outer loop
    vertex -7.0 100.0 5.32907051820075e-016
    vertex -17.7402512070062 65.339891457262 3.53856149363714e-015
    vertex -20.0 65.0 5.55111512312578e-015
  endloop
endfacet
facet normal -2.89873704530272e-016 -4.39176189772448e-018 -1.0
  outer loop
    vertex -17.7402512070062 65.339891457262 3.53856149363714e-015
    vertex -7.0 100.0 5.32907051820075e-016
    vertex -12.3398044923199 79.8795556891098 2.19656197590199e-015
  endloop
endfacet
facet normal -2.89873704530272e-016 -4.39176189772448e-018 -1.0
  outer loop
    vertex -12.3398044923199 79.8795556891098 2.19656197590199e-015
    vertex -7.0 100.0 5.32907051820075e-016
    vertex -11.3729042682307 82.4827486001192 2.15131676408836e-015
  endloop
endfacet
facet normal -2.89873704530272e-016 -4.39176189772448e-018 -1.0
  outer loop
    vertex -12.3398044923199 79.8795556891098 2.19656197590199e-015
    vertex -11.3729042682307 82.4827486001192 2.15131676408836e-015
    vertex -11.19948797261 81.2299164391801 1.97814869917917e-015
  endloop
endfacet
facet normal -2.89873704530272e-016 -4.39176189772448e-018 -1.0
  outer loop
    vertex -11.19948797261 81.2299164391801 1.97814869917917e-015
    vertex -11.3729042682307 82.4827486001192 2.15131676408836e-015
    vertex -3.43849125632869 81.2299164391801 -4.40248868920797e-016
  endloop
endfacet
facet normal -2.89873704530272e-016 -4.39176189772448e-018 -1.0
  outer loop
    vertex -11.3729042682307 82.4827486001192 2.15131676408836e-015
    vertex -7.0 100.0 5.32907051820075e-016
    vertex -6.34423206194037 96.0214814632084 6.54554565049235e-016
  endloop
endfacet
facet normal -2.89873704530272e-016 -4.39176189772448e-018 -1.0
  outer loop
    vertex -6.34423206194037 96.0214814632084 6.54554565049235e-016
    vertex -7.0 100.0 5.32907051820075e-016
    vertex -5.60935374827492 98.0 4.35821262168174e-016
  endloop
endfacet
facet normal -2.89873704530272e-016 -4.39176189772448e-018 -1.0
  outer loop
    vertex -5.60935374827492 98.0 4.35821262168174e-016
    vertex -7.0 100.0 5.32907051820075e-016
    vertex -3.0 98.0 7.51969761452209e-016
  endloop
endfacet
facet normal -2.89873704530272e-016 -4.39176189772448e-018 -1.0
  outer loop
    vertex -3.0 98.0 7.51969761452209e-016
    vertex -7.0 100.0 5.32907051820075e-016
    vertex -1.0 98.125 2.77555756156289e-016
  endloop
endfacet
facet normal -2.89873704530272e-016 -4.39176189772448e-018 -1.0
  outer loop
    vertex -1.0 98.125 2.77555756156289e-016
    vertex -7.0 100.0 5.32907051820075e-016
    vertex -6.9517541003614e-047 98.125 0.0
  endloop
endfacet
facet normal -2.89873704530272e-016 -4.39176189772448e-018 -1.0
  outer loop
    vertex -6.9517541003614e-047 98.125 0.0
    vertex -7.0 100.0 5.32907051820075e-016
    vertex -6.9517541003614e-047 100.0 0.0
  endloop
endfacet
facet normal -2.89873704530272e-016 -4.39176189772448e-018 -1.0
  outer loop
    vertex -3.0 98.0 7.51969761452209e-016
    vertex -1.0 85.0 -1.13242748511766e-015
    vertex -3.0 82.4827486001192 -5.62685884382921e-016
  endloop
endfacet
facet normal -2.89873704530272e-016 -4.39176189772448e-018 -1.0
  outer loop
    vertex -1.0 85.0 -1.13242748511766e-015
    vertex -3.0 98.0 7.51969761452209e-016
    vertex -1.0 86.875 -9.56179579958416e-016
  endloop
endfacet
facet normal -2.89873704530272e-016 -4.39176189772448e-018 -1.0
  outer loop
    vertex -1.0 86.875 -9.56179579958416e-016
    vertex -3.0 98.0 7.51969761452209e-016
    vertex -1.0 88.75 -7.79931674799172e-016
  endloop
endfacet
facet normal -2.89873704530272e-016 -4.39176189772448e-018 -1.0
  outer loop
    vertex -1.0 86.875 -9.56179579958416e-016
    vertex -1.0 88.75 -7.79931674799172e-016
    vertex -3.42430344112051e-031 86.875 -1.23373533611471e-015
  endloop
endfacet
facet normal -2.89873704530272e-016 -4.39176189772448e-018 -1.0
  outer loop
    vertex -1.0 88.75 -7.79931674799172e-016
    vertex -3.0 98.0 7.51969761452209e-016
    vertex -1.0 90.625 -6.03683769639929e-016
  endloop
endfacet
facet normal -2.89873704530272e-016 -4.39176189772448e-018 -1.0
  outer loop
    vertex -1.0 90.625 -6.03683769639929e-016
    vertex -3.0 98.0 7.51969761452209e-016
    vertex -1.0 92.5 -4.27435864480685e-016
  endloop
endfacet
facet normal -2.89873704530272e-016 -4.39176189772448e-018 -1.0
  outer loop
    vertex -1.0 90.625 -6.03683769639929e-016
    vertex -1.0 92.5 -4.27435864480685e-016
    vertex -2.44593102937179e-031 90.625 -8.81239525796218e-016
  endloop
endfacet
facet normal -2.89873704530272e-016 -4.39176189772448e-018 -1.0
  outer loop
    vertex -1.0 92.5 -4.27435864480685e-016
    vertex -3.0 98.0 7.51969761452209e-016
    vertex -1.0 94.375 -2.51187959321442e-016
  endloop
endfacet
facet normal -2.89873704530272e-016 -4.39176189772448e-018 -1.0
  outer loop
    vertex -1.0 94.375 -2.51187959321442e-016
    vertex -3.0 98.0 7.51969761452209e-016
    vertex -1.46755861762307e-031 94.375 -5.28743715477731e-016
  endloop
endfacet
facet normal -2.89873704530272e-016 -4.39176189772448e-018 -1.0
  outer loop
    vertex -1.46755861762307e-031 94.375 -5.28743715477731e-016
    vertex -3.0 98.0 7.51969761452209e-016
    vertex -1.0 96.25 -7.49400541621981e-017
  endloop
endfacet
facet normal -2.89873704530272e-016 -4.39176189772448e-018 -1.0
  outer loop
    vertex -1.0 96.25 -7.49400541621981e-017
    vertex -3.0 98.0 7.51969761452209e-016
    vertex -1.0 98.125 2.77555756156289e-016
  endloop
endfacet
facet normal -2.89873704530272e-016 -4.39176189772448e-018 -1.0
  outer loop
    vertex -9.78372411748716e-032 96.25 -3.52495810318487e-016
    vertex -1.46755861762307e-031 94.375 -5.28743715477731e-016
    vertex -1.0 96.25 -7.49400541621981e-017
  endloop
endfacet
facet normal -2.89873704530272e-016 -4.39176189772448e-018 -1.0
  outer loop
    vertex -1.95674482349743e-031 92.5 -7.04991620636974e-016
    vertex -2.44593102937179e-031 90.625 -8.81239525796218e-016
    vertex -1.0 92.5 -4.27435864480685e-016
  endloop
endfacet
facet normal -2.89873704530272e-016 -4.39176189772448e-018 -1.0
  outer loop
    vertex -2.93511723524615e-031 88.75 -1.05748743095546e-015
    vertex -3.42430344112051e-031 86.875 -1.23373533611471e-015
    vertex -1.0 88.75 -7.79931674799172e-016
  endloop
endfacet
facet normal -2.89873704530272e-016 -4.39176189772448e-018 -1.0
  outer loop
    vertex -2.93511723524615e-031 13.125 -1.05748743095546e-015
    vertex -1.95674482349743e-031 11.25 -7.04991620636974e-016
    vertex -1.0 13.125 -7.79931674799172e-016
  endloop
endfacet
facet normal -2.89873704530272e-016 -4.39176189772448e-018 -1.0
  outer loop
    vertex -9.78372411748716e-032 9.375 -3.52495810318487e-016
    vertex -6.9517541003614e-047 7.5 0.0
    vertex -1.0 9.375 -7.49400541621981e-017
  endloop
endfacet
facet normal -2.89873704530272e-016 -4.39176189772448e-018 -1.0
  outer loop
    vertex -6.9517541003614e-047 5.625 0.0
    vertex -6.9517541003614e-047 3.75 0.0
    vertex -1.0 5.625 2.77555756156289e-016
  endloop
endfacet
facet normal -2.89873704530272e-016 -4.39176189772448e-018 -1.0
  outer loop
    vertex -6.9517541003614e-047 1.875 0.0
    vertex -6.9517541003614e-047 0.0 0.0
    vertex -1.0 1.875 2.77555756156289e-016
  endloop
endfacet
facet normal -1.0 -2.27163819954089e-017 -1.2115969308226e-016
  outer loop
    vertex -3.0 82.4827486001192 20.0
    vertex -3.0 98.0 7.51969761452209e-016
    vertex -3.0 82.4827486001192 -5.62685884382921e-016
  endloop
endfacet
facet normal -1.0 -2.27163819954089e-017 -1.2115969308226e-016
  outer loop
    vertex -3.0 98.0 7.51969761452209e-016
    vertex -3.0 82.4827486001192 20.0
    vertex -3.0 98.0 20.0
  endloop
endfacet
facet normal 0.98615435711089 0.165829985078718 1.33531640072871e-016
  outer loop
    vertex -5.60935374827492 98.0 4.35821262168174e-016
    vertex -3.0 82.4827486001192 20.0
    vertex -3.0 82.4827486001192 -5.62685884382921e-016
  endloop
endfacet
facet normal 0.98615435711089 0.165829985078718 1.33531640072871e-016
  outer loop
    vertex -3.0 82.4827486001192 20.0
    vertex -5.60935374827492 98.0 4.35821262168174e-016
    vertex -5.60935374827492 98.0 20.0
  endloop
endfacet
facet normal 1.02649155094225e-032 -1.0 -8.47221980205351e-017
  outer loop
    vertex -3.0 98.0 20.0
    vertex -5.60935374827492 98.0 4.35821262168174e-016
    vertex -3.0 98.0 7.51969761452209e-016
  endloop
endfacet
facet normal 1.02649155094225e-032 -1.0 -8.47221980205351e-017
  outer loop
    vertex -5.60935374827492 98.0 4.35821262168174e-016
    vertex -3.0 98.0 20.0
    vertex -5.60935374827492 98.0 20.0
  endloop
endfacet
facet normal 0.937425272009765 -0.348186529603627 -3.07284657727251e-016
  outer loop
    vertex -6.34423206194036 96.0214814632084 20.0
    vertex -11.3729042682307 82.4827486001192 2.15131676408836e-015
    vertex -6.34423206194037 96.0214814632084 6.54554565049235e-016
  endloop
endfacet
facet normal 0.937425272009765 -0.348186529603627 -3.07284657727251e-016
  outer loop
    vertex -11.3729042682307 82.4827486001192 2.15131676408836e-015
    vertex -6.34423206194036 96.0214814632084 20.0
    vertex -11.3729042682306 82.4827486001192 20.0
  endloop
endfacet
facet normal -0.987069228848239 -0.1602945334718 3.18372245409611e-016
  outer loop
    vertex -4.14561741094927 82.4827486001192 20.0
    vertex -6.34423206194037 96.0214814632084 6.54554565049235e-016
    vertex -4.14561741094928 82.4827486001192 -1.91344162580554e-016
  endloop
endfacet
facet normal -0.987069228848239 -0.1602945334718 3.18372245409611e-016
  outer loop
    vertex -6.34423206194037 96.0214814632084 6.54554565049235e-016
    vertex -4.14561741094927 82.4827486001192 20.0
    vertex -6.34423206194036 96.0214814632084 20.0
  endloop
endfacet
facet normal 3.1899356029004e-033 1.0 9.84119357435044e-018
  outer loop
    vertex -4.14561741094928 82.4827486001192 -1.91344162580554e-016
    vertex -11.3729042682306 82.4827486001192 20.0
    vertex -4.14561741094927 82.4827486001192 20.0
  endloop
endfacet
facet normal 3.1899356029004e-033 1.0 9.84119357435044e-018
  outer loop
    vertex -11.3729042682306 82.4827486001192 20.0
    vertex -4.14561741094928 82.4827486001192 -1.91344162580554e-016
    vertex -11.3729042682307 82.4827486001192 2.15131676408836e-015
  endloop
endfacet
facet normal 0.990555534549574 0.137112118258044 -3.07111997487441e-016
  outer loop
    vertex -11.19948797261 81.2299164391801 1.97814869917917e-015
    vertex -8.99999999999999 65.339891457262 20.0
    vertex -9.0 65.339891457262 1.11265446088062e-015
  endloop
endfacet
facet normal 0.990555534549574 0.137112118258044 -3.07111997487441e-016
  outer loop
    vertex -8.99999999999999 65.339891457262 20.0
    vertex -11.19948797261 81.2299164391801 1.97814869917917e-015
    vertex -11.19948797261 81.2299164391801 20.0
  endloop
endfacet
facet normal -3.53209426692613e-033 -1.0 -1.13350147092425e-017
  outer loop
    vertex -11.19948797261 81.2299164391801 20.0
    vertex -3.43849125632869 81.2299164391801 -4.40248868920797e-016
    vertex -3.43849125632868 81.2299164391801 20.0
  endloop
endfacet
facet normal -3.53209426692613e-033 -1.0 -1.13350147092425e-017
  outer loop
    vertex -3.43849125632869 81.2299164391801 -4.40248868920797e-016
    vertex -11.19948797261 81.2299164391801 20.0
    vertex -11.19948797261 81.2299164391801 1.97814869917917e-015
  endloop
endfacet
facet normal -0.943858356366017 0.330350424728106 2.9785942441828e-016
  outer loop
    vertex -9.0 65.339891457262 1.11265446088062e-015
    vertex -3.43849125632868 81.2299164391801 20.0
    vertex -3.43849125632869 81.2299164391801 -4.40248868920797e-016
  endloop
endfacet
facet normal -0.943858356366017 0.330350424728106 2.9785942441828e-016
  outer loop
    vertex -3.43849125632868 81.2299164391801 20.0
    vertex -9.0 65.339891457262 1.11265446088062e-015
    vertex -8.99999999999999 65.339891457262 20.0
  endloop
endfacet
facet normal 0.937425272009765 -0.348186529603628 -2.63945732466056e-016
  outer loop
    vertex -12.3398044923199 79.8795556891098 2.19656197590199e-015
    vertex -17.7402512070062 65.339891457262 20.0
    vertex -17.7402512070062 65.339891457262 3.53856149363714e-015
  endloop
endfacet
facet normal 0.937425272009765 -0.348186529603628 -2.63945732466056e-016
  outer loop
    vertex -17.7402512070062 65.339891457262 20.0
    vertex -12.3398044923199 79.8795556891098 2.19656197590199e-015
    vertex -12.3398044923199 79.8795556891098 20.0
  endloop
endfacet
facet normal -0.990301945287266 -0.138931843578987 2.73364523819187e-016
  outer loop
    vertex -10.3 65.339891457262 20.0
    vertex -12.3398044923199 79.8795556891098 2.19656197590199e-015
    vertex -10.3 65.339891457262 1.47347694388379e-015
  endloop
endfacet
facet normal -0.990301945287266 -0.138931843578987 2.73364523819187e-016
  outer loop
    vertex -12.3398044923199 79.8795556891098 2.19656197590199e-015
    vertex -10.3 65.339891457262 20.0
    vertex -12.3398044923199 79.8795556891098 20.0
  endloop
endfacet
facet normal 2.99563937890139e-033 1.0 1.07929283124453e-017
  outer loop
    vertex -17.7402512070062 65.339891457262 3.53856149363714e-015
    vertex -10.3 65.339891457262 20.0
    vertex -10.3 65.339891457262 1.47347694388379e-015
  endloop
endfacet
facet normal 2.99563937890139e-033 1.0 1.07929283124453e-017
  outer loop
    vertex -10.3 65.339891457262 20.0
    vertex -17.7402512070062 65.339891457262 3.53856149363714e-015
    vertex -17.7402512070062 65.339891457262 20.0
  endloop
endfacet
facet normal 0.0 -1.0 0.0
  outer loop
    vertex -15.5785408906754 64.1032506187253 20.0
    vertex -9.0 64.1032506187253 1.11271567024186e-015
    vertex -8.99999999999999 64.1032506187253 20.0
  endloop
endfacet
facet normal 0.0 -1.0 0.0
  outer loop
    vertex -9.0 64.1032506187253 1.11271567024186e-015
    vertex -15.5785408906754 64.1032506187253 20.0
    vertex -15.5785408906754 64.1032506187253 3.18565927504102e-015
  endloop
endfacet
facet normal -1.0 0.0 2.77555756156289e-016
  outer loop
    vertex -9.0 60.339891457262 1.11290194325115e-015
    vertex -8.99999999999999 64.1032506187253 20.0
    vertex -9.0 64.1032506187253 1.11271567024186e-015
  endloop
endfacet
facet normal -1.0 0.0 2.77555756156289e-016
  outer loop
    vertex -8.99999999999999 64.1032506187253 20.0
    vertex -9.0 60.339891457262 1.11290194325115e-015
    vertex -8.99999999999999 60.339891457262 20.0
  endloop
endfacet
facet normal -1.0 0.0 2.77555756156289e-016
  outer loop
    vertex -9.0 58.9546571819682 1.28195063985856e-015
    vertex -8.99999999999999 60.339891457262 20.0
    vertex -9.0 60.339891457262 1.11290194325115e-015
  endloop
endfacet
facet normal -1.0 0.0 2.77555756156289e-016
  outer loop
    vertex -8.99999999999999 60.339891457262 20.0
    vertex -9.0 58.9546571819682 1.28195063985856e-015
    vertex -8.99999999999999 58.9546571819682 20.0
  endloop
endfacet
facet normal 0.496555936470347 0.868004724616207 -3.61070804822205e-016
  outer loop
    vertex -18.0 64.1032506187253 4.28663800522837e-015
    vertex -8.99999999999999 58.9546571819682 20.0
    vertex -9.0 58.9546571819682 1.28195063985856e-015
  endloop
endfacet
facet normal 0.496555936470347 0.868004724616207 -3.61070804822205e-016
  outer loop
    vertex -8.99999999999999 58.9546571819682 20.0
    vertex -18.0 64.1032506187253 4.28663800522837e-015
    vertex -18.0 64.1032506187253 20.0
  endloop
endfacet
facet normal 0.0 -1.0 0.0
  outer loop
    vertex -18.0 64.1032506187253 20.0
    vertex -15.5785408906754 64.1032506187253 3.18565927504102e-015
    vertex -15.5785408906754 64.1032506187253 20.0
  endloop
endfacet
facet normal 0.0 -1.0 0.0
  outer loop
    vertex -15.5785408906754 64.1032506187253 3.18565927504102e-015
    vertex -18.0 64.1032506187253 20.0
    vertex -18.0 64.1032506187253 4.28663800522837e-015
  endloop
endfacet
facet normal -3.62515915269609e-016 -1.95423542662204e-017 -1.0
  outer loop
    vertex -18.0 64.1032506187253 4.28663800522837e-015
    vertex -9.0 40.5080256529399 1.45076860458208e-015
    vertex -18.0 35.3594322161829 4.97136771406524e-015
  endloop
endfacet
facet normal -3.62515915269609e-016 -1.95423542662204e-017 -1.0
  outer loop
    vertex -9.0 40.5080256529399 1.45076860458208e-015
    vertex -18.0 64.1032506187253 4.28663800522837e-015
    vertex -9.0 58.9546571819682 1.28195063985856e-015
  endloop
endfacet
facet normal 0.496555936470347 -0.868004724616206 6.67196977489081e-017
  outer loop
    vertex -18.0 35.3594322161829 20.0
    vertex -9.0 40.5080256529399 1.45076860458208e-015
    vertex -8.99999999999999 40.5080256529399 20.0
  endloop
endfacet
facet normal 0.496555936470347 -0.868004724616206 6.67196977489081e-017
  outer loop
    vertex -9.0 40.5080256529399 1.45076860458208e-015
    vertex -18.0 35.3594322161829 20.0
    vertex -18.0 35.3594322161829 4.97136771406524e-015
  endloop
endfacet
facet normal -1.0 -2.22891250716072e-033 2.66333582716436e-016
  outer loop
    vertex -9.0 35.3594322161829 2.47336590865864e-015
    vertex -8.99999999999999 40.5080256529399 20.0
    vertex -9.0 40.5080256529399 1.45076860458208e-015
  endloop
endfacet
facet normal -1.0 -2.22891250716072e-033 2.66333582716436e-016
  outer loop
    vertex -8.99999999999999 40.5080256529399 20.0
    vertex -9.0 35.3594322161829 2.47336590865864e-015
    vertex -8.99999999999999 35.3594322161829 20.0
  endloop
endfacet
facet normal -5.17245271004811e-032 1.0 -2.292259635063e-016
  outer loop
    vertex -16.5177982908232 35.3594322161829 4.16974687476569e-015
    vertex -8.99999999999999 35.3594322161829 20.0
    vertex -9.0 35.3594322161829 2.47336590865864e-015
  endloop
endfacet
facet normal -5.17245271004811e-032 1.0 -2.292259635063e-016
  outer loop
    vertex -8.99999999999999 35.3594322161829 20.0
    vertex -16.5177982908232 35.3594322161829 4.16974687476569e-015
    vertex -16.5177982908232 35.3594322161829 20.0
  endloop
endfacet
facet normal -1.23972539039391e-031 1.0 -2.292259635063e-016
  outer loop
    vertex -18.0 35.3594322161829 4.97136771406524e-015
    vertex -16.5177982908232 35.3594322161829 20.0
    vertex -16.5177982908232 35.3594322161829 4.16974687476569e-015
  endloop
endfacet
facet normal -1.23972539039391e-031 1.0 -2.292259635063e-016
  outer loop
    vertex -16.5177982908232 35.3594322161829 20.0
    vertex -18.0 35.3594322161829 4.97136771406524e-015
    vertex -18.0 35.3594322161829 20.0
  endloop
endfacet
facet normal -1.18804104076608e-032 1.0 -4.44365836806727e-017
  outer loop
    vertex -5.60935374827492 2.0 1.53075580427237e-015
    vertex -2.99999999999999 2.0 20.0
    vertex -3.0 2.0 8.33128064681817e-016
  endloop
endfacet
facet normal -1.18804104076608e-032 1.0 -4.44365836806727e-017
  outer loop
    vertex -2.99999999999999 2.0 20.0
    vertex -5.60935374827492 2.0 1.53075580427237e-015
    vertex -5.60935374827491 2.0 20.0
  endloop
endfacet
facet normal 0.98615435711089 -0.165829985078718 -2.72019747771994e-016
  outer loop
    vertex -2.99999999999999 17.5172513998808 20.0
    vertex -5.60935374827492 2.0 1.53075580427237e-015
    vertex -3.0 17.5172513998808 1.24025937451924e-016
  endloop
endfacet
facet normal 0.98615435711089 -0.165829985078718 -2.72019747771994e-016
  outer loop
    vertex -5.60935374827492 2.0 1.53075580427237e-015
    vertex -2.99999999999999 17.5172513998808 20.0
    vertex -5.60935374827491 2.0 20.0
  endloop
endfacet
facet normal -1.0 1.39020734714831e-016 2.83311292766811e-016
  outer loop
    vertex -3.0 7.375 4.88954981945829e-016
    vertex -2.99999999999999 17.5172513998808 20.0
    vertex -3.0 17.5172513998808 1.24025937451924e-016
  endloop
endfacet
facet normal -1.0 1.39020734714831e-016 2.83311292766811e-016
  outer loop
    vertex -2.99999999999999 17.5172513998808 20.0
    vertex -3.0 7.375 4.88954981945829e-016
    vertex -2.99999999999999 7.375 20.0
  endloop
endfacet
facet normal -1.0 6.55806158732069e-017 2.83311292766811e-016
  outer loop
    vertex -3.0 2.0 8.33128064681817e-016
    vertex -2.99999999999999 7.375 20.0
    vertex -3.0 7.375 4.88954981945829e-016
  endloop
endfacet
facet normal -1.0 6.55806158732069e-017 2.83311292766811e-016
  outer loop
    vertex -2.99999999999999 7.375 20.0
    vertex -3.0 2.0 8.33128064681817e-016
    vertex -2.99999999999999 2.0 20.0
  endloop
endfacet
facet normal 1.18179477158204e-032 -1.0 3.71220703821165e-017
  outer loop
    vertex -3.94840426122036 17.5172513998808 20.0
    vertex -11.3729042682307 17.5172513998808 2.7895708236334e-015
    vertex -3.94840426122037 17.5172513998808 4.25953924150725e-016
  endloop
endfacet
facet normal 1.18179477158204e-032 -1.0 3.71220703821165e-017
  outer loop
    vertex -11.3729042682307 17.5172513998808 2.7895708236334e-015
    vertex -3.94840426122036 17.5172513998808 20.0
    vertex -11.3729042682307 17.5172513998808 20.0
  endloop
endfacet
facet normal -0.98615435711089 0.165829985078717 3.07789916268805e-016
  outer loop
    vertex -6.26219482919175 3.75764906400686 1.67334259258429e-015
    vertex -3.94840426122036 17.5172513998808 20.0
    vertex -3.94840426122037 17.5172513998808 4.25953924150725e-016
  endloop
endfacet
facet normal -0.98615435711089 0.165829985078717 3.07789916268805e-016
  outer loop
    vertex -3.94840426122036 17.5172513998808 20.0
    vertex -6.26219482919175 3.75764906400686 1.67334259258429e-015
    vertex -6.26219482919175 3.75764906400686 20.0
  endloop
endfacet
facet normal 0.937425272009765 0.348186529603628 -3.11358189938841e-016
  outer loop
    vertex -11.3729042682307 17.5172513998808 20.0
    vertex -6.26219482919175 3.75764906400686 1.67334259258429e-015
    vertex -11.3729042682307 17.5172513998808 2.7895708236334e-015
  endloop
endfacet
facet normal 0.937425272009765 0.348186529603628 -3.11358189938841e-016
  outer loop
    vertex -6.26219482919175 3.75764906400686 1.67334259258429e-015
    vertex -11.3729042682307 17.5172513998808 20.0
    vertex -6.26219482919175 3.75764906400686 20.0
  endloop
endfacet
facet normal -1.55143738667228e-032 1.0 -5.02664256543202e-017
  outer loop
    vertex -3.31116357835597 18.4062901951836 1.7537555473382e-016
    vertex -11.2498440376975 18.4062901951836 20.0
    vertex -3.31116357835597 18.4062901951836 20.0
  endloop
endfacet
facet normal -1.55143738667228e-032 1.0 -5.02664256543202e-017
  outer loop
    vertex -11.2498440376975 18.4062901951836 20.0
    vertex -3.31116357835597 18.4062901951836 1.7537555473382e-016
    vertex -11.2498440376975 18.4062901951836 2.62559267384354e-015
  endloop
endfacet
facet normal 0.990555534549574 -0.137112118258044 -2.79815865263292e-016
  outer loop
    vertex -8.99999999999999 34.660108542738 20.0
    vertex -9.03860868343618 34.3811831964939 1.20095778461426e-015
    vertex -9.0 34.660108542738 1.11417300196123e-015
  endloop
endfacet
facet normal 0.990555534549574 -0.137112118258044 -2.79815865263292e-016
  outer loop
    vertex -9.03860868343618 34.3811831964939 1.20095778461426e-015
    vertex -8.99999999999999 34.660108542738 20.0
    vertex -11.2498440376975 18.4062901951836 2.62559267384354e-015
  endloop
endfacet
facet normal 0.990555534549574 -0.137112118258044 -2.79815865263292e-016
  outer loop
    vertex -11.2498440376975 18.4062901951836 2.62559267384354e-015
    vertex -8.99999999999999 34.660108542738 20.0
    vertex -11.2498440376975 18.4062901951836 20.0
  endloop
endfacet
facet normal -0.943858356366018 -0.330350424728106 3.07920686823908e-016
  outer loop
    vertex -3.31116357835597 18.4062901951836 1.7537555473382e-016
    vertex -8.99999999999999 34.660108542738 20.0
    vertex -9.0 34.660108542738 1.11417300196123e-015
  endloop
endfacet
facet normal -0.943858356366018 -0.330350424728106 3.07920686823908e-016
  outer loop
    vertex -8.99999999999999 34.660108542738 20.0
    vertex -3.31116357835597 18.4062901951836 1.7537555473382e-016
    vertex -3.31116357835597 18.4062901951836 20.0
  endloop
endfacet
facet normal 0.937425272009765 0.348186529603628 -3.12322010919233e-016
  outer loop
    vertex -17.6366503641155 34.3811831964939 20.0
    vertex -12.0205783707573 19.2609893682218 2.81285925715978e-015
    vertex -17.6366503641155 34.3811831964939 3.89085933113207e-015
  endloop
endfacet
facet normal 0.937425272009765 0.348186529603628 -3.12322010919233e-016
  outer loop
    vertex -12.0205783707573 19.2609893682218 2.81285925715978e-015
    vertex -17.6366503641155 34.3811831964939 20.0
    vertex -12.0205783707573 19.2609893682218 20.0
  endloop
endfacet
facet normal 1.45680844286906e-032 -1.0 4.60943448223285e-017
  outer loop
    vertex -17.6366503641155 34.3811831964939 20.0
    vertex -11.3338320366537 34.3811831964939 1.89885814558353e-015
    vertex -11.3338320366537 34.3811831964939 20.0
  endloop
endfacet
facet normal 1.45680844286906e-032 -1.0 4.60943448223285e-017
  outer loop
    vertex -11.3338320366537 34.3811831964939 1.89885814558353e-015
    vertex -17.6366503641155 34.3811831964939 20.0
    vertex -17.6366503641155 34.3811831964939 3.89085933113207e-015
  endloop
endfacet
facet normal 1.45680844286906e-032 -1.0 4.60943448223285e-017
  outer loop
    vertex -11.3338320366537 34.3811831964939 20.0
    vertex -9.92764997658172 34.3811831964939 1.45443531991586e-015
    vertex -9.92764997658171 34.3811831964939 20.0
  endloop
endfacet
facet normal 1.45680844286906e-032 -1.0 4.60943448223285e-017
  outer loop
    vertex -9.92764997658172 34.3811831964939 1.45443531991586e-015
    vertex -11.3338320366537 34.3811831964939 20.0
    vertex -11.3338320366537 34.3811831964939 1.89885814558353e-015
  endloop
endfacet
facet normal -0.990555534549574 0.137112118258044 3.06744268850484e-016
  outer loop
    vertex -12.0205783707573 19.2609893682218 2.81285925715978e-015
    vertex -9.92764997658171 34.3811831964939 20.0
    vertex -9.92764997658172 34.3811831964939 1.45443531991586e-015
  endloop
endfacet
facet normal -0.990555534549574 0.137112118258044 3.06744268850484e-016
  outer loop
    vertex -9.92764997658171 34.3811831964939 20.0
    vertex -12.0205783707573 19.2609893682218 2.81285925715978e-015
    vertex -12.0205783707573 19.2609893682218 20.0
  endloop
endfacet
endsolid slider-photo
