solid slider-photo
facet normal 0.0 0.0 -1.0
  outer loop
    vertex 65.4772878811978 -233.211614430259 0.0
    vertex 60.6990691849156 -246.218098432114 0.0
    vertex 59.333530013216 -238.335503505914 0.0
  endloop
endfacet
facet normal 0.0 0.0 -1.0
  outer loop
    vertex 60.6990691849156 -246.218098432114 0.0
    vertex 65.4772878811978 -233.211614430259 0.0
    vertex 64.4321799551139 -240.448278413372 0.0
  endloop
endfacet
facet normal 0.0 0.0 -1.0
  outer loop
    vertex 60.6990691849156 -246.218098432114 0.0
    vertex 64.4321799551139 -240.448278413372 0.0
    vertex 64.3471415331874 -241.094209356459 0.0
  endloop
endfacet
facet normal 0.0 0.0 -1.0
  outer loop
    vertex 64.4321799551139 -240.448278413372 0.0
    vertex 65.4772878811978 -233.211614430259 0.0
    vertex 64.6814999929716 -239.846366596604 0.0
  endloop
endfacet
facet normal 0.0 0.0 -1.0
  outer loop
    vertex 64.6814999929716 -239.846366596604 0.0
    vertex 65.4772878811978 -233.211614430259 0.0
    vertex 65.0781108982014 -239.329493201763 0.0
  endloop
endfacet
facet normal 0.0 0.0 -1.0
  outer loop
    vertex 65.0781108982014 -239.329493201763 0.0
    vertex 65.4772878811978 -233.211614430259 0.0
    vertex 65.5949842930424 -238.932882296533 0.0
  endloop
endfacet
facet normal 0.0 0.0 -1.0
  outer loop
    vertex 65.5949842930424 -238.932882296533 0.0
    vertex 65.4772878811978 -233.211614430259 0.0
    vertex 66.1968961098098 -238.683562258676 0.0
  endloop
endfacet
facet normal 0.0 0.0 -1.0
  outer loop
    vertex 66.1968961098098 -238.683562258676 0.0
    vertex 65.4772878811978 -233.211614430259 0.0
    vertex 72.9865849208791 -235.970320280804 0.0
  endloop
endfacet
facet normal 0.0 0.0 -1.0
  outer loop
    vertex 66.1968961098098 -238.683562258676 0.0
    vertex 72.9865849208791 -235.970320280804 0.0
    vertex 66.3999744562255 -238.656826487164 0.0
  endloop
endfacet
facet normal 0.0 0.0 -1.0
  outer loop
    vertex 66.3999744562255 -238.656826487164 0.0
    vertex 72.9865849208791 -235.970320280804 0.0
    vertex 66.8428270528974 -238.598523836749 0.0
  endloop
endfacet
facet normal 0.0 0.0 -1.0
  outer loop
    vertex 66.8428270528974 -238.598523836749 0.0
    vertex 72.9865849208791 -235.970320280804 0.0
    vertex 67.488757995985 -238.683562258676 0.0
  endloop
endfacet
facet normal 0.0 0.0 -1.0
  outer loop
    vertex 67.488757995985 -238.683562258676 0.0
    vertex 72.9865849208791 -235.970320280804 0.0
    vertex 68.0906698127523 -238.932882296533 0.0
  endloop
endfacet
facet normal 0.0 0.0 -1.0
  outer loop
    vertex 68.0906698127523 -238.932882296533 0.0
    vertex 72.9865849208791 -235.970320280804 0.0
    vertex 68.6075432075934 -239.329493201763 0.0
  endloop
endfacet
facet normal 0.0 0.0 -1.0
  outer loop
    vertex 68.6075432075934 -239.329493201763 0.0
    vertex 72.9865849208791 -235.970320280804 0.0
    vertex 69.0041541128231 -239.846366596604 0.0
  endloop
endfacet
facet normal 0.0 0.0 -1.0
  outer loop
    vertex 69.0041541128231 -239.846366596604 0.0
    vertex 72.9865849208791 -235.970320280804 0.0
    vertex 69.2534741506809 -240.448278413372 0.0
  endloop
endfacet
facet normal 0.0 0.0 -1.0
  outer loop
    vertex 69.2534741506809 -240.448278413372 0.0
    vertex 72.9865849208791 -235.970320280804 0.0
    vertex 69.3385125726073 -241.094209356459 0.0
  endloop
endfacet
facet normal 0.0 0.0 -1.0
  outer loop
    vertex 60.6990691849156 -246.218098432114 0.0
    vertex 64.6814999929716 -242.342052116314 0.0
    vertex 68.208366224597 -248.976804282659 0.0
  endloop
endfacet
facet normal 0.0 0.0 -1.0
  outer loop
    vertex 64.6814999929716 -242.342052116314 0.0
    vertex 60.6990691849156 -246.218098432114 0.0
    vertex 64.4321799551139 -241.740140299547 0.0
  endloop
endfacet
facet normal 0.0 0.0 -1.0
  outer loop
    vertex 64.4321799551139 -241.740140299547 0.0
    vertex 60.6990691849156 -246.218098432114 0.0
    vertex 64.3471415331874 -241.094209356459 0.0
  endloop
endfacet
facet normal 0.0 0.0 -1.0
  outer loop
    vertex 68.208366224597 -248.976804282659 0.0
    vertex 64.6814999929716 -242.342052116314 0.0
    vertex 65.0781108982014 -242.858925511155 0.0
  endloop
endfacet
facet normal 0.0 0.0 -1.0
  outer loop
    vertex 68.208366224597 -248.976804282659 0.0
    vertex 65.0781108982014 -242.858925511155 0.0
    vertex 65.5949842930424 -243.255536416385 0.0
  endloop
endfacet
facet normal 0.0 0.0 -1.0
  outer loop
    vertex 68.208366224597 -248.976804282659 0.0
    vertex 65.5949842930424 -243.255536416385 0.0
    vertex 66.1968961098098 -243.504856454243 0.0
  endloop
endfacet
facet normal 0.0 0.0 -1.0
  outer loop
    vertex 68.208366224597 -248.976804282659 0.0
    vertex 66.1968961098098 -243.504856454243 0.0
    vertex 66.8428270528974 -243.589894876169 0.0
  endloop
endfacet
facet normal 0.0 0.0 -1.0
  outer loop
    vertex 68.208366224597 -248.976804282659 0.0
    vertex 66.8428270528974 -243.589894876169 0.0
    vertex 67.2856796495692 -243.531592225754 0.0
  endloop
endfacet
facet normal 0.0 0.0 -1.0
  outer loop
    vertex 68.208366224597 -248.976804282659 0.0
    vertex 67.2856796495692 -243.531592225754 0.0
    vertex 67.4887579959849 -243.504856454243 0.0
  endloop
endfacet
facet normal 0.0 0.0 -1.0
  outer loop
    vertex 68.208366224597 -248.976804282659 0.0
    vertex 67.4887579959849 -243.504856454243 0.0
    vertex 68.0906698127523 -243.255536416385 0.0
  endloop
endfacet
facet normal 0.0 0.0 -1.0
  outer loop
    vertex 68.208366224597 -248.976804282659 0.0
    vertex 68.0906698127523 -243.255536416385 0.0
    vertex 68.6075432075934 -242.858925511155 0.0
  endloop
endfacet
facet normal 0.0 0.0 -1.0
  outer loop
    vertex 68.208366224597 -248.976804282659 0.0
    vertex 68.6075432075934 -242.858925511155 0.0
    vertex 74.3521240925787 -243.852915207005 0.0
  endloop
endfacet
facet normal 0.0 0.0 -1.0
  outer loop
    vertex 74.3521240925787 -243.852915207005 0.0
    vertex 68.6075432075934 -242.858925511155 0.0
    vertex 69.0041541128231 -242.342052116314 0.0
  endloop
endfacet
facet normal 0.0 0.0 -1.0
  outer loop
    vertex 74.3521240925787 -243.852915207005 0.0
    vertex 69.0041541128231 -242.342052116314 0.0
    vertex 69.2534741506809 -241.740140299547 0.0
  endloop
endfacet
facet normal 0.0 0.0 -1.0
  outer loop
    vertex 74.3521240925787 -243.852915207005 0.0
    vertex 69.2534741506809 -241.740140299547 0.0
    vertex 69.3385125726073 -241.094209356459 0.0
  endloop
endfacet
facet normal 0.0 0.0 -1.0
  outer loop
    vertex 74.3521240925787 -243.852915207005 0.0
    vertex 69.3385125726073 -241.094209356459 0.0
    vertex 72.9865849208791 -235.970320280804 0.0
  endloop
endfacet
facet normal 0.985324365775 0.170692396462447 0.0
  outer loop
    vertex 72.9865849208791 -235.970320280804 0.0
    vertex 74.3521240925787 -243.852915207005 4.0
    vertex 74.3521240925787 -243.852915207005 0.0
  endloop
endfacet
facet normal 0.985324365775 0.170692396462447 0.0
  outer loop
    vertex 74.3521240925787 -243.852915207005 4.0
    vertex 72.9865849208791 -235.970320280804 0.0
    vertex 72.9865849208791 -235.970320280804 4.0
  endloop
endfacet
facet normal 0.344838231318175 0.938662129960165 0.0
  outer loop
    vertex 65.4772878811978 -233.211614430259 4.0
    vertex 72.9865849208791 -235.970320280804 0.0
    vertex 65.4772878811978 -233.211614430259 0.0
  endloop
endfacet
facet normal 0.344838231318175 0.938662129960165 0.0
  outer loop
    vertex 72.9865849208791 -235.970320280804 0.0
    vertex 65.4772878811978 -233.211614430259 4.0
    vertex 72.9865849208791 -235.970320280804 4.0
  endloop
endfacet
facet normal -0.640486134456825 0.767969733497716 0.0
  outer loop
    vertex 59.333530013216 -238.335503505914 4.0
    vertex 65.4772878811978 -233.211614430259 0.0
    vertex 59.333530013216 -238.335503505914 0.0
  endloop
endfacet
facet normal -0.640486134456825 0.767969733497716 0.0
  outer loop
    vertex 65.4772878811978 -233.211614430259 0.0
    vertex 59.333530013216 -238.335503505914 4.0
    vertex 65.4772878811978 -233.211614430259 4.0
  endloop
endfacet
facet normal -0.985324365775 -0.170692396462447 -0.0
  outer loop
    vertex 59.333530013216 -238.335503505914 4.0
    vertex 60.6990691849156 -246.218098432114 0.0
    vertex 60.6990691849156 -246.218098432114 4.0
  endloop
endfacet
facet normal -0.985324365775 -0.170692396462447 -0.0
  outer loop
    vertex 60.6990691849156 -246.218098432114 0.0
    vertex 59.333530013216 -238.335503505914 4.0
    vertex 59.333530013216 -238.335503505914 0.0
  endloop
endfacet
facet normal -0.344838231318175 -0.938662129960165 -0.0
  outer loop
    vertex 68.208366224597 -248.976804282659 4.0
    vertex 60.6990691849156 -246.218098432114 0.0
    vertex 68.208366224597 -248.976804282659 0.0
  endloop
endfacet
facet normal -0.344838231318175 -0.938662129960165 -0.0
  outer loop
    vertex 60.6990691849156 -246.218098432114 0.0
    vertex 68.208366224597 -248.976804282659 4.0
    vertex 60.6990691849156 -246.218098432114 4.0
  endloop
endfacet
facet normal 0.640486134456825 -0.767969733497716 0.0
  outer loop
    vertex 74.3521240925787 -243.852915207005 4.0
    vertex 68.208366224597 -248.976804282659 0.0
    vertex 74.3521240925787 -243.852915207005 0.0
  endloop
endfacet
facet normal 0.640486134456825 -0.767969733497716 0.0
  outer loop
    vertex 68.208366224597 -248.976804282659 0.0
    vertex 74.3521240925787 -243.852915207005 4.0
    vertex 68.208366224597 -248.976804282659 4.0
  endloop
endfacet
facet normal 0.0 0.0 1.0
  outer loop
    vertex 60.6990691849156 -246.218098432114 4.0
    vertex 64.4321799551139 -241.740140299547 4.0
    vertex 64.3471415331874 -241.094209356459 4.0
  endloop
endfacet
facet normal 0.0 0.0 1.0
  outer loop
    vertex 64.4321799551139 -241.740140299547 4.0
    vertex 60.6990691849156 -246.218098432114 4.0
    vertex 64.6814999929716 -242.342052116314 4.0
  endloop
endfacet
facet normal 0.0 0.0 1.0
  outer loop
    vertex 64.6814999929716 -242.342052116314 4.0
    vertex 60.6990691849156 -246.218098432114 4.0
    vertex 68.208366224597 -248.976804282659 4.0
  endloop
endfacet
facet normal 0.0 0.0 1.0
  outer loop
    vertex 64.6814999929716 -242.342052116314 4.0
    vertex 68.208366224597 -248.976804282659 4.0
    vertex 65.0781108982014 -242.858925511155 4.0
  endloop
endfacet
facet normal 0.0 0.0 1.0
  outer loop
    vertex 65.0781108982014 -242.858925511155 4.0
    vertex 68.208366224597 -248.976804282659 4.0
    vertex 65.5949842930424 -243.255536416385 4.0
  endloop
endfacet
facet normal 0.0 0.0 1.0
  outer loop
    vertex 65.5949842930424 -243.255536416385 4.0
    vertex 68.208366224597 -248.976804282659 4.0
    vertex 66.1968961098098 -243.504856454243 4.0
  endloop
endfacet
facet normal 0.0 0.0 1.0
  outer loop
    vertex 66.1968961098098 -243.504856454243 4.0
    vertex 68.208366224597 -248.976804282659 4.0
    vertex 66.8428270528974 -243.589894876169 4.0
  endloop
endfacet
facet normal 0.0 0.0 1.0
  outer loop
    vertex 66.8428270528974 -243.589894876169 4.0
    vertex 68.208366224597 -248.976804282659 4.0
    vertex 67.2856796495692 -243.531592225754 4.0
  endloop
endfacet
facet normal 0.0 0.0 1.0
  outer loop
    vertex 67.2856796495692 -243.531592225754 4.0
    vertex 68.208366224597 -248.976804282659 4.0
    vertex 67.4887579959849 -243.504856454243 4.0
  endloop
endfacet
facet normal 0.0 0.0 1.0
  outer loop
    vertex 67.4887579959849 -243.504856454243 4.0
    vertex 68.208366224597 -248.976804282659 4.0
    vertex 68.0906698127523 -243.255536416385 4.0
  endloop
endfacet
facet normal 0.0 0.0 1.0
  outer loop
    vertex 68.0906698127523 -243.255536416385 4.0
    vertex 68.208366224597 -248.976804282659 4.0
    vertex 68.6075432075934 -242.858925511155 4.0
  endloop
endfacet
facet normal 0.0 0.0 1.0
  outer loop
    vertex 68.6075432075934 -242.858925511155 4.0
    vertex 68.208366224597 -248.976804282659 4.0
    vertex 74.3521240925787 -243.852915207005 4.0
  endloop
endfacet
facet normal 0.0 0.0 1.0
  outer loop
    vertex 68.6075432075934 -242.858925511155 4.0
    vertex 74.3521240925787 -243.852915207005 4.0
    vertex 69.0041541128231 -242.342052116314 4.0
  endloop
endfacet
facet normal 0.0 0.0 1.0
  outer loop
    vertex 69.0041541128231 -242.342052116314 4.0
    vertex 74.3521240925787 -243.852915207005 4.0
    vertex 69.2534741506809 -241.740140299547 4.0
  endloop
endfacet
facet normal 0.0 0.0 1.0
  outer loop
    vertex 69.2534741506809 -241.740140299547 4.0
    vertex 74.3521240925787 -243.852915207005 4.0
    vertex 69.3385125726073 -241.094209356459 4.0
  endloop
endfacet
facet normal 0.0 0.0 1.0
  outer loop
    vertex 69.3385125726073 -241.094209356459 4.0
    vertex 74.3521240925787 -243.852915207005 4.0
    vertex 72.9865849208791 -235.970320280804 4.0
  endloop
endfacet
facet normal 0.0 0.0 1.0
  outer loop
    vertex 60.6990691849156 -246.218098432114 4.0
    vertex 65.4772878811978 -233.211614430259 4.0
    vertex 59.333530013216 -238.335503505914 4.0
  endloop
endfacet
facet normal 0.0 0.0 1.0
  outer loop
    vertex 65.4772878811978 -233.211614430259 4.0
    vertex 60.6990691849156 -246.218098432114 4.0
    vertex 64.4321799551139 -240.448278413372 4.0
  endloop
endfacet
facet normal 0.0 0.0 1.0
  outer loop
    vertex 64.4321799551139 -240.448278413372 4.0
    vertex 60.6990691849156 -246.218098432114 4.0
    vertex 64.3471415331874 -241.094209356459 4.0
  endloop
endfacet
facet normal 0.0 0.0 1.0
  outer loop
    vertex 65.4772878811978 -233.211614430259 4.0
    vertex 64.4321799551139 -240.448278413372 4.0
    vertex 64.6814999929716 -239.846366596604 4.0
  endloop
endfacet
facet normal 0.0 0.0 1.0
  outer loop
    vertex 65.4772878811978 -233.211614430259 4.0
    vertex 64.6814999929716 -239.846366596604 4.0
    vertex 65.0781108982014 -239.329493201763 4.0
  endloop
endfacet
facet normal 0.0 0.0 1.0
  outer loop
    vertex 65.4772878811978 -233.211614430259 4.0
    vertex 65.0781108982014 -239.329493201763 4.0
    vertex 65.5949842930424 -238.932882296533 4.0
  endloop
endfacet
facet normal 0.0 0.0 1.0
  outer loop
    vertex 65.4772878811978 -233.211614430259 4.0
    vertex 65.5949842930424 -238.932882296533 4.0
    vertex 66.1968961098098 -238.683562258676 4.0
  endloop
endfacet
facet normal 0.0 0.0 1.0
  outer loop
    vertex 65.4772878811978 -233.211614430259 4.0
    vertex 66.1968961098098 -238.683562258676 4.0
    vertex 72.9865849208791 -235.970320280804 4.0
  endloop
endfacet
facet normal 0.0 0.0 1.0
  outer loop
    vertex 72.9865849208791 -235.970320280804 4.0
    vertex 66.1968961098098 -238.683562258676 4.0
    vertex 66.3999744562255 -238.656826487164 4.0
  endloop
endfacet
facet normal 0.0 0.0 1.0
  outer loop
    vertex 72.9865849208791 -235.970320280804 4.0
    vertex 66.3999744562255 -238.656826487164 4.0
    vertex 66.8428270528974 -238.598523836749 4.0
  endloop
endfacet
facet normal 0.0 0.0 1.0
  outer loop
    vertex 72.9865849208791 -235.970320280804 4.0
    vertex 66.8428270528974 -238.598523836749 4.0
    vertex 67.488757995985 -238.683562258676 4.0
  endloop
endfacet
facet normal 0.0 0.0 1.0
  outer loop
    vertex 72.9865849208791 -235.970320280804 4.0
    vertex 67.488757995985 -238.683562258676 4.0
    vertex 68.0906698127523 -238.932882296533 4.0
  endloop
endfacet
facet normal 0.0 0.0 1.0
  outer loop
    vertex 72.9865849208791 -235.970320280804 4.0
    vertex 68.0906698127523 -238.932882296533 4.0
    vertex 68.6075432075934 -239.329493201763 4.0
  endloop
endfacet
facet normal 0.0 0.0 1.0
  outer loop
    vertex 72.9865849208791 -235.970320280804 4.0
    vertex 68.6075432075934 -239.329493201763 4.0
    vertex 69.0041541128231 -239.846366596604 4.0
  endloop
endfacet
facet normal 0.0 0.0 1.0
  outer loop
    vertex 72.9865849208791 -235.970320280804 4.0
    vertex 69.0041541128231 -239.846366596604 4.0
    vertex 69.2534741506809 -240.448278413372 4.0
  endloop
endfacet
facet normal 0.0 0.0 1.0
  outer loop
    vertex 72.9865849208791 -235.970320280804 4.0
    vertex 69.2534741506809 -240.448278413372 4.0
    vertex 69.3385125726073 -241.094209356459 4.0
  endloop
endfacet
facet normal -0.96592582628907 -0.258819045102514 0.0
  outer loop
    vertex 69.2534741506809 -240.448278413372 4.0
    vertex 69.3385125726073 -241.094209356459 0.0
    vertex 69.3385125726073 -241.094209356459 4.0
  endloop
endfacet
facet normal -1.0 1.35627092611746e-014 0.0
  outer loop
    vertex 69.3385125726073 -241.094209356459 0.0
    vertex 69.2534741506809 -240.448278413372 4.0
    vertex 69.2534741506809 -240.448278413372 0.0
  endloop
endfacet
facet normal -1.0 1.35627092611746e-014 0.0
  outer loop
    vertex 69.3385125726073 -241.094209356459 4.0
    vertex 69.2534741506809 -241.740140299547 0.0
    vertex 69.2534741506809 -241.740140299547 4.0
  endloop
endfacet
facet normal -0.965925826289072 0.258819045102506 0.0
  outer loop
    vertex 69.2534741506809 -241.740140299547 0.0
    vertex 69.3385125726073 -241.094209356459 4.0
    vertex 69.3385125726073 -241.094209356459 0.0
  endloop
endfacet
facet normal -0.965925826289072 0.258819045102506 0.0
  outer loop
    vertex 69.2534741506809 -241.740140299547 4.0
    vertex 69.0041541128231 -242.342052116314 0.0
    vertex 69.0041541128231 -242.342052116314 4.0
  endloop
endfacet
facet normal -0.866025403784439 0.5 0.0
  outer loop
    vertex 69.0041541128231 -242.342052116314 0.0
    vertex 69.2534741506809 -241.740140299547 4.0
    vertex 69.2534741506809 -241.740140299547 0.0
  endloop
endfacet
facet normal -0.866025403784439 0.5 0.0
  outer loop
    vertex 69.0041541128231 -242.342052116314 4.0
    vertex 68.6075432075934 -242.858925511155 0.0
    vertex 68.6075432075934 -242.858925511155 4.0
  endloop
endfacet
facet normal -0.707106781186532 0.707106781186563 0.0
  outer loop
    vertex 68.6075432075934 -242.858925511155 0.0
    vertex 69.0041541128231 -242.342052116314 4.0
    vertex 69.0041541128231 -242.342052116314 0.0
  endloop
endfacet
facet normal -0.500000000000016 0.86602540378443 0.0
  outer loop
    vertex 68.0906698127523 -243.255536416385 4.0
    vertex 68.6075432075934 -242.858925511155 0.0
    vertex 68.0906698127523 -243.255536416385 0.0
  endloop
endfacet
facet normal -0.707106781186532 0.707106781186563 0.0
  outer loop
    vertex 68.6075432075934 -242.858925511155 0.0
    vertex 68.0906698127523 -243.255536416385 4.0
    vertex 68.6075432075934 -242.858925511155 4.0
  endloop
endfacet
facet normal -0.258819045102473 0.965925826289081 0.0
  outer loop
    vertex 67.4887579959849 -243.504856454243 4.0
    vertex 68.0906698127523 -243.255536416385 0.0
    vertex 67.4887579959849 -243.504856454243 0.0
  endloop
endfacet
facet normal -0.500000000000016 0.86602540378443 0.0
  outer loop
    vertex 68.0906698127523 -243.255536416385 0.0
    vertex 67.4887579959849 -243.504856454243 4.0
    vertex 68.0906698127523 -243.255536416385 4.0
  endloop
endfacet
facet normal -0.130526192219918 0.991444861373828 0.0
  outer loop
    vertex 67.2856796495692 -243.531592225754 4.0
    vertex 67.4887579959849 -243.504856454243 0.0
    vertex 67.2856796495692 -243.531592225754 0.0
  endloop
endfacet
facet normal -0.258819045102473 0.965925826289081 0.0
  outer loop
    vertex 67.4887579959849 -243.504856454243 0.0
    vertex 67.2856796495692 -243.531592225754 4.0
    vertex 67.4887579959849 -243.504856454243 4.0
  endloop
endfacet
facet normal 1.67528866038161e-014 1.0 0.0
  outer loop
    vertex 66.8428270528974 -243.589894876169 4.0
    vertex 67.2856796495692 -243.531592225754 0.0
    vertex 66.8428270528974 -243.589894876169 0.0
  endloop
endfacet
facet normal -0.130526192220022 0.991444861373814 0.0
  outer loop
    vertex 67.2856796495692 -243.531592225754 0.0
    vertex 66.8428270528974 -243.589894876169 4.0
    vertex 67.2856796495692 -243.531592225754 4.0
  endloop
endfacet
facet normal 0.258819045102512 0.965925826289071 0.0
  outer loop
    vertex 66.1968961098098 -243.504856454243 4.0
    vertex 66.8428270528974 -243.589894876169 0.0
    vertex 66.1968961098098 -243.504856454243 0.0
  endloop
endfacet
facet normal 1.67528866038161e-014 1.0 0.0
  outer loop
    vertex 66.8428270528974 -243.589894876169 0.0
    vertex 66.1968961098098 -243.504856454243 4.0
    vertex 66.8428270528974 -243.589894876169 4.0
  endloop
endfacet
facet normal 0.499999999999995 0.866025403784441 0.0
  outer loop
    vertex 65.5949842930424 -243.255536416385 4.0
    vertex 66.1968961098098 -243.504856454243 0.0
    vertex 65.5949842930424 -243.255536416385 0.0
  endloop
endfacet
facet normal 0.258819045102512 0.965925826289071 0.0
  outer loop
    vertex 66.1968961098098 -243.504856454243 0.0
    vertex 65.5949842930424 -243.255536416385 4.0
    vertex 66.1968961098098 -243.504856454243 4.0
  endloop
endfacet
facet normal 0.707106781186531 0.707106781186564 0.0
  outer loop
    vertex 65.0781108982014 -242.858925511155 4.0
    vertex 65.5949842930424 -243.255536416385 0.0
    vertex 65.0781108982014 -242.858925511155 0.0
  endloop
endfacet
facet normal 0.499999999999995 0.866025403784441 0.0
  outer loop
    vertex 65.5949842930424 -243.255536416385 0.0
    vertex 65.0781108982014 -242.858925511155 4.0
    vertex 65.5949842930424 -243.255536416385 4.0
  endloop
endfacet
facet normal 0.866025403784435 0.500000000000006 0.0
  outer loop
    vertex 64.6814999929716 -242.342052116314 0.0
    vertex 65.0781108982014 -242.858925511155 4.0
    vertex 65.0781108982014 -242.858925511155 0.0
  endloop
endfacet
facet normal 0.707106781186531 0.707106781186564 0.0
  outer loop
    vertex 65.0781108982014 -242.858925511155 4.0
    vertex 64.6814999929716 -242.342052116314 0.0
    vertex 64.6814999929716 -242.342052116314 4.0
  endloop
endfacet
facet normal 0.965925826289073 0.258819045102502 0.0
  outer loop
    vertex 64.4321799551139 -241.740140299547 0.0
    vertex 64.6814999929716 -242.342052116314 4.0
    vertex 64.6814999929716 -242.342052116314 0.0
  endloop
endfacet
facet normal 0.866025403784435 0.500000000000006 0.0
  outer loop
    vertex 64.6814999929716 -242.342052116314 4.0
    vertex 64.4321799551139 -241.740140299547 0.0
    vertex 64.4321799551139 -241.740140299547 4.0
  endloop
endfacet
facet normal 1.0 0.0 0.0
  outer loop
    vertex 64.3471415331874 -241.094209356459 0.0
    vertex 64.4321799551139 -241.740140299547 4.0
    vertex 64.4321799551139 -241.740140299547 0.0
  endloop
endfacet
facet normal 0.965925826289073 0.258819045102502 0.0
  outer loop
    vertex 64.4321799551139 -241.740140299547 4.0
    vertex 64.3471415331874 -241.094209356459 0.0
    vertex 64.3471415331874 -241.094209356459 4.0
  endloop
endfacet
facet normal 0.965925826289073 -0.258819045102502 0.0
  outer loop
    vertex 64.4321799551139 -240.448278413372 0.0
    vertex 64.3471415331874 -241.094209356459 4.0
    vertex 64.3471415331874 -241.094209356459 0.0
  endloop
endfacet
facet normal 1.0 0.0 0.0
  outer loop
    vertex 64.3471415331874 -241.094209356459 4.0
    vertex 64.4321799551139 -240.448278413372 0.0
    vertex 64.4321799551139 -240.448278413372 4.0
  endloop
endfacet
facet normal 0.866025403784439 -0.5 0.0
  outer loop
    vertex 64.6814999929716 -239.846366596604 0.0
    vertex 64.4321799551139 -240.448278413372 4.0
    vertex 64.4321799551139 -240.448278413372 0.0
  endloop
endfacet
facet normal 0.965925826289073 -0.258819045102502 0.0
  outer loop
    vertex 64.4321799551139 -240.448278413372 4.0
    vertex 64.6814999929716 -239.846366596604 0.0
    vertex 64.6814999929716 -239.846366596604 4.0
  endloop
endfacet
facet normal 0.707106781186529 -0.707106781186566 0.0
  outer loop
    vertex 65.0781108982014 -239.329493201763 0.0
    vertex 64.6814999929716 -239.846366596604 4.0
    vertex 64.6814999929716 -239.846366596604 0.0
  endloop
endfacet
facet normal 0.866025403784439 -0.5 0.0
  outer loop
    vertex 64.6814999929716 -239.846366596604 4.0
    vertex 65.0781108982014 -239.329493201763 0.0
    vertex 65.0781108982014 -239.329493201763 4.0
  endloop
endfacet
facet normal 0.500000000000014 -0.866025403784431 0.0
  outer loop
    vertex 65.5949842930424 -238.932882296533 4.0
    vertex 65.0781108982014 -239.329493201763 0.0
    vertex 65.5949842930424 -238.932882296533 0.0
  endloop
endfacet
facet normal 0.707106781186529 -0.707106781186566 0.0
  outer loop
    vertex 65.0781108982014 -239.329493201763 0.0
    vertex 65.5949842930424 -238.932882296533 4.0
    vertex 65.0781108982014 -239.329493201763 4.0
  endloop
endfacet
facet normal 0.258819045102476 -0.96592582628908 0.0
  outer loop
    vertex 66.1968961098098 -238.683562258676 4.0
    vertex 65.5949842930424 -238.932882296533 0.0
    vertex 66.1968961098098 -238.683562258676 0.0
  endloop
endfacet
facet normal 0.500000000000014 -0.866025403784431 0.0
  outer loop
    vertex 65.5949842930424 -238.932882296533 0.0
    vertex 66.1968961098098 -238.683562258676 4.0
    vertex 65.5949842930424 -238.932882296533 4.0
  endloop
endfacet
facet normal 0.130526192219918 -0.991444861373828 0.0
  outer loop
    vertex 66.3999744562255 -238.656826487164 4.0
    vertex 66.1968961098098 -238.683562258676 0.0
    vertex 66.3999744562255 -238.656826487164 0.0
  endloop
endfacet
facet normal 0.258819045102476 -0.96592582628908 0.0
  outer loop
    vertex 66.1968961098098 -238.683562258676 0.0
    vertex 66.3999744562255 -238.656826487164 4.0
    vertex 66.1968961098098 -238.683562258676 4.0
  endloop
endfacet
facet normal -1.67528866038161e-014 -1.0 0.0
  outer loop
    vertex 66.8428270528974 -238.598523836749 4.0
    vertex 66.3999744562255 -238.656826487164 0.0
    vertex 66.8428270528974 -238.598523836749 0.0
  endloop
endfacet
facet normal 0.130526192220022 -0.991444861373814 0.0
  outer loop
    vertex 66.3999744562255 -238.656826487164 0.0
    vertex 66.8428270528974 -238.598523836749 4.0
    vertex 66.3999744562255 -238.656826487164 4.0
  endloop
endfacet
facet normal -0.258819045102512 -0.965925826289071 0.0
  outer loop
    vertex 67.488757995985 -238.683562258676 4.0
    vertex 66.8428270528974 -238.598523836749 0.0
    vertex 67.488757995985 -238.683562258676 0.0
  endloop
endfacet
facet normal -1.67528866038161e-014 -1.0 0.0
  outer loop
    vertex 66.8428270528974 -238.598523836749 0.0
    vertex 67.488757995985 -238.683562258676 4.0
    vertex 66.8428270528974 -238.598523836749 4.0
  endloop
endfacet
facet normal -0.499999999999995 -0.866025403784441 0.0
  outer loop
    vertex 68.0906698127523 -238.932882296533 4.0
    vertex 67.488757995985 -238.683562258676 0.0
    vertex 68.0906698127523 -238.932882296533 0.0
  endloop
endfacet
facet normal -0.258819045102512 -0.965925826289071 0.0
  outer loop
    vertex 67.488757995985 -238.683562258676 0.0
    vertex 68.0906698127523 -238.932882296533 4.0
    vertex 67.488757995985 -238.683562258676 4.0
  endloop
endfacet
facet normal -0.707106781186536 -0.707106781186559 0.0
  outer loop
    vertex 68.6075432075934 -239.329493201763 4.0
    vertex 68.0906698127523 -238.932882296533 0.0
    vertex 68.6075432075934 -239.329493201763 0.0
  endloop
endfacet
facet normal -0.499999999999995 -0.866025403784441 0.0
  outer loop
    vertex 68.0906698127523 -238.932882296533 0.0
    vertex 68.6075432075934 -239.329493201763 4.0
    vertex 68.0906698127523 -238.932882296533 4.0
  endloop
endfacet
facet normal -0.707106781186536 -0.707106781186559 0.0
  outer loop
    vertex 68.6075432075934 -239.329493201763 4.0
    vertex 69.0041541128231 -239.846366596604 0.0
    vertex 69.0041541128231 -239.846366596604 4.0
  endloop
endfacet
facet normal -0.866025403784428 -0.500000000000018 0.0
  outer loop
    vertex 69.0041541128231 -239.846366596604 0.0
    vertex 68.6075432075934 -239.329493201763 4.0
    vertex 68.6075432075934 -239.329493201763 0.0
  endloop
endfacet
facet normal -0.866025403784428 -0.500000000000018 0.0
  outer loop
    vertex 69.0041541128231 -239.846366596604 4.0
    vertex 69.2534741506809 -240.448278413372 0.0
    vertex 69.2534741506809 -240.448278413372 4.0
  endloop
endfacet
facet normal -0.96592582628907 -0.258819045102514 0.0
  outer loop
    vertex 69.2534741506809 -240.448278413372 0.0
    vertex 69.0041541128231 -239.846366596604 4.0
    vertex 69.0041541128231 -239.846366596604 0.0
  endloop
endfacet
endsolid slider-photo
