solid slider-photo
facet normal -0.99144486137381 -0.130526192220051 0.0
  outer loop
    vertex 23.8637033051563 -216.989794344967 -3.0
    vertex 24.0 -218.025070525377 -13.0
    vertex 24.0 -218.025070525377 -3.0
  endloop
endfacet
facet normal -0.99144486137381 -0.130526192220051 0.0
  outer loop
    vertex 24.0 -218.025070525377 -13.0
    vertex 23.8637033051563 -216.989794344967 -3.0
    vertex 23.8637033051563 -216.989794344967 -13.0
  endloop
endfacet
facet normal -0.793353340291239 -0.608761429008716 0.0
  outer loop
    vertex 22.8284271247462 -215.196643400631 -3.0
    vertex 23.4641016151378 -216.025070525377 -13.0
    vertex 23.4641016151378 -216.025070525377 -3.0
  endloop
endfacet
facet normal -0.793353340291239 -0.608761429008716 0.0
  outer loop
    vertex 23.4641016151378 -216.025070525377 -13.0
    vertex 22.8284271247462 -215.196643400631 -3.0
    vertex 22.8284271247462 -215.196643400631 -13.0
  endloop
endfacet
facet normal -0.99144486137381 0.130526192220051 0.0
  outer loop
    vertex 24.0 -218.025070525377 -3.0
    vertex 23.8637033051563 -219.060346705787 -13.0
    vertex 23.8637033051563 -219.060346705787 -3.0
  endloop
endfacet
facet normal -0.99144486137381 0.130526192220051 0.0
  outer loop
    vertex 23.8637033051563 -219.060346705787 -13.0
    vertex 24.0 -218.025070525377 -3.0
    vertex 24.0 -218.025070525377 -13.0
  endloop
endfacet
facet normal -0.382683432365119 -0.923879532511275 0.0
  outer loop
    vertex 22.0 -214.560968910239 -3.0
    vertex 21.0352761804101 -214.161367220221 -13.0
    vertex 22.0 -214.560968910239 -13.0
  endloop
endfacet
facet normal -0.382683432365119 -0.923879532511275 0.0
  outer loop
    vertex 21.0352761804101 -214.161367220221 -13.0
    vertex 22.0 -214.560968910239 -3.0
    vertex 21.0352761804101 -214.161367220221 -3.0
  endloop
endfacet
facet normal -0.608761429008704 -0.793353340291248 0.0
  outer loop
    vertex 22.8284271247462 -215.196643400631 -3.0
    vertex 22.0 -214.560968910239 -13.0
    vertex 22.8284271247462 -215.196643400631 -13.0
  endloop
endfacet
facet normal -0.608761429008704 -0.793353340291248 0.0
  outer loop
    vertex 22.0 -214.560968910239 -13.0
    vertex 22.8284271247462 -215.196643400631 -3.0
    vertex 22.0 -214.560968910239 -3.0
  endloop
endfacet
facet normal -0.923879532511286 -0.382683432365093 0.0
  outer loop
    vertex 23.4641016151378 -216.025070525377 -3.0
    vertex 23.8637033051563 -216.989794344967 -13.0
    vertex 23.8637033051563 -216.989794344967 -3.0
  endloop
endfacet
facet normal -0.923879532511286 -0.382683432365093 0.0
  outer loop
    vertex 23.8637033051563 -216.989794344967 -13.0
    vertex 23.4641016151378 -216.025070525377 -3.0
    vertex 23.4641016151378 -216.025070525377 -13.0
  endloop
endfacet
facet normal -0.923879532511285 0.382683432365095 0.0
  outer loop
    vertex 23.8637033051563 -219.060346705787 -3.0
    vertex 23.4641016151378 -220.025070525377 -13.0
    vertex 23.4641016151378 -220.025070525377 -3.0
  endloop
endfacet
facet normal -0.923879532511285 0.382683432365095 0.0
  outer loop
    vertex 23.4641016151378 -220.025070525377 -13.0
    vertex 23.8637033051563 -219.060346705787 -3.0
    vertex 23.8637033051563 -219.060346705787 -13.0
  endloop
endfacet
facet normal 0.0 0.0 1.0
  outer loop
    vertex 10.3871180179927 -223.575070525377 7.0
    vertex 13.9378221735089 -221.525070525377 7.0
    vertex 13.9378221735089 -214.525070525377 7.0
  endloop
endfacet
facet normal 0.0 0.0 1.0
  outer loop
    vertex 13.9378221735089 -221.525070525377 7.0
    vertex 10.3871180179927 -223.575070525377 7.0
    vertex 20.0 -229.125070525377 7.0
  endloop
endfacet
facet normal 0.0 0.0 1.0
  outer loop
    vertex 13.9378221735089 -221.525070525377 7.0
    vertex 20.0 -229.125070525377 7.0
    vertex 20.0 -225.025070525377 7.0
  endloop
endfacet
facet normal 0.0 0.0 1.0
  outer loop
    vertex 20.0 -225.025070525377 7.0
    vertex 20.0 -229.125070525377 7.0
    vertex 29.6128819820073 -223.575070525377 7.0
  endloop
endfacet
facet normal 0.0 0.0 1.0
  outer loop
    vertex 20.0 -225.025070525377 7.0
    vertex 29.6128819820073 -223.575070525377 7.0
    vertex 26.0621778264911 -221.525070525377 7.0
  endloop
endfacet
facet normal 0.0 0.0 1.0
  outer loop
    vertex 26.0621778264911 -221.525070525377 7.0
    vertex 29.6128819820073 -223.575070525377 7.0
    vertex 26.0621778264911 -214.525070525377 7.0
  endloop
endfacet
facet normal 0.0 0.0 1.0
  outer loop
    vertex 26.0621778264911 -214.525070525377 7.0
    vertex 29.6128819820073 -223.575070525377 7.0
    vertex 29.6128819820073 -212.475070525377 7.0
  endloop
endfacet
facet normal 0.0 0.0 1.0
  outer loop
    vertex 10.3871180179927 -212.475070525377 7.0
    vertex 13.9378221735089 -214.525070525377 7.0
    vertex 20.0 -206.925070525377 7.0
  endloop
endfacet
facet normal 0.0 0.0 1.0
  outer loop
    vertex 13.9378221735089 -214.525070525377 7.0
    vertex 10.3871180179927 -212.475070525377 7.0
    vertex 10.3871180179927 -223.575070525377 7.0
  endloop
endfacet
facet normal 0.0 0.0 1.0
  outer loop
    vertex 20.0 -206.925070525377 7.0
    vertex 13.9378221735089 -214.525070525377 7.0
    vertex 20.0 -211.025070525377 7.0
  endloop
endfacet
facet normal 0.0 0.0 1.0
  outer loop
    vertex 20.0 -206.925070525377 7.0
    vertex 20.0 -211.025070525377 7.0
    vertex 26.0621778264911 -214.525070525377 7.0
  endloop
endfacet
facet normal 0.0 0.0 1.0
  outer loop
    vertex 20.0 -206.925070525377 7.0
    vertex 26.0621778264911 -214.525070525377 7.0
    vertex 29.6128819820073 -212.475070525377 7.0
  endloop
endfacet
facet normal -0.499999999999998 -0.86602540378444 1.09140850711865e-018
  outer loop
    vertex 20.0 -225.025070525377 -7.7
    vertex 13.9378221735089 -221.525070525377 -13.0
    vertex 20.0 -225.025070525377 -13.0
  endloop
endfacet
facet normal -0.499999999999998 -0.86602540378444 1.09140850711865e-018
  outer loop
    vertex 13.9378221735089 -221.525070525377 -13.0
    vertex 20.0 -225.025070525377 -7.7
    vertex 13.9378221735089 -221.525070525377 -7.7
  endloop
endfacet
facet normal -1.0 -8.05704709299401e-016 -9.00643149882716e-033
  outer loop
    vertex 13.9378221735089 -214.525070525377 -7.7
    vertex 13.9378221735089 -221.525070525377 -13.0
    vertex 13.9378221735089 -221.525070525377 -7.7
  endloop
endfacet
facet normal -1.0 -8.05704709299401e-016 -9.00643149882716e-033
  outer loop
    vertex 13.9378221735089 -221.525070525377 -13.0
    vertex 13.9378221735089 -214.525070525377 -7.7
    vertex 13.9378221735089 -214.525070525377 -13.0
  endloop
endfacet
facet normal -0.500000000000002 0.866025403784437 -1.00801992455173e-017
  outer loop
    vertex 13.9378221735089 -214.525070525377 -7.7
    vertex 20.0 -211.025070525377 -13.0
    vertex 13.9378221735089 -214.525070525377 -13.0
  endloop
endfacet
facet normal -0.500000000000002 0.866025403784437 -1.00801992455173e-017
  outer loop
    vertex 20.0 -211.025070525377 -13.0
    vertex 13.9378221735089 -214.525070525377 -7.7
    vertex 20.0 -211.025070525377 -7.7
  endloop
endfacet
facet normal 0.499999999999998 0.86602540378444 -1.70317348888912e-018
  outer loop
    vertex 20.0 -211.025070525377 -7.7
    vertex 26.0621778264911 -214.525070525377 -13.0
    vertex 20.0 -211.025070525377 -13.0
  endloop
endfacet
facet normal 0.499999999999998 0.86602540378444 -1.70317348888912e-018
  outer loop
    vertex 26.0621778264911 -214.525070525377 -13.0
    vertex 20.0 -211.025070525377 -7.7
    vertex 26.0621778264911 -214.525070525377 -7.7
  endloop
endfacet
facet normal 1.0 0.0 0.0
  outer loop
    vertex 26.0621778264911 -214.525070525377 -13.0
    vertex 26.0621778264911 -221.525070525377 -7.7
    vertex 26.0621778264911 -221.525070525377 -13.0
  endloop
endfacet
facet normal 1.0 0.0 0.0
  outer loop
    vertex 26.0621778264911 -221.525070525377 -7.7
    vertex 26.0621778264911 -214.525070525377 -13.0
    vertex 26.0621778264911 -214.525070525377 -7.7
  endloop
endfacet
facet normal 0.500000000000002 -0.866025403784437 1.09812873851385e-018
  outer loop
    vertex 26.0621778264911 -221.525070525377 -7.7
    vertex 20.0 -225.025070525377 -13.0
    vertex 26.0621778264911 -221.525070525377 -13.0
  endloop
endfacet
facet normal 0.500000000000002 -0.866025403784437 1.09812873851385e-018
  outer loop
    vertex 20.0 -225.025070525377 -13.0
    vertex 26.0621778264911 -221.525070525377 -7.7
    vertex 20.0 -225.025070525377 -7.7
  endloop
endfacet
facet normal 0.0 0.0 -1.0
  outer loop
    vertex 10.3871180179927 -212.475070525377 -3.0
    vertex 12.2767834780689 -213.56606938743 -3.0
    vertex 10.3871180179927 -223.575070525377 -3.0
  endloop
endfacet
facet normal 0.0 0.0 -1.0
  outer loop
    vertex 12.2767834780689 -213.56606938743 -3.0
    vertex 10.3871180179927 -212.475070525377 -3.0
    vertex 20.0 -206.925070525377 -3.0
  endloop
endfacet
facet normal 0.0 0.0 -1.0
  outer loop
    vertex 12.2767834780689 -213.56606938743 -3.0
    vertex 20.0 -206.925070525377 -3.0
    vertex 20.0 -209.107068249483 -3.0
  endloop
endfacet
facet normal 0.0 0.0 -1.0
  outer loop
    vertex 20.0 -209.107068249483 -3.0
    vertex 20.0 -206.925070525377 -3.0
    vertex 27.7232165219311 -213.56606938743 -3.0
  endloop
endfacet
facet normal 0.0 0.0 -1.0
  outer loop
    vertex 27.7232165219311 -213.56606938743 -3.0
    vertex 20.0 -206.925070525377 -3.0
    vertex 29.6128819820073 -212.475070525377 -3.0
  endloop
endfacet
facet normal 0.0 0.0 -1.0
  outer loop
    vertex 27.7232165219311 -213.56606938743 -3.0
    vertex 29.6128819820073 -212.475070525377 -3.0
    vertex 27.7232165219311 -222.484071663323 -3.0
  endloop
endfacet
facet normal 0.0 0.0 -1.0
  outer loop
    vertex 10.3871180179927 -223.575070525377 -3.0
    vertex 12.2767834780689 -222.484071663323 -3.0
    vertex 20.0 -229.125070525377 -3.0
  endloop
endfacet
facet normal 0.0 0.0 -1.0
  outer loop
    vertex 12.2767834780689 -222.484071663323 -3.0
    vertex 10.3871180179927 -223.575070525377 -3.0
    vertex 12.2767834780689 -213.56606938743 -3.0
  endloop
endfacet
facet normal 0.0 0.0 -1.0
  outer loop
    vertex 20.0 -229.125070525377 -3.0
    vertex 12.2767834780689 -222.484071663323 -3.0
    vertex 20.0 -226.94307280127 -3.0
  endloop
endfacet
facet normal 0.0 0.0 -1.0
  outer loop
    vertex 20.0 -229.125070525377 -3.0
    vertex 20.0 -226.94307280127 -3.0
    vertex 27.7232165219311 -222.484071663323 -3.0
  endloop
endfacet
facet normal 0.0 0.0 -1.0
  outer loop
    vertex 20.0 -229.125070525377 -3.0
    vertex 27.7232165219311 -222.484071663323 -3.0
    vertex 29.6128819820073 -223.575070525377 -3.0
  endloop
endfacet
facet normal 0.0 0.0 -1.0
  outer loop
    vertex 29.6128819820073 -223.575070525377 -3.0
    vertex 27.7232165219311 -222.484071663323 -3.0
    vertex 29.6128819820073 -212.475070525377 -3.0
  endloop
endfacet
facet normal -0.382683432365119 0.923879532511275 0.0
  outer loop
    vertex 21.0352761804101 -221.888773830533 -3.0
    vertex 22.0 -221.489172140515 -13.0
    vertex 21.0352761804101 -221.888773830533 -13.0
  endloop
endfacet
facet normal -0.382683432365119 0.923879532511275 0.0
  outer loop
    vertex 22.0 -221.489172140515 -13.0
    vertex 21.0352761804101 -221.888773830533 -3.0
    vertex 22.0 -221.489172140515 -3.0
  endloop
endfacet
facet normal -0.79335334029124 0.608761429008714 0.0
  outer loop
    vertex 23.4641016151378 -220.025070525377 -3.0
    vertex 22.8284271247462 -220.853497650123 -13.0
    vertex 22.8284271247462 -220.853497650123 -3.0
  endloop
endfacet
facet normal -0.79335334029124 0.608761429008714 0.0
  outer loop
    vertex 22.8284271247462 -220.853497650123 -13.0
    vertex 23.4641016151378 -220.025070525377 -3.0
    vertex 23.4641016151378 -220.025070525377 -13.0
  endloop
endfacet
facet normal -0.608761429008703 0.793353340291249 0.0
  outer loop
    vertex 22.0 -221.489172140515 -3.0
    vertex 22.8284271247462 -220.853497650123 -13.0
    vertex 22.0 -221.489172140515 -13.0
  endloop
endfacet
facet normal -0.608761429008703 0.793353340291249 0.0
  outer loop
    vertex 22.8284271247462 -220.853497650123 -13.0
    vertex 22.0 -221.489172140515 -3.0
    vertex 22.8284271247462 -220.853497650123 -3.0
  endloop
endfacet
facet normal -1.0 -6.35127586159436e-016 -0.0
  outer loop
    vertex 10.3871180179927 -212.475070525377 7.0
    vertex 10.3871180179927 -223.575070525377 -3.0
    vertex 10.3871180179927 -223.575070525377 7.0
  endloop
endfacet
facet normal -1.0 -6.35127586159436e-016 -0.0
  outer loop
    vertex 10.3871180179927 -223.575070525377 -3.0
    vertex 10.3871180179927 -212.475070525377 7.0
    vertex 10.3871180179927 -212.475070525377 -3.0
  endloop
endfacet
facet normal -0.5 0.866025403784439 0.0
  outer loop
    vertex 10.3871180179927 -212.475070525377 7.0
    vertex 20.0 -206.925070525377 -3.0
    vertex 10.3871180179927 -212.475070525377 -3.0
  endloop
endfacet
facet normal -0.5 0.866025403784439 0.0
  outer loop
    vertex 20.0 -206.925070525377 -3.0
    vertex 10.3871180179927 -212.475070525377 7.0
    vertex 20.0 -206.925070525377 7.0
  endloop
endfacet
facet normal 0.5 0.866025403784439 0.0
  outer loop
    vertex 20.0 -206.925070525377 7.0
    vertex 29.6128819820073 -212.475070525377 -3.0
    vertex 20.0 -206.925070525377 -3.0
  endloop
endfacet
facet normal 0.5 0.866025403784439 0.0
  outer loop
    vertex 29.6128819820073 -212.475070525377 -3.0
    vertex 20.0 -206.925070525377 7.0
    vertex 29.6128819820073 -212.475070525377 7.0
  endloop
endfacet
facet normal 1.0 5.08102068927549e-016 0.0
  outer loop
    vertex 29.6128819820073 -212.475070525377 -3.0
    vertex 29.6128819820073 -223.575070525377 7.0
    vertex 29.6128819820073 -223.575070525377 -3.0
  endloop
endfacet
facet normal 1.0 5.08102068927549e-016 0.0
  outer loop
    vertex 29.6128819820073 -223.575070525377 7.0
    vertex 29.6128819820073 -212.475070525377 -3.0
    vertex 29.6128819820073 -212.475070525377 7.0
  endloop
endfacet
facet normal 0.5 -0.866025403784439 0.0
  outer loop
    vertex 29.6128819820073 -223.575070525377 7.0
    vertex 20.0 -229.125070525377 -3.0
    vertex 29.6128819820073 -223.575070525377 -3.0
  endloop
endfacet
facet normal 0.5 -0.866025403784439 0.0
  outer loop
    vertex 20.0 -229.125070525377 -3.0
    vertex 29.6128819820073 -223.575070525377 7.0
    vertex 20.0 -229.125070525377 7.0
  endloop
endfacet
facet normal -0.5 -0.866025403784439 -0.0
  outer loop
    vertex 20.0 -229.125070525377 7.0
    vertex 10.3871180179927 -223.575070525377 -3.0
    vertex 20.0 -229.125070525377 -3.0
  endloop
endfacet
facet normal -0.5 -0.866025403784439 -0.0
  outer loop
    vertex 10.3871180179927 -223.575070525377 -3.0
    vertex 20.0 -229.125070525377 7.0
    vertex 10.3871180179927 -223.575070525377 7.0
  endloop
endfacet
facet normal -0.130526192220031 0.991444861373813 0.0
  outer loop
    vertex 20.0 -222.025070525377 -3.0
    vertex 21.0352761804101 -221.888773830533 -13.0
    vertex 20.0 -222.025070525377 -13.0
  endloop
endfacet
facet normal -0.130526192220031 0.991444861373813 0.0
  outer loop
    vertex 21.0352761804101 -221.888773830533 -13.0
    vertex 20.0 -222.025070525377 -3.0
    vertex 21.0352761804101 -221.888773830533 -3.0
  endloop
endfacet
facet normal 0.608761429008732 -0.793353340291227 0.0
  outer loop
    vertex 18.0 -214.560968910239 -3.0
    vertex 17.1715728752538 -215.196643400631 -13.0
    vertex 18.0 -214.560968910239 -13.0
  endloop
endfacet
facet normal 0.608761429008732 -0.793353340291227 0.0
  outer loop
    vertex 17.1715728752538 -215.196643400631 -13.0
    vertex 18.0 -214.560968910239 -3.0
    vertex 17.1715728752538 -215.196643400631 -3.0
  endloop
endfacet
facet normal 0.130526192220031 -0.991444861373813 0.0
  outer loop
    vertex 20.0 -214.025070525377 -3.0
    vertex 18.9647238195899 -214.161367220221 -13.0
    vertex 20.0 -214.025070525377 -13.0
  endloop
endfacet
facet normal 0.258819045102506 -0.965925826289072 0.0
  outer loop
    vertex 18.9647238195899 -214.161367220221 -13.0
    vertex 20.0 -214.025070525377 -3.0
    vertex 18.9647238195899 -214.161367220221 -3.0
  endloop
endfacet
facet normal 0.923879532511286 0.382683432365093 0.0
  outer loop
    vertex 16.1362966948437 -219.060346705787 -13.0
    vertex 16.5358983848622 -220.025070525377 -3.0
    vertex 16.5358983848622 -220.025070525377 -13.0
  endloop
endfacet
facet normal 0.866025403784439 0.499999999999999 0.0
  outer loop
    vertex 16.5358983848622 -220.025070525377 -3.0
    vertex 16.1362966948437 -219.060346705787 -13.0
    vertex 16.1362966948437 -219.060346705787 -3.0
  endloop
endfacet
facet normal 0.866025403784439 0.499999999999999 0.0
  outer loop
    vertex 16.5358983848622 -220.025070525377 -13.0
    vertex 17.1715728752538 -220.853497650123 -3.0
    vertex 17.1715728752538 -220.853497650123 -13.0
  endloop
endfacet
facet normal 0.793353340291239 0.608761429008716 0.0
  outer loop
    vertex 17.1715728752538 -220.853497650123 -3.0
    vertex 16.5358983848622 -220.025070525377 -13.0
    vertex 16.5358983848622 -220.025070525377 -3.0
  endloop
endfacet
facet normal 0.793353340291239 -0.608761429008716 0.0
  outer loop
    vertex 17.1715728752538 -215.196643400631 -13.0
    vertex 16.5358983848622 -216.025070525377 -3.0
    vertex 16.5358983848622 -216.025070525377 -13.0
  endloop
endfacet
facet normal 0.793353340291239 -0.608761429008716 0.0
  outer loop
    vertex 16.5358983848622 -216.025070525377 -3.0
    vertex 17.1715728752538 -215.196643400631 -13.0
    vertex 17.1715728752538 -215.196643400631 -3.0
  endloop
endfacet
facet normal 1.0 8.05704709299401e-016 0.0
  outer loop
    vertex 13.9378221735089 -214.525070525377 -3.0
    vertex 13.9378221735089 -221.525070525377 7.0
    vertex 13.9378221735089 -221.525070525377 -3.0
  endloop
endfacet
facet normal 1.0 8.05704709299401e-016 0.0
  outer loop
    vertex 13.9378221735089 -221.525070525377 7.0
    vertex 13.9378221735089 -214.525070525377 -3.0
    vertex 13.9378221735089 -214.525070525377 7.0
  endloop
endfacet
facet normal 1.0 0.0 0.0
  outer loop
    vertex 16.0 -218.025070525377 -13.0
    vertex 16.1362966948437 -219.060346705787 -3.0
    vertex 16.1362966948437 -219.060346705787 -13.0
  endloop
endfacet
facet normal 0.99144486137381 0.130526192220051 0.0
  outer loop
    vertex 16.1362966948437 -219.060346705787 -3.0
    vertex 16.0 -218.025070525377 -13.0
    vertex 16.0 -218.025070525377 -3.0
  endloop
endfacet
facet normal 0.258819045102506 -0.965925826289072 0.0
  outer loop
    vertex 18.9647238195899 -214.161367220221 -3.0
    vertex 18.0 -214.560968910239 -13.0
    vertex 18.9647238195899 -214.161367220221 -13.0
  endloop
endfacet
facet normal 0.382683432365082 -0.92387953251129 0.0
  outer loop
    vertex 18.0 -214.560968910239 -13.0
    vertex 18.9647238195899 -214.161367220221 -3.0
    vertex 18.0 -214.560968910239 -3.0
  endloop
endfacet
facet normal 0.13052619222003 0.991444861373813 0.0
  outer loop
    vertex 18.9647238195899 -221.888773830533 -3.0
    vertex 20.0 -222.025070525377 -13.0
    vertex 18.9647238195899 -221.888773830533 -13.0
  endloop
endfacet
facet normal 0.13052619222003 0.991444861373813 0.0
  outer loop
    vertex 20.0 -222.025070525377 -13.0
    vertex 18.9647238195899 -221.888773830533 -3.0
    vertex 20.0 -222.025070525377 -3.0
  endloop
endfacet
facet normal 0.500000000000002 -0.866025403784437 0.0
  outer loop
    vertex 20.0 -211.025070525377 7.0
    vertex 13.9378221735089 -214.525070525377 -3.0
    vertex 20.0 -211.025070525377 -3.0
  endloop
endfacet
facet normal 0.500000000000002 -0.866025403784437 0.0
  outer loop
    vertex 13.9378221735089 -214.525070525377 -3.0
    vertex 20.0 -211.025070525377 7.0
    vertex 13.9378221735089 -214.525070525377 7.0
  endloop
endfacet
facet normal -0.499999999999998 -0.86602540378444 0.0
  outer loop
    vertex 26.0621778264911 -214.525070525377 7.0
    vertex 20.0 -211.025070525377 -3.0
    vertex 26.0621778264911 -214.525070525377 -3.0
  endloop
endfacet
facet normal -0.499999999999998 -0.86602540378444 0.0
  outer loop
    vertex 20.0 -211.025070525377 -3.0
    vertex 26.0621778264911 -214.525070525377 7.0
    vertex 20.0 -211.025070525377 7.0
  endloop
endfacet
facet normal 0.99144486137381 -0.130526192220051 0.0
  outer loop
    vertex 16.1362966948437 -216.989794344967 -13.0
    vertex 16.0 -218.025070525377 -3.0
    vertex 16.0 -218.025070525377 -13.0
  endloop
endfacet
facet normal 1.0 0.0 0.0
  outer loop
    vertex 16.0 -218.025070525377 -3.0
    vertex 16.1362966948437 -216.989794344967 -13.0
    vertex 16.1362966948437 -216.989794344967 -3.0
  endloop
endfacet
facet normal -1.0 0.0 0.0
  outer loop
    vertex 26.0621778264911 -214.525070525377 7.0
    vertex 26.0621778264911 -221.525070525377 -3.0
    vertex 26.0621778264911 -221.525070525377 7.0
  endloop
endfacet
facet normal -1.0 0.0 0.0
  outer loop
    vertex 26.0621778264911 -221.525070525377 -3.0
    vertex 26.0621778264911 -214.525070525377 7.0
    vertex 26.0621778264911 -214.525070525377 -3.0
  endloop
endfacet
facet normal 0.608761429008704 0.793353340291248 0.0
  outer loop
    vertex 17.1715728752538 -220.853497650123 -3.0
    vertex 18.0 -221.489172140515 -13.0
    vertex 17.1715728752538 -220.853497650123 -13.0
  endloop
endfacet
facet normal 0.608761429008704 0.793353340291248 0.0
  outer loop
    vertex 18.0 -221.489172140515 -13.0
    vertex 17.1715728752538 -220.853497650123 -3.0
    vertex 18.0 -221.489172140515 -3.0
  endloop
endfacet
facet normal -0.500000000000002 0.866025403784437 0.0
  outer loop
    vertex 20.0 -225.025070525377 7.0
    vertex 26.0621778264911 -221.525070525377 -3.0
    vertex 20.0 -225.025070525377 -3.0
  endloop
endfacet
facet normal -0.500000000000002 0.866025403784437 0.0
  outer loop
    vertex 26.0621778264911 -221.525070525377 -3.0
    vertex 20.0 -225.025070525377 7.0
    vertex 26.0621778264911 -221.525070525377 7.0
  endloop
endfacet
facet normal 0.382683432365119 0.923879532511275 0.0
  outer loop
    vertex 18.0 -221.489172140515 -3.0
    vertex 18.9647238195899 -221.888773830533 -13.0
    vertex 18.0 -221.489172140515 -13.0
  endloop
endfacet
facet normal 0.382683432365119 0.923879532511275 0.0
  outer loop
    vertex 18.9647238195899 -221.888773830533 -13.0
    vertex 18.0 -221.489172140515 -3.0
    vertex 18.9647238195899 -221.888773830533 -3.0
  endloop
endfacet
facet normal 0.0 0.0 -1.0
  outer loop
    vertex 13.9378221735089 -214.525070525377 -13.0
    vertex 16.5358983848622 -216.025070525377 -13.0
    vertex 13.9378221735089 -221.525070525377 -13.0
  endloop
endfacet
facet normal 0.0 0.0 -1.0
  outer loop
    vertex 16.5358983848622 -216.025070525377 -13.0
    vertex 13.9378221735089 -214.525070525377 -13.0
    vertex 20.0 -211.025070525377 -13.0
  endloop
endfacet
facet normal 0.0 0.0 -1.0
  outer loop
    vertex 13.9378221735089 -221.525070525377 -13.0
    vertex 16.5358983848622 -216.025070525377 -13.0
    vertex 16.1362966948437 -216.989794344967 -13.0
  endloop
endfacet
facet normal 0.0 0.0 -1.0
  outer loop
    vertex 13.9378221735089 -221.525070525377 -13.0
    vertex 16.1362966948437 -216.989794344967 -13.0
    vertex 16.0 -218.025070525377 -13.0
  endloop
endfacet
facet normal 0.0 0.0 -1.0
  outer loop
    vertex 16.5358983848622 -216.025070525377 -13.0
    vertex 20.0 -211.025070525377 -13.0
    vertex 17.1715728752538 -215.196643400631 -13.0
  endloop
endfacet
facet normal 0.0 0.0 -1.0
  outer loop
    vertex 17.1715728752538 -215.196643400631 -13.0
    vertex 20.0 -211.025070525377 -13.0
    vertex 18.0 -214.560968910239 -13.0
  endloop
endfacet
facet normal 0.0 0.0 -1.0
  outer loop
    vertex 18.0 -214.560968910239 -13.0
    vertex 20.0 -211.025070525377 -13.0
    vertex 18.9647238195899 -214.161367220221 -13.0
  endloop
endfacet
facet normal 0.0 0.0 -1.0
  outer loop
    vertex 18.9647238195899 -214.161367220221 -13.0
    vertex 20.0 -211.025070525377 -13.0
    vertex 20.0 -214.025070525377 -13.0
  endloop
endfacet
facet normal 0.0 0.0 -1.0
  outer loop
    vertex 20.0 -214.025070525377 -13.0
    vertex 20.0 -211.025070525377 -13.0
    vertex 26.0621778264911 -214.525070525377 -13.0
  endloop
endfacet
facet normal 0.0 0.0 -1.0
  outer loop
    vertex 20.0 -214.025070525377 -13.0
    vertex 26.0621778264911 -214.525070525377 -13.0
    vertex 21.0352761804101 -214.161367220221 -13.0
  endloop
endfacet
facet normal 0.0 0.0 -1.0
  outer loop
    vertex 21.0352761804101 -214.161367220221 -13.0
    vertex 26.0621778264911 -214.525070525377 -13.0
    vertex 22.0 -214.560968910239 -13.0
  endloop
endfacet
facet normal 0.0 0.0 -1.0
  outer loop
    vertex 22.0 -214.560968910239 -13.0
    vertex 26.0621778264911 -214.525070525377 -13.0
    vertex 22.8284271247462 -215.196643400631 -13.0
  endloop
endfacet
facet normal 0.0 0.0 -1.0
  outer loop
    vertex 22.8284271247462 -215.196643400631 -13.0
    vertex 26.0621778264911 -214.525070525377 -13.0
    vertex 23.4641016151378 -216.025070525377 -13.0
  endloop
endfacet
facet normal 0.0 0.0 -1.0
  outer loop
    vertex 23.4641016151378 -216.025070525377 -13.0
    vertex 26.0621778264911 -214.525070525377 -13.0
    vertex 23.8637033051563 -216.989794344967 -13.0
  endloop
endfacet
facet normal 0.0 0.0 -1.0
  outer loop
    vertex 23.8637033051563 -216.989794344967 -13.0
    vertex 26.0621778264911 -214.525070525377 -13.0
    vertex 24.0 -218.025070525377 -13.0
  endloop
endfacet
facet normal 0.0 0.0 -1.0
  outer loop
    vertex 13.9378221735089 -221.525070525377 -13.0
    vertex 16.5358983848622 -220.025070525377 -13.0
    vertex 20.0 -225.025070525377 -13.0
  endloop
endfacet
facet normal 0.0 0.0 -1.0
  outer loop
    vertex 16.5358983848622 -220.025070525377 -13.0
    vertex 13.9378221735089 -221.525070525377 -13.0
    vertex 16.1362966948437 -219.060346705787 -13.0
  endloop
endfacet
facet normal 0.0 0.0 -1.0
  outer loop
    vertex 16.1362966948437 -219.060346705787 -13.0
    vertex 13.9378221735089 -221.525070525377 -13.0
    vertex 16.0 -218.025070525377 -13.0
  endloop
endfacet
facet normal 0.0 0.0 -1.0
  outer loop
    vertex 20.0 -225.025070525377 -13.0
    vertex 16.5358983848622 -220.025070525377 -13.0
    vertex 17.1715728752538 -220.853497650123 -13.0
  endloop
endfacet
facet normal 0.0 0.0 -1.0
  outer loop
    vertex 20.0 -225.025070525377 -13.0
    vertex 17.1715728752538 -220.853497650123 -13.0
    vertex 18.0 -221.489172140515 -13.0
  endloop
endfacet
facet normal 0.0 0.0 -1.0
  outer loop
    vertex 20.0 -225.025070525377 -13.0
    vertex 18.0 -221.489172140515 -13.0
    vertex 18.9647238195899 -221.888773830533 -13.0
  endloop
endfacet
facet normal 0.0 0.0 -1.0
  outer loop
    vertex 20.0 -225.025070525377 -13.0
    vertex 18.9647238195899 -221.888773830533 -13.0
    vertex 20.0 -222.025070525377 -13.0
  endloop
endfacet
facet normal 0.0 0.0 -1.0
  outer loop
    vertex 20.0 -225.025070525377 -13.0
    vertex 20.0 -222.025070525377 -13.0
    vertex 21.0352761804101 -221.888773830533 -13.0
  endloop
endfacet
facet normal 0.0 0.0 -1.0
  outer loop
    vertex 20.0 -225.025070525377 -13.0
    vertex 21.0352761804101 -221.888773830533 -13.0
    vertex 26.0621778264911 -221.525070525377 -13.0
  endloop
endfacet
facet normal 0.0 0.0 -1.0
  outer loop
    vertex 26.0621778264911 -221.525070525377 -13.0
    vertex 21.0352761804101 -221.888773830533 -13.0
    vertex 22.0 -221.489172140515 -13.0
  endloop
endfacet
facet normal 0.0 0.0 -1.0
  outer loop
    vertex 26.0621778264911 -221.525070525377 -13.0
    vertex 22.0 -221.489172140515 -13.0
    vertex 22.8284271247462 -220.853497650123 -13.0
  endloop
endfacet
facet normal 0.0 0.0 -1.0
  outer loop
    vertex 26.0621778264911 -221.525070525377 -13.0
    vertex 22.8284271247462 -220.853497650123 -13.0
    vertex 23.4641016151378 -220.025070525377 -13.0
  endloop
endfacet
facet normal 0.0 0.0 -1.0
  outer loop
    vertex 26.0621778264911 -221.525070525377 -13.0
    vertex 23.4641016151378 -220.025070525377 -13.0
    vertex 23.8637033051563 -219.060346705787 -13.0
  endloop
endfacet
facet normal 0.0 0.0 -1.0
  outer loop
    vertex 26.0621778264911 -221.525070525377 -13.0
    vertex 23.8637033051563 -219.060346705787 -13.0
    vertex 24.0 -218.025070525377 -13.0
  endloop
endfacet
facet normal 0.0 0.0 -1.0
  outer loop
    vertex 26.0621778264911 -221.525070525377 -13.0
    vertex 24.0 -218.025070525377 -13.0
    vertex 26.0621778264911 -214.525070525377 -13.0
  endloop
endfacet
facet normal 0.499999999999998 0.86602540378444 0.0
  outer loop
    vertex 13.9378221735089 -221.525070525377 7.0
    vertex 20.0 -225.025070525377 -3.0
    vertex 13.9378221735089 -221.525070525377 -3.0
  endloop
endfacet
facet normal 0.499999999999998 0.86602540378444 0.0
  outer loop
    vertex 20.0 -225.025070525377 -3.0
    vertex 13.9378221735089 -221.525070525377 7.0
    vertex 20.0 -225.025070525377 7.0
  endloop
endfacet
facet normal -0.13052619222003 -0.991444861373813 0.0
  outer loop
    vertex 21.0352761804101 -214.161367220221 -3.0
    vertex 20.0 -214.025070525377 -13.0
    vertex 21.0352761804101 -214.161367220221 -13.0
  endloop
endfacet
facet normal -0.13052619222003 -0.991444861373813 0.0
  outer loop
    vertex 20.0 -214.025070525377 -13.0
    vertex 21.0352761804101 -214.161367220221 -3.0
    vertex 20.0 -214.025070525377 -3.0
  endloop
endfacet
facet normal 0.923879532511285 -0.382683432365095 0.0
  outer loop
    vertex 16.5358983848622 -216.025070525377 -13.0
    vertex 16.1362966948437 -216.989794344967 -3.0
    vertex 16.1362966948437 -216.989794344967 -13.0
  endloop
endfacet
facet normal 0.923879532511285 -0.382683432365095 0.0
  outer loop
    vertex 16.1362966948437 -216.989794344967 -3.0
    vertex 16.5358983848622 -216.025070525377 -13.0
    vertex 16.5358983848622 -216.025070525377 -3.0
  endloop
endfacet
facet normal 0.0 0.0 1.0
  outer loop
    vertex 13.9378221735089 -221.525070525377 -3.0
    vertex 16.1362966948437 -219.060346705787 -3.0
    vertex 16.0 -218.025070525377 -3.0
  endloop
endfacet
facet normal 0.0 0.0 1.0
  outer loop
    vertex 16.1362966948437 -219.060346705787 -3.0
    vertex 13.9378221735089 -221.525070525377 -3.0
    vertex 16.5358983848622 -220.025070525377 -3.0
  endloop
endfacet
facet normal 0.0 0.0 1.0
  outer loop
    vertex 16.5358983848622 -220.025070525377 -3.0
    vertex 13.9378221735089 -221.525070525377 -3.0
    vertex 20.0 -225.025070525377 -3.0
  endloop
endfacet
facet normal 0.0 0.0 1.0
  outer loop
    vertex 16.5358983848622 -220.025070525377 -3.0
    vertex 20.0 -225.025070525377 -3.0
    vertex 17.1715728752538 -220.853497650123 -3.0
  endloop
endfacet
facet normal 0.0 0.0 1.0
  outer loop
    vertex 17.1715728752538 -220.853497650123 -3.0
    vertex 20.0 -225.025070525377 -3.0
    vertex 18.0 -221.489172140515 -3.0
  endloop
endfacet
facet normal 0.0 0.0 1.0
  outer loop
    vertex 18.0 -221.489172140515 -3.0
    vertex 20.0 -225.025070525377 -3.0
    vertex 18.9647238195899 -221.888773830533 -3.0
  endloop
endfacet
facet normal 0.0 0.0 1.0
  outer loop
    vertex 18.9647238195899 -221.888773830533 -3.0
    vertex 20.0 -225.025070525377 -3.0
    vertex 20.0 -222.025070525377 -3.0
  endloop
endfacet
facet normal 0.0 0.0 1.0
  outer loop
    vertex 20.0 -222.025070525377 -3.0
    vertex 20.0 -225.025070525377 -3.0
    vertex 26.0621778264911 -221.525070525377 -3.0
  endloop
endfacet
facet normal 0.0 0.0 1.0
  outer loop
    vertex 20.0 -222.025070525377 -3.0
    vertex 26.0621778264911 -221.525070525377 -3.0
    vertex 21.0352761804101 -221.888773830533 -3.0
  endloop
endfacet
facet normal 0.0 0.0 1.0
  outer loop
    vertex 21.0352761804101 -221.888773830533 -3.0
    vertex 26.0621778264911 -221.525070525377 -3.0
    vertex 22.0 -221.489172140515 -3.0
  endloop
endfacet
facet normal 0.0 0.0 1.0
  outer loop
    vertex 22.0 -221.489172140515 -3.0
    vertex 26.0621778264911 -221.525070525377 -3.0
    vertex 22.8284271247462 -220.853497650123 -3.0
  endloop
endfacet
facet normal 0.0 0.0 1.0
  outer loop
    vertex 22.8284271247462 -220.853497650123 -3.0
    vertex 26.0621778264911 -221.525070525377 -3.0
    vertex 23.4641016151378 -220.025070525377 -3.0
  endloop
endfacet
facet normal 0.0 0.0 1.0
  outer loop
    vertex 23.4641016151378 -220.025070525377 -3.0
    vertex 26.0621778264911 -221.525070525377 -3.0
    vertex 23.8637033051563 -219.060346705787 -3.0
  endloop
endfacet
facet normal 0.0 0.0 1.0
  outer loop
    vertex 23.8637033051563 -219.060346705787 -3.0
    vertex 26.0621778264911 -221.525070525377 -3.0
    vertex 24.0 -218.025070525377 -3.0
  endloop
endfacet
facet normal 0.0 0.0 1.0
  outer loop
    vertex 13.9378221735089 -214.525070525377 -3.0
    vertex 16.5358983848622 -216.025070525377 -3.0
    vertex 20.0 -211.025070525377 -3.0
  endloop
endfacet
facet normal 0.0 0.0 1.0
  outer loop
    vertex 16.5358983848622 -216.025070525377 -3.0
    vertex 13.9378221735089 -214.525070525377 -3.0
    vertex 13.9378221735089 -221.525070525377 -3.0
  endloop
endfacet
facet normal 0.0 0.0 1.0
  outer loop
    vertex 16.5358983848622 -216.025070525377 -3.0
    vertex 13.9378221735089 -221.525070525377 -3.0
    vertex 16.1362966948437 -216.989794344967 -3.0
  endloop
endfacet
facet normal 0.0 0.0 1.0
  outer loop
    vertex 16.1362966948437 -216.989794344967 -3.0
    vertex 13.9378221735089 -221.525070525377 -3.0
    vertex 16.0 -218.025070525377 -3.0
  endloop
endfacet
facet normal 0.0 0.0 1.0
  outer loop
    vertex 20.0 -211.025070525377 -3.0
    vertex 16.5358983848622 -216.025070525377 -3.0
    vertex 17.1715728752538 -215.196643400631 -3.0
  endloop
endfacet
facet normal 0.0 0.0 1.0
  outer loop
    vertex 20.0 -211.025070525377 -3.0
    vertex 17.1715728752538 -215.196643400631 -3.0
    vertex 18.0 -214.560968910239 -3.0
  endloop
endfacet
facet normal 0.0 0.0 1.0
  outer loop
    vertex 20.0 -211.025070525377 -3.0
    vertex 18.0 -214.560968910239 -3.0
    vertex 18.9647238195899 -214.161367220221 -3.0
  endloop
endfacet
facet normal 0.0 0.0 1.0
  outer loop
    vertex 20.0 -211.025070525377 -3.0
    vertex 18.9647238195899 -214.161367220221 -3.0
    vertex 20.0 -214.025070525377 -3.0
  endloop
endfacet
facet normal 0.0 0.0 1.0
  outer loop
    vertex 20.0 -211.025070525377 -3.0
    vertex 20.0 -214.025070525377 -3.0
    vertex 21.0352761804101 -214.161367220221 -3.0
  endloop
endfacet
facet normal 0.0 0.0 1.0
  outer loop
    vertex 20.0 -211.025070525377 -3.0
    vertex 21.0352761804101 -214.161367220221 -3.0
    vertex 26.0621778264911 -214.525070525377 -3.0
  endloop
endfacet
facet normal 0.0 0.0 1.0
  outer loop
    vertex 26.0621778264911 -214.525070525377 -3.0
    vertex 21.0352761804101 -214.161367220221 -3.0
    vertex 22.0 -214.560968910239 -3.0
  endloop
endfacet
facet normal 0.0 0.0 1.0
  outer loop
    vertex 26.0621778264911 -214.525070525377 -3.0
    vertex 22.0 -214.560968910239 -3.0
    vertex 22.8284271247462 -215.196643400631 -3.0
  endloop
endfacet
facet normal 0.0 0.0 1.0
  outer loop
    vertex 26.0621778264911 -214.525070525377 -3.0
    vertex 22.8284271247462 -215.196643400631 -3.0
    vertex 23.4641016151378 -216.025070525377 -3.0
  endloop
endfacet
facet normal 0.0 0.0 1.0
  outer loop
    vertex 26.0621778264911 -214.525070525377 -3.0
    vertex 23.4641016151378 -216.025070525377 -3.0
    vertex 23.8637033051563 -216.989794344967 -3.0
  endloop
endfacet
facet normal 0.0 0.0 1.0
  outer loop
    vertex 26.0621778264911 -214.525070525377 -3.0
    vertex 23.8637033051563 -216.989794344967 -3.0
    vertex 24.0 -218.025070525377 -3.0
  endloop
endfacet
facet normal 0.0 0.0 1.0
  outer loop
    vertex 26.0621778264911 -214.525070525377 -3.0
    vertex 24.0 -218.025070525377 -3.0
    vertex 26.0621778264911 -221.525070525377 -3.0
  endloop
endfacet
facet normal 0.0 0.0 -1.0
  outer loop
    vertex 12.2767834780689 -213.56606938743 -7.7
    vertex 13.9378221735089 -214.525070525377 -7.7
    vertex 12.2767834780689 -222.484071663323 -7.7
  endloop
endfacet
facet normal 0.0 0.0 -1.0
  outer loop
    vertex 13.9378221735089 -214.525070525377 -7.7
    vertex 12.2767834780689 -213.56606938743 -7.7
    vertex 20.0 -209.107068249483 -7.7
  endloop
endfacet
facet normal 0.0 0.0 -1.0
  outer loop
    vertex 13.9378221735089 -214.525070525377 -7.7
    vertex 20.0 -209.107068249483 -7.7
    vertex 20.0 -211.025070525377 -7.7
  endloop
endfacet
facet normal 0.0 0.0 -1.0
  outer loop
    vertex 20.0 -211.025070525377 -7.7
    vertex 20.0 -209.107068249483 -7.7
    vertex 27.7232165219311 -213.56606938743 -7.7
  endloop
endfacet
facet normal 0.0 0.0 -1.0
  outer loop
    vertex 20.0 -211.025070525377 -7.7
    vertex 27.7232165219311 -213.56606938743 -7.7
    vertex 26.0621778264911 -214.525070525377 -7.7
  endloop
endfacet
facet normal 0.0 0.0 -1.0
  outer loop
    vertex 26.0621778264911 -214.525070525377 -7.7
    vertex 27.7232165219311 -213.56606938743 -7.7
    vertex 26.0621778264911 -221.525070525377 -7.7
  endloop
endfacet
facet normal 0.0 0.0 -1.0
  outer loop
    vertex 12.2767834780689 -222.484071663323 -7.7
    vertex 13.9378221735089 -221.525070525377 -7.7
    vertex 20.0 -226.94307280127 -7.7
  endloop
endfacet
facet normal 0.0 0.0 -1.0
  outer loop
    vertex 13.9378221735089 -221.525070525377 -7.7
    vertex 12.2767834780689 -222.484071663323 -7.7
    vertex 13.9378221735089 -214.525070525377 -7.7
  endloop
endfacet
facet normal 0.0 0.0 -1.0
  outer loop
    vertex 20.0 -226.94307280127 -7.7
    vertex 13.9378221735089 -221.525070525377 -7.7
    vertex 20.0 -225.025070525377 -7.7
  endloop
endfacet
facet normal 0.0 0.0 -1.0
  outer loop
    vertex 20.0 -226.94307280127 -7.7
    vertex 20.0 -225.025070525377 -7.7
    vertex 27.7232165219311 -222.484071663323 -7.7
  endloop
endfacet
facet normal 0.0 0.0 -1.0
  outer loop
    vertex 27.7232165219311 -222.484071663323 -7.7
    vertex 20.0 -225.025070525377 -7.7
    vertex 26.0621778264911 -221.525070525377 -7.7
  endloop
endfacet
facet normal 0.0 0.0 -1.0
  outer loop
    vertex 27.7232165219311 -222.484071663323 -7.7
    vertex 26.0621778264911 -221.525070525377 -7.7
    vertex 27.7232165219311 -213.56606938743 -7.7
  endloop
endfacet
facet normal -0.499999999999998 -0.86602540378444 0.0
  outer loop
    vertex 20.0 -225.025070525377 -3.0
    vertex 13.9378221735089 -221.525070525377 -7.7
    vertex 20.0 -225.025070525377 -7.7
  endloop
endfacet
facet normal -0.499999999999998 -0.86602540378444 0.0
  outer loop
    vertex 13.9378221735089 -221.525070525377 -7.7
    vertex 20.0 -225.025070525377 -3.0
    vertex 13.9378221735089 -221.525070525377 -3.0
  endloop
endfacet
facet normal -0.500000000000001 -0.866025403784438 -0.0
  outer loop
    vertex 20.0 -226.94307280127 -3.0
    vertex 12.2767834780689 -222.484071663323 -7.7
    vertex 20.0 -226.94307280127 -7.7
  endloop
endfacet
facet normal -0.500000000000001 -0.866025403784438 -0.0
  outer loop
    vertex 12.2767834780689 -222.484071663323 -7.7
    vertex 20.0 -226.94307280127 -3.0
    vertex 12.2767834780689 -222.484071663323 -3.0
  endloop
endfacet
facet normal -0.5 0.866025403784438 0.0
  outer loop
    vertex 12.2767834780689 -213.56606938743 -3.0
    vertex 20.0 -209.107068249483 -7.7
    vertex 12.2767834780689 -213.56606938743 -7.7
  endloop
endfacet
facet normal -0.5 0.866025403784438 0.0
  outer loop
    vertex 20.0 -209.107068249483 -7.7
    vertex 12.2767834780689 -213.56606938743 -3.0
    vertex 20.0 -209.107068249483 -3.0
  endloop
endfacet
facet normal 0.499999999999998 0.86602540378444 0.0
  outer loop
    vertex 20.0 -211.025070525377 -3.0
    vertex 26.0621778264911 -214.525070525377 -7.7
    vertex 20.0 -211.025070525377 -7.7
  endloop
endfacet
facet normal 0.499999999999998 0.86602540378444 0.0
  outer loop
    vertex 26.0621778264911 -214.525070525377 -7.7
    vertex 20.0 -211.025070525377 -3.0
    vertex 26.0621778264911 -214.525070525377 -3.0
  endloop
endfacet
facet normal 1.0 0.0 0.0
  outer loop
    vertex 26.0621778264911 -214.525070525377 -7.7
    vertex 26.0621778264911 -221.525070525377 -3.0
    vertex 26.0621778264911 -221.525070525377 -7.7
  endloop
endfacet
facet normal 1.0 0.0 0.0
  outer loop
    vertex 26.0621778264911 -221.525070525377 -3.0
    vertex 26.0621778264911 -214.525070525377 -7.7
    vertex 26.0621778264911 -214.525070525377 -3.0
  endloop
endfacet
facet normal -1.0 -9.48631676234491e-016 -0.0
  outer loop
    vertex 12.2767834780689 -213.56606938743 -3.0
    vertex 12.2767834780689 -222.484071663323 -7.7
    vertex 12.2767834780689 -222.484071663323 -3.0
  endloop
endfacet
facet normal -1.0 -9.48631676234491e-016 -0.0
  outer loop
    vertex 12.2767834780689 -222.484071663323 -7.7
    vertex 12.2767834780689 -213.56606938743 -3.0
    vertex 12.2767834780689 -213.56606938743 -7.7
  endloop
endfacet
facet normal 0.500000000000002 -0.866025403784437 0.0
  outer loop
    vertex 26.0621778264911 -221.525070525377 -3.0
    vertex 20.0 -225.025070525377 -7.7
    vertex 26.0621778264911 -221.525070525377 -7.7
  endloop
endfacet
facet normal 0.500000000000002 -0.866025403784437 0.0
  outer loop
    vertex 20.0 -225.025070525377 -7.7
    vertex 26.0621778264911 -221.525070525377 -3.0
    vertex 20.0 -225.025070525377 -3.0
  endloop
endfacet
facet normal 0.5 -0.866025403784438 0.0
  outer loop
    vertex 27.7232165219311 -222.484071663323 -3.0
    vertex 20.0 -226.94307280127 -7.7
    vertex 27.7232165219311 -222.484071663323 -7.7
  endloop
endfacet
facet normal 0.5 -0.866025403784438 0.0
  outer loop
    vertex 20.0 -226.94307280127 -7.7
    vertex 27.7232165219311 -222.484071663323 -3.0
    vertex 20.0 -226.94307280127 -3.0
  endloop
endfacet
facet normal -0.500000000000002 0.866025403784437 0.0
  outer loop
    vertex 13.9378221735089 -214.525070525377 -3.0
    vertex 20.0 -211.025070525377 -7.7
    vertex 13.9378221735089 -214.525070525377 -7.7
  endloop
endfacet
facet normal -0.500000000000002 0.866025403784437 0.0
  outer loop
    vertex 20.0 -211.025070525377 -7.7
    vertex 13.9378221735089 -214.525070525377 -3.0
    vertex 20.0 -211.025070525377 -3.0
  endloop
endfacet
facet normal -1.0 -8.05704709299401e-016 0.0
  outer loop
    vertex 13.9378221735089 -214.525070525377 -3.0
    vertex 13.9378221735089 -221.525070525377 -7.7
    vertex 13.9378221735089 -221.525070525377 -3.0
  endloop
endfacet
facet normal -1.0 -8.05704709299401e-016 0.0
  outer loop
    vertex 13.9378221735089 -221.525070525377 -7.7
    vertex 13.9378221735089 -214.525070525377 -3.0
    vertex 13.9378221735089 -214.525070525377 -7.7
  endloop
endfacet
facet normal 1.0 6.32421117489661e-016 0.0
  outer loop
    vertex 27.7232165219311 -213.56606938743 -7.7
    vertex 27.7232165219311 -222.484071663323 -3.0
    vertex 27.7232165219311 -222.484071663323 -7.7
  endloop
endfacet
facet normal 1.0 6.32421117489661e-016 0.0
  outer loop
    vertex 27.7232165219311 -222.484071663323 -3.0
    vertex 27.7232165219311 -213.56606938743 -7.7
    vertex 27.7232165219311 -213.56606938743 -3.0
  endloop
endfacet
facet normal 0.5 0.866025403784438 0.0
  outer loop
    vertex 20.0 -209.107068249483 -3.0
    vertex 27.7232165219311 -213.56606938743 -7.7
    vertex 20.0 -209.107068249483 -7.7
  endloop
endfacet
facet normal 0.5 0.866025403784438 0.0
  outer loop
    vertex 27.7232165219311 -213.56606938743 -7.7
    vertex 20.0 -209.107068249483 -3.0
    vertex 27.7232165219311 -213.56606938743 -3.0
  endloop
endfacet
facet normal -0.46390864478993 -0.803513342846582 -0.373034954336295
  outer loop
    vertex 20.0 -229.125070525377 -3.0
    vertex 12.2767834780689 -222.484071663323 -7.7
    vertex 20.0 -226.94307280127 -7.7
  endloop
endfacet
facet normal -0.46390864478993 -0.803513342846582 -0.373034954336295
  outer loop
    vertex 12.2767834780689 -222.484071663323 -7.7
    vertex 20.0 -229.125070525377 -3.0
    vertex 10.3871180179927 -223.575070525377 -3.0
  endloop
endfacet
facet normal 0.46390864478993 -0.803513342846582 -0.373034954336296
  outer loop
    vertex 29.6128819820073 -223.575070525377 -3.0
    vertex 20.0 -226.94307280127 -7.7
    vertex 27.7232165219311 -222.484071663323 -7.7
  endloop
endfacet
facet normal 0.46390864478993 -0.803513342846582 -0.373034954336296
  outer loop
    vertex 20.0 -226.94307280127 -7.7
    vertex 29.6128819820073 -223.575070525377 -3.0
    vertex 20.0 -229.125070525377 -3.0
  endloop
endfacet
facet normal 0.92781728957986 5.17297576808536e-016 -0.373034954336297
  outer loop
    vertex 27.7232165219311 -222.484071663323 -7.7
    vertex 29.6128819820073 -212.475070525377 -3.0
    vertex 29.6128819820073 -223.575070525377 -3.0
  endloop
endfacet
facet normal 0.92781728957986 5.17297576808536e-016 -0.373034954336297
  outer loop
    vertex 29.6128819820073 -212.475070525377 -3.0
    vertex 27.7232165219311 -222.484071663323 -7.7
    vertex 27.7232165219311 -213.56606938743 -7.7
  endloop
endfacet
facet normal 0.46390864478993 0.803513342846582 -0.373034954336296
  outer loop
    vertex 20.0 -206.925070525377 -3.0
    vertex 27.7232165219311 -213.56606938743 -7.7
    vertex 20.0 -209.107068249483 -7.7
  endloop
endfacet
facet normal 0.46390864478993 0.803513342846582 -0.373034954336296
  outer loop
    vertex 27.7232165219311 -213.56606938743 -7.7
    vertex 20.0 -206.925070525377 -3.0
    vertex 29.6128819820073 -212.475070525377 -3.0
  endloop
endfacet
facet normal -0.92781728957986 -7.06802629698792e-016 -0.373034954336296
  outer loop
    vertex 10.3871180179927 -212.475070525377 -3.0
    vertex 12.2767834780689 -222.484071663323 -7.7
    vertex 10.3871180179927 -223.575070525377 -3.0
  endloop
endfacet
facet normal -0.92781728957986 -7.06802629698792e-016 -0.373034954336296
  outer loop
    vertex 12.2767834780689 -222.484071663323 -7.7
    vertex 10.3871180179927 -212.475070525377 -3.0
    vertex 12.2767834780689 -213.56606938743 -7.7
  endloop
endfacet
facet normal -0.46390864478993 0.803513342846582 -0.373034954336295
  outer loop
    vertex 10.3871180179927 -212.475070525377 -3.0
    vertex 20.0 -209.107068249483 -7.7
    vertex 12.2767834780689 -213.56606938743 -7.7
  endloop
endfacet
facet normal -0.46390864478993 0.803513342846582 -0.373034954336295
  outer loop
    vertex 20.0 -209.107068249483 -7.7
    vertex 10.3871180179927 -212.475070525377 -3.0
    vertex 20.0 -206.925070525377 -3.0
  endloop
endfacet
facet normal -0.954234195259311 -8.63561705461632e-016 -0.299060362799578
  outer loop
    vertex 12.2767834780689 -213.56606938743 -7.7
    vertex 13.9378221735089 -221.525070525377 -13.0
    vertex 12.2767834780689 -222.484071663323 -7.7
  endloop
endfacet
facet normal -0.954234195259311 -8.63561705461632e-016 -0.299060362799578
  outer loop
    vertex 13.9378221735089 -221.525070525377 -13.0
    vertex 12.2767834780689 -213.56606938743 -7.7
    vertex 13.9378221735089 -214.525070525377 -13.0
  endloop
endfacet
facet normal -0.477117097629656 0.826391054254363 -0.29906036279958
  outer loop
    vertex 12.2767834780689 -213.56606938743 -7.7
    vertex 20.0 -211.025070525377 -13.0
    vertex 13.9378221735089 -214.525070525377 -13.0
  endloop
endfacet
facet normal -0.477117097629656 0.826391054254363 -0.29906036279958
  outer loop
    vertex 20.0 -211.025070525377 -13.0
    vertex 12.2767834780689 -213.56606938743 -7.7
    vertex 20.0 -209.107068249483 -7.7
  endloop
endfacet
facet normal 0.477117097629655 0.826391054254364 -0.299060362799576
  outer loop
    vertex 20.0 -209.107068249483 -7.7
    vertex 26.0621778264911 -214.525070525377 -13.0
    vertex 20.0 -211.025070525377 -13.0
  endloop
endfacet
facet normal 0.477117097629655 0.826391054254364 -0.299060362799576
  outer loop
    vertex 26.0621778264911 -214.525070525377 -13.0
    vertex 20.0 -209.107068249483 -7.7
    vertex 27.7232165219311 -213.56606938743 -7.7
  endloop
endfacet
facet normal 0.954234195259311 3.73334301096737e-016 -0.299060362799577
  outer loop
    vertex 26.0621778264911 -221.525070525377 -13.0
    vertex 27.7232165219311 -213.56606938743 -7.7
    vertex 27.7232165219311 -222.484071663323 -7.7
  endloop
endfacet
facet normal 0.954234195259311 3.73334301096737e-016 -0.299060362799577
  outer loop
    vertex 27.7232165219311 -213.56606938743 -7.7
    vertex 26.0621778264911 -221.525070525377 -13.0
    vertex 26.0621778264911 -214.525070525377 -13.0
  endloop
endfacet
facet normal -0.477117097629655 -0.826391054254364 -0.299060362799577
  outer loop
    vertex 20.0 -226.94307280127 -7.7
    vertex 13.9378221735089 -221.525070525377 -13.0
    vertex 20.0 -225.025070525377 -13.0
  endloop
endfacet
facet normal -0.477117097629655 -0.826391054254364 -0.299060362799577
  outer loop
    vertex 13.9378221735089 -221.525070525377 -13.0
    vertex 20.0 -226.94307280127 -7.7
    vertex 12.2767834780689 -222.484071663323 -7.7
  endloop
endfacet
facet normal 0.477117097629656 -0.826391054254363 -0.29906036279958
  outer loop
    vertex 27.7232165219311 -222.484071663323 -7.7
    vertex 20.0 -225.025070525377 -13.0
    vertex 26.0621778264911 -221.525070525377 -13.0
  endloop
endfacet
facet normal 0.477117097629656 -0.826391054254363 -0.29906036279958
  outer loop
    vertex 20.0 -225.025070525377 -13.0
    vertex 27.7232165219311 -222.484071663323 -7.7
    vertex 20.0 -226.94307280127 -7.7
  endloop
endfacet
endsolid slider-photo
