solid nema23-placer
facet normal -0.0 -1.0 -0.0
  outer loop
    vertex 449.599331922829 -17.0826296153737 15.0
    vertex 330.599331922829 -17.0826296153737 0.0
    vertex 449.599331922829 -17.0826296153737 0.0
  endloop
endfacet
facet normal -0.0 -1.0 -0.0
  outer loop
    vertex 330.599331922829 -17.0826296153737 0.0
    vertex 449.599331922829 -17.0826296153737 15.0
    vertex 330.599331922829 -17.0826296153737 15.0
  endloop
endfacet
facet normal 0.0 0.0 1.0
  outer loop
    vertex 330.099331922829 -76.5826296153737 0.0
    vertex 330.599331922829 -76.0826296153737 0.0
    vertex 330.099331922829 -16.5826296153737 0.0
  endloop
endfacet
facet normal 0.0 0.0 1.0
  outer loop
    vertex 330.599331922829 -76.0826296153737 0.0
    vertex 330.099331922829 -76.5826296153737 0.0
    vertex 450.099331922829 -76.5826296153737 0.0
  endloop
endfacet
facet normal 0.0 0.0 1.0
  outer loop
    vertex 330.599331922829 -76.0826296153737 0.0
    vertex 450.099331922829 -76.5826296153737 0.0
    vertex 449.599331922829 -76.0826296153737 0.0
  endloop
endfacet
facet normal 0.0 0.0 1.0
  outer loop
    vertex 449.599331922829 -76.0826296153737 0.0
    vertex 450.099331922829 -76.5826296153737 0.0
    vertex 449.599331922829 -17.0826296153737 0.0
  endloop
endfacet
facet normal 0.0 0.0 1.0
  outer loop
    vertex 330.099331922829 -16.5826296153737 0.0
    vertex 330.599331922829 -17.0826296153737 0.0
    vertex 450.099331922829 -16.5826296153737 0.0
  endloop
endfacet
facet normal 0.0 0.0 1.0
  outer loop
    vertex 330.599331922829 -17.0826296153737 0.0
    vertex 330.099331922829 -16.5826296153737 0.0
    vertex 330.599331922829 -76.0826296153737 0.0
  endloop
endfacet
facet normal 0.0 0.0 1.0
  outer loop
    vertex 450.099331922829 -16.5826296153737 0.0
    vertex 330.599331922829 -17.0826296153737 0.0
    vertex 449.599331922829 -17.0826296153737 0.0
  endloop
endfacet
facet normal 0.0 0.0 1.0
  outer loop
    vertex 450.099331922829 -16.5826296153737 0.0
    vertex 449.599331922829 -17.0826296153737 0.0
    vertex 450.099331922829 -76.5826296153737 0.0
  endloop
endfacet
facet normal -1.0 0.0 0.0
  outer loop
    vertex 449.599331922829 -17.0826296153737 15.0
    vertex 449.599331922829 -76.0826296153737 0.0
    vertex 449.599331922829 -76.0826296153737 15.0
  endloop
endfacet
facet normal -1.0 0.0 0.0
  outer loop
    vertex 449.599331922829 -76.0826296153737 0.0
    vertex 449.599331922829 -17.0826296153737 15.0
    vertex 449.599331922829 -17.0826296153737 0.0
  endloop
endfacet
facet normal 0.0 1.0 0.0
  outer loop
    vertex 330.599331922829 -76.0826296153737 15.0
    vertex 449.599331922829 -76.0826296153737 0.0
    vertex 330.599331922829 -76.0826296153737 0.0
  endloop
endfacet
facet normal 0.0 1.0 0.0
  outer loop
    vertex 449.599331922829 -76.0826296153737 0.0
    vertex 330.599331922829 -76.0826296153737 15.0
    vertex 449.599331922829 -76.0826296153737 15.0
  endloop
endfacet
facet normal 1.0 0.0 0.0
  outer loop
    vertex 330.599331922829 -17.0826296153737 0.0
    vertex 330.599331922829 -76.0826296153737 15.0
    vertex 330.599331922829 -76.0826296153737 0.0
  endloop
endfacet
facet normal 1.0 0.0 0.0
  outer loop
    vertex 330.599331922829 -76.0826296153737 15.0
    vertex 330.599331922829 -17.0826296153737 0.0
    vertex 330.599331922829 -17.0826296153737 15.0
  endloop
endfacet
facet normal -0.0 -1.0 -0.0
  outer loop
    vertex 450.099331922829 -76.5826296153737 15.0
    vertex 330.099331922829 -76.5826296153737 0.0
    vertex 450.099331922829 -76.5826296153737 0.0
  endloop
endfacet
facet normal -0.0 -1.0 -0.0
  outer loop
    vertex 330.099331922829 -76.5826296153737 0.0
    vertex 450.099331922829 -76.5826296153737 15.0
    vertex 330.099331922829 -76.5826296153737 15.0
  endloop
endfacet
facet normal 1.0 0.0 0.0
  outer loop
    vertex 450.099331922829 -16.5826296153737 0.0
    vertex 450.099331922829 -76.5826296153737 15.0
    vertex 450.099331922829 -76.5826296153737 0.0
  endloop
endfacet
facet normal 1.0 0.0 0.0
  outer loop
    vertex 450.099331922829 -76.5826296153737 15.0
    vertex 450.099331922829 -16.5826296153737 0.0
    vertex 450.099331922829 -16.5826296153737 15.0
  endloop
endfacet
facet normal 0.0 1.0 0.0
  outer loop
    vertex 330.099331922829 -16.5826296153737 15.0
    vertex 450.099331922829 -16.5826296153737 0.0
    vertex 330.099331922829 -16.5826296153737 0.0
  endloop
endfacet
facet normal 0.0 1.0 0.0
  outer loop
    vertex 450.099331922829 -16.5826296153737 0.0
    vertex 330.099331922829 -16.5826296153737 15.0
    vertex 450.099331922829 -16.5826296153737 15.0
  endloop
endfacet
facet normal -1.0 0.0 0.0
  outer loop
    vertex 330.099331922829 -16.5826296153737 15.0
    vertex 330.099331922829 -76.5826296153737 0.0
    vertex 330.099331922829 -76.5826296153737 15.0
  endloop
endfacet
facet normal -1.0 0.0 0.0
  outer loop
    vertex 330.099331922829 -76.5826296153737 0.0
    vertex 330.099331922829 -16.5826296153737 15.0
    vertex 330.099331922829 -16.5826296153737 0.0
  endloop
endfacet
facet normal 0.0 0.0 1.0
  outer loop
    vertex 330.099331922829 -76.5826296153737 15.0
    vertex 330.599331922829 -76.0826296153737 15.0
    vertex 330.099331922829 -16.5826296153737 15.0
  endloop
endfacet
facet normal 0.0 0.0 1.0
  outer loop
    vertex 330.599331922829 -76.0826296153737 15.0
    vertex 330.099331922829 -76.5826296153737 15.0
    vertex 450.099331922829 -76.5826296153737 15.0
  endloop
endfacet
facet normal 0.0 0.0 1.0
  outer loop
    vertex 330.599331922829 -76.0826296153737 15.0
    vertex 450.099331922829 -76.5826296153737 15.0
    vertex 449.599331922829 -76.0826296153737 15.0
  endloop
endfacet
facet normal 0.0 0.0 1.0
  outer loop
    vertex 449.599331922829 -76.0826296153737 15.0
    vertex 450.099331922829 -76.5826296153737 15.0
    vertex 449.599331922829 -17.0826296153737 15.0
  endloop
endfacet
facet normal 0.0 0.0 1.0
  outer loop
    vertex 330.099331922829 -16.5826296153737 15.0
    vertex 330.599331922829 -17.0826296153737 15.0
    vertex 450.099331922829 -16.5826296153737 15.0
  endloop
endfacet
facet normal 0.0 0.0 1.0
  outer loop
    vertex 330.599331922829 -17.0826296153737 15.0
    vertex 330.099331922829 -16.5826296153737 15.0
    vertex 330.599331922829 -76.0826296153737 15.0
  endloop
endfacet
facet normal 0.0 0.0 1.0
  outer loop
    vertex 450.099331922829 -16.5826296153737 15.0
    vertex 330.599331922829 -17.0826296153737 15.0
    vertex 449.599331922829 -17.0826296153737 15.0
  endloop
endfacet
facet normal 0.0 0.0 1.0
  outer loop
    vertex 450.099331922829 -16.5826296153737 15.0
    vertex 449.599331922829 -17.0826296153737 15.0
    vertex 450.099331922829 -76.5826296153737 15.0
  endloop
endfacet
endsolid nema23-placer
