solid Untitled-540b6948
facet normal 0.0 0.0 -1.0
  outer loop
    vertex -5.7822357386089 1.55158937048123 0.0
    vertex -5.99906808118611 -0.105745719979661 0.0
    vertex -5.82202379955288 1.45053055032972 0.0
  endloop
endfacet
facet normal -3.88273364199284e-018 -3.0900152146866e-018 -1.0
  outer loop
    vertex -5.7822357386089 1.55158937048123 0.0
    vertex -5.76728578701525 -1.65481559422549 0.0
    vertex -5.99906808118611 -0.105745719979661 0.0
  endloop
endfacet
facet normal -3.88273364199284e-018 -3.0900152146866e-018 -1.0
  outer loop
    vertex -5.76728578701525 -1.65481559422549 0.0
    vertex -5.7822357386089 1.55158937048123 0.0
    vertex -5.52278298953212 3.53468903287757 0.0
  endloop
endfacet
facet normal -3.88273364199284e-018 -3.0900152146866e-018 -1.0
  outer loop
    vertex -5.76728578701525 -1.65481559422549 0.0
    vertex -5.52278298953212 3.53468903287757 0.0
    vertex -5.14247249734971 -3.09111252043692 0.0
  endloop
endfacet
facet normal -3.88273364199284e-018 -3.0900152146866e-018 -1.0
  outer loop
    vertex -5.14247249734971 -3.09111252043692 0.0
    vertex -5.52278298953212 3.53468903287757 0.0
    vertex -4.46641882400976 11.6088968702172 0.0
  endloop
endfacet
facet normal -3.88273364199284e-018 -3.0900152146866e-018 -1.0
  outer loop
    vertex -5.14247249734971 -3.09111252043692 0.0
    vertex -4.46641882400976 11.6088968702172 0.0
    vertex -4.1672082053274 -4.31675523668554 0.0
  endloop
endfacet
facet normal -3.88273364199284e-018 -3.0900152146866e-018 -1.0
  outer loop
    vertex -4.1672082053274 -4.31675523668554 0.0
    vertex -4.46641882400976 11.6088968702172 0.0
    vertex -3.38074039201174 0.905866657858824 0.0
  endloop
endfacet
facet normal -3.88273364199284e-018 -3.0900152146866e-018 -1.0
  outer loop
    vertex -3.38074039201174 0.905866657858824 0.0
    vertex -4.46641882400976 11.6088968702172 0.0
    vertex -1.68958805409904 11.6088968702172 0.0
  endloop
endfacet
facet normal -3.88273364199284e-018 -3.0900152146866e-018 -1.0
  outer loop
    vertex -4.1672082053274 -4.31675523668554 0.0
    vertex -3.38074039201174 0.905866657858824 0.0
    vertex -3.5 7.04991620636974e-016 0.0
  endloop
endfacet
facet normal -3.88273364199284e-018 -3.0900152146866e-018 -1.0
  outer loop
    vertex -3.38074039201174 0.905866657858824 0.0
    vertex -1.68958805409904 11.6088968702172 0.0
    vertex -3.03108891324553 1.75 0.0
  endloop
endfacet
facet normal -3.88273364199284e-018 -3.0900152146866e-018 -1.0
  outer loop
    vertex -3.03108891324553 1.75 0.0
    vertex -1.68958805409904 11.6088968702172 0.0
    vertex -2.53289262435108 1.70756819905083 0.0
  endloop
endfacet
facet normal -3.88273364199284e-018 -3.0900152146866e-018 -1.0
  outer loop
    vertex 2.66832786573033 12.0200626850608 0.0
    vertex 2.53140053585424 1.73234991501295 0.0
    vertex 2.16863948833903 12.0024126000738 0.0
  endloop
endfacet
facet normal -3.88273364199284e-018 -3.0900152146866e-018 -1.0
  outer loop
    vertex 2.53140053585424 1.73234991501295 0.0
    vertex 2.66832786573033 12.0200626850608 0.0
    vertex 3.03108891324554 1.75 0.0
  endloop
endfacet
facet normal -3.88273364199284e-018 -3.0900152146866e-018 -1.0
  outer loop
    vertex 3.03108891324554 1.75 0.0
    vertex 2.66832786573033 12.0200626850608 0.0
    vertex 4.42128457162508 12.0024126000738 -7.04991620636974e-016
  endloop
endfacet
facet normal -3.88273364199284e-018 -3.0900152146866e-018 -1.0
  outer loop
    vertex 3.03108891324554 1.75 0.0
    vertex 4.42128457162508 12.0024126000738 -7.04991620636974e-016
    vertex 3.38074039201174 0.905866657858823 0.0
  endloop
endfacet
facet normal -3.88273364199284e-018 -3.0900152146866e-018 -1.0
  outer loop
    vertex 3.38074039201174 0.905866657858823 0.0
    vertex 4.42128457162508 12.0024126000738 -7.04991620636974e-016
    vertex 3.5 0.0 0.0
  endloop
endfacet
facet normal -3.88273364199284e-018 -3.0900152146866e-018 -1.0
  outer loop
    vertex 3.5 0.0 0.0
    vertex 4.42128457162508 12.0024126000738 -7.04991620636974e-016
    vertex 4.31675523668554 -4.1672082053274 0.0
  endloop
endfacet
facet normal -3.88273364199284e-018 -3.0900152146866e-018 -1.0
  outer loop
    vertex 4.31675523668554 -4.1672082053274 0.0
    vertex 4.42128457162508 12.0024126000738 -7.04991620636974e-016
    vertex 5.24821821732937 -2.90795556074919 0.0
  endloop
endfacet
facet normal -3.88273364199284e-018 -3.0900152146866e-018 -1.0
  outer loop
    vertex 5.24821821732937 -2.90795556074919 0.0
    vertex 4.42128457162508 12.0024126000738 -7.04991620636974e-016
    vertex 5.73612249877762 2.08838527892421 0.0
  endloop
endfacet
facet normal -3.88273364199284e-018 -3.0900152146866e-018 -1.0
  outer loop
    vertex 5.24821821732937 -2.90795556074919 0.0
    vertex 5.73612249877762 2.08838527892421 0.0
    vertex 5.82202379955288 -1.45053055032972 0.0
  endloop
endfacet
facet normal -3.88273364199284e-018 -3.0900152146866e-018 -1.0
  outer loop
    vertex 5.82202379955288 -1.45053055032972 0.0
    vertex 5.73612249877762 2.08838527892421 0.0
    vertex 5.99906808118611 0.105745719979658 0.0
  endloop
endfacet
facet normal -3.88273364199284e-018 -3.0900152146866e-018 -1.0
  outer loop
    vertex -3.5 7.04991620636974e-016 0.0
    vertex -2.90795556074919 -5.24821821732937 0.0
    vertex -4.1672082053274 -4.31675523668554 0.0
  endloop
endfacet
facet normal -3.88273364199284e-018 -3.0900152146866e-018 -1.0
  outer loop
    vertex -2.90795556074919 -5.24821821732937 0.0
    vertex -3.5 7.04991620636974e-016 0.0
    vertex -3.38074039201174 -0.905866657858821 0.0
  endloop
endfacet
facet normal -3.88273364199284e-018 -3.0900152146866e-018 -1.0
  outer loop
    vertex -2.90795556074919 -5.24821821732937 0.0
    vertex -3.38074039201174 -0.905866657858821 0.0
    vertex -3.03108891324554 -1.75 0.0
  endloop
endfacet
facet normal -3.88273364199284e-018 -3.0900152146866e-018 -1.0
  outer loop
    vertex -2.90795556074919 -5.24821821732937 0.0
    vertex -3.03108891324554 -1.75 0.0
    vertex -2.47487373415292 -2.47487373415291 0.0
  endloop
endfacet
facet normal -3.88273364199284e-018 -3.0900152146866e-018 -1.0
  outer loop
    vertex -2.90795556074919 -5.24821821732937 0.0
    vertex -2.47487373415292 -2.47487373415291 0.0
    vertex -1.45053055032972 -5.82202379955288 0.0
  endloop
endfacet
facet normal -3.88273364199284e-018 -3.0900152146866e-018 -1.0
  outer loop
    vertex -1.45053055032972 -5.82202379955288 0.0
    vertex -2.47487373415292 -2.47487373415291 0.0
    vertex -1.75 -3.03108891324553 0.0
  endloop
endfacet
facet normal -3.88273364199284e-018 -3.0900152146866e-018 -1.0
  outer loop
    vertex -1.45053055032972 -5.82202379955288 0.0
    vertex -1.75 -3.03108891324553 0.0
    vertex -0.905866657858825 -3.38074039201174 0.0
  endloop
endfacet
facet normal -3.88273364199284e-018 -3.0900152146866e-018 -1.0
  outer loop
    vertex -1.45053055032972 -5.82202379955288 0.0
    vertex -0.905866657858825 -3.38074039201174 0.0
    vertex 0.105745719979658 -5.99906808118611 0.0
  endloop
endfacet
facet normal -3.88273364199284e-018 -3.0900152146866e-018 -1.0
  outer loop
    vertex 0.105745719979658 -5.99906808118611 0.0
    vertex -0.905866657858825 -3.38074039201174 0.0
    vertex -7.04991620636974e-016 -3.5 0.0
  endloop
endfacet
facet normal -3.88273364199284e-018 -3.0900152146866e-018 -1.0
  outer loop
    vertex 0.105745719979658 -5.99906808118611 0.0
    vertex -7.04991620636974e-016 -3.5 0.0
    vertex 0.90586665785882 -3.38074039201174 0.0
  endloop
endfacet
facet normal -3.88273364199284e-018 -3.0900152146866e-018 -1.0
  outer loop
    vertex 0.105745719979658 -5.99906808118611 0.0
    vertex 0.90586665785882 -3.38074039201174 0.0
    vertex 1.65481559422549 -5.76728578701525 0.0
  endloop
endfacet
facet normal -3.88273364199284e-018 -3.0900152146866e-018 -1.0
  outer loop
    vertex 1.65481559422549 -5.76728578701525 0.0
    vertex 0.90586665785882 -3.38074039201174 0.0
    vertex 1.75 -3.03108891324554 0.0
  endloop
endfacet
facet normal -3.88273364199284e-018 -3.0900152146866e-018 -1.0
  outer loop
    vertex 1.65481559422549 -5.76728578701525 0.0
    vertex 1.75 -3.03108891324554 0.0
    vertex 3.09111252043692 -5.14247249734971 0.0
  endloop
endfacet
facet normal -3.88273364199284e-018 -3.0900152146866e-018 -1.0
  outer loop
    vertex 3.09111252043692 -5.14247249734971 0.0
    vertex 1.75 -3.03108891324554 0.0
    vertex 2.47487373415292 -2.47487373415292 0.0
  endloop
endfacet
facet normal -3.88273364199284e-018 -3.0900152146866e-018 -1.0
  outer loop
    vertex 3.09111252043692 -5.14247249734971 0.0
    vertex 2.47487373415292 -2.47487373415292 0.0
    vertex 3.03108891324553 -1.75 0.0
  endloop
endfacet
facet normal -3.88273364199284e-018 -3.0900152146866e-018 -1.0
  outer loop
    vertex 3.09111252043692 -5.14247249734971 0.0
    vertex 3.03108891324553 -1.75 0.0
    vertex 3.38074039201174 -0.905866657858825 0.0
  endloop
endfacet
facet normal -3.88273364199284e-018 -3.0900152146866e-018 -1.0
  outer loop
    vertex 3.09111252043692 -5.14247249734971 0.0
    vertex 3.38074039201174 -0.905866657858825 0.0
    vertex 4.31675523668554 -4.1672082053274 0.0
  endloop
endfacet
facet normal -3.88273364199284e-018 -3.0900152146866e-018 -1.0
  outer loop
    vertex 4.31675523668554 -4.1672082053274 0.0
    vertex 3.38074039201174 -0.905866657858825 0.0
    vertex 3.5 0.0 0.0
  endloop
endfacet
facet normal 5.61399923425755e-016 1.0 0.0
  outer loop
    vertex -7.04991620636974e-016 -3.5 10.0
    vertex 0.90586665785882 -3.38074039201174 0.0
    vertex -7.04991620636974e-016 -3.5 0.0
  endloop
endfacet
facet normal -0.25881904510252 0.965925826289068 0.0
  outer loop
    vertex 0.90586665785882 -3.38074039201174 0.0
    vertex -7.04991620636974e-016 -3.5 10.0
    vertex 0.90586665785882 -3.38074039201174 10.0
  endloop
endfacet
facet normal 0.258819045102521 0.965925826289068 0.0
  outer loop
    vertex -0.905866657858825 -3.38074039201174 10.0
    vertex -7.04991620636974e-016 -3.5 0.0
    vertex -0.905866657858825 -3.38074039201174 0.0
  endloop
endfacet
facet normal 5.61399923425755e-016 1.0 0.0
  outer loop
    vertex -7.04991620636974e-016 -3.5 0.0
    vertex -0.905866657858825 -3.38074039201174 10.0
    vertex -7.04991620636974e-016 -3.5 10.0
  endloop
endfacet
facet normal 0.500000000000001 0.866025403784438 0.0
  outer loop
    vertex -1.75 -3.03108891324553 10.0
    vertex -0.905866657858825 -3.38074039201174 0.0
    vertex -1.75 -3.03108891324553 0.0
  endloop
endfacet
facet normal 0.258819045102521 0.965925826289068 0.0
  outer loop
    vertex -0.905866657858825 -3.38074039201174 0.0
    vertex -1.75 -3.03108891324553 10.0
    vertex -0.905866657858825 -3.38074039201174 10.0
  endloop
endfacet
facet normal 0.707106781186548 0.707106781186547 0.0
  outer loop
    vertex -2.47487373415292 -2.47487373415291 10.0
    vertex -1.75 -3.03108891324553 0.0
    vertex -2.47487373415292 -2.47487373415291 0.0
  endloop
endfacet
facet normal 0.500000000000001 0.866025403784438 0.0
  outer loop
    vertex -1.75 -3.03108891324553 0.0
    vertex -2.47487373415292 -2.47487373415291 10.0
    vertex -1.75 -3.03108891324553 10.0
  endloop
endfacet
facet normal 0.866025403784439 0.5 0.0
  outer loop
    vertex -3.03108891324554 -1.75 0.0
    vertex -2.47487373415292 -2.47487373415291 10.0
    vertex -2.47487373415292 -2.47487373415291 0.0
  endloop
endfacet
facet normal 0.707106781186548 0.707106781186547 0.0
  outer loop
    vertex -2.47487373415292 -2.47487373415291 10.0
    vertex -3.03108891324554 -1.75 0.0
    vertex -3.03108891324554 -1.75 10.0
  endloop
endfacet
facet normal 0.965925826289068 0.258819045102521 0.0
  outer loop
    vertex -3.38074039201174 -0.905866657858821 0.0
    vertex -3.03108891324554 -1.75 10.0
    vertex -3.03108891324554 -1.75 0.0
  endloop
endfacet
facet normal 0.866025403784439 0.5 0.0
  outer loop
    vertex -3.03108891324554 -1.75 10.0
    vertex -3.38074039201174 -0.905866657858821 0.0
    vertex -3.38074039201174 -0.905866657858821 10.0
  endloop
endfacet
facet normal 1.0 -2.85155516660701e-016 0.0
  outer loop
    vertex -3.5 7.04991620636974e-016 0.0
    vertex -3.38074039201174 -0.905866657858821 10.0
    vertex -3.38074039201174 -0.905866657858821 0.0
  endloop
endfacet
facet normal 0.965925826289068 0.258819045102521 0.0
  outer loop
    vertex -3.38074039201174 -0.905866657858821 10.0
    vertex -3.5 7.04991620636974e-016 0.0
    vertex -3.5 7.04991620636974e-016 10.0
  endloop
endfacet
facet normal 0.965925826289068 -0.258819045102521 0.0
  outer loop
    vertex -3.38074039201174 0.905866657858824 0.0
    vertex -3.5 7.04991620636974e-016 10.0
    vertex -3.5 7.04991620636974e-016 0.0
  endloop
endfacet
facet normal 1.0 -2.85155516660701e-016 0.0
  outer loop
    vertex -3.5 7.04991620636974e-016 10.0
    vertex -3.38074039201174 0.905866657858824 0.0
    vertex -3.38074039201174 0.905866657858824 10.0
  endloop
endfacet
facet normal 0.923879532511287 -0.38268343236509 0.0
  outer loop
    vertex -3.03108891324553 1.75 0.0
    vertex -3.38074039201174 0.905866657858824 10.0
    vertex -3.38074039201174 0.905866657858824 0.0
  endloop
endfacet
facet normal 0.965925826289068 -0.258819045102521 0.0
  outer loop
    vertex -3.38074039201174 0.905866657858824 10.0
    vertex -3.03108891324553 1.75 0.0
    vertex -3.03108891324553 1.75 10.0
  endloop
endfacet
facet normal -0.25881904510252 0.965925826289068 0.0
  outer loop
    vertex 0.90586665785882 -3.38074039201174 10.0
    vertex 1.75 -3.03108891324554 0.0
    vertex 0.90586665785882 -3.38074039201174 0.0
  endloop
endfacet
facet normal -0.5 0.866025403784439 0.0
  outer loop
    vertex 1.75 -3.03108891324554 0.0
    vertex 0.90586665785882 -3.38074039201174 10.0
    vertex 1.75 -3.03108891324554 10.0
  endloop
endfacet
facet normal -0.5 0.866025403784439 0.0
  outer loop
    vertex 1.75 -3.03108891324554 10.0
    vertex 2.47487373415292 -2.47487373415292 0.0
    vertex 1.75 -3.03108891324554 0.0
  endloop
endfacet
facet normal -0.707106781186547 0.707106781186548 0.0
  outer loop
    vertex 2.47487373415292 -2.47487373415292 0.0
    vertex 1.75 -3.03108891324554 10.0
    vertex 2.47487373415292 -2.47487373415292 10.0
  endloop
endfacet
facet normal -0.866025403784439 0.5 0.0
  outer loop
    vertex 3.03108891324553 -1.75 10.0
    vertex 2.47487373415292 -2.47487373415292 0.0
    vertex 2.47487373415292 -2.47487373415292 10.0
  endloop
endfacet
facet normal -0.707106781186547 0.707106781186548 0.0
  outer loop
    vertex 2.47487373415292 -2.47487373415292 0.0
    vertex 3.03108891324553 -1.75 10.0
    vertex 3.03108891324553 -1.75 0.0
  endloop
endfacet
facet normal -0.965925826289068 0.258819045102521 0.0
  outer loop
    vertex 3.38074039201174 -0.905866657858825 10.0
    vertex 3.03108891324553 -1.75 0.0
    vertex 3.03108891324553 -1.75 10.0
  endloop
endfacet
facet normal -0.866025403784439 0.5 0.0
  outer loop
    vertex 3.03108891324553 -1.75 0.0
    vertex 3.38074039201174 -0.905866657858825 10.0
    vertex 3.38074039201174 -0.905866657858825 0.0
  endloop
endfacet
facet normal -1.0 1.78222197912938e-016 0.0
  outer loop
    vertex 3.5 0.0 10.0
    vertex 3.38074039201174 -0.905866657858825 0.0
    vertex 3.38074039201174 -0.905866657858825 10.0
  endloop
endfacet
facet normal -0.965925826289068 0.258819045102521 0.0
  outer loop
    vertex 3.38074039201174 -0.905866657858825 0.0
    vertex 3.5 0.0 10.0
    vertex 3.5 0.0 0.0
  endloop
endfacet
facet normal -0.965925826289068 -0.258819045102521 0.0
  outer loop
    vertex 3.38074039201174 0.905866657858823 10.0
    vertex 3.5 0.0 0.0
    vertex 3.5 0.0 10.0
  endloop
endfacet
facet normal -1.0 1.78222197912938e-016 0.0
  outer loop
    vertex 3.5 0.0 0.0
    vertex 3.38074039201174 0.905866657858823 10.0
    vertex 3.38074039201174 0.905866657858823 0.0
  endloop
endfacet
facet normal -0.923879532511287 -0.38268343236509 -0.0
  outer loop
    vertex 3.03108891324554 1.75 10.0
    vertex 3.38074039201174 0.905866657858823 0.0
    vertex 3.38074039201174 0.905866657858823 10.0
  endloop
endfacet
facet normal -0.965925826289068 -0.258819045102521 0.0
  outer loop
    vertex 3.38074039201174 0.905866657858823 0.0
    vertex 3.03108891324554 1.75 10.0
    vertex 3.03108891324554 1.75 0.0
  endloop
endfacet
facet normal 0.991319779472278 0.131472791204242 4.74335651435581e-017
  outer loop
    vertex 4.42128457162508 12.0024126000738 -7.04991620636974e-016
    vertex 5.73612249877762 2.08838527892421 3.01212749500017
    vertex 5.73612249877762 2.08838527892421 0.0
  endloop
endfacet
facet normal 0.991319779472278 0.131472791204242 4.74335651435581e-017
  outer loop
    vertex 5.73612249877762 2.08838527892421 3.01212749500017
    vertex 4.42128457162508 12.0024126000738 -7.04991620636974e-016
    vertex 5.68344053708226 2.48561325417033 3.04055248945173
  endloop
endfacet
facet normal 0.991319779472278 0.131472791204242 4.74335651435581e-017
  outer loop
    vertex 5.68344053708226 2.48561325417033 3.04055248945173
    vertex 4.42128457162508 12.0024126000738 -7.04991620636974e-016
    vertex 5.61856021325914 2.9748182654529 3.21102943863866
  endloop
endfacet
facet normal 0.991319779472278 0.131472791204242 4.74335651435581e-017
  outer loop
    vertex 5.61856021325914 2.9748182654529 3.21102943863866
    vertex 4.42128457162508 12.0024126000738 -7.04991620636974e-016
    vertex 5.56169156491325 3.40361433360331 3.50342177516873
  endloop
endfacet
facet normal 0.991319779472278 0.131472791204242 4.74335651435581e-017
  outer loop
    vertex 5.56169156491325 3.40361433360331 3.50342177516873
    vertex 4.42128457162508 12.0024126000738 -7.04991620636974e-016
    vertex 5.51671009644946 3.74277971519612 3.89780344450859
  endloop
endfacet
facet normal 0.991319779472278 0.131472791204242 4.74335651435581e-017
  outer loop
    vertex 5.51671009644946 3.74277971519612 3.89780344450859
    vertex 4.42128457162508 12.0024126000738 -7.04991620636974e-016
    vertex 5.4866812206082 3.96920084997308 4.36729798763926
  endloop
endfacet
facet normal 0.991319779472278 0.131472791204242 4.74335651435581e-017
  outer loop
    vertex 5.4866812206082 3.96920084997308 4.36729798763926
    vertex 4.42128457162508 12.0024126000738 -7.04991620636974e-016
    vertex 5.47365135565298 4.06744751177775 4.8799101273228
  endloop
endfacet
facet normal 0.991319779472278 0.131472791204242 4.74335651435581e-017
  outer loop
    vertex 5.47365135565298 4.06744751177775 4.8799101273228
    vertex 4.42128457162508 12.0024126000738 -7.04991620636974e-016
    vertex 5.47317691636914 4.07102483786877 10.0
  endloop
endfacet
facet normal 0.991319779472278 0.131472791204242 4.74335651435581e-017
  outer loop
    vertex 5.47317691636914 4.07102483786877 10.0
    vertex 4.42128457162508 12.0024126000738 -7.04991620636974e-016
    vertex 4.42128457162508 12.0024126000738 10.0
  endloop
endfacet
facet normal 0.991319779472278 0.131472791204242 4.74335651435581e-017
  outer loop
    vertex 5.72033394802139 2.20743274502342 6.99639135003144
    vertex 5.73612249877762 2.08838527892421 10.0
    vertex 5.73612249877762 2.08838527892421 6.98787250499983
  endloop
endfacet
facet normal 0.991319779472278 0.131472791204242 4.74335651435581e-017
  outer loop
    vertex 5.73612249877762 2.08838527892421 10.0
    vertex 5.72033394802139 2.20743274502342 6.99639135003144
    vertex 5.47317691636914 4.07102483786877 10.0
  endloop
endfacet
facet normal 0.991319779472278 0.131472791204242 4.74335651435581e-017
  outer loop
    vertex 5.47317691636914 4.07102483786877 10.0
    vertex 5.72033394802139 2.20743274502342 6.99639135003144
    vertex 5.65293939921201 2.71559529828933 6.89728441820268
  endloop
endfacet
facet normal 0.991319779472278 0.131472791204242 4.74335651435581e-017
  outer loop
    vertex 5.47317691636914 4.07102483786877 10.0
    vertex 5.65293939921201 2.71559529828933 6.89728441820268
    vertex 5.59121364117147 3.18101452524906 6.66888068868415
  endloop
endfacet
facet normal 0.991319779472278 0.131472791204242 4.74335651435581e-017
  outer loop
    vertex 5.47317691636914 4.07102483786877 10.0
    vertex 5.59121364117147 3.18101452524906 6.66888068868415
    vertex 5.53936318230357 3.57197287472697 6.32674549818753
  endloop
endfacet
facet normal 0.991319779472278 0.131472791204242 4.74335651435581e-017
  outer loop
    vertex 5.47317691636914 4.07102483786877 10.0
    vertex 5.53936318230357 3.57197287472697 6.32674549818753
    vertex 5.50092154569323 3.86182718129533 5.89419479454003
  endloop
endfacet
facet normal 0.991319779472278 0.131472791204242 4.74335651435581e-017
  outer loop
    vertex 5.47317691636914 4.07102483786877 10.0
    vertex 5.50092154569323 3.86182718129533 5.89419479454003
    vertex 5.47850846534764 4.03082435296843 5.4007061933714
  endloop
endfacet
facet normal 0.991319779472278 0.131472791204242 4.74335651435581e-017
  outer loop
    vertex 5.47317691636914 4.07102483786877 10.0
    vertex 5.47850846534764 4.03082435296843 5.4007061933714
    vertex 5.47365135565298 4.06744751177775 4.8799101273228
  endloop
endfacet
facet normal 0.993612412939586 -0.11284667851507 6.99999168847446e-007
  outer loop
    vertex 5.99906808118611 0.105745719979658 0.0
    vertex 5.82202379955288 -1.45053055032972 10.0
    vertex 5.82202379955288 -1.45053055032972 0.0
  endloop
endfacet
facet normal 0.970359891077231 -0.241664399091921 3.53024062446318e-007
  outer loop
    vertex 5.82202379955288 -1.45053055032972 10.0
    vertex 5.99906808118611 0.105745719979658 0.0
    vertex 5.99906808118611 0.105745719979658 10.0
  endloop
endfacet
facet normal 0.993612412939586 -0.11284667851507 6.99999168847446e-007
  outer loop
    vertex 5.99906808118611 0.105745719979658 10.0
    vertex 5.99906808118611 0.105745719979658 0.0
    vertex 5.99859364190226 0.109323046070679 5.12008987267719
  endloop
endfacet
facet normal 0.970359891079884 -0.241664399081271 3.53024062475726e-007
  outer loop
    vertex 5.82202379955288 -1.45053055032972 0.0
    vertex 5.24821821732937 -2.90795556074919 10.0
    vertex 5.24821821732937 -2.90795556074919 0.0
  endloop
endfacet
facet normal 0.874703036221561 -0.484659260124866 0.0
  outer loop
    vertex 5.24821821732937 -2.90795556074919 10.0
    vertex 5.82202379955288 -1.45053055032972 0.0
    vertex 5.82202379955288 -1.45053055032972 10.0
  endloop
endfacet
facet normal 0.874703036221561 -0.484659260124866 0.0
  outer loop
    vertex 5.24821821732937 -2.90795556074919 0.0
    vertex 4.31675523668554 -4.1672082053274 10.0
    vertex 4.31675523668554 -4.1672082053274 0.0
  endloop
endfacet
facet normal 0.719459206114257 -0.694534700887899 0.0
  outer loop
    vertex 4.31675523668554 -4.1672082053274 10.0
    vertex 5.24821821732937 -2.90795556074919 0.0
    vertex 5.24821821732937 -2.90795556074919 10.0
  endloop
endfacet
facet normal 0.719459206114257 -0.694534700887899 0.0
  outer loop
    vertex 4.31675523668554 -4.1672082053274 10.0
    vertex 3.09111252043692 -5.14247249734971 0.0
    vertex 4.31675523668554 -4.1672082053274 0.0
  endloop
endfacet
facet normal 0.515185420072819 -0.857078749558285 0.0
  outer loop
    vertex 3.09111252043692 -5.14247249734971 0.0
    vertex 4.31675523668554 -4.1672082053274 10.0
    vertex 3.09111252043692 -5.14247249734971 10.0
  endloop
endfacet
facet normal 0.515185420072819 -0.857078749558285 0.0
  outer loop
    vertex 3.09111252043692 -5.14247249734971 10.0
    vertex 1.65481559422549 -5.76728578701525 0.0
    vertex 3.09111252043692 -5.14247249734971 0.0
  endloop
endfacet
facet normal 0.275802599037581 -0.961214297835876 0.0
  outer loop
    vertex 1.65481559422549 -5.76728578701525 0.0
    vertex 3.09111252043692 -5.14247249734971 10.0
    vertex 1.65481559422549 -5.76728578701525 10.0
  endloop
endfacet
facet normal 0.275802599037581 -0.961214297835876 0.0
  outer loop
    vertex 1.65481559422549 -5.76728578701525 10.0
    vertex 0.105745719979658 -5.99906808118611 0.0
    vertex 1.65481559422549 -5.76728578701525 0.0
  endloop
endfacet
facet normal 0.0176242866632766 -0.999844680197685 0.0
  outer loop
    vertex 0.105745719979658 -5.99906808118611 0.0
    vertex 1.65481559422549 -5.76728578701525 10.0
    vertex 0.105745719979658 -5.99906808118611 10.0
  endloop
endfacet
facet normal 0.0176242866632766 -0.999844680197685 0.0
  outer loop
    vertex 0.105745719979658 -5.99906808118611 10.0
    vertex -1.45053055032972 -5.82202379955288 0.0
    vertex 0.105745719979658 -5.99906808118611 0.0
  endloop
endfacet
facet normal -0.241755091721619 -0.97033729992548 0.0
  outer loop
    vertex -1.45053055032972 -5.82202379955288 0.0
    vertex 0.105745719979658 -5.99906808118611 10.0
    vertex -1.45053055032972 -5.82202379955288 10.0
  endloop
endfacet
facet normal -0.241755091721619 -0.97033729992548 0.0
  outer loop
    vertex -1.45053055032972 -5.82202379955288 10.0
    vertex -2.90795556074919 -5.24821821732937 0.0
    vertex -1.45053055032972 -5.82202379955288 0.0
  endloop
endfacet
facet normal -0.484659260124866 -0.874703036221561 0.0
  outer loop
    vertex -2.90795556074919 -5.24821821732937 0.0
    vertex -1.45053055032972 -5.82202379955288 10.0
    vertex -2.90795556074919 -5.24821821732937 10.0
  endloop
endfacet
facet normal -0.484659260124866 -0.874703036221561 0.0
  outer loop
    vertex -2.90795556074919 -5.24821821732937 10.0
    vertex -4.1672082053274 -4.31675523668554 0.0
    vertex -2.90795556074919 -5.24821821732937 0.0
  endloop
endfacet
facet normal -0.694534700887899 -0.719459206114257 0.0
  outer loop
    vertex -4.1672082053274 -4.31675523668554 0.0
    vertex -2.90795556074919 -5.24821821732937 10.0
    vertex -4.1672082053274 -4.31675523668554 10.0
  endloop
endfacet
facet normal -0.857078749558285 -0.515185420072819 0.0
  outer loop
    vertex -5.14247249734971 -3.09111252043692 10.0
    vertex -4.1672082053274 -4.31675523668554 0.0
    vertex -4.1672082053274 -4.31675523668554 10.0
  endloop
endfacet
facet normal -0.694534700887899 -0.719459206114257 0.0
  outer loop
    vertex -4.1672082053274 -4.31675523668554 0.0
    vertex -5.14247249734971 -3.09111252043692 10.0
    vertex -5.14247249734971 -3.09111252043692 0.0
  endloop
endfacet
facet normal -0.961214297835876 -0.275802599037581 0.0
  outer loop
    vertex -5.76728578701525 -1.65481559422549 10.0
    vertex -5.14247249734971 -3.09111252043692 0.0
    vertex -5.14247249734971 -3.09111252043692 10.0
  endloop
endfacet
facet normal -0.857078749558285 -0.515185420072819 0.0
  outer loop
    vertex -5.14247249734971 -3.09111252043692 0.0
    vertex -5.76728578701525 -1.65481559422549 10.0
    vertex -5.76728578701525 -1.65481559422549 0.0
  endloop
endfacet
facet normal -0.988990439325183 -0.147979427365364 -0.0
  outer loop
    vertex -5.99906808118611 -0.105745719979661 10.0
    vertex -5.76728578701525 -1.65481559422549 0.0
    vertex -5.76728578701525 -1.65481559422549 10.0
  endloop
endfacet
facet normal -0.961214297835876 -0.275802599037581 0.0
  outer loop
    vertex -5.76728578701525 -1.65481559422549 0.0
    vertex -5.99906808118611 -0.105745719979661 10.0
    vertex -5.99906808118611 -0.105745719979661 0.0
  endloop
endfacet
facet normal -0.991549831198173 0.129726374538387 -3.53573941965043e-019
  outer loop
    vertex -5.7822357386089 1.55158937048123 10.0
    vertex -5.99906808118611 -0.105745719979661 0.0
    vertex -5.99906808118611 -0.105745719979661 10.0
  endloop
endfacet
facet normal -0.991549831198173 0.129726374538387 -3.53573941965043e-019
  outer loop
    vertex -5.99906808118611 -0.105745719979661 0.0
    vertex -5.7822357386089 1.55158937048123 10.0
    vertex -5.7822357386089 1.55158937048123 0.0
  endloop
endfacet
facet normal -0.991549831198173 0.129726374538387 -3.53573941965043e-019
  outer loop
    vertex -5.7822357386089 1.55158937048123 0.0
    vertex -5.7822357386089 1.55158937048123 10.0
    vertex -5.78094428164151 1.56146048529936 5.19930340257706
  endloop
endfacet
facet normal -0.991549831198173 0.129726374538387 -3.53573941965043e-019
  outer loop
    vertex -5.7822357386089 1.55158937048123 0.0
    vertex -5.78094428164151 1.56146048529936 5.19930340257706
    vertex -5.77883939148956 1.57754899068071 4.67745081887215
  endloop
endfacet
facet normal -0.991549831198173 0.129726374538387 6.3365375564029e-017
  outer loop
    vertex -5.7822357386089 1.55158937048123 0.0
    vertex -5.75928468069741 1.72701335561092 4.17757942882337
    vertex -5.52278298953212 3.53468903287757 0.0
  endloop
endfacet
facet normal -0.991549831198173 0.129726374538387 6.3365375564029e-017
  outer loop
    vertex -5.75928468069741 1.72701335561092 4.17757942882337
    vertex -5.7822357386089 1.55158937048123 0.0
    vertex -5.77883939148956 1.57754899068071 4.67745081887215
  endloop
endfacet
facet normal -0.991549831198173 0.129726374538387 6.3365375564029e-017
  outer loop
    vertex -5.52278298953212 3.53468903287757 0.0
    vertex -5.75928468069741 1.72701335561092 4.17757942882337
    vertex -5.72361277048988 1.99966783062155 3.73375464158603
  endloop
endfacet
facet normal -0.991549831198173 0.129726374538387 6.3365375564029e-017
  outer loop
    vertex -5.52278298953212 3.53468903287757 0.0
    vertex -5.72361277048988 1.99966783062155 3.73375464158603
    vertex -5.67425464259698 2.37693146382345 3.3762223829552
  endloop
endfacet
facet normal -0.991549831198173 0.129726374538387 6.3365375564029e-017
  outer loop
    vertex -5.52278298953212 3.53468903287757 0.0
    vertex -5.67425464259698 2.37693146382345 3.3762223829552
    vertex -5.61457397186645 2.83309436207155 3.12934788550658
  endloop
endfacet
facet normal -0.991549831198173 0.129726374538387 6.3365375564029e-017
  outer loop
    vertex -5.52278298953212 3.53468903287757 0.0
    vertex -5.61457397186645 2.83309436207155 3.12934788550658
    vertex -5.54863789738161 3.33706977769506 3.00995523826191
  endloop
endfacet
facet normal -0.991549831198173 0.129726374538387 6.3365375564029e-017
  outer loop
    vertex -5.52278298953212 3.53468903287757 0.0
    vertex -5.54863789738161 3.33706977769506 3.00995523826191
    vertex -5.52278298953212 3.53468903287757 3.01615204611982
  endloop
endfacet
facet normal 0.991319779472278 0.131472791204243 -1.1600884671146e-016
  outer loop
    vertex 5.99906808118611 0.105745719979658 0.0
    vertex 5.99373653220761 0.145946204880002 4.5992938066286
    vertex 5.99859364190226 0.109323046070679 5.12008987267719
  endloop
endfacet
facet normal 0.991319779472278 0.131472791204243 -1.1600884671146e-016
  outer loop
    vertex 5.99373653220761 0.145946204880002 4.5992938066286
    vertex 5.99906808118611 0.105745719979658 0.0
    vertex 5.97132345186202 0.314943376553093 4.10580520545997
  endloop
endfacet
facet normal 0.991319779472278 0.131472791204243 -1.1600884671146e-016
  outer loop
    vertex 5.97132345186202 0.314943376553093 4.10580520545997
    vertex 5.99906808118611 0.105745719979658 0.0
    vertex 5.73612249877762 2.08838527892421 0.0
  endloop
endfacet
facet normal 0.991319779472278 0.131472791204243 -1.1600884671146e-016
  outer loop
    vertex 5.97132345186202 0.314943376553093 4.10580520545997
    vertex 5.73612249877762 2.08838527892421 0.0
    vertex 5.93288181525168 0.604797683121461 3.67325450181247
  endloop
endfacet
facet normal 0.991319779472278 0.131472791204243 -1.1600884671146e-016
  outer loop
    vertex 5.93288181525168 0.604797683121461 3.67325450181247
    vertex 5.73612249877762 2.08838527892421 0.0
    vertex 5.88103135638378 0.995756032599363 3.33111931131586
  endloop
endfacet
facet normal 0.991319779472278 0.131472791204243 -1.1600884671146e-016
  outer loop
    vertex 5.88103135638378 0.995756032599363 3.33111931131586
    vertex 5.73612249877762 2.08838527892421 0.0
    vertex 5.81930559834323 1.4611752595591 3.10271558179732
  endloop
endfacet
facet normal 0.991319779472278 0.131472791204243 -1.1600884671146e-016
  outer loop
    vertex 5.81930559834323 1.4611752595591 3.10271558179732
    vertex 5.73612249877762 2.08838527892421 0.0
    vertex 5.75191104953386 1.969337812825 3.00360864996856
  endloop
endfacet
facet normal 0.991319779472278 0.131472791204243 -1.1600884671146e-016
  outer loop
    vertex 5.75191104953386 1.969337812825 3.00360864996856
    vertex 5.73612249877762 2.08838527892421 0.0
    vertex 5.73612249877762 2.08838527892421 3.01212749500017
  endloop
endfacet
facet normal -0.0353001699740983 0.999376754782599 0.0
  outer loop
    vertex 2.16863948833903 12.0024126000738 10.0
    vertex 2.66832786573033 12.0200626850608 0.0
    vertex 2.16863948833903 12.0024126000738 0.0
  endloop
endfacet
facet normal -0.0353001699740983 0.999376754782599 0.0
  outer loop
    vertex 2.66832786573033 12.0200626850608 0.0
    vertex 2.16863948833903 12.0024126000738 10.0
    vertex 2.66832786573033 12.0200626850608 10.0
  endloop
endfacet
facet normal -0.0848636018983516 -0.996392577788915 -0.0
  outer loop
    vertex -2.53289262435108 1.70756819905083 10.0
    vertex -3.03108891324553 1.75 0.0
    vertex -2.53289262435108 1.70756819905083 0.0
  endloop
endfacet
facet normal -0.0848636018983516 -0.996392577788915 -0.0
  outer loop
    vertex -3.03108891324553 1.75 0.0
    vertex -2.53289262435108 1.70756819905083 10.0
    vertex -3.03108891324553 1.75 10.0
  endloop
endfacet
facet normal 5.07767076248324e-016 1.0 0.0
  outer loop
    vertex -4.46641882400976 11.6088968702172 10.0
    vertex -1.68958805409904 11.6088968702172 0.0
    vertex -4.46641882400976 11.6088968702172 0.0
  endloop
endfacet
facet normal 5.07767076248324e-016 1.0 0.0
  outer loop
    vertex -1.68958805409904 11.6088968702172 0.0
    vertex -4.46641882400976 11.6088968702172 10.0
    vertex -1.68958805409904 11.6088968702172 10.0
  endloop
endfacet
facet normal 0.0100682408841628 0.999949313978213 -3.10904753712294e-020
  outer loop
    vertex 2.66832786573033 12.0200626850608 0.0
    vertex 4.42128457162508 12.0024126000738 10.0
    vertex 4.42128457162508 12.0024126000738 -7.04991620636974e-016
  endloop
endfacet
facet normal 0.0100682408841628 0.999949313978213 -3.10904753712294e-020
  outer loop
    vertex 4.42128457162508 12.0024126000738 10.0
    vertex 2.66832786573033 12.0200626850608 0.0
    vertex 2.66832786573033 12.0200626850608 10.0
  endloop
endfacet
facet normal 0.0353001699740977 -0.999376754782599 0.0
  outer loop
    vertex 3.03108891324554 1.75 10.0
    vertex 2.53140053585424 1.73234991501295 0.0
    vertex 3.03108891324554 1.75 0.0
  endloop
endfacet
facet normal 0.0353001699740977 -0.999376754782599 0.0
  outer loop
    vertex 2.53140053585424 1.73234991501295 0.0
    vertex 3.03108891324554 1.75 10.0
    vertex 2.53140053585424 1.73234991501295 10.0
  endloop
endfacet
facet normal -0.999376754782599 -0.0353001699740977 -0.0
  outer loop
    vertex 2.16863948833903 12.0024126000738 10.0
    vertex 2.53140053585424 1.73234991501295 0.0
    vertex 2.53140053585424 1.73234991501295 10.0
  endloop
endfacet
facet normal -0.999376754782599 -0.0353001699740977 -0.0
  outer loop
    vertex 2.53140053585424 1.73234991501295 0.0
    vertex 2.16863948833903 12.0024126000738 10.0
    vertex 2.16863948833903 12.0024126000738 0.0
  endloop
endfacet
facet normal 0.996392577788915 -0.0848636018983516 0.0
  outer loop
    vertex -1.68958805409904 11.6088968702172 0.0
    vertex -2.53289262435108 1.70756819905083 10.0
    vertex -2.53289262435108 1.70756819905083 0.0
  endloop
endfacet
facet normal 0.996392577788915 -0.0848636018983516 0.0
  outer loop
    vertex -2.53289262435108 1.70756819905083 10.0
    vertex -1.68958805409904 11.6088968702172 0.0
    vertex -1.68958805409904 11.6088968702172 10.0
  endloop
endfacet
facet normal 0.128028200978717 0.978570021098435 0.161274590563926
  outer loop
    vertex -5.77883939148956 1.57754899068071 4.67745081887215
    vertex -4.76773484949924 1.59728698107253 4.17757942882337
    vertex -5.75928468069741 1.72701335561092 4.17757942882337
  endloop
endfacet
facet normal 0.118250845582645 0.903837838633329 0.411210285588314
  outer loop
    vertex -4.76773484949924 1.59728698107253 4.17757942882337
    vertex -5.77883939148956 1.57754899068071 4.67745081887215
    vertex -4.78728956029138 1.44782261614232 4.67745081887215
  endloop
endfacet
facet normal 0.00789427537811684 -0.0595237330496072 -0.998195675015722
  outer loop
    vertex 5.72033394802139 2.20743274502342 6.99639135003144
    vertex 4.74480271930535 1.95691248771997 6.98787250499983
    vertex 4.72901416854911 2.07595995381918 6.99639135003144
  endloop
endfacet
facet normal -0.00930294068194792 0.0701452294486214 -0.997493409542273
  outer loop
    vertex 4.74480271930535 1.95691248771997 6.98787250499983
    vertex 5.72033394802139 2.20743274502342 6.99639135003144
    vertex 5.73612249877762 2.08838527892421 6.98787250499983
  endloop
endfacet
facet normal -0.00789427537811739 0.05952373304961 0.998195675015722
  outer loop
    vertex 4.76059127006158 1.83786502162076 3.00360864996855
    vertex 5.73612249877762 2.08838527892421 3.01212749500017
    vertex 4.74480271930535 1.95691248771997 3.01212749500017
  endloop
endfacet
facet normal 0.00930294068194681 -0.0701452294486156 0.997493409542273
  outer loop
    vertex 5.73612249877762 2.08838527892421 3.01212749500017
    vertex 4.76059127006158 1.83786502162076 3.00360864996855
    vertex 5.75191104953386 1.969337812825 3.00360864996856
  endloop
endfacet
facet normal 0.991319779472278 0.131472791204243 -2.0728107337032e-017
  outer loop
    vertex 5.99906808118611 0.105745719979658 10.0
    vertex 5.98556377694705 0.207569707875347 5.63270201236074
    vertex 5.73612249877762 2.08838527892421 10.0
  endloop
endfacet
facet normal 0.991319779472278 0.131472791204243 -2.0728107337032e-017
  outer loop
    vertex 5.98556377694705 0.207569707875347 5.63270201236074
    vertex 5.99906808118611 0.105745719979658 10.0
    vertex 5.99859364190226 0.109323046070679 5.12008987267719
  endloop
endfacet
facet normal 0.991319779472278 0.131472791204243 -2.0728107337032e-017
  outer loop
    vertex 5.73612249877762 2.08838527892421 10.0
    vertex 5.98556377694705 0.207569707875347 5.63270201236074
    vertex 5.95553490110579 0.433990842652303 6.10219655549141
  endloop
endfacet
facet normal 0.991319779472278 0.131472791204243 -2.0728107337032e-017
  outer loop
    vertex 5.73612249877762 2.08838527892421 10.0
    vertex 5.95553490110579 0.433990842652303 6.10219655549141
    vertex 5.910553432642 0.773156224245116 6.49657822483128
  endloop
endfacet
facet normal 0.991319779472278 0.131472791204243 -2.0728107337032e-017
  outer loop
    vertex 5.73612249877762 2.08838527892421 10.0
    vertex 5.910553432642 0.773156224245116 6.49657822483128
    vertex 5.85368478429611 1.20195229239553 6.78897056136134
  endloop
endfacet
facet normal 0.991319779472278 0.131472791204243 -2.0728107337032e-017
  outer loop
    vertex 5.73612249877762 2.08838527892421 10.0
    vertex 5.85368478429611 1.20195229239553 6.78897056136134
    vertex 5.78880446047299 1.6911573036781 6.95944751054827
  endloop
endfacet
facet normal 0.991319779472278 0.131472791204243 -2.0728107337032e-017
  outer loop
    vertex 5.73612249877762 2.08838527892421 10.0
    vertex 5.78880446047299 1.6911573036781 6.95944751054827
    vertex 5.73612249877762 2.08838527892421 6.98787250499983
  endloop
endfacet
facet normal -0.0415915497828041 0.313605009682558 0.948642209101338
  outer loop
    vertex 4.82798581887096 1.32970246835486 3.10271558179732
    vertex 5.75191104953386 1.969337812825 3.00360864996856
    vertex 4.76059127006158 1.83786502162076 3.00360864996855
  endloop
endfacet
facet normal -0.00789427537811745 0.0595237330496105 0.998195675015722
  outer loop
    vertex 5.75191104953386 1.969337812825 3.00360864996856
    vertex 4.82798581887096 1.32970246835486 3.10271558179732
    vertex 5.81930559834323 1.4611752595591 3.10271558179732
  endloop
endfacet
facet normal 0.0415915497828041 -0.313605009682558 -0.948642209101338
  outer loop
    vertex 5.65293939921201 2.71559529828933 6.89728441820268
    vertex 4.72901416854911 2.07595995381918 6.99639135003144
    vertex 4.66161961973974 2.58412250708508 6.89728441820268
  endloop
endfacet
facet normal 0.00789427537811689 -0.0595237330496076 -0.998195675015722
  outer loop
    vertex 4.72901416854911 2.07595995381918 6.99639135003144
    vertex 5.65293939921201 2.71559529828933 6.89728441820268
    vertex 5.72033394802139 2.20743274502342 6.99639135003144
  endloop
endfacet
facet normal 0.0724544288030792 -0.546314623162426 -0.834440344342072
  outer loop
    vertex 5.59121364117147 3.18101452524906 6.66888068868415
    vertex 4.66161961973974 2.58412250708508 6.89728441820268
    vertex 4.59989386169919 3.04954173404482 6.66888068868415
  endloop
endfacet
facet normal 0.0415915497828041 -0.313605009682557 -0.948642209101339
  outer loop
    vertex 4.66161961973974 2.58412250708508 6.89728441820268
    vertex 5.59121364117147 3.18101452524906 6.66888068868415
    vertex 5.65293939921201 2.71559529828933 6.89728441820268
  endloop
endfacet
facet normal 0.0983796582370294 -0.741793797901377 -0.663372749093763
  outer loop
    vertex 5.53936318230357 3.57197287472697 6.32674549818753
    vertex 4.59989386169919 3.04954173404482 6.66888068868415
    vertex 4.54804340283129 3.44050008352272 6.32674549818753
  endloop
endfacet
facet normal 0.0724544288030792 -0.546314623162426 -0.834440344342072
  outer loop
    vertex 4.59989386169919 3.04954173404482 6.66888068868415
    vertex 5.53936318230357 3.57197287472697 6.32674549818753
    vertex 5.59121364117147 3.18101452524906 6.66888068868415
  endloop
endfacet
facet normal 0.0983796582370294 -0.741793797901377 -0.663372749093763
  outer loop
    vertex 5.53936318230357 3.57197287472697 6.32674549818753
    vertex 4.50960176622095 3.73035439009109 5.89419479454003
    vertex 5.50092154569323 3.86182718129533 5.89419479454003
  endloop
endfacet
facet normal 0.117600476542198 -0.886720951185561 -0.447097397270016
  outer loop
    vertex 4.50960176622095 3.73035439009109 5.89419479454003
    vertex 5.53936318230357 3.57197287472697 6.32674549818753
    vertex 4.54804340283129 3.44050008352272 6.32674549818753
  endloop
endfacet
facet normal 0.117600476542198 -0.886720951185561 -0.447097397270016
  outer loop
    vertex 5.50092154569323 3.86182718129533 5.89419479454003
    vertex 4.48718868587536 3.89935156176418 5.4007061933714
    vertex 5.47850846534764 4.03082435296843 5.4007061933714
  endloop
endfacet
facet normal 0.128807016714993 -0.971219537022106 -0.200353096685701
  outer loop
    vertex 4.48718868587536 3.89935156176418 5.4007061933714
    vertex 5.50092154569323 3.86182718129533 5.89419479454003
    vertex 4.50960176622095 3.73035439009109 5.89419479454003
  endloop
endfacet
facet normal 0.128807016714993 -0.971219537022106 -0.200353096685701
  outer loop
    vertex 5.47850846534764 4.03082435296843 5.4007061933714
    vertex 4.48233157618071 3.93597472057351 4.8799101273228
    vertex 5.47365135565298 4.06744751177775 4.8799101273228
  endloop
endfacet
facet normal 0.13123557156232 -0.989531116426768 0.0600449363385978
  outer loop
    vertex 4.48233157618071 3.93597472057351 4.8799101273228
    vertex 5.47850846534764 4.03082435296843 5.4007061933714
    vertex 4.48718868587536 3.89935156176418 5.4007061933714
  endloop
endfacet
facet normal 0.13123557156232 -0.989531116426768 0.0600449363385979
  outer loop
    vertex 5.47365135565298 4.06744751177775 4.8799101273228
    vertex 4.49536144113592 3.83772805876884 4.36729798763926
    vertex 5.4866812206082 3.96920084997308 4.36729798763926
  endloop
endfacet
facet normal 0.124720639084712 -0.940407785524433 0.316351006180371
  outer loop
    vertex 4.49536144113592 3.83772805876884 4.36729798763926
    vertex 5.47365135565298 4.06744751177775 4.8799101273228
    vertex 4.48233157618071 3.93597472057351 4.8799101273228
  endloop
endfacet
facet normal 0.124720639084712 -0.940407785524433 0.31635100618037
  outer loop
    vertex 5.4866812206082 3.96920084997308 4.36729798763926
    vertex 4.52539031697718 3.61130692399188 3.89780344450859
    vertex 5.51671009644946 3.74277971519612 3.89780344450859
  endloop
endfacet
facet normal 0.109706201164082 -0.827197218135955 0.551098277745707
  outer loop
    vertex 4.52539031697718 3.61130692399188 3.89780344450859
    vertex 5.4866812206082 3.96920084997308 4.36729798763926
    vertex 4.49536144113592 3.83772805876884 4.36729798763926
  endloop
endfacet
facet normal 0.109706201164081 -0.827197218135955 0.551098277745707
  outer loop
    vertex 5.51671009644946 3.74277971519612 3.89780344450859
    vertex 4.57037178544097 3.27214154239907 3.50342177516873
    vertex 5.56169156491325 3.40361433360331 3.50342177516873
  endloop
endfacet
facet normal 0.0872154669321887 -0.657614527339549 0.748289112415638
  outer loop
    vertex 4.57037178544097 3.27214154239907 3.50342177516873
    vertex 5.51671009644946 3.74277971519612 3.89780344450859
    vertex 4.52539031697718 3.61130692399188 3.89780344450859
  endloop
endfacet
facet normal 0.058781142759241 -0.443216493264342 0.89448528068067
  outer loop
    vertex 4.62724043378687 2.84334547424865 3.21102943863866
    vertex 5.56169156491325 3.40361433360331 3.50342177516873
    vertex 4.57037178544097 3.27214154239907 3.50342177516873
  endloop
endfacet
facet normal 0.0872154669321887 -0.657614527339549 0.748289112415638
  outer loop
    vertex 5.56169156491325 3.40361433360331 3.50342177516873
    vertex 4.62724043378687 2.84334547424865 3.21102943863866
    vertex 5.61856021325914 2.9748182654529 3.21102943863866
  endloop
endfacet
facet normal 0.0263409808476825 -0.198613987623058 0.979723755274133
  outer loop
    vertex 4.69212075760998 2.35414046296609 3.04055248945173
    vertex 5.61856021325914 2.9748182654529 3.21102943863866
    vertex 4.62724043378687 2.84334547424865 3.21102943863866
  endloop
endfacet
facet normal 0.058781142759241 -0.443216493264342 0.89448528068067
  outer loop
    vertex 5.61856021325914 2.9748182654529 3.21102943863866
    vertex 4.69212075760998 2.35414046296609 3.04055248945173
    vertex 5.68344053708226 2.48561325417033 3.04055248945173
  endloop
endfacet
facet normal 0.00930294068194833 -0.0701452294486272 0.997493409542273
  outer loop
    vertex 4.74480271930535 1.95691248771997 3.01212749500017
    vertex 5.68344053708226 2.48561325417033 3.04055248945173
    vertex 4.69212075760998 2.35414046296609 3.04055248945173
  endloop
endfacet
facet normal 0.0263409808476825 -0.198613987623058 0.979723755274133
  outer loop
    vertex 5.68344053708226 2.48561325417033 3.04055248945173
    vertex 4.74480271930535 1.95691248771997 3.01212749500017
    vertex 5.73612249877762 2.08838527892421 3.01212749500017
  endloop
endfacet
facet normal 0.991319779472278 0.131472791204243 2.63677167246255e-016
  outer loop
    vertex 4.69212075760998 2.35414046296609 3.04055248945173
    vertex 4.74480271930535 1.95691248771997 6.98787250499983
    vertex 4.74480271930535 1.95691248771997 3.01212749500017
  endloop
endfacet
facet normal 0.991319779472278 0.131472791204243 2.63677167246255e-016
  outer loop
    vertex 4.74480271930535 1.95691248771997 6.98787250499983
    vertex 4.69212075760998 2.35414046296609 3.04055248945173
    vertex 4.72901416854911 2.07595995381918 6.99639135003144
  endloop
endfacet
facet normal 0.991319779472278 0.131472791204243 2.63677167246255e-016
  outer loop
    vertex 4.72901416854911 2.07595995381918 6.99639135003144
    vertex 4.69212075760998 2.35414046296609 3.04055248945173
    vertex 4.66161961973974 2.58412250708508 6.89728441820268
  endloop
endfacet
facet normal 0.991319779472278 0.131472791204243 2.63677167246255e-016
  outer loop
    vertex 4.66161961973974 2.58412250708508 6.89728441820268
    vertex 4.69212075760998 2.35414046296609 3.04055248945173
    vertex 4.62724043378687 2.84334547424865 3.21102943863866
  endloop
endfacet
facet normal 0.991319779472278 0.131472791204243 2.63677167246255e-016
  outer loop
    vertex 4.66161961973974 2.58412250708508 6.89728441820268
    vertex 4.62724043378687 2.84334547424865 3.21102943863866
    vertex 4.59989386169919 3.04954173404482 6.66888068868415
  endloop
endfacet
facet normal 0.991319779472278 0.131472791204243 2.63677167246255e-016
  outer loop
    vertex 4.59989386169919 3.04954173404482 6.66888068868415
    vertex 4.62724043378687 2.84334547424865 3.21102943863866
    vertex 4.57037178544097 3.27214154239907 3.50342177516873
  endloop
endfacet
facet normal 0.991319779472278 0.131472791204243 2.63677167246255e-016
  outer loop
    vertex 4.59989386169919 3.04954173404482 6.66888068868415
    vertex 4.57037178544097 3.27214154239907 3.50342177516873
    vertex 4.54804340283129 3.44050008352272 6.32674549818753
  endloop
endfacet
facet normal 0.991319779472278 0.131472791204243 2.63677167246255e-016
  outer loop
    vertex 4.54804340283129 3.44050008352272 6.32674549818753
    vertex 4.57037178544097 3.27214154239907 3.50342177516873
    vertex 4.52539031697718 3.61130692399188 3.89780344450859
  endloop
endfacet
facet normal 0.991319779472278 0.131472791204243 2.63677167246255e-016
  outer loop
    vertex 4.54804340283129 3.44050008352272 6.32674549818753
    vertex 4.52539031697718 3.61130692399188 3.89780344450859
    vertex 4.50960176622095 3.73035439009109 5.89419479454003
  endloop
endfacet
facet normal 0.991319779472278 0.131472791204243 2.63677167246255e-016
  outer loop
    vertex 4.50960176622095 3.73035439009109 5.89419479454003
    vertex 4.52539031697718 3.61130692399188 3.89780344450859
    vertex 4.49536144113592 3.83772805876884 4.36729798763926
  endloop
endfacet
facet normal 0.991319779472278 0.131472791204243 2.63677167246255e-016
  outer loop
    vertex 4.50960176622095 3.73035439009109 5.89419479454003
    vertex 4.49536144113592 3.83772805876884 4.36729798763926
    vertex 4.48718868587536 3.89935156176418 5.4007061933714
  endloop
endfacet
facet normal 0.991319779472278 0.131472791204243 2.63677167246255e-016
  outer loop
    vertex 4.48718868587536 3.89935156176418 5.4007061933714
    vertex 4.49536144113592 3.83772805876884 4.36729798763926
    vertex 4.48233157618071 3.93597472057351 4.8799101273228
  endloop
endfacet
facet normal -0.0724544288030792 0.546314623162426 0.834440344342072
  outer loop
    vertex 4.88971157691151 0.864283241395119 3.33111931131586
    vertex 5.81930559834323 1.4611752595591 3.10271558179732
    vertex 4.82798581887096 1.32970246835486 3.10271558179732
  endloop
endfacet
facet normal -0.0415915497828041 0.313605009682558 0.948642209101338
  outer loop
    vertex 5.81930559834323 1.4611752595591 3.10271558179732
    vertex 4.88971157691151 0.864283241395119 3.33111931131586
    vertex 5.88103135638378 0.995756032599363 3.33111931131586
  endloop
endfacet
facet normal -0.0983796582370293 0.741793797901376 0.663372749093764
  outer loop
    vertex 4.94156203577941 0.473324891917219 3.67325450181247
    vertex 5.88103135638378 0.995756032599363 3.33111931131586
    vertex 4.88971157691151 0.864283241395119 3.33111931131586
  endloop
endfacet
facet normal -0.0724544288030792 0.546314623162426 0.834440344342072
  outer loop
    vertex 5.88103135638378 0.995756032599363 3.33111931131586
    vertex 4.94156203577941 0.473324891917219 3.67325450181247
    vertex 5.93288181525168 0.604797683121461 3.67325450181247
  endloop
endfacet
facet normal -0.117600476542198 0.88672095118556 0.447097397270017
  outer loop
    vertex 4.98000367238974 0.183470585348851 4.10580520545997
    vertex 5.93288181525168 0.604797683121461 3.67325450181247
    vertex 4.94156203577941 0.473324891917219 3.67325450181247
  endloop
endfacet
facet normal -0.0983796582370294 0.741793797901377 0.663372749093763
  outer loop
    vertex 5.93288181525168 0.604797683121461 3.67325450181247
    vertex 4.98000367238974 0.183470585348851 4.10580520545997
    vertex 5.97132345186202 0.314943376553093 4.10580520545997
  endloop
endfacet
facet normal -0.128807016714993 0.971219537022106 0.200353096685701
  outer loop
    vertex 5.00241675273533 0.0144734136757596 4.5992938066286
    vertex 5.97132345186202 0.314943376553093 4.10580520545997
    vertex 4.98000367238974 0.183470585348851 4.10580520545997
  endloop
endfacet
facet normal -0.117600476542198 0.88672095118556 0.447097397270017
  outer loop
    vertex 5.97132345186202 0.314943376553093 4.10580520545997
    vertex 5.00241675273533 0.0144734136757596 4.5992938066286
    vertex 5.99373653220761 0.145946204880002 4.5992938066286
  endloop
endfacet
facet normal -0.131143242760359 0.988834946772496 0.0707594369659057
  outer loop
    vertex 5.00727386242999 -0.0221497451335631 5.12008987267719
    vertex 5.99373653220761 0.145946204880002 4.5992938066286
    vertex 5.00241675273533 0.0144734136757596 4.5992938066286
  endloop
endfacet
facet normal -0.128807016714993 0.971219537022106 0.200353096685701
  outer loop
    vertex 5.99373653220761 0.145946204880002 4.5992938066286
    vertex 5.00727386242999 -0.0221497451335631 5.12008987267719
    vertex 5.99859364190226 0.109323046070679 5.12008987267719
  endloop
endfacet
facet normal -0.124720639084712 0.940407785524434 -0.316351006180369
  outer loop
    vertex 4.99424399747477 0.0760969166711041 5.63270201236074
    vertex 5.99859364190226 0.109323046070679 5.12008987267719
    vertex 5.00727386242999 -0.0221497451335631 5.12008987267719
  endloop
endfacet
facet normal -0.129082423349475 0.973296134329121 -0.189821924134746
  outer loop
    vertex 5.99859364190226 0.109323046070679 5.12008987267719
    vertex 4.99424399747477 0.0760969166711041 5.63270201236074
    vertex 5.98556377694705 0.207569707875347 5.63270201236074
  endloop
endfacet
facet normal -0.109706201164082 0.827197218135955 -0.551098277745706
  outer loop
    vertex 4.96421512163351 0.302518051448061 6.10219655549141
    vertex 5.98556377694705 0.207569707875347 5.63270201236074
    vertex 4.99424399747477 0.0760969166711041 5.63270201236074
  endloop
endfacet
facet normal -0.124720639084712 0.940407785524434 -0.316351006180369
  outer loop
    vertex 5.98556377694705 0.207569707875347 5.63270201236074
    vertex 4.96421512163351 0.302518051448061 6.10219655549141
    vertex 5.95553490110579 0.433990842652303 6.10219655549141
  endloop
endfacet
facet normal -0.0872154669321887 0.657614527339549 -0.748289112415637
  outer loop
    vertex 4.91923365316972 0.641683433040874 6.49657822483128
    vertex 5.95553490110579 0.433990842652303 6.10219655549141
    vertex 4.96421512163351 0.302518051448061 6.10219655549141
  endloop
endfacet
facet normal -0.109706201164082 0.827197218135955 -0.551098277745706
  outer loop
    vertex 5.95553490110579 0.433990842652303 6.10219655549141
    vertex 4.91923365316972 0.641683433040874 6.49657822483128
    vertex 5.910553432642 0.773156224245116 6.49657822483128
  endloop
endfacet
facet normal -0.0587811427592409 0.443216493264341 -0.89448528068067
  outer loop
    vertex 5.85368478429611 1.20195229239553 6.78897056136134
    vertex 4.91923365316972 0.641683433040874 6.49657822483128
    vertex 4.86236500482383 1.07047950119129 6.78897056136134
  endloop
endfacet
facet normal -0.0872154669321887 0.657614527339549 -0.748289112415637
  outer loop
    vertex 4.91923365316972 0.641683433040874 6.49657822483128
    vertex 5.85368478429611 1.20195229239553 6.78897056136134
    vertex 5.910553432642 0.773156224245116 6.49657822483128
  endloop
endfacet
facet normal -0.0263409808476826 0.198613987623058 -0.979723755274133
  outer loop
    vertex 5.78880446047299 1.6911573036781 6.95944751054827
    vertex 4.86236500482383 1.07047950119129 6.78897056136134
    vertex 4.79748468100071 1.55968451247386 6.95944751054827
  endloop
endfacet
facet normal -0.0587811427592409 0.443216493264342 -0.89448528068067
  outer loop
    vertex 4.86236500482383 1.07047950119129 6.78897056136134
    vertex 5.78880446047299 1.6911573036781 6.95944751054827
    vertex 5.85368478429611 1.20195229239553 6.78897056136134
  endloop
endfacet
facet normal -0.00930294068194878 0.0701452294486279 -0.997493409542273
  outer loop
    vertex 5.73612249877762 2.08838527892421 6.98787250499983
    vertex 4.79748468100071 1.55968451247386 6.95944751054827
    vertex 4.74480271930535 1.95691248771997 6.98787250499983
  endloop
endfacet
facet normal -0.0263409808476826 0.198613987623058 -0.979723755274133
  outer loop
    vertex 4.79748468100071 1.55968451247386 6.95944751054827
    vertex 5.73612249877762 2.08838527892421 6.98787250499983
    vertex 5.78880446047299 1.6911573036781 6.95944751054827
  endloop
endfacet
facet normal 0.991319779472278 0.131472791204243 2.49071143404626e-016
  outer loop
    vertex 5.00241675273533 0.0144734136757596 4.5992938066286
    vertex 4.99424399747477 0.0760969166711041 5.63270201236074
    vertex 5.00727386242999 -0.0221497451335631 5.12008987267719
  endloop
endfacet
facet normal 0.991319779472278 0.131472791204243 2.49071143404626e-016
  outer loop
    vertex 4.99424399747477 0.0760969166711041 5.63270201236074
    vertex 5.00241675273533 0.0144734136757596 4.5992938066286
    vertex 4.98000367238974 0.183470585348851 4.10580520545997
  endloop
endfacet
facet normal 0.991319779472278 0.131472791204243 2.49071143404626e-016
  outer loop
    vertex 4.99424399747477 0.0760969166711041 5.63270201236074
    vertex 4.98000367238974 0.183470585348851 4.10580520545997
    vertex 4.96421512163351 0.302518051448061 6.10219655549141
  endloop
endfacet
facet normal 0.991319779472278 0.131472791204243 2.49071143404626e-016
  outer loop
    vertex 4.96421512163351 0.302518051448061 6.10219655549141
    vertex 4.98000367238974 0.183470585348851 4.10580520545997
    vertex 4.94156203577941 0.473324891917219 3.67325450181247
  endloop
endfacet
facet normal 0.991319779472278 0.131472791204243 2.49071143404626e-016
  outer loop
    vertex 4.96421512163351 0.302518051448061 6.10219655549141
    vertex 4.94156203577941 0.473324891917219 3.67325450181247
    vertex 4.91923365316972 0.641683433040874 6.49657822483128
  endloop
endfacet
facet normal 0.991319779472278 0.131472791204243 2.49071143404626e-016
  outer loop
    vertex 4.91923365316972 0.641683433040874 6.49657822483128
    vertex 4.94156203577941 0.473324891917219 3.67325450181247
    vertex 4.88971157691151 0.864283241395119 3.33111931131586
  endloop
endfacet
facet normal 0.991319779472278 0.131472791204243 2.49071143404626e-016
  outer loop
    vertex 4.91923365316972 0.641683433040874 6.49657822483128
    vertex 4.88971157691151 0.864283241395119 3.33111931131586
    vertex 4.86236500482383 1.07047950119129 6.78897056136134
  endloop
endfacet
facet normal 0.991319779472278 0.131472791204243 2.49071143404626e-016
  outer loop
    vertex 4.86236500482383 1.07047950119129 6.78897056136134
    vertex 4.88971157691151 0.864283241395119 3.33111931131586
    vertex 4.82798581887096 1.32970246835486 3.10271558179732
  endloop
endfacet
facet normal 0.991319779472278 0.131472791204243 2.49071143404626e-016
  outer loop
    vertex 4.86236500482383 1.07047950119129 6.78897056136134
    vertex 4.82798581887096 1.32970246835486 3.10271558179732
    vertex 4.79748468100071 1.55968451247386 6.95944751054827
  endloop
endfacet
facet normal 0.991319779472278 0.131472791204243 2.49071143404626e-016
  outer loop
    vertex 4.79748468100071 1.55968451247386 6.95944751054827
    vertex 4.82798581887096 1.32970246835486 3.10271558179732
    vertex 4.76059127006158 1.83786502162076 3.00360864996855
  endloop
endfacet
facet normal 0.991319779472278 0.131472791204243 2.49071143404626e-016
  outer loop
    vertex 4.79748468100071 1.55968451247386 6.95944751054827
    vertex 4.76059127006158 1.83786502162076 3.00360864996855
    vertex 4.74480271930535 1.95691248771997 6.98787250499983
  endloop
endfacet
facet normal 0.991319779472278 0.131472791204243 2.49071143404626e-016
  outer loop
    vertex 4.74480271930535 1.95691248771997 6.98787250499983
    vertex 4.76059127006158 1.83786502162076 3.00360864996855
    vertex 4.74480271930535 1.95691248771997 3.01212749500017
  endloop
endfacet
facet normal -0.991549831198173 0.129726374538387 3.25298264896614e-017
  outer loop
    vertex -4.46641882400976 11.6088968702172 10.0
    vertex -5.52278298953212 3.53468903287757 6.98384795388018
    vertex -5.52278298953212 3.53468903287757 10.0
  endloop
endfacet
facet normal -0.991549831198173 0.129726374538387 3.25298264896614e-017
  outer loop
    vertex -5.52278298953212 3.53468903287757 6.98384795388018
    vertex -4.46641882400976 11.6088968702172 10.0
    vertex -5.49692808168263 3.73230828806009 6.99004476173809
  endloop
endfacet
facet normal -0.991549831198173 0.129726374538387 3.25298264896614e-017
  outer loop
    vertex -5.49692808168263 3.73230828806009 6.99004476173809
    vertex -4.46641882400976 11.6088968702172 10.0
    vertex -5.43099200719779 4.2362837036836 6.87065211449342
  endloop
endfacet
facet normal -0.991549831198173 0.129726374538387 3.25298264896614e-017
  outer loop
    vertex -5.43099200719779 4.2362837036836 6.87065211449342
    vertex -4.46641882400976 11.6088968702172 10.0
    vertex -5.37131133646727 4.69244660193169 6.6237776170448
  endloop
endfacet
facet normal -0.991549831198173 0.129726374538387 3.25298264896614e-017
  outer loop
    vertex -5.37131133646727 4.69244660193169 6.6237776170448
    vertex -4.46641882400976 11.6088968702172 10.0
    vertex -5.32195320857437 5.0697102351336 6.26624535841397
  endloop
endfacet
facet normal -0.991549831198173 0.129726374538387 3.25298264896614e-017
  outer loop
    vertex -5.32195320857437 5.0697102351336 6.26624535841397
    vertex -4.46641882400976 11.6088968702172 10.0
    vertex -5.28628129836683 5.34236471014423 5.82242057117663
  endloop
endfacet
facet normal -0.991549831198173 0.129726374538387 3.25298264896614e-017
  outer loop
    vertex -5.28628129836683 5.34236471014423 5.82242057117663
    vertex -4.46641882400976 11.6088968702172 10.0
    vertex -5.26672658757469 5.49182907507445 5.32254918112785
  endloop
endfacet
facet normal -0.991549831198173 0.129726374538387 3.25298264896614e-017
  outer loop
    vertex -5.26672658757469 5.49182907507445 5.32254918112785
    vertex -4.46641882400976 11.6088968702172 10.0
    vertex -5.26462169742273 5.50791758045578 4.80069659742293
  endloop
endfacet
facet normal -0.991549831198173 0.129726374538387 3.25298264896614e-017
  outer loop
    vertex -5.48093985365408 3.854512618978 3.02618085282523
    vertex -5.52278298953212 3.53468903287757 0.0
    vertex -5.52278298953212 3.53468903287757 3.01615204611982
  endloop
endfacet
facet normal -0.991549831198173 0.129726374538387 3.25298264896614e-017
  outer loop
    vertex -5.52278298953212 3.53468903287757 0.0
    vertex -5.48093985365408 3.854512618978 3.02618085282523
    vertex -4.46641882400976 11.6088968702172 0.0
  endloop
endfacet
facet normal -0.991549831198173 0.129726374538387 3.25298264896614e-017
  outer loop
    vertex -4.46641882400976 11.6088968702172 0.0
    vertex -5.48093985365408 3.854512618978 3.02618085282523
    vertex -5.41609335048759 4.35016001140167 3.17691898037813
  endloop
endfacet
facet normal -0.991549831198173 0.129726374538387 3.25298264896614e-017
  outer loop
    vertex -4.46641882400976 11.6088968702172 0.0
    vertex -5.41609335048759 4.35016001140167 3.17691898037813
    vertex -5.35851756990902 4.79023440426842 3.45189706663444
  endloop
endfacet
facet normal -0.991549831198173 0.129726374538387 3.25298264896614e-017
  outer loop
    vertex -4.46641882400976 11.6088968702172 0.0
    vertex -5.35851756990902 4.79023440426842 3.45189706663444
    vertex -5.31213620621632 5.14474545496172 3.83237580943854
  endloop
endfacet
facet normal -0.991549831198173 0.129726374538387 3.25298264896614e-017
  outer loop
    vertex -4.46641882400976 11.6088968702172 0.0
    vertex -5.31213620621632 5.14474545496172 3.83237580943854
    vertex -5.28011007269633 5.38953382123403 4.2924262112392
  endloop
endfacet
facet normal -0.991549831198173 0.129726374538387 3.25298264896614e-017
  outer loop
    vertex -4.46641882400976 11.6088968702172 0.0
    vertex -5.28011007269633 5.38953382123403 4.2924262112392
    vertex -5.26462169742273 5.50791758045578 4.80069659742293
  endloop
endfacet
facet normal -0.991549831198173 0.129726374538387 3.25298264896614e-017
  outer loop
    vertex -4.46641882400976 11.6088968702172 0.0
    vertex -5.26462169742273 5.50791758045578 4.80069659742293
    vertex -4.46641882400976 11.6088968702172 10.0
  endloop
endfacet
facet normal -0.991549831198173 0.129726374538387 -1.55162620040375e-016
  outer loop
    vertex -5.7822357386089 1.55158937048123 10.0
    vertex -5.76545590636792 1.67984424452112 5.7075737887608
    vertex -5.78094428164151 1.56146048529936 5.19930340257706
  endloop
endfacet
facet normal -0.991549831198173 0.129726374538387 -1.55162620040375e-016
  outer loop
    vertex -5.76545590636792 1.67984424452112 5.7075737887608
    vertex -5.7822357386089 1.55158937048123 10.0
    vertex -5.52278298953212 3.53468903287757 10.0
  endloop
endfacet
facet normal -0.991549831198173 0.129726374538387 -1.55162620040375e-016
  outer loop
    vertex -5.76545590636792 1.67984424452112 5.7075737887608
    vertex -5.52278298953212 3.53468903287757 10.0
    vertex -5.73342977284792 1.92463261079343 6.16762419056146
  endloop
endfacet
facet normal -0.991549831198173 0.129726374538387 -1.55162620040375e-016
  outer loop
    vertex -5.73342977284792 1.92463261079343 6.16762419056146
    vertex -5.52278298953212 3.53468903287757 10.0
    vertex -5.68704840915523 2.27914366148673 6.54810293336557
  endloop
endfacet
facet normal -0.991549831198173 0.129726374538387 -1.55162620040375e-016
  outer loop
    vertex -5.68704840915523 2.27914366148673 6.54810293336557
    vertex -5.52278298953212 3.53468903287757 10.0
    vertex -5.62947262857665 2.71921805435348 6.82308101962187
  endloop
endfacet
facet normal -0.991549831198173 0.129726374538387 -1.55162620040375e-016
  outer loop
    vertex -5.62947262857665 2.71921805435348 6.82308101962187
    vertex -5.52278298953212 3.53468903287757 10.0
    vertex -5.56462612541016 3.21486544677715 6.97381914717477
  endloop
endfacet
facet normal -0.991549831198173 0.129726374538387 -1.55162620040375e-016
  outer loop
    vertex -5.56462612541016 3.21486544677715 6.97381914717477
    vertex -5.52278298953212 3.53468903287757 10.0
    vertex -5.52278298953212 3.53468903287757 6.98384795388018
  endloop
endfacet
facet normal 0.118250845582645 0.903837838633328 0.411210285588314
  outer loop
    vertex -5.75928468069741 1.72701335561092 4.17757942882337
    vertex -4.7320629392917 1.86994145608317 3.73375464158603
    vertex -5.72361277048988 1.99966783062155 3.73375464158603
  endloop
endfacet
facet normal 0.100414890478878 0.767510601128012 0.633122679206987
  outer loop
    vertex -4.7320629392917 1.86994145608317 3.73375464158603
    vertex -5.75928468069741 1.72701335561092 4.17757942882337
    vertex -4.76773484949924 1.59728698107253 4.17757942882337
  endloop
endfacet
facet normal 0.100414890478878 0.767510601128012 0.633122679206987
  outer loop
    vertex -4.7320629392917 1.86994145608317 3.73375464158603
    vertex -5.67425464259698 2.37693146382345 3.3762223829552
    vertex -5.72361277048988 1.99966783062155 3.73375464158603
  endloop
endfacet
facet normal 0.0757358265324281 0.578878784527059 0.811888808522401
  outer loop
    vertex -5.67425464259698 2.37693146382345 3.3762223829552
    vertex -4.7320629392917 1.86994145608317 3.73375464158603
    vertex -4.68270481139881 2.24720508928507 3.3762223829552
  endloop
endfacet
facet normal 0.0757358265324281 0.578878784527059 0.811888808522402
  outer loop
    vertex -4.68270481139881 2.24720508928507 3.3762223829552
    vertex -5.61457397186645 2.83309436207155 3.12934788550658
    vertex -5.67425464259698 2.37693146382345 3.3762223829552
  endloop
endfacet
facet normal 0.0458954911671643 0.350797335403011 0.935326057246708
  outer loop
    vertex -5.61457397186645 2.83309436207155 3.12934788550658
    vertex -4.68270481139881 2.24720508928507 3.3762223829552
    vertex -4.62302414066828 2.70336798753316 3.12934788550658
  endloop
endfacet
facet normal 0.0458954911671643 0.350797335403011 0.935326057246708
  outer loop
    vertex -4.62302414066828 2.70336798753316 3.12934788550658
    vertex -5.54863789738161 3.33706977769506 3.00995523826191
    vertex -5.61457397186645 2.83309436207155 3.12934788550658
  endloop
endfacet
facet normal 0.0129274539247437 0.0988096275912557 0.995022380869044
  outer loop
    vertex -5.54863789738161 3.33706977769506 3.00995523826191
    vertex -4.62302414066828 2.70336798753316 3.12934788550658
    vertex -4.55708806618344 3.20734340315668 3.00995523826191
  endloop
endfacet
facet normal 0.0129274539247437 0.0988096275912558 0.995022380869044
  outer loop
    vertex -4.55708806618344 3.20734340315668 3.00995523826191
    vertex -5.52278298953212 3.53468903287757 3.01615204611982
    vertex -5.54863789738161 3.33706977769506 3.00995523826191
  endloop
endfacet
facet normal -0.00403154745448966 -0.0308147068180326 0.99951698358199
  outer loop
    vertex -5.52278298953212 3.53468903287757 3.01615204611982
    vertex -4.55708806618344 3.20734340315668 3.00995523826191
    vertex -4.53123315833395 3.40496265833919 3.01615204611982
  endloop
endfacet
facet normal 0.00403154745448977 0.0308147068180334 -0.99951698358199
  outer loop
    vertex -5.52278298953212 3.53468903287757 6.98384795388018
    vertex -4.57307629421199 3.08513907223876 6.97381914717477
    vertex -5.56462612541016 3.21486544677715 6.97381914717477
  endloop
endfacet
facet normal 0.0209215679390207 0.159911793050215 -0.986909573587387
  outer loop
    vertex -4.57307629421199 3.08513907223876 6.97381914717477
    vertex -5.52278298953212 3.53468903287757 6.98384795388018
    vertex -4.53123315833395 3.40496265833919 6.98384795388018
  endloop
endfacet
facet normal 0.0209215679390207 0.159911793050215 -0.986909573587387
  outer loop
    vertex -5.56462612541016 3.21486544677715 6.97381914717477
    vertex -4.63792279737848 2.5894916798151 6.82308101962187
    vertex -5.62947262857665 2.71921805435348 6.82308101962187
  endloop
endfacet
facet normal 0.0533448195222663 0.407735489262045 -0.911540509810934
  outer loop
    vertex -4.63792279737848 2.5894916798151 6.82308101962187
    vertex -5.56462612541016 3.21486544677715 6.97381914717477
    vertex -4.57307629421199 3.08513907223876 6.97381914717477
  endloop
endfacet
facet normal 0.0533448195222663 0.407735489262045 -0.911540509810934
  outer loop
    vertex -5.62947262857665 2.71921805435348 6.82308101962187
    vertex -4.69549857795705 2.14941728694834 6.54810293336557
    vertex -5.68704840915523 2.27914366148673 6.54810293336557
  endloop
endfacet
facet normal 0.0821327098115521 0.627772685695422 -0.774051466682783
  outer loop
    vertex -4.69549857795705 2.14941728694834 6.54810293336557
    vertex -5.62947262857665 2.71921805435348 6.82308101962187
    vertex -4.63792279737848 2.5894916798151 6.82308101962187
  endloop
endfacet
facet normal 0.082132709811552 0.627772685695422 -0.774051466682783
  outer loop
    vertex -5.68704840915523 2.27914366148673 6.54810293336557
    vertex -4.74187994164975 1.79490623625504 6.16762419056146
    vertex -5.73342977284792 1.92463261079343 6.16762419056146
  endloop
endfacet
facet normal 0.105323391657901 0.805028211042073 -0.58381209528073
  outer loop
    vertex -4.74187994164975 1.79490623625504 6.16762419056146
    vertex -5.68704840915523 2.27914366148673 6.54810293336557
    vertex -4.69549857795705 2.14941728694834 6.54810293336557
  endloop
endfacet
facet normal 0.105323391657901 0.805028211042073 -0.58381209528073
  outer loop
    vertex -5.73342977284792 1.92463261079343 6.16762419056146
    vertex -4.77390607516975 1.55011786998274 5.7075737887608
    vertex -5.76545590636792 1.67984424452112 5.7075737887608
  endloop
endfacet
facet normal 0.121336458417899 0.927422394178226 -0.3537868943804
  outer loop
    vertex -4.77390607516975 1.55011786998274 5.7075737887608
    vertex -5.73342977284792 1.92463261079343 6.16762419056146
    vertex -4.74187994164975 1.79490623625504 6.16762419056146
  endloop
endfacet
facet normal 0.121336458417899 0.927422394178226 -0.3537868943804
  outer loop
    vertex -5.76545590636792 1.67984424452112 5.7075737887608
    vertex -4.78939445044334 1.43173411076098 5.19930340257706
    vertex -5.78094428164151 1.56146048529936 5.19930340257706
  endloop
endfacet
facet normal 0.126288971897842 0.965276407462094 -0.22867564971824
  outer loop
    vertex -4.78939445044334 1.43173411076098 5.19930340257706
    vertex -5.76545590636792 1.67984424452112 5.7075737887608
    vertex -4.77390607516975 1.55011786998274 5.7075737887608
  endloop
endfacet
facet normal 0.129663714569636 0.99107089635043 0.0310773153788928
  outer loop
    vertex -5.78094428164151 1.56146048529936 5.19930340257706
    vertex -4.78728956029138 1.44782261614232 4.67745081887215
    vertex -5.77883939148956 1.57754899068071 4.67745081887215
  endloop
endfacet
facet normal 0.128028200978717 0.978570021098435 0.161274590563926
  outer loop
    vertex -4.78728956029138 1.44782261614232 4.67745081887215
    vertex -5.78094428164151 1.56146048529936 5.19930340257706
    vertex -4.78939445044334 1.43173411076098 5.19930340257706
  endloop
endfacet
facet normal -0.991549831198173 0.129726374538386 7.13283606457776e-017
  outer loop
    vertex -4.77390607516975 1.55011786998274 5.7075737887608
    vertex -4.78728956029138 1.44782261614232 4.67745081887215
    vertex -4.78939445044334 1.43173411076098 5.19930340257706
  endloop
endfacet
facet normal -0.991549831198173 0.129726374538386 7.13283606457776e-017
  outer loop
    vertex -4.78728956029138 1.44782261614232 4.67745081887215
    vertex -4.77390607516975 1.55011786998274 5.7075737887608
    vertex -4.76773484949924 1.59728698107253 4.17757942882337
  endloop
endfacet
facet normal -0.991549831198173 0.129726374538386 7.13283606457776e-017
  outer loop
    vertex -4.76773484949924 1.59728698107253 4.17757942882337
    vertex -4.77390607516975 1.55011786998274 5.7075737887608
    vertex -4.74187994164975 1.79490623625504 6.16762419056146
  endloop
endfacet
facet normal -0.991549831198173 0.129726374538386 7.13283606457776e-017
  outer loop
    vertex -4.76773484949924 1.59728698107253 4.17757942882337
    vertex -4.74187994164975 1.79490623625504 6.16762419056146
    vertex -4.7320629392917 1.86994145608317 3.73375464158603
  endloop
endfacet
facet normal -0.991549831198173 0.129726374538386 7.13283606457776e-017
  outer loop
    vertex -4.7320629392917 1.86994145608317 3.73375464158603
    vertex -4.74187994164975 1.79490623625504 6.16762419056146
    vertex -4.69549857795705 2.14941728694834 6.54810293336557
  endloop
endfacet
facet normal -0.991549831198173 0.129726374538386 7.13283606457776e-017
  outer loop
    vertex -4.7320629392917 1.86994145608317 3.73375464158603
    vertex -4.69549857795705 2.14941728694834 6.54810293336557
    vertex -4.68270481139881 2.24720508928507 3.3762223829552
  endloop
endfacet
facet normal -0.991549831198173 0.129726374538386 7.13283606457776e-017
  outer loop
    vertex -4.68270481139881 2.24720508928507 3.3762223829552
    vertex -4.69549857795705 2.14941728694834 6.54810293336557
    vertex -4.63792279737848 2.5894916798151 6.82308101962187
  endloop
endfacet
facet normal -0.991549831198173 0.129726374538386 7.13283606457776e-017
  outer loop
    vertex -4.68270481139881 2.24720508928507 3.3762223829552
    vertex -4.63792279737848 2.5894916798151 6.82308101962187
    vertex -4.62302414066828 2.70336798753316 3.12934788550658
  endloop
endfacet
facet normal -0.991549831198173 0.129726374538386 7.13283606457776e-017
  outer loop
    vertex -4.62302414066828 2.70336798753316 3.12934788550658
    vertex -4.63792279737848 2.5894916798151 6.82308101962187
    vertex -4.57307629421199 3.08513907223876 6.97381914717477
  endloop
endfacet
facet normal -0.991549831198173 0.129726374538386 7.13283606457776e-017
  outer loop
    vertex -4.62302414066828 2.70336798753316 3.12934788550658
    vertex -4.57307629421199 3.08513907223876 6.97381914717477
    vertex -4.55708806618344 3.20734340315668 3.00995523826191
  endloop
endfacet
facet normal -0.991549831198173 0.129726374538386 7.13283606457776e-017
  outer loop
    vertex -4.55708806618344 3.20734340315668 3.00995523826191
    vertex -4.57307629421199 3.08513907223876 6.97381914717477
    vertex -4.53123315833395 3.40496265833919 6.98384795388018
  endloop
endfacet
facet normal -0.991549831198173 0.129726374538386 7.13283606457776e-017
  outer loop
    vertex -4.55708806618344 3.20734340315668 3.00995523826191
    vertex -4.53123315833395 3.40496265833919 6.98384795388018
    vertex -4.53123315833395 3.40496265833919 3.01615204611982
  endloop
endfacet
facet normal -0.00403154745448976 -0.0308147068180333 0.99951698358199
  outer loop
    vertex -4.53123315833395 3.40496265833919 3.01615204611982
    vertex -5.48093985365408 3.854512618978 3.02618085282523
    vertex -5.52278298953212 3.53468903287757 3.01615204611982
  endloop
endfacet
facet normal -0.0209215679390206 -0.159911793050215 0.986909573587387
  outer loop
    vertex -5.48093985365408 3.854512618978 3.02618085282523
    vertex -4.53123315833395 3.40496265833919 3.01615204611982
    vertex -4.48939002245591 3.72478624443962 3.02618085282523
  endloop
endfacet
facet normal -0.0209215679390206 -0.159911793050215 0.986909573587387
  outer loop
    vertex -4.48939002245591 3.72478624443962 3.02618085282523
    vertex -5.41609335048759 4.35016001140167 3.17691898037813
    vertex -5.48093985365408 3.854512618978 3.02618085282523
  endloop
endfacet
facet normal -0.0533448195222664 -0.407735489262046 0.911540509810934
  outer loop
    vertex -5.41609335048759 4.35016001140167 3.17691898037813
    vertex -4.48939002245591 3.72478624443962 3.02618085282523
    vertex -4.42454351928942 4.22043363686328 3.17691898037813
  endloop
endfacet
facet normal -0.0533448195222664 -0.407735489262046 0.911540509810934
  outer loop
    vertex -4.42454351928942 4.22043363686328 3.17691898037813
    vertex -5.35851756990902 4.79023440426842 3.45189706663444
    vertex -5.41609335048759 4.35016001140167 3.17691898037813
  endloop
endfacet
facet normal -0.0821327098115522 -0.627772685695423 0.774051466682782
  outer loop
    vertex -5.35851756990902 4.79023440426842 3.45189706663444
    vertex -4.42454351928942 4.22043363686328 3.17691898037813
    vertex -4.36696773871084 4.66050802973003 3.45189706663444
  endloop
endfacet
facet normal -0.105323391657901 -0.805028211042073 0.58381209528073
  outer loop
    vertex -4.32058637501815 5.01501908042333 3.83237580943854
    vertex -5.35851756990902 4.79023440426842 3.45189706663444
    vertex -4.36696773871084 4.66050802973003 3.45189706663444
  endloop
endfacet
facet normal -0.0821327098115522 -0.627772685695423 0.774051466682782
  outer loop
    vertex -5.35851756990902 4.79023440426842 3.45189706663444
    vertex -4.32058637501815 5.01501908042333 3.83237580943854
    vertex -5.31213620621632 5.14474545496172 3.83237580943854
  endloop
endfacet
facet normal -0.121336458417899 -0.927422394178226 0.3537868943804
  outer loop
    vertex -4.28856024149815 5.25980744669564 4.2924262112392
    vertex -5.31213620621632 5.14474545496172 3.83237580943854
    vertex -4.32058637501815 5.01501908042333 3.83237580943854
  endloop
endfacet
facet normal -0.105323391657901 -0.805028211042073 0.58381209528073
  outer loop
    vertex -5.31213620621632 5.14474545496172 3.83237580943854
    vertex -4.28856024149815 5.25980744669564 4.2924262112392
    vertex -5.28011007269633 5.38953382123403 4.2924262112392
  endloop
endfacet
facet normal -0.129080646054695 -0.986614273789105 0.0996517012885331
  outer loop
    vertex -4.27307186622456 5.3781912059174 4.80069659742293
    vertex -5.28011007269633 5.38953382123403 4.2924262112392
    vertex -4.28856024149815 5.25980744669564 4.2924262112392
  endloop
endfacet
facet normal -0.121336458417899 -0.927422394178226 0.3537868943804
  outer loop
    vertex -5.28011007269633 5.38953382123403 4.2924262112392
    vertex -4.27307186622456 5.3781912059174 4.80069659742293
    vertex -5.26462169742273 5.50791758045578 4.80069659742293
  endloop
endfacet
facet normal -0.128028200978717 -0.978570021098435 -0.161274590563925
  outer loop
    vertex -4.27517675637652 5.36210270053606 5.32254918112785
    vertex -5.26462169742273 5.50791758045578 4.80069659742293
    vertex -4.27307186622456 5.3781912059174 4.80069659742293
  endloop
endfacet
facet normal -0.129080646054695 -0.986614273789105 0.099651701288533
  outer loop
    vertex -5.26462169742273 5.50791758045578 4.80069659742293
    vertex -4.27517675637652 5.36210270053606 5.32254918112785
    vertex -5.26672658757469 5.49182907507445 5.32254918112785
  endloop
endfacet
facet normal -0.118250845582645 -0.903837838633329 -0.411210285588313
  outer loop
    vertex -4.29473146716866 5.21263833560585 5.82242057117663
    vertex -5.26672658757469 5.49182907507445 5.32254918112785
    vertex -4.27517675637652 5.36210270053606 5.32254918112785
  endloop
endfacet
facet normal -0.128028200978717 -0.978570021098435 -0.161274590563925
  outer loop
    vertex -5.26672658757469 5.49182907507445 5.32254918112785
    vertex -4.29473146716866 5.21263833560585 5.82242057117663
    vertex -5.28628129836683 5.34236471014423 5.82242057117663
  endloop
endfacet
facet normal -0.100414890478878 -0.767510601128012 -0.633122679206987
  outer loop
    vertex -4.33040337737619 4.93998386059521 6.26624535841397
    vertex -5.28628129836683 5.34236471014423 5.82242057117663
    vertex -4.29473146716866 5.21263833560585 5.82242057117663
  endloop
endfacet
facet normal -0.118250845582645 -0.903837838633329 -0.411210285588313
  outer loop
    vertex -5.28628129836683 5.34236471014423 5.82242057117663
    vertex -4.33040337737619 4.93998386059521 6.26624535841397
    vertex -5.32195320857437 5.0697102351336 6.26624535841397
  endloop
endfacet
facet normal -0.100414890478878 -0.767510601128012 -0.633122679206987
  outer loop
    vertex -5.32195320857437 5.0697102351336 6.26624535841397
    vertex -4.37976150526909 4.56272022739331 6.6237776170448
    vertex -5.37131133646727 4.69244660193169 6.6237776170448
  endloop
endfacet
facet normal -0.0757358265324282 -0.57887878452706 -0.811888808522401
  outer loop
    vertex -4.37976150526909 4.56272022739331 6.6237776170448
    vertex -5.32195320857437 5.0697102351336 6.26624535841397
    vertex -4.33040337737619 4.93998386059521 6.26624535841397
  endloop
endfacet
facet normal -0.0757358265324282 -0.57887878452706 -0.811888808522401
  outer loop
    vertex -5.37131133646727 4.69244660193169 6.6237776170448
    vertex -4.43944217599962 4.10655732914521 6.87065211449342
    vertex -5.43099200719779 4.2362837036836 6.87065211449342
  endloop
endfacet
facet normal -0.0458954911671645 -0.350797335403012 -0.935326057246708
  outer loop
    vertex -4.43944217599962 4.10655732914521 6.87065211449342
    vertex -5.37131133646727 4.69244660193169 6.6237776170448
    vertex -4.37976150526909 4.56272022739331 6.6237776170448
  endloop
endfacet
facet normal -0.0458954911671645 -0.350797335403012 -0.935326057246708
  outer loop
    vertex -5.43099200719779 4.2362837036836 6.87065211449342
    vertex -4.50537825048446 3.6025819135217 6.99004476173809
    vertex -5.49692808168263 3.73230828806009 6.99004476173809
  endloop
endfacet
facet normal -0.0129274539247438 -0.0988096275912563 -0.995022380869044
  outer loop
    vertex -4.50537825048446 3.6025819135217 6.99004476173809
    vertex -5.43099200719779 4.2362837036836 6.87065211449342
    vertex -4.43944217599962 4.10655732914521 6.87065211449342
  endloop
endfacet
facet normal -0.0129274539247437 -0.0988096275912561 -0.995022380869044
  outer loop
    vertex -5.49692808168263 3.73230828806009 6.99004476173809
    vertex -4.53123315833395 3.40496265833919 6.98384795388018
    vertex -5.52278298953212 3.53468903287757 6.98384795388018
  endloop
endfacet
facet normal 0.00403154745448942 0.0308147068180307 -0.999516983581991
  outer loop
    vertex -4.53123315833395 3.40496265833919 6.98384795388018
    vertex -5.49692808168263 3.73230828806009 6.99004476173809
    vertex -4.50537825048446 3.6025819135217 6.99004476173809
  endloop
endfacet
facet normal -0.991549831198173 0.129726374538386 1.61934656601225e-016
  outer loop
    vertex -4.50537825048446 3.6025819135217 6.99004476173809
    vertex -4.53123315833395 3.40496265833919 3.01615204611982
    vertex -4.53123315833395 3.40496265833919 6.98384795388018
  endloop
endfacet
facet normal -0.991549831198173 0.129726374538386 1.61934656601225e-016
  outer loop
    vertex -4.53123315833395 3.40496265833919 3.01615204611982
    vertex -4.50537825048446 3.6025819135217 6.99004476173809
    vertex -4.48939002245591 3.72478624443962 3.02618085282523
  endloop
endfacet
facet normal -0.991549831198173 0.129726374538386 1.61934656601225e-016
  outer loop
    vertex -4.48939002245591 3.72478624443962 3.02618085282523
    vertex -4.50537825048446 3.6025819135217 6.99004476173809
    vertex -4.43944217599962 4.10655732914521 6.87065211449342
  endloop
endfacet
facet normal -0.991549831198173 0.129726374538386 1.61934656601225e-016
  outer loop
    vertex -4.48939002245591 3.72478624443962 3.02618085282523
    vertex -4.43944217599962 4.10655732914521 6.87065211449342
    vertex -4.42454351928942 4.22043363686328 3.17691898037813
  endloop
endfacet
facet normal -0.991549831198173 0.129726374538386 1.61934656601225e-016
  outer loop
    vertex -4.42454351928942 4.22043363686328 3.17691898037813
    vertex -4.43944217599962 4.10655732914521 6.87065211449342
    vertex -4.37976150526909 4.56272022739331 6.6237776170448
  endloop
endfacet
facet normal -0.991549831198173 0.129726374538386 1.61934656601225e-016
  outer loop
    vertex -4.42454351928942 4.22043363686328 3.17691898037813
    vertex -4.37976150526909 4.56272022739331 6.6237776170448
    vertex -4.36696773871084 4.66050802973003 3.45189706663444
  endloop
endfacet
facet normal -0.991549831198173 0.129726374538386 1.61934656601225e-016
  outer loop
    vertex -4.36696773871084 4.66050802973003 3.45189706663444
    vertex -4.37976150526909 4.56272022739331 6.6237776170448
    vertex -4.33040337737619 4.93998386059521 6.26624535841397
  endloop
endfacet
facet normal -0.991549831198173 0.129726374538386 1.61934656601225e-016
  outer loop
    vertex -4.36696773871084 4.66050802973003 3.45189706663444
    vertex -4.33040337737619 4.93998386059521 6.26624535841397
    vertex -4.32058637501815 5.01501908042333 3.83237580943854
  endloop
endfacet
facet normal -0.991549831198173 0.129726374538386 1.61934656601225e-016
  outer loop
    vertex -4.32058637501815 5.01501908042333 3.83237580943854
    vertex -4.33040337737619 4.93998386059521 6.26624535841397
    vertex -4.29473146716866 5.21263833560585 5.82242057117663
  endloop
endfacet
facet normal -0.991549831198173 0.129726374538386 1.61934656601225e-016
  outer loop
    vertex -4.32058637501815 5.01501908042333 3.83237580943854
    vertex -4.29473146716866 5.21263833560585 5.82242057117663
    vertex -4.28856024149815 5.25980744669564 4.2924262112392
  endloop
endfacet
facet normal -0.991549831198173 0.129726374538386 1.61934656601225e-016
  outer loop
    vertex -4.28856024149815 5.25980744669564 4.2924262112392
    vertex -4.29473146716866 5.21263833560585 5.82242057117663
    vertex -4.27517675637652 5.36210270053606 5.32254918112785
  endloop
endfacet
facet normal -0.991549831198173 0.129726374538386 1.61934656601225e-016
  outer loop
    vertex -4.28856024149815 5.25980744669564 4.2924262112392
    vertex -4.27517675637652 5.36210270053606 5.32254918112785
    vertex -4.27307186622456 5.3781912059174 4.80069659742293
  endloop
endfacet
facet normal -1.48492978789437e-031 -1.07072603175613e-032 1.0
  outer loop
    vertex -2.90795556074919 -5.24821821732937 10.0
    vertex -3.5 7.04991620636974e-016 10.0
    vertex -4.1672082053274 -4.31675523668554 10.0
  endloop
endfacet
facet normal -1.48492978789437e-031 -1.07072603175613e-032 1.0
  outer loop
    vertex -3.5 7.04991620636974e-016 10.0
    vertex -2.90795556074919 -5.24821821732937 10.0
    vertex -3.38074039201174 -0.905866657858821 10.0
  endloop
endfacet
facet normal -1.48492978789437e-031 -1.07072603175613e-032 1.0
  outer loop
    vertex -3.38074039201174 -0.905866657858821 10.0
    vertex -2.90795556074919 -5.24821821732937 10.0
    vertex -3.03108891324554 -1.75 10.0
  endloop
endfacet
facet normal -1.48492978789437e-031 -1.07072603175613e-032 1.0
  outer loop
    vertex -3.03108891324554 -1.75 10.0
    vertex -2.90795556074919 -5.24821821732937 10.0
    vertex -2.47487373415292 -2.47487373415291 10.0
  endloop
endfacet
facet normal -1.48492978789437e-031 -1.07072603175613e-032 1.0
  outer loop
    vertex -2.47487373415292 -2.47487373415291 10.0
    vertex -2.90795556074919 -5.24821821732937 10.0
    vertex -1.45053055032972 -5.82202379955288 10.0
  endloop
endfacet
facet normal -1.48492978789437e-031 -1.07072603175613e-032 1.0
  outer loop
    vertex -2.47487373415292 -2.47487373415291 10.0
    vertex -1.45053055032972 -5.82202379955288 10.0
    vertex -1.75 -3.03108891324553 10.0
  endloop
endfacet
facet normal -1.48492978789437e-031 -1.07072603175613e-032 1.0
  outer loop
    vertex -1.75 -3.03108891324553 10.0
    vertex -1.45053055032972 -5.82202379955288 10.0
    vertex -0.905866657858825 -3.38074039201174 10.0
  endloop
endfacet
facet normal -1.48492978789437e-031 -1.07072603175613e-032 1.0
  outer loop
    vertex -0.905866657858825 -3.38074039201174 10.0
    vertex -1.45053055032972 -5.82202379955288 10.0
    vertex 0.105745719979658 -5.99906808118611 10.0
  endloop
endfacet
facet normal -1.48492978789437e-031 -1.07072603175613e-032 1.0
  outer loop
    vertex -0.905866657858825 -3.38074039201174 10.0
    vertex 0.105745719979658 -5.99906808118611 10.0
    vertex -7.04991620636974e-016 -3.5 10.0
  endloop
endfacet
facet normal -1.48492978789437e-031 -1.07072603175613e-032 1.0
  outer loop
    vertex -7.04991620636974e-016 -3.5 10.0
    vertex 0.105745719979658 -5.99906808118611 10.0
    vertex 0.90586665785882 -3.38074039201174 10.0
  endloop
endfacet
facet normal -1.48492978789437e-031 -1.07072603175613e-032 1.0
  outer loop
    vertex 0.90586665785882 -3.38074039201174 10.0
    vertex 0.105745719979658 -5.99906808118611 10.0
    vertex 1.65481559422549 -5.76728578701525 10.0
  endloop
endfacet
facet normal -1.48492978789437e-031 -1.07072603175613e-032 1.0
  outer loop
    vertex 0.90586665785882 -3.38074039201174 10.0
    vertex 1.65481559422549 -5.76728578701525 10.0
    vertex 1.75 -3.03108891324554 10.0
  endloop
endfacet
facet normal -1.48492978789437e-031 -1.07072603175613e-032 1.0
  outer loop
    vertex 1.75 -3.03108891324554 10.0
    vertex 1.65481559422549 -5.76728578701525 10.0
    vertex 3.09111252043692 -5.14247249734971 10.0
  endloop
endfacet
facet normal -1.48492978789437e-031 -1.07072603175613e-032 1.0
  outer loop
    vertex 1.75 -3.03108891324554 10.0
    vertex 3.09111252043692 -5.14247249734971 10.0
    vertex 2.47487373415292 -2.47487373415292 10.0
  endloop
endfacet
facet normal -1.48492978789437e-031 -1.07072603175613e-032 1.0
  outer loop
    vertex 2.47487373415292 -2.47487373415292 10.0
    vertex 3.09111252043692 -5.14247249734971 10.0
    vertex 3.03108891324553 -1.75 10.0
  endloop
endfacet
facet normal -1.48492978789437e-031 -1.07072603175613e-032 1.0
  outer loop
    vertex 3.03108891324553 -1.75 10.0
    vertex 3.09111252043692 -5.14247249734971 10.0
    vertex 3.38074039201174 -0.905866657858825 10.0
  endloop
endfacet
facet normal -1.48492978789437e-031 -1.07072603175613e-032 1.0
  outer loop
    vertex 3.38074039201174 -0.905866657858825 10.0
    vertex 3.09111252043692 -5.14247249734971 10.0
    vertex 4.31675523668554 -4.1672082053274 10.0
  endloop
endfacet
facet normal -1.48492978789437e-031 -1.07072603175613e-032 1.0
  outer loop
    vertex 3.38074039201174 -0.905866657858825 10.0
    vertex 4.31675523668554 -4.1672082053274 10.0
    vertex 3.5 0.0 10.0
  endloop
endfacet
facet normal -1.48492978789437e-031 -1.07072603175613e-032 1.0
  outer loop
    vertex 2.53140053585424 1.73234991501295 10.0
    vertex 2.66832786573033 12.0200626850608 10.0
    vertex 2.16863948833903 12.0024126000738 10.0
  endloop
endfacet
facet normal -1.48492978789437e-031 -1.07072603175613e-032 1.0
  outer loop
    vertex 2.66832786573033 12.0200626850608 10.0
    vertex 2.53140053585424 1.73234991501295 10.0
    vertex 3.03108891324554 1.75 10.0
  endloop
endfacet
facet normal -1.48492978789437e-031 -1.07072603175613e-032 1.0
  outer loop
    vertex 2.66832786573033 12.0200626850608 10.0
    vertex 3.03108891324554 1.75 10.0
    vertex 4.42128457162508 12.0024126000738 10.0
  endloop
endfacet
facet normal -1.48492978789437e-031 -1.07072603175613e-032 1.0
  outer loop
    vertex 4.42128457162508 12.0024126000738 10.0
    vertex 3.03108891324554 1.75 10.0
    vertex 3.38074039201174 0.905866657858823 10.0
  endloop
endfacet
facet normal -1.48492978789437e-031 -1.07072603175613e-032 1.0
  outer loop
    vertex 4.42128457162508 12.0024126000738 10.0
    vertex 3.38074039201174 0.905866657858823 10.0
    vertex 3.5 0.0 10.0
  endloop
endfacet
facet normal -1.48492978789437e-031 -1.07072603175613e-032 1.0
  outer loop
    vertex 4.42128457162508 12.0024126000738 10.0
    vertex 3.5 0.0 10.0
    vertex 4.31675523668554 -4.1672082053274 10.0
  endloop
endfacet
facet normal -1.48492978789437e-031 -1.07072603175613e-032 1.0
  outer loop
    vertex 4.42128457162508 12.0024126000738 10.0
    vertex 4.31675523668554 -4.1672082053274 10.0
    vertex 5.24821821732937 -2.90795556074919 10.0
  endloop
endfacet
facet normal -1.48492978789437e-031 -1.07072603175613e-032 1.0
  outer loop
    vertex 4.42128457162508 12.0024126000738 10.0
    vertex 5.24821821732937 -2.90795556074919 10.0
    vertex 5.47317691636914 4.07102483786877 10.0
  endloop
endfacet
facet normal -1.48492978789437e-031 -1.07072603175613e-032 1.0
  outer loop
    vertex 5.47317691636914 4.07102483786877 10.0
    vertex 5.24821821732937 -2.90795556074919 10.0
    vertex 5.82202379955288 -1.45053055032972 10.0
  endloop
endfacet
facet normal -1.48492978789437e-031 -1.07072603175613e-032 1.0
  outer loop
    vertex 5.47317691636914 4.07102483786877 10.0
    vertex 5.82202379955288 -1.45053055032972 10.0
    vertex 5.73612249877762 2.08838527892421 10.0
  endloop
endfacet
facet normal -1.48492978789437e-031 -1.07072603175613e-032 1.0
  outer loop
    vertex 5.73612249877762 2.08838527892421 10.0
    vertex 5.82202379955288 -1.45053055032972 10.0
    vertex 5.99906808118611 0.105745719979658 10.0
  endloop
endfacet
facet normal -1.48492978789437e-031 -1.07072603175613e-032 1.0
  outer loop
    vertex -5.76728578701525 -1.65481559422549 10.0
    vertex -5.7822357386089 1.55158937048123 10.0
    vertex -5.99906808118611 -0.105745719979661 10.0
  endloop
endfacet
facet normal -1.48492978789437e-031 -1.07072603175613e-032 1.0
  outer loop
    vertex -5.7822357386089 1.55158937048123 10.0
    vertex -5.76728578701525 -1.65481559422549 10.0
    vertex -5.52278298953212 3.53468903287757 10.0
  endloop
endfacet
facet normal -1.48492978789437e-031 -1.07072603175613e-032 1.0
  outer loop
    vertex -5.52278298953212 3.53468903287757 10.0
    vertex -5.76728578701525 -1.65481559422549 10.0
    vertex -5.14247249734971 -3.09111252043692 10.0
  endloop
endfacet
facet normal -1.48492978789437e-031 -1.07072603175613e-032 1.0
  outer loop
    vertex -5.52278298953212 3.53468903287757 10.0
    vertex -5.14247249734971 -3.09111252043692 10.0
    vertex -4.46641882400976 11.6088968702172 10.0
  endloop
endfacet
facet normal -1.48492978789437e-031 -1.07072603175613e-032 1.0
  outer loop
    vertex -4.46641882400976 11.6088968702172 10.0
    vertex -5.14247249734971 -3.09111252043692 10.0
    vertex -4.1672082053274 -4.31675523668554 10.0
  endloop
endfacet
facet normal -1.48492978789437e-031 -1.07072603175613e-032 1.0
  outer loop
    vertex -4.46641882400976 11.6088968702172 10.0
    vertex -4.1672082053274 -4.31675523668554 10.0
    vertex -3.38074039201174 0.905866657858824 10.0
  endloop
endfacet
facet normal -1.48492978789437e-031 -1.07072603175613e-032 1.0
  outer loop
    vertex -4.46641882400976 11.6088968702172 10.0
    vertex -3.38074039201174 0.905866657858824 10.0
    vertex -1.68958805409904 11.6088968702172 10.0
  endloop
endfacet
facet normal -1.48492978789437e-031 -1.07072603175613e-032 1.0
  outer loop
    vertex -3.38074039201174 0.905866657858824 10.0
    vertex -4.1672082053274 -4.31675523668554 10.0
    vertex -3.5 7.04991620636974e-016 10.0
  endloop
endfacet
facet normal -1.48492978789437e-031 -1.07072603175613e-032 1.0
  outer loop
    vertex -1.68958805409904 11.6088968702172 10.0
    vertex -3.38074039201174 0.905866657858824 10.0
    vertex -3.03108891324553 1.75 10.0
  endloop
endfacet
facet normal -1.48492978789437e-031 -1.07072603175613e-032 1.0
  outer loop
    vertex -1.68958805409904 11.6088968702172 10.0
    vertex -3.03108891324553 1.75 10.0
    vertex -2.53289262435108 1.70756819905083 10.0
  endloop
endfacet
endsolid Untitled-540b6948
