solid xyz-y-carriage-left
facet normal -0.32782174948545 -0.944739594049227 0.0
  outer loop
    vertex -40.5429167817137 -222.454146065159 5.0
    vertex -40.9264470639745 -222.37516312847 0.0
    vertex -40.5429167817137 -222.454146065159 0.0
  endloop
endfacet
facet normal -0.0721348946449316 -0.997394885175658 0.0
  outer loop
    vertex -40.9264470639745 -222.37516312847 0.0
    vertex -40.5429167817137 -222.454146065159 5.0
    vertex -40.9264470639745 -222.37516312847 5.0
  endloop
endfacet
facet normal -0.561168093849625 -0.827701860844337 0.0
  outer loop
    vertex -40.1928972651674 -222.629702664967 5.0
    vertex -40.5429167817137 -222.454146065159 0.0
    vertex -40.1928972651674 -222.629702664967 0.0
  endloop
endfacet
facet normal -0.32782174948545 -0.944739594049227 0.0
  outer loop
    vertex -40.5429167817137 -222.454146065159 0.0
    vertex -40.1928972651674 -222.629702664967 5.0
    vertex -40.5429167817137 -222.454146065159 5.0
  endloop
endfacet
facet normal -0.756271759992074 -0.654257613664901 0.0
  outer loop
    vertex -39.9002417659538 -222.889869035736 5.0
    vertex -40.1928972651674 -222.629702664967 0.0
    vertex -39.9002417659538 -222.889869035736 0.0
  endloop
endfacet
facet normal -0.561168093849625 -0.827701860844337 0.0
  outer loop
    vertex -40.1928972651674 -222.629702664967 0.0
    vertex -39.9002417659538 -222.889869035736 5.0
    vertex -40.1928972651674 -222.629702664967 5.0
  endloop
endfacet
facet normal -0.756271759992074 -0.654257613664901 0.0
  outer loop
    vertex -39.9002417659538 -222.889869035736 5.0
    vertex -39.684894272708 -223.216915269244 0.0
    vertex -39.684894272708 -223.216915269244 5.0
  endloop
endfacet
facet normal -0.89983675548924 -0.436226791326023 0.0
  outer loop
    vertex -39.684894272708 -223.216915269244 0.0
    vertex -39.9002417659538 -222.889869035736 5.0
    vertex -39.9002417659538 -222.889869035736 0.0
  endloop
endfacet
facet normal -0.89983675548924 -0.436226791326023 0.0
  outer loop
    vertex -39.684894272708 -223.216915269244 5.0
    vertex -39.5615303612163 -223.588553705147 0.0
    vertex -39.5615303612163 -223.588553705147 5.0
  endloop
endfacet
facet normal -0.982079363150359 -0.188467834057127 0.0
  outer loop
    vertex -39.5615303612163 -223.588553705147 0.0
    vertex -39.684894272708 -223.216915269244 5.0
    vertex -39.684894272708 -223.216915269244 0.0
  endloop
endfacet
facet normal -0.982079363150359 -0.188467834057127 0.0
  outer loop
    vertex -39.5615303612163 -223.588553705147 5.0
    vertex -39.5385570781784 -223.979457798201 0.0
    vertex -39.5385570781784 -223.979457798201 5.0
  endloop
endfacet
facet normal -0.99739488517566 0.0721348946449113 0.0
  outer loop
    vertex -39.5385570781784 -223.979457798201 0.0
    vertex -39.5615303612163 -223.588553705147 5.0
    vertex -39.5615303612163 -223.588553705147 0.0
  endloop
endfacet
facet normal -0.99739488517566 0.0721348946449113 0.0
  outer loop
    vertex -39.5385570781784 -223.979457798201 5.0
    vertex -39.617540014868 -224.362988080461 0.0
    vertex -39.617540014868 -224.362988080461 5.0
  endloop
endfacet
facet normal -0.944739594049225 0.327821749485457 0.0
  outer loop
    vertex -39.617540014868 -224.362988080461 0.0
    vertex -39.5385570781784 -223.979457798201 5.0
    vertex -39.5385570781784 -223.979457798201 0.0
  endloop
endfacet
facet normal -0.944739594049225 0.327821749485457 0.0
  outer loop
    vertex -39.617540014868 -224.362988080461 5.0
    vertex -39.7930966146754 -224.713007597008 0.0
    vertex -39.7930966146754 -224.713007597008 5.0
  endloop
endfacet
facet normal -0.827701860844322 0.561168093849647 0.0
  outer loop
    vertex -39.7930966146754 -224.713007597008 0.0
    vertex -39.617540014868 -224.362988080461 5.0
    vertex -39.617540014868 -224.362988080461 0.0
  endloop
endfacet
facet normal -0.827701860844322 0.561168093849647 0.0
  outer loop
    vertex -39.7930966146754 -224.713007597008 5.0
    vertex -40.0532629854445 -225.005663096221 0.0
    vertex -40.0532629854445 -225.005663096221 5.0
  endloop
endfacet
facet normal -0.654257613664887 0.756271759992086 0.0
  outer loop
    vertex -40.0532629854445 -225.005663096221 0.0
    vertex -39.7930966146754 -224.713007597008 5.0
    vertex -39.7930966146754 -224.713007597008 0.0
  endloop
endfacet
facet normal 0.828260527373175 -0.560343197331342 0.0
  outer loop
    vertex -34.4085651869565 -228.354001034884 0.0
    vertex -35.7945634617614 -229.916211973662 5.0
    vertex -35.7945634617614 -229.916211973662 0.0
  endloop
endfacet
facet normal 0.655010743022567 -0.755619564678565 0.0
  outer loop
    vertex -35.7945634617614 -229.916211973662 5.0
    vertex -34.4085651869565 -228.354001034884 0.0
    vertex -34.4085651869565 -228.354001034884 5.0
  endloop
endfacet
facet normal 0.899401707413326 0.437123058991395 0.0
  outer loop
    vertex -33.8394357466353 -220.374270984302 0.0
    vertex -33.1795205249862 -222.355686169273 5.0
    vertex -33.1795205249862 -222.355686169273 0.0
  endloop
endfacet
facet normal 0.981891110119461 0.189446160869977 0.0
  outer loop
    vertex -33.1795205249862 -222.355686169273 5.0
    vertex -33.8394357466353 -220.374270984302 0.0
    vertex -33.8394357466353 -220.374270984302 5.0
  endloop
endfacet
facet normal -0.899401707413326 -0.437123058991395 0.0
  outer loop
    vertex -48.2298630652485 -227.368239928164 5.0
    vertex -47.0796059233704 -229.111341400414 0.0
    vertex -47.0796059233704 -229.111341400414 5.0
  endloop
endfacet
facet normal -0.755619564678569 -0.655010743022563 0.0
  outer loop
    vertex -47.0796059233704 -229.111341400414 0.0
    vertex -48.2298630652485 -227.368239928164 5.0
    vertex -48.2298630652485 -227.368239928164 0.0
  endloop
endfacet
facet normal 0.945065725548544 -0.326880367096901 0.0
  outer loop
    vertex -33.4741236015535 -226.486298393008 0.0
    vertex -34.4085651869565 -228.354001034884 5.0
    vertex -34.4085651869565 -228.354001034884 0.0
  endloop
endfacet
facet normal 0.828260527373175 -0.560343197331342 0.0
  outer loop
    vertex -34.4085651869565 -228.354001034884 5.0
    vertex -33.4741236015535 -226.486298393008 0.0
    vertex -33.4741236015535 -226.486298393008 5.0
  endloop
endfacet
facet normal 0.437123058991395 -0.899401707413325 0.0
  outer loop
    vertex -37.5376649340107 -231.06646911554 5.0
    vertex -39.5190801189821 -231.726384337189 0.0
    vertex -37.5376649340107 -231.06646911554 0.0
  endloop
endfacet
facet normal 0.189446160869971 -0.981891110119462 0.0
  outer loop
    vertex -39.5190801189821 -231.726384337189 0.0
    vertex -37.5376649340107 -231.06646911554 5.0
    vertex -39.5190801189821 -231.726384337189 5.0
  endloop
endfacet
facet normal 0.827701860844322 -0.561168093849647 0.0
  outer loop
    vertex -42.2762021972084 -223.029503315459 0.0
    vertex -42.4517587970157 -223.379522832005 5.0
    vertex -42.4517587970157 -223.379522832005 0.0
  endloop
endfacet
facet normal 0.944739594049225 -0.327821749485457 0.0
  outer loop
    vertex -42.4517587970157 -223.379522832005 5.0
    vertex -42.2762021972084 -223.029503315459 0.0
    vertex -42.2762021972084 -223.029503315459 5.0
  endloop
endfacet
facet normal -0.560343197331343 -0.828260527373174 0.0
  outer loop
    vertex -45.5173949845926 -230.497339675219 5.0
    vertex -47.0796059233704 -229.111341400414 0.0
    vertex -45.5173949845926 -230.497339675219 0.0
  endloop
endfacet
facet normal -0.755619564678569 -0.655010743022563 0.0
  outer loop
    vertex -47.0796059233704 -229.111341400414 0.0
    vertex -45.5173949845926 -230.497339675219 5.0
    vertex -47.0796059233704 -229.111341400414 5.0
  endloop
endfacet
facet normal -0.326880367096903 -0.945065725548543 0.0
  outer loop
    vertex -43.6496923427171 -231.431781260622 5.0
    vertex -45.5173949845926 -230.497339675219 0.0
    vertex -43.6496923427171 -231.431781260622 0.0
  endloop
endfacet
facet normal -0.560343197331343 -0.828260527373174 0.0
  outer loop
    vertex -45.5173949845926 -230.497339675219 0.0
    vertex -43.6496923427171 -231.431781260622 5.0
    vertex -45.5173949845926 -230.497339675219 5.0
  endloop
endfacet
facet normal 0.436226791326026 -0.899836755489238 0.0
  outer loop
    vertex -41.6889895929309 -222.521500322999 5.0
    vertex -42.0160358264392 -222.736847816245 0.0
    vertex -41.6889895929309 -222.521500322999 0.0
  endloop
endfacet
facet normal 0.654257613664887 -0.756271759992086 0.0
  outer loop
    vertex -42.0160358264392 -222.736847816245 0.0
    vertex -41.6889895929309 -222.521500322999 5.0
    vertex -42.0160358264392 -222.736847816245 5.0
  endloop
endfacet
facet normal 0.981891110119461 0.189446160869977 0.0
  outer loop
    vertex -33.1795205249862 -222.355686169273 0.0
    vertex -33.05491935536 -224.440384896554 5.0
    vertex -33.05491935536 -224.440384896554 0.0
  endloop
endfacet
facet normal 0.997466256322736 -0.0711411800401485 0.0
  outer loop
    vertex -33.05491935536 -224.440384896554 5.0
    vertex -33.1795205249862 -222.355686169273 0.0
    vertex -33.1795205249862 -222.355686169273 5.0
  endloop
endfacet
facet normal 0.655010743022567 -0.755619564678565 0.0
  outer loop
    vertex -35.7945634617614 -229.916211973662 5.0
    vertex -37.5376649340107 -231.06646911554 0.0
    vertex -35.7945634617614 -229.916211973662 0.0
  endloop
endfacet
facet normal 0.437123058991395 -0.899401707413325 0.0
  outer loop
    vertex -37.5376649340107 -231.06646911554 0.0
    vertex -35.7945634617614 -229.916211973662 5.0
    vertex -37.5376649340107 -231.06646911554 5.0
  endloop
endfacet
facet normal 0.997466256322736 -0.0711411800401485 0.0
  outer loop
    vertex -33.05491935536 -224.440384896554 0.0
    vertex -33.4741236015535 -226.486298393008 5.0
    vertex -33.4741236015535 -226.486298393008 0.0
  endloop
endfacet
facet normal 0.945065725548544 -0.326880367096901 0.0
  outer loop
    vertex -33.4741236015535 -226.486298393008 5.0
    vertex -33.05491935536 -224.440384896554 0.0
    vertex -33.05491935536 -224.440384896554 5.0
  endloop
endfacet
facet normal 0.0 0.0 -1.0
  outer loop
    vertex -42.5502186929017 -216.016126575277 0.0
    vertex -42.4517587970157 -223.379522832005 0.0
    vertex -42.5307417337054 -223.763053114266 0.0
  endloop
endfacet
facet normal 0.0 0.0 -1.0
  outer loop
    vertex -42.4517587970157 -223.379522832005 0.0
    vertex -42.5502186929017 -216.016126575277 0.0
    vertex -40.4655199656207 -215.891525405651 0.0
  endloop
endfacet
facet normal 0.0 0.0 -1.0
  outer loop
    vertex -42.4517587970157 -223.379522832005 0.0
    vertex -40.4655199656207 -215.891525405651 0.0
    vertex -42.2762021972084 -223.029503315459 0.0
  endloop
endfacet
facet normal 0.0 0.0 -1.0
  outer loop
    vertex -42.2762021972084 -223.029503315459 0.0
    vertex -40.4655199656207 -215.891525405651 0.0
    vertex -42.0160358264392 -222.736847816245 0.0
  endloop
endfacet
facet normal 0.0 0.0 -1.0
  outer loop
    vertex -42.0160358264392 -222.736847816245 0.0
    vertex -40.4655199656207 -215.891525405651 0.0
    vertex -41.6889895929309 -222.521500322999 0.0
  endloop
endfacet
facet normal 0.0 0.0 -1.0
  outer loop
    vertex -41.6889895929309 -222.521500322999 0.0
    vertex -40.4655199656207 -215.891525405651 0.0
    vertex -41.3173511570276 -222.398136411508 0.0
  endloop
endfacet
facet normal 0.0 0.0 -1.0
  outer loop
    vertex -41.3173511570276 -222.398136411508 0.0
    vertex -40.4655199656207 -215.891525405651 0.0
    vertex -40.9264470639745 -222.37516312847 0.0
  endloop
endfacet
facet normal 0.0 0.0 -1.0
  outer loop
    vertex -40.9264470639745 -222.37516312847 0.0
    vertex -40.4655199656207 -215.891525405651 0.0
    vertex -40.5429167817137 -222.454146065159 0.0
  endloop
endfacet
facet normal 0.0 0.0 -1.0
  outer loop
    vertex -40.5429167817137 -222.454146065159 0.0
    vertex -40.4655199656207 -215.891525405651 0.0
    vertex -40.1928972651674 -222.629702664967 0.0
  endloop
endfacet
facet normal 0.0 0.0 -1.0
  outer loop
    vertex -40.1928972651674 -222.629702664967 0.0
    vertex -40.4655199656207 -215.891525405651 0.0
    vertex -38.4196064691667 -216.310729651845 0.0
  endloop
endfacet
facet normal 0.0 0.0 -1.0
  outer loop
    vertex -40.1928972651674 -222.629702664967 0.0
    vertex -38.4196064691667 -216.310729651845 0.0
    vertex -39.9002417659538 -222.889869035736 0.0
  endloop
endfacet
facet normal 0.0 0.0 -1.0
  outer loop
    vertex -39.9002417659538 -222.889869035736 0.0
    vertex -38.4196064691667 -216.310729651845 0.0
    vertex -39.684894272708 -223.216915269244 0.0
  endloop
endfacet
facet normal 0.0 0.0 -1.0
  outer loop
    vertex -39.684894272708 -223.216915269244 0.0
    vertex -38.4196064691667 -216.310729651845 0.0
    vertex -39.5615303612163 -223.588553705147 0.0
  endloop
endfacet
facet normal 0.0 0.0 -1.0
  outer loop
    vertex -39.5615303612163 -223.588553705147 0.0
    vertex -38.4196064691667 -216.310729651845 0.0
    vertex -39.5385570781784 -223.979457798201 0.0
  endloop
endfacet
facet normal 0.0 0.0 -1.0
  outer loop
    vertex -39.5385570781784 -223.979457798201 0.0
    vertex -38.4196064691667 -216.310729651845 0.0
    vertex -39.5190801189821 -231.726384337189 0.0
  endloop
endfacet
facet normal 0.0 0.0 -1.0
  outer loop
    vertex -39.5190801189821 -231.726384337189 0.0
    vertex -38.4196064691667 -216.310729651845 0.0
    vertex -37.5376649340107 -231.06646911554 0.0
  endloop
endfacet
facet normal 0.0 0.0 -1.0
  outer loop
    vertex -37.5376649340107 -231.06646911554 0.0
    vertex -38.4196064691667 -216.310729651845 0.0
    vertex -36.5519038272911 -217.245171237248 0.0
  endloop
endfacet
facet normal 0.0 0.0 -1.0
  outer loop
    vertex -37.5376649340107 -231.06646911554 0.0
    vertex -36.5519038272911 -217.245171237248 0.0
    vertex -35.7945634617614 -229.916211973662 0.0
  endloop
endfacet
facet normal 0.0 0.0 -1.0
  outer loop
    vertex -35.7945634617614 -229.916211973662 0.0
    vertex -36.5519038272911 -217.245171237248 0.0
    vertex -34.9896928885133 -218.631169512053 0.0
  endloop
endfacet
facet normal 0.0 0.0 -1.0
  outer loop
    vertex -35.7945634617614 -229.916211973662 0.0
    vertex -34.9896928885133 -218.631169512053 0.0
    vertex -34.4085651869565 -228.354001034884 0.0
  endloop
endfacet
facet normal 0.0 0.0 -1.0
  outer loop
    vertex -34.4085651869565 -228.354001034884 0.0
    vertex -34.9896928885133 -218.631169512053 0.0
    vertex -33.8394357466353 -220.374270984302 0.0
  endloop
endfacet
facet normal 0.0 0.0 -1.0
  outer loop
    vertex -34.4085651869565 -228.354001034884 0.0
    vertex -33.8394357466353 -220.374270984302 0.0
    vertex -33.4741236015535 -226.486298393008 0.0
  endloop
endfacet
facet normal 0.0 0.0 -1.0
  outer loop
    vertex -33.4741236015535 -226.486298393008 0.0
    vertex -33.8394357466353 -220.374270984302 0.0
    vertex -33.1795205249862 -222.355686169273 0.0
  endloop
endfacet
facet normal 0.0 0.0 -1.0
  outer loop
    vertex -33.4741236015535 -226.486298393008 0.0
    vertex -33.1795205249862 -222.355686169273 0.0
    vertex -33.05491935536 -224.440384896554 0.0
  endloop
endfacet
facet normal 0.0 0.0 -1.0
  outer loop
    vertex -48.5951752103302 -221.256212519458 0.0
    vertex -48.8897782868976 -225.386824743193 0.0
    vertex -49.0143794565238 -223.302126015912 0.0
  endloop
endfacet
facet normal 0.0 0.0 -1.0
  outer loop
    vertex -48.8897782868976 -225.386824743193 0.0
    vertex -48.5951752103302 -221.256212519458 0.0
    vertex -48.2298630652485 -227.368239928164 0.0
  endloop
endfacet
facet normal 0.0 0.0 -1.0
  outer loop
    vertex -48.2298630652485 -227.368239928164 0.0
    vertex -48.5951752103302 -221.256212519458 0.0
    vertex -47.6607336249273 -219.388509877582 0.0
  endloop
endfacet
facet normal 0.0 0.0 -1.0
  outer loop
    vertex -48.2298630652485 -227.368239928164 0.0
    vertex -47.6607336249273 -219.388509877582 0.0
    vertex -47.0796059233704 -229.111341400414 0.0
  endloop
endfacet
facet normal 0.0 0.0 -1.0
  outer loop
    vertex -47.0796059233704 -229.111341400414 0.0
    vertex -47.6607336249273 -219.388509877582 0.0
    vertex -46.2747353501224 -217.826298938805 0.0
  endloop
endfacet
facet normal 0.0 0.0 -1.0
  outer loop
    vertex -47.0796059233704 -229.111341400414 0.0
    vertex -46.2747353501224 -217.826298938805 0.0
    vertex -45.5173949845926 -230.497339675219 0.0
  endloop
endfacet
facet normal 0.0 0.0 -1.0
  outer loop
    vertex -45.5173949845926 -230.497339675219 0.0
    vertex -46.2747353501224 -217.826298938805 0.0
    vertex -44.531633877873 -216.676041796927 0.0
  endloop
endfacet
facet normal 0.0 0.0 -1.0
  outer loop
    vertex -45.5173949845926 -230.497339675219 0.0
    vertex -44.531633877873 -216.676041796927 0.0
    vertex -43.6496923427171 -231.431781260622 0.0
  endloop
endfacet
facet normal 0.0 0.0 -1.0
  outer loop
    vertex -43.6496923427171 -231.431781260622 0.0
    vertex -44.531633877873 -216.676041796927 0.0
    vertex -42.5502186929017 -216.016126575277 0.0
  endloop
endfacet
facet normal 0.0 0.0 -1.0
  outer loop
    vertex -43.6496923427171 -231.431781260622 0.0
    vertex -42.5502186929017 -216.016126575277 0.0
    vertex -42.5307417337054 -223.763053114266 0.0
  endloop
endfacet
facet normal 0.0 0.0 -1.0
  outer loop
    vertex -43.6496923427171 -231.431781260622 0.0
    vertex -42.5307417337054 -223.763053114266 0.0
    vertex -42.5077684506674 -224.153957207319 0.0
  endloop
endfacet
facet normal 0.0 0.0 -1.0
  outer loop
    vertex -43.6496923427171 -231.431781260622 0.0
    vertex -42.5077684506674 -224.153957207319 0.0
    vertex -41.6037788462631 -231.850985506815 0.0
  endloop
endfacet
facet normal 0.0 0.0 -1.0
  outer loop
    vertex -41.6037788462631 -231.850985506815 0.0
    vertex -42.5077684506674 -224.153957207319 0.0
    vertex -42.3844045391757 -224.525595643222 0.0
  endloop
endfacet
facet normal 0.0 0.0 -1.0
  outer loop
    vertex -41.6037788462631 -231.850985506815 0.0
    vertex -42.3844045391757 -224.525595643222 0.0
    vertex -42.16905704593 -224.852641876731 0.0
  endloop
endfacet
facet normal 0.0 0.0 -1.0
  outer loop
    vertex -41.6037788462631 -231.850985506815 0.0
    vertex -42.16905704593 -224.852641876731 0.0
    vertex -41.8764015467163 -225.1128082475 0.0
  endloop
endfacet
facet normal 0.0 0.0 -1.0
  outer loop
    vertex -41.6037788462631 -231.850985506815 0.0
    vertex -41.8764015467163 -225.1128082475 0.0
    vertex -41.5263820301701 -225.288364847307 0.0
  endloop
endfacet
facet normal 0.0 0.0 -1.0
  outer loop
    vertex -41.6037788462631 -231.850985506815 0.0
    vertex -41.5263820301701 -225.288364847307 0.0
    vertex -39.5190801189821 -231.726384337189 0.0
  endloop
endfacet
facet normal 0.0 0.0 -1.0
  outer loop
    vertex -39.5190801189821 -231.726384337189 0.0
    vertex -41.5263820301701 -225.288364847307 0.0
    vertex -41.1428517479093 -225.367347783997 0.0
  endloop
endfacet
facet normal 0.0 0.0 -1.0
  outer loop
    vertex -39.5190801189821 -231.726384337189 0.0
    vertex -41.1428517479093 -225.367347783997 0.0
    vertex -40.7519476548562 -225.344374500959 0.0
  endloop
endfacet
facet normal 0.0 0.0 -1.0
  outer loop
    vertex -39.5190801189821 -231.726384337189 0.0
    vertex -40.7519476548562 -225.344374500959 0.0
    vertex -40.3803092189529 -225.221010589467 0.0
  endloop
endfacet
facet normal 0.0 0.0 -1.0
  outer loop
    vertex -39.5190801189821 -231.726384337189 0.0
    vertex -40.3803092189529 -225.221010589467 0.0
    vertex -40.0532629854445 -225.005663096221 0.0
  endloop
endfacet
facet normal 0.0 0.0 -1.0
  outer loop
    vertex -39.5190801189821 -231.726384337189 0.0
    vertex -40.0532629854445 -225.005663096221 0.0
    vertex -39.7930966146754 -224.713007597008 0.0
  endloop
endfacet
facet normal 0.0 0.0 -1.0
  outer loop
    vertex -39.5190801189821 -231.726384337189 0.0
    vertex -39.7930966146754 -224.713007597008 0.0
    vertex -39.617540014868 -224.362988080461 0.0
  endloop
endfacet
facet normal 0.0 0.0 -1.0
  outer loop
    vertex -39.5190801189821 -231.726384337189 0.0
    vertex -39.617540014868 -224.362988080461 0.0
    vertex -39.5385570781784 -223.979457798201 0.0
  endloop
endfacet
facet normal 0.654257613664887 -0.756271759992086 0.0
  outer loop
    vertex -42.0160358264392 -222.736847816245 0.0
    vertex -42.2762021972084 -223.029503315459 5.0
    vertex -42.2762021972084 -223.029503315459 0.0
  endloop
endfacet
facet normal 0.827701860844322 -0.561168093849647 0.0
  outer loop
    vertex -42.2762021972084 -223.029503315459 5.0
    vertex -42.0160358264392 -222.736847816245 0.0
    vertex -42.0160358264392 -222.736847816245 5.0
  endloop
endfacet
facet normal -0.981891110119461 -0.189446160869976 0.0
  outer loop
    vertex -48.8897782868976 -225.386824743193 5.0
    vertex -48.2298630652485 -227.368239928164 0.0
    vertex -48.2298630652485 -227.368239928164 5.0
  endloop
endfacet
facet normal -0.899401707413326 -0.437123058991395 0.0
  outer loop
    vertex -48.2298630652485 -227.368239928164 0.0
    vertex -48.8897782868976 -225.386824743193 5.0
    vertex -48.8897782868976 -225.386824743193 0.0
  endloop
endfacet
facet normal 0.189446160869971 -0.981891110119462 0.0
  outer loop
    vertex -39.5190801189821 -231.726384337189 5.0
    vertex -41.6037788462631 -231.850985506815 0.0
    vertex -39.5190801189821 -231.726384337189 0.0
  endloop
endfacet
facet normal -0.0711411800401536 -0.997466256322736 0.0
  outer loop
    vertex -41.6037788462631 -231.850985506815 0.0
    vertex -39.5190801189821 -231.726384337189 5.0
    vertex -41.6037788462631 -231.850985506815 5.0
  endloop
endfacet
facet normal -0.0711411800401536 -0.997466256322736 0.0
  outer loop
    vertex -41.6037788462631 -231.850985506815 5.0
    vertex -43.6496923427171 -231.431781260622 0.0
    vertex -41.6037788462631 -231.850985506815 0.0
  endloop
endfacet
facet normal -0.326880367096903 -0.945065725548543 0.0
  outer loop
    vertex -43.6496923427171 -231.431781260622 0.0
    vertex -41.6037788462631 -231.850985506815 5.0
    vertex -43.6496923427171 -231.431781260622 5.0
  endloop
endfacet
facet normal -0.0721348946449316 -0.997394885175658 0.0
  outer loop
    vertex -40.9264470639745 -222.37516312847 5.0
    vertex -41.3173511570276 -222.398136411508 0.0
    vertex -40.9264470639745 -222.37516312847 0.0
  endloop
endfacet
facet normal 0.188467834057119 -0.982079363150361 0.0
  outer loop
    vertex -41.3173511570276 -222.398136411508 0.0
    vertex -40.9264470639745 -222.37516312847 5.0
    vertex -41.3173511570276 -222.398136411508 5.0
  endloop
endfacet
facet normal 0.188467834057119 -0.982079363150361 0.0
  outer loop
    vertex -41.3173511570276 -222.398136411508 5.0
    vertex -41.6889895929309 -222.521500322999 0.0
    vertex -41.3173511570276 -222.398136411508 0.0
  endloop
endfacet
facet normal 0.436226791326026 -0.899836755489238 0.0
  outer loop
    vertex -41.6889895929309 -222.521500322999 0.0
    vertex -41.3173511570276 -222.398136411508 5.0
    vertex -41.6889895929309 -222.521500322999 5.0
  endloop
endfacet
facet normal 0.560343197331342 0.828260527373174 0.0
  outer loop
    vertex -36.5519038272911 -217.245171237248 5.0
    vertex -34.9896928885133 -218.631169512053 0.0
    vertex -36.5519038272911 -217.245171237248 0.0
  endloop
endfacet
facet normal 0.75561956467857 0.655010743022561 0.0
  outer loop
    vertex -34.9896928885133 -218.631169512053 0.0
    vertex -36.5519038272911 -217.245171237248 5.0
    vertex -34.9896928885133 -218.631169512053 5.0
  endloop
endfacet
facet normal 0.75561956467857 0.655010743022561 0.0
  outer loop
    vertex -34.9896928885133 -218.631169512053 0.0
    vertex -33.8394357466353 -220.374270984302 5.0
    vertex -33.8394357466353 -220.374270984302 0.0
  endloop
endfacet
facet normal 0.899401707413326 0.437123058991395 0.0
  outer loop
    vertex -33.8394357466353 -220.374270984302 5.0
    vertex -34.9896928885133 -218.631169512053 0.0
    vertex -34.9896928885133 -218.631169512053 5.0
  endloop
endfacet
facet normal 0.326880367096902 0.945065725548543 0.0
  outer loop
    vertex -38.4196064691667 -216.310729651845 5.0
    vertex -36.5519038272911 -217.245171237248 0.0
    vertex -38.4196064691667 -216.310729651845 0.0
  endloop
endfacet
facet normal 0.560343197331342 0.828260527373174 0.0
  outer loop
    vertex -36.5519038272911 -217.245171237248 0.0
    vertex -38.4196064691667 -216.310729651845 5.0
    vertex -36.5519038272911 -217.245171237248 5.0
  endloop
endfacet
facet normal 0.0711411800401538 0.997466256322736 0.0
  outer loop
    vertex -40.4655199656207 -215.891525405651 5.0
    vertex -38.4196064691667 -216.310729651845 0.0
    vertex -40.4655199656207 -215.891525405651 0.0
  endloop
endfacet
facet normal 0.326880367096902 0.945065725548543 0.0
  outer loop
    vertex -38.4196064691667 -216.310729651845 0.0
    vertex -40.4655199656207 -215.891525405651 5.0
    vertex -38.4196064691667 -216.310729651845 5.0
  endloop
endfacet
facet normal -0.189446160869971 0.981891110119462 0.0
  outer loop
    vertex -42.5502186929017 -216.016126575277 5.0
    vertex -40.4655199656207 -215.891525405651 0.0
    vertex -42.5502186929017 -216.016126575277 0.0
  endloop
endfacet
facet normal 0.0711411800401538 0.997466256322736 0.0
  outer loop
    vertex -40.4655199656207 -215.891525405651 0.0
    vertex -42.5502186929017 -216.016126575277 5.0
    vertex -40.4655199656207 -215.891525405651 5.0
  endloop
endfacet
facet normal -0.437123058991395 0.899401707413326 0.0
  outer loop
    vertex -44.531633877873 -216.676041796927 5.0
    vertex -42.5502186929017 -216.016126575277 0.0
    vertex -44.531633877873 -216.676041796927 0.0
  endloop
endfacet
facet normal -0.189446160869971 0.981891110119462 0.0
  outer loop
    vertex -42.5502186929017 -216.016126575277 0.0
    vertex -44.531633877873 -216.676041796927 5.0
    vertex -42.5502186929017 -216.016126575277 5.0
  endloop
endfacet
facet normal -0.655010743022562 0.75561956467857 0.0
  outer loop
    vertex -46.2747353501224 -217.826298938805 5.0
    vertex -44.531633877873 -216.676041796927 0.0
    vertex -46.2747353501224 -217.826298938805 0.0
  endloop
endfacet
facet normal -0.437123058991395 0.899401707413326 0.0
  outer loop
    vertex -44.531633877873 -216.676041796927 0.0
    vertex -46.2747353501224 -217.826298938805 5.0
    vertex -44.531633877873 -216.676041796927 5.0
  endloop
endfacet
facet normal -0.655010743022562 0.75561956467857 0.0
  outer loop
    vertex -46.2747353501224 -217.826298938805 5.0
    vertex -47.6607336249273 -219.388509877582 0.0
    vertex -47.6607336249273 -219.388509877582 5.0
  endloop
endfacet
facet normal -0.828260527373173 0.560343197331344 0.0
  outer loop
    vertex -47.6607336249273 -219.388509877582 0.0
    vertex -46.2747353501224 -217.826298938805 5.0
    vertex -46.2747353501224 -217.826298938805 0.0
  endloop
endfacet
facet normal -0.828260527373173 0.560343197331344 0.0
  outer loop
    vertex -47.6607336249273 -219.388509877582 5.0
    vertex -48.5951752103302 -221.256212519458 0.0
    vertex -48.5951752103302 -221.256212519458 5.0
  endloop
endfacet
facet normal -0.945065725548545 0.326880367096897 0.0
  outer loop
    vertex -48.5951752103302 -221.256212519458 0.0
    vertex -47.6607336249273 -219.388509877582 5.0
    vertex -47.6607336249273 -219.388509877582 0.0
  endloop
endfacet
facet normal -0.945065725548545 0.326880367096897 0.0
  outer loop
    vertex -48.5951752103302 -221.256212519458 5.0
    vertex -49.0143794565238 -223.302126015912 0.0
    vertex -49.0143794565238 -223.302126015912 5.0
  endloop
endfacet
facet normal -0.997466256322736 0.0711411800401485 0.0
  outer loop
    vertex -49.0143794565238 -223.302126015912 0.0
    vertex -48.5951752103302 -221.256212519458 5.0
    vertex -48.5951752103302 -221.256212519458 0.0
  endloop
endfacet
facet normal -0.997466256322736 0.0711411800401485 0.0
  outer loop
    vertex -49.0143794565238 -223.302126015912 5.0
    vertex -48.8897782868976 -225.386824743193 0.0
    vertex -48.8897782868976 -225.386824743193 5.0
  endloop
endfacet
facet normal -0.981891110119461 -0.189446160869976 0.0
  outer loop
    vertex -48.8897782868976 -225.386824743193 0.0
    vertex -49.0143794565238 -223.302126015912 5.0
    vertex -49.0143794565238 -223.302126015912 0.0
  endloop
endfacet
facet normal -0.0 -0.0 1.0
  outer loop
    vertex -48.8897782868976 -225.386824743193 5.0
    vertex -48.5951752103302 -221.256212519458 5.0
    vertex -49.0143794565238 -223.302126015912 5.0
  endloop
endfacet
facet normal -0.0 -0.0 1.0
  outer loop
    vertex -48.5951752103302 -221.256212519458 5.0
    vertex -48.8897782868976 -225.386824743193 5.0
    vertex -48.2298630652485 -227.368239928164 5.0
  endloop
endfacet
facet normal -0.0 -0.0 1.0
  outer loop
    vertex -48.5951752103302 -221.256212519458 5.0
    vertex -48.2298630652485 -227.368239928164 5.0
    vertex -47.6607336249273 -219.388509877582 5.0
  endloop
endfacet
facet normal -0.0 -0.0 1.0
  outer loop
    vertex -47.6607336249273 -219.388509877582 5.0
    vertex -48.2298630652485 -227.368239928164 5.0
    vertex -47.0796059233704 -229.111341400414 5.0
  endloop
endfacet
facet normal -0.0 -0.0 1.0
  outer loop
    vertex -47.6607336249273 -219.388509877582 5.0
    vertex -47.0796059233704 -229.111341400414 5.0
    vertex -46.2747353501224 -217.826298938805 5.0
  endloop
endfacet
facet normal -0.0 -0.0 1.0
  outer loop
    vertex -46.2747353501224 -217.826298938805 5.0
    vertex -47.0796059233704 -229.111341400414 5.0
    vertex -45.5173949845926 -230.497339675219 5.0
  endloop
endfacet
facet normal -0.0 -0.0 1.0
  outer loop
    vertex -46.2747353501224 -217.826298938805 5.0
    vertex -45.5173949845926 -230.497339675219 5.0
    vertex -44.531633877873 -216.676041796927 5.0
  endloop
endfacet
facet normal -0.0 -0.0 1.0
  outer loop
    vertex -44.531633877873 -216.676041796927 5.0
    vertex -45.5173949845926 -230.497339675219 5.0
    vertex -43.6496923427171 -231.431781260622 5.0
  endloop
endfacet
facet normal -0.0 -0.0 1.0
  outer loop
    vertex -44.531633877873 -216.676041796927 5.0
    vertex -43.6496923427171 -231.431781260622 5.0
    vertex -42.5502186929017 -216.016126575277 5.0
  endloop
endfacet
facet normal -0.0 -0.0 1.0
  outer loop
    vertex -42.5502186929017 -216.016126575277 5.0
    vertex -43.6496923427171 -231.431781260622 5.0
    vertex -42.5307417337054 -223.763053114266 5.0
  endloop
endfacet
facet normal -0.0 -0.0 1.0
  outer loop
    vertex -42.5307417337054 -223.763053114266 5.0
    vertex -43.6496923427171 -231.431781260622 5.0
    vertex -42.5077684506674 -224.153957207319 5.0
  endloop
endfacet
facet normal -0.0 -0.0 1.0
  outer loop
    vertex -42.5077684506674 -224.153957207319 5.0
    vertex -43.6496923427171 -231.431781260622 5.0
    vertex -41.6037788462631 -231.850985506815 5.0
  endloop
endfacet
facet normal -0.0 -0.0 1.0
  outer loop
    vertex -42.5077684506674 -224.153957207319 5.0
    vertex -41.6037788462631 -231.850985506815 5.0
    vertex -42.3844045391757 -224.525595643222 5.0
  endloop
endfacet
facet normal -0.0 -0.0 1.0
  outer loop
    vertex -42.3844045391757 -224.525595643222 5.0
    vertex -41.6037788462631 -231.850985506815 5.0
    vertex -42.16905704593 -224.852641876731 5.0
  endloop
endfacet
facet normal -0.0 -0.0 1.0
  outer loop
    vertex -42.16905704593 -224.852641876731 5.0
    vertex -41.6037788462631 -231.850985506815 5.0
    vertex -41.8764015467163 -225.1128082475 5.0
  endloop
endfacet
facet normal -0.0 -0.0 1.0
  outer loop
    vertex -41.8764015467163 -225.1128082475 5.0
    vertex -41.6037788462631 -231.850985506815 5.0
    vertex -41.5263820301701 -225.288364847307 5.0
  endloop
endfacet
facet normal -0.0 -0.0 1.0
  outer loop
    vertex -41.5263820301701 -225.288364847307 5.0
    vertex -41.6037788462631 -231.850985506815 5.0
    vertex -39.5190801189821 -231.726384337189 5.0
  endloop
endfacet
facet normal -0.0 -0.0 1.0
  outer loop
    vertex -41.5263820301701 -225.288364847307 5.0
    vertex -39.5190801189821 -231.726384337189 5.0
    vertex -41.1428517479093 -225.367347783997 5.0
  endloop
endfacet
facet normal -0.0 -0.0 1.0
  outer loop
    vertex -41.1428517479093 -225.367347783997 5.0
    vertex -39.5190801189821 -231.726384337189 5.0
    vertex -40.7519476548562 -225.344374500959 5.0
  endloop
endfacet
facet normal -0.0 -0.0 1.0
  outer loop
    vertex -40.7519476548562 -225.344374500959 5.0
    vertex -39.5190801189821 -231.726384337189 5.0
    vertex -40.3803092189529 -225.221010589467 5.0
  endloop
endfacet
facet normal -0.0 -0.0 1.0
  outer loop
    vertex -40.3803092189529 -225.221010589467 5.0
    vertex -39.5190801189821 -231.726384337189 5.0
    vertex -40.0532629854445 -225.005663096221 5.0
  endloop
endfacet
facet normal -0.0 -0.0 1.0
  outer loop
    vertex -40.0532629854445 -225.005663096221 5.0
    vertex -39.5190801189821 -231.726384337189 5.0
    vertex -39.7930966146754 -224.713007597008 5.0
  endloop
endfacet
facet normal -0.0 -0.0 1.0
  outer loop
    vertex -39.7930966146754 -224.713007597008 5.0
    vertex -39.5190801189821 -231.726384337189 5.0
    vertex -39.617540014868 -224.362988080461 5.0
  endloop
endfacet
facet normal -0.0 -0.0 1.0
  outer loop
    vertex -39.617540014868 -224.362988080461 5.0
    vertex -39.5190801189821 -231.726384337189 5.0
    vertex -39.5385570781784 -223.979457798201 5.0
  endloop
endfacet
facet normal -0.0 -0.0 1.0
  outer loop
    vertex -42.5502186929017 -216.016126575277 5.0
    vertex -42.4517587970157 -223.379522832005 5.0
    vertex -40.4655199656207 -215.891525405651 5.0
  endloop
endfacet
facet normal -0.0 -0.0 1.0
  outer loop
    vertex -42.4517587970157 -223.379522832005 5.0
    vertex -42.5502186929017 -216.016126575277 5.0
    vertex -42.5307417337054 -223.763053114266 5.0
  endloop
endfacet
facet normal -0.0 -0.0 1.0
  outer loop
    vertex -40.4655199656207 -215.891525405651 5.0
    vertex -42.4517587970157 -223.379522832005 5.0
    vertex -42.2762021972084 -223.029503315459 5.0
  endloop
endfacet
facet normal -0.0 -0.0 1.0
  outer loop
    vertex -40.4655199656207 -215.891525405651 5.0
    vertex -42.2762021972084 -223.029503315459 5.0
    vertex -42.0160358264392 -222.736847816245 5.0
  endloop
endfacet
facet normal -0.0 -0.0 1.0
  outer loop
    vertex -40.4655199656207 -215.891525405651 5.0
    vertex -42.0160358264392 -222.736847816245 5.0
    vertex -41.6889895929309 -222.521500322999 5.0
  endloop
endfacet
facet normal -0.0 -0.0 1.0
  outer loop
    vertex -40.4655199656207 -215.891525405651 5.0
    vertex -41.6889895929309 -222.521500322999 5.0
    vertex -41.3173511570276 -222.398136411508 5.0
  endloop
endfacet
facet normal -0.0 -0.0 1.0
  outer loop
    vertex -40.4655199656207 -215.891525405651 5.0
    vertex -41.3173511570276 -222.398136411508 5.0
    vertex -40.9264470639745 -222.37516312847 5.0
  endloop
endfacet
facet normal -0.0 -0.0 1.0
  outer loop
    vertex -40.4655199656207 -215.891525405651 5.0
    vertex -40.9264470639745 -222.37516312847 5.0
    vertex -40.5429167817137 -222.454146065159 5.0
  endloop
endfacet
facet normal -0.0 -0.0 1.0
  outer loop
    vertex -40.4655199656207 -215.891525405651 5.0
    vertex -40.5429167817137 -222.454146065159 5.0
    vertex -40.1928972651674 -222.629702664967 5.0
  endloop
endfacet
facet normal -0.0 -0.0 1.0
  outer loop
    vertex -40.4655199656207 -215.891525405651 5.0
    vertex -40.1928972651674 -222.629702664967 5.0
    vertex -38.4196064691667 -216.310729651845 5.0
  endloop
endfacet
facet normal -0.0 -0.0 1.0
  outer loop
    vertex -38.4196064691667 -216.310729651845 5.0
    vertex -40.1928972651674 -222.629702664967 5.0
    vertex -39.9002417659538 -222.889869035736 5.0
  endloop
endfacet
facet normal -0.0 -0.0 1.0
  outer loop
    vertex -38.4196064691667 -216.310729651845 5.0
    vertex -39.9002417659538 -222.889869035736 5.0
    vertex -39.684894272708 -223.216915269244 5.0
  endloop
endfacet
facet normal -0.0 -0.0 1.0
  outer loop
    vertex -38.4196064691667 -216.310729651845 5.0
    vertex -39.684894272708 -223.216915269244 5.0
    vertex -39.5615303612163 -223.588553705147 5.0
  endloop
endfacet
facet normal -0.0 -0.0 1.0
  outer loop
    vertex -38.4196064691667 -216.310729651845 5.0
    vertex -39.5615303612163 -223.588553705147 5.0
    vertex -39.5385570781784 -223.979457798201 5.0
  endloop
endfacet
facet normal -0.0 -0.0 1.0
  outer loop
    vertex -38.4196064691667 -216.310729651845 5.0
    vertex -39.5385570781784 -223.979457798201 5.0
    vertex -39.5190801189821 -231.726384337189 5.0
  endloop
endfacet
facet normal -0.0 -0.0 1.0
  outer loop
    vertex -38.4196064691667 -216.310729651845 5.0
    vertex -39.5190801189821 -231.726384337189 5.0
    vertex -37.5376649340107 -231.06646911554 5.0
  endloop
endfacet
facet normal -0.0 -0.0 1.0
  outer loop
    vertex -38.4196064691667 -216.310729651845 5.0
    vertex -37.5376649340107 -231.06646911554 5.0
    vertex -36.5519038272911 -217.245171237248 5.0
  endloop
endfacet
facet normal -0.0 -0.0 1.0
  outer loop
    vertex -36.5519038272911 -217.245171237248 5.0
    vertex -37.5376649340107 -231.06646911554 5.0
    vertex -35.7945634617614 -229.916211973662 5.0
  endloop
endfacet
facet normal -0.0 -0.0 1.0
  outer loop
    vertex -36.5519038272911 -217.245171237248 5.0
    vertex -35.7945634617614 -229.916211973662 5.0
    vertex -34.9896928885133 -218.631169512053 5.0
  endloop
endfacet
facet normal -0.0 -0.0 1.0
  outer loop
    vertex -34.9896928885133 -218.631169512053 5.0
    vertex -35.7945634617614 -229.916211973662 5.0
    vertex -34.4085651869565 -228.354001034884 5.0
  endloop
endfacet
facet normal -0.0 -0.0 1.0
  outer loop
    vertex -34.9896928885133 -218.631169512053 5.0
    vertex -34.4085651869565 -228.354001034884 5.0
    vertex -33.8394357466353 -220.374270984302 5.0
  endloop
endfacet
facet normal -0.0 -0.0 1.0
  outer loop
    vertex -33.8394357466353 -220.374270984302 5.0
    vertex -34.4085651869565 -228.354001034884 5.0
    vertex -33.4741236015535 -226.486298393008 5.0
  endloop
endfacet
facet normal -0.0 -0.0 1.0
  outer loop
    vertex -33.8394357466353 -220.374270984302 5.0
    vertex -33.4741236015535 -226.486298393008 5.0
    vertex -33.1795205249862 -222.355686169273 5.0
  endloop
endfacet
facet normal -0.0 -0.0 1.0
  outer loop
    vertex -33.1795205249862 -222.355686169273 5.0
    vertex -33.4741236015535 -226.486298393008 5.0
    vertex -33.05491935536 -224.440384896554 5.0
  endloop
endfacet
facet normal 0.756271759992074 0.654257613664901 0.0
  outer loop
    vertex -42.16905704593 -224.852641876731 5.0
    vertex -41.8764015467163 -225.1128082475 0.0
    vertex -42.16905704593 -224.852641876731 0.0
  endloop
endfacet
facet normal 0.561168093849625 0.827701860844337 0.0
  outer loop
    vertex -41.8764015467163 -225.1128082475 0.0
    vertex -42.16905704593 -224.852641876731 5.0
    vertex -41.8764015467163 -225.1128082475 5.0
  endloop
endfacet
facet normal 0.561168093849625 0.827701860844337 0.0
  outer loop
    vertex -41.8764015467163 -225.1128082475 5.0
    vertex -41.5263820301701 -225.288364847307 0.0
    vertex -41.8764015467163 -225.1128082475 0.0
  endloop
endfacet
facet normal 0.327821749485451 0.944739594049227 0.0
  outer loop
    vertex -41.5263820301701 -225.288364847307 0.0
    vertex -41.8764015467163 -225.1128082475 5.0
    vertex -41.5263820301701 -225.288364847307 5.0
  endloop
endfacet
facet normal 0.0721348946449335 0.997394885175658 0.0
  outer loop
    vertex -41.1428517479093 -225.367347783997 5.0
    vertex -40.7519476548562 -225.344374500959 0.0
    vertex -41.1428517479093 -225.367347783997 0.0
  endloop
endfacet
facet normal -0.188467834057119 0.982079363150361 0.0
  outer loop
    vertex -40.7519476548562 -225.344374500959 0.0
    vertex -41.1428517479093 -225.367347783997 5.0
    vertex -40.7519476548562 -225.344374500959 5.0
  endloop
endfacet
facet normal 0.89983675548924 0.436226791326023 0.0
  outer loop
    vertex -42.3844045391757 -224.525595643222 0.0
    vertex -42.16905704593 -224.852641876731 5.0
    vertex -42.16905704593 -224.852641876731 0.0
  endloop
endfacet
facet normal 0.756271759992074 0.654257613664901 0.0
  outer loop
    vertex -42.16905704593 -224.852641876731 5.0
    vertex -42.3844045391757 -224.525595643222 0.0
    vertex -42.3844045391757 -224.525595643222 5.0
  endloop
endfacet
facet normal 0.982079363150359 0.188467834057127 0.0
  outer loop
    vertex -42.5077684506674 -224.153957207319 0.0
    vertex -42.3844045391757 -224.525595643222 5.0
    vertex -42.3844045391757 -224.525595643222 0.0
  endloop
endfacet
facet normal 0.89983675548924 0.436226791326023 0.0
  outer loop
    vertex -42.3844045391757 -224.525595643222 5.0
    vertex -42.5077684506674 -224.153957207319 0.0
    vertex -42.5077684506674 -224.153957207319 5.0
  endloop
endfacet
facet normal 0.99739488517566 -0.0721348946449113 0.0
  outer loop
    vertex -42.5307417337054 -223.763053114266 0.0
    vertex -42.5077684506674 -224.153957207319 5.0
    vertex -42.5077684506674 -224.153957207319 0.0
  endloop
endfacet
facet normal 0.982079363150359 0.188467834057127 0.0
  outer loop
    vertex -42.5077684506674 -224.153957207319 5.0
    vertex -42.5307417337054 -223.763053114266 0.0
    vertex -42.5307417337054 -223.763053114266 5.0
  endloop
endfacet
facet normal 0.944739594049225 -0.327821749485457 0.0
  outer loop
    vertex -42.4517587970157 -223.379522832005 0.0
    vertex -42.5307417337054 -223.763053114266 5.0
    vertex -42.5307417337054 -223.763053114266 0.0
  endloop
endfacet
facet normal 0.99739488517566 -0.0721348946449113 0.0
  outer loop
    vertex -42.5307417337054 -223.763053114266 5.0
    vertex -42.4517587970157 -223.379522832005 0.0
    vertex -42.4517587970157 -223.379522832005 5.0
  endloop
endfacet
facet normal 0.327821749485451 0.944739594049227 0.0
  outer loop
    vertex -41.5263820301701 -225.288364847307 5.0
    vertex -41.1428517479093 -225.367347783997 0.0
    vertex -41.5263820301701 -225.288364847307 0.0
  endloop
endfacet
facet normal 0.0721348946449335 0.997394885175658 0.0
  outer loop
    vertex -41.1428517479093 -225.367347783997 0.0
    vertex -41.5263820301701 -225.288364847307 5.0
    vertex -41.1428517479093 -225.367347783997 5.0
  endloop
endfacet
facet normal -0.436226791326026 0.899836755489238 0.0
  outer loop
    vertex -40.3803092189529 -225.221010589467 5.0
    vertex -40.0532629854445 -225.005663096221 0.0
    vertex -40.3803092189529 -225.221010589467 0.0
  endloop
endfacet
facet normal -0.654257613664887 0.756271759992086 0.0
  outer loop
    vertex -40.0532629854445 -225.005663096221 0.0
    vertex -40.3803092189529 -225.221010589467 5.0
    vertex -40.0532629854445 -225.005663096221 5.0
  endloop
endfacet
facet normal -0.188467834057119 0.982079363150361 0.0
  outer loop
    vertex -40.7519476548562 -225.344374500959 5.0
    vertex -40.3803092189529 -225.221010589467 0.0
    vertex -40.7519476548562 -225.344374500959 0.0
  endloop
endfacet
facet normal -0.436226791326026 0.899836755489238 0.0
  outer loop
    vertex -40.3803092189529 -225.221010589467 0.0
    vertex -40.7519476548562 -225.344374500959 5.0
    vertex -40.3803092189529 -225.221010589467 5.0
  endloop
endfacet
endsolid xyz-y-carriage-left
