solid xyz-y-carriage-left
facet normal -1.61834920437627e-008 -0.707106781186557 0.707106781186538
  outer loop
    vertex -219.459287911657 197.45527444887 26.7185686818976
    vertex -229.659287928633 197.04106122438 26.4007315411382
    vertex -219.459287928633 197.041060886497 26.4007314367019
  endloop
endfacet
facet normal -7.69576470068677e-009 -0.5 0.866025403784439
  outer loop
    vertex -229.659287928633 197.04106122438 26.4007315411382
    vertex -219.459287911657 197.45527444887 26.7185686818976
    vertex -229.659287911657 197.455274786753 26.718568786334
  endloop
endfacet
facet normal 1.31641644705653e-009 -0.258819045102525 0.965925826289067
  outer loop
    vertex -219.459287946657 196.558698976702 26.2009305916924
    vertex -229.659287928633 197.04106122438 26.4007315411382
    vertex -229.659287946657 196.558699314585 26.2009306961287
  endloop
endfacet
facet normal -7.69576470068677e-009 -0.5 0.866025403784439
  outer loop
    vertex -229.659287928633 197.04106122438 26.4007315411382
    vertex -219.459287946657 196.558698976702 26.2009305916924
    vertex -219.459287928633 197.041060886497 26.4007314367019
  endloop
endfacet
facet normal 1.31641644705653e-009 -0.258819045102525 0.965925826289067
  outer loop
    vertex -219.459287946657 196.558698976702 26.2009305916924
    vertex -229.659287964502 196.04106122438 26.1327823487073
    vertex -219.459287964502 196.041060886497 26.1327822442705
  endloop
endfacet
facet normal 1.02388863691285e-008 -1.58076960540718e-014 1.0
  outer loop
    vertex -229.659287964502 196.04106122438 26.1327823487073
    vertex -219.459287946657 196.558698976702 26.2009305916924
    vertex -229.659287946657 196.558699314585 26.2009306961287
  endloop
endfacet
facet normal 1.84635926079417e-008 0.25881904510251 0.965925826289071
  outer loop
    vertex -219.459287980952 195.523422796292 26.2009305916925
    vertex -229.659287964502 196.04106122438 26.1327823487073
    vertex -229.659287980952 195.523423134175 26.2009306961288
  endloop
endfacet
facet normal 1.02388863691285e-008 -1.58076960540718e-014 1.0
  outer loop
    vertex -229.659287964502 196.04106122438 26.1327823487073
    vertex -219.459287980952 195.523422796292 26.2009305916925
    vertex -219.459287964502 196.041060886497 26.1327822442705
  endloop
endfacet
facet normal 1.84635926079417e-008 0.25881904510251 0.965925826289071
  outer loop
    vertex -219.459287980952 195.523422796292 26.2009305916925
    vertex -229.659287994885 195.04106122438 26.4007315411382
    vertex -219.459287994885 195.041060886497 26.4007314367019
  endloop
endfacet
facet normal 2.54300356213454e-008 0.500000000000013 0.866025403784431
  outer loop
    vertex -229.659287994885 195.04106122438 26.4007315411382
    vertex -219.459287980952 195.523422796292 26.2009305916925
    vertex -229.659287980952 195.523423134175 26.2009306961288
  endloop
endfacet
facet normal 2.54300356213449e-008 0.499999999999993 0.866025403784442
  outer loop
    vertex -219.459287994885 195.041060886497 26.4007314367019
    vertex -229.659288005352 194.626847662007 26.7185687863337
    vertex -219.459288005352 194.626847324124 26.7185686818972
  endloop
endfacet
facet normal 3.06634640551632e-008 0.707106781186544 0.70710678118655
  outer loop
    vertex -229.659288005352 194.626847662007 26.7185687863337
    vertex -219.459287994885 195.041060886497 26.4007314367019
    vertex -229.659287994885 195.04106122438 26.4007315411382
  endloop
endfacet
facet normal 3.38072277728563e-008 0.866025403784427 0.500000000000019
  outer loop
    vertex -229.659288011639 194.309010416811 27.1327823487069
    vertex -219.459288005352 194.626847324124 26.7185686818972
    vertex -229.659288005352 194.626847662007 26.7185687863337
  endloop
endfacet
facet normal 3.06634640551633e-008 0.707106781186547 0.707106781186548
  outer loop
    vertex -219.459288005352 194.626847324124 26.7185686818972
    vertex -229.659288011639 194.309010416811 27.1327823487069
    vertex -219.459288011639 194.309010078928 27.1327822442705
  endloop
endfacet
facet normal 3.4647084767184e-008 0.965925826289067 0.258819045102523
  outer loop
    vertex -229.659288013319 194.109209571802 27.615144258502
    vertex -219.459288011639 194.309010078928 27.1327822442705
    vertex -229.659288011639 194.309010416811 27.1327823487069
  endloop
endfacet
facet normal 3.38072277728564e-008 0.866025403784434 0.500000000000008
  outer loop
    vertex -219.459288011639 194.309010078928 27.1327822442705
    vertex -229.659288013319 194.109209571802 27.615144258502
    vertex -219.459288013319 194.109209233919 27.6151441540653
  endloop
endfacet
facet normal 3.31258002914122e-008 1.0 1.87016595668437e-015
  outer loop
    vertex -229.659288010276 194.04106122438 28.1327823487071
    vertex -219.459288013319 194.109209233919 27.6151441540653
    vertex -229.659288013319 194.109209571802 27.615144258502
  endloop
endfacet
facet normal 3.4647084767184e-008 0.965925826289067 0.258819045102525
  outer loop
    vertex -219.459288013319 194.109209233919 27.6151441540653
    vertex -229.659288010276 194.04106122438 28.1327823487071
    vertex -219.459288010276 194.041060886497 28.1327822442706
  endloop
endfacet
facet normal 2.93470472240491e-008 0.965925826289067 -0.258819045102525
  outer loop
    vertex -229.659288002719 194.109209571802 28.650420438912
    vertex -219.459288010276 194.041060886497 28.1327822442706
    vertex -229.659288010276 194.04106122438 28.1327823487071
  endloop
endfacet
facet normal 3.31258002914121e-008 0.999999999999999 -4.7418822321351e-015
  outer loop
    vertex -219.459288010276 194.041060886497 28.1327822442706
    vertex -229.659288002719 194.109209571802 28.650420438912
    vertex -219.459288002719 194.109209233919 28.6504203344756
  endloop
endfacet
facet normal -3.06634639851754e-008 -0.70710678118654 -0.707106781186555
  outer loop
    vertex -229.659287882698 197.455274786753 29.5469959110803
    vertex -219.459287893164 197.041060886497 29.8648330518396
    vertex -229.659287893164 197.04106122438 29.864833156276
  endloop
endfacet
facet normal -2.54300358453059e-008 -0.500000000000011 -0.866025403784432
  outer loop
    vertex -219.459287893164 197.041060886497 29.8648330518396
    vertex -229.659287882698 197.455274786753 29.5469959110803
    vertex -219.459287882697 197.45527444887 29.5469958066437
  endloop
endfacet
facet normal -3.38072278078503e-008 -0.866025403784431 -0.500000000000012
  outer loop
    vertex -219.45928787641 197.773111694066 29.1327822442709
    vertex -229.659287882698 197.455274786753 29.5469959110803
    vertex -229.65928787641 197.773112031949 29.132782348707
  endloop
endfacet
facet normal -3.06634639851754e-008 -0.70710678118654 -0.707106781186555
  outer loop
    vertex -229.659287882698 197.455274786753 29.5469959110803
    vertex -219.45928787641 197.773111694066 29.1327822442709
    vertex -219.459287882697 197.45527444887 29.5469958066437
  endloop
endfacet
facet normal -3.46470847671839e-008 -0.965925826289068 -0.258819045102518
  outer loop
    vertex -219.45928787473 197.972912539075 28.6504203344757
    vertex -229.65928787641 197.773112031949 29.132782348707
    vertex -229.65928787473 197.972912876958 28.6504204389121
  endloop
endfacet
facet normal -3.38072278078504e-008 -0.866025403784438 -0.5
  outer loop
    vertex -229.65928787641 197.773112031949 29.132782348707
    vertex -219.45928787473 197.972912539075 28.6504203344757
    vertex -219.45928787641 197.773111694066 29.1327822442709
  endloop
endfacet
facet normal -3.31258002914124e-008 -0.999999999999999 -1.59942642090015e-014
  outer loop
    vertex -219.459287877773 198.041060886497 28.1327822442709
    vertex -229.65928787473 197.972912876958 28.6504204389121
    vertex -229.659287877773 198.04106122438 28.1327823487075
  endloop
endfacet
facet normal -3.4647084767184e-008 -0.965925826289065 -0.258819045102529
  outer loop
    vertex -229.65928787473 197.972912876958 28.6504204389121
    vertex -219.459287877773 198.041060886497 28.1327822442709
    vertex -219.45928787473 197.972912539075 28.6504203344757
  endloop
endfacet
facet normal -2.93470472695412e-008 -0.965925826289069 0.258819045102518
  outer loop
    vertex -219.45928788533 197.972912539075 27.6151441540654
    vertex -229.659287877773 198.04106122438 28.1327823487075
    vertex -229.65928788533 197.972912876958 27.6151442585022
  endloop
endfacet
facet normal -3.31258002914123e-008 -1.0 -1.01129452491115e-014
  outer loop
    vertex -229.659287877773 198.04106122438 28.1327823487075
    vertex -219.45928788533 197.972912539075 27.6151441540654
    vertex -219.459287877773 198.041060886497 28.1327822442709
  endloop
endfacet
facet normal -2.35683414352215e-008 -0.866025403784429 0.500000000000016
  outer loop
    vertex -219.459287896888 197.773111694066 27.1327822442709
    vertex -229.65928788533 197.972912876958 27.6151442585022
    vertex -229.659287896888 197.773112031949 27.1327823487071
  endloop
endfacet
facet normal -2.9347047269541e-008 -0.965925826289067 0.258819045102525
  outer loop
    vertex -229.65928788533 197.972912876958 27.6151442585022
    vertex -219.459287896888 197.773111694066 27.1327822442709
    vertex -219.45928788533 197.972912539075 27.6151441540654
  endloop
endfacet
facet normal -1.61834920437627e-008 -0.707106781186557 0.707106781186538
  outer loop
    vertex -219.459287911657 197.45527444887 26.7185686818976
    vertex -229.659287896888 197.773112031949 27.1327823487071
    vertex -229.659287911657 197.455274786753 26.718568786334
  endloop
endfacet
facet normal -2.35683414352217e-008 -0.866025403784432 0.500000000000011
  outer loop
    vertex -229.659287896888 197.773112031949 27.1327823487071
    vertex -219.459287911657 197.45527444887 26.7185686818976
    vertex -219.459287896888 197.773111694066 27.1327822442709
  endloop
endfacet
facet normal 1.61834920997527e-008 0.707106781186555 -0.70710678118654
  outer loop
    vertex -229.659287976392 194.626847662007 29.5469959110798
    vertex -219.459287959416 195.041060886497 29.8648330518396
    vertex -219.459287976392 194.626847324124 29.5469958066433
  endloop
endfacet
facet normal 7.69576479167078e-009 0.499999999999999 -0.866025403784439
  outer loop
    vertex -219.459287959416 195.041060886497 29.8648330518396
    vertex -229.659287976392 194.626847662007 29.5469959110798
    vertex -229.659287959416 195.04106122438 29.864833156276
  endloop
endfacet
facet normal -1.8463592936884e-008 -0.258819045102515 -0.96592582628907
  outer loop
    vertex -229.659287907097 196.558699314585 30.0646340012849
    vertex -219.459287893164 197.041060886497 29.8648330518396
    vertex -219.459287907097 196.558698976702 30.0646338968484
  endloop
endfacet
facet normal -2.54300358453059e-008 -0.500000000000011 -0.866025403784432
  outer loop
    vertex -219.459287893164 197.041060886497 29.8648330518396
    vertex -229.659287907097 196.558699314585 30.0646340012849
    vertex -229.659287893164 197.04106122438 29.864833156276
  endloop
endfacet
facet normal 2.35683413337394e-008 0.866025403784428 -0.500000000000017
  outer loop
    vertex -229.659287991161 194.309010416811 29.132782348707
    vertex -219.459288002719 194.109209233919 28.6504203344756
    vertex -229.659288002719 194.109209571802 28.650420438912
  endloop
endfacet
facet normal 2.93470472240494e-008 0.96592582628907 -0.258819045102514
  outer loop
    vertex -219.459288002719 194.109209233919 28.6504203344756
    vertex -229.659287991161 194.309010416811 29.132782348707
    vertex -219.459287991161 194.309010078928 29.1327822442703
  endloop
endfacet
facet normal 1.61834920997527e-008 0.707106781186555 -0.70710678118654
  outer loop
    vertex -229.659287976392 194.626847662007 29.5469959110798
    vertex -219.459287991161 194.309010078928 29.1327822442703
    vertex -229.659287991161 194.309010416811 29.132782348707
  endloop
endfacet
facet normal 2.35683413337399e-008 0.866025403784438 -0.5
  outer loop
    vertex -219.459287991161 194.309010078928 29.1327822442703
    vertex -229.659287976392 194.626847662007 29.5469959110798
    vertex -219.459287976392 194.626847324124 29.5469958066433
  endloop
endfacet
facet normal -1.8463592936884e-008 -0.258819045102515 -0.96592582628907
  outer loop
    vertex -229.659287907097 196.558699314585 30.0646340012849
    vertex -219.459287923547 196.041060886497 30.1327822442704
    vertex -229.659287923547 196.04106122438 30.1327823487072
  endloop
endfacet
facet normal -1.02388863971236e-008 1.61106664854898e-014 -1.0
  outer loop
    vertex -219.459287923547 196.041060886497 30.1327822442704
    vertex -229.659287907097 196.558699314585 30.0646340012849
    vertex -219.459287907097 196.558698976702 30.0646338968484
  endloop
endfacet
facet normal 7.6957647916721e-009 0.500000000000033 -0.86602540378442
  outer loop
    vertex -229.659287959416 195.04106122438 29.864833156276
    vertex -219.459287941392 195.523422796292 30.0646338968486
    vertex -219.459287959416 195.041060886497 29.8648330518396
  endloop
endfacet
facet normal -1.31641649604741e-009 0.25881904510254 -0.965925826289063
  outer loop
    vertex -219.459287941392 195.523422796292 30.0646338968486
    vertex -229.659287959416 195.04106122438 29.864833156276
    vertex -229.659287941392 195.523423134175 30.0646340012851
  endloop
endfacet
facet normal -1.31641649604801e-009 0.258819045102523 -0.965925826289068
  outer loop
    vertex -229.659287941392 195.523423134175 30.0646340012851
    vertex -219.459287923547 196.041060886497 30.1327822442704
    vertex -219.459287941392 195.523422796292 30.0646338968486
  endloop
endfacet
facet normal -1.02388863971236e-008 1.61106664854898e-014 -1.0
  outer loop
    vertex -219.459287923547 196.041060886497 30.1327822442704
    vertex -229.659287941392 195.523423134175 30.0646340012851
    vertex -229.659287923547 196.04106122438 30.1327823487072
  endloop
endfacet
facet normal -0.999999999999999 3.31257999057044e-008 1.02388750667825e-008
  outer loop
    vertex -229.659287380886 204.54106122438 55.632781826917
    vertex -229.659287907097 196.558699314585 30.0646340012849
    vertex -229.659287923547 196.04106122438 30.1327823487072
  endloop
endfacet
facet normal -0.999999999999999 3.31257999057044e-008 1.02388750667825e-008
  outer loop
    vertex -229.659287907097 196.558699314585 30.0646340012849
    vertex -229.659287380886 204.54106122438 55.632781826917
    vertex -229.659287893164 197.04106122438 29.864833156276
  endloop
endfacet
facet normal -0.999999999999999 3.31257999057044e-008 1.02388750667825e-008
  outer loop
    vertex -229.659287893164 197.04106122438 29.864833156276
    vertex -229.659287380886 204.54106122438 55.632781826917
    vertex -229.659287882698 197.455274786753 29.5469959110803
  endloop
endfacet
facet normal -0.999999999999999 3.31257999057044e-008 1.02388750667825e-008
  outer loop
    vertex -229.659287882698 197.455274786753 29.5469959110803
    vertex -229.659287380886 204.54106122438 55.632781826917
    vertex -229.65928787641 197.773112031949 29.132782348707
  endloop
endfacet
facet normal -0.999999999999999 3.31257999057044e-008 1.02388750667825e-008
  outer loop
    vertex -229.65928787641 197.773112031949 29.132782348707
    vertex -229.659287380886 204.54106122438 55.632781826917
    vertex -229.65928787473 197.972912876958 28.6504204389121
  endloop
endfacet
facet normal -0.999999999999999 3.31257999057044e-008 1.02388750667825e-008
  outer loop
    vertex -229.65928787473 197.972912876958 28.6504204389121
    vertex -229.659287380886 204.54106122438 55.632781826917
    vertex -229.659287380886 204.54106122438 0.63278182691706
  endloop
endfacet
facet normal -0.999999999999999 3.31257999057044e-008 1.02388750667825e-008
  outer loop
    vertex -229.65928787473 197.972912876958 28.6504204389121
    vertex -229.659287380886 204.54106122438 0.63278182691706
    vertex -229.659287877773 198.04106122438 28.1327823487075
  endloop
endfacet
facet normal -0.999999999999999 3.31257999057044e-008 1.02388750667825e-008
  outer loop
    vertex -229.659287877773 198.04106122438 28.1327823487075
    vertex -229.659287380886 204.54106122438 0.63278182691706
    vertex -229.65928788533 197.972912876958 27.6151442585022
  endloop
endfacet
facet normal -0.999999999999999 3.31257999057044e-008 1.02388750667825e-008
  outer loop
    vertex -229.65928788533 197.972912876958 27.6151442585022
    vertex -229.659287380886 204.54106122438 0.63278182691706
    vertex -229.659287896888 197.773112031949 27.1327823487071
  endloop
endfacet
facet normal -0.999999999999999 3.31257999057044e-008 1.02388750667825e-008
  outer loop
    vertex -229.659287896888 197.773112031949 27.1327823487071
    vertex -229.659287380886 204.54106122438 0.63278182691706
    vertex -229.659287911657 197.455274786753 26.718568786334
  endloop
endfacet
facet normal -0.999999999999999 3.31257999057044e-008 1.02388750667825e-008
  outer loop
    vertex -229.659287911657 197.455274786753 26.718568786334
    vertex -229.659287380886 204.54106122438 0.63278182691706
    vertex -229.659287928633 197.04106122438 26.4007315411382
  endloop
endfacet
facet normal -0.999999999999999 3.31257999057044e-008 1.02388750667825e-008
  outer loop
    vertex -229.659287928633 197.04106122438 26.4007315411382
    vertex -229.659287380886 204.54106122438 0.63278182691706
    vertex -229.659287946657 196.558699314585 26.2009306961287
  endloop
endfacet
facet normal -0.999999999999999 3.31257999057044e-008 1.02388750667825e-008
  outer loop
    vertex -229.659287946657 196.558699314585 26.2009306961287
    vertex -229.659287380886 204.54106122438 0.63278182691706
    vertex -229.659287964502 196.04106122438 26.1327823487073
  endloop
endfacet
facet normal -0.999999999999999 3.31257999057044e-008 1.02388750667825e-008
  outer loop
    vertex -229.659287964502 196.04106122438 26.1327823487073
    vertex -229.659287380886 204.54106122438 0.63278182691706
    vertex -229.659288507163 187.54106122438 0.63278182691679
  endloop
endfacet
facet normal -0.999999999999999 3.31257999057044e-008 1.02388750667825e-008
  outer loop
    vertex -229.659287380886 187.54106122438 55.6327828704969
    vertex -229.659288002719 194.109209571802 28.650420438912
    vertex -229.659288507163 187.54106122438 0.63278182691679
  endloop
endfacet
facet normal -0.999999999999999 3.31257999057044e-008 1.02388750667825e-008
  outer loop
    vertex -229.659288002719 194.109209571802 28.650420438912
    vertex -229.659287380886 187.54106122438 55.6327828704969
    vertex -229.659287380886 204.54106122438 55.632781826917
  endloop
endfacet
facet normal -0.999999999999999 3.31257999057044e-008 1.02388750667825e-008
  outer loop
    vertex -229.659288002719 194.109209571802 28.650420438912
    vertex -229.659287380886 204.54106122438 55.632781826917
    vertex -229.659287991161 194.309010416811 29.132782348707
  endloop
endfacet
facet normal -0.999999999999999 3.31257999057044e-008 1.02388750667825e-008
  outer loop
    vertex -229.659287991161 194.309010416811 29.132782348707
    vertex -229.659287380886 204.54106122438 55.632781826917
    vertex -229.659287976392 194.626847662007 29.5469959110798
  endloop
endfacet
facet normal -0.999999999999999 3.31257999057044e-008 1.02388750667825e-008
  outer loop
    vertex -229.659287976392 194.626847662007 29.5469959110798
    vertex -229.659287380886 204.54106122438 55.632781826917
    vertex -229.659287959416 195.04106122438 29.864833156276
  endloop
endfacet
facet normal -0.999999999999999 3.31257999057044e-008 1.02388750667825e-008
  outer loop
    vertex -229.659287959416 195.04106122438 29.864833156276
    vertex -229.659287380886 204.54106122438 55.632781826917
    vertex -229.659287941392 195.523423134175 30.0646340012851
  endloop
endfacet
facet normal -0.999999999999999 3.31257999057044e-008 1.02388750667825e-008
  outer loop
    vertex -229.659287941392 195.523423134175 30.0646340012851
    vertex -229.659287380886 204.54106122438 55.632781826917
    vertex -229.659287923547 196.04106122438 30.1327823487072
  endloop
endfacet
facet normal -0.999999999999999 3.31257999057044e-008 1.02388750667825e-008
  outer loop
    vertex -229.659288507163 187.54106122438 0.63278182691679
    vertex -229.659288002719 194.109209571802 28.650420438912
    vertex -229.659288010276 194.04106122438 28.1327823487071
  endloop
endfacet
facet normal -0.999999999999999 3.31257999057044e-008 1.02388750667825e-008
  outer loop
    vertex -229.659288507163 187.54106122438 0.63278182691679
    vertex -229.659288010276 194.04106122438 28.1327823487071
    vertex -229.659288013319 194.109209571802 27.615144258502
  endloop
endfacet
facet normal -0.999999999999999 3.31257999057044e-008 1.02388750667825e-008
  outer loop
    vertex -229.659288507163 187.54106122438 0.63278182691679
    vertex -229.659288013319 194.109209571802 27.615144258502
    vertex -229.659288011639 194.309010416811 27.1327823487069
  endloop
endfacet
facet normal -0.999999999999999 3.31257999057044e-008 1.02388750667825e-008
  outer loop
    vertex -229.659288507163 187.54106122438 0.63278182691679
    vertex -229.659288011639 194.309010416811 27.1327823487069
    vertex -229.659288005352 194.626847662007 26.7185687863337
  endloop
endfacet
facet normal -0.999999999999999 3.31257999057044e-008 1.02388750667825e-008
  outer loop
    vertex -229.659288507163 187.54106122438 0.63278182691679
    vertex -229.659288005352 194.626847662007 26.7185687863337
    vertex -229.659287994885 195.04106122438 26.4007315411382
  endloop
endfacet
facet normal -0.999999999999999 3.31257999057044e-008 1.02388750667825e-008
  outer loop
    vertex -229.659288507163 187.54106122438 0.63278182691679
    vertex -229.659287994885 195.04106122438 26.4007315411382
    vertex -229.659287980952 195.523423134175 26.2009306961288
  endloop
endfacet
facet normal -0.999999999999999 3.31257999057044e-008 1.02388750667825e-008
  outer loop
    vertex -229.659288507163 187.54106122438 0.63278182691679
    vertex -229.659287980952 195.523423134175 26.2009306961288
    vertex -229.659287964502 196.04106122438 26.1327823487073
  endloop
endfacet
facet normal -2.0047432911467e-008 -0.79335334029124 0.608761429008714
  outer loop
    vertex -219.459287686366 199.930148183023 43.7436944259549
    vertex -222.459287628459 200.804200706689 44.8827817531977
    vertex -222.459287686366 199.9301482824 43.7436944566712
  endloop
endfacet
facet normal -2.0047432911467e-008 -0.79335334029124 0.608761429008714
  outer loop
    vertex -222.459287628459 200.804200706689 44.8827817531977
    vertex -219.459287686366 199.930148183023 43.7436944259549
    vertex -219.459287628459 200.804200607311 44.8827817224808
  endloop
endfacet
facet normal -2.66860020922512e-008 -0.923879532511288 0.382683432365085
  outer loop
    vertex -219.459287628459 200.804200607311 44.8827817224808
    vertex -222.459287592057 201.353653030464 46.2092770051334
    vertex -222.459287628459 200.804200706689 44.8827817531977
  endloop
endfacet
facet normal -2.66860020922512e-008 -0.923879532511288 0.382683432365085
  outer loop
    vertex -222.459287592057 201.353653030464 46.2092770051334
    vertex -219.459287628459 200.804200607311 44.8827817224808
    vertex -219.459287592057 201.353652931087 46.2092769744168
  endloop
endfacet
facet normal -3.15059644274652e-008 -0.99144486137381 0.130526192220053
  outer loop
    vertex -219.459287592057 201.353652931087 46.2092769744168
    vertex -222.459287579641 201.541060985874 47.6327817531974
    vertex -222.459287592057 201.353653030464 46.2092770051334
  endloop
endfacet
facet normal -3.15059644274652e-008 -0.99144486137381 0.130526192220053
  outer loop
    vertex -222.459287579641 201.541060985874 47.6327817531974
    vertex -219.459287592057 201.353652931087 46.2092769744168
    vertex -219.459287579641 201.541060886497 47.6327817224808
  endloop
endfacet
facet normal 3.21720797343929e-009 0.382683432365092 -0.923879532511286
  outer loop
    vertex -222.459288038334 194.617556237811 13.9453737977871
    vertex -219.459288126216 193.291060886497 13.3959214432954
    vertex -222.459288126216 193.291060985874 13.395921474012
  endloop
endfacet
facet normal 3.21720797343929e-009 0.382683432365092 -0.923879532511286
  outer loop
    vertex -219.459288126216 193.291060886497 13.3959214432954
    vertex -222.459288038334 194.617556237811 13.9453737977871
    vertex -219.459288038334 194.617556138433 13.9453737670704
  endloop
endfacet
facet normal 5.82749611967118e-009 -0.130526192220055 0.99144486137381
  outer loop
    vertex -219.459287849715 197.464565634561 3.32018967789106
    vertex -222.459287944024 196.041060985875 3.13278175319721
    vertex -219.459287944024 196.041060886497 3.13278172248045
  endloop
endfacet
facet normal 5.82749611967118e-009 -0.130526192220055 0.99144486137381
  outer loop
    vertex -222.459287944024 196.041060985875 3.13278175319721
    vertex -219.459287849715 197.464565634561 3.32018967789106
    vertex -222.459287849715 197.464565733938 3.3201897086076
  endloop
endfacet
facet normal 3.45224981888347e-008 0.923879532511286 0.382683432365091
  outer loop
    vertex -219.459288295992 190.728468841907 7.20927697441653
    vertex -222.45928825959 191.27792126506 5.88278175319697
    vertex -222.459288295992 190.728468941285 7.20927700513333
  endloop
endfacet
facet normal 3.45224981888347e-008 0.923879532511286 0.382683432365091
  outer loop
    vertex -222.45928825959 191.27792126506 5.88278175319697
    vertex -219.459288295992 190.728468841907 7.20927697441653
    vertex -219.45928825959 191.277921165683 5.88278172248053
  endloop
endfacet
facet normal 1.44750657977847e-008 0.130526192220045 0.991444861373811
  outer loop
    vertex -219.459287944025 196.041060886497 42.1327817224805
    vertex -222.459288038334 194.617556237811 42.3201897086075
    vertex -219.459288038334 194.617556138433 42.3201896778907
  endloop
endfacet
facet normal 1.44750657977847e-008 0.130526192220045 0.991444861373811
  outer loop
    vertex -222.459288038334 194.617556237811 42.3201897086075
    vertex -219.459287944025 196.041060886497 42.1327817224805
    vertex -222.459287944024 196.041060985874 42.1327817531973
  endloop
endfacet
facet normal -5.82749607803759e-009 0.130526192220061 -0.991444861373809
  outer loop
    vertex -222.459288038334 194.617556237811 52.9453737977873
    vertex -219.459287944025 196.041060886497 53.1327817224807
    vertex -219.459288038334 194.617556138433 52.9453737670707
  endloop
endfacet
facet normal -5.82749607803759e-009 0.130526192220061 -0.991444861373809
  outer loop
    vertex -219.459287944025 196.041060886497 53.1327817224807
    vertex -222.459288038334 194.617556237811 52.9453737977873
    vertex -222.459287944025 196.041060985874 53.1327817531973
  endloop
endfacet
facet normal -3.15059644274652e-008 -0.99144486137381 0.130526192220053
  outer loop
    vertex -219.459287592056 201.353652931087 7.20927697441662
    vertex -222.45928757964 201.541060985874 8.63278175319744
    vertex -222.459287592057 201.353653030464 7.20927700513324
  endloop
endfacet
facet normal -3.15059644274652e-008 -0.99144486137381 0.130526192220053
  outer loop
    vertex -222.45928757964 201.541060985874 8.63278175319744
    vertex -219.459287592056 201.353652931087 7.20927697441662
    vertex -219.45928757964 201.541060886497 8.63278172248091
  endloop
endfacet
facet normal -3.45224980014844e-008 -0.92387953251128 -0.382683432365103
  outer loop
    vertex -222.459287592057 201.353653030464 10.056286501261
    vertex -219.459287628458 200.804200607312 11.3827817224808
    vertex -222.459287628458 200.804200706689 11.3827817531976
  endloop
endfacet
facet normal -3.45224980014844e-008 -0.92387953251128 -0.382683432365103
  outer loop
    vertex -219.459287628458 200.804200607312 11.3827817224808
    vertex -222.459287592057 201.353653030464 10.056286501261
    vertex -219.459287592057 201.353652931087 10.0562864705444
  endloop
endfacet
facet normal 3.41788473019891e-008 0.99144486137381 0.130526192220053
  outer loop
    vertex -219.459288308408 190.541060886497 8.63278172248058
    vertex -222.459288295992 190.728468941285 7.20927700513333
    vertex -222.459288308408 190.541060985875 8.63278175319693
  endloop
endfacet
facet normal 3.41788473019891e-008 0.99144486137381 0.130526192220053
  outer loop
    vertex -222.459288295992 190.728468941285 7.20927700513333
    vertex -219.459288308408 190.541060886497 8.63278172248058
    vertex -219.459288295992 190.728468841907 7.20927697441653
  endloop
endfacet
facet normal -2.82887562458592e-008 -0.60876142900872 -0.793353340291236
  outer loop
    vertex -222.459287686366 199.9301482824 12.5218690497234
    vertex -219.459287761832 198.791060886497 13.3959214432949
    vertex -222.459287761832 198.791060985874 13.3959214740119
  endloop
endfacet
facet normal -2.82887562458592e-008 -0.60876142900872 -0.793353340291236
  outer loop
    vertex -219.459287761832 198.791060886497 13.3959214432949
    vertex -222.459287686366 199.9301482824 12.5218690497234
    vertex -219.459287686366 199.930148183023 12.5218690190065
  endloop
endfacet
facet normal -3.41788472464779e-008 -0.99144486137381 -0.130526192220054
  outer loop
    vertex -222.459287579641 201.541060985874 47.6327817531974
    vertex -219.459287592057 201.353652931087 49.0562864705443
    vertex -222.459287592057 201.353653030464 49.0562865012613
  endloop
endfacet
facet normal -3.41788472464779e-008 -0.99144486137381 -0.130526192220054
  outer loop
    vertex -219.459287592057 201.353652931087 49.0562864705443
    vertex -222.459287579641 201.541060985874 47.6327817531974
    vertex -219.459287579641 201.541060886497 47.6327817224808
  endloop
endfacet
facet normal 3.25134980245722e-008 0.793353340291235 0.60876142900872
  outer loop
    vertex -219.45928825959 191.277921165683 5.88278172248053
    vertex -222.459288201682 192.151973689349 4.74369445667107
    vertex -222.45928825959 191.27792126506 5.88278175319697
  endloop
endfacet
facet normal 3.25134980245722e-008 0.793353340291235 0.60876142900872
  outer loop
    vertex -222.459288201682 192.151973689349 4.74369445667107
    vertex -219.45928825959 191.277921165683 5.88278172248053
    vertex -219.459288201682 192.151973589971 4.7436944259547
  endloop
endfacet
facet normal 2.21361831336664e-008 0.382683432365098 0.923879532511283
  outer loop
    vertex -219.459288038333 194.617556138433 3.32018967789082
    vertex -222.459288126216 193.291060985875 3.86964203238319
    vertex -219.459288126216 193.291060886497 3.8696420016663
  endloop
endfacet
facet normal 2.21361831336664e-008 0.382683432365098 0.923879532511283
  outer loop
    vertex -222.459288126216 193.291060985875 3.86964203238319
    vertex -219.459288038333 194.617556138433 3.32018967789082
    vertex -222.459288038334 194.617556237811 3.32018970860737
  endloop
endfacet
facet normal 2.82887562458592e-008 0.60876142900872 0.793353340291236
  outer loop
    vertex -219.459288126216 193.291060886497 42.8696420016664
    vertex -222.459288201683 192.151973689348 43.743694456671
    vertex -219.459288201683 192.151973589971 43.7436944259544
  endloop
endfacet
facet normal 2.82887562458592e-008 0.60876142900872 0.793353340291236
  outer loop
    vertex -222.459288201683 192.151973689348 43.743694456671
    vertex -219.459288126216 193.291060886497 42.8696420016664
    vertex -222.459288126216 193.291060985874 42.8696420323832
  endloop
endfacet
facet normal -3.41788473019891e-008 -0.99144486137381 -0.130526192220053
  outer loop
    vertex -222.45928757964 201.541060985874 8.63278175319744
    vertex -219.459287592057 201.353652931087 10.0562864705444
    vertex -222.459287592057 201.353653030464 10.056286501261
  endloop
endfacet
facet normal -3.41788473019891e-008 -0.99144486137381 -0.130526192220053
  outer loop
    vertex -219.459287592057 201.353652931087 10.0562864705444
    vertex -222.45928757964 201.541060985874 8.63278175319744
    vertex -219.45928757964 201.541060886497 8.63278172248091
  endloop
endfacet
facet normal 2.00474327518721e-008 0.79335334029123 -0.608761429008728
  outer loop
    vertex -222.459288201683 192.151973689348 12.5218690497232
    vertex -219.45928825959 191.277921165683 11.3827817224806
    vertex -222.45928825959 191.27792126506 11.3827817531972
  endloop
endfacet
facet normal 2.00474327518721e-008 0.79335334029123 -0.608761429008728
  outer loop
    vertex -219.45928825959 191.277921165683 11.3827817224806
    vertex -222.459288201683 192.151973689348 12.5218690497232
    vertex -219.459288201682 192.151973589971 12.5218690190067
  endloop
endfacet
facet normal -5.82749605028227e-009 0.130526192220054 -0.99144486137381
  outer loop
    vertex -222.459288038334 194.617556237811 13.9453737977871
    vertex -219.459287944024 196.041060886497 14.1327817224805
    vertex -219.459288038334 194.617556138433 13.9453737670704
  endloop
endfacet
facet normal -5.82749605028227e-009 0.130526192220054 -0.99144486137381
  outer loop
    vertex -219.459287944024 196.041060886497 14.1327817224805
    vertex -222.459288038334 194.617556237811 13.9453737977871
    vertex -222.459287944024 196.041060985875 14.1327817531972
  endloop
endfacet
facet normal -3.45224981541402e-008 -0.923879532511283 -0.382683432365098
  outer loop
    vertex -222.459287592057 201.353653030464 49.0562865012613
    vertex -219.459287628459 200.804200607311 50.3827817224809
    vertex -222.459287628459 200.804200706689 50.3827817531977
  endloop
endfacet
facet normal -3.45224981541402e-008 -0.923879532511283 -0.382683432365098
  outer loop
    vertex -219.459287628459 200.804200607311 50.3827817224809
    vertex -222.459287592057 201.353653030464 49.0562865012613
    vertex -219.459287592057 201.353652931087 49.0562864705443
  endloop
endfacet
facet normal 2.66860020922512e-008 0.923879532511288 -0.382683432365085
  outer loop
    vertex -222.45928825959 191.27792126506 11.3827817531972
    vertex -219.459288295992 190.728468841907 10.0562864705445
    vertex -222.459288295992 190.728468941285 10.056286501261
  endloop
endfacet
facet normal 2.66860020922512e-008 0.923879532511288 -0.382683432365085
  outer loop
    vertex -219.459288295992 190.728468841907 10.0562864705445
    vertex -222.45928825959 191.27792126506 11.3827817531972
    vertex -219.45928825959 191.277921165683 11.3827817224806
  endloop
endfacet
facet normal -1.44750659365626e-008 -0.130526192220046 -0.991444861373811
  outer loop
    vertex -222.459287944024 196.041060985875 14.1327817531972
    vertex -219.459287849715 197.464565634561 13.9453737670706
    vertex -219.459287944024 196.041060886497 14.1327817224805
  endloop
endfacet
facet normal -1.44750659365626e-008 -0.130526192220046 -0.991444861373811
  outer loop
    vertex -219.459287849715 197.464565634561 13.9453737670706
    vertex -222.459287944024 196.041060985875 14.1327817531972
    vertex -222.459287849715 197.464565733938 13.9453737977871
  endloop
endfacet
facet normal 3.15059644257305e-008 0.991444861373811 -0.130526192220046
  outer loop
    vertex -222.459288295992 190.728468941285 10.056286501261
    vertex -219.459288308408 190.541060886497 8.63278172248058
    vertex -222.459288308408 190.541060985875 8.63278175319693
  endloop
endfacet
facet normal 3.15059644257305e-008 0.991444861373811 -0.130526192220046
  outer loop
    vertex -219.459288308408 190.541060886497 8.63278172248058
    vertex -222.459288295992 190.728468941285 10.056286501261
    vertex -219.459288295992 190.728468841907 10.0562864705445
  endloop
endfacet
facet normal -3.25134980245722e-008 -0.793353340291235 -0.60876142900872
  outer loop
    vertex -222.459287628459 200.804200706689 50.3827817531977
    vertex -219.459287686366 199.930148183023 51.5218690190067
    vertex -222.459287686366 199.9301482824 51.5218690497235
  endloop
endfacet
facet normal -3.25134980245722e-008 -0.793353340291235 -0.60876142900872
  outer loop
    vertex -219.459287686366 199.930148183023 51.5218690190067
    vertex -222.459287628459 200.804200706689 50.3827817531977
    vertex -219.459287628459 200.804200607311 50.3827817224809
  endloop
endfacet
facet normal -2.0047432911467e-008 -0.79335334029124 0.608761429008714
  outer loop
    vertex -219.459287686366 199.930148183023 4.74369442595456
    vertex -222.459287628458 200.804200706689 5.88278175319766
    vertex -222.459287686366 199.930148282401 4.74369445667137
  endloop
endfacet
facet normal -2.0047432911467e-008 -0.79335334029124 0.608761429008714
  outer loop
    vertex -222.459287628458 200.804200706689 5.88278175319766
    vertex -219.459287686366 199.930148183023 4.74369442595456
    vertex -219.459287628458 200.804200607311 5.88278172248081
  endloop
endfacet
facet normal 1.44750657977847e-008 0.130526192220045 0.991444861373811
  outer loop
    vertex -219.459287944024 196.041060886497 3.13278172248045
    vertex -222.459288038334 194.617556237811 3.32018970860737
    vertex -219.459288038333 194.617556138433 3.32018967789082
  endloop
endfacet
facet normal 1.44750657977847e-008 0.130526192220045 0.991444861373811
  outer loop
    vertex -222.459288038334 194.617556237811 3.32018970860737
    vertex -219.459287944024 196.041060886497 3.13278172248045
    vertex -222.459287944024 196.041060985875 3.13278175319721
  endloop
endfacet
facet normal -3.25134980245722e-008 -0.793353340291235 -0.60876142900872
  outer loop
    vertex -222.459287628458 200.804200706689 11.3827817531976
    vertex -219.459287686366 199.930148183023 12.5218690190065
    vertex -222.459287686366 199.9301482824 12.5218690497234
  endloop
endfacet
facet normal -3.25134980245722e-008 -0.793353340291235 -0.60876142900872
  outer loop
    vertex -219.459287686366 199.930148183023 12.5218690190065
    vertex -222.459287628458 200.804200706689 11.3827817531976
    vertex -219.459287628458 200.804200607312 11.3827817224808
  endloop
endfacet
facet normal 2.21361830642771e-008 0.382683432365084 0.923879532511289
  outer loop
    vertex -219.459288126216 193.291060886497 42.8696420016664
    vertex -222.459288038334 194.617556237811 42.3201897086075
    vertex -222.459288126216 193.291060985874 42.8696420323832
  endloop
endfacet
facet normal 2.21361830642771e-008 0.382683432365084 0.923879532511289
  outer loop
    vertex -222.459288038334 194.617556237811 42.3201897086075
    vertex -219.459288126216 193.291060886497 42.8696420016664
    vertex -219.459288038334 194.617556138433 42.3201896778907
  endloop
endfacet
facet normal 3.25134979551832e-008 0.793353340291232 0.608761429008724
  outer loop
    vertex -219.45928825959 191.277921165683 44.8827817224805
    vertex -222.459288201683 192.151973689348 43.743694456671
    vertex -222.45928825959 191.27792126506 44.8827817531972
  endloop
endfacet
facet normal 3.25134979551832e-008 0.793353340291232 0.608761429008724
  outer loop
    vertex -222.459288201683 192.151973689348 43.743694456671
    vertex -219.45928825959 191.277921165683 44.8827817224805
    vertex -219.459288201683 192.151973589971 43.7436944259544
  endloop
endfacet
facet normal 1.2042664050362e-008 0.608761429008729 -0.793353340291228
  outer loop
    vertex -222.459288126216 193.291060985874 13.395921474012
    vertex -219.459288201682 192.151973589971 12.5218690190067
    vertex -222.459288201683 192.151973689348 12.5218690497232
  endloop
endfacet
facet normal 1.2042664050362e-008 0.608761429008729 -0.793353340291228
  outer loop
    vertex -219.459288201682 192.151973589971 12.5218690190067
    vertex -222.459288126216 193.291060985874 13.395921474012
    vertex -219.459288126216 193.291060886497 13.3959214432954
  endloop
endfacet
facet normal 5.82749611967118e-009 -0.130526192220055 0.99144486137381
  outer loop
    vertex -219.459287944025 196.041060886497 42.1327817224805
    vertex -222.459287849715 197.464565733938 42.3201897086076
    vertex -222.459287944024 196.041060985874 42.1327817531973
  endloop
endfacet
facet normal 5.82749611967118e-009 -0.130526192220055 0.99144486137381
  outer loop
    vertex -222.459287849715 197.464565733938 42.3201897086076
    vertex -219.459287944025 196.041060886497 42.1327817224805
    vertex -219.459287849715 197.464565634561 42.3201896778908
  endloop
endfacet
facet normal 3.45224981888347e-008 0.923879532511286 0.382683432365091
  outer loop
    vertex -219.459288295992 190.728468841907 46.2092769744168
    vertex -222.45928825959 191.27792126506 44.8827817531972
    vertex -222.459288295992 190.728468941285 46.2092770051332
  endloop
endfacet
facet normal 3.45224981888347e-008 0.923879532511286 0.382683432365091
  outer loop
    vertex -222.45928825959 191.27792126506 44.8827817531972
    vertex -219.459288295992 190.728468841907 46.2092769744168
    vertex -219.45928825959 191.277921165683 44.8827817224805
  endloop
endfacet
facet normal -2.66860020922512e-008 -0.923879532511288 0.382683432365085
  outer loop
    vertex -219.459287628458 200.804200607311 5.88278172248081
    vertex -222.459287592057 201.353653030464 7.20927700513324
    vertex -222.459287628458 200.804200706689 5.88278175319766
  endloop
endfacet
facet normal -2.66860020922512e-008 -0.923879532511288 0.382683432365085
  outer loop
    vertex -222.459287592057 201.353653030464 7.20927700513324
    vertex -219.459287628458 200.804200607311 5.88278172248081
    vertex -219.459287592056 201.353652931087 7.20927697441662
  endloop
endfacet
facet normal -3.21720797343929e-009 -0.382683432365092 0.923879532511286
  outer loop
    vertex -219.459287761833 198.791060886497 42.869642001666
    vertex -222.459287849715 197.464565733938 42.3201897086076
    vertex -219.459287849715 197.464565634561 42.3201896778908
  endloop
endfacet
facet normal -3.21720797343929e-009 -0.382683432365092 0.923879532511286
  outer loop
    vertex -222.459287849715 197.464565733938 42.3201897086076
    vertex -219.459287761833 198.791060886497 42.869642001666
    vertex -222.459287761833 198.791060985874 42.8696420323827
  endloop
endfacet
facet normal 2.00474327865668e-008 0.793353340291236 -0.60876142900872
  outer loop
    vertex -222.459288201683 192.151973689348 51.5218690497234
    vertex -219.45928825959 191.277921165683 50.3827817224805
    vertex -222.45928825959 191.27792126506 50.3827817531973
  endloop
endfacet
facet normal 2.00474327865668e-008 0.793353340291236 -0.60876142900872
  outer loop
    vertex -219.45928825959 191.277921165683 50.3827817224805
    vertex -222.459288201683 192.151973689348 51.5218690497234
    vertex -219.459288201683 192.151973589971 51.5218690190069
  endloop
endfacet
facet normal 2.82887567315814e-008 0.60876142900871 0.793353340291243
  outer loop
    vertex -219.459288126216 193.291060886497 3.8696420016663
    vertex -222.459288201682 192.151973689349 4.74369445667107
    vertex -219.459288201682 192.151973589971 4.7436944259547
  endloop
endfacet
facet normal 2.82887567315814e-008 0.60876142900871 0.793353340291243
  outer loop
    vertex -222.459288201682 192.151973689349 4.74369445667107
    vertex -219.459288126216 193.291060886497 3.8696420016663
    vertex -222.459288126216 193.291060985875 3.86964203238319
  endloop
endfacet
facet normal 3.41788473019891e-008 0.99144486137381 0.130526192220053
  outer loop
    vertex -219.459288308409 190.541060886497 47.6327817224805
    vertex -222.459288295992 190.728468941285 46.2092770051332
    vertex -222.459288308409 190.541060985874 47.6327817531971
  endloop
endfacet
facet normal 3.41788473019891e-008 0.99144486137381 0.130526192220053
  outer loop
    vertex -222.459288295992 190.728468941285 46.2092770051332
    vertex -219.459288308409 190.541060886497 47.6327817224805
    vertex -219.459288295992 190.728468841907 46.2092769744168
  endloop
endfacet
facet normal 3.15059643823624e-008 0.991444861373811 -0.130526192220047
  outer loop
    vertex -222.459288295992 190.728468941285 49.0562865012608
    vertex -219.459288308409 190.541060886497 47.6327817224805
    vertex -222.459288308409 190.541060985874 47.6327817531971
  endloop
endfacet
facet normal 3.15059643823624e-008 0.991444861373811 -0.130526192220047
  outer loop
    vertex -219.459288308409 190.541060886497 47.6327817224805
    vertex -222.459288295992 190.728468941285 49.0562865012608
    vertex -219.459288295992 190.728468841907 49.0562864705443
  endloop
endfacet
facet normal 2.66860020922512e-008 0.923879532511288 -0.382683432365085
  outer loop
    vertex -222.45928825959 191.27792126506 50.3827817531973
    vertex -219.459288295992 190.728468841907 49.0562864705443
    vertex -222.459288295992 190.728468941285 49.0562865012608
  endloop
endfacet
facet normal 2.66860020922512e-008 0.923879532511288 -0.382683432365085
  outer loop
    vertex -219.459288295992 190.728468841907 49.0562864705443
    vertex -222.45928825959 191.27792126506 50.3827817531973
    vertex -219.45928825959 191.277921165683 50.3827817224805
  endloop
endfacet
facet normal -1.02388754835702e-008 2.9798143492427e-015 -1.0
  outer loop
    vertex -229.659288507163 187.54106122438 0.63278182691679
    vertex -219.459287380886 204.541060886497 0.632781722480278
    vertex -219.459288507163 187.541060886497 0.632781722480188
  endloop
endfacet
facet normal -1.02388754835702e-008 2.9798143492427e-015 -1.0
  outer loop
    vertex -219.459287380886 204.541060886497 0.632781722480278
    vertex -229.659288507163 187.54106122438 0.63278182691679
    vertex -229.659287380886 204.54106122438 0.63278182691706
  endloop
endfacet
facet normal 3.31258016878204e-008 0.999999999999999 3.4234266460777e-015
  outer loop
    vertex -229.659287380886 204.54106122438 55.632781826917
    vertex -219.459287380886 204.541060886497 0.632781722480278
    vertex -229.659287380886 204.54106122438 0.63278182691706
  endloop
endfacet
facet normal 3.31258016878204e-008 0.999999999999999 3.4234266460777e-015
  outer loop
    vertex -219.459287380886 204.541060886497 0.632781722480278
    vertex -229.659287380886 204.54106122438 55.632781826917
    vertex -219.459287380886 204.541060886497 55.6327817224803
  endloop
endfacet
facet normal 1.0238877808499e-008 6.13870554806521e-008 0.999999999999998
  outer loop
    vertex -219.459287380886 204.541060886497 55.6327817224803
    vertex -229.659287380886 187.54106122438 55.6327828704969
    vertex -219.459287380886 187.541060886497 55.6327827660605
  endloop
endfacet
facet normal 1.0238877808499e-008 6.13870554806521e-008 0.999999999999998
  outer loop
    vertex -229.659287380886 187.54106122438 55.6327828704969
    vertex -219.459287380886 204.541060886497 55.6327817224803
    vertex -229.659287380886 204.54106122438 55.632781826917
  endloop
endfacet
facet normal -3.31258016878204e-008 -0.999999999999999 -2.05088421454249e-016
  outer loop
    vertex -219.459288507163 187.541060886497 0.632781722480188
    vertex -229.659287380886 187.54106122438 55.6327828704969
    vertex -229.659288507163 187.54106122438 0.63278182691679
  endloop
endfacet
facet normal -3.31258016878204e-008 -0.999999999999999 -2.05088421454249e-016
  outer loop
    vertex -229.659287380886 187.54106122438 55.6327828704969
    vertex -219.459288507163 187.541060886497 0.632781722480188
    vertex -219.459287380886 187.541060886497 55.6327827660605
  endloop
endfacet
facet normal 0.999999999999999 -3.31258016878203e-008 -1.02388755945927e-008
  outer loop
    vertex -219.459287380886 187.541060886497 55.6327827660605
    vertex -219.459288038334 194.617556138433 52.9453737670707
    vertex -219.459287380886 204.541060886497 55.6327817224803
  endloop
endfacet
facet normal 0.999999999999999 -3.31258016878203e-008 -1.02388755945927e-008
  outer loop
    vertex -219.459288038334 194.617556138433 52.9453737670707
    vertex -219.459287380886 187.541060886497 55.6327827660605
    vertex -219.459288126216 193.291060886497 52.3959214432954
  endloop
endfacet
facet normal 0.999999999999999 -3.31258016878203e-008 -1.02388755945927e-008
  outer loop
    vertex -219.459288126216 193.291060886497 52.3959214432954
    vertex -219.459287380886 187.541060886497 55.6327827660605
    vertex -219.459288201683 192.151973589971 51.5218690190069
  endloop
endfacet
facet normal 0.999999999999999 -3.31258016878203e-008 -1.02388755945927e-008
  outer loop
    vertex -219.459288201683 192.151973589971 51.5218690190069
    vertex -219.459287380886 187.541060886497 55.6327827660605
    vertex -219.45928825959 191.277921165683 50.3827817224805
  endloop
endfacet
facet normal 0.999999999999999 -3.31258016878203e-008 -1.02388755945927e-008
  outer loop
    vertex -219.45928825959 191.277921165683 50.3827817224805
    vertex -219.459287380886 187.541060886497 55.6327827660605
    vertex -219.459288295992 190.728468841907 49.0562864705443
  endloop
endfacet
facet normal 0.999999999999999 -3.31258016878203e-008 -1.02388755945927e-008
  outer loop
    vertex -219.459288295992 190.728468841907 49.0562864705443
    vertex -219.459287380886 187.541060886497 55.6327827660605
    vertex -219.459288308409 190.541060886497 47.6327817224805
  endloop
endfacet
facet normal 0.999999999999999 -3.31258016878203e-008 -1.02388755945927e-008
  outer loop
    vertex -219.459288308409 190.541060886497 47.6327817224805
    vertex -219.459287380886 187.541060886497 55.6327827660605
    vertex -219.459288507163 187.541060886497 0.632781722480188
  endloop
endfacet
facet normal 0.999999999999999 -3.31258016878203e-008 -1.02388755945927e-008
  outer loop
    vertex -219.459287380886 204.541060886497 55.6327817224803
    vertex -219.459288038334 194.617556138433 52.9453737670707
    vertex -219.459287944025 196.041060886497 53.1327817224807
  endloop
endfacet
facet normal 0.999999999999999 -3.31258016878203e-008 -1.02388755945927e-008
  outer loop
    vertex -219.459288308409 190.541060886497 47.6327817224805
    vertex -219.459288507163 187.541060886497 0.632781722480188
    vertex -219.459288295992 190.728468841907 46.2092769744168
  endloop
endfacet
facet normal 0.999999999999999 -3.31258016878203e-008 -1.02388755945927e-008
  outer loop
    vertex -219.459288295992 190.728468841907 46.2092769744168
    vertex -219.459288507163 187.541060886497 0.632781722480188
    vertex -219.45928825959 191.277921165683 44.8827817224805
  endloop
endfacet
facet normal 0.999999999999999 -3.31258016878203e-008 -1.02388755945927e-008
  outer loop
    vertex -219.45928825959 191.277921165683 44.8827817224805
    vertex -219.459288507163 187.541060886497 0.632781722480188
    vertex -219.459288201683 192.151973589971 43.7436944259544
  endloop
endfacet
facet normal 0.999999999999999 -3.31258016878203e-008 -1.02388755945927e-008
  outer loop
    vertex -219.459288201683 192.151973589971 43.7436944259544
    vertex -219.459288507163 187.541060886497 0.632781722480188
    vertex -219.459288126216 193.291060886497 42.8696420016664
  endloop
endfacet
facet normal 0.999999999999999 -3.31258016878203e-008 -1.02388755945927e-008
  outer loop
    vertex -219.459288126216 193.291060886497 42.8696420016664
    vertex -219.459288507163 187.541060886497 0.632781722480188
    vertex -219.459288038334 194.617556138433 42.3201896778907
  endloop
endfacet
facet normal 0.999999999999999 -3.31258016878203e-008 -1.02388755945927e-008
  outer loop
    vertex -219.459288038334 194.617556138433 42.3201896778907
    vertex -219.459288507163 187.541060886497 0.632781722480188
    vertex -219.459287944025 196.041060886497 42.1327817224805
  endloop
endfacet
facet normal 0.999999999999999 -3.31258016878203e-008 -1.02388755945927e-008
  outer loop
    vertex -219.459287944025 196.041060886497 42.1327817224805
    vertex -219.459288507163 187.541060886497 0.632781722480188
    vertex -219.459288002719 194.109209233919 28.6504203344756
  endloop
endfacet
facet normal 0.999999999999999 -3.31258016878203e-008 -1.02388755945927e-008
  outer loop
    vertex -219.459287944025 196.041060886497 42.1327817224805
    vertex -219.459288002719 194.109209233919 28.6504203344756
    vertex -219.459287991161 194.309010078928 29.1327822442703
  endloop
endfacet
facet normal 0.999999999999999 -3.31258016878203e-008 -1.02388755945927e-008
  outer loop
    vertex -219.459287944025 196.041060886497 42.1327817224805
    vertex -219.459287991161 194.309010078928 29.1327822442703
    vertex -219.459287976392 194.626847324124 29.5469958066433
  endloop
endfacet
facet normal 0.999999999999999 -3.31258016878203e-008 -1.02388755945927e-008
  outer loop
    vertex -219.459287944025 196.041060886497 42.1327817224805
    vertex -219.459287976392 194.626847324124 29.5469958066433
    vertex -219.459287959416 195.041060886497 29.8648330518396
  endloop
endfacet
facet normal 0.999999999999999 -3.31258016878203e-008 -1.02388755945927e-008
  outer loop
    vertex -219.459287944025 196.041060886497 42.1327817224805
    vertex -219.459287959416 195.041060886497 29.8648330518396
    vertex -219.459287941392 195.523422796292 30.0646338968486
  endloop
endfacet
facet normal 0.999999999999999 -3.31258016878203e-008 -1.02388755945927e-008
  outer loop
    vertex -219.459287944025 196.041060886497 42.1327817224805
    vertex -219.459287941392 195.523422796292 30.0646338968486
    vertex -219.459287923547 196.041060886497 30.1327822442704
  endloop
endfacet
facet normal 0.999999999999999 -3.31258016878203e-008 -1.02388755945927e-008
  outer loop
    vertex -219.459288002719 194.109209233919 28.6504203344756
    vertex -219.459288507163 187.541060886497 0.632781722480188
    vertex -219.459288010276 194.041060886497 28.1327822442706
  endloop
endfacet
facet normal 0.999999999999999 -3.31258016878203e-008 -1.02388755945927e-008
  outer loop
    vertex -219.459288010276 194.041060886497 28.1327822442706
    vertex -219.459288507163 187.541060886497 0.632781722480188
    vertex -219.459288013319 194.109209233919 27.6151441540653
  endloop
endfacet
facet normal 0.999999999999999 -3.31258016878203e-008 -1.02388755945927e-008
  outer loop
    vertex -219.459288013319 194.109209233919 27.6151441540653
    vertex -219.459288507163 187.541060886497 0.632781722480188
    vertex -219.459288011639 194.309010078928 27.1327822442705
  endloop
endfacet
facet normal 0.999999999999999 -3.31258016878203e-008 -1.02388755945927e-008
  outer loop
    vertex -219.459288011639 194.309010078928 27.1327822442705
    vertex -219.459288507163 187.541060886497 0.632781722480188
    vertex -219.459288005352 194.626847324124 26.7185686818972
  endloop
endfacet
facet normal 0.999999999999999 -3.31258016878203e-008 -1.02388755945927e-008
  outer loop
    vertex -219.459288005352 194.626847324124 26.7185686818972
    vertex -219.459288507163 187.541060886497 0.632781722480188
    vertex -219.459287994885 195.041060886497 26.4007314367019
  endloop
endfacet
facet normal 0.999999999999999 -3.31258016878203e-008 -1.02388755945927e-008
  outer loop
    vertex -219.459287994885 195.041060886497 26.4007314367019
    vertex -219.459288507163 187.541060886497 0.632781722480188
    vertex -219.459287980952 195.523422796292 26.2009305916925
  endloop
endfacet
facet normal 0.999999999999999 -3.31258016878203e-008 -1.02388755945927e-008
  outer loop
    vertex -219.459287980952 195.523422796292 26.2009305916925
    vertex -219.459288507163 187.541060886497 0.632781722480188
    vertex -219.459287964502 196.041060886497 26.1327822442705
  endloop
endfacet
facet normal 0.999999999999999 -3.31258016878203e-008 -1.02388755945927e-008
  outer loop
    vertex -219.459287964502 196.041060886497 26.1327822442705
    vertex -219.459288507163 187.541060886497 0.632781722480188
    vertex -219.459288295992 190.728468841907 10.0562864705445
  endloop
endfacet
facet normal 0.999999999999999 -3.31258016878203e-008 -1.02388755945927e-008
  outer loop
    vertex -219.459287964502 196.041060886497 26.1327822442705
    vertex -219.459288295992 190.728468841907 10.0562864705445
    vertex -219.45928825959 191.277921165683 11.3827817224806
  endloop
endfacet
facet normal 0.999999999999999 -3.31258016878203e-008 -1.02388755945927e-008
  outer loop
    vertex -219.459287964502 196.041060886497 26.1327822442705
    vertex -219.45928825959 191.277921165683 11.3827817224806
    vertex -219.459288201682 192.151973589971 12.5218690190067
  endloop
endfacet
facet normal 0.999999999999999 -3.31258016878203e-008 -1.02388755945927e-008
  outer loop
    vertex -219.459287964502 196.041060886497 26.1327822442705
    vertex -219.459288201682 192.151973589971 12.5218690190067
    vertex -219.459288126216 193.291060886497 13.3959214432954
  endloop
endfacet
facet normal 0.999999999999999 -3.31258016878203e-008 -1.02388755945927e-008
  outer loop
    vertex -219.459287964502 196.041060886497 26.1327822442705
    vertex -219.459288126216 193.291060886497 13.3959214432954
    vertex -219.459288038334 194.617556138433 13.9453737670704
  endloop
endfacet
facet normal 0.999999999999999 -3.31258016878203e-008 -1.02388755945927e-008
  outer loop
    vertex -219.459287964502 196.041060886497 26.1327822442705
    vertex -219.459288038334 194.617556138433 13.9453737670704
    vertex -219.459287944024 196.041060886497 14.1327817224805
  endloop
endfacet
facet normal 0.999999999999999 -3.31258016878203e-008 -1.02388755945927e-008
  outer loop
    vertex -219.459288295992 190.728468841907 10.0562864705445
    vertex -219.459288507163 187.541060886497 0.632781722480188
    vertex -219.459288308408 190.541060886497 8.63278172248058
  endloop
endfacet
facet normal 0.999999999999999 -3.31258016878203e-008 -1.02388755945927e-008
  outer loop
    vertex -219.459288308408 190.541060886497 8.63278172248058
    vertex -219.459288507163 187.541060886497 0.632781722480188
    vertex -219.459288295992 190.728468841907 7.20927697441653
  endloop
endfacet
facet normal 0.999999999999999 -3.31258016878203e-008 -1.02388755945927e-008
  outer loop
    vertex -219.459288295992 190.728468841907 7.20927697441653
    vertex -219.459288507163 187.541060886497 0.632781722480188
    vertex -219.45928825959 191.277921165683 5.88278172248053
  endloop
endfacet
facet normal 0.999999999999999 -3.31258016878203e-008 -1.02388755945927e-008
  outer loop
    vertex -219.45928825959 191.277921165683 5.88278172248053
    vertex -219.459288507163 187.541060886497 0.632781722480188
    vertex -219.459288201682 192.151973589971 4.7436944259547
  endloop
endfacet
facet normal 0.999999999999999 -3.31258016878203e-008 -1.02388755945927e-008
  outer loop
    vertex -219.459288201682 192.151973589971 4.7436944259547
    vertex -219.459288507163 187.541060886497 0.632781722480188
    vertex -219.459288126216 193.291060886497 3.8696420016663
  endloop
endfacet
facet normal 0.999999999999999 -3.31258016878203e-008 -1.02388755945927e-008
  outer loop
    vertex -219.459288126216 193.291060886497 3.8696420016663
    vertex -219.459288507163 187.541060886497 0.632781722480188
    vertex -219.459288038333 194.617556138433 3.32018967789082
  endloop
endfacet
facet normal 0.999999999999999 -3.31258016878203e-008 -1.02388755945927e-008
  outer loop
    vertex -219.459288038333 194.617556138433 3.32018967789082
    vertex -219.459288507163 187.541060886497 0.632781722480188
    vertex -219.459287944024 196.041060886497 3.13278172248045
  endloop
endfacet
facet normal 0.999999999999999 -3.31258016878203e-008 -1.02388755945927e-008
  outer loop
    vertex -219.459287380886 204.541060886497 55.6327817224803
    vertex -219.459287579641 201.541060886497 47.6327817224808
    vertex -219.459287380886 204.541060886497 0.632781722480278
  endloop
endfacet
facet normal 0.999999999999999 -3.31258016878203e-008 -1.02388755945927e-008
  outer loop
    vertex -219.459287579641 201.541060886497 47.6327817224808
    vertex -219.459287380886 204.541060886497 55.6327817224803
    vertex -219.459287592057 201.353652931087 49.0562864705443
  endloop
endfacet
facet normal 0.999999999999999 -3.31258016878203e-008 -1.02388755945927e-008
  outer loop
    vertex -219.459287592057 201.353652931087 49.0562864705443
    vertex -219.459287380886 204.541060886497 55.6327817224803
    vertex -219.459287628459 200.804200607311 50.3827817224809
  endloop
endfacet
facet normal 0.999999999999999 -3.31258016878203e-008 -1.02388755945927e-008
  outer loop
    vertex -219.459287628459 200.804200607311 50.3827817224809
    vertex -219.459287380886 204.541060886497 55.6327817224803
    vertex -219.459287686366 199.930148183023 51.5218690190067
  endloop
endfacet
facet normal 0.999999999999999 -3.31258016878203e-008 -1.02388755945927e-008
  outer loop
    vertex -219.459287686366 199.930148183023 51.5218690190067
    vertex -219.459287380886 204.541060886497 55.6327817224803
    vertex -219.459287761833 198.791060886497 52.395921443295
  endloop
endfacet
facet normal 0.999999999999999 -3.31258016878203e-008 -1.02388755945927e-008
  outer loop
    vertex -219.459287761833 198.791060886497 52.395921443295
    vertex -219.459287380886 204.541060886497 55.6327817224803
    vertex -219.459287849715 197.464565634561 52.9453737670706
  endloop
endfacet
facet normal 0.999999999999999 -3.31258016878203e-008 -1.02388755945927e-008
  outer loop
    vertex -219.459287849715 197.464565634561 52.9453737670706
    vertex -219.459287380886 204.541060886497 55.6327817224803
    vertex -219.459287944025 196.041060886497 53.1327817224807
  endloop
endfacet
facet normal 0.999999999999999 -3.31258016878203e-008 -1.02388755945927e-008
  outer loop
    vertex -219.459287380886 204.541060886497 0.632781722480278
    vertex -219.459287579641 201.541060886497 47.6327817224808
    vertex -219.459287592057 201.353652931087 46.2092769744168
  endloop
endfacet
facet normal 0.999999999999999 -3.31258016878203e-008 -1.02388755945927e-008
  outer loop
    vertex -219.459287380886 204.541060886497 0.632781722480278
    vertex -219.459287592057 201.353652931087 46.2092769744168
    vertex -219.459287628459 200.804200607311 44.8827817224808
  endloop
endfacet
facet normal 0.999999999999999 -3.31258016878203e-008 -1.02388755945927e-008
  outer loop
    vertex -219.459287380886 204.541060886497 0.632781722480278
    vertex -219.459287628459 200.804200607311 44.8827817224808
    vertex -219.459287686366 199.930148183023 43.7436944259549
  endloop
endfacet
facet normal 0.999999999999999 -3.31258016878203e-008 -1.02388755945927e-008
  outer loop
    vertex -219.459287380886 204.541060886497 0.632781722480278
    vertex -219.459287686366 199.930148183023 43.7436944259549
    vertex -219.459287761833 198.791060886497 42.869642001666
  endloop
endfacet
facet normal 0.999999999999999 -3.31258016878203e-008 -1.02388755945927e-008
  outer loop
    vertex -219.459287380886 204.541060886497 0.632781722480278
    vertex -219.459287761833 198.791060886497 42.869642001666
    vertex -219.459287849715 197.464565634561 42.3201896778908
  endloop
endfacet
facet normal 0.999999999999999 -3.31258016878203e-008 -1.02388755945927e-008
  outer loop
    vertex -219.459287380886 204.541060886497 0.632781722480278
    vertex -219.459287849715 197.464565634561 42.3201896778908
    vertex -219.459287944025 196.041060886497 42.1327817224805
  endloop
endfacet
facet normal 0.999999999999999 -3.31258016878203e-008 -1.02388755945927e-008
  outer loop
    vertex -219.459287380886 204.541060886497 0.632781722480278
    vertex -219.459287944025 196.041060886497 42.1327817224805
    vertex -219.45928787473 197.972912539075 28.6504203344757
  endloop
endfacet
facet normal 0.999999999999999 -3.31258016878203e-008 -1.02388755945927e-008
  outer loop
    vertex -219.45928787473 197.972912539075 28.6504203344757
    vertex -219.459287944025 196.041060886497 42.1327817224805
    vertex -219.45928787641 197.773111694066 29.1327822442709
  endloop
endfacet
facet normal 0.999999999999999 -3.31258016878203e-008 -1.02388755945927e-008
  outer loop
    vertex -219.45928787641 197.773111694066 29.1327822442709
    vertex -219.459287944025 196.041060886497 42.1327817224805
    vertex -219.459287882697 197.45527444887 29.5469958066437
  endloop
endfacet
facet normal 0.999999999999999 -3.31258016878203e-008 -1.02388755945927e-008
  outer loop
    vertex -219.459287882697 197.45527444887 29.5469958066437
    vertex -219.459287944025 196.041060886497 42.1327817224805
    vertex -219.459287893164 197.041060886497 29.8648330518396
  endloop
endfacet
facet normal 0.999999999999999 -3.31258016878203e-008 -1.02388755945927e-008
  outer loop
    vertex -219.459287893164 197.041060886497 29.8648330518396
    vertex -219.459287944025 196.041060886497 42.1327817224805
    vertex -219.459287907097 196.558698976702 30.0646338968484
  endloop
endfacet
facet normal 0.999999999999999 -3.31258016878203e-008 -1.02388755945927e-008
  outer loop
    vertex -219.459287907097 196.558698976702 30.0646338968484
    vertex -219.459287944025 196.041060886497 42.1327817224805
    vertex -219.459287923547 196.041060886497 30.1327822442704
  endloop
endfacet
facet normal 0.999999999999999 -3.31258016878203e-008 -1.02388755945927e-008
  outer loop
    vertex -219.459287380886 204.541060886497 0.632781722480278
    vertex -219.45928787473 197.972912539075 28.6504203344757
    vertex -219.459287877773 198.041060886497 28.1327822442709
  endloop
endfacet
facet normal 0.999999999999999 -3.31258016878203e-008 -1.02388755945927e-008
  outer loop
    vertex -219.459287380886 204.541060886497 0.632781722480278
    vertex -219.459287877773 198.041060886497 28.1327822442709
    vertex -219.45928788533 197.972912539075 27.6151441540654
  endloop
endfacet
facet normal 0.999999999999999 -3.31258016878203e-008 -1.02388755945927e-008
  outer loop
    vertex -219.459287380886 204.541060886497 0.632781722480278
    vertex -219.45928788533 197.972912539075 27.6151441540654
    vertex -219.459287896888 197.773111694066 27.1327822442709
  endloop
endfacet
facet normal 0.999999999999999 -3.31258016878203e-008 -1.02388755945927e-008
  outer loop
    vertex -219.459287380886 204.541060886497 0.632781722480278
    vertex -219.459287896888 197.773111694066 27.1327822442709
    vertex -219.459287911657 197.45527444887 26.7185686818976
  endloop
endfacet
facet normal 0.999999999999999 -3.31258016878203e-008 -1.02388755945927e-008
  outer loop
    vertex -219.459287380886 204.541060886497 0.632781722480278
    vertex -219.459287911657 197.45527444887 26.7185686818976
    vertex -219.459287928633 197.041060886497 26.4007314367019
  endloop
endfacet
facet normal 0.999999999999999 -3.31258016878203e-008 -1.02388755945927e-008
  outer loop
    vertex -219.459287380886 204.541060886497 0.632781722480278
    vertex -219.459287928633 197.041060886497 26.4007314367019
    vertex -219.459287946657 196.558698976702 26.2009305916924
  endloop
endfacet
facet normal 0.999999999999999 -3.31258016878203e-008 -1.02388755945927e-008
  outer loop
    vertex -219.459287380886 204.541060886497 0.632781722480278
    vertex -219.459287946657 196.558698976702 26.2009305916924
    vertex -219.459287964502 196.041060886497 26.1327822442705
  endloop
endfacet
facet normal 0.999999999999999 -3.31258016878203e-008 -1.02388755945927e-008
  outer loop
    vertex -219.459287380886 204.541060886497 0.632781722480278
    vertex -219.459287964502 196.041060886497 26.1327822442705
    vertex -219.459287592057 201.353652931087 10.0562864705444
  endloop
endfacet
facet normal 0.999999999999999 -3.31258016878203e-008 -1.02388755945927e-008
  outer loop
    vertex -219.459287592057 201.353652931087 10.0562864705444
    vertex -219.459287964502 196.041060886497 26.1327822442705
    vertex -219.459287628458 200.804200607312 11.3827817224808
  endloop
endfacet
facet normal 0.999999999999999 -3.31258016878203e-008 -1.02388755945927e-008
  outer loop
    vertex -219.459287628458 200.804200607312 11.3827817224808
    vertex -219.459287964502 196.041060886497 26.1327822442705
    vertex -219.459287686366 199.930148183023 12.5218690190065
  endloop
endfacet
facet normal 0.999999999999999 -3.31258016878203e-008 -1.02388755945927e-008
  outer loop
    vertex -219.459287686366 199.930148183023 12.5218690190065
    vertex -219.459287964502 196.041060886497 26.1327822442705
    vertex -219.459287761832 198.791060886497 13.3959214432949
  endloop
endfacet
facet normal 0.999999999999999 -3.31258016878203e-008 -1.02388755945927e-008
  outer loop
    vertex -219.459287761832 198.791060886497 13.3959214432949
    vertex -219.459287964502 196.041060886497 26.1327822442705
    vertex -219.459287849715 197.464565634561 13.9453737670706
  endloop
endfacet
facet normal 0.999999999999999 -3.31258016878203e-008 -1.02388755945927e-008
  outer loop
    vertex -219.459287849715 197.464565634561 13.9453737670706
    vertex -219.459287964502 196.041060886497 26.1327822442705
    vertex -219.459287944024 196.041060886497 14.1327817224805
  endloop
endfacet
facet normal 0.999999999999999 -3.31258016878203e-008 -1.02388755945927e-008
  outer loop
    vertex -219.459287380886 204.541060886497 0.632781722480278
    vertex -219.459287592057 201.353652931087 10.0562864705444
    vertex -219.45928757964 201.541060886497 8.63278172248091
  endloop
endfacet
facet normal 0.999999999999999 -3.31258016878203e-008 -1.02388755945927e-008
  outer loop
    vertex -219.459287380886 204.541060886497 0.632781722480278
    vertex -219.45928757964 201.541060886497 8.63278172248091
    vertex -219.459287592056 201.353652931087 7.20927697441662
  endloop
endfacet
facet normal 0.999999999999999 -3.31258016878203e-008 -1.02388755945927e-008
  outer loop
    vertex -219.459287380886 204.541060886497 0.632781722480278
    vertex -219.459287592056 201.353652931087 7.20927697441662
    vertex -219.459287628458 200.804200607311 5.88278172248081
  endloop
endfacet
facet normal 0.999999999999999 -3.31258016878203e-008 -1.02388755945927e-008
  outer loop
    vertex -219.459287380886 204.541060886497 0.632781722480278
    vertex -219.459287628458 200.804200607311 5.88278172248081
    vertex -219.459287686366 199.930148183023 4.74369442595456
  endloop
endfacet
facet normal 0.999999999999999 -3.31258016878203e-008 -1.02388755945927e-008
  outer loop
    vertex -219.459287380886 204.541060886497 0.632781722480278
    vertex -219.459287686366 199.930148183023 4.74369442595456
    vertex -219.459287761832 198.791060886497 3.86964200166634
  endloop
endfacet
facet normal 0.999999999999999 -3.31258016878203e-008 -1.02388755945927e-008
  outer loop
    vertex -219.459287380886 204.541060886497 0.632781722480278
    vertex -219.459287761832 198.791060886497 3.86964200166634
    vertex -219.459287849715 197.464565634561 3.32018967789106
  endloop
endfacet
facet normal 0.999999999999999 -3.31258016878203e-008 -1.02388755945927e-008
  outer loop
    vertex -219.459287380886 204.541060886497 0.632781722480278
    vertex -219.459287849715 197.464565634561 3.32018967789106
    vertex -219.459287944024 196.041060886497 3.13278172248045
  endloop
endfacet
facet normal 0.999999999999999 -3.31258016878203e-008 -1.02388755945927e-008
  outer loop
    vertex -219.459287380886 204.541060886497 0.632781722480278
    vertex -219.459287944024 196.041060886497 3.13278172248045
    vertex -219.459288507163 187.541060886497 0.632781722480188
  endloop
endfacet
facet normal -7.94697355153092e-009 -0.382683423234726 0.923879536293207
  outer loop
    vertex -219.459287761832 198.791060886497 3.86964200166634
    vertex -222.459287849715 197.464565733938 3.3201897086076
    vertex -219.459287849715 197.464565634561 3.32018967789106
  endloop
endfacet
facet normal -7.94697355153092e-009 -0.382683423234726 0.923879536293207
  outer loop
    vertex -222.459287849715 197.464565733938 3.3201897086076
    vertex -219.459287761832 198.791060886497 3.86964200166634
    vertex -222.459287805773 198.791060985875 3.86964200166631
  endloop
endfacet
facet normal -1.61041764797075e-008 -0.608761435741336 0.793353335125118
  outer loop
    vertex -219.459287686366 199.930148183023 4.74369442595456
    vertex -222.459287805773 198.791060985875 3.86964200166631
    vertex -219.459287761832 198.791060886497 3.86964200166634
  endloop
endfacet
facet normal -1.61041764797075e-008 -0.608761435741336 0.793353335125118
  outer loop
    vertex -222.459287805773 198.791060985875 3.86964200166631
    vertex -219.459287686366 199.930148183023 4.74369442595456
    vertex -222.459287686366 199.930148282401 4.74369445667137
  endloop
endfacet
facet normal 0.999999999999998 -6.59187238784525e-008 -5.76561243734523e-010
  outer loop
    vertex -222.459288038334 194.617556237811 13.9453737977871
    vertex -222.459287849715 197.464565733938 13.9453737977871
    vertex -222.459287944024 196.041060985875 14.1327817531972
  endloop
endfacet
facet normal 0.999999999999998 -6.59187238784525e-008 -5.76561243734523e-010
  outer loop
    vertex -222.459287849715 197.464565733938 13.9453737977871
    vertex -222.459288038334 194.617556237811 13.9453737977871
    vertex -222.459288126216 193.291060985874 13.395921474012
  endloop
endfacet
facet normal 0.999999999999998 -6.59187238784525e-008 -5.76561243734523e-010
  outer loop
    vertex -222.459287849715 197.464565733938 13.9453737977871
    vertex -222.459288126216 193.291060985874 13.395921474012
    vertex -222.459287761832 198.791060985874 13.3959214740119
  endloop
endfacet
facet normal 0.999999999999998 -6.59187238784525e-008 -5.76561243734523e-010
  outer loop
    vertex -222.459287761832 198.791060985874 13.3959214740119
    vertex -222.459288126216 193.291060985874 13.395921474012
    vertex -222.459288201683 192.151973689348 12.5218690497232
  endloop
endfacet
facet normal 0.999999999999998 -6.59187238784525e-008 -5.76561243734523e-010
  outer loop
    vertex -222.459287761832 198.791060985874 13.3959214740119
    vertex -222.459288201683 192.151973689348 12.5218690497232
    vertex -222.459287686366 199.9301482824 12.5218690497234
  endloop
endfacet
facet normal 0.999999999999998 -6.59187238784525e-008 -5.76561243734523e-010
  outer loop
    vertex -222.459287686366 199.9301482824 12.5218690497234
    vertex -222.459288201683 192.151973689348 12.5218690497232
    vertex -222.45928825959 191.27792126506 11.3827817531972
  endloop
endfacet
facet normal 0.999999999999998 -6.59187238784525e-008 -5.76561243734523e-010
  outer loop
    vertex -222.459287686366 199.9301482824 12.5218690497234
    vertex -222.45928825959 191.27792126506 11.3827817531972
    vertex -222.459287628458 200.804200706689 11.3827817531976
  endloop
endfacet
facet normal 0.999999999999998 -6.59187238784525e-008 -5.76561243734523e-010
  outer loop
    vertex -222.459287628458 200.804200706689 11.3827817531976
    vertex -222.45928825959 191.27792126506 11.3827817531972
    vertex -222.459288295992 190.728468941285 10.056286501261
  endloop
endfacet
facet normal 0.999999999999998 -6.59187238784525e-008 -5.76561243734523e-010
  outer loop
    vertex -222.459287628458 200.804200706689 11.3827817531976
    vertex -222.459288295992 190.728468941285 10.056286501261
    vertex -222.459287592057 201.353653030464 10.056286501261
  endloop
endfacet
facet normal 0.999999999999998 -6.59187238784525e-008 -5.76561243734523e-010
  outer loop
    vertex -222.459287592057 201.353653030464 10.056286501261
    vertex -222.459288295992 190.728468941285 10.056286501261
    vertex -222.459288308408 190.541060985875 8.63278175319693
  endloop
endfacet
facet normal 0.999999999999998 -6.59187238784525e-008 -5.76561243734523e-010
  outer loop
    vertex -222.459287592057 201.353653030464 10.056286501261
    vertex -222.459288308408 190.541060985875 8.63278175319693
    vertex -222.45928757964 201.541060985874 8.63278175319744
  endloop
endfacet
facet normal 0.999999999999998 -6.59187238784525e-008 -5.76561243734523e-010
  outer loop
    vertex -222.45928757964 201.541060985874 8.63278175319744
    vertex -222.459288308408 190.541060985875 8.63278175319693
    vertex -222.459288295992 190.728468941285 7.20927700513333
  endloop
endfacet
facet normal 0.999999999999998 -6.59187238784525e-008 -5.76561243734523e-010
  outer loop
    vertex -222.45928757964 201.541060985874 8.63278175319744
    vertex -222.459288295992 190.728468941285 7.20927700513333
    vertex -222.459287592057 201.353653030464 7.20927700513324
  endloop
endfacet
facet normal 0.999999999999998 -6.59187238784525e-008 -5.76561243734523e-010
  outer loop
    vertex -222.459287592057 201.353653030464 7.20927700513324
    vertex -222.459288295992 190.728468941285 7.20927700513333
    vertex -222.45928825959 191.27792126506 5.88278175319697
  endloop
endfacet
facet normal 0.999999999999998 -6.59187238784525e-008 -5.76561243734523e-010
  outer loop
    vertex -222.459287592057 201.353653030464 7.20927700513324
    vertex -222.45928825959 191.27792126506 5.88278175319697
    vertex -222.459287628458 200.804200706689 5.88278175319766
  endloop
endfacet
facet normal 0.999999999999998 -6.59187238784525e-008 -5.76561243734523e-010
  outer loop
    vertex -222.459287628458 200.804200706689 5.88278175319766
    vertex -222.45928825959 191.27792126506 5.88278175319697
    vertex -222.459288201682 192.151973689349 4.74369445667107
  endloop
endfacet
facet normal 0.999999999999998 -6.59187238784525e-008 -5.76561243734523e-010
  outer loop
    vertex -222.459287628458 200.804200706689 5.88278175319766
    vertex -222.459288201682 192.151973689349 4.74369445667107
    vertex -222.459287686366 199.930148282401 4.74369445667137
  endloop
endfacet
facet normal 0.999999999999998 -6.59187238784525e-008 -5.76561243734523e-010
  outer loop
    vertex -222.459287686366 199.930148282401 4.74369445667137
    vertex -222.459288201682 192.151973689349 4.74369445667107
    vertex -222.459288126216 193.291060985875 3.86964203238319
  endloop
endfacet
facet normal 0.999999999999998 -6.59187238784525e-008 -5.76561243734523e-010
  outer loop
    vertex -222.459287686366 199.930148282401 4.74369445667137
    vertex -222.459288126216 193.291060985875 3.86964203238319
    vertex -222.459287805773 198.791060985875 3.86964200166631
  endloop
endfacet
facet normal 0.999999999999998 -6.59187238784525e-008 -5.76561243734523e-010
  outer loop
    vertex -222.459287805773 198.791060985875 3.86964200166631
    vertex -222.459288126216 193.291060985875 3.86964203238319
    vertex -222.459288038334 194.617556237811 3.32018970860737
  endloop
endfacet
facet normal 0.999999999999998 -6.59187238784525e-008 -5.76561243734523e-010
  outer loop
    vertex -222.459287805773 198.791060985875 3.86964200166631
    vertex -222.459288038334 194.617556237811 3.32018970860737
    vertex -222.459287849715 197.464565733938 3.3201897086076
  endloop
endfacet
facet normal 0.999999999999998 -6.59187238784525e-008 -5.76561243734523e-010
  outer loop
    vertex -222.459287849715 197.464565733938 3.3201897086076
    vertex -222.459288038334 194.617556237811 3.32018970860737
    vertex -222.459287944024 196.041060985875 3.13278175319721
  endloop
endfacet
facet normal -2.21362220032881e-008 -0.382683432365089 -0.923879532511287
  outer loop
    vertex -222.459287761832 198.791060985874 13.3959214740119
    vertex -219.459287849715 197.464565634561 13.9453737670706
    vertex -222.459287849715 197.464565733938 13.9453737977871
  endloop
endfacet
facet normal -2.21362220032881e-008 -0.382683432365089 -0.923879532511287
  outer loop
    vertex -219.459287849715 197.464565634561 13.9453737670706
    vertex -222.459287761832 198.791060985874 13.3959214740119
    vertex -219.459287761832 198.791060886497 13.3959214432949
  endloop
endfacet
facet normal -2.82887699826648e-008 -0.608761429008644 -0.793353340291294
  outer loop
    vertex -222.459287686366 199.9301482824 51.5218690497235
    vertex -219.459287761833 198.791060886497 52.395921443295
    vertex -222.459287761833 198.791060985874 52.3959214740116
  endloop
endfacet
facet normal -2.82887699826648e-008 -0.608761429008644 -0.793353340291294
  outer loop
    vertex -219.459287761833 198.791060886497 52.395921443295
    vertex -222.459287686366 199.9301482824 51.5218690497235
    vertex -219.459287686366 199.930148183023 51.5218690190067
  endloop
endfacet
facet normal -2.21361499081463e-008 -0.382683432365164 -0.923879532511256
  outer loop
    vertex -222.459287849715 197.464565733938 52.9453737977872
    vertex -219.459287761833 198.791060886497 52.395921443295
    vertex -219.459287849715 197.464565634561 52.9453737670706
  endloop
endfacet
facet normal -2.21361499081463e-008 -0.382683432365164 -0.923879532511256
  outer loop
    vertex -219.459287761833 198.791060886497 52.395921443295
    vertex -222.459287849715 197.464565733938 52.9453737977872
    vertex -222.459287761833 198.791060985874 52.3959214740116
  endloop
endfacet
facet normal -1.44750412772775e-008 -0.130526192220014 -0.991444861373815
  outer loop
    vertex -222.459287944025 196.041060985874 53.1327817531973
    vertex -219.459287849715 197.464565634561 52.9453737670706
    vertex -219.459287944025 196.041060886497 53.1327817224807
  endloop
endfacet
facet normal -1.44750412772775e-008 -0.130526192220014 -0.991444861373815
  outer loop
    vertex -219.459287849715 197.464565634561 52.9453737670706
    vertex -222.459287944025 196.041060985874 53.1327817531973
    vertex -222.459287849715 197.464565733938 52.9453737977872
  endloop
endfacet
facet normal 3.21722836510528e-009 0.382683432364999 -0.923879532511324
  outer loop
    vertex -222.459288038334 194.617556237811 52.9453737977873
    vertex -219.459288126216 193.291060886497 52.3959214432954
    vertex -222.459288126216 193.291060985874 52.395921474012
  endloop
endfacet
facet normal 3.21722836510528e-009 0.382683432364999 -0.923879532511324
  outer loop
    vertex -219.459288126216 193.291060886497 52.3959214432954
    vertex -222.459288038334 194.617556237811 52.9453737977873
    vertex -219.459288038334 194.617556138433 52.9453737670707
  endloop
endfacet
facet normal 1.20426970904425e-008 0.608761429008779 -0.79335334029119
  outer loop
    vertex -222.459288201683 192.151973689348 51.5218690497234
    vertex -219.459288126216 193.291060886497 52.3959214432954
    vertex -219.459288201683 192.151973589971 51.5218690190069
  endloop
endfacet
facet normal 1.20426970904425e-008 0.608761429008779 -0.79335334029119
  outer loop
    vertex -219.459288126216 193.291060886497 52.3959214432954
    vertex -222.459288201683 192.151973689348 51.5218690497234
    vertex -222.459288126216 193.291060985874 52.395921474012
  endloop
endfacet
facet normal 0.999999999999998 -6.62516153367004e-008 7.67634900410742e-015
  outer loop
    vertex -222.459288038334 194.617556237811 52.9453737977873
    vertex -222.459287849715 197.464565733938 52.9453737977872
    vertex -222.459287944025 196.041060985874 53.1327817531973
  endloop
endfacet
facet normal 0.999999999999998 -6.62516153367004e-008 7.67634900410742e-015
  outer loop
    vertex -222.459287849715 197.464565733938 52.9453737977872
    vertex -222.459288038334 194.617556237811 52.9453737977873
    vertex -222.459288126216 193.291060985874 52.395921474012
  endloop
endfacet
facet normal 0.999999999999998 -6.62516153367004e-008 7.67634900410742e-015
  outer loop
    vertex -222.459287849715 197.464565733938 52.9453737977872
    vertex -222.459288126216 193.291060985874 52.395921474012
    vertex -222.459287761833 198.791060985874 52.3959214740116
  endloop
endfacet
facet normal 0.999999999999998 -6.62516153367004e-008 7.67634900410742e-015
  outer loop
    vertex -222.459287761833 198.791060985874 52.3959214740116
    vertex -222.459288126216 193.291060985874 52.395921474012
    vertex -222.459288201683 192.151973689348 51.5218690497234
  endloop
endfacet
facet normal 0.999999999999998 -6.62516153367004e-008 7.67634900410742e-015
  outer loop
    vertex -222.459287761833 198.791060985874 52.3959214740116
    vertex -222.459288201683 192.151973689348 51.5218690497234
    vertex -222.459287686366 199.9301482824 51.5218690497235
  endloop
endfacet
facet normal 0.999999999999998 -6.62516153367004e-008 7.67634900410742e-015
  outer loop
    vertex -222.459287686366 199.9301482824 51.5218690497235
    vertex -222.459288201683 192.151973689348 51.5218690497234
    vertex -222.45928825959 191.27792126506 50.3827817531973
  endloop
endfacet
facet normal 0.999999999999998 -6.62516153367004e-008 7.67634900410742e-015
  outer loop
    vertex -222.459287686366 199.9301482824 51.5218690497235
    vertex -222.45928825959 191.27792126506 50.3827817531973
    vertex -222.459287628459 200.804200706689 50.3827817531977
  endloop
endfacet
facet normal 0.999999999999998 -6.62516153367004e-008 7.67634900410742e-015
  outer loop
    vertex -222.459287628459 200.804200706689 50.3827817531977
    vertex -222.45928825959 191.27792126506 50.3827817531973
    vertex -222.459288295992 190.728468941285 49.0562865012608
  endloop
endfacet
facet normal 0.999999999999998 -6.62516153367004e-008 7.67634900410742e-015
  outer loop
    vertex -222.459287628459 200.804200706689 50.3827817531977
    vertex -222.459288295992 190.728468941285 49.0562865012608
    vertex -222.459287592057 201.353653030464 49.0562865012613
  endloop
endfacet
facet normal 0.999999999999998 -6.62516153367004e-008 7.67634900410742e-015
  outer loop
    vertex -222.459287592057 201.353653030464 49.0562865012613
    vertex -222.459288295992 190.728468941285 49.0562865012608
    vertex -222.459288308409 190.541060985874 47.6327817531971
  endloop
endfacet
facet normal 0.999999999999998 -6.62516153367004e-008 7.67634900410742e-015
  outer loop
    vertex -222.459287592057 201.353653030464 49.0562865012613
    vertex -222.459288308409 190.541060985874 47.6327817531971
    vertex -222.459287579641 201.541060985874 47.6327817531974
  endloop
endfacet
facet normal 0.999999999999998 -6.62516153367004e-008 7.67634900410742e-015
  outer loop
    vertex -222.459287579641 201.541060985874 47.6327817531974
    vertex -222.459288308409 190.541060985874 47.6327817531971
    vertex -222.459288295992 190.728468941285 46.2092770051332
  endloop
endfacet
facet normal 0.999999999999998 -6.62516153367004e-008 7.67634900410742e-015
  outer loop
    vertex -222.459287579641 201.541060985874 47.6327817531974
    vertex -222.459288295992 190.728468941285 46.2092770051332
    vertex -222.459287592057 201.353653030464 46.2092770051334
  endloop
endfacet
facet normal 0.999999999999998 -6.62516153367004e-008 7.67634900410742e-015
  outer loop
    vertex -222.459287592057 201.353653030464 46.2092770051334
    vertex -222.459288295992 190.728468941285 46.2092770051332
    vertex -222.45928825959 191.27792126506 44.8827817531972
  endloop
endfacet
facet normal 0.999999999999998 -6.62516153367004e-008 7.67634900410742e-015
  outer loop
    vertex -222.459287592057 201.353653030464 46.2092770051334
    vertex -222.45928825959 191.27792126506 44.8827817531972
    vertex -222.459287628459 200.804200706689 44.8827817531977
  endloop
endfacet
facet normal 0.999999999999998 -6.62516153367004e-008 7.67634900410742e-015
  outer loop
    vertex -222.459287628459 200.804200706689 44.8827817531977
    vertex -222.45928825959 191.27792126506 44.8827817531972
    vertex -222.459288201683 192.151973689348 43.743694456671
  endloop
endfacet
facet normal 0.999999999999998 -6.62516153367004e-008 7.67634900410742e-015
  outer loop
    vertex -222.459287628459 200.804200706689 44.8827817531977
    vertex -222.459288201683 192.151973689348 43.743694456671
    vertex -222.459287686366 199.9301482824 43.7436944566712
  endloop
endfacet
facet normal 0.999999999999998 -6.62516153367004e-008 7.67634900410742e-015
  outer loop
    vertex -222.459287686366 199.9301482824 43.7436944566712
    vertex -222.459288201683 192.151973689348 43.743694456671
    vertex -222.459288126216 193.291060985874 42.8696420323832
  endloop
endfacet
facet normal 0.999999999999998 -6.62516153367004e-008 7.67634900410742e-015
  outer loop
    vertex -222.459287686366 199.9301482824 43.7436944566712
    vertex -222.459288126216 193.291060985874 42.8696420323832
    vertex -222.459287761833 198.791060985874 42.8696420323827
  endloop
endfacet
facet normal 0.999999999999998 -6.62516153367004e-008 7.67634900410742e-015
  outer loop
    vertex -222.459287761833 198.791060985874 42.8696420323827
    vertex -222.459288126216 193.291060985874 42.8696420323832
    vertex -222.459288038334 194.617556237811 42.3201897086075
  endloop
endfacet
facet normal 0.999999999999998 -6.62516153367004e-008 7.67634900410742e-015
  outer loop
    vertex -222.459287761833 198.791060985874 42.8696420323827
    vertex -222.459288038334 194.617556237811 42.3201897086075
    vertex -222.459287849715 197.464565733938 42.3201897086076
  endloop
endfacet
facet normal 0.999999999999998 -6.62516153367004e-008 7.67634900410742e-015
  outer loop
    vertex -222.459287849715 197.464565733938 42.3201897086076
    vertex -222.459288038334 194.617556237811 42.3201897086075
    vertex -222.459287944024 196.041060985874 42.1327817531973
  endloop
endfacet
facet normal -1.20426828756711e-008 -0.608761429008842 0.793353340291142
  outer loop
    vertex -219.459287686366 199.930148183023 43.7436944259549
    vertex -222.459287761833 198.791060985874 42.8696420323827
    vertex -219.459287761833 198.791060886497 42.869642001666
  endloop
endfacet
facet normal -1.20426828756711e-008 -0.608761429008842 0.793353340291142
  outer loop
    vertex -222.459287761833 198.791060985874 42.8696420323827
    vertex -219.459287686366 199.930148183023 43.7436944259549
    vertex -222.459287686366 199.9301482824 43.7436944566712
  endloop
endfacet
endsolid xyz-y-carriage-left
