solid xyz-y-carriage-left
facet normal 0.0 0.608761429008728 -0.793353340291229
  outer loop
    vertex 95.3292486187237 -239.670582303536 7.64108381711447
    vertex 90.3292486187237 -239.966245375858 7.41421356237309
    vertex 90.3292486187237 -239.670582303536 7.64108381711447
  endloop
endfacet
facet normal 0.0 0.707106781186558 -0.707106781186537
  outer loop
    vertex 90.3292486187237 -239.966245375858 7.41421356237309
    vertex 95.3292486187237 -239.670582303536 7.64108381711447
    vertex 95.3292486187237 -239.966245375858 7.41421356237309
  endloop
endfacet
facet normal 0.0 0.707106781186558 -0.707106781186537
  outer loop
    vertex 90.3292486187237 -239.966245375858 7.41421356237309
    vertex 95.3292486187237 -240.284082621053 7.0
    vertex 90.3292486187237 -240.284082621053 7.0
  endloop
endfacet
facet normal 0.0 0.866025403784446 -0.499999999999988
  outer loop
    vertex 95.3292486187237 -240.284082621053 7.0
    vertex 90.3292486187237 -239.966245375858 7.41421356237309
    vertex 95.3292486187237 -239.966245375858 7.41421356237309
  endloop
endfacet
facet normal 0.0 0.866025403784446 -0.499999999999988
  outer loop
    vertex 90.3292486187237 -240.284082621053 7.0
    vertex 95.3292486187237 -240.483883466063 6.51763809020504
    vertex 90.3292486187237 -240.483883466063 6.51763809020504
  endloop
endfacet
facet normal 0.0 0.965925826289067 -0.258819045102527
  outer loop
    vertex 95.3292486187237 -240.483883466063 6.51763809020504
    vertex 90.3292486187237 -240.284082621053 7.0
    vertex 95.3292486187237 -240.284082621053 7.0
  endloop
endfacet
facet normal 0.0 -0.499999999999992 -0.866025403784443
  outer loop
    vertex 95.3292486187237 -237.552031813485 7.73205080756888
    vertex 90.3292486187237 -238.034393723279 7.93185165257814
    vertex 90.3292486187237 -237.552031813485 7.73205080756888
  endloop
endfacet
facet normal 0.0 -0.258819045102518 -0.965925826289069
  outer loop
    vertex 90.3292486187237 -238.034393723279 7.93185165257814
    vertex 95.3292486187237 -237.552031813485 7.73205080756888
    vertex 95.3292486187237 -238.034393723279 7.93185165257814
  endloop
endfacet
facet normal 0.0 -1.0 -1.69311088017292e-016
  outer loop
    vertex 95.3292486187237 -236.552031813485 6.0
    vertex 90.3292486187237 -236.620180160906 5.48236190979496
    vertex 95.3292486187237 -236.620180160906 5.48236190979496
  endloop
endfacet
facet normal 0.0 -0.965925826289067 0.258819045102527
  outer loop
    vertex 90.3292486187237 -236.620180160906 5.48236190979496
    vertex 95.3292486187237 -236.552031813485 6.0
    vertex 90.3292486187237 -236.552031813485 6.0
  endloop
endfacet
facet normal 0.0 0.965925826289067 -0.258819045102527
  outer loop
    vertex 90.3292486187237 -240.483883466063 6.51763809020504
    vertex 95.3292486187237 -240.552031813485 6.0
    vertex 90.3292486187237 -240.552031813485 6.0
  endloop
endfacet
facet normal 0.0 1.0 0.0
  outer loop
    vertex 95.3292486187237 -240.552031813485 6.0
    vertex 90.3292486187237 -240.483883466063 6.51763809020504
    vertex 95.3292486187237 -240.483883466063 6.51763809020504
  endloop
endfacet
facet normal 0.0 -0.258819045102518 -0.965925826289069
  outer loop
    vertex 95.3292486187237 -238.034393723279 7.93185165257814
    vertex 90.3292486187237 -238.552031813485 8.0
    vertex 90.3292486187237 -238.034393723279 7.93185165257814
  endloop
endfacet
facet normal 0.0 0.0 -1.0
  outer loop
    vertex 90.3292486187237 -238.552031813485 8.0
    vertex 95.3292486187237 -238.034393723279 7.93185165257814
    vertex 95.3292486187237 -238.552031813485 8.0
  endloop
endfacet
facet normal 0.0 1.0 0.0
  outer loop
    vertex 90.3292486187237 -240.552031813485 6.0
    vertex 95.3292486187237 -240.483883466063 5.48236190979496
    vertex 90.3292486187237 -240.483883466063 5.48236190979496
  endloop
endfacet
facet normal 0.0 0.965925826289067 0.258819045102527
  outer loop
    vertex 95.3292486187237 -240.483883466063 5.48236190979496
    vertex 90.3292486187237 -240.552031813485 6.0
    vertex 95.3292486187237 -240.552031813485 6.0
  endloop
endfacet
facet normal 0.0 0.965925826289067 0.258819045102527
  outer loop
    vertex 90.3292486187237 -240.483883466063 5.48236190979496
    vertex 95.3292486187237 -240.284082621053 5.0
    vertex 90.3292486187237 -240.284082621053 5.0
  endloop
endfacet
facet normal 0.0 0.866025403784446 0.499999999999987
  outer loop
    vertex 95.3292486187237 -240.284082621053 5.0
    vertex 90.3292486187237 -240.483883466063 5.48236190979496
    vertex 95.3292486187237 -240.483883466063 5.48236190979496
  endloop
endfacet
facet normal 0.0 -0.965925826289067 0.258819045102527
  outer loop
    vertex 95.3292486187237 -236.620180160906 5.48236190979496
    vertex 90.3292486187237 -236.819981005916 5.0
    vertex 95.3292486187237 -236.819981005916 5.0
  endloop
endfacet
facet normal 0.0 -0.866025403784446 0.499999999999988
  outer loop
    vertex 90.3292486187237 -236.819981005916 5.0
    vertex 95.3292486187237 -236.620180160906 5.48236190979496
    vertex 90.3292486187237 -236.620180160906 5.48236190979496
  endloop
endfacet
facet normal 0.0 -0.965925826289067 -0.258819045102527
  outer loop
    vertex 95.3292486187237 -236.620180160906 6.51763809020504
    vertex 90.3292486187237 -236.552031813485 6.0
    vertex 95.3292486187237 -236.552031813485 6.0
  endloop
endfacet
facet normal 0.0 -1.0 -1.69311088017292e-016
  outer loop
    vertex 90.3292486187237 -236.552031813485 6.0
    vertex 95.3292486187237 -236.620180160906 6.51763809020504
    vertex 90.3292486187237 -236.620180160906 6.51763809020504
  endloop
endfacet
facet normal 0.0 0.866025403784446 0.499999999999987
  outer loop
    vertex 90.3292486187237 -240.284082621053 5.0
    vertex 95.3292486187237 -239.966245375858 4.58578643762691
    vertex 90.3292486187237 -239.966245375858 4.58578643762691
  endloop
endfacet
facet normal 0.0 0.707106781186553 0.707106781186542
  outer loop
    vertex 95.3292486187237 -239.966245375858 4.58578643762691
    vertex 90.3292486187237 -240.284082621053 5.0
    vertex 95.3292486187237 -240.284082621053 5.0
  endloop
endfacet
facet normal 0.0 0.0 -1.0
  outer loop
    vertex 95.3292486187237 -238.552031813485 8.0
    vertex 90.3292486187237 -239.06966990369 7.93185165257814
    vertex 90.3292486187237 -238.552031813485 8.0
  endloop
endfacet
facet normal 0.0 0.258819045102517 -0.965925826289069
  outer loop
    vertex 90.3292486187237 -239.06966990369 7.93185165257814
    vertex 95.3292486187237 -238.552031813485 8.0
    vertex 95.3292486187237 -239.06966990369 7.93185165257814
  endloop
endfacet
facet normal 0.0 0.707106781186553 0.707106781186542
  outer loop
    vertex 95.3292486187237 -239.966245375858 4.58578643762691
    vertex 90.3292486187237 -239.552031813485 4.26794919243112
    vertex 90.3292486187237 -239.966245375858 4.58578643762691
  endloop
endfacet
facet normal 0.0 0.499999999999992 0.866025403784443
  outer loop
    vertex 90.3292486187237 -239.552031813485 4.26794919243112
    vertex 95.3292486187237 -239.966245375858 4.58578643762691
    vertex 95.3292486187237 -239.552031813485 4.26794919243112
  endloop
endfacet
facet normal 0.0 -0.707106781186553 -0.707106781186543
  outer loop
    vertex 95.3292486187237 -237.137818251111 7.41421356237309
    vertex 90.3292486187237 -236.819981005916 7.0
    vertex 95.3292486187237 -236.819981005916 7.0
  endloop
endfacet
facet normal 0.0 -0.866025403784446 -0.499999999999987
  outer loop
    vertex 90.3292486187237 -236.819981005916 7.0
    vertex 95.3292486187237 -237.137818251111 7.41421356237309
    vertex 90.3292486187237 -237.137818251111 7.41421356237309
  endloop
endfacet
facet normal 0.0 -0.707106781186553 -0.707106781186543
  outer loop
    vertex 95.3292486187237 -237.137818251111 7.41421356237309
    vertex 90.3292486187237 -237.552031813485 7.73205080756888
    vertex 90.3292486187237 -237.137818251111 7.41421356237309
  endloop
endfacet
facet normal 0.0 -0.499999999999992 -0.866025403784443
  outer loop
    vertex 90.3292486187237 -237.552031813485 7.73205080756888
    vertex 95.3292486187237 -237.137818251111 7.41421356237309
    vertex 95.3292486187237 -237.552031813485 7.73205080756888
  endloop
endfacet
facet normal 0.0 0.499999999999992 0.866025403784443
  outer loop
    vertex 95.3292486187237 -239.552031813485 4.26794919243112
    vertex 90.3292486187237 -239.06966990369 4.06814834742186
    vertex 90.3292486187237 -239.552031813485 4.26794919243112
  endloop
endfacet
facet normal 0.0 0.258819045102517 0.965925826289069
  outer loop
    vertex 90.3292486187237 -239.06966990369 4.06814834742186
    vertex 95.3292486187237 -239.552031813485 4.26794919243112
    vertex 95.3292486187237 -239.06966990369 4.06814834742186
  endloop
endfacet
facet normal 0.0 0.258819045102517 0.965925826289069
  outer loop
    vertex 95.3292486187237 -239.06966990369 4.06814834742186
    vertex 90.3292486187237 -238.552031813485 4.0
    vertex 90.3292486187237 -239.06966990369 4.06814834742186
  endloop
endfacet
facet normal 0.0 0.0 1.0
  outer loop
    vertex 90.3292486187237 -238.552031813485 4.0
    vertex 95.3292486187237 -239.06966990369 4.06814834742186
    vertex 95.3292486187237 -238.552031813485 4.0
  endloop
endfacet
facet normal 0.0 0.258819045102517 -0.965925826289069
  outer loop
    vertex 95.3292486187237 -239.06966990369 7.93185165257814
    vertex 90.3292486187237 -239.552031813485 7.73205080756888
    vertex 90.3292486187237 -239.06966990369 7.93185165257814
  endloop
endfacet
facet normal 0.0 0.499999999999975 -0.866025403784453
  outer loop
    vertex 90.3292486187237 -239.552031813485 7.73205080756888
    vertex 95.3292486187237 -239.06966990369 7.93185165257814
    vertex 95.3292486187237 -239.552031813485 7.73205080756888
  endloop
endfacet
facet normal 0.0 0.0 1.0
  outer loop
    vertex 95.3292486187237 -238.552031813485 4.0
    vertex 90.3292486187237 -238.034393723279 4.06814834742186
    vertex 90.3292486187237 -238.552031813485 4.0
  endloop
endfacet
facet normal 0.0 -0.258819045102517 0.965925826289069
  outer loop
    vertex 90.3292486187237 -238.034393723279 4.06814834742186
    vertex 95.3292486187237 -238.552031813485 4.0
    vertex 95.3292486187237 -238.034393723279 4.06814834742186
  endloop
endfacet
facet normal 0.0 -0.866025403784446 -0.499999999999987
  outer loop
    vertex 95.3292486187237 -236.819981005916 7.0
    vertex 90.3292486187237 -236.620180160906 6.51763809020504
    vertex 95.3292486187237 -236.620180160906 6.51763809020504
  endloop
endfacet
facet normal 0.0 -0.965925826289067 -0.258819045102527
  outer loop
    vertex 90.3292486187237 -236.620180160906 6.51763809020504
    vertex 95.3292486187237 -236.819981005916 7.0
    vertex 90.3292486187237 -236.819981005916 7.0
  endloop
endfacet
facet normal 0.0 -0.258819045102517 0.965925826289069
  outer loop
    vertex 95.3292486187237 -238.034393723279 4.06814834742186
    vertex 90.3292486187237 -237.552031813485 4.26794919243112
    vertex 90.3292486187237 -238.034393723279 4.06814834742186
  endloop
endfacet
facet normal 0.0 -0.500000000000027 0.866025403784423
  outer loop
    vertex 90.3292486187237 -237.552031813485 4.26794919243112
    vertex 95.3292486187237 -238.034393723279 4.06814834742186
    vertex 95.3292486187237 -237.552031813485 4.26794919243112
  endloop
endfacet
facet normal 0.0 0.499999999999975 -0.866025403784453
  outer loop
    vertex 95.3292486187237 -239.552031813485 7.73205080756888
    vertex 90.3292486187237 -239.670582303536 7.64108381711447
    vertex 90.3292486187237 -239.552031813485 7.73205080756888
  endloop
endfacet
facet normal 0.0 0.608761429008685 -0.793353340291262
  outer loop
    vertex 90.3292486187237 -239.670582303536 7.64108381711447
    vertex 95.3292486187237 -239.552031813485 7.73205080756888
    vertex 95.3292486187237 -239.670582303536 7.64108381711447
  endloop
endfacet
facet normal 0.0 -0.866025403784446 0.499999999999988
  outer loop
    vertex 95.3292486187237 -236.819981005916 5.0
    vertex 90.3292486187237 -237.137818251111 4.58578643762691
    vertex 95.3292486187237 -237.137818251111 4.58578643762691
  endloop
endfacet
facet normal 0.0 -0.707106781186541 0.707106781186554
  outer loop
    vertex 90.3292486187237 -237.137818251111 4.58578643762691
    vertex 95.3292486187237 -236.819981005916 5.0
    vertex 90.3292486187237 -236.819981005916 5.0
  endloop
endfacet
facet normal 0.0 -0.500000000000027 0.866025403784423
  outer loop
    vertex 95.3292486187237 -237.552031813485 4.26794919243112
    vertex 90.3292486187237 -237.433481323433 4.35891618288556
    vertex 90.3292486187237 -237.552031813485 4.26794919243112
  endloop
endfacet
facet normal 0.0 -0.608761429008781 0.793353340291189
  outer loop
    vertex 90.3292486187237 -237.433481323433 4.35891618288556
    vertex 95.3292486187237 -237.552031813485 4.26794919243112
    vertex 95.3292486187237 -237.433481323433 4.35891618288556
  endloop
endfacet
facet normal 0.0 0.0 -1.0
  outer loop
    vertex 81.3292486187237 -223.178820863798 0.0
    vertex 86.281580060642 -233.250052210851 0.0
    vertex 81.3292486187237 -247.178820863798 0.0
  endloop
endfacet
facet normal 0.0 0.0 -1.0
  outer loop
    vertex 86.281580060642 -233.250052210851 0.0
    vertex 81.3292486187237 -223.178820863798 0.0
    vertex 86.4933592144179 -232.738772105577 0.0
  endloop
endfacet
facet normal 0.0 0.0 -1.0
  outer loop
    vertex 86.4933592144179 -232.738772105577 0.0
    vertex 81.3292486187237 -223.178820863798 0.0
    vertex 86.8302511971466 -232.299725925778 0.0
  endloop
endfacet
facet normal 0.0 0.0 -1.0
  outer loop
    vertex 86.8302511971466 -232.299725925778 0.0
    vertex 81.3292486187237 -223.178820863798 0.0
    vertex 95.3292486187237 -223.178820863798 0.0
  endloop
endfacet
facet normal 0.0 0.0 -1.0
  outer loop
    vertex 81.3292486187237 -247.178820863798 0.0
    vertex 86.281580060642 -233.250052210851 0.0
    vertex 81.5677678347002 -248.990554179516 0.0
  endloop
endfacet
facet normal 0.0 0.0 -1.0
  outer loop
    vertex 81.5677678347002 -248.990554179516 0.0
    vertex 86.281580060642 -233.250052210851 0.0
    vertex 82.2670707922326 -250.678820863798 0.0
  endloop
endfacet
facet normal 0.0 0.0 -1.0
  outer loop
    vertex 82.2670707922326 -250.678820863798 0.0
    vertex 86.281580060642 -233.250052210851 0.0
    vertex 83.4996194872784 -245.884725638286 0.0
  endloop
endfacet
facet normal 0.0 0.0 -1.0
  outer loop
    vertex 82.2670707922326 -250.678820863798 0.0
    vertex 83.4996194872784 -245.884725638286 0.0
    vertex 83.3292486187237 -247.178820863798 0.0
  endloop
endfacet
facet normal 0.0 0.0 -1.0
  outer loop
    vertex 83.4996194872784 -245.884725638286 0.0
    vertex 86.281580060642 -233.250052210851 0.0
    vertex 83.9991215998015 -244.678820863798 0.0
  endloop
endfacet
facet normal 0.0 0.0 -1.0
  outer loop
    vertex 83.9991215998015 -244.678820863798 0.0
    vertex 86.281580060642 -233.250052210851 0.0
    vertex 84.793714712791 -243.643286957866 0.0
  endloop
endfacet
facet normal 0.0 0.0 -1.0
  outer loop
    vertex 84.793714712791 -243.643286957866 0.0
    vertex 86.281580060642 -233.250052210851 0.0
    vertex 86.2093461351671 -233.798723347355 0.0
  endloop
endfacet
facet normal 0.0 0.0 -1.0
  outer loop
    vertex 84.793714712791 -243.643286957866 0.0
    vertex 86.2093461351671 -233.798723347355 0.0
    vertex 85.8292486187237 -242.848693844876 0.0
  endloop
endfacet
facet normal 0.0 0.0 -1.0
  outer loop
    vertex 86.281580060642 -233.250052210851 0.0
    vertex 86.4933592144179 -232.738772105577 0.0
    vertex 86.3292486187237 -233.134970131431 0.0
  endloop
endfacet
facet normal 0.0 0.0 -1.0
  outer loop
    vertex 86.8302511971466 -232.299725925778 0.0
    vertex 95.3292486187237 -223.178820863798 0.0
    vertex 87.2692973769454 -231.962833943049 0.0
  endloop
endfacet
facet normal 0.0 0.0 -1.0
  outer loop
    vertex 87.2692973769454 -231.962833943049 0.0
    vertex 95.3292486187237 -223.178820863798 0.0
    vertex 87.7805774822191 -231.751054789273 0.0
  endloop
endfacet
facet normal 0.0 0.0 -1.0
  outer loop
    vertex 87.7805774822191 -231.751054789273 0.0
    vertex 95.3292486187237 -223.178820863798 0.0
    vertex 88.3292486187237 -231.678820863798 0.0
  endloop
endfacet
facet normal 0.0 0.0 -1.0
  outer loop
    vertex 88.3292486187237 -231.678820863798 0.0
    vertex 95.3292486187237 -223.178820863798 0.0
    vertex 88.8779197552283 -231.751054789273 0.0
  endloop
endfacet
facet normal 0.0 0.0 -1.0
  outer loop
    vertex 88.8779197552283 -231.751054789273 0.0
    vertex 95.3292486187237 -223.178820863798 0.0
    vertex 89.389199860502 -231.962833943049 0.0
  endloop
endfacet
facet normal 0.0 0.0 -1.0
  outer loop
    vertex 89.389199860502 -231.962833943049 0.0
    vertex 95.3292486187237 -223.178820863798 0.0
    vertex 89.8282460403008 -232.299725925778 0.0
  endloop
endfacet
facet normal 0.0 0.0 -1.0
  outer loop
    vertex 89.8282460403008 -232.299725925778 0.0
    vertex 95.3292486187237 -223.178820863798 0.0
    vertex 90.1651380230295 -232.738772105577 0.0
  endloop
endfacet
facet normal 0.0 0.0 -1.0
  outer loop
    vertex 90.1651380230295 -232.738772105577 0.0
    vertex 95.3292486187237 -223.178820863798 0.0
    vertex 90.3292486187237 -233.134970131431 0.0
  endloop
endfacet
facet normal 0.0 0.0 -1.0
  outer loop
    vertex 90.3292486187237 -233.134970131431 0.0
    vertex 95.3292486187237 -223.178820863798 0.0
    vertex 90.3769171768054 -233.250052210851 0.0
  endloop
endfacet
facet normal 0.0 0.0 -1.0
  outer loop
    vertex 90.3769171768054 -233.250052210851 0.0
    vertex 95.3292486187237 -223.178820863798 0.0
    vertex 90.4491511022803 -233.798723347355 0.0
  endloop
endfacet
facet normal 0.0 0.0 -1.0
  outer loop
    vertex 90.4491511022803 -233.798723347355 0.0
    vertex 95.3292486187237 -223.178820863798 0.0
    vertex 90.8292486187237 -242.848693844876 0.0
  endloop
endfacet
facet normal 0.0 0.0 -1.0
  outer loop
    vertex 90.8292486187237 -242.848693844876 0.0
    vertex 95.3292486187237 -223.178820863798 0.0
    vertex 91.8647825246564 -243.643286957866 0.0
  endloop
endfacet
facet normal 0.0 0.0 -1.0
  outer loop
    vertex 91.8647825246564 -243.643286957866 0.0
    vertex 95.3292486187237 -223.178820863798 0.0
    vertex 92.6593756376459 -244.678820863798 0.0
  endloop
endfacet
facet normal 0.0 0.0 -1.0
  outer loop
    vertex 92.6593756376459 -244.678820863798 0.0
    vertex 95.3292486187237 -223.178820863798 0.0
    vertex 93.158877750169 -245.884725638286 0.0
  endloop
endfacet
facet normal 0.0 0.0 -1.0
  outer loop
    vertex 93.158877750169 -245.884725638286 0.0
    vertex 95.3292486187237 -223.178820863798 0.0
    vertex 93.3292486187237 -247.178820863798 0.0
  endloop
endfacet
facet normal 0.0 0.0 -1.0
  outer loop
    vertex 93.3292486187237 -247.178820863798 0.0
    vertex 95.3292486187237 -223.178820863798 0.0
    vertex 94.3914264452148 -250.678820863798 0.0
  endloop
endfacet
facet normal 0.0 0.0 -1.0
  outer loop
    vertex 94.3914264452148 -250.678820863798 0.0
    vertex 95.3292486187237 -223.178820863798 0.0
    vertex 95.0907294027472 -248.990554179516 0.0
  endloop
endfacet
facet normal 0.0 0.0 -1.0
  outer loop
    vertex 95.0907294027472 -248.990554179516 0.0
    vertex 95.3292486187237 -223.178820863798 0.0
    vertex 95.3292486187237 -247.178820863798 0.0
  endloop
endfacet
facet normal 0.0 0.0 -1.0
  outer loop
    vertex 91.8647825246564 -250.714354769731 0.0
    vertex 91.8292486187237 -253.178820863798 0.0
    vertex 90.8292486187237 -251.508947882721 0.0
  endloop
endfacet
facet normal 0.0 0.0 -1.0
  outer loop
    vertex 91.8292486187237 -253.178820863798 0.0
    vertex 91.8647825246564 -250.714354769731 0.0
    vertex 91.910280339835 -253.178820863798 0.0
  endloop
endfacet
facet normal 0.0 0.0 -1.0
  outer loop
    vertex 91.910280339835 -253.178820863798 0.0
    vertex 91.8647825246564 -250.714354769731 0.0
    vertex 92.6593756376459 -249.678820863798 0.0
  endloop
endfacet
facet normal 0.0 0.0 -1.0
  outer loop
    vertex 91.910280339835 -253.178820863798 0.0
    vertex 92.6593756376459 -249.678820863798 0.0
    vertex 93.2789960870295 -252.128568332104 0.0
  endloop
endfacet
facet normal 0.0 0.0 -1.0
  outer loop
    vertex 93.2789960870295 -252.128568332104 0.0
    vertex 92.6593756376459 -249.678820863798 0.0
    vertex 93.158877750169 -248.472916089311 0.0
  endloop
endfacet
facet normal 0.0 0.0 -1.0
  outer loop
    vertex 93.2789960870295 -252.128568332104 0.0
    vertex 93.158877750169 -248.472916089311 0.0
    vertex 93.3292486187237 -247.178820863798 0.0
  endloop
endfacet
facet normal 0.0 0.0 -1.0
  outer loop
    vertex 93.2789960870295 -252.128568332104 0.0
    vertex 93.3292486187237 -247.178820863798 0.0
    vertex 94.3914264452148 -250.678820863798 0.0
  endloop
endfacet
facet normal 0.0 0.0 -1.0
  outer loop
    vertex 90.3769171768054 -234.34739448386 0.0
    vertex 90.3292486187237 -242.64158706369 0.0
    vertex 90.3292486187237 -234.462476563279 0.0
  endloop
endfacet
facet normal 0.0 0.0 -1.0
  outer loop
    vertex 90.3292486187237 -242.64158706369 0.0
    vertex 90.3769171768054 -234.34739448386 0.0
    vertex 90.8292486187237 -242.848693844876 0.0
  endloop
endfacet
facet normal 0.0 0.0 -1.0
  outer loop
    vertex 90.8292486187237 -242.848693844876 0.0
    vertex 90.3769171768054 -234.34739448386 0.0
    vertex 90.4491511022803 -233.798723347355 0.0
  endloop
endfacet
facet normal 0.0 0.0 -1.0
  outer loop
    vertex 86.2093461351671 -233.798723347355 0.0
    vertex 86.3292486187237 -242.64158706369 0.0
    vertex 85.8292486187237 -242.848693844876 0.0
  endloop
endfacet
facet normal 0.0 0.0 -1.0
  outer loop
    vertex 86.3292486187237 -242.64158706369 0.0
    vertex 86.2093461351671 -233.798723347355 0.0
    vertex 86.281580060642 -234.34739448386 0.0
  endloop
endfacet
facet normal 0.0 0.0 -1.0
  outer loop
    vertex 86.3292486187237 -242.64158706369 0.0
    vertex 86.281580060642 -234.34739448386 0.0
    vertex 86.3292486187237 -234.462476563279 0.0
  endloop
endfacet
facet normal 0.0 0.0 -1.0
  outer loop
    vertex 83.3292486187237 -247.178820863798 0.0
    vertex 83.3795011504179 -252.128568332104 0.0
    vertex 82.2670707922326 -250.678820863798 0.0
  endloop
endfacet
facet normal 0.0 0.0 -1.0
  outer loop
    vertex 83.3795011504179 -252.128568332104 0.0
    vertex 83.3292486187237 -247.178820863798 0.0
    vertex 83.4996194872784 -248.472916089311 0.0
  endloop
endfacet
facet normal 0.0 0.0 -1.0
  outer loop
    vertex 83.3795011504179 -252.128568332104 0.0
    vertex 83.4996194872784 -248.472916089311 0.0
    vertex 84.7482168976124 -253.178820863798 0.0
  endloop
endfacet
facet normal 0.0 0.0 -1.0
  outer loop
    vertex 84.7482168976124 -253.178820863798 0.0
    vertex 83.4996194872784 -248.472916089311 0.0
    vertex 83.9991215998015 -249.678820863798 0.0
  endloop
endfacet
facet normal 0.0 0.0 -1.0
  outer loop
    vertex 84.7482168976124 -253.178820863798 0.0
    vertex 83.9991215998015 -249.678820863798 0.0
    vertex 84.793714712791 -250.714354769731 0.0
  endloop
endfacet
facet normal 0.0 0.0 -1.0
  outer loop
    vertex 84.7482168976124 -253.178820863798 0.0
    vertex 84.793714712791 -250.714354769731 0.0
    vertex 84.8292486187237 -253.178820863798 0.0
  endloop
endfacet
facet normal 0.0 0.0 -1.0
  outer loop
    vertex 84.8292486187237 -253.178820863798 0.0
    vertex 84.793714712791 -250.714354769731 0.0
    vertex 85.8292486187237 -251.508947882721 0.0
  endloop
endfacet
facet normal 0.0 0.0 -1.0
  outer loop
    vertex 86.281580060642 -233.250052210851 0.0
    vertex 86.281580060642 -234.34739448386 0.0
    vertex 86.2093461351671 -233.798723347355 0.0
  endloop
endfacet
facet normal 0.0 0.0 -1.0
  outer loop
    vertex 86.281580060642 -234.34739448386 0.0
    vertex 86.281580060642 -233.250052210851 0.0
    vertex 86.3292486187237 -233.134970131431 0.0
  endloop
endfacet
facet normal 0.0 0.0 -1.0
  outer loop
    vertex 86.281580060642 -234.34739448386 0.0
    vertex 86.3292486187237 -233.134970131431 0.0
    vertex 86.3292486187237 -234.462476563279 0.0
  endloop
endfacet
facet normal 0.0 0.0 -1.0
  outer loop
    vertex 90.3769171768054 -233.250052210851 0.0
    vertex 90.3292486187237 -234.462476563279 0.0
    vertex 90.3292486187237 -233.134970131431 0.0
  endloop
endfacet
facet normal 0.0 0.0 -1.0
  outer loop
    vertex 90.3292486187237 -234.462476563279 0.0
    vertex 90.3769171768054 -233.250052210851 0.0
    vertex 90.3769171768054 -234.34739448386 0.0
  endloop
endfacet
facet normal 0.0 0.0 -1.0
  outer loop
    vertex 90.3769171768054 -234.34739448386 0.0
    vertex 90.3769171768054 -233.250052210851 0.0
    vertex 90.4491511022803 -233.798723347355 0.0
  endloop
endfacet
facet normal 0.0 0.434004246106112 0.900910824866627
  outer loop
    vertex 86.3292486187237 -239.420040305697 4.19817835026674
    vertex 81.3292486187237 -238.924117874722 4.03491680506063
    vertex 81.3292486187237 -239.420040305697 4.19817835026674
  endloop
endfacet
facet normal 0.0 0.186043030618491 0.982541597469688
  outer loop
    vertex 81.3292486187237 -238.924117874722 4.03491680506063
    vertex 86.3292486187237 -239.420040305697 4.19817835026674
    vertex 86.3292486187237 -238.924117874722 4.03491680506063
  endloop
endfacet
facet normal 0.0 0.982541597469686 -0.186043030618505
  outer loop
    vertex 81.3292486187237 -240.517115008424 6.372086061237
    vertex 86.3292486187237 -240.546459381348 5.85080658008977
    vertex 81.3292486187237 -240.546459381348 5.85080658008977
  endloop
endfacet
facet normal 0.0 0.997213783931946 0.0745967099551346
  outer loop
    vertex 86.3292486187237 -240.546459381348 5.85080658008977
    vertex 81.3292486187237 -240.517115008424 6.372086061237
    vertex 86.3292486187237 -240.517115008424 6.372086061237
  endloop
endfacet
facet normal 0.0 -0.94392749899294 -0.330152808022183
  outer loop
    vertex 86.3292486187237 -236.664176815499 6.66030561604436
    vertex 81.3292486187237 -236.557604245621 6.14919341991023
    vertex 86.3292486187237 -236.557604245621 6.14919341991023
  endloop
endfacet
facet normal 0.0 -0.997213783931946 -0.0745967099551346
  outer loop
    vertex 81.3292486187237 -236.557604245621 6.14919341991023
    vertex 86.3292486187237 -236.664176815499 6.66030561604436
    vertex 81.3292486187237 -236.664176815499 6.66030561604436
  endloop
endfacet
facet normal 0.0 0.826314114911514 0.563209537825844
  outer loop
    vertex 81.3292486187237 -240.204660043308 4.87358092434832
    vertex 86.3292486187237 -239.85680939238 4.48423106325111
    vertex 81.3292486187237 -239.85680939238 4.48423106325111
  endloop
endfacet
facet normal 0.0 0.652388789447507 0.757884468374446
  outer loop
    vertex 86.3292486187237 -239.85680939238 4.48423106325111
    vertex 81.3292486187237 -240.204660043308 4.87358092434832
    vertex 86.3292486187237 -240.204660043308 4.87358092434832
  endloop
endfacet
facet normal 0.0 -0.330152808022174 0.943927498992944
  outer loop
    vertex 86.3292486187237 -237.89172619744 4.11214500201412
    vertex 81.3292486187237 -237.425612737833 4.34737177017697
    vertex 81.3292486187237 -237.89172619744 4.11214500201412
  endloop
endfacet
facet normal 0.0 -0.450535567157055 0.892758479504099
  outer loop
    vertex 81.3292486187237 -237.425612737833 4.34737177017697
    vertex 86.3292486187237 -237.89172619744 4.11214500201412
    vertex 86.3292486187237 -237.425612737833 4.34737177017697
  endloop
endfacet
facet normal 0.0 0.997213783931946 0.0745967099551346
  outer loop
    vertex 81.3292486187237 -240.546459381348 5.85080658008977
    vertex 86.3292486187237 -240.43988681147 5.33969438395564
    vertex 81.3292486187237 -240.43988681147 5.33969438395564
  endloop
endfacet
facet normal 0.0 0.94392749899294 0.330152808022183
  outer loop
    vertex 86.3292486187237 -240.43988681147 5.33969438395564
    vertex 81.3292486187237 -240.546459381348 5.85080658008977
    vertex 86.3292486187237 -240.546459381348 5.85080658008977
  endloop
endfacet
facet normal 0.0 -0.826314114911515 -0.563209537825843
  outer loop
    vertex 86.3292486187237 -236.899403583662 7.12641907565168
    vertex 81.3292486187237 -236.664176815499 6.66030561604436
    vertex 86.3292486187237 -236.664176815499 6.66030561604436
  endloop
endfacet
facet normal 0.0 -0.94392749899294 -0.330152808022183
  outer loop
    vertex 81.3292486187237 -236.664176815499 6.66030561604436
    vertex 86.3292486187237 -236.899403583662 7.12641907565168
    vertex 81.3292486187237 -236.899403583662 7.12641907565168
  endloop
endfacet
facet normal 0.0 -0.900910824866629 0.434004246106107
  outer loop
    vertex 86.3292486187237 -236.750210163751 5.13199150778779
    vertex 81.3292486187237 -237.036262876736 4.69522242110498
    vertex 86.3292486187237 -237.036262876736 4.69522242110498
  endloop
endfacet
facet normal 0.0 -0.757884468374444 0.652388789447509
  outer loop
    vertex 81.3292486187237 -237.036262876736 4.69522242110498
    vertex 86.3292486187237 -236.750210163751 5.13199150778779
    vertex 81.3292486187237 -236.750210163751 5.13199150778779
  endloop
endfacet
facet normal 0.0 0.757884468374444 -0.65238878944751
  outer loop
    vertex 81.3292486187237 -240.067800750233 7.30477757889502
    vertex 86.3292486187237 -240.353853463218 6.86800849221221
    vertex 81.3292486187237 -240.353853463218 6.86800849221221
  endloop
endfacet
facet normal 0.0 0.900910824866629 -0.434004246106106
  outer loop
    vertex 86.3292486187237 -240.353853463218 6.86800849221221
    vertex 81.3292486187237 -240.067800750233 7.30477757889502
    vertex 86.3292486187237 -240.067800750233 7.30477757889502
  endloop
endfacet
facet normal 0.0 -0.982541597469686 0.186043030618505
  outer loop
    vertex 86.3292486187237 -236.586948618545 5.627913938763
    vertex 81.3292486187237 -236.750210163751 5.13199150778779
    vertex 86.3292486187237 -236.750210163751 5.13199150778779
  endloop
endfacet
facet normal 0.0 -0.900910824866629 0.434004246106107
  outer loop
    vertex 81.3292486187237 -236.750210163751 5.13199150778779
    vertex 86.3292486187237 -236.586948618545 5.627913938763
    vertex 81.3292486187237 -236.586948618545 5.627913938763
  endloop
endfacet
facet normal 0.0 0.900910824866629 -0.434004246106106
  outer loop
    vertex 81.3292486187237 -240.353853463218 6.86800849221221
    vertex 86.3292486187237 -240.517115008424 6.372086061237
    vertex 81.3292486187237 -240.517115008424 6.372086061237
  endloop
endfacet
facet normal 0.0 0.982541597469686 -0.186043030618505
  outer loop
    vertex 86.3292486187237 -240.517115008424 6.372086061237
    vertex 81.3292486187237 -240.353853463218 6.86800849221221
    vertex 86.3292486187237 -240.353853463218 6.86800849221221
  endloop
endfacet
facet normal 0.0 0.186043030618491 0.982541597469688
  outer loop
    vertex 86.3292486187237 -238.924117874722 4.03491680506063
    vertex 81.3292486187237 -238.402838393574 4.00557243213611
    vertex 81.3292486187237 -238.924117874722 4.03491680506063
  endloop
endfacet
facet normal 0.0 -0.0745967099551156 0.997213783931947
  outer loop
    vertex 81.3292486187237 -238.402838393574 4.00557243213611
    vertex 86.3292486187237 -238.924117874722 4.03491680506063
    vertex 86.3292486187237 -238.402838393574 4.00557243213611
  endloop
endfacet
facet normal 0.0 -0.186043030618491 -0.982541597469689
  outer loop
    vertex 86.3292486187237 -238.179945752248 7.96508319493937
    vertex 81.3292486187237 -238.701225233395 7.99442756786389
    vertex 81.3292486187237 -238.179945752248 7.96508319493937
  endloop
endfacet
facet normal 0.0 0.0745967099551162 -0.997213783931947
  outer loop
    vertex 81.3292486187237 -238.701225233395 7.99442756786389
    vertex 86.3292486187237 -238.179945752248 7.96508319493937
    vertex 86.3292486187237 -238.701225233395 7.99442756786389
  endloop
endfacet
facet normal 0.0 0.666246837151228 -0.745731286715251
  outer loop
    vertex 86.3292486187237 -239.678450889136 7.65262822982303
    vertex 81.3292486187237 -240.067800750233 7.30477757889502
    vertex 81.3292486187237 -239.678450889136 7.65262822982303
  endloop
endfacet
facet normal 0.0 0.757884468374444 -0.65238878944751
  outer loop
    vertex 81.3292486187237 -240.067800750233 7.30477757889502
    vertex 86.3292486187237 -239.678450889136 7.65262822982303
    vertex 86.3292486187237 -240.067800750233 7.30477757889502
  endloop
endfacet
facet normal 0.0 -0.0745967099551156 0.997213783931947
  outer loop
    vertex 86.3292486187237 -238.402838393574 4.00557243213611
    vertex 81.3292486187237 -237.89172619744 4.11214500201412
    vertex 81.3292486187237 -238.402838393574 4.00557243213611
  endloop
endfacet
facet normal 0.0 -0.330152808022174 0.943927498992944
  outer loop
    vertex 81.3292486187237 -237.89172619744 4.11214500201412
    vertex 86.3292486187237 -238.402838393574 4.00557243213611
    vertex 86.3292486187237 -237.89172619744 4.11214500201412
  endloop
endfacet
facet normal 0.0 -0.652388789447507 -0.757884468374446
  outer loop
    vertex 86.3292486187237 -237.24725423459 7.51576893674889
    vertex 81.3292486187237 -237.684023321272 7.80182164973326
    vertex 81.3292486187237 -237.24725423459 7.51576893674889
  endloop
endfacet
facet normal 0.0 -0.434004246106111 -0.900910824866627
  outer loop
    vertex 81.3292486187237 -237.684023321272 7.80182164973326
    vertex 86.3292486187237 -237.24725423459 7.51576893674889
    vertex 86.3292486187237 -237.684023321272 7.80182164973326
  endloop
endfacet
facet normal 0.0 0.652388789447507 0.757884468374446
  outer loop
    vertex 86.3292486187237 -239.85680939238 4.48423106325111
    vertex 81.3292486187237 -239.420040305697 4.19817835026674
    vertex 81.3292486187237 -239.85680939238 4.48423106325111
  endloop
endfacet
facet normal 0.0 0.434004246106112 0.900910824866627
  outer loop
    vertex 81.3292486187237 -239.420040305697 4.19817835026674
    vertex 86.3292486187237 -239.85680939238 4.48423106325111
    vertex 86.3292486187237 -239.420040305697 4.19817835026674
  endloop
endfacet
facet normal 0.0 -0.997213783931946 -0.0745967099551346
  outer loop
    vertex 86.3292486187237 -236.557604245621 6.14919341991023
    vertex 81.3292486187237 -236.586948618545 5.627913938763
    vertex 86.3292486187237 -236.586948618545 5.627913938763
  endloop
endfacet
facet normal 0.0 -0.982541597469686 0.186043030618505
  outer loop
    vertex 81.3292486187237 -236.586948618545 5.627913938763
    vertex 86.3292486187237 -236.557604245621 6.14919341991023
    vertex 81.3292486187237 -236.557604245621 6.14919341991023
  endloop
endfacet
facet normal 0.0 -0.652388789447507 -0.757884468374446
  outer loop
    vertex 86.3292486187237 -237.24725423459 7.51576893674889
    vertex 81.3292486187237 -236.899403583662 7.12641907565168
    vertex 86.3292486187237 -236.899403583662 7.12641907565168
  endloop
endfacet
facet normal 0.0 -0.826314114911515 -0.563209537825843
  outer loop
    vertex 81.3292486187237 -236.899403583662 7.12641907565168
    vertex 86.3292486187237 -237.24725423459 7.51576893674889
    vertex 81.3292486187237 -237.24725423459 7.51576893674889
  endloop
endfacet
facet normal 0.0 -0.434004246106111 -0.900910824866627
  outer loop
    vertex 86.3292486187237 -237.684023321272 7.80182164973326
    vertex 81.3292486187237 -238.179945752248 7.96508319493937
    vertex 81.3292486187237 -237.684023321272 7.80182164973326
  endloop
endfacet
facet normal 0.0 -0.186043030618491 -0.982541597469689
  outer loop
    vertex 81.3292486187237 -238.179945752248 7.96508319493937
    vertex 86.3292486187237 -237.684023321272 7.80182164973326
    vertex 86.3292486187237 -238.179945752248 7.96508319493937
  endloop
endfacet
facet normal 0.0 0.94392749899294 0.330152808022183
  outer loop
    vertex 81.3292486187237 -240.43988681147 5.33969438395564
    vertex 86.3292486187237 -240.204660043308 4.87358092434832
    vertex 81.3292486187237 -240.204660043308 4.87358092434832
  endloop
endfacet
facet normal 0.0 0.826314114911514 0.563209537825844
  outer loop
    vertex 86.3292486187237 -240.204660043308 4.87358092434832
    vertex 81.3292486187237 -240.43988681147 5.33969438395564
    vertex 86.3292486187237 -240.43988681147 5.33969438395564
  endloop
endfacet
facet normal 0.0 -0.66624683715123 0.74573128671525
  outer loop
    vertex 86.3292486187237 -237.425612737833 4.34737177017697
    vertex 81.3292486187237 -237.036262876736 4.69522242110498
    vertex 81.3292486187237 -237.425612737833 4.34737177017697
  endloop
endfacet
facet normal 0.0 -0.757884468374444 0.652388789447509
  outer loop
    vertex 81.3292486187237 -237.036262876736 4.69522242110498
    vertex 86.3292486187237 -237.425612737833 4.34737177017697
    vertex 86.3292486187237 -237.036262876736 4.69522242110498
  endloop
endfacet
facet normal 0.0 0.330152808022174 -0.943927498992944
  outer loop
    vertex 86.3292486187237 -239.212337429529 7.88785499798588
    vertex 81.3292486187237 -239.678450889136 7.65262822982303
    vertex 81.3292486187237 -239.212337429529 7.88785499798588
  endloop
endfacet
facet normal 0.0 0.450535567157054 -0.8927584795041
  outer loop
    vertex 81.3292486187237 -239.678450889136 7.65262822982303
    vertex 86.3292486187237 -239.212337429529 7.88785499798588
    vertex 86.3292486187237 -239.678450889136 7.65262822982303
  endloop
endfacet
facet normal 0.0 0.0745967099551162 -0.997213783931947
  outer loop
    vertex 86.3292486187237 -238.701225233395 7.99442756786389
    vertex 81.3292486187237 -239.212337429529 7.88785499798588
    vertex 81.3292486187237 -238.701225233395 7.99442756786389
  endloop
endfacet
facet normal 0.0 0.330152808022174 -0.943927498992944
  outer loop
    vertex 81.3292486187237 -239.212337429529 7.88785499798588
    vertex 86.3292486187237 -238.701225233395 7.99442756786389
    vertex 86.3292486187237 -239.212337429529 7.88785499798588
  endloop
endfacet
facet normal -0.965925826289068 -0.25881904510252 0.0
  outer loop
    vertex 93.158877750169 -245.884725638286 12.0
    vertex 93.3292486187237 -247.178820863798 0.0
    vertex 93.3292486187237 -247.178820863798 12.0
  endloop
endfacet
facet normal -1.0 4.29515496970181e-015 0.0
  outer loop
    vertex 93.3292486187237 -247.178820863798 0.0
    vertex 93.158877750169 -245.884725638286 12.0
    vertex 93.158877750169 -245.884725638286 0.0
  endloop
endfacet
facet normal -1.0 4.29515496970181e-015 0.0
  outer loop
    vertex 93.3292486187237 -247.178820863798 12.0
    vertex 93.158877750169 -248.472916089311 0.0
    vertex 93.158877750169 -248.472916089311 12.0
  endloop
endfacet
facet normal -0.96592582628907 0.258819045102514 0.0
  outer loop
    vertex 93.158877750169 -248.472916089311 0.0
    vertex 93.3292486187237 -247.178820863798 12.0
    vertex 93.3292486187237 -247.178820863798 0.0
  endloop
endfacet
facet normal -0.96592582628907 0.258819045102514 0.0
  outer loop
    vertex 93.158877750169 -248.472916089311 12.0
    vertex 92.6593756376459 -249.678820863798 0.0
    vertex 92.6593756376459 -249.678820863798 12.0
  endloop
endfacet
facet normal -0.866025403784443 0.499999999999993 0.0
  outer loop
    vertex 92.6593756376459 -249.678820863798 0.0
    vertex 93.158877750169 -248.472916089311 12.0
    vertex 93.158877750169 -248.472916089311 0.0
  endloop
endfacet
facet normal -0.866025403784443 0.499999999999993 0.0
  outer loop
    vertex 92.6593756376459 -249.678820863798 12.0
    vertex 91.8647825246564 -250.714354769731 0.0
    vertex 91.8647825246564 -250.714354769731 12.0
  endloop
endfacet
facet normal -0.707106781186538 0.707106781186557 0.0
  outer loop
    vertex 91.8647825246564 -250.714354769731 0.0
    vertex 92.6593756376459 -249.678820863798 12.0
    vertex 92.6593756376459 -249.678820863798 0.0
  endloop
endfacet
facet normal -0.608761429008703 0.793353340291249 0.0
  outer loop
    vertex 90.8292486187237 -251.508947882721 12.0
    vertex 91.8647825246564 -250.714354769731 0.0
    vertex 90.8292486187237 -251.508947882721 0.0
  endloop
endfacet
facet normal -0.707106781186538 0.707106781186557 0.0
  outer loop
    vertex 91.8647825246564 -250.714354769731 0.0
    vertex 90.8292486187237 -251.508947882721 12.0
    vertex 91.8647825246564 -250.714354769731 12.0
  endloop
endfacet
facet normal -0.857928668896148 -0.513768818717215 -0.0
  outer loop
    vertex 90.8292486187237 -251.508947882721 12.0
    vertex 91.8292486187237 -253.178820863798 0.0
    vertex 91.8292486187237 -253.178820863798 12.0
  endloop
endfacet
facet normal -0.857928668896148 -0.513768818717215 -0.0
  outer loop
    vertex 91.8292486187237 -253.178820863798 0.0
    vertex 90.8292486187237 -251.508947882721 12.0
    vertex 90.8292486187237 -251.508947882721 0.0
  endloop
endfacet
facet normal -0.0 -1.0 -0.0
  outer loop
    vertex 91.910280339835 -253.178820863798 12.0
    vertex 91.8292486187237 -253.178820863798 0.0
    vertex 91.910280339835 -253.178820863798 0.0
  endloop
endfacet
facet normal -0.0 -1.0 -0.0
  outer loop
    vertex 91.8292486187237 -253.178820863798 0.0
    vertex 91.910280339835 -253.178820863798 12.0
    vertex 91.8292486187237 -253.178820863798 12.0
  endloop
endfacet
facet normal 0.707106781186546 -0.707106781186549 0.0
  outer loop
    vertex 93.2789960870295 -252.128568332104 12.0
    vertex 91.910280339835 -253.178820863798 0.0
    vertex 93.2789960870295 -252.128568332104 0.0
  endloop
endfacet
facet normal 0.608761429008717 -0.793353340291238 0.0
  outer loop
    vertex 91.910280339835 -253.178820863798 0.0
    vertex 93.2789960870295 -252.128568332104 12.0
    vertex 91.910280339835 -253.178820863798 12.0
  endloop
endfacet
facet normal 0.86602540378444 -0.499999999999998 0.0
  outer loop
    vertex 94.3914264452148 -250.678820863798 0.0
    vertex 93.2789960870295 -252.128568332104 12.0
    vertex 93.2789960870295 -252.128568332104 0.0
  endloop
endfacet
facet normal 0.707106781186546 -0.707106781186549 0.0
  outer loop
    vertex 93.2789960870295 -252.128568332104 12.0
    vertex 94.3914264452148 -250.678820863798 0.0
    vertex 94.3914264452148 -250.678820863798 12.0
  endloop
endfacet
facet normal 0.965925826289069 -0.25881904510252 0.0
  outer loop
    vertex 95.0907294027472 -248.990554179516 0.0
    vertex 94.3914264452148 -250.678820863798 12.0
    vertex 94.3914264452148 -250.678820863798 0.0
  endloop
endfacet
facet normal 0.86602540378444 -0.499999999999998 0.0
  outer loop
    vertex 94.3914264452148 -250.678820863798 12.0
    vertex 95.0907294027472 -248.990554179516 0.0
    vertex 95.0907294027472 -248.990554179516 12.0
  endloop
endfacet
facet normal 0.99144486137381 -0.130526192220055 0.0
  outer loop
    vertex 95.3292486187237 -247.178820863798 0.0
    vertex 95.0907294027472 -248.990554179516 12.0
    vertex 95.0907294027472 -248.990554179516 0.0
  endloop
endfacet
facet normal 0.965925826289069 -0.25881904510252 0.0
  outer loop
    vertex 95.0907294027472 -248.990554179516 12.0
    vertex 95.3292486187237 -247.178820863798 0.0
    vertex 95.3292486187237 -247.178820863798 12.0
  endloop
endfacet
facet normal 1.0 0.0 0.0
  outer loop
    vertex 95.3292486187237 -247.178820863798 0.0
    vertex 95.3292486187237 -239.966245375858 4.58578643762691
    vertex 95.3292486187237 -247.178820863798 12.0
  endloop
endfacet
facet normal 1.0 0.0 0.0
  outer loop
    vertex 95.3292486187237 -239.966245375858 4.58578643762691
    vertex 95.3292486187237 -247.178820863798 0.0
    vertex 95.3292486187237 -239.552031813485 4.26794919243112
  endloop
endfacet
facet normal 1.0 0.0 0.0
  outer loop
    vertex 95.3292486187237 -239.552031813485 4.26794919243112
    vertex 95.3292486187237 -247.178820863798 0.0
    vertex 95.3292486187237 -239.06966990369 4.06814834742186
  endloop
endfacet
facet normal 1.0 0.0 0.0
  outer loop
    vertex 95.3292486187237 -239.06966990369 4.06814834742186
    vertex 95.3292486187237 -247.178820863798 0.0
    vertex 95.3292486187237 -223.178820863798 0.0
  endloop
endfacet
facet normal 1.0 0.0 0.0
  outer loop
    vertex 95.3292486187237 -247.178820863798 12.0
    vertex 95.3292486187237 -239.966245375858 4.58578643762691
    vertex 95.3292486187237 -240.284082621053 5.0
  endloop
endfacet
facet normal 1.0 0.0 0.0
  outer loop
    vertex 95.3292486187237 -247.178820863798 12.0
    vertex 95.3292486187237 -240.284082621053 5.0
    vertex 95.3292486187237 -240.483883466063 5.48236190979496
  endloop
endfacet
facet normal 1.0 0.0 0.0
  outer loop
    vertex 95.3292486187237 -247.178820863798 12.0
    vertex 95.3292486187237 -240.483883466063 5.48236190979496
    vertex 95.3292486187237 -240.552031813485 6.0
  endloop
endfacet
facet normal 1.0 0.0 0.0
  outer loop
    vertex 95.3292486187237 -239.06966990369 4.06814834742186
    vertex 95.3292486187237 -223.178820863798 0.0
    vertex 95.3292486187237 -238.552031813485 4.0
  endloop
endfacet
facet normal 1.0 0.0 0.0
  outer loop
    vertex 95.3292486187237 -238.552031813485 4.0
    vertex 95.3292486187237 -223.178820863798 0.0
    vertex 95.3292486187237 -238.034393723279 4.06814834742186
  endloop
endfacet
facet normal 1.0 0.0 0.0
  outer loop
    vertex 95.3292486187237 -238.034393723279 4.06814834742186
    vertex 95.3292486187237 -223.178820863798 0.0
    vertex 95.3292486187237 -237.552031813485 4.26794919243112
  endloop
endfacet
facet normal 1.0 0.0 0.0
  outer loop
    vertex 95.3292486187237 -237.552031813485 4.26794919243112
    vertex 95.3292486187237 -223.178820863798 0.0
    vertex 95.3292486187237 -237.433481323433 4.35891618288556
  endloop
endfacet
facet normal 1.0 0.0 0.0
  outer loop
    vertex 95.3292486187237 -237.433481323433 4.35891618288556
    vertex 95.3292486187237 -223.178820863798 0.0
    vertex 95.3292486187237 -237.137818251111 4.58578643762691
  endloop
endfacet
facet normal 1.0 0.0 0.0
  outer loop
    vertex 95.3292486187237 -237.137818251111 4.58578643762691
    vertex 95.3292486187237 -223.178820863798 0.0
    vertex 95.3292486187237 -236.819981005916 5.0
  endloop
endfacet
facet normal 1.0 0.0 0.0
  outer loop
    vertex 95.3292486187237 -236.819981005916 5.0
    vertex 95.3292486187237 -223.178820863798 0.0
    vertex 95.3292486187237 -236.620180160906 5.48236190979496
  endloop
endfacet
facet normal 1.0 0.0 0.0
  outer loop
    vertex 95.3292486187237 -236.620180160906 5.48236190979496
    vertex 95.3292486187237 -223.178820863798 0.0
    vertex 95.3292486187237 -236.552031813485 6.0
  endloop
endfacet
facet normal 1.0 0.0 0.0
  outer loop
    vertex 95.3292486187237 -247.178820863798 12.0
    vertex 95.3292486187237 -239.06966990369 7.93185165257814
    vertex 95.3292486187237 -223.178820863798 12.0
  endloop
endfacet
facet normal 1.0 0.0 0.0
  outer loop
    vertex 95.3292486187237 -239.06966990369 7.93185165257814
    vertex 95.3292486187237 -247.178820863798 12.0
    vertex 95.3292486187237 -239.552031813485 7.73205080756888
  endloop
endfacet
facet normal 1.0 0.0 0.0
  outer loop
    vertex 95.3292486187237 -239.552031813485 7.73205080756888
    vertex 95.3292486187237 -247.178820863798 12.0
    vertex 95.3292486187237 -239.670582303536 7.64108381711447
  endloop
endfacet
facet normal 1.0 0.0 0.0
  outer loop
    vertex 95.3292486187237 -239.670582303536 7.64108381711447
    vertex 95.3292486187237 -247.178820863798 12.0
    vertex 95.3292486187237 -239.966245375858 7.41421356237309
  endloop
endfacet
facet normal 1.0 0.0 0.0
  outer loop
    vertex 95.3292486187237 -239.966245375858 7.41421356237309
    vertex 95.3292486187237 -247.178820863798 12.0
    vertex 95.3292486187237 -240.284082621053 7.0
  endloop
endfacet
facet normal 1.0 0.0 0.0
  outer loop
    vertex 95.3292486187237 -240.284082621053 7.0
    vertex 95.3292486187237 -247.178820863798 12.0
    vertex 95.3292486187237 -240.483883466063 6.51763809020504
  endloop
endfacet
facet normal 1.0 0.0 0.0
  outer loop
    vertex 95.3292486187237 -240.483883466063 6.51763809020504
    vertex 95.3292486187237 -247.178820863798 12.0
    vertex 95.3292486187237 -240.552031813485 6.0
  endloop
endfacet
facet normal 1.0 0.0 0.0
  outer loop
    vertex 95.3292486187237 -223.178820863798 12.0
    vertex 95.3292486187237 -239.06966990369 7.93185165257814
    vertex 95.3292486187237 -238.552031813485 8.0
  endloop
endfacet
facet normal 1.0 0.0 0.0
  outer loop
    vertex 95.3292486187237 -223.178820863798 12.0
    vertex 95.3292486187237 -238.552031813485 8.0
    vertex 95.3292486187237 -238.034393723279 7.93185165257814
  endloop
endfacet
facet normal 1.0 0.0 0.0
  outer loop
    vertex 95.3292486187237 -223.178820863798 12.0
    vertex 95.3292486187237 -238.034393723279 7.93185165257814
    vertex 95.3292486187237 -237.552031813485 7.73205080756888
  endloop
endfacet
facet normal 1.0 0.0 0.0
  outer loop
    vertex 95.3292486187237 -223.178820863798 12.0
    vertex 95.3292486187237 -237.552031813485 7.73205080756888
    vertex 95.3292486187237 -237.137818251111 7.41421356237309
  endloop
endfacet
facet normal 1.0 0.0 0.0
  outer loop
    vertex 95.3292486187237 -223.178820863798 12.0
    vertex 95.3292486187237 -237.137818251111 7.41421356237309
    vertex 95.3292486187237 -236.819981005916 7.0
  endloop
endfacet
facet normal 1.0 0.0 0.0
  outer loop
    vertex 95.3292486187237 -223.178820863798 12.0
    vertex 95.3292486187237 -236.819981005916 7.0
    vertex 95.3292486187237 -236.620180160906 6.51763809020504
  endloop
endfacet
facet normal 1.0 0.0 0.0
  outer loop
    vertex 95.3292486187237 -223.178820863798 12.0
    vertex 95.3292486187237 -236.620180160906 6.51763809020504
    vertex 95.3292486187237 -236.552031813485 6.0
  endloop
endfacet
facet normal 1.0 0.0 0.0
  outer loop
    vertex 95.3292486187237 -223.178820863798 12.0
    vertex 95.3292486187237 -236.552031813485 6.0
    vertex 95.3292486187237 -223.178820863798 0.0
  endloop
endfacet
facet normal 0.0 1.0 0.0
  outer loop
    vertex 81.3292486187237 -223.178820863798 12.0
    vertex 95.3292486187237 -223.178820863798 0.0
    vertex 81.3292486187237 -223.178820863798 0.0
  endloop
endfacet
facet normal 0.0 1.0 0.0
  outer loop
    vertex 95.3292486187237 -223.178820863798 0.0
    vertex 81.3292486187237 -223.178820863798 12.0
    vertex 95.3292486187237 -223.178820863798 12.0
  endloop
endfacet
facet normal -1.0 0.0 0.0
  outer loop
    vertex 81.3292486187237 -247.178820863798 12.0
    vertex 81.3292486187237 -240.067800750233 7.30477757889502
    vertex 81.3292486187237 -247.178820863798 0.0
  endloop
endfacet
facet normal -1.0 0.0 0.0
  outer loop
    vertex 81.3292486187237 -240.067800750233 7.30477757889502
    vertex 81.3292486187237 -247.178820863798 12.0
    vertex 81.3292486187237 -239.678450889136 7.65262822982303
  endloop
endfacet
facet normal -1.0 0.0 0.0
  outer loop
    vertex 81.3292486187237 -239.678450889136 7.65262822982303
    vertex 81.3292486187237 -247.178820863798 12.0
    vertex 81.3292486187237 -239.212337429529 7.88785499798588
  endloop
endfacet
facet normal -1.0 0.0 0.0
  outer loop
    vertex 81.3292486187237 -239.212337429529 7.88785499798588
    vertex 81.3292486187237 -247.178820863798 12.0
    vertex 81.3292486187237 -223.178820863798 12.0
  endloop
endfacet
facet normal -1.0 0.0 0.0
  outer loop
    vertex 81.3292486187237 -247.178820863798 0.0
    vertex 81.3292486187237 -240.067800750233 7.30477757889502
    vertex 81.3292486187237 -240.353853463218 6.86800849221221
  endloop
endfacet
facet normal -1.0 0.0 0.0
  outer loop
    vertex 81.3292486187237 -247.178820863798 0.0
    vertex 81.3292486187237 -240.353853463218 6.86800849221221
    vertex 81.3292486187237 -240.517115008424 6.372086061237
  endloop
endfacet
facet normal -1.0 0.0 0.0
  outer loop
    vertex 81.3292486187237 -247.178820863798 0.0
    vertex 81.3292486187237 -240.517115008424 6.372086061237
    vertex 81.3292486187237 -240.546459381348 5.85080658008977
  endloop
endfacet
facet normal -1.0 0.0 0.0
  outer loop
    vertex 81.3292486187237 -239.212337429529 7.88785499798588
    vertex 81.3292486187237 -223.178820863798 12.0
    vertex 81.3292486187237 -238.701225233395 7.99442756786389
  endloop
endfacet
facet normal -1.0 0.0 0.0
  outer loop
    vertex 81.3292486187237 -238.701225233395 7.99442756786389
    vertex 81.3292486187237 -223.178820863798 12.0
    vertex 81.3292486187237 -238.179945752248 7.96508319493937
  endloop
endfacet
facet normal -1.0 0.0 0.0
  outer loop
    vertex 81.3292486187237 -238.179945752248 7.96508319493937
    vertex 81.3292486187237 -223.178820863798 12.0
    vertex 81.3292486187237 -237.684023321272 7.80182164973326
  endloop
endfacet
facet normal -1.0 0.0 0.0
  outer loop
    vertex 81.3292486187237 -237.684023321272 7.80182164973326
    vertex 81.3292486187237 -223.178820863798 12.0
    vertex 81.3292486187237 -237.24725423459 7.51576893674889
  endloop
endfacet
facet normal -1.0 0.0 0.0
  outer loop
    vertex 81.3292486187237 -237.24725423459 7.51576893674889
    vertex 81.3292486187237 -223.178820863798 12.0
    vertex 81.3292486187237 -236.899403583662 7.12641907565168
  endloop
endfacet
facet normal -1.0 0.0 0.0
  outer loop
    vertex 81.3292486187237 -236.899403583662 7.12641907565168
    vertex 81.3292486187237 -223.178820863798 12.0
    vertex 81.3292486187237 -236.664176815499 6.66030561604436
  endloop
endfacet
facet normal -1.0 0.0 0.0
  outer loop
    vertex 81.3292486187237 -236.664176815499 6.66030561604436
    vertex 81.3292486187237 -223.178820863798 12.0
    vertex 81.3292486187237 -236.557604245621 6.14919341991023
  endloop
endfacet
facet normal -1.0 0.0 0.0
  outer loop
    vertex 81.3292486187237 -247.178820863798 0.0
    vertex 81.3292486187237 -238.924117874722 4.03491680506063
    vertex 81.3292486187237 -223.178820863798 0.0
  endloop
endfacet
facet normal -1.0 0.0 0.0
  outer loop
    vertex 81.3292486187237 -238.924117874722 4.03491680506063
    vertex 81.3292486187237 -247.178820863798 0.0
    vertex 81.3292486187237 -239.420040305697 4.19817835026674
  endloop
endfacet
facet normal -1.0 0.0 0.0
  outer loop
    vertex 81.3292486187237 -239.420040305697 4.19817835026674
    vertex 81.3292486187237 -247.178820863798 0.0
    vertex 81.3292486187237 -239.85680939238 4.48423106325111
  endloop
endfacet
facet normal -1.0 0.0 0.0
  outer loop
    vertex 81.3292486187237 -239.85680939238 4.48423106325111
    vertex 81.3292486187237 -247.178820863798 0.0
    vertex 81.3292486187237 -240.204660043308 4.87358092434832
  endloop
endfacet
facet normal -1.0 0.0 0.0
  outer loop
    vertex 81.3292486187237 -240.204660043308 4.87358092434832
    vertex 81.3292486187237 -247.178820863798 0.0
    vertex 81.3292486187237 -240.43988681147 5.33969438395564
  endloop
endfacet
facet normal -1.0 0.0 0.0
  outer loop
    vertex 81.3292486187237 -240.43988681147 5.33969438395564
    vertex 81.3292486187237 -247.178820863798 0.0
    vertex 81.3292486187237 -240.546459381348 5.85080658008977
  endloop
endfacet
facet normal -1.0 0.0 0.0
  outer loop
    vertex 81.3292486187237 -223.178820863798 0.0
    vertex 81.3292486187237 -238.924117874722 4.03491680506063
    vertex 81.3292486187237 -238.402838393574 4.00557243213611
  endloop
endfacet
facet normal -1.0 0.0 0.0
  outer loop
    vertex 81.3292486187237 -223.178820863798 0.0
    vertex 81.3292486187237 -238.402838393574 4.00557243213611
    vertex 81.3292486187237 -237.89172619744 4.11214500201412
  endloop
endfacet
facet normal -1.0 0.0 0.0
  outer loop
    vertex 81.3292486187237 -223.178820863798 0.0
    vertex 81.3292486187237 -237.89172619744 4.11214500201412
    vertex 81.3292486187237 -237.425612737833 4.34737177017697
  endloop
endfacet
facet normal -1.0 0.0 0.0
  outer loop
    vertex 81.3292486187237 -223.178820863798 0.0
    vertex 81.3292486187237 -237.425612737833 4.34737177017697
    vertex 81.3292486187237 -237.036262876736 4.69522242110498
  endloop
endfacet
facet normal -1.0 0.0 0.0
  outer loop
    vertex 81.3292486187237 -223.178820863798 0.0
    vertex 81.3292486187237 -237.036262876736 4.69522242110498
    vertex 81.3292486187237 -236.750210163751 5.13199150778779
  endloop
endfacet
facet normal -1.0 0.0 0.0
  outer loop
    vertex 81.3292486187237 -223.178820863798 0.0
    vertex 81.3292486187237 -236.750210163751 5.13199150778779
    vertex 81.3292486187237 -236.586948618545 5.627913938763
  endloop
endfacet
facet normal -1.0 0.0 0.0
  outer loop
    vertex 81.3292486187237 -223.178820863798 0.0
    vertex 81.3292486187237 -236.586948618545 5.627913938763
    vertex 81.3292486187237 -236.557604245621 6.14919341991023
  endloop
endfacet
facet normal -1.0 0.0 0.0
  outer loop
    vertex 81.3292486187237 -223.178820863798 0.0
    vertex 81.3292486187237 -236.557604245621 6.14919341991023
    vertex 81.3292486187237 -223.178820863798 12.0
  endloop
endfacet
facet normal -0.99144486137381 -0.130526192220055 -0.0
  outer loop
    vertex 81.3292486187237 -247.178820863798 12.0
    vertex 81.5677678347002 -248.990554179516 0.0
    vertex 81.5677678347002 -248.990554179516 12.0
  endloop
endfacet
facet normal -0.965925826289069 -0.25881904510252 0.0
  outer loop
    vertex 81.5677678347002 -248.990554179516 0.0
    vertex 81.3292486187237 -247.178820863798 12.0
    vertex 81.3292486187237 -247.178820863798 0.0
  endloop
endfacet
facet normal -0.965925826289069 -0.25881904510252 0.0
  outer loop
    vertex 81.5677678347002 -248.990554179516 12.0
    vertex 82.2670707922326 -250.678820863798 0.0
    vertex 82.2670707922326 -250.678820863798 12.0
  endloop
endfacet
facet normal -0.86602540378444 -0.499999999999998 0.0
  outer loop
    vertex 82.2670707922326 -250.678820863798 0.0
    vertex 81.5677678347002 -248.990554179516 12.0
    vertex 81.5677678347002 -248.990554179516 0.0
  endloop
endfacet
facet normal -0.86602540378444 -0.499999999999998 0.0
  outer loop
    vertex 82.2670707922326 -250.678820863798 12.0
    vertex 83.3795011504179 -252.128568332104 0.0
    vertex 83.3795011504179 -252.128568332104 12.0
  endloop
endfacet
facet normal -0.707106781186547 -0.707106781186548 0.0
  outer loop
    vertex 83.3795011504179 -252.128568332104 0.0
    vertex 82.2670707922326 -250.678820863798 12.0
    vertex 82.2670707922326 -250.678820863798 0.0
  endloop
endfacet
facet normal -0.60876142900872 -0.793353340291235 -0.0
  outer loop
    vertex 84.7482168976124 -253.178820863798 12.0
    vertex 83.3795011504179 -252.128568332104 0.0
    vertex 84.7482168976124 -253.178820863798 0.0
  endloop
endfacet
facet normal -0.707106781186547 -0.707106781186548 0.0
  outer loop
    vertex 83.3795011504179 -252.128568332104 0.0
    vertex 84.7482168976124 -253.178820863798 12.0
    vertex 83.3795011504179 -252.128568332104 12.0
  endloop
endfacet
facet normal -0.0 -1.0 -0.0
  outer loop
    vertex 84.8292486187237 -253.178820863798 12.0
    vertex 84.7482168976124 -253.178820863798 0.0
    vertex 84.8292486187237 -253.178820863798 0.0
  endloop
endfacet
facet normal -0.0 -1.0 -0.0
  outer loop
    vertex 84.7482168976124 -253.178820863798 0.0
    vertex 84.8292486187237 -253.178820863798 12.0
    vertex 84.7482168976124 -253.178820863798 12.0
  endloop
endfacet
facet normal 0.857928668896148 -0.513768818717215 0.0
  outer loop
    vertex 85.8292486187237 -251.508947882721 0.0
    vertex 84.8292486187237 -253.178820863798 12.0
    vertex 84.8292486187237 -253.178820863798 0.0
  endloop
endfacet
facet normal 0.857928668896148 -0.513768818717215 0.0
  outer loop
    vertex 84.8292486187237 -253.178820863798 12.0
    vertex 85.8292486187237 -251.508947882721 0.0
    vertex 85.8292486187237 -251.508947882721 12.0
  endloop
endfacet
facet normal 0.707106781186546 0.707106781186549 0.0
  outer loop
    vertex 84.793714712791 -250.714354769731 12.0
    vertex 85.8292486187237 -251.508947882721 0.0
    vertex 84.793714712791 -250.714354769731 0.0
  endloop
endfacet
facet normal 0.608761429008703 0.793353340291249 0.0
  outer loop
    vertex 85.8292486187237 -251.508947882721 0.0
    vertex 84.793714712791 -250.714354769731 12.0
    vertex 85.8292486187237 -251.508947882721 12.0
  endloop
endfacet
facet normal 0.866025403784443 0.499999999999993 0.0
  outer loop
    vertex 83.9991215998015 -249.678820863798 0.0
    vertex 84.793714712791 -250.714354769731 12.0
    vertex 84.793714712791 -250.714354769731 0.0
  endloop
endfacet
facet normal 0.707106781186546 0.707106781186549 0.0
  outer loop
    vertex 84.793714712791 -250.714354769731 12.0
    vertex 83.9991215998015 -249.678820863798 0.0
    vertex 83.9991215998015 -249.678820863798 12.0
  endloop
endfacet
facet normal 0.965925826289068 0.25881904510252 0.0
  outer loop
    vertex 83.4996194872784 -248.472916089311 0.0
    vertex 83.9991215998015 -249.678820863798 12.0
    vertex 83.9991215998015 -249.678820863798 0.0
  endloop
endfacet
facet normal 0.866025403784443 0.499999999999993 0.0
  outer loop
    vertex 83.9991215998015 -249.678820863798 12.0
    vertex 83.4996194872784 -248.472916089311 0.0
    vertex 83.4996194872784 -248.472916089311 12.0
  endloop
endfacet
facet normal 1.0 -2.03173305620749e-015 0.0
  outer loop
    vertex 83.3292486187237 -247.178820863798 0.0
    vertex 83.4996194872784 -248.472916089311 12.0
    vertex 83.4996194872784 -248.472916089311 0.0
  endloop
endfacet
facet normal 0.965925826289068 0.25881904510252 0.0
  outer loop
    vertex 83.4996194872784 -248.472916089311 12.0
    vertex 83.3292486187237 -247.178820863798 0.0
    vertex 83.3292486187237 -247.178820863798 12.0
  endloop
endfacet
facet normal 0.965925826289068 -0.258819045102522 0.0
  outer loop
    vertex 83.4996194872784 -245.884725638286 0.0
    vertex 83.3292486187237 -247.178820863798 12.0
    vertex 83.3292486187237 -247.178820863798 0.0
  endloop
endfacet
facet normal 1.0 -2.03173305620749e-015 0.0
  outer loop
    vertex 83.3292486187237 -247.178820863798 12.0
    vertex 83.4996194872784 -245.884725638286 0.0
    vertex 83.4996194872784 -245.884725638286 12.0
  endloop
endfacet
facet normal 0.866025403784438 -0.500000000000002 0.0
  outer loop
    vertex 83.9991215998015 -244.678820863798 0.0
    vertex 83.4996194872784 -245.884725638286 12.0
    vertex 83.4996194872784 -245.884725638286 0.0
  endloop
endfacet
facet normal 0.965925826289068 -0.258819045102522 0.0
  outer loop
    vertex 83.4996194872784 -245.884725638286 12.0
    vertex 83.9991215998015 -244.678820863798 0.0
    vertex 83.9991215998015 -244.678820863798 12.0
  endloop
endfacet
facet normal 0.70710678118654 -0.707106781186555 0.0
  outer loop
    vertex 84.793714712791 -243.643286957866 0.0
    vertex 83.9991215998015 -244.678820863798 12.0
    vertex 83.9991215998015 -244.678820863798 0.0
  endloop
endfacet
facet normal 0.866025403784438 -0.500000000000002 0.0
  outer loop
    vertex 83.9991215998015 -244.678820863798 12.0
    vertex 84.793714712791 -243.643286957866 0.0
    vertex 84.793714712791 -243.643286957866 12.0
  endloop
endfacet
facet normal 0.500000000000012 -0.866025403784432 0.0
  outer loop
    vertex 85.8292486187237 -242.848693844876 12.0
    vertex 84.793714712791 -243.643286957866 0.0
    vertex 85.8292486187237 -242.848693844876 0.0
  endloop
endfacet
facet normal 0.70710678118654 -0.707106781186555 0.0
  outer loop
    vertex 84.793714712791 -243.643286957866 0.0
    vertex 85.8292486187237 -242.848693844876 12.0
    vertex 84.793714712791 -243.643286957866 12.0
  endloop
endfacet
facet normal 0.38268343236513 -0.92387953251127 0.0
  outer loop
    vertex 86.3292486187237 -242.64158706369 12.0
    vertex 85.8292486187237 -242.848693844876 0.0
    vertex 86.3292486187237 -242.64158706369 0.0
  endloop
endfacet
facet normal 0.500000000000012 -0.866025403784432 0.0
  outer loop
    vertex 85.8292486187237 -242.848693844876 0.0
    vertex 86.3292486187237 -242.64158706369 12.0
    vertex 85.8292486187237 -242.848693844876 12.0
  endloop
endfacet
facet normal 1.0 0.0 0.0
  outer loop
    vertex 86.3292486187237 -242.64158706369 0.0
    vertex 86.3292486187237 -240.43988681147 5.33969438395564
    vertex 86.3292486187237 -242.64158706369 12.0
  endloop
endfacet
facet normal 1.0 0.0 0.0
  outer loop
    vertex 86.3292486187237 -240.43988681147 5.33969438395564
    vertex 86.3292486187237 -242.64158706369 0.0
    vertex 86.3292486187237 -240.204660043308 4.87358092434832
  endloop
endfacet
facet normal 1.0 0.0 0.0
  outer loop
    vertex 86.3292486187237 -240.204660043308 4.87358092434832
    vertex 86.3292486187237 -242.64158706369 0.0
    vertex 86.3292486187237 -239.85680939238 4.48423106325111
  endloop
endfacet
facet normal 1.0 0.0 0.0
  outer loop
    vertex 86.3292486187237 -239.85680939238 4.48423106325111
    vertex 86.3292486187237 -242.64158706369 0.0
    vertex 86.3292486187237 -234.462476563279 0.0
  endloop
endfacet
facet normal 1.0 0.0 0.0
  outer loop
    vertex 86.3292486187237 -242.64158706369 12.0
    vertex 86.3292486187237 -240.43988681147 5.33969438395564
    vertex 86.3292486187237 -240.546459381348 5.85080658008977
  endloop
endfacet
facet normal 1.0 0.0 0.0
  outer loop
    vertex 86.3292486187237 -239.85680939238 4.48423106325111
    vertex 86.3292486187237 -234.462476563279 0.0
    vertex 86.3292486187237 -239.420040305697 4.19817835026674
  endloop
endfacet
facet normal 1.0 0.0 0.0
  outer loop
    vertex 86.3292486187237 -239.420040305697 4.19817835026674
    vertex 86.3292486187237 -234.462476563279 0.0
    vertex 86.3292486187237 -238.924117874722 4.03491680506063
  endloop
endfacet
facet normal 1.0 0.0 0.0
  outer loop
    vertex 86.3292486187237 -238.924117874722 4.03491680506063
    vertex 86.3292486187237 -234.462476563279 0.0
    vertex 86.3292486187237 -238.402838393574 4.00557243213611
  endloop
endfacet
facet normal 1.0 0.0 0.0
  outer loop
    vertex 86.3292486187237 -238.402838393574 4.00557243213611
    vertex 86.3292486187237 -234.462476563279 0.0
    vertex 86.3292486187237 -237.89172619744 4.11214500201412
  endloop
endfacet
facet normal 1.0 0.0 0.0
  outer loop
    vertex 86.3292486187237 -237.89172619744 4.11214500201412
    vertex 86.3292486187237 -234.462476563279 0.0
    vertex 86.3292486187237 -237.425612737833 4.34737177017697
  endloop
endfacet
facet normal 1.0 0.0 0.0
  outer loop
    vertex 86.3292486187237 -237.425612737833 4.34737177017697
    vertex 86.3292486187237 -234.462476563279 0.0
    vertex 86.3292486187237 -237.036262876736 4.69522242110498
  endloop
endfacet
facet normal 1.0 0.0 0.0
  outer loop
    vertex 86.3292486187237 -237.036262876736 4.69522242110498
    vertex 86.3292486187237 -234.462476563279 0.0
    vertex 86.3292486187237 -236.750210163751 5.13199150778779
  endloop
endfacet
facet normal 1.0 0.0 0.0
  outer loop
    vertex 86.3292486187237 -236.750210163751 5.13199150778779
    vertex 86.3292486187237 -234.462476563279 0.0
    vertex 86.3292486187237 -236.586948618545 5.627913938763
  endloop
endfacet
facet normal 1.0 0.0 0.0
  outer loop
    vertex 86.3292486187237 -236.586948618545 5.627913938763
    vertex 86.3292486187237 -234.462476563279 0.0
    vertex 86.3292486187237 -236.557604245621 6.14919341991023
  endloop
endfacet
facet normal 1.0 0.0 0.0
  outer loop
    vertex 86.3292486187237 -242.64158706369 12.0
    vertex 86.3292486187237 -239.678450889136 7.65262822982303
    vertex 86.3292486187237 -234.462476563279 12.0
  endloop
endfacet
facet normal 1.0 0.0 0.0
  outer loop
    vertex 86.3292486187237 -239.678450889136 7.65262822982303
    vertex 86.3292486187237 -242.64158706369 12.0
    vertex 86.3292486187237 -240.067800750233 7.30477757889502
  endloop
endfacet
facet normal 1.0 0.0 0.0
  outer loop
    vertex 86.3292486187237 -240.067800750233 7.30477757889502
    vertex 86.3292486187237 -242.64158706369 12.0
    vertex 86.3292486187237 -240.353853463218 6.86800849221221
  endloop
endfacet
facet normal 1.0 0.0 0.0
  outer loop
    vertex 86.3292486187237 -240.353853463218 6.86800849221221
    vertex 86.3292486187237 -242.64158706369 12.0
    vertex 86.3292486187237 -240.517115008424 6.372086061237
  endloop
endfacet
facet normal 1.0 0.0 0.0
  outer loop
    vertex 86.3292486187237 -240.517115008424 6.372086061237
    vertex 86.3292486187237 -242.64158706369 12.0
    vertex 86.3292486187237 -240.546459381348 5.85080658008977
  endloop
endfacet
facet normal 1.0 0.0 0.0
  outer loop
    vertex 86.3292486187237 -234.462476563279 12.0
    vertex 86.3292486187237 -239.678450889136 7.65262822982303
    vertex 86.3292486187237 -239.212337429529 7.88785499798588
  endloop
endfacet
facet normal 1.0 0.0 0.0
  outer loop
    vertex 86.3292486187237 -234.462476563279 12.0
    vertex 86.3292486187237 -239.212337429529 7.88785499798588
    vertex 86.3292486187237 -238.701225233395 7.99442756786389
  endloop
endfacet
facet normal 1.0 0.0 0.0
  outer loop
    vertex 86.3292486187237 -234.462476563279 12.0
    vertex 86.3292486187237 -238.701225233395 7.99442756786389
    vertex 86.3292486187237 -238.179945752248 7.96508319493937
  endloop
endfacet
facet normal 1.0 0.0 0.0
  outer loop
    vertex 86.3292486187237 -234.462476563279 12.0
    vertex 86.3292486187237 -238.179945752248 7.96508319493937
    vertex 86.3292486187237 -237.684023321272 7.80182164973326
  endloop
endfacet
facet normal 1.0 0.0 0.0
  outer loop
    vertex 86.3292486187237 -234.462476563279 12.0
    vertex 86.3292486187237 -237.684023321272 7.80182164973326
    vertex 86.3292486187237 -237.24725423459 7.51576893674889
  endloop
endfacet
facet normal 1.0 0.0 0.0
  outer loop
    vertex 86.3292486187237 -234.462476563279 12.0
    vertex 86.3292486187237 -237.24725423459 7.51576893674889
    vertex 86.3292486187237 -236.899403583662 7.12641907565168
  endloop
endfacet
facet normal 1.0 0.0 0.0
  outer loop
    vertex 86.3292486187237 -234.462476563279 12.0
    vertex 86.3292486187237 -236.899403583662 7.12641907565168
    vertex 86.3292486187237 -236.664176815499 6.66030561604436
  endloop
endfacet
facet normal 1.0 0.0 0.0
  outer loop
    vertex 86.3292486187237 -234.462476563279 12.0
    vertex 86.3292486187237 -236.664176815499 6.66030561604436
    vertex 86.3292486187237 -236.557604245621 6.14919341991023
  endloop
endfacet
facet normal 1.0 0.0 0.0
  outer loop
    vertex 86.3292486187237 -234.462476563279 12.0
    vertex 86.3292486187237 -236.557604245621 6.14919341991023
    vertex 86.3292486187237 -234.462476563279 0.0
  endloop
endfacet
facet normal 0.965925826289063 0.258819045102543 0.0
  outer loop
    vertex 86.281580060642 -234.34739448386 0.0
    vertex 86.3292486187237 -234.462476563279 12.0
    vertex 86.3292486187237 -234.462476563279 0.0
  endloop
endfacet
facet normal 0.923879532511271 0.382683432365127 0.0
  outer loop
    vertex 86.3292486187237 -234.462476563279 12.0
    vertex 86.281580060642 -234.34739448386 0.0
    vertex 86.281580060642 -234.34739448386 12.0
  endloop
endfacet
facet normal 0.0 -0.608761429008689 0.793353340291259
  outer loop
    vertex 95.3292486187237 -237.433481323433 4.35891618288556
    vertex 90.3292486187237 -237.137818251111 4.58578643762691
    vertex 90.3292486187237 -237.433481323433 4.35891618288556
  endloop
endfacet
facet normal 0.0 -0.707106781186541 0.707106781186554
  outer loop
    vertex 90.3292486187237 -237.137818251111 4.58578643762691
    vertex 95.3292486187237 -237.433481323433 4.35891618288556
    vertex 95.3292486187237 -237.137818251111 4.58578643762691
  endloop
endfacet
facet normal 1.0 0.0 0.0
  outer loop
    vertex 86.2093461351671 -233.798723347355 0.0
    vertex 86.281580060642 -234.34739448386 12.0
    vertex 86.281580060642 -234.34739448386 0.0
  endloop
endfacet
facet normal 0.965925826289063 0.258819045102543 0.0
  outer loop
    vertex 86.281580060642 -234.34739448386 12.0
    vertex 86.2093461351671 -233.798723347355 0.0
    vertex 86.2093461351671 -233.798723347355 12.0
  endloop
endfacet
facet normal 0.965925826289063 -0.258819045102543 0.0
  outer loop
    vertex 86.281580060642 -233.250052210851 0.0
    vertex 86.2093461351671 -233.798723347355 12.0
    vertex 86.2093461351671 -233.798723347355 0.0
  endloop
endfacet
facet normal 1.0 0.0 0.0
  outer loop
    vertex 86.2093461351671 -233.798723347355 12.0
    vertex 86.281580060642 -233.250052210851 0.0
    vertex 86.281580060642 -233.250052210851 12.0
  endloop
endfacet
facet normal 0.923879532511271 -0.382683432365127 0.0
  outer loop
    vertex 86.3292486187237 -233.134970131431 0.0
    vertex 86.281580060642 -233.250052210851 12.0
    vertex 86.281580060642 -233.250052210851 0.0
  endloop
endfacet
facet normal 0.965925826289063 -0.258819045102543 0.0
  outer loop
    vertex 86.281580060642 -233.250052210851 12.0
    vertex 86.3292486187237 -233.134970131431 0.0
    vertex 86.3292486187237 -233.134970131431 12.0
  endloop
endfacet
facet normal -0.707106781186546 -0.707106781186549 0.0
  outer loop
    vertex 91.8647825246564 -243.643286957866 12.0
    vertex 92.6593756376459 -244.678820863798 0.0
    vertex 92.6593756376459 -244.678820863798 12.0
  endloop
endfacet
facet normal -0.866025403784443 -0.499999999999993 0.0
  outer loop
    vertex 92.6593756376459 -244.678820863798 0.0
    vertex 91.8647825246564 -243.643286957866 12.0
    vertex 91.8647825246564 -243.643286957866 0.0
  endloop
endfacet
facet normal 0.866025403784444 -0.499999999999991 0.0
  outer loop
    vertex 86.4933592144179 -232.738772105577 0.0
    vertex 86.3292486187237 -233.134970131431 12.0
    vertex 86.3292486187237 -233.134970131431 0.0
  endloop
endfacet
facet normal 0.923879532511295 -0.382683432365069 0.0
  outer loop
    vertex 86.3292486187237 -233.134970131431 12.0
    vertex 86.4933592144179 -232.738772105577 0.0
    vertex 86.4933592144179 -232.738772105577 12.0
  endloop
endfacet
facet normal -0.965925826289063 0.258819045102543 0.0
  outer loop
    vertex 90.3769171768054 -234.34739448386 12.0
    vertex 90.3292486187237 -234.462476563279 0.0
    vertex 90.3292486187237 -234.462476563279 12.0
  endloop
endfacet
facet normal -0.923879532511271 0.382683432365127 0.0
  outer loop
    vertex 90.3292486187237 -234.462476563279 0.0
    vertex 90.3769171768054 -234.34739448386 12.0
    vertex 90.3769171768054 -234.34739448386 0.0
  endloop
endfacet
facet normal -0.50000000000001 -0.866025403784433 0.0
  outer loop
    vertex 90.8292486187237 -242.848693844876 12.0
    vertex 90.3292486187237 -242.64158706369 0.0
    vertex 90.8292486187237 -242.848693844876 0.0
  endloop
endfacet
facet normal -0.38268343236513 -0.92387953251127 -0.0
  outer loop
    vertex 90.3292486187237 -242.64158706369 0.0
    vertex 90.8292486187237 -242.848693844876 12.0
    vertex 90.3292486187237 -242.64158706369 12.0
  endloop
endfacet
facet normal -0.965925826289063 -0.258819045102543 0.0
  outer loop
    vertex 90.3769171768054 -233.250052210851 12.0
    vertex 90.4491511022803 -233.798723347355 0.0
    vertex 90.4491511022803 -233.798723347355 12.0
  endloop
endfacet
facet normal -1.0 0.0 0.0
  outer loop
    vertex 90.4491511022803 -233.798723347355 0.0
    vertex 90.3769171768054 -233.250052210851 12.0
    vertex 90.3769171768054 -233.250052210851 0.0
  endloop
endfacet
facet normal -0.707106781186546 -0.707106781186549 0.0
  outer loop
    vertex 91.8647825246564 -243.643286957866 12.0
    vertex 90.8292486187237 -242.848693844876 0.0
    vertex 91.8647825246564 -243.643286957866 0.0
  endloop
endfacet
facet normal -0.50000000000001 -0.866025403784433 0.0
  outer loop
    vertex 90.8292486187237 -242.848693844876 0.0
    vertex 91.8647825246564 -243.643286957866 12.0
    vertex 90.8292486187237 -242.848693844876 12.0
  endloop
endfacet
facet normal 0.707106781186552 -0.707106781186543 0.0
  outer loop
    vertex 86.8302511971466 -232.299725925778 0.0
    vertex 86.4933592144179 -232.738772105577 12.0
    vertex 86.4933592144179 -232.738772105577 0.0
  endloop
endfacet
facet normal 0.866025403784444 -0.499999999999991 0.0
  outer loop
    vertex 86.4933592144179 -232.738772105577 12.0
    vertex 86.8302511971466 -232.299725925778 0.0
    vertex 86.8302511971466 -232.299725925778 12.0
  endloop
endfacet
facet normal -0.923879532511271 -0.382683432365127 -0.0
  outer loop
    vertex 90.3292486187237 -233.134970131431 12.0
    vertex 90.3769171768054 -233.250052210851 0.0
    vertex 90.3769171768054 -233.250052210851 12.0
  endloop
endfacet
facet normal -0.965925826289063 -0.258819045102543 0.0
  outer loop
    vertex 90.3769171768054 -233.250052210851 0.0
    vertex 90.3292486187237 -233.134970131431 12.0
    vertex 90.3292486187237 -233.134970131431 0.0
  endloop
endfacet
facet normal 0.500000000000007 -0.866025403784435 0.0
  outer loop
    vertex 87.2692973769454 -231.962833943049 12.0
    vertex 86.8302511971466 -232.299725925778 0.0
    vertex 87.2692973769454 -231.962833943049 0.0
  endloop
endfacet
facet normal 0.707106781186552 -0.707106781186543 0.0
  outer loop
    vertex 86.8302511971466 -232.299725925778 0.0
    vertex 87.2692973769454 -231.962833943049 12.0
    vertex 86.8302511971466 -232.299725925778 12.0
  endloop
endfacet
facet normal 0.258819045102506 -0.965925826289072 0.0
  outer loop
    vertex 87.7805774822191 -231.751054789273 12.0
    vertex 87.2692973769454 -231.962833943049 0.0
    vertex 87.7805774822191 -231.751054789273 0.0
  endloop
endfacet
facet normal 0.500000000000007 -0.866025403784435 0.0
  outer loop
    vertex 87.2692973769454 -231.962833943049 0.0
    vertex 87.7805774822191 -231.751054789273 12.0
    vertex 87.2692973769454 -231.962833943049 12.0
  endloop
endfacet
facet normal 0.0 -1.0 0.0
  outer loop
    vertex 88.3292486187237 -231.678820863798 12.0
    vertex 87.7805774822191 -231.751054789273 0.0
    vertex 88.3292486187237 -231.678820863798 0.0
  endloop
endfacet
facet normal 0.258819045102506 -0.965925826289072 0.0
  outer loop
    vertex 87.7805774822191 -231.751054789273 0.0
    vertex 88.3292486187237 -231.678820863798 12.0
    vertex 87.7805774822191 -231.751054789273 12.0
  endloop
endfacet
facet normal -1.0 0.0 0.0
  outer loop
    vertex 90.4491511022803 -233.798723347355 12.0
    vertex 90.3769171768054 -234.34739448386 0.0
    vertex 90.3769171768054 -234.34739448386 12.0
  endloop
endfacet
facet normal -0.965925826289063 0.258819045102543 0.0
  outer loop
    vertex 90.3769171768054 -234.34739448386 0.0
    vertex 90.4491511022803 -233.798723347355 12.0
    vertex 90.4491511022803 -233.798723347355 0.0
  endloop
endfacet
facet normal -0.707106781186552 -0.707106781186543 0.0
  outer loop
    vertex 89.8282460403008 -232.299725925778 12.0
    vertex 89.389199860502 -231.962833943049 0.0
    vertex 89.8282460403008 -232.299725925778 0.0
  endloop
endfacet
facet normal -0.500000000000007 -0.866025403784435 0.0
  outer loop
    vertex 89.389199860502 -231.962833943049 0.0
    vertex 89.8282460403008 -232.299725925778 12.0
    vertex 89.389199860502 -231.962833943049 12.0
  endloop
endfacet
facet normal -0.500000000000007 -0.866025403784435 0.0
  outer loop
    vertex 89.389199860502 -231.962833943049 12.0
    vertex 88.8779197552283 -231.751054789273 0.0
    vertex 89.389199860502 -231.962833943049 0.0
  endloop
endfacet
facet normal -0.258819045102506 -0.965925826289072 0.0
  outer loop
    vertex 88.8779197552283 -231.751054789273 0.0
    vertex 89.389199860502 -231.962833943049 12.0
    vertex 88.8779197552283 -231.751054789273 12.0
  endloop
endfacet
facet normal -0.707106781186552 -0.707106781186543 0.0
  outer loop
    vertex 89.8282460403008 -232.299725925778 12.0
    vertex 90.1651380230295 -232.738772105577 0.0
    vertex 90.1651380230295 -232.738772105577 12.0
  endloop
endfacet
facet normal -0.866025403784444 -0.499999999999991 0.0
  outer loop
    vertex 90.1651380230295 -232.738772105577 0.0
    vertex 89.8282460403008 -232.299725925778 12.0
    vertex 89.8282460403008 -232.299725925778 0.0
  endloop
endfacet
facet normal -0.258819045102506 -0.965925826289072 0.0
  outer loop
    vertex 88.8779197552283 -231.751054789273 12.0
    vertex 88.3292486187237 -231.678820863798 0.0
    vertex 88.8779197552283 -231.751054789273 0.0
  endloop
endfacet
facet normal 0.0 -1.0 0.0
  outer loop
    vertex 88.3292486187237 -231.678820863798 0.0
    vertex 88.8779197552283 -231.751054789273 12.0
    vertex 88.3292486187237 -231.678820863798 12.0
  endloop
endfacet
facet normal -1.0 2.38848297617034e-031 1.11566387850564e-030
  outer loop
    vertex 90.3292486187237 -242.64158706369 12.0
    vertex 90.3292486187237 -240.483883466063 6.51763809020504
    vertex 90.3292486187237 -242.64158706369 0.0
  endloop
endfacet
facet normal -1.0 2.38848297617034e-031 1.11566387850564e-030
  outer loop
    vertex 90.3292486187237 -240.483883466063 6.51763809020504
    vertex 90.3292486187237 -242.64158706369 12.0
    vertex 90.3292486187237 -240.284082621053 7.0
  endloop
endfacet
facet normal -1.0 2.38848297617034e-031 1.11566387850564e-030
  outer loop
    vertex 90.3292486187237 -240.284082621053 7.0
    vertex 90.3292486187237 -242.64158706369 12.0
    vertex 90.3292486187237 -239.966245375858 7.41421356237309
  endloop
endfacet
facet normal -1.0 2.38848297617034e-031 1.11566387850564e-030
  outer loop
    vertex 90.3292486187237 -239.966245375858 7.41421356237309
    vertex 90.3292486187237 -242.64158706369 12.0
    vertex 90.3292486187237 -234.462476563279 12.0
  endloop
endfacet
facet normal -1.0 2.38848297617034e-031 1.11566387850564e-030
  outer loop
    vertex 90.3292486187237 -242.64158706369 0.0
    vertex 90.3292486187237 -240.483883466063 6.51763809020504
    vertex 90.3292486187237 -240.552031813485 6.0
  endloop
endfacet
facet normal -1.0 2.38848297617034e-031 1.11566387850564e-030
  outer loop
    vertex 90.3292486187237 -239.966245375858 7.41421356237309
    vertex 90.3292486187237 -234.462476563279 12.0
    vertex 90.3292486187237 -239.670582303536 7.64108381711447
  endloop
endfacet
facet normal -1.0 2.38848297617034e-031 1.11566387850564e-030
  outer loop
    vertex 90.3292486187237 -239.670582303536 7.64108381711447
    vertex 90.3292486187237 -234.462476563279 12.0
    vertex 90.3292486187237 -239.552031813485 7.73205080756888
  endloop
endfacet
facet normal -1.0 2.38848297617034e-031 1.11566387850564e-030
  outer loop
    vertex 90.3292486187237 -239.552031813485 7.73205080756888
    vertex 90.3292486187237 -234.462476563279 12.0
    vertex 90.3292486187237 -239.06966990369 7.93185165257814
  endloop
endfacet
facet normal -1.0 2.38848297617034e-031 1.11566387850564e-030
  outer loop
    vertex 90.3292486187237 -239.06966990369 7.93185165257814
    vertex 90.3292486187237 -234.462476563279 12.0
    vertex 90.3292486187237 -238.552031813485 8.0
  endloop
endfacet
facet normal -1.0 2.38848297617034e-031 1.11566387850564e-030
  outer loop
    vertex 90.3292486187237 -238.552031813485 8.0
    vertex 90.3292486187237 -234.462476563279 12.0
    vertex 90.3292486187237 -238.034393723279 7.93185165257814
  endloop
endfacet
facet normal -1.0 2.38848297617034e-031 1.11566387850564e-030
  outer loop
    vertex 90.3292486187237 -238.034393723279 7.93185165257814
    vertex 90.3292486187237 -234.462476563279 12.0
    vertex 90.3292486187237 -237.552031813485 7.73205080756888
  endloop
endfacet
facet normal -1.0 2.38848297617034e-031 1.11566387850564e-030
  outer loop
    vertex 90.3292486187237 -237.552031813485 7.73205080756888
    vertex 90.3292486187237 -234.462476563279 12.0
    vertex 90.3292486187237 -237.137818251111 7.41421356237309
  endloop
endfacet
facet normal -1.0 2.38848297617034e-031 1.11566387850564e-030
  outer loop
    vertex 90.3292486187237 -237.137818251111 7.41421356237309
    vertex 90.3292486187237 -234.462476563279 12.0
    vertex 90.3292486187237 -236.819981005916 7.0
  endloop
endfacet
facet normal -1.0 2.38848297617034e-031 1.11566387850564e-030
  outer loop
    vertex 90.3292486187237 -236.819981005916 7.0
    vertex 90.3292486187237 -234.462476563279 12.0
    vertex 90.3292486187237 -236.620180160906 6.51763809020504
  endloop
endfacet
facet normal -1.0 2.38848297617034e-031 1.11566387850564e-030
  outer loop
    vertex 90.3292486187237 -236.620180160906 6.51763809020504
    vertex 90.3292486187237 -234.462476563279 12.0
    vertex 90.3292486187237 -236.552031813485 6.0
  endloop
endfacet
facet normal -1.0 2.38848297617034e-031 1.11566387850564e-030
  outer loop
    vertex 90.3292486187237 -242.64158706369 0.0
    vertex 90.3292486187237 -239.966245375858 4.58578643762691
    vertex 90.3292486187237 -234.462476563279 0.0
  endloop
endfacet
facet normal -1.0 2.38848297617034e-031 1.11566387850564e-030
  outer loop
    vertex 90.3292486187237 -239.966245375858 4.58578643762691
    vertex 90.3292486187237 -242.64158706369 0.0
    vertex 90.3292486187237 -240.284082621053 5.0
  endloop
endfacet
facet normal -1.0 2.38848297617034e-031 1.11566387850564e-030
  outer loop
    vertex 90.3292486187237 -240.284082621053 5.0
    vertex 90.3292486187237 -242.64158706369 0.0
    vertex 90.3292486187237 -240.483883466063 5.48236190979496
  endloop
endfacet
facet normal -1.0 2.38848297617034e-031 1.11566387850564e-030
  outer loop
    vertex 90.3292486187237 -240.483883466063 5.48236190979496
    vertex 90.3292486187237 -242.64158706369 0.0
    vertex 90.3292486187237 -240.552031813485 6.0
  endloop
endfacet
facet normal -1.0 2.38848297617034e-031 1.11566387850564e-030
  outer loop
    vertex 90.3292486187237 -234.462476563279 0.0
    vertex 90.3292486187237 -239.966245375858 4.58578643762691
    vertex 90.3292486187237 -239.552031813485 4.26794919243112
  endloop
endfacet
facet normal -1.0 2.38848297617034e-031 1.11566387850564e-030
  outer loop
    vertex 90.3292486187237 -234.462476563279 0.0
    vertex 90.3292486187237 -239.552031813485 4.26794919243112
    vertex 90.3292486187237 -239.06966990369 4.06814834742186
  endloop
endfacet
facet normal -1.0 2.38848297617034e-031 1.11566387850564e-030
  outer loop
    vertex 90.3292486187237 -234.462476563279 0.0
    vertex 90.3292486187237 -239.06966990369 4.06814834742186
    vertex 90.3292486187237 -238.552031813485 4.0
  endloop
endfacet
facet normal -1.0 2.38848297617034e-031 1.11566387850564e-030
  outer loop
    vertex 90.3292486187237 -234.462476563279 0.0
    vertex 90.3292486187237 -238.552031813485 4.0
    vertex 90.3292486187237 -238.034393723279 4.06814834742186
  endloop
endfacet
facet normal -1.0 2.38848297617034e-031 1.11566387850564e-030
  outer loop
    vertex 90.3292486187237 -234.462476563279 0.0
    vertex 90.3292486187237 -238.034393723279 4.06814834742186
    vertex 90.3292486187237 -237.552031813485 4.26794919243112
  endloop
endfacet
facet normal -1.0 2.38848297617034e-031 1.11566387850564e-030
  outer loop
    vertex 90.3292486187237 -234.462476563279 0.0
    vertex 90.3292486187237 -237.552031813485 4.26794919243112
    vertex 90.3292486187237 -237.433481323433 4.35891618288556
  endloop
endfacet
facet normal -1.0 2.38848297617034e-031 1.11566387850564e-030
  outer loop
    vertex 90.3292486187237 -234.462476563279 0.0
    vertex 90.3292486187237 -237.433481323433 4.35891618288556
    vertex 90.3292486187237 -237.137818251111 4.58578643762691
  endloop
endfacet
facet normal -1.0 2.38848297617034e-031 1.11566387850564e-030
  outer loop
    vertex 90.3292486187237 -234.462476563279 0.0
    vertex 90.3292486187237 -237.137818251111 4.58578643762691
    vertex 90.3292486187237 -236.819981005916 5.0
  endloop
endfacet
facet normal -1.0 2.38848297617034e-031 1.11566387850564e-030
  outer loop
    vertex 90.3292486187237 -234.462476563279 0.0
    vertex 90.3292486187237 -236.819981005916 5.0
    vertex 90.3292486187237 -236.620180160906 5.48236190979496
  endloop
endfacet
facet normal -1.0 2.38848297617034e-031 1.11566387850564e-030
  outer loop
    vertex 90.3292486187237 -234.462476563279 0.0
    vertex 90.3292486187237 -236.620180160906 5.48236190979496
    vertex 90.3292486187237 -236.552031813485 6.0
  endloop
endfacet
facet normal -1.0 2.38848297617034e-031 1.11566387850564e-030
  outer loop
    vertex 90.3292486187237 -234.462476563279 0.0
    vertex 90.3292486187237 -236.552031813485 6.0
    vertex 90.3292486187237 -234.462476563279 12.0
  endloop
endfacet
facet normal 0.0 0.0 1.0
  outer loop
    vertex 83.3795011504179 -252.128568332104 12.0
    vertex 83.3292486187237 -247.178820863798 12.0
    vertex 82.2670707922326 -250.678820863798 12.0
  endloop
endfacet
facet normal 0.0 0.0 1.0
  outer loop
    vertex 83.3292486187237 -247.178820863798 12.0
    vertex 83.3795011504179 -252.128568332104 12.0
    vertex 83.4996194872784 -248.472916089311 12.0
  endloop
endfacet
facet normal 0.0 0.0 1.0
  outer loop
    vertex 83.4996194872784 -248.472916089311 12.0
    vertex 83.3795011504179 -252.128568332104 12.0
    vertex 84.7482168976124 -253.178820863798 12.0
  endloop
endfacet
facet normal 0.0 0.0 1.0
  outer loop
    vertex 83.4996194872784 -248.472916089311 12.0
    vertex 84.7482168976124 -253.178820863798 12.0
    vertex 83.9991215998015 -249.678820863798 12.0
  endloop
endfacet
facet normal 0.0 0.0 1.0
  outer loop
    vertex 83.9991215998015 -249.678820863798 12.0
    vertex 84.7482168976124 -253.178820863798 12.0
    vertex 84.793714712791 -250.714354769731 12.0
  endloop
endfacet
facet normal 0.0 0.0 1.0
  outer loop
    vertex 84.793714712791 -250.714354769731 12.0
    vertex 84.7482168976124 -253.178820863798 12.0
    vertex 84.8292486187237 -253.178820863798 12.0
  endloop
endfacet
facet normal 0.0 0.0 1.0
  outer loop
    vertex 84.793714712791 -250.714354769731 12.0
    vertex 84.8292486187237 -253.178820863798 12.0
    vertex 85.8292486187237 -251.508947882721 12.0
  endloop
endfacet
facet normal 0.0 0.0 1.0
  outer loop
    vertex 86.3292486187237 -242.64158706369 12.0
    vertex 86.2093461351671 -233.798723347355 12.0
    vertex 85.8292486187237 -242.848693844876 12.0
  endloop
endfacet
facet normal 0.0 0.0 1.0
  outer loop
    vertex 86.2093461351671 -233.798723347355 12.0
    vertex 86.3292486187237 -242.64158706369 12.0
    vertex 86.281580060642 -234.34739448386 12.0
  endloop
endfacet
facet normal 0.0 0.0 1.0
  outer loop
    vertex 86.281580060642 -234.34739448386 12.0
    vertex 86.3292486187237 -242.64158706369 12.0
    vertex 86.3292486187237 -234.462476563279 12.0
  endloop
endfacet
facet normal 0.0 0.0 1.0
  outer loop
    vertex 90.8292486187237 -242.848693844876 12.0
    vertex 90.3292486187237 -234.462476563279 12.0
    vertex 90.3292486187237 -242.64158706369 12.0
  endloop
endfacet
facet normal 0.0 0.0 1.0
  outer loop
    vertex 90.3292486187237 -234.462476563279 12.0
    vertex 90.8292486187237 -242.848693844876 12.0
    vertex 90.3769171768054 -234.34739448386 12.0
  endloop
endfacet
facet normal 0.0 0.0 1.0
  outer loop
    vertex 90.3769171768054 -234.34739448386 12.0
    vertex 90.8292486187237 -242.848693844876 12.0
    vertex 90.4491511022803 -233.798723347355 12.0
  endloop
endfacet
facet normal 0.0 0.0 1.0
  outer loop
    vertex 91.8292486187237 -253.178820863798 12.0
    vertex 91.8647825246564 -250.714354769731 12.0
    vertex 90.8292486187237 -251.508947882721 12.0
  endloop
endfacet
facet normal 0.0 0.0 1.0
  outer loop
    vertex 91.8647825246564 -250.714354769731 12.0
    vertex 91.8292486187237 -253.178820863798 12.0
    vertex 91.910280339835 -253.178820863798 12.0
  endloop
endfacet
facet normal 0.0 0.0 1.0
  outer loop
    vertex 91.8647825246564 -250.714354769731 12.0
    vertex 91.910280339835 -253.178820863798 12.0
    vertex 92.6593756376459 -249.678820863798 12.0
  endloop
endfacet
facet normal 0.0 0.0 1.0
  outer loop
    vertex 92.6593756376459 -249.678820863798 12.0
    vertex 91.910280339835 -253.178820863798 12.0
    vertex 93.2789960870295 -252.128568332104 12.0
  endloop
endfacet
facet normal 0.0 0.0 1.0
  outer loop
    vertex 92.6593756376459 -249.678820863798 12.0
    vertex 93.2789960870295 -252.128568332104 12.0
    vertex 93.158877750169 -248.472916089311 12.0
  endloop
endfacet
facet normal 0.0 0.0 1.0
  outer loop
    vertex 93.158877750169 -248.472916089311 12.0
    vertex 93.2789960870295 -252.128568332104 12.0
    vertex 93.3292486187237 -247.178820863798 12.0
  endloop
endfacet
facet normal 0.0 0.0 1.0
  outer loop
    vertex 93.3292486187237 -247.178820863798 12.0
    vertex 93.2789960870295 -252.128568332104 12.0
    vertex 94.3914264452148 -250.678820863798 12.0
  endloop
endfacet
facet normal 0.0 0.0 1.0
  outer loop
    vertex 81.5677678347002 -248.990554179516 12.0
    vertex 81.3292486187237 -223.178820863798 12.0
    vertex 81.3292486187237 -247.178820863798 12.0
  endloop
endfacet
facet normal 0.0 0.0 1.0
  outer loop
    vertex 81.3292486187237 -223.178820863798 12.0
    vertex 81.5677678347002 -248.990554179516 12.0
    vertex 86.281580060642 -233.250052210851 12.0
  endloop
endfacet
facet normal 0.0 0.0 1.0
  outer loop
    vertex 81.3292486187237 -223.178820863798 12.0
    vertex 86.281580060642 -233.250052210851 12.0
    vertex 86.4933592144179 -232.738772105577 12.0
  endloop
endfacet
facet normal 0.0 0.0 1.0
  outer loop
    vertex 81.3292486187237 -223.178820863798 12.0
    vertex 86.4933592144179 -232.738772105577 12.0
    vertex 86.8302511971466 -232.299725925778 12.0
  endloop
endfacet
facet normal 0.0 0.0 1.0
  outer loop
    vertex 81.3292486187237 -223.178820863798 12.0
    vertex 86.8302511971466 -232.299725925778 12.0
    vertex 95.3292486187237 -223.178820863798 12.0
  endloop
endfacet
facet normal 0.0 0.0 1.0
  outer loop
    vertex 86.281580060642 -233.250052210851 12.0
    vertex 81.5677678347002 -248.990554179516 12.0
    vertex 82.2670707922326 -250.678820863798 12.0
  endloop
endfacet
facet normal 0.0 0.0 1.0
  outer loop
    vertex 86.281580060642 -233.250052210851 12.0
    vertex 82.2670707922326 -250.678820863798 12.0
    vertex 83.4996194872784 -245.884725638286 12.0
  endloop
endfacet
facet normal 0.0 0.0 1.0
  outer loop
    vertex 83.4996194872784 -245.884725638286 12.0
    vertex 82.2670707922326 -250.678820863798 12.0
    vertex 83.3292486187237 -247.178820863798 12.0
  endloop
endfacet
facet normal 0.0 0.0 1.0
  outer loop
    vertex 86.281580060642 -233.250052210851 12.0
    vertex 83.4996194872784 -245.884725638286 12.0
    vertex 83.9991215998015 -244.678820863798 12.0
  endloop
endfacet
facet normal 0.0 0.0 1.0
  outer loop
    vertex 86.281580060642 -233.250052210851 12.0
    vertex 83.9991215998015 -244.678820863798 12.0
    vertex 84.793714712791 -243.643286957866 12.0
  endloop
endfacet
facet normal 0.0 0.0 1.0
  outer loop
    vertex 86.281580060642 -233.250052210851 12.0
    vertex 84.793714712791 -243.643286957866 12.0
    vertex 86.2093461351671 -233.798723347355 12.0
  endloop
endfacet
facet normal 0.0 0.0 1.0
  outer loop
    vertex 86.2093461351671 -233.798723347355 12.0
    vertex 84.793714712791 -243.643286957866 12.0
    vertex 85.8292486187237 -242.848693844876 12.0
  endloop
endfacet
facet normal 0.0 0.0 1.0
  outer loop
    vertex 86.4933592144179 -232.738772105577 12.0
    vertex 86.281580060642 -233.250052210851 12.0
    vertex 86.3292486187237 -233.134970131431 12.0
  endloop
endfacet
facet normal 0.0 0.0 1.0
  outer loop
    vertex 95.3292486187237 -223.178820863798 12.0
    vertex 86.8302511971466 -232.299725925778 12.0
    vertex 87.2692973769454 -231.962833943049 12.0
  endloop
endfacet
facet normal 0.0 0.0 1.0
  outer loop
    vertex 95.3292486187237 -223.178820863798 12.0
    vertex 87.2692973769454 -231.962833943049 12.0
    vertex 87.7805774822191 -231.751054789273 12.0
  endloop
endfacet
facet normal 0.0 0.0 1.0
  outer loop
    vertex 95.3292486187237 -223.178820863798 12.0
    vertex 87.7805774822191 -231.751054789273 12.0
    vertex 88.3292486187237 -231.678820863798 12.0
  endloop
endfacet
facet normal 0.0 0.0 1.0
  outer loop
    vertex 95.3292486187237 -223.178820863798 12.0
    vertex 88.3292486187237 -231.678820863798 12.0
    vertex 88.8779197552283 -231.751054789273 12.0
  endloop
endfacet
facet normal 0.0 0.0 1.0
  outer loop
    vertex 95.3292486187237 -223.178820863798 12.0
    vertex 88.8779197552283 -231.751054789273 12.0
    vertex 89.389199860502 -231.962833943049 12.0
  endloop
endfacet
facet normal 0.0 0.0 1.0
  outer loop
    vertex 95.3292486187237 -223.178820863798 12.0
    vertex 89.389199860502 -231.962833943049 12.0
    vertex 89.8282460403008 -232.299725925778 12.0
  endloop
endfacet
facet normal 0.0 0.0 1.0
  outer loop
    vertex 95.3292486187237 -223.178820863798 12.0
    vertex 89.8282460403008 -232.299725925778 12.0
    vertex 90.1651380230295 -232.738772105577 12.0
  endloop
endfacet
facet normal 0.0 0.0 1.0
  outer loop
    vertex 95.3292486187237 -223.178820863798 12.0
    vertex 90.1651380230295 -232.738772105577 12.0
    vertex 90.3292486187237 -233.134970131431 12.0
  endloop
endfacet
facet normal 0.0 0.0 1.0
  outer loop
    vertex 95.3292486187237 -223.178820863798 12.0
    vertex 90.3292486187237 -233.134970131431 12.0
    vertex 90.3769171768054 -233.250052210851 12.0
  endloop
endfacet
facet normal 0.0 0.0 1.0
  outer loop
    vertex 95.3292486187237 -223.178820863798 12.0
    vertex 90.3769171768054 -233.250052210851 12.0
    vertex 90.4491511022803 -233.798723347355 12.0
  endloop
endfacet
facet normal 0.0 0.0 1.0
  outer loop
    vertex 95.3292486187237 -223.178820863798 12.0
    vertex 90.4491511022803 -233.798723347355 12.0
    vertex 90.8292486187237 -242.848693844876 12.0
  endloop
endfacet
facet normal 0.0 0.0 1.0
  outer loop
    vertex 95.3292486187237 -223.178820863798 12.0
    vertex 90.8292486187237 -242.848693844876 12.0
    vertex 91.8647825246564 -243.643286957866 12.0
  endloop
endfacet
facet normal 0.0 0.0 1.0
  outer loop
    vertex 95.3292486187237 -223.178820863798 12.0
    vertex 91.8647825246564 -243.643286957866 12.0
    vertex 92.6593756376459 -244.678820863798 12.0
  endloop
endfacet
facet normal 0.0 0.0 1.0
  outer loop
    vertex 95.3292486187237 -223.178820863798 12.0
    vertex 92.6593756376459 -244.678820863798 12.0
    vertex 93.158877750169 -245.884725638286 12.0
  endloop
endfacet
facet normal 0.0 0.0 1.0
  outer loop
    vertex 95.3292486187237 -223.178820863798 12.0
    vertex 93.158877750169 -245.884725638286 12.0
    vertex 93.3292486187237 -247.178820863798 12.0
  endloop
endfacet
facet normal 0.0 0.0 1.0
  outer loop
    vertex 95.3292486187237 -223.178820863798 12.0
    vertex 93.3292486187237 -247.178820863798 12.0
    vertex 94.3914264452148 -250.678820863798 12.0
  endloop
endfacet
facet normal 0.0 0.0 1.0
  outer loop
    vertex 95.3292486187237 -223.178820863798 12.0
    vertex 94.3914264452148 -250.678820863798 12.0
    vertex 95.0907294027472 -248.990554179516 12.0
  endloop
endfacet
facet normal 0.0 0.0 1.0
  outer loop
    vertex 95.3292486187237 -223.178820863798 12.0
    vertex 95.0907294027472 -248.990554179516 12.0
    vertex 95.3292486187237 -247.178820863798 12.0
  endloop
endfacet
facet normal -0.866025403784444 -0.499999999999991 0.0
  outer loop
    vertex 90.1651380230295 -232.738772105577 12.0
    vertex 90.3292486187237 -233.134970131431 0.0
    vertex 90.3292486187237 -233.134970131431 12.0
  endloop
endfacet
facet normal -0.923879532511295 -0.382683432365069 -0.0
  outer loop
    vertex 90.3292486187237 -233.134970131431 0.0
    vertex 90.1651380230295 -232.738772105577 12.0
    vertex 90.1651380230295 -232.738772105577 0.0
  endloop
endfacet
facet normal -0.866025403784443 -0.499999999999993 0.0
  outer loop
    vertex 92.6593756376459 -244.678820863798 12.0
    vertex 93.158877750169 -245.884725638286 0.0
    vertex 93.158877750169 -245.884725638286 12.0
  endloop
endfacet
facet normal -0.965925826289068 -0.25881904510252 0.0
  outer loop
    vertex 93.158877750169 -245.884725638286 0.0
    vertex 92.6593756376459 -244.678820863798 12.0
    vertex 92.6593756376459 -244.678820863798 0.0
  endloop
endfacet
endsolid xyz-y-carriage-left
