solid xyz-y-carriage-left
facet normal 0.0 -1.0 0.0
  outer loop
    vertex 23.6918529344875 -153.28119021367 5.0
    vertex 17.4813958581902 -153.28119021367 7.07415124335209
    vertex 10.1918529344875 -153.28119021367 5.0
  endloop
endfacet
facet normal 0.0 -1.0 0.0
  outer loop
    vertex 17.4813958581902 -153.28119021367 7.07415124335209
    vertex 23.6918529344875 -153.28119021367 5.0
    vertex 17.961457715091 -153.28119021367 7.27941693273165
  endloop
endfacet
facet normal 0.0 -1.0 0.0
  outer loop
    vertex 17.961457715091 -153.28119021367 7.27941693273165
    vertex 23.6918529344875 -153.28119021367 5.0
    vertex 18.3720351911702 -153.28119021367 7.6019375147476
  endloop
endfacet
facet normal 0.0 -1.0 0.0
  outer loop
    vertex 18.3720351911702 -153.28119021367 7.6019375147476
    vertex 23.6918529344875 -153.28119021367 5.0
    vertex 23.6918529344875 -153.28119021367 13.0
  endloop
endfacet
facet normal 0.0 -1.0 0.0
  outer loop
    vertex 10.1918529344875 -153.28119021367 5.0
    vertex 17.4813958581902 -153.28119021367 7.07415124335209
    vertex 16.964565042676 -153.28119021367 7.00012896412253
  endloop
endfacet
facet normal 0.0 -1.0 0.0
  outer loop
    vertex 18.3720351911702 -153.28119021367 7.6019375147476
    vertex 23.6918529344875 -153.28119021367 13.0
    vertex 18.6851481099444 -153.28119021367 8.019733744726
  endloop
endfacet
facet normal 0.0 -1.0 0.0
  outer loop
    vertex 18.6851481099444 -153.28119021367 8.019733744726
    vertex 23.6918529344875 -153.28119021367 13.0
    vertex 18.8794583434426 -153.28119021367 8.50433350003473
  endloop
endfacet
facet normal 0.0 -1.0 0.0
  outer loop
    vertex 18.8794583434426 -153.28119021367 8.50433350003473
    vertex 23.6918529344875 -153.28119021367 13.0
    vertex 18.941723970365 -153.28119021367 9.02271210818849
  endloop
endfacet
facet normal 0.0 -1.0 0.0
  outer loop
    vertex 18.941723970365 -153.28119021367 9.02271210818849
    vertex 23.6918529344875 -153.28119021367 13.0
    vertex 18.8677016911354 -153.28119021367 9.53954292370273
  endloop
endfacet
facet normal 0.0 -1.0 0.0
  outer loop
    vertex 18.8677016911354 -153.28119021367 9.53954292370273
    vertex 23.6918529344875 -153.28119021367 13.0
    vertex 18.6624360017559 -153.28119021367 10.0196047806035
  endloop
endfacet
facet normal 0.0 -1.0 0.0
  outer loop
    vertex 18.6624360017559 -153.28119021367 10.0196047806035
    vertex 23.6918529344875 -153.28119021367 13.0
    vertex 18.3399154197399 -153.28119021367 10.4301822566826
  endloop
endfacet
facet normal 0.0 -1.0 0.0
  outer loop
    vertex 18.3399154197399 -153.28119021367 10.4301822566826
    vertex 23.6918529344875 -153.28119021367 13.0
    vertex 17.9221191897615 -153.28119021367 10.7432951754568
  endloop
endfacet
facet normal 0.0 -1.0 0.0
  outer loop
    vertex 17.9221191897615 -153.28119021367 10.7432951754568
    vertex 23.6918529344875 -153.28119021367 13.0
    vertex 17.4375194344528 -153.28119021367 10.9376054089551
  endloop
endfacet
facet normal 0.0 -1.0 0.0
  outer loop
    vertex 17.4375194344528 -153.28119021367 10.9376054089551
    vertex 23.6918529344875 -153.28119021367 13.0
    vertex 16.919140826299 -153.28119021367 10.9998710358775
  endloop
endfacet
facet normal 0.0 -1.0 0.0
  outer loop
    vertex 10.1918529344875 -153.28119021367 5.0
    vertex 15.5437904492351 -153.28119021367 7.56981774331735
    vertex 10.1918529344875 -153.28119021367 13.0
  endloop
endfacet
facet normal 0.0 -1.0 0.0
  outer loop
    vertex 15.5437904492351 -153.28119021367 7.56981774331735
    vertex 10.1918529344875 -153.28119021367 5.0
    vertex 15.9615866792135 -153.28119021367 7.25670482454316
  endloop
endfacet
facet normal 0.0 -1.0 0.0
  outer loop
    vertex 15.9615866792135 -153.28119021367 7.25670482454316
    vertex 10.1918529344875 -153.28119021367 5.0
    vertex 16.4461864345222 -153.28119021367 7.06239459104487
  endloop
endfacet
facet normal 0.0 -1.0 0.0
  outer loop
    vertex 16.4461864345222 -153.28119021367 7.06239459104487
    vertex 10.1918529344875 -153.28119021367 5.0
    vertex 16.964565042676 -153.28119021367 7.00012896412253
  endloop
endfacet
facet normal 0.0 -1.0 0.0
  outer loop
    vertex 10.1918529344875 -153.28119021367 13.0
    vertex 15.5437904492351 -153.28119021367 7.56981774331735
    vertex 15.2212698672192 -153.28119021367 7.98039521939653
  endloop
endfacet
facet normal 0.0 -1.0 0.0
  outer loop
    vertex 10.1918529344875 -153.28119021367 13.0
    vertex 15.2212698672192 -153.28119021367 7.98039521939653
    vertex 15.0160041778396 -153.28119021367 8.46045707629727
  endloop
endfacet
facet normal 0.0 -1.0 0.0
  outer loop
    vertex 10.1918529344875 -153.28119021367 13.0
    vertex 15.0160041778396 -153.28119021367 8.46045707629727
    vertex 14.94198189861 -153.28119021367 8.97728789181151
  endloop
endfacet
facet normal 0.0 -1.0 0.0
  outer loop
    vertex 10.1918529344875 -153.28119021367 13.0
    vertex 14.94198189861 -153.28119021367 8.97728789181151
    vertex 15.0042475255324 -153.28119021367 9.49566649996526
  endloop
endfacet
facet normal 0.0 -1.0 0.0
  outer loop
    vertex 10.1918529344875 -153.28119021367 13.0
    vertex 15.0042475255324 -153.28119021367 9.49566649996526
    vertex 15.1985577590307 -153.28119021367 9.98026625527401
  endloop
endfacet
facet normal 0.0 -1.0 0.0
  outer loop
    vertex 10.1918529344875 -153.28119021367 13.0
    vertex 15.1985577590307 -153.28119021367 9.98026625527401
    vertex 15.5116706778049 -153.28119021367 10.3980624852524
  endloop
endfacet
facet normal 0.0 -1.0 0.0
  outer loop
    vertex 10.1918529344875 -153.28119021367 13.0
    vertex 15.5116706778049 -153.28119021367 10.3980624852524
    vertex 15.922248153884 -153.28119021367 10.7205830672683
  endloop
endfacet
facet normal 0.0 -1.0 0.0
  outer loop
    vertex 10.1918529344875 -153.28119021367 13.0
    vertex 15.922248153884 -153.28119021367 10.7205830672683
    vertex 16.4023100107848 -153.28119021367 10.9258487566479
  endloop
endfacet
facet normal 0.0 -1.0 0.0
  outer loop
    vertex 10.1918529344875 -153.28119021367 13.0
    vertex 16.4023100107848 -153.28119021367 10.9258487566479
    vertex 16.919140826299 -153.28119021367 10.9998710358775
  endloop
endfacet
facet normal 0.0 -1.0 0.0
  outer loop
    vertex 10.1918529344875 -153.28119021367 13.0
    vertex 16.919140826299 -153.28119021367 10.9998710358775
    vertex 23.6918529344875 -153.28119021367 13.0
  endloop
endfacet
facet normal 1.0 0.0 0.0
  outer loop
    vertex 10.1918529344875 -180.78119021367 2.0
    vertex 10.1918529344875 -183.28119021367 5.0
    vertex 10.1918529344875 -183.28119021367 2.0
  endloop
endfacet
facet normal 1.0 0.0 0.0
  outer loop
    vertex 10.1918529344875 -175.78119021367 2.0
    vertex 10.1918529344875 -178.28119021367 5.0
    vertex 10.1918529344875 -178.28119021367 2.0
  endloop
endfacet
facet normal 1.0 0.0 0.0
  outer loop
    vertex 10.1918529344875 -183.28119021367 5.0
    vertex 10.1918529344875 -188.28119021367 13.0
    vertex 10.1918529344875 -188.28119021367 5.0
  endloop
endfacet
facet normal 1.0 0.0 0.0
  outer loop
    vertex 10.1918529344875 -188.28119021367 13.0
    vertex 10.1918529344875 -183.28119021367 5.0
    vertex 10.1918529344875 -153.28119021367 13.0
  endloop
endfacet
facet normal 1.0 0.0 0.0
  outer loop
    vertex 10.1918529344875 -153.28119021367 13.0
    vertex 10.1918529344875 -183.28119021367 5.0
    vertex 10.1918529344875 -180.78119021367 5.0
  endloop
endfacet
facet normal 1.0 0.0 0.0
  outer loop
    vertex 10.1918529344875 -180.78119021367 5.0
    vertex 10.1918529344875 -183.28119021367 5.0
    vertex 10.1918529344875 -180.78119021367 2.0
  endloop
endfacet
facet normal 1.0 0.0 0.0
  outer loop
    vertex 10.1918529344875 -153.28119021367 13.0
    vertex 10.1918529344875 -180.78119021367 5.0
    vertex 10.1918529344875 -178.28119021367 5.0
  endloop
endfacet
facet normal 1.0 0.0 0.0
  outer loop
    vertex 10.1918529344875 -153.28119021367 13.0
    vertex 10.1918529344875 -178.28119021367 5.0
    vertex 10.1918529344875 -175.78119021367 5.0
  endloop
endfacet
facet normal 1.0 0.0 0.0
  outer loop
    vertex 10.1918529344875 -175.78119021367 5.0
    vertex 10.1918529344875 -178.28119021367 5.0
    vertex 10.1918529344875 -175.78119021367 2.0
  endloop
endfacet
facet normal 1.0 0.0 0.0
  outer loop
    vertex 10.1918529344875 -153.28119021367 13.0
    vertex 10.1918529344875 -175.78119021367 5.0
    vertex 10.1918529344875 -153.28119021367 5.0
  endloop
endfacet
facet normal 0.0 0.0 -1.0
  outer loop
    vertex 38.2918529344875 -180.28119021367 11.0
    vertex 32.2918529344875 -182.28119021367 11.0
    vertex 32.2918529344875 -180.28119021367 11.0
  endloop
endfacet
facet normal 0.0 0.0 -1.0
  outer loop
    vertex 32.2918529344875 -182.28119021367 11.0
    vertex 38.2918529344875 -180.28119021367 11.0
    vertex 38.2918529344875 -182.28119021367 11.0
  endloop
endfacet
facet normal 0.0 1.0 0.0
  outer loop
    vertex 32.2918529344875 -182.28119021367 11.0
    vertex 33.2918529344875 -182.28119021367 5.0
    vertex 32.2918529344875 -182.28119021367 5.0
  endloop
endfacet
facet normal 0.0 1.0 0.0
  outer loop
    vertex 33.2918529344875 -182.28119021367 5.0
    vertex 38.2918529344875 -182.28119021367 4.0
    vertex 33.2918529344875 -182.28119021367 4.0
  endloop
endfacet
facet normal 0.0 1.0 0.0
  outer loop
    vertex 38.2918529344875 -182.28119021367 4.0
    vertex 33.2918529344875 -182.28119021367 5.0
    vertex 38.2918529344875 -182.28119021367 11.0
  endloop
endfacet
facet normal 0.0 1.0 0.0
  outer loop
    vertex 38.2918529344875 -182.28119021367 11.0
    vertex 33.2918529344875 -182.28119021367 5.0
    vertex 32.2918529344875 -182.28119021367 11.0
  endloop
endfacet
facet normal 0.0 1.0 0.0
  outer loop
    vertex 10.1918529344875 -178.28119021367 5.0
    vertex 23.6918529344875 -178.28119021367 2.0
    vertex 10.1918529344875 -178.28119021367 2.0
  endloop
endfacet
facet normal 0.0 1.0 0.0
  outer loop
    vertex 23.6918529344875 -178.28119021367 2.0
    vertex 10.1918529344875 -178.28119021367 5.0
    vertex 23.6918529344875 -178.28119021367 5.0
  endloop
endfacet
facet normal 0.0 1.0 0.0
  outer loop
    vertex 10.1918529344875 -183.28119021367 5.0
    vertex 23.6918529344875 -183.28119021367 2.0
    vertex 10.1918529344875 -183.28119021367 2.0
  endloop
endfacet
facet normal 0.0 1.0 0.0
  outer loop
    vertex 23.6918529344875 -183.28119021367 2.0
    vertex 10.1918529344875 -183.28119021367 5.0
    vertex 23.6918529344875 -183.28119021367 5.0
  endloop
endfacet
facet normal -1.0 0.0 0.0
  outer loop
    vertex 38.2918529344875 -164.18119021367 13.0
    vertex 38.2918529344875 -177.28119021367 2.0
    vertex 38.2918529344875 -177.28119021367 13.0
  endloop
endfacet
facet normal -1.0 0.0 0.0
  outer loop
    vertex 38.2918529344875 -177.28119021367 2.0
    vertex 38.2918529344875 -164.18119021367 13.0
    vertex 38.2918529344875 -164.18119021367 2.0
  endloop
endfacet
facet normal 0.0 0.0 1.0
  outer loop
    vertex 23.6918529344875 -180.78119021367 5.0
    vertex 10.1918529344875 -178.28119021367 5.0
    vertex 10.1918529344875 -180.78119021367 5.0
  endloop
endfacet
facet normal 0.0 0.0 1.0
  outer loop
    vertex 10.1918529344875 -178.28119021367 5.0
    vertex 23.6918529344875 -180.78119021367 5.0
    vertex 23.6918529344875 -178.28119021367 5.0
  endloop
endfacet
facet normal -0.0 -1.0 -0.0
  outer loop
    vertex 23.6918529344875 -180.78119021367 5.0
    vertex 10.1918529344875 -180.78119021367 2.0
    vertex 23.6918529344875 -180.78119021367 2.0
  endloop
endfacet
facet normal -0.0 -1.0 -0.0
  outer loop
    vertex 10.1918529344875 -180.78119021367 2.0
    vertex 23.6918529344875 -180.78119021367 5.0
    vertex 10.1918529344875 -180.78119021367 5.0
  endloop
endfacet
facet normal -0.0 -1.0 -0.0
  outer loop
    vertex 23.6918529344875 -175.78119021367 5.0
    vertex 10.1918529344875 -175.78119021367 2.0
    vertex 23.6918529344875 -175.78119021367 2.0
  endloop
endfacet
facet normal -0.0 -1.0 -0.0
  outer loop
    vertex 10.1918529344875 -175.78119021367 2.0
    vertex 23.6918529344875 -175.78119021367 5.0
    vertex 10.1918529344875 -175.78119021367 5.0
  endloop
endfacet
facet normal 0.0 -1.0 0.0
  outer loop
    vertex 38.2918529344875 -164.18119021367 2.0
    vertex 36.3525131062673 -164.18119021367 6.43933982822018
    vertex 32.2918529344875 -164.18119021367 2.0
  endloop
endfacet
facet normal 0.0 -1.0 0.0
  outer loop
    vertex 36.3525131062673 -164.18119021367 6.43933982822018
    vertex 38.2918529344875 -164.18119021367 2.0
    vertex 36.5908910401642 -164.18119021367 6.75
  endloop
endfacet
facet normal 0.0 -1.0 0.0
  outer loop
    vertex 36.5908910401642 -164.18119021367 6.75
    vertex 38.2918529344875 -164.18119021367 2.0
    vertex 36.7407416739211 -164.18119021367 7.11177143234622
  endloop
endfacet
facet normal 0.0 -1.0 0.0
  outer loop
    vertex 36.7407416739211 -164.18119021367 7.11177143234622
    vertex 38.2918529344875 -164.18119021367 2.0
    vertex 38.2918529344875 -164.18119021367 13.0
  endloop
endfacet
facet normal 0.0 -1.0 0.0
  outer loop
    vertex 32.2918529344875 -164.18119021367 2.0
    vertex 36.3525131062673 -164.18119021367 6.43933982822018
    vertex 36.0418529344875 -164.18119021367 6.20096189432334
  endloop
endfacet
facet normal 0.0 -1.0 0.0
  outer loop
    vertex 32.2918529344875 -164.18119021367 2.0
    vertex 36.0418529344875 -164.18119021367 6.20096189432334
    vertex 35.6800815021413 -164.18119021367 6.0511112605664
  endloop
endfacet
facet normal 0.0 -1.0 0.0
  outer loop
    vertex 32.2918529344875 -164.18119021367 2.0
    vertex 35.6800815021413 -164.18119021367 6.0511112605664
    vertex 35.2918529344875 -164.18119021367 6.0
  endloop
endfacet
facet normal 0.0 -1.0 0.0
  outer loop
    vertex 36.7407416739211 -164.18119021367 7.11177143234622
    vertex 38.2918529344875 -164.18119021367 13.0
    vertex 36.7918529344875 -164.18119021367 7.5
  endloop
endfacet
facet normal 0.0 -1.0 0.0
  outer loop
    vertex 36.7918529344875 -164.18119021367 7.5
    vertex 38.2918529344875 -164.18119021367 13.0
    vertex 36.7407416739211 -164.18119021367 7.88822856765378
  endloop
endfacet
facet normal 0.0 -1.0 0.0
  outer loop
    vertex 36.7407416739211 -164.18119021367 7.88822856765378
    vertex 38.2918529344875 -164.18119021367 13.0
    vertex 36.5908910401642 -164.18119021367 8.25
  endloop
endfacet
facet normal 0.0 -1.0 0.0
  outer loop
    vertex 36.5908910401642 -164.18119021367 8.25
    vertex 38.2918529344875 -164.18119021367 13.0
    vertex 36.3525131062673 -164.18119021367 8.56066017177982
  endloop
endfacet
facet normal 0.0 -1.0 0.0
  outer loop
    vertex 36.3525131062673 -164.18119021367 8.56066017177982
    vertex 38.2918529344875 -164.18119021367 13.0
    vertex 36.0418529344875 -164.18119021367 8.79903810567665
  endloop
endfacet
facet normal 0.0 -1.0 0.0
  outer loop
    vertex 36.0418529344875 -164.18119021367 8.79903810567665
    vertex 38.2918529344875 -164.18119021367 13.0
    vertex 35.6800815021413 -164.18119021367 8.9488887394336
  endloop
endfacet
facet normal 0.0 -1.0 0.0
  outer loop
    vertex 35.6800815021413 -164.18119021367 8.9488887394336
    vertex 38.2918529344875 -164.18119021367 13.0
    vertex 35.2918529344875 -164.18119021367 8.99999999999999
  endloop
endfacet
facet normal 0.0 -1.0 0.0
  outer loop
    vertex 32.2918529344875 -164.18119021367 2.0
    vertex 33.8429641950539 -164.18119021367 7.11177143234622
    vertex 32.2918529344875 -164.18119021367 13.0
  endloop
endfacet
facet normal 0.0 -1.0 0.0
  outer loop
    vertex 33.8429641950539 -164.18119021367 7.11177143234622
    vertex 32.2918529344875 -164.18119021367 2.0
    vertex 33.9928148288109 -164.18119021367 6.75
  endloop
endfacet
facet normal 0.0 -1.0 0.0
  outer loop
    vertex 33.9928148288109 -164.18119021367 6.75
    vertex 32.2918529344875 -164.18119021367 2.0
    vertex 34.2311927627077 -164.18119021367 6.43933982822018
  endloop
endfacet
facet normal 0.0 -1.0 0.0
  outer loop
    vertex 34.2311927627077 -164.18119021367 6.43933982822018
    vertex 32.2918529344875 -164.18119021367 2.0
    vertex 34.5418529344875 -164.18119021367 6.20096189432334
  endloop
endfacet
facet normal 0.0 -1.0 0.0
  outer loop
    vertex 34.5418529344875 -164.18119021367 6.20096189432334
    vertex 32.2918529344875 -164.18119021367 2.0
    vertex 34.9036243668337 -164.18119021367 6.0511112605664
  endloop
endfacet
facet normal 0.0 -1.0 0.0
  outer loop
    vertex 34.9036243668337 -164.18119021367 6.0511112605664
    vertex 32.2918529344875 -164.18119021367 2.0
    vertex 35.2918529344875 -164.18119021367 6.0
  endloop
endfacet
facet normal 0.0 -1.0 0.0
  outer loop
    vertex 32.2918529344875 -164.18119021367 13.0
    vertex 33.8429641950539 -164.18119021367 7.11177143234622
    vertex 33.7918529344875 -164.18119021367 7.5
  endloop
endfacet
facet normal 0.0 -1.0 0.0
  outer loop
    vertex 32.2918529344875 -164.18119021367 13.0
    vertex 33.7918529344875 -164.18119021367 7.5
    vertex 33.8429641950539 -164.18119021367 7.88822856765378
  endloop
endfacet
facet normal 0.0 -1.0 0.0
  outer loop
    vertex 32.2918529344875 -164.18119021367 13.0
    vertex 33.8429641950539 -164.18119021367 7.88822856765378
    vertex 33.9928148288109 -164.18119021367 8.25
  endloop
endfacet
facet normal 0.0 -1.0 0.0
  outer loop
    vertex 32.2918529344875 -164.18119021367 13.0
    vertex 33.9928148288109 -164.18119021367 8.25
    vertex 34.2311927627077 -164.18119021367 8.56066017177982
  endloop
endfacet
facet normal 0.0 -1.0 0.0
  outer loop
    vertex 32.2918529344875 -164.18119021367 13.0
    vertex 34.2311927627077 -164.18119021367 8.56066017177982
    vertex 34.5418529344875 -164.18119021367 8.79903810567665
  endloop
endfacet
facet normal 0.0 -1.0 0.0
  outer loop
    vertex 32.2918529344875 -164.18119021367 13.0
    vertex 34.5418529344875 -164.18119021367 8.79903810567665
    vertex 34.9036243668337 -164.18119021367 8.9488887394336
  endloop
endfacet
facet normal 0.0 -1.0 0.0
  outer loop
    vertex 32.2918529344875 -164.18119021367 13.0
    vertex 34.9036243668337 -164.18119021367 8.9488887394336
    vertex 35.2918529344875 -164.18119021367 8.99999999999999
  endloop
endfacet
facet normal 0.0 -1.0 0.0
  outer loop
    vertex 32.2918529344875 -164.18119021367 13.0
    vertex 35.2918529344875 -164.18119021367 8.99999999999999
    vertex 38.2918529344875 -164.18119021367 13.0
  endloop
endfacet
facet normal 0.0 0.0 1.0
  outer loop
    vertex 23.6918529344875 -175.78119021367 5.0
    vertex 10.1918529344875 -153.28119021367 5.0
    vertex 10.1918529344875 -175.78119021367 5.0
  endloop
endfacet
facet normal 0.0 0.0 1.0
  outer loop
    vertex 10.1918529344875 -153.28119021367 5.0
    vertex 23.6918529344875 -175.78119021367 5.0
    vertex 23.6918529344875 -153.28119021367 5.0
  endloop
endfacet
facet normal 1.0 0.0 0.0
  outer loop
    vertex 32.2918529344875 -164.18119021367 2.0
    vertex 32.2918529344875 -177.28119021367 13.0
    vertex 32.2918529344875 -177.28119021367 2.0
  endloop
endfacet
facet normal 1.0 0.0 0.0
  outer loop
    vertex 32.2918529344875 -177.28119021367 13.0
    vertex 32.2918529344875 -164.18119021367 2.0
    vertex 32.2918529344875 -164.18119021367 13.0
  endloop
endfacet
facet normal 0.0 1.0 0.0
  outer loop
    vertex 32.2918529344875 -177.28119021367 13.0
    vertex 38.2918529344875 -177.28119021367 2.0
    vertex 32.2918529344875 -177.28119021367 2.0
  endloop
endfacet
facet normal 0.0 1.0 0.0
  outer loop
    vertex 38.2918529344875 -177.28119021367 2.0
    vertex 32.2918529344875 -177.28119021367 13.0
    vertex 38.2918529344875 -177.28119021367 13.0
  endloop
endfacet
facet normal 0.0 -1.0 0.0
  outer loop
    vertex 47.1918529344875 -158.28119021367 13.0
    vertex 44.6918529344875 -158.28119021367 2.0
    vertex 47.1918529344875 -158.28119021367 2.0
  endloop
endfacet
facet normal 0.0 -1.0 0.0
  outer loop
    vertex 44.6918529344875 -158.28119021367 2.0
    vertex 47.1918529344875 -158.28119021367 13.0
    vertex 44.6918529344875 -158.28119021367 13.0
  endloop
endfacet
facet normal -1.0 0.0 0.0
  outer loop
    vertex 23.6918529344875 -153.28119021367 13.0
    vertex 23.6918529344875 -188.28119021367 5.0
    vertex 23.6918529344875 -188.28119021367 13.0
  endloop
endfacet
facet normal -1.0 0.0 0.0
  outer loop
    vertex 23.6918529344875 -188.28119021367 5.0
    vertex 23.6918529344875 -153.28119021367 13.0
    vertex 23.6918529344875 -183.28119021367 5.0
  endloop
endfacet
facet normal -1.0 0.0 0.0
  outer loop
    vertex 23.6918529344875 -183.28119021367 5.0
    vertex 23.6918529344875 -153.28119021367 13.0
    vertex 23.6918529344875 -180.78119021367 5.0
  endloop
endfacet
facet normal -1.0 0.0 0.0
  outer loop
    vertex 23.6918529344875 -183.28119021367 5.0
    vertex 23.6918529344875 -180.78119021367 5.0
    vertex 23.6918529344875 -183.28119021367 2.0
  endloop
endfacet
facet normal -1.0 0.0 0.0
  outer loop
    vertex 23.6918529344875 -180.78119021367 5.0
    vertex 23.6918529344875 -153.28119021367 13.0
    vertex 23.6918529344875 -178.28119021367 5.0
  endloop
endfacet
facet normal -1.0 0.0 0.0
  outer loop
    vertex 23.6918529344875 -178.28119021367 5.0
    vertex 23.6918529344875 -153.28119021367 13.0
    vertex 23.6918529344875 -175.78119021367 5.0
  endloop
endfacet
facet normal -1.0 0.0 0.0
  outer loop
    vertex 23.6918529344875 -178.28119021367 5.0
    vertex 23.6918529344875 -175.78119021367 5.0
    vertex 23.6918529344875 -178.28119021367 2.0
  endloop
endfacet
facet normal -1.0 0.0 0.0
  outer loop
    vertex 23.6918529344875 -175.78119021367 5.0
    vertex 23.6918529344875 -153.28119021367 13.0
    vertex 23.6918529344875 -153.28119021367 5.0
  endloop
endfacet
facet normal -1.0 0.0 0.0
  outer loop
    vertex 23.6918529344875 -175.78119021367 2.0
    vertex 23.6918529344875 -178.28119021367 2.0
    vertex 23.6918529344875 -175.78119021367 5.0
  endloop
endfacet
facet normal -1.0 0.0 0.0
  outer loop
    vertex 23.6918529344875 -180.78119021367 2.0
    vertex 23.6918529344875 -183.28119021367 2.0
    vertex 23.6918529344875 -180.78119021367 5.0
  endloop
endfacet
facet normal -0.0 -1.0 -0.0
  outer loop
    vertex 27.1918529344875 -188.28119021367 2.0
    vertex 23.6918529344875 -188.28119021367 5.0
    vertex 6.69185293448751 -188.28119021367 2.0
  endloop
endfacet
facet normal -0.0 -1.0 -0.0
  outer loop
    vertex 23.6918529344875 -188.28119021367 5.0
    vertex 27.1918529344875 -188.28119021367 2.0
    vertex 27.1918529344875 -188.28119021367 13.0
  endloop
endfacet
facet normal -0.0 -1.0 -0.0
  outer loop
    vertex 23.6918529344875 -188.28119021367 5.0
    vertex 27.1918529344875 -188.28119021367 13.0
    vertex 23.6918529344875 -188.28119021367 13.0
  endloop
endfacet
facet normal -0.0 -1.0 -0.0
  outer loop
    vertex 6.69185293448751 -188.28119021367 2.0
    vertex 10.1918529344875 -188.28119021367 5.0
    vertex 6.69185293448751 -188.28119021367 13.0
  endloop
endfacet
facet normal -0.0 -1.0 -0.0
  outer loop
    vertex 10.1918529344875 -188.28119021367 5.0
    vertex 6.69185293448751 -188.28119021367 2.0
    vertex 23.6918529344875 -188.28119021367 5.0
  endloop
endfacet
facet normal -0.0 -1.0 -0.0
  outer loop
    vertex 6.69185293448751 -188.28119021367 13.0
    vertex 10.1918529344875 -188.28119021367 5.0
    vertex 10.1918529344875 -188.28119021367 13.0
  endloop
endfacet
facet normal 5.32418728257799e-017 3.59132135656379e-017 -1.0
  outer loop
    vertex 6.69185293448751 -143.28119021367 2.0
    vertex 10.1918529344875 -175.78119021367 2.0
    vertex 6.69185293448751 -188.28119021367 2.0
  endloop
endfacet
facet normal 5.32418728257799e-017 3.59132135656379e-017 -1.0
  outer loop
    vertex 10.1918529344875 -175.78119021367 2.0
    vertex 6.69185293448751 -143.28119021367 2.0
    vertex 27.1918529344875 -153.28119021367 2.0
  endloop
endfacet
facet normal 5.32418728257799e-017 3.59132135656379e-017 -1.0
  outer loop
    vertex 27.1918529344875 -153.28119021367 2.0
    vertex 6.69185293448751 -143.28119021367 2.0
    vertex 47.1918529344875 -143.28119021367 2.00000000000001
  endloop
endfacet
facet normal 5.32418728257799e-017 3.59132135656379e-017 -1.0
  outer loop
    vertex 10.1918529344875 -175.78119021367 2.0
    vertex 27.1918529344875 -153.28119021367 2.0
    vertex 23.6918529344875 -175.78119021367 2.0
  endloop
endfacet
facet normal 5.32418728257799e-017 3.59132135656379e-017 -1.0
  outer loop
    vertex 23.6918529344875 -175.78119021367 2.0
    vertex 27.1918529344875 -153.28119021367 2.0
    vertex 23.6918529344875 -178.28119021367 2.0
  endloop
endfacet
facet normal 5.32418728257799e-017 3.59132135656379e-017 -1.0
  outer loop
    vertex 23.6918529344875 -178.28119021367 2.0
    vertex 27.1918529344875 -153.28119021367 2.0
    vertex 23.6918529344875 -180.78119021367 2.0
  endloop
endfacet
facet normal 5.32418728257799e-017 3.59132135656379e-017 -1.0
  outer loop
    vertex 23.6918529344875 -180.78119021367 2.0
    vertex 27.1918529344875 -153.28119021367 2.0
    vertex 23.6918529344875 -183.28119021367 2.0
  endloop
endfacet
facet normal 5.32418728257799e-017 3.59132135656379e-017 -1.0
  outer loop
    vertex 27.1918529344875 -153.28119021367 2.0
    vertex 47.1918529344875 -143.28119021367 2.00000000000001
    vertex 44.1918529344875 -153.28119021367 2.0
  endloop
endfacet
facet normal 5.32418728257799e-017 3.59132135656379e-017 -1.0
  outer loop
    vertex 44.1918529344875 -153.28119021367 2.0
    vertex 47.1918529344875 -143.28119021367 2.00000000000001
    vertex 44.6918529344875 -158.28119021367 2.0
  endloop
endfacet
facet normal 5.32418728257799e-017 3.59132135656379e-017 -1.0
  outer loop
    vertex 44.6918529344875 -158.28119021367 2.0
    vertex 47.1918529344875 -143.28119021367 2.00000000000001
    vertex 47.1918529344875 -158.28119021367 2.0
  endloop
endfacet
facet normal 5.32418728257799e-017 3.59132135656379e-017 -1.0
  outer loop
    vertex 6.69185293448751 -188.28119021367 2.0
    vertex 10.1918529344875 -183.28119021367 2.0
    vertex 27.1918529344875 -188.28119021367 2.0
  endloop
endfacet
facet normal 5.32418728257799e-017 3.59132135656379e-017 -1.0
  outer loop
    vertex 10.1918529344875 -183.28119021367 2.0
    vertex 6.69185293448751 -188.28119021367 2.0
    vertex 10.1918529344875 -175.78119021367 2.0
  endloop
endfacet
facet normal 5.32418728257799e-017 3.59132135656379e-017 -1.0
  outer loop
    vertex 10.1918529344875 -183.28119021367 2.0
    vertex 10.1918529344875 -175.78119021367 2.0
    vertex 10.1918529344875 -178.28119021367 2.0
  endloop
endfacet
facet normal 5.32418728257799e-017 3.59132135656379e-017 -1.0
  outer loop
    vertex 10.1918529344875 -183.28119021367 2.0
    vertex 10.1918529344875 -178.28119021367 2.0
    vertex 10.1918529344875 -180.78119021367 2.0
  endloop
endfacet
facet normal 5.32418728257799e-017 3.59132135656379e-017 -1.0
  outer loop
    vertex 27.1918529344875 -188.28119021367 2.0
    vertex 10.1918529344875 -183.28119021367 2.0
    vertex 23.6918529344875 -183.28119021367 2.0
  endloop
endfacet
facet normal 5.32418728257799e-017 3.59132135656379e-017 -1.0
  outer loop
    vertex 27.1918529344875 -188.28119021367 2.0
    vertex 23.6918529344875 -183.28119021367 2.0
    vertex 27.1918529344875 -153.28119021367 2.0
  endloop
endfacet
facet normal 5.32418728257799e-017 3.59132135656379e-017 -1.0
  outer loop
    vertex 23.6918529344875 -178.28119021367 2.0
    vertex 10.1918529344875 -180.78119021367 2.0
    vertex 10.1918529344875 -178.28119021367 2.0
  endloop
endfacet
facet normal 5.32418728257799e-017 3.59132135656379e-017 -1.0
  outer loop
    vertex 10.1918529344875 -180.78119021367 2.0
    vertex 23.6918529344875 -178.28119021367 2.0
    vertex 23.6918529344875 -180.78119021367 2.0
  endloop
endfacet
facet normal 0.0 0.0 1.0
  outer loop
    vertex 27.1918529344875 -188.28119021367 13.0
    vertex 23.6918529344875 -153.28119021367 13.0
    vertex 23.6918529344875 -188.28119021367 13.0
  endloop
endfacet
facet normal 0.0 0.0 1.0
  outer loop
    vertex 10.1918529344875 -188.28119021367 13.0
    vertex 6.69185293448751 -143.28119021367 13.0
    vertex 6.69185293448751 -188.28119021367 13.0
  endloop
endfacet
facet normal 0.0 0.0 1.0
  outer loop
    vertex 6.69185293448751 -143.28119021367 13.0
    vertex 10.1918529344875 -188.28119021367 13.0
    vertex 7.86867377751319 -143.28119021367 13.0
  endloop
endfacet
facet normal 0.0 0.0 1.0
  outer loop
    vertex 7.86867377751319 -143.28119021367 13.0
    vertex 10.1918529344875 -188.28119021367 13.0
    vertex 10.1918529344875 -153.28119021367 13.0
  endloop
endfacet
facet normal 0.0 0.0 1.0
  outer loop
    vertex 7.86867377751319 -143.28119021367 13.0
    vertex 10.1918529344875 -153.28119021367 13.0
    vertex 41.7560172158244 -143.28119021367 13.0
  endloop
endfacet
facet normal 0.0 0.0 1.0
  outer loop
    vertex 41.7560172158244 -143.28119021367 13.0
    vertex 10.1918529344875 -153.28119021367 13.0
    vertex 23.6918529344875 -153.28119021367 13.0
  endloop
endfacet
facet normal 0.0 0.0 1.0
  outer loop
    vertex 41.7560172158244 -143.28119021367 13.0
    vertex 23.6918529344875 -153.28119021367 13.0
    vertex 27.1918529344875 -153.28119021367 13.0
  endloop
endfacet
facet normal 0.0 0.0 1.0
  outer loop
    vertex 27.1918529344875 -153.28119021367 13.0
    vertex 23.6918529344875 -153.28119021367 13.0
    vertex 27.1918529344875 -188.28119021367 13.0
  endloop
endfacet
facet normal 0.0 0.0 1.0
  outer loop
    vertex 41.7560172158244 -143.28119021367 13.0
    vertex 27.1918529344875 -153.28119021367 13.0
    vertex 44.1918529344875 -153.28119021367 13.0
  endloop
endfacet
facet normal 0.0 0.0 1.0
  outer loop
    vertex 41.7560172158244 -143.28119021367 13.0
    vertex 44.1918529344875 -153.28119021367 13.0
    vertex 47.1918529344875 -143.28119021367 13.0
  endloop
endfacet
facet normal 0.0 0.0 1.0
  outer loop
    vertex 47.1918529344875 -143.28119021367 13.0
    vertex 44.1918529344875 -153.28119021367 13.0
    vertex 44.6918529344875 -158.28119021367 13.0
  endloop
endfacet
facet normal 0.0 0.0 1.0
  outer loop
    vertex 47.1918529344875 -143.28119021367 13.0
    vertex 44.6918529344875 -158.28119021367 13.0
    vertex 47.1918529344875 -158.28119021367 13.0
  endloop
endfacet
facet normal 0.0 0.0 1.0
  outer loop
    vertex 47.1918529344875 -143.28119021367 13.0
    vertex 47.1918529344875 -158.28119021367 13.0
    vertex 47.1918529344875 -148.431544389803 13.0
  endloop
endfacet
facet normal 1.0 0.0 0.0
  outer loop
    vertex 27.1918529344875 -153.28119021367 2.0
    vertex 27.1918529344875 -188.28119021367 13.0
    vertex 27.1918529344875 -188.28119021367 2.0
  endloop
endfacet
facet normal 1.0 0.0 0.0
  outer loop
    vertex 27.1918529344875 -188.28119021367 13.0
    vertex 27.1918529344875 -153.28119021367 2.0
    vertex 27.1918529344875 -153.28119021367 13.0
  endloop
endfacet
facet normal 1.0 0.0 0.0
  outer loop
    vertex 47.1918529344875 -143.28119021367 2.00000000000001
    vertex 47.1918529344875 -158.28119021367 13.0
    vertex 47.1918529344875 -158.28119021367 2.0
  endloop
endfacet
facet normal 1.0 0.0 0.0
  outer loop
    vertex 47.1918529344875 -158.28119021367 13.0
    vertex 47.1918529344875 -143.28119021367 2.00000000000001
    vertex 47.1918529344875 -148.431544389803 13.0
  endloop
endfacet
facet normal 1.0 0.0 0.0
  outer loop
    vertex 47.1918529344875 -148.431544389803 13.0
    vertex 47.1918529344875 -143.28119021367 2.00000000000001
    vertex 47.1918529344875 -143.28119021367 13.0
  endloop
endfacet
facet normal 0.0 0.0 1.0
  outer loop
    vertex 23.6918529344875 -188.28119021367 5.0
    vertex 10.1918529344875 -183.28119021367 5.0
    vertex 10.1918529344875 -188.28119021367 5.0
  endloop
endfacet
facet normal 0.0 0.0 1.0
  outer loop
    vertex 10.1918529344875 -183.28119021367 5.0
    vertex 23.6918529344875 -188.28119021367 5.0
    vertex 23.6918529344875 -183.28119021367 5.0
  endloop
endfacet
facet normal 1.0 0.0 0.0
  outer loop
    vertex 40.2918529344875 -159.38119021367 2.0
    vertex 40.2918529344875 -178.526522996054 13.0
    vertex 40.2918529344875 -178.526522996054 2.0
  endloop
endfacet
facet normal 1.0 0.0 0.0
  outer loop
    vertex 40.2918529344875 -178.526522996054 13.0
    vertex 40.2918529344875 -159.38119021367 2.0
    vertex 40.2918529344875 -159.38119021367 13.0
  endloop
endfacet
facet normal 0.0 1.0 0.0
  outer loop
    vertex 30.2918529344875 -159.38119021367 2.0
    vertex 34.5418529344875 -159.38119021367 6.20096189432334
    vertex 40.2918529344875 -159.38119021367 2.0
  endloop
endfacet
facet normal 0.0 1.0 0.0
  outer loop
    vertex 34.5418529344875 -159.38119021367 6.20096189432334
    vertex 30.2918529344875 -159.38119021367 2.0
    vertex 34.2311927627077 -159.38119021367 6.43933982822018
  endloop
endfacet
facet normal 0.0 1.0 0.0
  outer loop
    vertex 34.2311927627077 -159.38119021367 6.43933982822018
    vertex 30.2918529344875 -159.38119021367 2.0
    vertex 33.9928148288109 -159.38119021367 6.75
  endloop
endfacet
facet normal 0.0 1.0 0.0
  outer loop
    vertex 33.9928148288109 -159.38119021367 6.75
    vertex 30.2918529344875 -159.38119021367 2.0
    vertex 30.2918529344875 -159.38119021367 13.0
  endloop
endfacet
facet normal 0.0 1.0 0.0
  outer loop
    vertex 40.2918529344875 -159.38119021367 2.0
    vertex 34.5418529344875 -159.38119021367 6.20096189432334
    vertex 34.9036243668337 -159.38119021367 6.0511112605664
  endloop
endfacet
facet normal 0.0 1.0 0.0
  outer loop
    vertex 40.2918529344875 -159.38119021367 2.0
    vertex 34.9036243668337 -159.38119021367 6.0511112605664
    vertex 35.2918529344875 -159.38119021367 6.0
  endloop
endfacet
facet normal 0.0 1.0 0.0
  outer loop
    vertex 33.9928148288109 -159.38119021367 6.75
    vertex 30.2918529344875 -159.38119021367 13.0
    vertex 33.8429641950539 -159.38119021367 7.11177143234622
  endloop
endfacet
facet normal 0.0 1.0 0.0
  outer loop
    vertex 33.8429641950539 -159.38119021367 7.11177143234622
    vertex 30.2918529344875 -159.38119021367 13.0
    vertex 33.7918529344875 -159.38119021367 7.5
  endloop
endfacet
facet normal 0.0 1.0 0.0
  outer loop
    vertex 33.7918529344875 -159.38119021367 7.5
    vertex 30.2918529344875 -159.38119021367 13.0
    vertex 33.8429641950539 -159.38119021367 7.88822856765378
  endloop
endfacet
facet normal 0.0 1.0 0.0
  outer loop
    vertex 33.8429641950539 -159.38119021367 7.88822856765378
    vertex 30.2918529344875 -159.38119021367 13.0
    vertex 33.9928148288109 -159.38119021367 8.25
  endloop
endfacet
facet normal 0.0 1.0 0.0
  outer loop
    vertex 33.9928148288109 -159.38119021367 8.25
    vertex 30.2918529344875 -159.38119021367 13.0
    vertex 34.2311927627077 -159.38119021367 8.56066017177982
  endloop
endfacet
facet normal 0.0 1.0 0.0
  outer loop
    vertex 34.2311927627077 -159.38119021367 8.56066017177982
    vertex 30.2918529344875 -159.38119021367 13.0
    vertex 34.5418529344875 -159.38119021367 8.79903810567665
  endloop
endfacet
facet normal 0.0 1.0 0.0
  outer loop
    vertex 34.5418529344875 -159.38119021367 8.79903810567665
    vertex 30.2918529344875 -159.38119021367 13.0
    vertex 34.9036243668337 -159.38119021367 8.9488887394336
  endloop
endfacet
facet normal 0.0 1.0 0.0
  outer loop
    vertex 34.9036243668337 -159.38119021367 8.9488887394336
    vertex 30.2918529344875 -159.38119021367 13.0
    vertex 35.2918529344875 -159.38119021367 8.99999999999999
  endloop
endfacet
facet normal 0.0 1.0 0.0
  outer loop
    vertex 40.2918529344875 -159.38119021367 2.0
    vertex 36.5908910401642 -159.38119021367 6.75
    vertex 40.2918529344875 -159.38119021367 13.0
  endloop
endfacet
facet normal 0.0 1.0 0.0
  outer loop
    vertex 36.5908910401642 -159.38119021367 6.75
    vertex 40.2918529344875 -159.38119021367 2.0
    vertex 36.3525131062673 -159.38119021367 6.43933982822018
  endloop
endfacet
facet normal 0.0 1.0 0.0
  outer loop
    vertex 36.3525131062673 -159.38119021367 6.43933982822018
    vertex 40.2918529344875 -159.38119021367 2.0
    vertex 36.0418529344875 -159.38119021367 6.20096189432334
  endloop
endfacet
facet normal 0.0 1.0 0.0
  outer loop
    vertex 36.0418529344875 -159.38119021367 6.20096189432334
    vertex 40.2918529344875 -159.38119021367 2.0
    vertex 35.6800815021413 -159.38119021367 6.0511112605664
  endloop
endfacet
facet normal 0.0 1.0 0.0
  outer loop
    vertex 35.6800815021413 -159.38119021367 6.0511112605664
    vertex 40.2918529344875 -159.38119021367 2.0
    vertex 35.2918529344875 -159.38119021367 6.0
  endloop
endfacet
facet normal 0.0 1.0 0.0
  outer loop
    vertex 40.2918529344875 -159.38119021367 13.0
    vertex 36.5908910401642 -159.38119021367 6.75
    vertex 36.7407416739211 -159.38119021367 7.11177143234622
  endloop
endfacet
facet normal 0.0 1.0 0.0
  outer loop
    vertex 40.2918529344875 -159.38119021367 13.0
    vertex 36.7407416739211 -159.38119021367 7.11177143234622
    vertex 36.7918529344875 -159.38119021367 7.5
  endloop
endfacet
facet normal 0.0 1.0 0.0
  outer loop
    vertex 40.2918529344875 -159.38119021367 13.0
    vertex 36.7918529344875 -159.38119021367 7.5
    vertex 36.7407416739211 -159.38119021367 7.88822856765378
  endloop
endfacet
facet normal 0.0 1.0 0.0
  outer loop
    vertex 40.2918529344875 -159.38119021367 13.0
    vertex 36.7407416739211 -159.38119021367 7.88822856765378
    vertex 36.5908910401642 -159.38119021367 8.25
  endloop
endfacet
facet normal 0.0 1.0 0.0
  outer loop
    vertex 40.2918529344875 -159.38119021367 13.0
    vertex 36.5908910401642 -159.38119021367 8.25
    vertex 36.3525131062673 -159.38119021367 8.56066017177982
  endloop
endfacet
facet normal 0.0 1.0 0.0
  outer loop
    vertex 40.2918529344875 -159.38119021367 13.0
    vertex 36.3525131062673 -159.38119021367 8.56066017177982
    vertex 36.0418529344875 -159.38119021367 8.79903810567665
  endloop
endfacet
facet normal 0.0 1.0 0.0
  outer loop
    vertex 40.2918529344875 -159.38119021367 13.0
    vertex 36.0418529344875 -159.38119021367 8.79903810567665
    vertex 35.6800815021413 -159.38119021367 8.9488887394336
  endloop
endfacet
facet normal 0.0 1.0 0.0
  outer loop
    vertex 40.2918529344875 -159.38119021367 13.0
    vertex 35.6800815021413 -159.38119021367 8.9488887394336
    vertex 35.2918529344875 -159.38119021367 8.99999999999999
  endloop
endfacet
facet normal 0.0 1.0 0.0
  outer loop
    vertex 40.2918529344875 -159.38119021367 13.0
    vertex 35.2918529344875 -159.38119021367 8.99999999999999
    vertex 30.2918529344875 -159.38119021367 13.0
  endloop
endfacet
facet normal -7.77564287467252e-017 -7.47352057207544e-018 -1.0
  outer loop
    vertex 32.2918529344875 -164.18119021367 2.0
    vertex 32.2918529344875 -180.28119021367 2.0
    vertex 30.2918529344875 -178.526522996054 2.0
  endloop
endfacet
facet normal -7.77564287467252e-017 -7.47352057207544e-018 -1.0
  outer loop
    vertex 32.2918529344875 -180.28119021367 2.0
    vertex 32.2918529344875 -164.18119021367 2.0
    vertex 32.2918529344875 -177.28119021367 2.0
  endloop
endfacet
facet normal -7.77564287467252e-017 -7.47352057207544e-018 -1.0
  outer loop
    vertex 32.2918529344875 -180.28119021367 2.0
    vertex 32.2918529344875 -177.28119021367 2.0
    vertex 38.2918529344875 -177.28119021367 2.0
  endloop
endfacet
facet normal -7.77564287467252e-017 -7.47352057207544e-018 -1.0
  outer loop
    vertex 32.2918529344875 -180.28119021367 2.0
    vertex 38.2918529344875 -177.28119021367 2.0
    vertex 32.2918529344875 -188.28119021367 2.0
  endloop
endfacet
facet normal -7.77564287467252e-017 -7.47352057207544e-018 -1.0
  outer loop
    vertex 32.2918529344875 -188.28119021367 2.0
    vertex 38.2918529344875 -177.28119021367 2.0
    vertex 38.2918529344875 -188.28119021367 2.0
  endloop
endfacet
facet normal -7.77564287467252e-017 -7.47352057207544e-018 -1.0
  outer loop
    vertex 38.2918529344875 -188.28119021367 2.0
    vertex 38.2918529344875 -177.28119021367 2.0
    vertex 38.2918529344875 -180.28119021367 2.0
  endloop
endfacet
facet normal -7.77564287467252e-017 -7.47352057207544e-018 -1.0
  outer loop
    vertex 30.2918529344875 -159.38119021367 2.0
    vertex 32.2918529344875 -164.18119021367 2.0
    vertex 30.2918529344875 -178.526522996054 2.0
  endloop
endfacet
facet normal -7.77564287467252e-017 -7.47352057207544e-018 -1.0
  outer loop
    vertex 32.2918529344875 -164.18119021367 2.0
    vertex 30.2918529344875 -159.38119021367 2.0
    vertex 40.2918529344875 -159.38119021367 2.0
  endloop
endfacet
facet normal -7.77564287467252e-017 -7.47352057207544e-018 -1.0
  outer loop
    vertex 32.2918529344875 -164.18119021367 2.0
    vertex 40.2918529344875 -159.38119021367 2.0
    vertex 38.2918529344875 -164.18119021367 2.0
  endloop
endfacet
facet normal -7.77564287467252e-017 -7.47352057207544e-018 -1.0
  outer loop
    vertex 38.2918529344875 -164.18119021367 2.0
    vertex 40.2918529344875 -159.38119021367 2.0
    vertex 38.2918529344875 -177.28119021367 2.0
  endloop
endfacet
facet normal -7.77564287467252e-017 -7.47352057207544e-018 -1.0
  outer loop
    vertex 38.2918529344875 -177.28119021367 2.0
    vertex 40.2918529344875 -159.38119021367 2.0
    vertex 38.2918529344875 -180.28119021367 2.0
  endloop
endfacet
facet normal -7.77564287467252e-017 -7.47352057207544e-018 -1.0
  outer loop
    vertex 38.2918529344875 -180.28119021367 2.0
    vertex 40.2918529344875 -159.38119021367 2.0
    vertex 40.2918529344875 -178.526522996054 2.0
  endloop
endfacet
facet normal 0.0 -1.0 0.0
  outer loop
    vertex 38.2918529344875 -188.28119021367 13.0
    vertex 32.2918529344875 -188.28119021367 2.0
    vertex 38.2918529344875 -188.28119021367 2.0
  endloop
endfacet
facet normal 0.0 -1.0 0.0
  outer loop
    vertex 32.2918529344875 -188.28119021367 2.0
    vertex 38.2918529344875 -188.28119021367 13.0
    vertex 32.2918529344875 -188.28119021367 13.0
  endloop
endfacet
facet normal 1.0 0.0 0.0
  outer loop
    vertex 38.2918529344875 -188.28119021367 2.0
    vertex 38.2918529344875 -186.28119021367 4.0
    vertex 38.2918529344875 -188.28119021367 13.0
  endloop
endfacet
facet normal 1.0 0.0 0.0
  outer loop
    vertex 38.2918529344875 -186.28119021367 4.0
    vertex 38.2918529344875 -188.28119021367 2.0
    vertex 38.2918529344875 -180.28119021367 2.0
  endloop
endfacet
facet normal 1.0 0.0 0.0
  outer loop
    vertex 38.2918529344875 -186.28119021367 4.0
    vertex 38.2918529344875 -180.28119021367 2.0
    vertex 38.2918529344875 -184.28119021367 4.0
  endloop
endfacet
facet normal 1.0 0.0 0.0
  outer loop
    vertex 38.2918529344875 -184.28119021367 4.0
    vertex 38.2918529344875 -180.28119021367 2.0
    vertex 38.2918529344875 -182.28119021367 4.0
  endloop
endfacet
facet normal 1.0 0.0 0.0
  outer loop
    vertex 38.2918529344875 -184.28119021367 4.0
    vertex 38.2918529344875 -182.28119021367 4.0
    vertex 38.2918529344875 -184.28119021367 11.0
  endloop
endfacet
facet normal 1.0 0.0 0.0
  outer loop
    vertex 38.2918529344875 -182.28119021367 4.0
    vertex 38.2918529344875 -180.28119021367 2.0
    vertex 38.2918529344875 -180.28119021367 4.0
  endloop
endfacet
facet normal 1.0 0.0 0.0
  outer loop
    vertex 38.2918529344875 -188.28119021367 13.0
    vertex 38.2918529344875 -186.28119021367 11.0
    vertex 38.2918529344875 -180.28119021367 13.0
  endloop
endfacet
facet normal 1.0 0.0 0.0
  outer loop
    vertex 38.2918529344875 -186.28119021367 11.0
    vertex 38.2918529344875 -188.28119021367 13.0
    vertex 38.2918529344875 -186.28119021367 4.0
  endloop
endfacet
facet normal 1.0 0.0 0.0
  outer loop
    vertex 38.2918529344875 -180.28119021367 13.0
    vertex 38.2918529344875 -186.28119021367 11.0
    vertex 38.2918529344875 -184.28119021367 11.0
  endloop
endfacet
facet normal 1.0 0.0 0.0
  outer loop
    vertex 38.2918529344875 -180.28119021367 13.0
    vertex 38.2918529344875 -184.28119021367 11.0
    vertex 38.2918529344875 -182.28119021367 11.0
  endloop
endfacet
facet normal 1.0 0.0 0.0
  outer loop
    vertex 38.2918529344875 -182.28119021367 11.0
    vertex 38.2918529344875 -184.28119021367 11.0
    vertex 38.2918529344875 -182.28119021367 4.0
  endloop
endfacet
facet normal 1.0 0.0 0.0
  outer loop
    vertex 38.2918529344875 -180.28119021367 13.0
    vertex 38.2918529344875 -182.28119021367 11.0
    vertex 38.2918529344875 -180.28119021367 11.0
  endloop
endfacet
facet normal 0.659497557232728 -0.751706706105556 1.41853058716129e-018
  outer loop
    vertex 40.2918529344875 -178.526522996054 2.0
    vertex 38.2918529344875 -180.28119021367 4.0
    vertex 38.2918529344875 -180.28119021367 2.0
  endloop
endfacet
facet normal 0.659497557232728 -0.751706706105556 1.41853058716129e-018
  outer loop
    vertex 38.2918529344875 -180.28119021367 4.0
    vertex 40.2918529344875 -178.526522996054 2.0
    vertex 40.2918529344875 -178.526522996054 13.0
  endloop
endfacet
facet normal 0.659497557232728 -0.751706706105556 1.41853058716129e-018
  outer loop
    vertex 38.2918529344875 -180.28119021367 4.0
    vertex 40.2918529344875 -178.526522996054 13.0
    vertex 38.2918529344875 -180.28119021367 11.0
  endloop
endfacet
facet normal 0.659497557232728 -0.751706706105556 1.41853058716129e-018
  outer loop
    vertex 38.2918529344875 -180.28119021367 11.0
    vertex 40.2918529344875 -178.526522996054 13.0
    vertex 38.2918529344875 -180.28119021367 13.0
  endloop
endfacet
facet normal 0.0 0.0 1.0
  outer loop
    vertex 38.2918529344875 -188.28119021367 13.0
    vertex 32.2918529344875 -180.28119021367 13.0
    vertex 32.2918529344875 -188.28119021367 13.0
  endloop
endfacet
facet normal 0.0 0.0 1.0
  outer loop
    vertex 32.2918529344875 -180.28119021367 13.0
    vertex 38.2918529344875 -188.28119021367 13.0
    vertex 32.2918529344875 -177.28119021367 13.0
  endloop
endfacet
facet normal 0.0 0.0 1.0
  outer loop
    vertex 32.2918529344875 -177.28119021367 13.0
    vertex 38.2918529344875 -188.28119021367 13.0
    vertex 38.2918529344875 -177.28119021367 13.0
  endloop
endfacet
facet normal 0.0 0.0 1.0
  outer loop
    vertex 38.2918529344875 -177.28119021367 13.0
    vertex 38.2918529344875 -188.28119021367 13.0
    vertex 38.2918529344875 -180.28119021367 13.0
  endloop
endfacet
facet normal 0.0 0.0 1.0
  outer loop
    vertex 38.2918529344875 -177.28119021367 13.0
    vertex 38.2918529344875 -180.28119021367 13.0
    vertex 40.2918529344875 -178.526522996054 13.0
  endloop
endfacet
facet normal 0.0 0.0 1.0
  outer loop
    vertex 38.2918529344875 -177.28119021367 13.0
    vertex 40.2918529344875 -178.526522996054 13.0
    vertex 38.2918529344875 -164.18119021367 13.0
  endloop
endfacet
facet normal 0.0 0.0 1.0
  outer loop
    vertex 32.2918529344875 -180.28119021367 13.0
    vertex 30.2918529344875 -159.38119021367 13.0
    vertex 30.2918529344875 -178.526522996054 13.0
  endloop
endfacet
facet normal 0.0 0.0 1.0
  outer loop
    vertex 30.2918529344875 -159.38119021367 13.0
    vertex 32.2918529344875 -180.28119021367 13.0
    vertex 32.2918529344875 -164.18119021367 13.0
  endloop
endfacet
facet normal 0.0 0.0 1.0
  outer loop
    vertex 30.2918529344875 -159.38119021367 13.0
    vertex 32.2918529344875 -164.18119021367 13.0
    vertex 40.2918529344875 -159.38119021367 13.0
  endloop
endfacet
facet normal 0.0 0.0 1.0
  outer loop
    vertex 32.2918529344875 -164.18119021367 13.0
    vertex 32.2918529344875 -180.28119021367 13.0
    vertex 32.2918529344875 -177.28119021367 13.0
  endloop
endfacet
facet normal 0.0 0.0 1.0
  outer loop
    vertex 40.2918529344875 -159.38119021367 13.0
    vertex 32.2918529344875 -164.18119021367 13.0
    vertex 38.2918529344875 -164.18119021367 13.0
  endloop
endfacet
facet normal 0.0 0.0 1.0
  outer loop
    vertex 40.2918529344875 -159.38119021367 13.0
    vertex 38.2918529344875 -164.18119021367 13.0
    vertex 40.2918529344875 -178.526522996054 13.0
  endloop
endfacet
facet normal -1.0 0.0 0.0
  outer loop
    vertex 32.2918529344875 -182.28119021367 5.0
    vertex 32.2918529344875 -184.28119021367 4.0
    vertex 32.2918529344875 -184.28119021367 5.0
  endloop
endfacet
facet normal -1.0 0.0 0.0
  outer loop
    vertex 32.2918529344875 -188.28119021367 2.0
    vertex 32.2918529344875 -186.28119021367 4.0
    vertex 32.2918529344875 -180.28119021367 2.0
  endloop
endfacet
facet normal -1.0 0.0 0.0
  outer loop
    vertex 32.2918529344875 -186.28119021367 4.0
    vertex 32.2918529344875 -188.28119021367 2.0
    vertex 32.2918529344875 -186.28119021367 11.0
  endloop
endfacet
facet normal -1.0 0.0 0.0
  outer loop
    vertex 32.2918529344875 -180.28119021367 2.0
    vertex 32.2918529344875 -186.28119021367 4.0
    vertex 32.2918529344875 -184.28119021367 4.0
  endloop
endfacet
facet normal -1.0 0.0 0.0
  outer loop
    vertex 32.2918529344875 -180.28119021367 2.0
    vertex 32.2918529344875 -184.28119021367 4.0
    vertex 32.2918529344875 -182.28119021367 4.0
  endloop
endfacet
facet normal -1.0 0.0 0.0
  outer loop
    vertex 32.2918529344875 -182.28119021367 4.0
    vertex 32.2918529344875 -184.28119021367 4.0
    vertex 32.2918529344875 -182.28119021367 5.0
  endloop
endfacet
facet normal -1.0 0.0 0.0
  outer loop
    vertex 32.2918529344875 -180.28119021367 2.0
    vertex 32.2918529344875 -182.28119021367 4.0
    vertex 32.2918529344875 -180.28119021367 4.0
  endloop
endfacet
facet normal -1.0 0.0 0.0
  outer loop
    vertex 32.2918529344875 -182.28119021367 5.0
    vertex 32.2918529344875 -184.28119021367 5.0
    vertex 32.2918529344875 -182.28119021367 11.0
  endloop
endfacet
facet normal -1.0 0.0 0.0
  outer loop
    vertex 32.2918529344875 -188.28119021367 13.0
    vertex 32.2918529344875 -186.28119021367 11.0
    vertex 32.2918529344875 -188.28119021367 2.0
  endloop
endfacet
facet normal -1.0 0.0 0.0
  outer loop
    vertex 32.2918529344875 -186.28119021367 11.0
    vertex 32.2918529344875 -188.28119021367 13.0
    vertex 32.2918529344875 -180.28119021367 13.0
  endloop
endfacet
facet normal -1.0 0.0 0.0
  outer loop
    vertex 32.2918529344875 -186.28119021367 11.0
    vertex 32.2918529344875 -180.28119021367 13.0
    vertex 32.2918529344875 -184.28119021367 11.0
  endloop
endfacet
facet normal -1.0 0.0 0.0
  outer loop
    vertex 32.2918529344875 -184.28119021367 11.0
    vertex 32.2918529344875 -180.28119021367 13.0
    vertex 32.2918529344875 -182.28119021367 11.0
  endloop
endfacet
facet normal -1.0 0.0 0.0
  outer loop
    vertex 32.2918529344875 -184.28119021367 11.0
    vertex 32.2918529344875 -182.28119021367 11.0
    vertex 32.2918529344875 -184.28119021367 5.0
  endloop
endfacet
facet normal -1.0 0.0 0.0
  outer loop
    vertex 32.2918529344875 -182.28119021367 11.0
    vertex 32.2918529344875 -180.28119021367 13.0
    vertex 32.2918529344875 -180.28119021367 11.0
  endloop
endfacet
facet normal -0.659497557232727 -0.751706706105557 -3.85857361629385e-018
  outer loop
    vertex 32.2918529344875 -180.28119021367 4.0
    vertex 30.2918529344875 -178.526522996054 2.0
    vertex 32.2918529344875 -180.28119021367 2.0
  endloop
endfacet
facet normal -0.659497557232727 -0.751706706105557 -3.85857361629385e-018
  outer loop
    vertex 30.2918529344875 -178.526522996054 2.0
    vertex 32.2918529344875 -180.28119021367 4.0
    vertex 30.2918529344875 -178.526522996054 13.0
  endloop
endfacet
facet normal -0.659497557232727 -0.751706706105557 -3.85857361629385e-018
  outer loop
    vertex 30.2918529344875 -178.526522996054 13.0
    vertex 32.2918529344875 -180.28119021367 4.0
    vertex 32.2918529344875 -180.28119021367 11.0
  endloop
endfacet
facet normal -0.659497557232727 -0.751706706105557 -3.85857361629385e-018
  outer loop
    vertex 30.2918529344875 -178.526522996054 13.0
    vertex 32.2918529344875 -180.28119021367 11.0
    vertex 32.2918529344875 -180.28119021367 13.0
  endloop
endfacet
facet normal -0.965925826289067 0.0 0.258819045102527
  outer loop
    vertex 36.7407416739211 -159.38119021367 7.11177143234622
    vertex 36.5908910401642 -164.18119021367 6.75
    vertex 36.7407416739211 -164.18119021367 7.11177143234622
  endloop
endfacet
facet normal -0.866025403784437 0.0 0.500000000000004
  outer loop
    vertex 36.5908910401642 -164.18119021367 6.75
    vertex 36.7407416739211 -159.38119021367 7.11177143234622
    vertex 36.5908910401642 -159.38119021367 6.75
  endloop
endfacet
facet normal -1.0 0.0 -4.63377714573639e-016
  outer loop
    vertex 36.7918529344875 -159.38119021367 7.5
    vertex 36.7407416739211 -164.18119021367 7.11177143234622
    vertex 36.7918529344875 -164.18119021367 7.5
  endloop
endfacet
facet normal -0.965925826289067 0.0 0.258819045102527
  outer loop
    vertex 36.7407416739211 -164.18119021367 7.11177143234622
    vertex 36.7918529344875 -159.38119021367 7.5
    vertex 36.7407416739211 -159.38119021367 7.11177143234622
  endloop
endfacet
facet normal -0.965925826289069 0.0 -0.25881904510252
  outer loop
    vertex 36.7407416739211 -159.38119021367 7.88822856765378
    vertex 36.7918529344875 -164.18119021367 7.5
    vertex 36.7407416739211 -164.18119021367 7.88822856765378
  endloop
endfacet
facet normal -1.0 0.0 -4.63377714573639e-016
  outer loop
    vertex 36.7918529344875 -164.18119021367 7.5
    vertex 36.7407416739211 -159.38119021367 7.88822856765378
    vertex 36.7918529344875 -159.38119021367 7.5
  endloop
endfacet
facet normal -0.866025403784437 0.0 -0.500000000000004
  outer loop
    vertex 36.5908910401642 -159.38119021367 8.25
    vertex 36.7407416739211 -164.18119021367 7.88822856765378
    vertex 36.5908910401642 -164.18119021367 8.25
  endloop
endfacet
facet normal -0.965925826289069 0.0 -0.25881904510252
  outer loop
    vertex 36.7407416739211 -164.18119021367 7.88822856765378
    vertex 36.5908910401642 -159.38119021367 8.25
    vertex 36.7407416739211 -159.38119021367 7.88822856765378
  endloop
endfacet
facet normal -0.707106781186548 0.0 -0.707106781186548
  outer loop
    vertex 36.3525131062673 -159.38119021367 8.56066017177982
    vertex 36.5908910401642 -164.18119021367 8.25
    vertex 36.3525131062673 -164.18119021367 8.56066017177982
  endloop
endfacet
facet normal -0.866025403784437 0.0 -0.500000000000004
  outer loop
    vertex 36.5908910401642 -164.18119021367 8.25
    vertex 36.3525131062673 -159.38119021367 8.56066017177982
    vertex 36.5908910401642 -159.38119021367 8.25
  endloop
endfacet
facet normal -0.707106781186548 0.0 -0.707106781186548
  outer loop
    vertex 36.3525131062673 -159.38119021367 8.56066017177982
    vertex 36.0418529344875 -164.18119021367 8.79903810567665
    vertex 36.0418529344875 -159.38119021367 8.79903810567665
  endloop
endfacet
facet normal -0.500000000000001 0.0 -0.866025403784438
  outer loop
    vertex 36.0418529344875 -164.18119021367 8.79903810567665
    vertex 36.3525131062673 -159.38119021367 8.56066017177982
    vertex 36.3525131062673 -164.18119021367 8.56066017177982
  endloop
endfacet
facet normal -0.500000000000001 0.0 -0.866025403784438
  outer loop
    vertex 36.0418529344875 -159.38119021367 8.79903810567665
    vertex 35.6800815021413 -164.18119021367 8.9488887394336
    vertex 35.6800815021413 -159.38119021367 8.9488887394336
  endloop
endfacet
facet normal -0.258819045102519 0.0 -0.965925826289069
  outer loop
    vertex 35.6800815021413 -164.18119021367 8.9488887394336
    vertex 36.0418529344875 -159.38119021367 8.79903810567665
    vertex 36.0418529344875 -164.18119021367 8.79903810567665
  endloop
endfacet
facet normal -0.258819045102519 0.0 -0.965925826289069
  outer loop
    vertex 35.6800815021413 -159.38119021367 8.9488887394336
    vertex 35.2918529344875 -164.18119021367 8.99999999999999
    vertex 35.2918529344875 -159.38119021367 8.99999999999999
  endloop
endfacet
facet normal -3.58226617805005e-015 0.0 -1.0
  outer loop
    vertex 35.2918529344875 -164.18119021367 8.99999999999999
    vertex 35.6800815021413 -159.38119021367 8.9488887394336
    vertex 35.6800815021413 -164.18119021367 8.9488887394336
  endloop
endfacet
facet normal -3.58226617805005e-015 0.0 -1.0
  outer loop
    vertex 35.2918529344875 -159.38119021367 8.99999999999999
    vertex 34.9036243668337 -164.18119021367 8.9488887394336
    vertex 34.9036243668337 -159.38119021367 8.9488887394336
  endloop
endfacet
facet normal 0.258819045102521 0.0 -0.965925826289068
  outer loop
    vertex 34.9036243668337 -164.18119021367 8.9488887394336
    vertex 35.2918529344875 -159.38119021367 8.99999999999999
    vertex 35.2918529344875 -164.18119021367 8.99999999999999
  endloop
endfacet
facet normal 0.258819045102521 0.0 -0.965925826289068
  outer loop
    vertex 34.9036243668337 -159.38119021367 8.9488887394336
    vertex 34.5418529344875 -164.18119021367 8.79903810567665
    vertex 34.5418529344875 -159.38119021367 8.79903810567665
  endloop
endfacet
facet normal 0.5 0.0 -0.866025403784439
  outer loop
    vertex 34.5418529344875 -164.18119021367 8.79903810567665
    vertex 34.9036243668337 -159.38119021367 8.9488887394336
    vertex 34.9036243668337 -164.18119021367 8.9488887394336
  endloop
endfacet
facet normal 0.5 0.0 -0.866025403784439
  outer loop
    vertex 34.5418529344875 -159.38119021367 8.79903810567665
    vertex 34.2311927627077 -164.18119021367 8.56066017177982
    vertex 34.2311927627077 -159.38119021367 8.56066017177982
  endloop
endfacet
facet normal 0.707106781186548 0.0 -0.707106781186547
  outer loop
    vertex 34.2311927627077 -164.18119021367 8.56066017177982
    vertex 34.5418529344875 -159.38119021367 8.79903810567665
    vertex 34.5418529344875 -164.18119021367 8.79903810567665
  endloop
endfacet
facet normal -0.707106781186553 0.0 0.707106781186543
  outer loop
    vertex 36.3525131062673 -164.18119021367 6.43933982822018
    vertex 36.0418529344875 -159.38119021367 6.20096189432334
    vertex 36.0418529344875 -164.18119021367 6.20096189432334
  endloop
endfacet
facet normal -0.5 0.0 0.866025403784439
  outer loop
    vertex 36.0418529344875 -159.38119021367 6.20096189432334
    vertex 36.3525131062673 -164.18119021367 6.43933982822018
    vertex 36.3525131062673 -159.38119021367 6.43933982822018
  endloop
endfacet
facet normal 0.866025403784443 0.0 -0.499999999999992
  outer loop
    vertex 33.9928148288109 -159.38119021367 8.25
    vertex 34.2311927627077 -164.18119021367 8.56066017177982
    vertex 33.9928148288109 -164.18119021367 8.25
  endloop
endfacet
facet normal 0.707106781186548 0.0 -0.707106781186547
  outer loop
    vertex 34.2311927627077 -164.18119021367 8.56066017177982
    vertex 33.9928148288109 -159.38119021367 8.25
    vertex 34.2311927627077 -159.38119021367 8.56066017177982
  endloop
endfacet
facet normal -0.866025403784437 0.0 0.500000000000004
  outer loop
    vertex 36.5908910401642 -159.38119021367 6.75
    vertex 36.3525131062673 -164.18119021367 6.43933982822018
    vertex 36.5908910401642 -164.18119021367 6.75
  endloop
endfacet
facet normal -0.707106781186553 0.0 0.707106781186543
  outer loop
    vertex 36.3525131062673 -164.18119021367 6.43933982822018
    vertex 36.5908910401642 -159.38119021367 6.75
    vertex 36.3525131062673 -159.38119021367 6.43933982822018
  endloop
endfacet
facet normal 0.965925826289068 0.0 -0.258819045102521
  outer loop
    vertex 33.8429641950539 -159.38119021367 7.88822856765378
    vertex 33.9928148288109 -164.18119021367 8.25
    vertex 33.8429641950539 -164.18119021367 7.88822856765378
  endloop
endfacet
facet normal 0.866025403784443 0.0 -0.499999999999992
  outer loop
    vertex 33.9928148288109 -164.18119021367 8.25
    vertex 33.8429641950539 -159.38119021367 7.88822856765378
    vertex 33.9928148288109 -159.38119021367 8.25
  endloop
endfacet
facet normal 1.0 0.0 0.0
  outer loop
    vertex 33.7918529344875 -159.38119021367 7.5
    vertex 33.8429641950539 -164.18119021367 7.88822856765378
    vertex 33.7918529344875 -164.18119021367 7.5
  endloop
endfacet
facet normal 0.965925826289068 0.0 -0.258819045102521
  outer loop
    vertex 33.8429641950539 -164.18119021367 7.88822856765378
    vertex 33.7918529344875 -159.38119021367 7.5
    vertex 33.8429641950539 -159.38119021367 7.88822856765378
  endloop
endfacet
facet normal -0.5 0.0 0.866025403784439
  outer loop
    vertex 36.0418529344875 -164.18119021367 6.20096189432334
    vertex 35.6800815021413 -159.38119021367 6.0511112605664
    vertex 35.6800815021413 -164.18119021367 6.0511112605664
  endloop
endfacet
facet normal -0.258819045102519 0.0 0.965925826289069
  outer loop
    vertex 35.6800815021413 -159.38119021367 6.0511112605664
    vertex 36.0418529344875 -164.18119021367 6.20096189432334
    vertex 36.0418529344875 -159.38119021367 6.20096189432334
  endloop
endfacet
facet normal 0.965925826289068 0.0 0.258819045102521
  outer loop
    vertex 33.8429641950539 -159.38119021367 7.11177143234622
    vertex 33.7918529344875 -164.18119021367 7.5
    vertex 33.8429641950539 -164.18119021367 7.11177143234622
  endloop
endfacet
facet normal 1.0 0.0 0.0
  outer loop
    vertex 33.7918529344875 -164.18119021367 7.5
    vertex 33.8429641950539 -159.38119021367 7.11177143234622
    vertex 33.7918529344875 -159.38119021367 7.5
  endloop
endfacet
facet normal 0.0 1.0 0.0
  outer loop
    vertex 32.2918529344875 -186.28119021367 11.0
    vertex 38.2918529344875 -186.28119021367 4.0
    vertex 32.2918529344875 -186.28119021367 4.0
  endloop
endfacet
facet normal 0.0 1.0 0.0
  outer loop
    vertex 38.2918529344875 -186.28119021367 4.0
    vertex 32.2918529344875 -186.28119021367 11.0
    vertex 38.2918529344875 -186.28119021367 11.0
  endloop
endfacet
facet normal 0.0 -1.0 0.0
  outer loop
    vertex 38.2918529344875 -184.28119021367 11.0
    vertex 32.2918529344875 -184.28119021367 4.0
    vertex 38.2918529344875 -184.28119021367 4.0
  endloop
endfacet
facet normal 0.0 -1.0 0.0
  outer loop
    vertex 32.2918529344875 -184.28119021367 4.0
    vertex 38.2918529344875 -184.28119021367 11.0
    vertex 32.2918529344875 -184.28119021367 5.0
  endloop
endfacet
facet normal 0.0 -1.0 0.0
  outer loop
    vertex 32.2918529344875 -184.28119021367 5.0
    vertex 38.2918529344875 -184.28119021367 11.0
    vertex 32.2918529344875 -184.28119021367 11.0
  endloop
endfacet
facet normal 0.0 0.0 -1.0
  outer loop
    vertex 38.2918529344875 -184.28119021367 11.0
    vertex 32.2918529344875 -186.28119021367 11.0
    vertex 32.2918529344875 -184.28119021367 11.0
  endloop
endfacet
facet normal 0.0 0.0 -1.0
  outer loop
    vertex 32.2918529344875 -186.28119021367 11.0
    vertex 38.2918529344875 -184.28119021367 11.0
    vertex 38.2918529344875 -186.28119021367 11.0
  endloop
endfacet
facet normal -0.258819045102519 0.0 0.965925826289069
  outer loop
    vertex 35.6800815021413 -164.18119021367 6.0511112605664
    vertex 35.2918529344875 -159.38119021367 6.0
    vertex 35.2918529344875 -164.18119021367 6.0
  endloop
endfacet
facet normal 0.0 0.0 1.0
  outer loop
    vertex 35.2918529344875 -159.38119021367 6.0
    vertex 35.6800815021413 -164.18119021367 6.0511112605664
    vertex 35.6800815021413 -159.38119021367 6.0511112605664
  endloop
endfacet
facet normal 0.707106781186553 0.0 0.707106781186542
  outer loop
    vertex 34.2311927627077 -159.38119021367 6.43933982822018
    vertex 33.9928148288109 -164.18119021367 6.75
    vertex 34.2311927627077 -164.18119021367 6.43933982822018
  endloop
endfacet
facet normal 0.866025403784442 0.0 0.499999999999994
  outer loop
    vertex 33.9928148288109 -164.18119021367 6.75
    vertex 34.2311927627077 -159.38119021367 6.43933982822018
    vertex 33.9928148288109 -159.38119021367 6.75
  endloop
endfacet
facet normal 0.500000000000003 0.0 0.866025403784437
  outer loop
    vertex 34.5418529344875 -164.18119021367 6.20096189432334
    vertex 34.2311927627077 -159.38119021367 6.43933982822018
    vertex 34.2311927627077 -164.18119021367 6.43933982822018
  endloop
endfacet
facet normal 0.707106781186553 0.0 0.707106781186542
  outer loop
    vertex 34.2311927627077 -159.38119021367 6.43933982822018
    vertex 34.5418529344875 -164.18119021367 6.20096189432334
    vertex 34.5418529344875 -159.38119021367 6.20096189432334
  endloop
endfacet
facet normal 0.258819045102519 0.0 0.965925826289069
  outer loop
    vertex 34.9036243668337 -164.18119021367 6.0511112605664
    vertex 34.5418529344875 -159.38119021367 6.20096189432334
    vertex 34.5418529344875 -164.18119021367 6.20096189432334
  endloop
endfacet
facet normal 0.500000000000003 0.0 0.866025403784437
  outer loop
    vertex 34.5418529344875 -159.38119021367 6.20096189432334
    vertex 34.9036243668337 -164.18119021367 6.0511112605664
    vertex 34.9036243668337 -159.38119021367 6.0511112605664
  endloop
endfacet
facet normal -1.0 0.0 0.0
  outer loop
    vertex 30.2918529344875 -159.38119021367 13.0
    vertex 30.2918529344875 -178.526522996054 2.0
    vertex 30.2918529344875 -178.526522996054 13.0
  endloop
endfacet
facet normal -1.0 0.0 0.0
  outer loop
    vertex 30.2918529344875 -178.526522996054 2.0
    vertex 30.2918529344875 -159.38119021367 13.0
    vertex 30.2918529344875 -159.38119021367 2.0
  endloop
endfacet
facet normal 0.0 0.0 1.0
  outer loop
    vertex 35.2918529344875 -164.18119021367 6.0
    vertex 34.9036243668337 -159.38119021367 6.0511112605664
    vertex 34.9036243668337 -164.18119021367 6.0511112605664
  endloop
endfacet
facet normal 0.258819045102519 0.0 0.965925826289069
  outer loop
    vertex 34.9036243668337 -159.38119021367 6.0511112605664
    vertex 35.2918529344875 -164.18119021367 6.0
    vertex 35.2918529344875 -159.38119021367 6.0
  endloop
endfacet
facet normal 0.0 -1.0 0.0
  outer loop
    vertex 38.2918529344875 -180.28119021367 11.0
    vertex 32.2918529344875 -180.28119021367 4.0
    vertex 38.2918529344875 -180.28119021367 4.0
  endloop
endfacet
facet normal 0.0 -1.0 0.0
  outer loop
    vertex 32.2918529344875 -180.28119021367 4.0
    vertex 38.2918529344875 -180.28119021367 11.0
    vertex 32.2918529344875 -180.28119021367 11.0
  endloop
endfacet
facet normal 0.866025403784442 0.0 0.499999999999994
  outer loop
    vertex 33.9928148288109 -159.38119021367 6.75
    vertex 33.8429641950539 -164.18119021367 7.11177143234622
    vertex 33.9928148288109 -164.18119021367 6.75
  endloop
endfacet
facet normal 0.965925826289068 0.0 0.258819045102521
  outer loop
    vertex 33.8429641950539 -164.18119021367 7.11177143234622
    vertex 33.9928148288109 -159.38119021367 6.75
    vertex 33.8429641950539 -159.38119021367 7.11177143234622
  endloop
endfacet
facet normal 0.0 0.0 1.0
  outer loop
    vertex 33.2918529344875 -182.28119021367 4.0
    vertex 32.2918529344875 -180.28119021367 4.0
    vertex 32.2918529344875 -182.28119021367 4.0
  endloop
endfacet
facet normal 0.0 0.0 1.0
  outer loop
    vertex 32.2918529344875 -180.28119021367 4.0
    vertex 33.2918529344875 -182.28119021367 4.0
    vertex 38.2918529344875 -180.28119021367 4.0
  endloop
endfacet
facet normal 0.0 0.0 1.0
  outer loop
    vertex 38.2918529344875 -180.28119021367 4.0
    vertex 33.2918529344875 -182.28119021367 4.0
    vertex 38.2918529344875 -182.28119021367 4.0
  endloop
endfacet
facet normal 0.0 1.0 0.0
  outer loop
    vertex 32.2918529344875 -182.28119021367 5.0
    vertex 33.2918529344875 -182.28119021367 4.0
    vertex 32.2918529344875 -182.28119021367 4.0
  endloop
endfacet
facet normal 0.0 1.0 0.0
  outer loop
    vertex 33.2918529344875 -182.28119021367 4.0
    vertex 32.2918529344875 -182.28119021367 5.0
    vertex 33.2918529344875 -182.28119021367 5.0
  endloop
endfacet
facet normal 0.0 0.0 1.0
  outer loop
    vertex 38.2918529344875 -186.28119021367 4.0
    vertex 32.2918529344875 -184.28119021367 4.0
    vertex 32.2918529344875 -186.28119021367 4.0
  endloop
endfacet
facet normal 0.0 0.0 1.0
  outer loop
    vertex 32.2918529344875 -184.28119021367 4.0
    vertex 38.2918529344875 -186.28119021367 4.0
    vertex 38.2918529344875 -184.28119021367 4.0
  endloop
endfacet
facet normal -0.995037190209989 -0.0995037190209989 1.84069413073689e-018
  outer loop
    vertex 44.1918529344875 -153.28119021367 13.0
    vertex 44.6918529344875 -158.28119021367 2.0
    vertex 44.6918529344875 -158.28119021367 13.0
  endloop
endfacet
facet normal -0.995037190209989 -0.0995037190209989 1.84069413073689e-018
  outer loop
    vertex 44.6918529344875 -158.28119021367 2.0
    vertex 44.1918529344875 -153.28119021367 13.0
    vertex 44.1918529344875 -153.28119021367 2.0
  endloop
endfacet
facet normal 0.0 -1.0 0.0
  outer loop
    vertex 44.1918529344875 -153.28119021367 2.0
    vertex 27.1918529344875 -153.28119021367 13.0
    vertex 27.1918529344875 -153.28119021367 2.0
  endloop
endfacet
facet normal 0.0 -1.0 0.0
  outer loop
    vertex 27.1918529344875 -153.28119021367 13.0
    vertex 44.1918529344875 -153.28119021367 2.0
    vertex 44.1918529344875 -153.28119021367 13.0
  endloop
endfacet
facet normal 0.0 1.0 0.0
  outer loop
    vertex 6.69185293448751 -143.28119021367 2.0
    vertex 16.4461864345222 -143.28119021367 7.06239459104487
    vertex 47.1918529344875 -143.28119021367 2.00000000000001
  endloop
endfacet
facet normal 0.0 1.0 0.0
  outer loop
    vertex 16.4461864345222 -143.28119021367 7.06239459104487
    vertex 6.69185293448751 -143.28119021367 2.0
    vertex 15.9615866792135 -143.28119021367 7.25670482454316
  endloop
endfacet
facet normal 0.0 1.0 0.0
  outer loop
    vertex 15.9615866792135 -143.28119021367 7.25670482454316
    vertex 6.69185293448751 -143.28119021367 2.0
    vertex 6.69185293448751 -143.28119021367 13.0
  endloop
endfacet
facet normal 0.0 1.0 0.0
  outer loop
    vertex 47.1918529344875 -143.28119021367 2.00000000000001
    vertex 16.4461864345222 -143.28119021367 7.06239459104487
    vertex 16.964565042676 -143.28119021367 7.00012896412253
  endloop
endfacet
facet normal 0.0 1.0 0.0
  outer loop
    vertex 15.9615866792135 -143.28119021367 7.25670482454316
    vertex 6.69185293448751 -143.28119021367 13.0
    vertex 15.5437904492351 -143.28119021367 7.56981774331735
  endloop
endfacet
facet normal 0.0 1.0 0.0
  outer loop
    vertex 15.5437904492351 -143.28119021367 7.56981774331735
    vertex 6.69185293448751 -143.28119021367 13.0
    vertex 15.2212698672192 -143.28119021367 7.98039521939653
  endloop
endfacet
facet normal 0.0 1.0 0.0
  outer loop
    vertex 15.2212698672192 -143.28119021367 7.98039521939653
    vertex 6.69185293448751 -143.28119021367 13.0
    vertex 15.0160041778396 -143.28119021367 8.46045707629727
  endloop
endfacet
facet normal 0.0 1.0 0.0
  outer loop
    vertex 15.0160041778396 -143.28119021367 8.46045707629727
    vertex 6.69185293448751 -143.28119021367 13.0
    vertex 14.94198189861 -143.28119021367 8.97728789181151
  endloop
endfacet
facet normal 0.0 1.0 0.0
  outer loop
    vertex 14.94198189861 -143.28119021367 8.97728789181151
    vertex 6.69185293448751 -143.28119021367 13.0
    vertex 15.0042475255324 -143.28119021367 9.49566649996526
  endloop
endfacet
facet normal 0.0 1.0 0.0
  outer loop
    vertex 15.0042475255324 -143.28119021367 9.49566649996526
    vertex 6.69185293448751 -143.28119021367 13.0
    vertex 15.1985577590307 -143.28119021367 9.98026625527401
  endloop
endfacet
facet normal 0.0 1.0 0.0
  outer loop
    vertex 15.1985577590307 -143.28119021367 9.98026625527401
    vertex 6.69185293448751 -143.28119021367 13.0
    vertex 15.5116706778049 -143.28119021367 10.3980624852524
  endloop
endfacet
facet normal 0.0 1.0 0.0
  outer loop
    vertex 15.5116706778049 -143.28119021367 10.3980624852524
    vertex 6.69185293448751 -143.28119021367 13.0
    vertex 15.922248153884 -143.28119021367 10.7205830672683
  endloop
endfacet
facet normal 0.0 1.0 0.0
  outer loop
    vertex 15.922248153884 -143.28119021367 10.7205830672683
    vertex 6.69185293448751 -143.28119021367 13.0
    vertex 16.4023100107848 -143.28119021367 10.9258487566479
  endloop
endfacet
facet normal 0.0 1.0 0.0
  outer loop
    vertex 16.4023100107848 -143.28119021367 10.9258487566479
    vertex 6.69185293448751 -143.28119021367 13.0
    vertex 16.919140826299 -143.28119021367 10.9998710358775
  endloop
endfacet
facet normal 0.0 1.0 0.0
  outer loop
    vertex 47.1918529344875 -143.28119021367 2.00000000000001
    vertex 17.4813958581902 -143.28119021367 7.07415124335209
    vertex 47.1918529344875 -143.28119021367 13.0
  endloop
endfacet
facet normal 0.0 1.0 0.0
  outer loop
    vertex 17.4813958581902 -143.28119021367 7.07415124335209
    vertex 47.1918529344875 -143.28119021367 2.00000000000001
    vertex 16.964565042676 -143.28119021367 7.00012896412253
  endloop
endfacet
facet normal 0.0 1.0 0.0
  outer loop
    vertex 47.1918529344875 -143.28119021367 13.0
    vertex 17.4813958581902 -143.28119021367 7.07415124335209
    vertex 17.961457715091 -143.28119021367 7.27941693273165
  endloop
endfacet
facet normal 0.0 1.0 0.0
  outer loop
    vertex 47.1918529344875 -143.28119021367 13.0
    vertex 17.961457715091 -143.28119021367 7.27941693273165
    vertex 18.3720351911702 -143.28119021367 7.6019375147476
  endloop
endfacet
facet normal 0.0 1.0 0.0
  outer loop
    vertex 47.1918529344875 -143.28119021367 13.0
    vertex 18.3720351911702 -143.28119021367 7.6019375147476
    vertex 18.6851481099444 -143.28119021367 8.019733744726
  endloop
endfacet
facet normal 0.0 1.0 0.0
  outer loop
    vertex 47.1918529344875 -143.28119021367 13.0
    vertex 18.6851481099444 -143.28119021367 8.019733744726
    vertex 18.8794583434426 -143.28119021367 8.50433350003473
  endloop
endfacet
facet normal 0.0 1.0 0.0
  outer loop
    vertex 47.1918529344875 -143.28119021367 13.0
    vertex 18.8794583434426 -143.28119021367 8.50433350003473
    vertex 18.941723970365 -143.28119021367 9.02271210818849
  endloop
endfacet
facet normal 0.0 1.0 0.0
  outer loop
    vertex 47.1918529344875 -143.28119021367 13.0
    vertex 18.941723970365 -143.28119021367 9.02271210818849
    vertex 18.8677016911354 -143.28119021367 9.53954292370273
  endloop
endfacet
facet normal 0.0 1.0 0.0
  outer loop
    vertex 47.1918529344875 -143.28119021367 13.0
    vertex 18.8677016911354 -143.28119021367 9.53954292370273
    vertex 18.6624360017559 -143.28119021367 10.0196047806035
  endloop
endfacet
facet normal 0.0 1.0 0.0
  outer loop
    vertex 47.1918529344875 -143.28119021367 13.0
    vertex 18.6624360017559 -143.28119021367 10.0196047806035
    vertex 18.3399154197399 -143.28119021367 10.4301822566826
  endloop
endfacet
facet normal 0.0 1.0 0.0
  outer loop
    vertex 47.1918529344875 -143.28119021367 13.0
    vertex 18.3399154197399 -143.28119021367 10.4301822566826
    vertex 17.9221191897615 -143.28119021367 10.7432951754568
  endloop
endfacet
facet normal 0.0 1.0 0.0
  outer loop
    vertex 47.1918529344875 -143.28119021367 13.0
    vertex 17.9221191897615 -143.28119021367 10.7432951754568
    vertex 17.4375194344528 -143.28119021367 10.9376054089551
  endloop
endfacet
facet normal 0.0 1.0 0.0
  outer loop
    vertex 47.1918529344875 -143.28119021367 13.0
    vertex 17.4375194344528 -143.28119021367 10.9376054089551
    vertex 16.919140826299 -143.28119021367 10.9998710358775
  endloop
endfacet
facet normal 0.0 1.0 0.0
  outer loop
    vertex 47.1918529344875 -143.28119021367 13.0
    vertex 16.919140826299 -143.28119021367 10.9998710358775
    vertex 6.69185293448751 -143.28119021367 13.0
  endloop
endfacet
facet normal 0.0 1.0 0.0
  outer loop
    vertex 47.1918529344875 -143.28119021367 13.0
    vertex 6.69185293448751 -143.28119021367 13.0
    vertex 7.86867377751319 -143.28119021367 13.0
  endloop
endfacet
facet normal 0.0 1.0 0.0
  outer loop
    vertex 47.1918529344875 -143.28119021367 13.0
    vertex 7.86867377751319 -143.28119021367 13.0
    vertex 41.7560172158244 -143.28119021367 13.0
  endloop
endfacet
facet normal -1.0 3.62816026017142e-018 -5.72886796767588e-018
  outer loop
    vertex 6.69185293448751 -143.28119021367 13.0
    vertex 6.69185293448751 -188.28119021367 2.0
    vertex 6.69185293448751 -188.28119021367 13.0
  endloop
endfacet
facet normal -1.0 3.62816026017142e-018 -5.72886796767588e-018
  outer loop
    vertex 6.69185293448751 -188.28119021367 2.0
    vertex 6.69185293448751 -143.28119021367 13.0
    vertex 6.69185293448751 -143.28119021367 2.0
  endloop
endfacet
facet normal 0.860291533634174 -2.82939335954837e-030 0.509802390301734
  outer loop
    vertex 15.2212698672192 -143.28119021367 7.98039521939653
    vertex 15.0160041778396 -153.28119021367 8.46045707629727
    vertex 15.2212698672192 -153.28119021367 7.98039521939653
  endloop
endfacet
facet normal 0.962924378323957 -2.17009612307389e-030 0.269771461851364
  outer loop
    vertex 15.0160041778396 -153.28119021367 8.46045707629727
    vertex 15.2212698672192 -143.28119021367 7.98039521939653
    vertex 15.0160041778396 -143.28119021367 8.46045707629727
  endloop
endfacet
facet normal 0.699031242626203 -3.29587211436322e-030 0.715091128341323
  outer loop
    vertex 15.5437904492351 -143.28119021367 7.56981774331735
    vertex 15.2212698672192 -153.28119021367 7.98039521939653
    vertex 15.5437904492351 -153.28119021367 7.56981774331735
  endloop
endfacet
facet normal 0.860291533634174 -2.82939335954837e-030 0.509802390301734
  outer loop
    vertex 15.2212698672192 -153.28119021367 7.98039521939653
    vertex 15.5437904492351 -143.28119021367 7.56981774331735
    vertex 15.2212698672192 -143.28119021367 7.98039521939653
  endloop
endfacet
facet normal 0.490133127637003 -3.53774263127043e-030 0.871647587728418
  outer loop
    vertex 15.9615866792135 -153.28119021367 7.25670482454316
    vertex 15.5437904492351 -143.28119021367 7.56981774331735
    vertex 15.5437904492351 -153.28119021367 7.56981774331735
  endloop
endfacet
facet normal 0.699031242626203 -3.29587211436322e-030 0.715091128341323
  outer loop
    vertex 15.5437904492351 -143.28119021367 7.56981774331735
    vertex 15.9615866792135 -153.28119021367 7.25670482454316
    vertex 15.9615866792135 -143.28119021367 7.25670482454316
  endloop
endfacet
facet normal 0.247833249982632 -3.53852183425267e-030 0.968802704477566
  outer loop
    vertex 16.4461864345222 -153.28119021367 7.06239459104487
    vertex 15.9615866792135 -143.28119021367 7.25670482454316
    vertex 15.9615866792135 -153.28119021367 7.25670482454316
  endloop
endfacet
facet normal 0.490133127637003 -3.53774263127043e-030 0.871647587728418
  outer loop
    vertex 15.9615866792135 -143.28119021367 7.25670482454316
    vertex 16.4461864345222 -153.28119021367 7.06239459104487
    vertex 16.4461864345222 -143.28119021367 7.06239459104487
  endloop
endfacet
facet normal -0.0113560540942435 -3.29815662191442e-030 0.999935517938736
  outer loop
    vertex 16.964565042676 -153.28119021367 7.00012896412253
    vertex 16.4461864345222 -143.28119021367 7.06239459104487
    vertex 16.4461864345222 -153.28119021367 7.06239459104487
  endloop
endfacet
facet normal 0.247833249982632 -3.53852183425267e-030 0.968802704477566
  outer loop
    vertex 16.4461864345222 -143.28119021367 7.06239459104487
    vertex 16.964565042676 -153.28119021367 7.00012896412253
    vertex 16.964565042676 -143.28119021367 7.00012896412253
  endloop
endfacet
facet normal -0.269771461851364 -2.83302748625422e-030 0.962924378323956
  outer loop
    vertex 17.4813958581902 -153.28119021367 7.07415124335209
    vertex 16.964565042676 -143.28119021367 7.00012896412253
    vertex 16.964565042676 -153.28119021367 7.00012896412253
  endloop
endfacet
facet normal -0.0113560540942435 -3.29815662191442e-030 0.999935517938736
  outer loop
    vertex 16.964565042676 -143.28119021367 7.00012896412253
    vertex 17.4813958581902 -153.28119021367 7.07415124335209
    vertex 17.4813958581902 -143.28119021367 7.07415124335209
  endloop
endfacet
facet normal -0.509802390301734 -2.17483220920508e-030 0.860291533634174
  outer loop
    vertex 17.961457715091 -153.28119021367 7.27941693273165
    vertex 17.4813958581902 -143.28119021367 7.07415124335209
    vertex 17.4813958581902 -153.28119021367 7.07415124335209
  endloop
endfacet
facet normal -0.269771461851364 -2.83302748625422e-030 0.962924378323956
  outer loop
    vertex 17.4813958581902 -143.28119021367 7.07415124335209
    vertex 17.961457715091 -153.28119021367 7.27941693273165
    vertex 17.961457715091 -143.28119021367 7.27941693273165
  endloop
endfacet
facet normal -0.715091128341324 -1.36842571117878e-030 0.699031242626202
  outer loop
    vertex 18.3720351911702 -153.28119021367 7.6019375147476
    vertex 17.961457715091 -143.28119021367 7.27941693273165
    vertex 17.961457715091 -153.28119021367 7.27941693273165
  endloop
endfacet
facet normal -0.509802390301734 -2.17483220920508e-030 0.860291533634174
  outer loop
    vertex 17.961457715091 -143.28119021367 7.27941693273165
    vertex 18.3720351911702 -153.28119021367 7.6019375147476
    vertex 18.3720351911702 -143.28119021367 7.6019375147476
  endloop
endfacet
facet normal -0.871647587728418 -4.68763262366051e-031 0.490133127637002
  outer loop
    vertex 18.6851481099444 -143.28119021367 8.019733744726
    vertex 18.3720351911702 -153.28119021367 7.6019375147476
    vertex 18.6851481099444 -153.28119021367 8.019733744726
  endloop
endfacet
facet normal -0.715091128341324 -1.36842571117878e-030 0.699031242626202
  outer loop
    vertex 18.3720351911702 -153.28119021367 7.6019375147476
    vertex 18.6851481099444 -143.28119021367 8.019733744726
    vertex 18.3720351911702 -143.28119021367 7.6019375147476
  endloop
endfacet
facet normal -0.968802704477566 4.62844628108998e-031 0.247833249982634
  outer loop
    vertex 18.8794583434426 -143.28119021367 8.50433350003473
    vertex 18.6851481099444 -153.28119021367 8.019733744726
    vertex 18.8794583434426 -153.28119021367 8.50433350003473
  endloop
endfacet
facet normal -0.871647587728418 -4.68763262366051e-031 0.490133127637002
  outer loop
    vertex 18.6851481099444 -153.28119021367 8.019733744726
    vertex 18.8794583434426 -143.28119021367 8.50433350003473
    vertex 18.6851481099444 -143.28119021367 8.019733744726
  endloop
endfacet
facet normal -0.999935517938736 1.36291042206533e-030 -0.0113560540942416
  outer loop
    vertex 18.941723970365 -143.28119021367 9.02271210818849
    vertex 18.8794583434426 -153.28119021367 8.50433350003473
    vertex 18.941723970365 -153.28119021367 9.02271210818849
  endloop
endfacet
facet normal -0.968802704477566 4.62844628108998e-031 0.247833249982634
  outer loop
    vertex 18.8794583434426 -153.28119021367 8.50433350003473
    vertex 18.941723970365 -143.28119021367 9.02271210818849
    vertex 18.8794583434426 -143.28119021367 8.50433350003473
  endloop
endfacet
facet normal -0.962924378323957 2.17009612307389e-030 -0.269771461851364
  outer loop
    vertex 18.8677016911354 -143.28119021367 9.53954292370273
    vertex 18.941723970365 -153.28119021367 9.02271210818849
    vertex 18.8677016911354 -153.28119021367 9.53954292370273
  endloop
endfacet
facet normal -0.999935517938736 1.36291042206533e-030 -0.0113560540942416
  outer loop
    vertex 18.941723970365 -153.28119021367 9.02271210818849
    vertex 18.8677016911354 -143.28119021367 9.53954292370273
    vertex 18.941723970365 -143.28119021367 9.02271210818849
  endloop
endfacet
facet normal -0.860291533634174 2.82939335954837e-030 -0.509802390301733
  outer loop
    vertex 18.6624360017559 -143.28119021367 10.0196047806035
    vertex 18.8677016911354 -153.28119021367 9.53954292370273
    vertex 18.6624360017559 -153.28119021367 10.0196047806035
  endloop
endfacet
facet normal -0.962924378323957 2.17009612307389e-030 -0.269771461851364
  outer loop
    vertex 18.8677016911354 -153.28119021367 9.53954292370273
    vertex 18.6624360017559 -143.28119021367 10.0196047806035
    vertex 18.8677016911354 -143.28119021367 9.53954292370273
  endloop
endfacet
facet normal -0.699031242626203 3.29587211436322e-030 -0.715091128341324
  outer loop
    vertex 18.3399154197399 -143.28119021367 10.4301822566826
    vertex 18.6624360017559 -153.28119021367 10.0196047806035
    vertex 18.3399154197399 -153.28119021367 10.4301822566826
  endloop
endfacet
facet normal -0.860291533634174 2.82939335954837e-030 -0.509802390301733
  outer loop
    vertex 18.6624360017559 -153.28119021367 10.0196047806035
    vertex 18.3399154197399 -143.28119021367 10.4301822566826
    vertex 18.6624360017559 -143.28119021367 10.0196047806035
  endloop
endfacet
facet normal -0.699031242626203 3.29587211436322e-030 -0.715091128341324
  outer loop
    vertex 18.3399154197399 -143.28119021367 10.4301822566826
    vertex 17.9221191897615 -153.28119021367 10.7432951754568
    vertex 17.9221191897615 -143.28119021367 10.7432951754568
  endloop
endfacet
facet normal -0.490133127637002 3.53774263127043e-030 -0.871647587728418
  outer loop
    vertex 17.9221191897615 -153.28119021367 10.7432951754568
    vertex 18.3399154197399 -143.28119021367 10.4301822566826
    vertex 18.3399154197399 -153.28119021367 10.4301822566826
  endloop
endfacet
facet normal -0.490133127637002 3.53774263127043e-030 -0.871647587728418
  outer loop
    vertex 17.9221191897615 -143.28119021367 10.7432951754568
    vertex 17.4375194344528 -153.28119021367 10.9376054089551
    vertex 17.4375194344528 -143.28119021367 10.9376054089551
  endloop
endfacet
facet normal -0.247833249982632 3.53852183425267e-030 -0.968802704477566
  outer loop
    vertex 17.4375194344528 -153.28119021367 10.9376054089551
    vertex 17.9221191897615 -143.28119021367 10.7432951754568
    vertex 17.9221191897615 -153.28119021367 10.7432951754568
  endloop
endfacet
facet normal -0.247833249982632 3.53852183425267e-030 -0.968802704477566
  outer loop
    vertex 17.4375194344528 -143.28119021367 10.9376054089551
    vertex 16.919140826299 -153.28119021367 10.9998710358775
    vertex 16.919140826299 -143.28119021367 10.9998710358775
  endloop
endfacet
facet normal 0.0113560540942435 3.29815662191442e-030 -0.999935517938736
  outer loop
    vertex 16.919140826299 -153.28119021367 10.9998710358775
    vertex 17.4375194344528 -143.28119021367 10.9376054089551
    vertex 17.4375194344528 -153.28119021367 10.9376054089551
  endloop
endfacet
facet normal 0.0113560540942435 3.29815662191442e-030 -0.999935517938736
  outer loop
    vertex 16.919140826299 -143.28119021367 10.9998710358775
    vertex 16.4023100107848 -153.28119021367 10.9258487566479
    vertex 16.4023100107848 -143.28119021367 10.9258487566479
  endloop
endfacet
facet normal 0.269771461851364 2.83302748625422e-030 -0.962924378323956
  outer loop
    vertex 16.4023100107848 -153.28119021367 10.9258487566479
    vertex 16.919140826299 -143.28119021367 10.9998710358775
    vertex 16.919140826299 -153.28119021367 10.9998710358775
  endloop
endfacet
facet normal 0.269771461851364 2.83302748625422e-030 -0.962924378323956
  outer loop
    vertex 16.4023100107848 -143.28119021367 10.9258487566479
    vertex 15.922248153884 -153.28119021367 10.7205830672683
    vertex 15.922248153884 -143.28119021367 10.7205830672683
  endloop
endfacet
facet normal 0.509802390301734 2.17483220920508e-030 -0.860291533634174
  outer loop
    vertex 15.922248153884 -153.28119021367 10.7205830672683
    vertex 16.4023100107848 -143.28119021367 10.9258487566479
    vertex 16.4023100107848 -153.28119021367 10.9258487566479
  endloop
endfacet
facet normal 0.509802390301734 2.17483220920508e-030 -0.860291533634174
  outer loop
    vertex 15.922248153884 -143.28119021367 10.7205830672683
    vertex 15.5116706778049 -153.28119021367 10.3980624852524
    vertex 15.5116706778049 -143.28119021367 10.3980624852524
  endloop
endfacet
facet normal 0.715091128341323 1.36842571117879e-030 -0.699031242626204
  outer loop
    vertex 15.5116706778049 -153.28119021367 10.3980624852524
    vertex 15.922248153884 -143.28119021367 10.7205830672683
    vertex 15.922248153884 -153.28119021367 10.7205830672683
  endloop
endfacet
facet normal 0.871647587728418 4.68763262366048e-031 -0.490133127637002
  outer loop
    vertex 15.1985577590307 -143.28119021367 9.98026625527401
    vertex 15.5116706778049 -153.28119021367 10.3980624852524
    vertex 15.1985577590307 -153.28119021367 9.98026625527401
  endloop
endfacet
facet normal 0.715091128341323 1.36842571117879e-030 -0.699031242626204
  outer loop
    vertex 15.5116706778049 -153.28119021367 10.3980624852524
    vertex 15.1985577590307 -143.28119021367 9.98026625527401
    vertex 15.5116706778049 -143.28119021367 10.3980624852524
  endloop
endfacet
facet normal 0.968802704477566 -4.62844628109009e-031 -0.247833249982631
  outer loop
    vertex 15.0042475255324 -143.28119021367 9.49566649996526
    vertex 15.1985577590307 -153.28119021367 9.98026625527401
    vertex 15.0042475255324 -153.28119021367 9.49566649996526
  endloop
endfacet
facet normal 0.871647587728418 4.68763262366048e-031 -0.490133127637002
  outer loop
    vertex 15.1985577590307 -153.28119021367 9.98026625527401
    vertex 15.0042475255324 -143.28119021367 9.49566649996526
    vertex 15.1985577590307 -143.28119021367 9.98026625527401
  endloop
endfacet
facet normal 0.999935517938736 -1.36291042206534e-030 0.0113560540942418
  outer loop
    vertex 14.94198189861 -143.28119021367 8.97728789181151
    vertex 15.0042475255324 -153.28119021367 9.49566649996526
    vertex 14.94198189861 -153.28119021367 8.97728789181151
  endloop
endfacet
facet normal 0.968802704477566 -4.62844628109009e-031 -0.247833249982631
  outer loop
    vertex 15.0042475255324 -153.28119021367 9.49566649996526
    vertex 14.94198189861 -143.28119021367 8.97728789181151
    vertex 15.0042475255324 -143.28119021367 9.49566649996526
  endloop
endfacet
facet normal 0.962924378323957 -2.17009612307389e-030 0.269771461851364
  outer loop
    vertex 15.0160041778396 -143.28119021367 8.46045707629727
    vertex 14.94198189861 -153.28119021367 8.97728789181151
    vertex 15.0160041778396 -153.28119021367 8.46045707629727
  endloop
endfacet
facet normal 0.999935517938736 -1.36291042206534e-030 0.0113560540942418
  outer loop
    vertex 14.94198189861 -153.28119021367 8.97728789181151
    vertex 15.0160041778396 -143.28119021367 8.46045707629727
    vertex 14.94198189861 -143.28119021367 8.97728789181151
  endloop
endfacet
endsolid xyz-y-carriage-left
