solid xyz-y-carriage-left
facet normal 0.866025403784439 0.499999999999999 0.0
  outer loop
    vertex -13.5356594206122 -214.123394780837 0.0
    vertex -13.3858087868552 -214.485166213183 20.0
    vertex -13.3858087868552 -214.485166213183 0.0
  endloop
endfacet
facet normal 0.965925826289067 0.258819045102525 0.0
  outer loop
    vertex -13.3858087868552 -214.485166213183 20.0
    vertex -13.5356594206122 -214.123394780837 0.0
    vertex -13.5356594206122 -214.123394780837 20.0
  endloop
endfacet
facet normal -0.707106781186544 0.707106781186551 0.0
  outer loop
    vertex -15.8953576980687 -213.812734609057 20.0
    vertex -16.1337356319655 -214.123394780837 0.0
    vertex -16.1337356319655 -214.123394780837 20.0
  endloop
endfacet
facet normal -0.866025403784439 0.499999999999999 0.0
  outer loop
    vertex -16.1337356319655 -214.123394780837 0.0
    vertex -15.8953576980687 -213.812734609057 20.0
    vertex -15.8953576980687 -213.812734609057 0.0
  endloop
endfacet
facet normal -1.0 0.0 0.0
  outer loop
    vertex -16.3346975262889 -214.873394780837 20.0
    vertex -16.2835862657225 -215.261623348491 0.0
    vertex -16.2835862657225 -215.261623348491 20.0
  endloop
endfacet
facet normal -0.965925826289067 -0.258819045102525 0.0
  outer loop
    vertex -16.2835862657225 -215.261623348491 0.0
    vertex -16.3346975262889 -214.873394780837 20.0
    vertex -16.3346975262889 -214.873394780837 0.0
  endloop
endfacet
facet normal 0.499999999999971 -0.866025403784455 0.0
  outer loop
    vertex -14.0846975262889 -216.172432886514 20.0
    vertex -14.4464689586351 -216.32228352027 0.0
    vertex -14.0846975262889 -216.172432886514 0.0
  endloop
endfacet
facet normal 0.258819045102525 -0.965925826289067 0.0
  outer loop
    vertex -14.4464689586351 -216.32228352027 0.0
    vertex -14.0846975262889 -216.172432886514 20.0
    vertex -14.4464689586351 -216.32228352027 20.0
  endloop
endfacet
facet normal 1.0 0.0 0.0
  outer loop
    vertex -13.3346975262888 -214.873394780837 0.0
    vertex -13.3858087868552 -215.261623348491 20.0
    vertex -13.3858087868552 -215.261623348491 0.0
  endloop
endfacet
facet normal 0.965925826289067 -0.258819045102525 0.0
  outer loop
    vertex -13.3858087868552 -215.261623348491 20.0
    vertex -13.3346975262888 -214.873394780837 0.0
    vertex -13.3346975262888 -214.873394780837 20.0
  endloop
endfacet
facet normal 0.965925826289067 0.258819045102525 0.0
  outer loop
    vertex -13.3858087868552 -214.485166213183 0.0
    vertex -13.3346975262888 -214.873394780837 20.0
    vertex -13.3346975262888 -214.873394780837 0.0
  endloop
endfacet
facet normal 1.0 0.0 0.0
  outer loop
    vertex -13.3346975262888 -214.873394780837 20.0
    vertex -13.3858087868552 -214.485166213183 0.0
    vertex -13.3858087868552 -214.485166213183 20.0
  endloop
endfacet
facet normal -0.866025403784439 0.499999999999999 0.0
  outer loop
    vertex -16.1337356319655 -214.123394780837 20.0
    vertex -16.2835862657225 -214.485166213183 0.0
    vertex -16.2835862657225 -214.485166213183 20.0
  endloop
endfacet
facet normal -0.965925826289067 0.258819045102525 0.0
  outer loop
    vertex -16.2835862657225 -214.485166213183 0.0
    vertex -16.1337356319655 -214.123394780837 20.0
    vertex -16.1337356319655 -214.123394780837 0.0
  endloop
endfacet
facet normal 0.866025403784439 -0.499999999999999 0.0
  outer loop
    vertex -13.5356594206122 -215.623394780837 0.0
    vertex -13.774037354509 -215.934054952617 20.0
    vertex -13.774037354509 -215.934054952617 0.0
  endloop
endfacet
facet normal 0.707106781186544 -0.707106781186551 0.0
  outer loop
    vertex -13.774037354509 -215.934054952617 20.0
    vertex -13.5356594206122 -215.623394780837 0.0
    vertex -13.5356594206122 -215.623394780837 20.0
  endloop
endfacet
facet normal 0.707106781186544 -0.707106781186551 0.0
  outer loop
    vertex -13.774037354509 -215.934054952617 20.0
    vertex -14.0846975262889 -216.172432886514 0.0
    vertex -13.774037354509 -215.934054952617 0.0
  endloop
endfacet
facet normal 0.499999999999971 -0.866025403784455 0.0
  outer loop
    vertex -14.0846975262889 -216.172432886514 0.0
    vertex -13.774037354509 -215.934054952617 20.0
    vertex -14.0846975262889 -216.172432886514 20.0
  endloop
endfacet
facet normal -0.707106781186544 0.707106781186551 0.0
  outer loop
    vertex -15.8953576980687 -213.812734609057 20.0
    vertex -15.5846975262889 -213.57435667516 0.0
    vertex -15.8953576980687 -213.812734609057 0.0
  endloop
endfacet
facet normal -0.499999999999971 0.866025403784455 0.0
  outer loop
    vertex -15.5846975262889 -213.57435667516 0.0
    vertex -15.8953576980687 -213.812734609057 20.0
    vertex -15.5846975262889 -213.57435667516 20.0
  endloop
endfacet
facet normal -0.499999999999971 0.866025403784455 0.0
  outer loop
    vertex -15.5846975262889 -213.57435667516 20.0
    vertex -15.2229260939426 -213.424506041403 0.0
    vertex -15.5846975262889 -213.57435667516 0.0
  endloop
endfacet
facet normal -0.258819045102525 0.965925826289067 0.0
  outer loop
    vertex -15.2229260939426 -213.424506041403 0.0
    vertex -15.5846975262889 -213.57435667516 20.0
    vertex -15.2229260939426 -213.424506041403 20.0
  endloop
endfacet
facet normal 0.0 1.0 0.0
  outer loop
    vertex -14.8346975262889 -213.373394780837 20.0
    vertex -14.4464689586351 -213.424506041403 0.0
    vertex -14.8346975262889 -213.373394780837 0.0
  endloop
endfacet
facet normal 0.258819045102525 0.965925826289067 0.0
  outer loop
    vertex -14.4464689586351 -213.424506041403 0.0
    vertex -14.8346975262889 -213.373394780837 20.0
    vertex -14.4464689586351 -213.424506041403 20.0
  endloop
endfacet
facet normal -0.258819045102525 0.965925826289067 0.0
  outer loop
    vertex -15.2229260939426 -213.424506041403 20.0
    vertex -14.8346975262889 -213.373394780837 0.0
    vertex -15.2229260939426 -213.424506041403 0.0
  endloop
endfacet
facet normal 0.0 1.0 0.0
  outer loop
    vertex -14.8346975262889 -213.373394780837 0.0
    vertex -15.2229260939426 -213.424506041403 20.0
    vertex -14.8346975262889 -213.373394780837 20.0
  endloop
endfacet
facet normal 0.258819045102525 0.965925826289067 0.0
  outer loop
    vertex -14.4464689586351 -213.424506041403 20.0
    vertex -14.0846975262889 -213.57435667516 0.0
    vertex -14.4464689586351 -213.424506041403 0.0
  endloop
endfacet
facet normal 0.499999999999971 0.866025403784455 0.0
  outer loop
    vertex -14.0846975262889 -213.57435667516 0.0
    vertex -14.4464689586351 -213.424506041403 20.0
    vertex -14.0846975262889 -213.57435667516 20.0
  endloop
endfacet
facet normal -0.965925826289067 0.258819045102525 0.0
  outer loop
    vertex -16.2835862657225 -214.485166213183 20.0
    vertex -16.3346975262889 -214.873394780837 0.0
    vertex -16.3346975262889 -214.873394780837 20.0
  endloop
endfacet
facet normal -1.0 0.0 0.0
  outer loop
    vertex -16.3346975262889 -214.873394780837 0.0
    vertex -16.2835862657225 -214.485166213183 20.0
    vertex -16.2835862657225 -214.485166213183 0.0
  endloop
endfacet
facet normal 0.707106781186544 0.707106781186551 0.0
  outer loop
    vertex -13.774037354509 -213.812734609057 0.0
    vertex -13.5356594206122 -214.123394780837 20.0
    vertex -13.5356594206122 -214.123394780837 0.0
  endloop
endfacet
facet normal 0.866025403784439 0.499999999999999 0.0
  outer loop
    vertex -13.5356594206122 -214.123394780837 20.0
    vertex -13.774037354509 -213.812734609057 0.0
    vertex -13.774037354509 -213.812734609057 20.0
  endloop
endfacet
facet normal 0.499999999999971 0.866025403784455 0.0
  outer loop
    vertex -14.0846975262889 -213.57435667516 20.0
    vertex -13.774037354509 -213.812734609057 0.0
    vertex -14.0846975262889 -213.57435667516 0.0
  endloop
endfacet
facet normal 0.707106781186544 0.707106781186551 0.0
  outer loop
    vertex -13.774037354509 -213.812734609057 0.0
    vertex -14.0846975262889 -213.57435667516 20.0
    vertex -13.774037354509 -213.812734609057 20.0
  endloop
endfacet
facet normal 0.965925826289067 -0.258819045102525 0.0
  outer loop
    vertex -13.3858087868552 -215.261623348491 0.0
    vertex -13.5356594206122 -215.623394780837 20.0
    vertex -13.5356594206122 -215.623394780837 0.0
  endloop
endfacet
facet normal 0.866025403784439 -0.499999999999999 0.0
  outer loop
    vertex -13.5356594206122 -215.623394780837 20.0
    vertex -13.3858087868552 -215.261623348491 0.0
    vertex -13.3858087868552 -215.261623348491 20.0
  endloop
endfacet
facet normal 0.258819045102525 -0.965925826289067 0.0
  outer loop
    vertex -14.4464689586351 -216.32228352027 20.0
    vertex -14.8346975262889 -216.373394780837 0.0
    vertex -14.4464689586351 -216.32228352027 0.0
  endloop
endfacet
facet normal 0.0 -1.0 0.0
  outer loop
    vertex -14.8346975262889 -216.373394780837 0.0
    vertex -14.4464689586351 -216.32228352027 20.0
    vertex -14.8346975262889 -216.373394780837 20.0
  endloop
endfacet
facet normal 0.0 -1.0 0.0
  outer loop
    vertex -14.8346975262889 -216.373394780837 20.0
    vertex -15.2229260939426 -216.32228352027 0.0
    vertex -14.8346975262889 -216.373394780837 0.0
  endloop
endfacet
facet normal -0.258819045102525 -0.965925826289067 0.0
  outer loop
    vertex -15.2229260939426 -216.32228352027 0.0
    vertex -14.8346975262889 -216.373394780837 20.0
    vertex -15.2229260939426 -216.32228352027 20.0
  endloop
endfacet
facet normal 0.914021434379553 -0.405665893925955 0.0
  outer loop
    vertex -9.35056892001155 -217.307390144393 0.0
    vertex -10.1674004265744 -218.643850692659 8.0
    vertex -10.1674004265744 -218.643850692659 0.0
  endloop
endfacet
facet normal 0.777882849952416 -0.628409318637071 0.0
  outer loop
    vertex -10.1674004265744 -218.643850692659 8.0
    vertex -9.35056892001155 -217.307390144393 0.0
    vertex -9.35056892001155 -217.307390144393 8.0
  endloop
endfacet
facet normal 0.987870968545565 -0.155277008938371 0.0
  outer loop
    vertex -8.90747171501548 -215.805056834467 0.0
    vertex -9.35056892001155 -217.307390144393 8.0
    vertex -9.35056892001155 -217.307390144393 0.0
  endloop
endfacet
facet normal 0.914021434379553 -0.405665893925955 0.0
  outer loop
    vertex -9.35056892001155 -217.307390144393 8.0
    vertex -8.90747171501548 -215.805056834467 0.0
    vertex -8.90747171501548 -215.805056834467 8.0
  endloop
endfacet
facet normal -0.258819045102525 -0.965925826289067 0.0
  outer loop
    vertex -15.2229260939426 -216.32228352027 20.0
    vertex -15.5846975262889 -216.172432886514 0.0
    vertex -15.2229260939426 -216.32228352027 0.0
  endloop
endfacet
facet normal -0.499999999999971 -0.866025403784455 0.0
  outer loop
    vertex -15.5846975262889 -216.172432886514 0.0
    vertex -15.2229260939426 -216.32228352027 20.0
    vertex -15.5846975262889 -216.172432886514 20.0
  endloop
endfacet
facet normal 0.382683432365071 -0.923879532511295 0.0
  outer loop
    vertex -12.8325402861438 -218.34123284551 20.0
    vertex -13.7983046762101 -218.741265553932 8.0
    vertex -12.8325402861438 -218.34123284551 8.0
  endloop
endfacet
facet normal 0.258819045102523 -0.965925826289068 0.0
  outer loop
    vertex -13.7983046762101 -218.741265553932 8.0
    vertex -12.8325402861438 -218.34123284551 20.0
    vertex -13.7983046762101 -218.741265553932 20.0
  endloop
endfacet
facet normal 0.994398728739162 0.105693747600975 0.0
  outer loop
    vertex -8.86830515385389 -214.239232295231 0.0
    vertex -8.90747171501548 -215.805056834467 8.0
    vertex -8.90747171501548 -215.805056834467 0.0
  endloop
endfacet
facet normal 0.987870968545565 -0.155277008938371 0.0
  outer loop
    vertex -8.90747171501548 -215.805056834467 8.0
    vertex -8.86830515385389 -214.239232295231 0.0
    vertex -8.86830515385389 -214.239232295231 8.0
  endloop
endfacet
facet normal 0.707106781186552 -0.707106781186543 0.0
  outer loop
    vertex -12.0032196032723 -217.704872703853 20.0
    vertex -12.8325402861438 -218.34123284551 8.0
    vertex -12.0032196032723 -217.704872703853 8.0
  endloop
endfacet
facet normal 0.608761429008753 -0.79335334029121 0.0
  outer loop
    vertex -12.8325402861438 -218.34123284551 8.0
    vertex -12.0032196032723 -217.704872703853 20.0
    vertex -12.8325402861438 -218.34123284551 20.0
  endloop
endfacet
facet normal 0.933159858890783 0.359461649908489 0.0
  outer loop
    vertex -9.23573837294417 -212.716624881386 0.0
    vertex -8.86830515385389 -214.239232295231 8.0
    vertex -8.86830515385389 -214.239232295231 0.0
  endloop
endfacet
facet normal 0.994398728739162 0.105693747600975 0.0
  outer loop
    vertex -8.86830515385389 -214.239232295231 8.0
    vertex -9.23573837294417 -212.716624881386 0.0
    vertex -9.23573837294417 -212.716624881386 8.0
  endloop
endfacet
facet normal 0.808327686778577 0.588732834813207 0.0
  outer loop
    vertex -9.9847314056174 -211.340997771958 0.0
    vertex -9.23573837294417 -212.716624881386 8.0
    vertex -9.23573837294417 -212.716624881386 0.0
  endloop
endfacet
facet normal 0.933159858890783 0.359461649908489 0.0
  outer loop
    vertex -9.23573837294417 -212.716624881386 8.0
    vertex -9.9847314056174 -211.340997771958 0.0
    vertex -9.9847314056174 -211.340997771958 8.0
  endloop
endfacet
facet normal -0.965925826289067 -0.258819045102525 0.0
  outer loop
    vertex -16.2835862657225 -215.261623348491 20.0
    vertex -16.1337356319655 -215.623394780837 0.0
    vertex -16.1337356319655 -215.623394780837 20.0
  endloop
endfacet
facet normal -0.866025403784439 -0.499999999999999 0.0
  outer loop
    vertex -16.1337356319655 -215.623394780837 0.0
    vertex -16.2835862657225 -215.261623348491 20.0
    vertex -16.2835862657225 -215.261623348491 0.0
  endloop
endfacet
facet normal -0.866025403784439 -0.499999999999999 0.0
  outer loop
    vertex -16.1337356319655 -215.623394780837 20.0
    vertex -15.8953576980687 -215.934054952617 0.0
    vertex -15.8953576980687 -215.934054952617 20.0
  endloop
endfacet
facet normal -0.707106781186544 -0.707106781186551 0.0
  outer loop
    vertex -15.8953576980687 -215.934054952617 0.0
    vertex -16.1337356319655 -215.623394780837 20.0
    vertex -16.1337356319655 -215.623394780837 0.0
  endloop
endfacet
facet normal 0.628409318637069 0.777882849952417 0.0
  outer loop
    vertex -11.0642416144664 -210.206097681122 0.0
    vertex -9.9847314056174 -211.340997771958 8.0
    vertex -9.9847314056174 -211.340997771958 0.0
  endloop
endfacet
facet normal 0.808327686778577 0.588732834813207 0.0
  outer loop
    vertex -9.9847314056174 -211.340997771958 8.0
    vertex -11.0642416144664 -210.206097681122 0.0
    vertex -11.0642416144664 -210.206097681122 8.0
  endloop
endfacet
facet normal -0.499999999999971 -0.866025403784455 0.0
  outer loop
    vertex -15.5846975262889 -216.172432886514 20.0
    vertex -15.8953576980687 -215.934054952617 0.0
    vertex -15.5846975262889 -216.172432886514 0.0
  endloop
endfacet
facet normal -0.707106781186544 -0.707106781186551 0.0
  outer loop
    vertex -15.8953576980687 -215.934054952617 0.0
    vertex -15.5846975262889 -216.172432886514 20.0
    vertex -15.8953576980687 -215.934054952617 20.0
  endloop
endfacet
facet normal 0.405665893925957 0.914021434379552 0.0
  outer loop
    vertex -12.4007021627331 -209.38926617456 8.0
    vertex -11.0642416144664 -210.206097681122 0.0
    vertex -12.4007021627331 -209.38926617456 0.0
  endloop
endfacet
facet normal 0.628409318637069 0.777882849952417 0.0
  outer loop
    vertex -11.0642416144664 -210.206097681122 0.0
    vertex -12.4007021627331 -209.38926617456 8.0
    vertex -11.0642416144664 -210.206097681122 8.0
  endloop
endfacet
facet normal 0.155277008938376 0.987870968545564 0.0
  outer loop
    vertex -13.9030354726586 -208.946168969563 8.0
    vertex -12.4007021627331 -209.38926617456 0.0
    vertex -13.9030354726586 -208.946168969563 0.0
  endloop
endfacet
facet normal 0.405665893925957 0.914021434379552 0.0
  outer loop
    vertex -12.4007021627331 -209.38926617456 0.0
    vertex -13.9030354726586 -208.946168969563 8.0
    vertex -12.4007021627331 -209.38926617456 8.0
  endloop
endfacet
facet normal -0.105693747600976 0.994398728739162 0.0
  outer loop
    vertex -15.4688600118947 -208.907002408402 8.0
    vertex -13.9030354726586 -208.946168969563 0.0
    vertex -15.4688600118947 -208.907002408402 0.0
  endloop
endfacet
facet normal 0.155277008938376 0.987870968545564 0.0
  outer loop
    vertex -13.9030354726586 -208.946168969563 0.0
    vertex -15.4688600118947 -208.907002408402 8.0
    vertex -13.9030354726586 -208.946168969563 8.0
  endloop
endfacet
facet normal -0.359461649908488 0.933159858890784 0.0
  outer loop
    vertex -16.9914674257398 -209.274435627492 8.0
    vertex -15.4688600118947 -208.907002408402 0.0
    vertex -16.9914674257398 -209.274435627492 0.0
  endloop
endfacet
facet normal -0.105693747600976 0.994398728739162 0.0
  outer loop
    vertex -15.4688600118947 -208.907002408402 0.0
    vertex -16.9914674257398 -209.274435627492 8.0
    vertex -15.4688600118947 -208.907002408402 8.0
  endloop
endfacet
facet normal -0.588732834813207 0.808327686778577 0.0
  outer loop
    vertex -18.3670945351681 -210.023428660165 8.0
    vertex -16.9914674257398 -209.274435627492 0.0
    vertex -18.3670945351681 -210.023428660165 0.0
  endloop
endfacet
facet normal -0.359461649908488 0.933159858890784 0.0
  outer loop
    vertex -16.9914674257398 -209.274435627492 0.0
    vertex -18.3670945351681 -210.023428660165 8.0
    vertex -16.9914674257398 -209.274435627492 8.0
  endloop
endfacet
facet normal -0.777882849952416 0.628409318637071 0.0
  outer loop
    vertex -19.5019946260033 -211.102938869014 8.0
    vertex -18.3670945351681 -210.023428660165 0.0
    vertex -19.5019946260033 -211.102938869014 0.0
  endloop
endfacet
facet normal -0.588732834813207 0.808327686778577 0.0
  outer loop
    vertex -18.3670945351681 -210.023428660165 0.0
    vertex -19.5019946260033 -211.102938869014 8.0
    vertex -18.3670945351681 -210.023428660165 8.0
  endloop
endfacet
facet normal -0.777882849952416 0.628409318637071 0.0
  outer loop
    vertex -19.5019946260033 -211.102938869014 8.0
    vertex -20.3188261325662 -212.439399417281 0.0
    vertex -20.3188261325662 -212.439399417281 8.0
  endloop
endfacet
facet normal -0.914021434379553 0.405665893925955 0.0
  outer loop
    vertex -20.3188261325662 -212.439399417281 0.0
    vertex -19.5019946260033 -211.102938869014 8.0
    vertex -19.5019946260033 -211.102938869014 0.0
  endloop
endfacet
facet normal -0.914021434379553 0.405665893925955 0.0
  outer loop
    vertex -20.3188261325662 -212.439399417281 8.0
    vertex -20.7619233375622 -213.941732727207 0.0
    vertex -20.7619233375622 -213.941732727207 8.0
  endloop
endfacet
facet normal -0.987870968545565 0.155277008938372 0.0
  outer loop
    vertex -20.7619233375622 -213.941732727207 0.0
    vertex -20.3188261325662 -212.439399417281 8.0
    vertex -20.3188261325662 -212.439399417281 0.0
  endloop
endfacet
facet normal -0.987870968545565 0.155277008938372 0.0
  outer loop
    vertex -20.7619233375622 -213.941732727207 8.0
    vertex -20.8010898987238 -215.507557266443 0.0
    vertex -20.8010898987238 -215.507557266443 8.0
  endloop
endfacet
facet normal -0.994398728739162 -0.105693747600975 0.0
  outer loop
    vertex -20.8010898987238 -215.507557266443 0.0
    vertex -20.7619233375622 -213.941732727207 8.0
    vertex -20.7619233375622 -213.941732727207 0.0
  endloop
endfacet
facet normal -0.808327686778579 -0.588732834813204 0.0
  outer loop
    vertex -19.6846636469603 -218.405791789716 8.0
    vertex -18.6051534381113 -219.540691880551 0.0
    vertex -18.6051534381113 -219.540691880551 8.0
  endloop
endfacet
facet normal -0.628409318637077 -0.777882849952411 0.0
  outer loop
    vertex -18.6051534381113 -219.540691880551 0.0
    vertex -19.6846636469603 -218.405791789716 8.0
    vertex -19.6846636469603 -218.405791789716 0.0
  endloop
endfacet
facet normal -0.405665893925958 -0.914021434379552 0.0
  outer loop
    vertex -17.2686928898446 -220.357523387114 8.0
    vertex -18.6051534381113 -219.540691880551 0.0
    vertex -17.2686928898446 -220.357523387114 0.0
  endloop
endfacet
facet normal -0.628409318637077 -0.777882849952411 0.0
  outer loop
    vertex -18.6051534381113 -219.540691880551 0.0
    vertex -17.2686928898446 -220.357523387114 8.0
    vertex -18.6051534381113 -219.540691880551 8.0
  endloop
endfacet
facet normal -0.155277008938376 -0.987870968545564 0.0
  outer loop
    vertex -15.7663595799191 -220.80062059211 8.0
    vertex -17.2686928898446 -220.357523387114 0.0
    vertex -15.7663595799191 -220.80062059211 0.0
  endloop
endfacet
facet normal -0.405665893925958 -0.914021434379552 0.0
  outer loop
    vertex -17.2686928898446 -220.357523387114 0.0
    vertex -15.7663595799191 -220.80062059211 8.0
    vertex -17.2686928898446 -220.357523387114 8.0
  endloop
endfacet
facet normal 0.105693747600976 -0.994398728739162 0.0
  outer loop
    vertex -14.200535040683 -220.839787153272 8.0
    vertex -15.7663595799191 -220.80062059211 0.0
    vertex -14.200535040683 -220.839787153272 0.0
  endloop
endfacet
facet normal -0.155277008938376 -0.987870968545564 0.0
  outer loop
    vertex -15.7663595799191 -220.80062059211 0.0
    vertex -14.200535040683 -220.839787153272 8.0
    vertex -15.7663595799191 -220.80062059211 8.0
  endloop
endfacet
facet normal 0.359461649908488 -0.933159858890784 0.0
  outer loop
    vertex -12.6779276268379 -220.472353934182 8.0
    vertex -14.200535040683 -220.839787153272 0.0
    vertex -12.6779276268379 -220.472353934182 0.0
  endloop
endfacet
facet normal 0.105693747600976 -0.994398728739162 0.0
  outer loop
    vertex -14.200535040683 -220.839787153272 0.0
    vertex -12.6779276268379 -220.472353934182 8.0
    vertex -14.200535040683 -220.839787153272 8.0
  endloop
endfacet
facet normal 0.588732834813206 -0.808327686778577 0.0
  outer loop
    vertex -11.3023005174096 -219.723360901508 8.0
    vertex -12.6779276268379 -220.472353934182 0.0
    vertex -11.3023005174096 -219.723360901508 0.0
  endloop
endfacet
facet normal 0.359461649908488 -0.933159858890784 0.0
  outer loop
    vertex -12.6779276268379 -220.472353934182 0.0
    vertex -11.3023005174096 -219.723360901508 8.0
    vertex -12.6779276268379 -220.472353934182 8.0
  endloop
endfacet
facet normal 0.777882849952416 -0.628409318637071 0.0
  outer loop
    vertex -10.1674004265744 -218.643850692659 8.0
    vertex -11.3023005174096 -219.723360901508 0.0
    vertex -10.1674004265744 -218.643850692659 0.0
  endloop
endfacet
facet normal 0.588732834813206 -0.808327686778577 0.0
  outer loop
    vertex -11.3023005174096 -219.723360901508 0.0
    vertex -10.1674004265744 -218.643850692659 8.0
    vertex -11.3023005174096 -219.723360901508 8.0
  endloop
endfacet
facet normal 0.0 0.0 1.0
  outer loop
    vertex -20.4336566796336 -217.030164680288 8.0
    vertex -20.7619233375622 -213.941732727207 8.0
    vertex -20.8010898987238 -215.507557266443 8.0
  endloop
endfacet
facet normal 0.0 0.0 1.0
  outer loop
    vertex -20.7619233375622 -213.941732727207 8.0
    vertex -20.4336566796336 -217.030164680288 8.0
    vertex -20.3188261325662 -212.439399417281 8.0
  endloop
endfacet
facet normal 0.0 0.0 1.0
  outer loop
    vertex -20.3188261325662 -212.439399417281 8.0
    vertex -20.4336566796336 -217.030164680288 8.0
    vertex -19.6846636469603 -218.405791789716 8.0
  endloop
endfacet
facet normal 0.0 0.0 1.0
  outer loop
    vertex -20.3188261325662 -212.439399417281 8.0
    vertex -19.6846636469603 -218.405791789716 8.0
    vertex -19.5019946260033 -211.102938869014 8.0
  endloop
endfacet
facet normal 0.0 0.0 1.0
  outer loop
    vertex -19.5019946260033 -211.102938869014 8.0
    vertex -19.6846636469603 -218.405791789716 8.0
    vertex -18.6051534381113 -219.540691880551 8.0
  endloop
endfacet
facet normal 0.0 0.0 1.0
  outer loop
    vertex -19.5019946260033 -211.102938869014 8.0
    vertex -18.6051534381113 -219.540691880551 8.0
    vertex -18.8390120065789 -214.873394780837 8.0
  endloop
endfacet
facet normal 0.0 0.0 1.0
  outer loop
    vertex -18.8390120065789 -214.873394780837 8.0
    vertex -18.6051534381113 -219.540691880551 8.0
    vertex -18.7025682993843 -215.909787630916 8.0
  endloop
endfacet
facet normal 0.0 0.0 1.0
  outer loop
    vertex -18.7025682993843 -215.909787630916 8.0
    vertex -18.6051534381113 -219.540691880551 8.0
    vertex -18.302535590962 -216.875552020982 8.0
  endloop
endfacet
facet normal 0.0 0.0 1.0
  outer loop
    vertex -18.302535590962 -216.875552020982 8.0
    vertex -18.6051534381113 -219.540691880551 8.0
    vertex -17.2686928898446 -220.357523387114 8.0
  endloop
endfacet
facet normal 0.0 0.0 1.0
  outer loop
    vertex -18.302535590962 -216.875552020982 8.0
    vertex -17.2686928898446 -220.357523387114 8.0
    vertex -17.6661754493054 -217.704872703853 8.0
  endloop
endfacet
facet normal 0.0 0.0 1.0
  outer loop
    vertex -17.6661754493054 -217.704872703853 8.0
    vertex -17.2686928898446 -220.357523387114 8.0
    vertex -16.836854766434 -218.34123284551 8.0
  endloop
endfacet
facet normal 0.0 0.0 1.0
  outer loop
    vertex -16.836854766434 -218.34123284551 8.0
    vertex -17.2686928898446 -220.357523387114 8.0
    vertex -15.7663595799191 -220.80062059211 8.0
  endloop
endfacet
facet normal 0.0 0.0 1.0
  outer loop
    vertex -16.836854766434 -218.34123284551 8.0
    vertex -15.7663595799191 -220.80062059211 8.0
    vertex -15.8710903763676 -218.741265553932 8.0
  endloop
endfacet
facet normal 0.0 0.0 1.0
  outer loop
    vertex -15.8710903763676 -218.741265553932 8.0
    vertex -15.7663595799191 -220.80062059211 8.0
    vertex -14.8346975262889 -218.877709261127 8.0
  endloop
endfacet
facet normal 0.0 0.0 1.0
  outer loop
    vertex -14.8346975262889 -218.877709261127 8.0
    vertex -15.7663595799191 -220.80062059211 8.0
    vertex -14.200535040683 -220.839787153272 8.0
  endloop
endfacet
facet normal 0.0 0.0 1.0
  outer loop
    vertex -14.8346975262889 -218.877709261127 8.0
    vertex -14.200535040683 -220.839787153272 8.0
    vertex -13.7983046762101 -218.741265553932 8.0
  endloop
endfacet
facet normal 0.0 0.0 1.0
  outer loop
    vertex -13.7983046762101 -218.741265553932 8.0
    vertex -14.200535040683 -220.839787153272 8.0
    vertex -12.6779276268379 -220.472353934182 8.0
  endloop
endfacet
facet normal 0.0 0.0 1.0
  outer loop
    vertex -13.7983046762101 -218.741265553932 8.0
    vertex -12.6779276268379 -220.472353934182 8.0
    vertex -12.8325402861438 -218.34123284551 8.0
  endloop
endfacet
facet normal 0.0 0.0 1.0
  outer loop
    vertex -12.8325402861438 -218.34123284551 8.0
    vertex -12.6779276268379 -220.472353934182 8.0
    vertex -12.0032196032723 -217.704872703853 8.0
  endloop
endfacet
facet normal 0.0 0.0 1.0
  outer loop
    vertex -12.0032196032723 -217.704872703853 8.0
    vertex -12.6779276268379 -220.472353934182 8.0
    vertex -11.3023005174096 -219.723360901508 8.0
  endloop
endfacet
facet normal 0.0 0.0 1.0
  outer loop
    vertex -12.0032196032723 -217.704872703853 8.0
    vertex -11.3023005174096 -219.723360901508 8.0
    vertex -11.3668594616157 -216.875552020982 8.0
  endloop
endfacet
facet normal 0.0 0.0 1.0
  outer loop
    vertex -11.3668594616157 -216.875552020982 8.0
    vertex -11.3023005174096 -219.723360901508 8.0
    vertex -10.9668267531934 -215.909787630916 8.0
  endloop
endfacet
facet normal 0.0 0.0 1.0
  outer loop
    vertex -10.9668267531934 -215.909787630916 8.0
    vertex -11.3023005174096 -219.723360901508 8.0
    vertex -10.1674004265744 -218.643850692659 8.0
  endloop
endfacet
facet normal 0.0 0.0 1.0
  outer loop
    vertex -10.9668267531934 -215.909787630916 8.0
    vertex -10.1674004265744 -218.643850692659 8.0
    vertex -10.8303830459988 -214.873394780837 8.0
  endloop
endfacet
facet normal 0.0 0.0 1.0
  outer loop
    vertex -18.8390120065789 -214.873394780837 8.0
    vertex -18.3670945351681 -210.023428660165 8.0
    vertex -19.5019946260033 -211.102938869014 8.0
  endloop
endfacet
facet normal 0.0 0.0 1.0
  outer loop
    vertex -18.3670945351681 -210.023428660165 8.0
    vertex -18.8390120065789 -214.873394780837 8.0
    vertex -18.7025682993843 -213.837001930758 8.0
  endloop
endfacet
facet normal 0.0 0.0 1.0
  outer loop
    vertex -18.3670945351681 -210.023428660165 8.0
    vertex -18.7025682993843 -213.837001930758 8.0
    vertex -18.302535590962 -212.871237540692 8.0
  endloop
endfacet
facet normal 0.0 0.0 1.0
  outer loop
    vertex -18.3670945351681 -210.023428660165 8.0
    vertex -18.302535590962 -212.871237540692 8.0
    vertex -16.9914674257398 -209.274435627492 8.0
  endloop
endfacet
facet normal 0.0 0.0 1.0
  outer loop
    vertex -16.9914674257398 -209.274435627492 8.0
    vertex -18.302535590962 -212.871237540692 8.0
    vertex -17.6661754493054 -212.04191685782 8.0
  endloop
endfacet
facet normal 0.0 0.0 1.0
  outer loop
    vertex -16.9914674257398 -209.274435627492 8.0
    vertex -17.6661754493054 -212.04191685782 8.0
    vertex -16.836854766434 -211.405556716164 8.0
  endloop
endfacet
facet normal 0.0 0.0 1.0
  outer loop
    vertex -16.9914674257398 -209.274435627492 8.0
    vertex -16.836854766434 -211.405556716164 8.0
    vertex -15.4688600118947 -208.907002408402 8.0
  endloop
endfacet
facet normal 0.0 0.0 1.0
  outer loop
    vertex -15.4688600118947 -208.907002408402 8.0
    vertex -16.836854766434 -211.405556716164 8.0
    vertex -15.8710903763676 -211.005524007741 8.0
  endloop
endfacet
facet normal 0.0 0.0 1.0
  outer loop
    vertex -15.4688600118947 -208.907002408402 8.0
    vertex -15.8710903763676 -211.005524007741 8.0
    vertex -14.8346975262889 -210.869080300547 8.0
  endloop
endfacet
facet normal 0.0 0.0 1.0
  outer loop
    vertex -15.4688600118947 -208.907002408402 8.0
    vertex -14.8346975262889 -210.869080300547 8.0
    vertex -13.9030354726586 -208.946168969563 8.0
  endloop
endfacet
facet normal 0.0 0.0 1.0
  outer loop
    vertex -13.9030354726586 -208.946168969563 8.0
    vertex -14.8346975262889 -210.869080300547 8.0
    vertex -13.7983046762101 -211.005524007741 8.0
  endloop
endfacet
facet normal 0.0 0.0 1.0
  outer loop
    vertex -13.9030354726586 -208.946168969563 8.0
    vertex -13.7983046762101 -211.005524007741 8.0
    vertex -12.4007021627331 -209.38926617456 8.0
  endloop
endfacet
facet normal 0.0 0.0 1.0
  outer loop
    vertex -12.4007021627331 -209.38926617456 8.0
    vertex -13.7983046762101 -211.005524007741 8.0
    vertex -12.8325402861438 -211.405556716164 8.0
  endloop
endfacet
facet normal 0.0 0.0 1.0
  outer loop
    vertex -12.4007021627331 -209.38926617456 8.0
    vertex -12.8325402861438 -211.405556716164 8.0
    vertex -12.0032196032723 -212.04191685782 8.0
  endloop
endfacet
facet normal 0.0 0.0 1.0
  outer loop
    vertex -12.4007021627331 -209.38926617456 8.0
    vertex -12.0032196032723 -212.04191685782 8.0
    vertex -11.0642416144664 -210.206097681122 8.0
  endloop
endfacet
facet normal 0.0 0.0 1.0
  outer loop
    vertex -11.0642416144664 -210.206097681122 8.0
    vertex -12.0032196032723 -212.04191685782 8.0
    vertex -11.3668594616157 -212.871237540692 8.0
  endloop
endfacet
facet normal 0.0 0.0 1.0
  outer loop
    vertex -11.0642416144664 -210.206097681122 8.0
    vertex -11.3668594616157 -212.871237540692 8.0
    vertex -10.9668267531934 -213.837001930758 8.0
  endloop
endfacet
facet normal 0.0 0.0 1.0
  outer loop
    vertex -11.0642416144664 -210.206097681122 8.0
    vertex -10.9668267531934 -213.837001930758 8.0
    vertex -9.9847314056174 -211.340997771958 8.0
  endloop
endfacet
facet normal 0.0 0.0 1.0
  outer loop
    vertex -9.9847314056174 -211.340997771958 8.0
    vertex -10.9668267531934 -213.837001930758 8.0
    vertex -10.8303830459988 -214.873394780837 8.0
  endloop
endfacet
facet normal 0.0 0.0 1.0
  outer loop
    vertex -9.9847314056174 -211.340997771958 8.0
    vertex -10.8303830459988 -214.873394780837 8.0
    vertex -10.1674004265744 -218.643850692659 8.0
  endloop
endfacet
facet normal 0.0 0.0 1.0
  outer loop
    vertex -9.9847314056174 -211.340997771958 8.0
    vertex -10.1674004265744 -218.643850692659 8.0
    vertex -9.35056892001155 -217.307390144393 8.0
  endloop
endfacet
facet normal 0.0 0.0 1.0
  outer loop
    vertex -9.9847314056174 -211.340997771958 8.0
    vertex -9.35056892001155 -217.307390144393 8.0
    vertex -9.23573837294417 -212.716624881386 8.0
  endloop
endfacet
facet normal 0.0 0.0 1.0
  outer loop
    vertex -9.23573837294417 -212.716624881386 8.0
    vertex -9.35056892001155 -217.307390144393 8.0
    vertex -8.90747171501548 -215.805056834467 8.0
  endloop
endfacet
facet normal 0.0 0.0 1.0
  outer loop
    vertex -9.23573837294417 -212.716624881386 8.0
    vertex -8.90747171501548 -215.805056834467 8.0
    vertex -8.86830515385389 -214.239232295231 8.0
  endloop
endfacet
facet normal 0.0 0.0 -1.0
  outer loop
    vertex -16.9914674257398 -209.274435627492 0.0
    vertex -16.2835862657225 -214.485166213183 0.0
    vertex -16.3346975262889 -214.873394780837 0.0
  endloop
endfacet
facet normal 0.0 0.0 -1.0
  outer loop
    vertex -16.2835862657225 -214.485166213183 0.0
    vertex -16.9914674257398 -209.274435627492 0.0
    vertex -15.4688600118947 -208.907002408402 0.0
  endloop
endfacet
facet normal 0.0 0.0 -1.0
  outer loop
    vertex -16.2835862657225 -214.485166213183 0.0
    vertex -15.4688600118947 -208.907002408402 0.0
    vertex -16.1337356319655 -214.123394780837 0.0
  endloop
endfacet
facet normal 0.0 0.0 -1.0
  outer loop
    vertex -16.1337356319655 -214.123394780837 0.0
    vertex -15.4688600118947 -208.907002408402 0.0
    vertex -15.8953576980687 -213.812734609057 0.0
  endloop
endfacet
facet normal 0.0 0.0 -1.0
  outer loop
    vertex -15.8953576980687 -213.812734609057 0.0
    vertex -15.4688600118947 -208.907002408402 0.0
    vertex -15.5846975262889 -213.57435667516 0.0
  endloop
endfacet
facet normal 0.0 0.0 -1.0
  outer loop
    vertex -15.5846975262889 -213.57435667516 0.0
    vertex -15.4688600118947 -208.907002408402 0.0
    vertex -15.2229260939426 -213.424506041403 0.0
  endloop
endfacet
facet normal 0.0 0.0 -1.0
  outer loop
    vertex -15.2229260939426 -213.424506041403 0.0
    vertex -15.4688600118947 -208.907002408402 0.0
    vertex -13.9030354726586 -208.946168969563 0.0
  endloop
endfacet
facet normal 0.0 0.0 -1.0
  outer loop
    vertex -15.2229260939426 -213.424506041403 0.0
    vertex -13.9030354726586 -208.946168969563 0.0
    vertex -14.8346975262889 -213.373394780837 0.0
  endloop
endfacet
facet normal 0.0 0.0 -1.0
  outer loop
    vertex -14.8346975262889 -213.373394780837 0.0
    vertex -13.9030354726586 -208.946168969563 0.0
    vertex -14.4464689586351 -213.424506041403 0.0
  endloop
endfacet
facet normal 0.0 0.0 -1.0
  outer loop
    vertex -14.4464689586351 -213.424506041403 0.0
    vertex -13.9030354726586 -208.946168969563 0.0
    vertex -14.0846975262889 -213.57435667516 0.0
  endloop
endfacet
facet normal 0.0 0.0 -1.0
  outer loop
    vertex -14.0846975262889 -213.57435667516 0.0
    vertex -13.9030354726586 -208.946168969563 0.0
    vertex -13.774037354509 -213.812734609057 0.0
  endloop
endfacet
facet normal 0.0 0.0 -1.0
  outer loop
    vertex -13.774037354509 -213.812734609057 0.0
    vertex -13.9030354726586 -208.946168969563 0.0
    vertex -12.4007021627331 -209.38926617456 0.0
  endloop
endfacet
facet normal 0.0 0.0 -1.0
  outer loop
    vertex -13.774037354509 -213.812734609057 0.0
    vertex -12.4007021627331 -209.38926617456 0.0
    vertex -13.5356594206122 -214.123394780837 0.0
  endloop
endfacet
facet normal 0.0 0.0 -1.0
  outer loop
    vertex -13.5356594206122 -214.123394780837 0.0
    vertex -12.4007021627331 -209.38926617456 0.0
    vertex -13.3858087868552 -214.485166213183 0.0
  endloop
endfacet
facet normal 0.0 0.0 -1.0
  outer loop
    vertex -13.3858087868552 -214.485166213183 0.0
    vertex -12.4007021627331 -209.38926617456 0.0
    vertex -13.3346975262888 -214.873394780837 0.0
  endloop
endfacet
facet normal 0.0 0.0 -1.0
  outer loop
    vertex -13.3346975262888 -214.873394780837 0.0
    vertex -12.4007021627331 -209.38926617456 0.0
    vertex -12.6779276268379 -220.472353934182 0.0
  endloop
endfacet
facet normal 0.0 0.0 -1.0
  outer loop
    vertex -12.6779276268379 -220.472353934182 0.0
    vertex -12.4007021627331 -209.38926617456 0.0
    vertex -11.3023005174096 -219.723360901508 0.0
  endloop
endfacet
facet normal 0.0 0.0 -1.0
  outer loop
    vertex -11.3023005174096 -219.723360901508 0.0
    vertex -12.4007021627331 -209.38926617456 0.0
    vertex -11.0642416144664 -210.206097681122 0.0
  endloop
endfacet
facet normal 0.0 0.0 -1.0
  outer loop
    vertex -11.3023005174096 -219.723360901508 0.0
    vertex -11.0642416144664 -210.206097681122 0.0
    vertex -10.1674004265744 -218.643850692659 0.0
  endloop
endfacet
facet normal 0.0 0.0 -1.0
  outer loop
    vertex -10.1674004265744 -218.643850692659 0.0
    vertex -11.0642416144664 -210.206097681122 0.0
    vertex -9.9847314056174 -211.340997771958 0.0
  endloop
endfacet
facet normal 0.0 0.0 -1.0
  outer loop
    vertex -10.1674004265744 -218.643850692659 0.0
    vertex -9.9847314056174 -211.340997771958 0.0
    vertex -9.35056892001155 -217.307390144393 0.0
  endloop
endfacet
facet normal 0.0 0.0 -1.0
  outer loop
    vertex -9.35056892001155 -217.307390144393 0.0
    vertex -9.9847314056174 -211.340997771958 0.0
    vertex -9.23573837294417 -212.716624881386 0.0
  endloop
endfacet
facet normal 0.0 0.0 -1.0
  outer loop
    vertex -9.35056892001155 -217.307390144393 0.0
    vertex -9.23573837294417 -212.716624881386 0.0
    vertex -8.90747171501548 -215.805056834467 0.0
  endloop
endfacet
facet normal 0.0 0.0 -1.0
  outer loop
    vertex -8.90747171501548 -215.805056834467 0.0
    vertex -9.23573837294417 -212.716624881386 0.0
    vertex -8.86830515385389 -214.239232295231 0.0
  endloop
endfacet
facet normal 0.0 0.0 -1.0
  outer loop
    vertex -20.7619233375622 -213.941732727207 0.0
    vertex -20.4336566796336 -217.030164680288 0.0
    vertex -20.8010898987238 -215.507557266443 0.0
  endloop
endfacet
facet normal 0.0 0.0 -1.0
  outer loop
    vertex -20.4336566796336 -217.030164680288 0.0
    vertex -20.7619233375622 -213.941732727207 0.0
    vertex -20.3188261325662 -212.439399417281 0.0
  endloop
endfacet
facet normal 0.0 0.0 -1.0
  outer loop
    vertex -20.4336566796336 -217.030164680288 0.0
    vertex -20.3188261325662 -212.439399417281 0.0
    vertex -19.6846636469603 -218.405791789716 0.0
  endloop
endfacet
facet normal 0.0 0.0 -1.0
  outer loop
    vertex -19.6846636469603 -218.405791789716 0.0
    vertex -20.3188261325662 -212.439399417281 0.0
    vertex -19.5019946260033 -211.102938869014 0.0
  endloop
endfacet
facet normal 0.0 0.0 -1.0
  outer loop
    vertex -19.6846636469603 -218.405791789716 0.0
    vertex -19.5019946260033 -211.102938869014 0.0
    vertex -18.6051534381113 -219.540691880551 0.0
  endloop
endfacet
facet normal 0.0 0.0 -1.0
  outer loop
    vertex -18.6051534381113 -219.540691880551 0.0
    vertex -19.5019946260033 -211.102938869014 0.0
    vertex -18.3670945351681 -210.023428660165 0.0
  endloop
endfacet
facet normal 0.0 0.0 -1.0
  outer loop
    vertex -18.6051534381113 -219.540691880551 0.0
    vertex -18.3670945351681 -210.023428660165 0.0
    vertex -17.2686928898446 -220.357523387114 0.0
  endloop
endfacet
facet normal 0.0 0.0 -1.0
  outer loop
    vertex -17.2686928898446 -220.357523387114 0.0
    vertex -18.3670945351681 -210.023428660165 0.0
    vertex -16.9914674257398 -209.274435627492 0.0
  endloop
endfacet
facet normal 0.0 0.0 -1.0
  outer loop
    vertex -17.2686928898446 -220.357523387114 0.0
    vertex -16.9914674257398 -209.274435627492 0.0
    vertex -15.7663595799191 -220.80062059211 0.0
  endloop
endfacet
facet normal 0.0 0.0 -1.0
  outer loop
    vertex -15.7663595799191 -220.80062059211 0.0
    vertex -16.9914674257398 -209.274435627492 0.0
    vertex -16.3346975262889 -214.873394780837 0.0
  endloop
endfacet
facet normal 0.0 0.0 -1.0
  outer loop
    vertex -15.7663595799191 -220.80062059211 0.0
    vertex -16.3346975262889 -214.873394780837 0.0
    vertex -16.2835862657225 -215.261623348491 0.0
  endloop
endfacet
facet normal 0.0 0.0 -1.0
  outer loop
    vertex -15.7663595799191 -220.80062059211 0.0
    vertex -16.2835862657225 -215.261623348491 0.0
    vertex -16.1337356319655 -215.623394780837 0.0
  endloop
endfacet
facet normal 0.0 0.0 -1.0
  outer loop
    vertex -15.7663595799191 -220.80062059211 0.0
    vertex -16.1337356319655 -215.623394780837 0.0
    vertex -15.8953576980687 -215.934054952617 0.0
  endloop
endfacet
facet normal 0.0 0.0 -1.0
  outer loop
    vertex -15.7663595799191 -220.80062059211 0.0
    vertex -15.8953576980687 -215.934054952617 0.0
    vertex -15.5846975262889 -216.172432886514 0.0
  endloop
endfacet
facet normal 0.0 0.0 -1.0
  outer loop
    vertex -15.7663595799191 -220.80062059211 0.0
    vertex -15.5846975262889 -216.172432886514 0.0
    vertex -14.200535040683 -220.839787153272 0.0
  endloop
endfacet
facet normal 0.0 0.0 -1.0
  outer loop
    vertex -14.200535040683 -220.839787153272 0.0
    vertex -15.5846975262889 -216.172432886514 0.0
    vertex -15.2229260939426 -216.32228352027 0.0
  endloop
endfacet
facet normal 0.0 0.0 -1.0
  outer loop
    vertex -14.200535040683 -220.839787153272 0.0
    vertex -15.2229260939426 -216.32228352027 0.0
    vertex -14.8346975262889 -216.373394780837 0.0
  endloop
endfacet
facet normal 0.0 0.0 -1.0
  outer loop
    vertex -14.200535040683 -220.839787153272 0.0
    vertex -14.8346975262889 -216.373394780837 0.0
    vertex -14.4464689586351 -216.32228352027 0.0
  endloop
endfacet
facet normal 0.0 0.0 -1.0
  outer loop
    vertex -14.200535040683 -220.839787153272 0.0
    vertex -14.4464689586351 -216.32228352027 0.0
    vertex -14.0846975262889 -216.172432886514 0.0
  endloop
endfacet
facet normal 0.0 0.0 -1.0
  outer loop
    vertex -14.200535040683 -220.839787153272 0.0
    vertex -14.0846975262889 -216.172432886514 0.0
    vertex -12.6779276268379 -220.472353934182 0.0
  endloop
endfacet
facet normal 0.0 0.0 -1.0
  outer loop
    vertex -12.6779276268379 -220.472353934182 0.0
    vertex -14.0846975262889 -216.172432886514 0.0
    vertex -13.774037354509 -215.934054952617 0.0
  endloop
endfacet
facet normal 0.0 0.0 -1.0
  outer loop
    vertex -12.6779276268379 -220.472353934182 0.0
    vertex -13.774037354509 -215.934054952617 0.0
    vertex -13.5356594206122 -215.623394780837 0.0
  endloop
endfacet
facet normal 0.0 0.0 -1.0
  outer loop
    vertex -12.6779276268379 -220.472353934182 0.0
    vertex -13.5356594206122 -215.623394780837 0.0
    vertex -13.3858087868552 -215.261623348491 0.0
  endloop
endfacet
facet normal 0.0 0.0 -1.0
  outer loop
    vertex -12.6779276268379 -220.472353934182 0.0
    vertex -13.3858087868552 -215.261623348491 0.0
    vertex -13.3346975262888 -214.873394780837 0.0
  endloop
endfacet
facet normal -0.878257386525879 -0.478188208776348 0.0
  outer loop
    vertex -20.4336566796336 -217.030164680288 8.0
    vertex -19.6846636469603 -218.405791789716 0.0
    vertex -19.6846636469603 -218.405791789716 8.0
  endloop
endfacet
facet normal -0.808327686778579 -0.588732834813204 0.0
  outer loop
    vertex -19.6846636469603 -218.405791789716 0.0
    vertex -20.4336566796336 -217.030164680288 8.0
    vertex -20.4336566796336 -217.030164680288 0.0
  endloop
endfacet
facet normal -0.994398728739162 -0.105693747600975 0.0
  outer loop
    vertex -20.8010898987238 -215.507557266443 8.0
    vertex -20.4336566796336 -217.030164680288 0.0
    vertex -20.4336566796336 -217.030164680288 8.0
  endloop
endfacet
facet normal -0.972095707349269 -0.234584602549111 0.0
  outer loop
    vertex -20.4336566796336 -217.030164680288 0.0
    vertex -20.8010898987238 -215.507557266443 8.0
    vertex -20.8010898987238 -215.507557266443 0.0
  endloop
endfacet
facet normal 0.866025403784434 -0.500000000000008 0.0
  outer loop
    vertex -11.3668594616157 -216.875552020982 8.0
    vertex -12.0032196032723 -217.704872703853 20.0
    vertex -12.0032196032723 -217.704872703853 8.0
  endloop
endfacet
facet normal 0.707106781186552 -0.707106781186543 0.0
  outer loop
    vertex -12.0032196032723 -217.704872703853 20.0
    vertex -11.3668594616157 -216.875552020982 8.0
    vertex -11.3668594616157 -216.875552020982 20.0
  endloop
endfacet
facet normal 0.50000000000001 0.866025403784433 0.0
  outer loop
    vertex -12.8325402861438 -211.405556716164 20.0
    vertex -12.0032196032723 -212.04191685782 8.0
    vertex -12.8325402861438 -211.405556716164 8.0
  endloop
endfacet
facet normal 0.707106781186552 0.707106781186543 0.0
  outer loop
    vertex -12.0032196032723 -212.04191685782 8.0
    vertex -12.8325402861438 -211.405556716164 20.0
    vertex -12.0032196032723 -212.04191685782 20.0
  endloop
endfacet
facet normal -0.258819045102541 0.965925826289063 0.0
  outer loop
    vertex -15.8710903763676 -211.005524007741 20.0
    vertex -14.8346975262889 -210.869080300547 8.0
    vertex -15.8710903763676 -211.005524007741 8.0
  endloop
endfacet
facet normal -7.03977681756108e-016 1.0 0.0
  outer loop
    vertex -14.8346975262889 -210.869080300547 8.0
    vertex -15.8710903763676 -211.005524007741 20.0
    vertex -14.8346975262889 -210.869080300547 20.0
  endloop
endfacet
facet normal 0.707106781186552 0.707106781186543 0.0
  outer loop
    vertex -12.0032196032723 -212.04191685782 8.0
    vertex -11.3668594616157 -212.871237540692 20.0
    vertex -11.3668594616157 -212.871237540692 8.0
  endloop
endfacet
facet normal 0.866025403784434 0.500000000000008 0.0
  outer loop
    vertex -11.3668594616157 -212.871237540692 20.0
    vertex -12.0032196032723 -212.04191685782 8.0
    vertex -12.0032196032723 -212.04191685782 20.0
  endloop
endfacet
facet normal -0.70710678118654 0.707106781186556 0.0
  outer loop
    vertex -17.6661754493054 -212.04191685782 20.0
    vertex -18.302535590962 -212.871237540692 8.0
    vertex -18.302535590962 -212.871237540692 20.0
  endloop
endfacet
facet normal -0.866025403784434 0.500000000000007 0.0
  outer loop
    vertex -18.302535590962 -212.871237540692 8.0
    vertex -17.6661754493054 -212.04191685782 20.0
    vertex -17.6661754493054 -212.04191685782 8.0
  endloop
endfacet
facet normal 0.866025403784434 0.500000000000008 0.0
  outer loop
    vertex -11.3668594616157 -212.871237540692 8.0
    vertex -10.9668267531934 -213.837001930758 20.0
    vertex -10.9668267531934 -213.837001930758 8.0
  endloop
endfacet
facet normal 0.96592582628907 0.258819045102515 0.0
  outer loop
    vertex -10.9668267531934 -213.837001930758 20.0
    vertex -11.3668594616157 -212.871237540692 8.0
    vertex -11.3668594616157 -212.871237540692 20.0
  endloop
endfacet
facet normal 0.96592582628907 0.258819045102515 0.0
  outer loop
    vertex -10.9668267531934 -213.837001930758 8.0
    vertex -10.8303830459988 -214.873394780837 20.0
    vertex -10.8303830459988 -214.873394780837 8.0
  endloop
endfacet
facet normal 1.0 0.0 0.0
  outer loop
    vertex -10.8303830459988 -214.873394780837 20.0
    vertex -10.9668267531934 -213.837001930758 8.0
    vertex -10.9668267531934 -213.837001930758 20.0
  endloop
endfacet
facet normal 1.0 0.0 0.0
  outer loop
    vertex -10.8303830459988 -214.873394780837 8.0
    vertex -10.9668267531934 -215.909787630916 20.0
    vertex -10.9668267531934 -215.909787630916 8.0
  endloop
endfacet
facet normal 0.96592582628907 -0.258819045102516 0.0
  outer loop
    vertex -10.9668267531934 -215.909787630916 20.0
    vertex -10.8303830459988 -214.873394780837 8.0
    vertex -10.8303830459988 -214.873394780837 20.0
  endloop
endfacet
facet normal 0.0 0.0 1.0
  outer loop
    vertex -18.7025682993843 -215.909787630916 20.0
    vertex -18.7025682993843 -213.837001930758 20.0
    vertex -18.8390120065789 -214.873394780837 20.0
  endloop
endfacet
facet normal 0.0 0.0 1.0
  outer loop
    vertex -18.7025682993843 -213.837001930758 20.0
    vertex -18.7025682993843 -215.909787630916 20.0
    vertex -18.302535590962 -216.875552020982 20.0
  endloop
endfacet
facet normal 0.0 0.0 1.0
  outer loop
    vertex -18.7025682993843 -213.837001930758 20.0
    vertex -18.302535590962 -216.875552020982 20.0
    vertex -18.302535590962 -212.871237540692 20.0
  endloop
endfacet
facet normal 0.0 0.0 1.0
  outer loop
    vertex -18.302535590962 -212.871237540692 20.0
    vertex -18.302535590962 -216.875552020982 20.0
    vertex -17.6661754493054 -217.704872703853 20.0
  endloop
endfacet
facet normal 0.0 0.0 1.0
  outer loop
    vertex -18.302535590962 -212.871237540692 20.0
    vertex -17.6661754493054 -217.704872703853 20.0
    vertex -17.6661754493054 -212.04191685782 20.0
  endloop
endfacet
facet normal 0.0 0.0 1.0
  outer loop
    vertex -17.6661754493054 -212.04191685782 20.0
    vertex -17.6661754493054 -217.704872703853 20.0
    vertex -16.836854766434 -211.405556716164 20.0
  endloop
endfacet
facet normal 0.0 0.0 1.0
  outer loop
    vertex -16.836854766434 -211.405556716164 20.0
    vertex -17.6661754493054 -217.704872703853 20.0
    vertex -16.836854766434 -218.34123284551 20.0
  endloop
endfacet
facet normal 0.0 0.0 1.0
  outer loop
    vertex -16.836854766434 -211.405556716164 20.0
    vertex -16.836854766434 -218.34123284551 20.0
    vertex -15.8710903763676 -218.741265553932 20.0
  endloop
endfacet
facet normal 0.0 0.0 1.0
  outer loop
    vertex -16.836854766434 -211.405556716164 20.0
    vertex -15.8710903763676 -218.741265553932 20.0
    vertex -16.3346975262889 -214.873394780837 20.0
  endloop
endfacet
facet normal 0.0 0.0 1.0
  outer loop
    vertex -16.3346975262889 -214.873394780837 20.0
    vertex -15.8710903763676 -218.741265553932 20.0
    vertex -16.2835862657225 -215.261623348491 20.0
  endloop
endfacet
facet normal 0.0 0.0 1.0
  outer loop
    vertex -16.2835862657225 -215.261623348491 20.0
    vertex -15.8710903763676 -218.741265553932 20.0
    vertex -16.1337356319655 -215.623394780837 20.0
  endloop
endfacet
facet normal 0.0 0.0 1.0
  outer loop
    vertex -16.1337356319655 -215.623394780837 20.0
    vertex -15.8710903763676 -218.741265553932 20.0
    vertex -15.8953576980687 -215.934054952617 20.0
  endloop
endfacet
facet normal 0.0 0.0 1.0
  outer loop
    vertex -15.8953576980687 -215.934054952617 20.0
    vertex -15.8710903763676 -218.741265553932 20.0
    vertex -15.5846975262889 -216.172432886514 20.0
  endloop
endfacet
facet normal 0.0 0.0 1.0
  outer loop
    vertex -15.5846975262889 -216.172432886514 20.0
    vertex -15.8710903763676 -218.741265553932 20.0
    vertex -14.8346975262889 -218.877709261127 20.0
  endloop
endfacet
facet normal 0.0 0.0 1.0
  outer loop
    vertex -15.5846975262889 -216.172432886514 20.0
    vertex -14.8346975262889 -218.877709261127 20.0
    vertex -15.2229260939426 -216.32228352027 20.0
  endloop
endfacet
facet normal 0.0 0.0 1.0
  outer loop
    vertex -15.2229260939426 -216.32228352027 20.0
    vertex -14.8346975262889 -218.877709261127 20.0
    vertex -14.8346975262889 -216.373394780837 20.0
  endloop
endfacet
facet normal 0.0 0.0 1.0
  outer loop
    vertex -14.8346975262889 -216.373394780837 20.0
    vertex -14.8346975262889 -218.877709261127 20.0
    vertex -14.4464689586351 -216.32228352027 20.0
  endloop
endfacet
facet normal 0.0 0.0 1.0
  outer loop
    vertex -14.4464689586351 -216.32228352027 20.0
    vertex -14.8346975262889 -218.877709261127 20.0
    vertex -13.7983046762101 -218.741265553932 20.0
  endloop
endfacet
facet normal 0.0 0.0 1.0
  outer loop
    vertex -14.4464689586351 -216.32228352027 20.0
    vertex -13.7983046762101 -218.741265553932 20.0
    vertex -14.0846975262889 -216.172432886514 20.0
  endloop
endfacet
facet normal 0.0 0.0 1.0
  outer loop
    vertex -14.0846975262889 -216.172432886514 20.0
    vertex -13.7983046762101 -218.741265553932 20.0
    vertex -13.774037354509 -215.934054952617 20.0
  endloop
endfacet
facet normal 0.0 0.0 1.0
  outer loop
    vertex -13.774037354509 -215.934054952617 20.0
    vertex -13.7983046762101 -218.741265553932 20.0
    vertex -12.8325402861438 -218.34123284551 20.0
  endloop
endfacet
facet normal 0.0 0.0 1.0
  outer loop
    vertex -13.774037354509 -215.934054952617 20.0
    vertex -12.8325402861438 -218.34123284551 20.0
    vertex -13.5356594206122 -215.623394780837 20.0
  endloop
endfacet
facet normal 0.0 0.0 1.0
  outer loop
    vertex -13.5356594206122 -215.623394780837 20.0
    vertex -12.8325402861438 -218.34123284551 20.0
    vertex -13.3858087868552 -215.261623348491 20.0
  endloop
endfacet
facet normal 0.0 0.0 1.0
  outer loop
    vertex -13.3858087868552 -215.261623348491 20.0
    vertex -12.8325402861438 -218.34123284551 20.0
    vertex -13.3346975262888 -214.873394780837 20.0
  endloop
endfacet
facet normal 0.0 0.0 1.0
  outer loop
    vertex -16.3346975262889 -214.873394780837 20.0
    vertex -15.8710903763676 -211.005524007741 20.0
    vertex -16.836854766434 -211.405556716164 20.0
  endloop
endfacet
facet normal 0.0 0.0 1.0
  outer loop
    vertex -15.8710903763676 -211.005524007741 20.0
    vertex -16.3346975262889 -214.873394780837 20.0
    vertex -16.2835862657225 -214.485166213183 20.0
  endloop
endfacet
facet normal 0.0 0.0 1.0
  outer loop
    vertex -15.8710903763676 -211.005524007741 20.0
    vertex -16.2835862657225 -214.485166213183 20.0
    vertex -16.1337356319655 -214.123394780837 20.0
  endloop
endfacet
facet normal 0.0 0.0 1.0
  outer loop
    vertex -15.8710903763676 -211.005524007741 20.0
    vertex -16.1337356319655 -214.123394780837 20.0
    vertex -15.8953576980687 -213.812734609057 20.0
  endloop
endfacet
facet normal 0.0 0.0 1.0
  outer loop
    vertex -15.8710903763676 -211.005524007741 20.0
    vertex -15.8953576980687 -213.812734609057 20.0
    vertex -15.5846975262889 -213.57435667516 20.0
  endloop
endfacet
facet normal 0.0 0.0 1.0
  outer loop
    vertex -15.8710903763676 -211.005524007741 20.0
    vertex -15.5846975262889 -213.57435667516 20.0
    vertex -14.8346975262889 -210.869080300547 20.0
  endloop
endfacet
facet normal 0.0 0.0 1.0
  outer loop
    vertex -14.8346975262889 -210.869080300547 20.0
    vertex -15.5846975262889 -213.57435667516 20.0
    vertex -15.2229260939426 -213.424506041403 20.0
  endloop
endfacet
facet normal 0.0 0.0 1.0
  outer loop
    vertex -14.8346975262889 -210.869080300547 20.0
    vertex -15.2229260939426 -213.424506041403 20.0
    vertex -14.8346975262889 -213.373394780837 20.0
  endloop
endfacet
facet normal 0.0 0.0 1.0
  outer loop
    vertex -14.8346975262889 -210.869080300547 20.0
    vertex -14.8346975262889 -213.373394780837 20.0
    vertex -13.7983046762101 -211.005524007741 20.0
  endloop
endfacet
facet normal 0.0 0.0 1.0
  outer loop
    vertex -13.7983046762101 -211.005524007741 20.0
    vertex -14.8346975262889 -213.373394780837 20.0
    vertex -14.4464689586351 -213.424506041403 20.0
  endloop
endfacet
facet normal 0.0 0.0 1.0
  outer loop
    vertex -13.7983046762101 -211.005524007741 20.0
    vertex -14.4464689586351 -213.424506041403 20.0
    vertex -14.0846975262889 -213.57435667516 20.0
  endloop
endfacet
facet normal 0.0 0.0 1.0
  outer loop
    vertex -13.7983046762101 -211.005524007741 20.0
    vertex -14.0846975262889 -213.57435667516 20.0
    vertex -13.774037354509 -213.812734609057 20.0
  endloop
endfacet
facet normal 0.0 0.0 1.0
  outer loop
    vertex -13.7983046762101 -211.005524007741 20.0
    vertex -13.774037354509 -213.812734609057 20.0
    vertex -12.8325402861438 -211.405556716164 20.0
  endloop
endfacet
facet normal 0.0 0.0 1.0
  outer loop
    vertex -12.8325402861438 -211.405556716164 20.0
    vertex -13.774037354509 -213.812734609057 20.0
    vertex -13.5356594206122 -214.123394780837 20.0
  endloop
endfacet
facet normal 0.0 0.0 1.0
  outer loop
    vertex -12.8325402861438 -211.405556716164 20.0
    vertex -13.5356594206122 -214.123394780837 20.0
    vertex -13.3858087868552 -214.485166213183 20.0
  endloop
endfacet
facet normal 0.0 0.0 1.0
  outer loop
    vertex -12.8325402861438 -211.405556716164 20.0
    vertex -13.3858087868552 -214.485166213183 20.0
    vertex -13.3346975262888 -214.873394780837 20.0
  endloop
endfacet
facet normal 0.0 0.0 1.0
  outer loop
    vertex -12.8325402861438 -211.405556716164 20.0
    vertex -13.3346975262888 -214.873394780837 20.0
    vertex -12.8325402861438 -218.34123284551 20.0
  endloop
endfacet
facet normal 0.0 0.0 1.0
  outer loop
    vertex -12.8325402861438 -211.405556716164 20.0
    vertex -12.8325402861438 -218.34123284551 20.0
    vertex -12.0032196032723 -217.704872703853 20.0
  endloop
endfacet
facet normal 0.0 0.0 1.0
  outer loop
    vertex -12.8325402861438 -211.405556716164 20.0
    vertex -12.0032196032723 -217.704872703853 20.0
    vertex -12.0032196032723 -212.04191685782 20.0
  endloop
endfacet
facet normal 0.0 0.0 1.0
  outer loop
    vertex -12.0032196032723 -212.04191685782 20.0
    vertex -12.0032196032723 -217.704872703853 20.0
    vertex -11.3668594616157 -212.871237540692 20.0
  endloop
endfacet
facet normal 0.0 0.0 1.0
  outer loop
    vertex -11.3668594616157 -212.871237540692 20.0
    vertex -12.0032196032723 -217.704872703853 20.0
    vertex -11.3668594616157 -216.875552020982 20.0
  endloop
endfacet
facet normal 0.0 0.0 1.0
  outer loop
    vertex -11.3668594616157 -212.871237540692 20.0
    vertex -11.3668594616157 -216.875552020982 20.0
    vertex -10.9668267531934 -215.909787630916 20.0
  endloop
endfacet
facet normal 0.0 0.0 1.0
  outer loop
    vertex -11.3668594616157 -212.871237540692 20.0
    vertex -10.9668267531934 -215.909787630916 20.0
    vertex -10.9668267531934 -213.837001930758 20.0
  endloop
endfacet
facet normal 0.0 0.0 1.0
  outer loop
    vertex -10.9668267531934 -213.837001930758 20.0
    vertex -10.9668267531934 -215.909787630916 20.0
    vertex -10.8303830459988 -214.873394780837 20.0
  endloop
endfacet
facet normal 0.96592582628907 -0.258819045102516 0.0
  outer loop
    vertex -10.9668267531934 -215.909787630916 8.0
    vertex -11.3668594616157 -216.875552020982 20.0
    vertex -11.3668594616157 -216.875552020982 8.0
  endloop
endfacet
facet normal 0.866025403784434 -0.500000000000008 0.0
  outer loop
    vertex -11.3668594616157 -216.875552020982 20.0
    vertex -10.9668267531934 -215.909787630916 8.0
    vertex -10.9668267531934 -215.909787630916 20.0
  endloop
endfacet
facet normal -0.500000000000011 0.866025403784432 0.0
  outer loop
    vertex -16.836854766434 -211.405556716164 20.0
    vertex -15.8710903763676 -211.005524007741 8.0
    vertex -16.836854766434 -211.405556716164 8.0
  endloop
endfacet
facet normal -0.258819045102541 0.965925826289063 0.0
  outer loop
    vertex -15.8710903763676 -211.005524007741 8.0
    vertex -16.836854766434 -211.405556716164 20.0
    vertex -15.8710903763676 -211.005524007741 20.0
  endloop
endfacet
facet normal -0.866025403784434 0.500000000000007 0.0
  outer loop
    vertex -18.302535590962 -212.871237540692 20.0
    vertex -18.7025682993843 -213.837001930758 8.0
    vertex -18.7025682993843 -213.837001930758 20.0
  endloop
endfacet
facet normal -0.96592582628907 0.258819045102514 0.0
  outer loop
    vertex -18.7025682993843 -213.837001930758 8.0
    vertex -18.302535590962 -212.871237540692 20.0
    vertex -18.302535590962 -212.871237540692 8.0
  endloop
endfacet
facet normal -0.96592582628907 0.258819045102514 0.0
  outer loop
    vertex -18.7025682993843 -213.837001930758 20.0
    vertex -18.8390120065789 -214.873394780837 8.0
    vertex -18.8390120065789 -214.873394780837 20.0
  endloop
endfacet
facet normal -1.0 0.0 0.0
  outer loop
    vertex -18.8390120065789 -214.873394780837 8.0
    vertex -18.7025682993843 -213.837001930758 20.0
    vertex -18.7025682993843 -213.837001930758 8.0
  endloop
endfacet
facet normal -1.0 0.0 0.0
  outer loop
    vertex -18.8390120065789 -214.873394780837 20.0
    vertex -18.7025682993843 -215.909787630916 8.0
    vertex -18.7025682993843 -215.909787630916 20.0
  endloop
endfacet
facet normal -0.96592582628907 -0.258819045102514 0.0
  outer loop
    vertex -18.7025682993843 -215.909787630916 8.0
    vertex -18.8390120065789 -214.873394780837 20.0
    vertex -18.8390120065789 -214.873394780837 8.0
  endloop
endfacet
facet normal -0.96592582628907 -0.258819045102514 0.0
  outer loop
    vertex -18.7025682993843 -215.909787630916 20.0
    vertex -18.302535590962 -216.875552020982 8.0
    vertex -18.302535590962 -216.875552020982 20.0
  endloop
endfacet
facet normal -0.866025403784433 -0.500000000000009 0.0
  outer loop
    vertex -18.302535590962 -216.875552020982 8.0
    vertex -18.7025682993843 -215.909787630916 20.0
    vertex -18.7025682993843 -215.909787630916 8.0
  endloop
endfacet
facet normal -0.866025403784433 -0.500000000000009 0.0
  outer loop
    vertex -18.302535590962 -216.875552020982 20.0
    vertex -17.6661754493054 -217.704872703853 8.0
    vertex -17.6661754493054 -217.704872703853 20.0
  endloop
endfacet
facet normal -0.70710678118654 -0.707106781186555 0.0
  outer loop
    vertex -17.6661754493054 -217.704872703853 8.0
    vertex -18.302535590962 -216.875552020982 20.0
    vertex -18.302535590962 -216.875552020982 8.0
  endloop
endfacet
facet normal -7.03977681756108e-016 1.0 0.0
  outer loop
    vertex -14.8346975262889 -210.869080300547 20.0
    vertex -13.7983046762101 -211.005524007741 8.0
    vertex -14.8346975262889 -210.869080300547 8.0
  endloop
endfacet
facet normal 0.258819045102522 0.965925826289068 0.0
  outer loop
    vertex -13.7983046762101 -211.005524007741 8.0
    vertex -14.8346975262889 -210.869080300547 20.0
    vertex -13.7983046762101 -211.005524007741 20.0
  endloop
endfacet
facet normal -0.500000000000012 -0.866025403784431 0.0
  outer loop
    vertex -16.836854766434 -218.34123284551 20.0
    vertex -17.6661754493054 -217.704872703853 8.0
    vertex -16.836854766434 -218.34123284551 8.0
  endloop
endfacet
facet normal -0.70710678118654 -0.707106781186555 0.0
  outer loop
    vertex -17.6661754493054 -217.704872703853 8.0
    vertex -16.836854766434 -218.34123284551 20.0
    vertex -17.6661754493054 -217.704872703853 20.0
  endloop
endfacet
facet normal -0.70710678118654 0.707106781186556 0.0
  outer loop
    vertex -17.6661754493054 -212.04191685782 20.0
    vertex -16.836854766434 -211.405556716164 8.0
    vertex -17.6661754493054 -212.04191685782 8.0
  endloop
endfacet
facet normal -0.500000000000011 0.866025403784432 0.0
  outer loop
    vertex -16.836854766434 -211.405556716164 8.0
    vertex -17.6661754493054 -212.04191685782 20.0
    vertex -16.836854766434 -211.405556716164 20.0
  endloop
endfacet
facet normal -0.25881904510254 -0.965925826289063 0.0
  outer loop
    vertex -15.8710903763676 -218.741265553932 20.0
    vertex -16.836854766434 -218.34123284551 8.0
    vertex -15.8710903763676 -218.741265553932 8.0
  endloop
endfacet
facet normal -0.500000000000012 -0.866025403784431 0.0
  outer loop
    vertex -16.836854766434 -218.34123284551 8.0
    vertex -15.8710903763676 -218.741265553932 20.0
    vertex -16.836854766434 -218.34123284551 20.0
  endloop
endfacet
facet normal 0.258819045102522 0.965925826289068 0.0
  outer loop
    vertex -13.7983046762101 -211.005524007741 20.0
    vertex -12.8325402861438 -211.405556716164 8.0
    vertex -13.7983046762101 -211.005524007741 8.0
  endloop
endfacet
facet normal 0.50000000000001 0.866025403784433 0.0
  outer loop
    vertex -12.8325402861438 -211.405556716164 8.0
    vertex -13.7983046762101 -211.005524007741 20.0
    vertex -12.8325402861438 -211.405556716164 20.0
  endloop
endfacet
facet normal 0.258819045102523 -0.965925826289068 0.0
  outer loop
    vertex -13.7983046762101 -218.741265553932 20.0
    vertex -14.8346975262889 -218.877709261127 8.0
    vertex -13.7983046762101 -218.741265553932 8.0
  endloop
endfacet
facet normal 0.0 -1.0 0.0
  outer loop
    vertex -14.8346975262889 -218.877709261127 8.0
    vertex -13.7983046762101 -218.741265553932 20.0
    vertex -14.8346975262889 -218.877709261127 20.0
  endloop
endfacet
facet normal 0.0 -1.0 0.0
  outer loop
    vertex -14.8346975262889 -218.877709261127 20.0
    vertex -15.8710903763676 -218.741265553932 8.0
    vertex -14.8346975262889 -218.877709261127 8.0
  endloop
endfacet
facet normal -0.25881904510254 -0.965925826289063 0.0
  outer loop
    vertex -15.8710903763676 -218.741265553932 8.0
    vertex -14.8346975262889 -218.877709261127 20.0
    vertex -15.8710903763676 -218.741265553932 20.0
  endloop
endfacet
endsolid xyz-y-carriage-left
