solid xyz-y-carriage-left
facet normal -0.617787644043366 -0.786344979552452 0.0
  outer loop
    vertex -12.5485329656662 -242.304841358607 3.0
    vertex -13.7182434188581 -241.611566840084 2.29122276707017e-015
    vertex -12.5485329656662 -242.304841358607 2.29122276707017e-015
  endloop
endfacet
facet normal -0.393215983814838 -0.919446132229903 0.0
  outer loop
    vertex -13.7182434188581 -241.611566840084 2.29122276707017e-015
    vertex -12.5485329656662 -242.304841358607 3.0
    vertex -13.7182434188581 -241.611566840084 3.0
  endloop
endfacet
facet normal -0.919446132229901 0.393215983814843 0.0
  outer loop
    vertex -10.977305827893 -248.448736753171 3.0
    vertex -11.6705803464154 -249.618447206363 2.29122276707017e-015
    vertex -11.6705803464154 -249.618447206363 3.0
  endloop
endfacet
facet normal -0.786344979552452 0.617787644043367 0.0
  outer loop
    vertex -11.6705803464154 -249.618447206363 2.29122276707017e-015
    vertex -10.977305827893 -248.448736753171 3.0
    vertex -10.977305827893 -248.448736753171 2.29122276707017e-015
  endloop
endfacet
facet normal -0.800258097272695 -0.599655716015019 0.0
  outer loop
    vertex -11.5981120785258 -243.277236463297 3.0
    vertex -10.9317503702506 -244.46248503473 2.29122276707017e-015
    vertex -10.9317503702506 -244.46248503473 3.0
  endloop
endfacet
facet normal -0.928192283661921 -0.372100906409092 0.0
  outer loop
    vertex -10.9317503702506 -244.46248503473 2.29122276707017e-015
    vertex -11.5981120785258 -243.277236463297 3.0
    vertex -11.5981120785258 -243.277236463297 2.29122276707017e-015
  endloop
endfacet
facet normal -0.617787644043366 -0.786344979552452 0.0
  outer loop
    vertex -12.5485329656662 -242.304841358607 3.0
    vertex -11.5981120785258 -243.277236463297 2.29122276707017e-015
    vertex -11.5981120785258 -243.277236463297 3.0
  endloop
endfacet
facet normal -0.800258097272695 -0.599655716015019 0.0
  outer loop
    vertex -11.5981120785258 -243.277236463297 2.29122276707017e-015
    vertex -12.5485329656662 -242.304841358607 3.0
    vertex -12.5485329656662 -242.304841358607 2.29122276707017e-015
  endloop
endfacet
facet normal -0.992871699829861 -0.119188034957212 0.0
  outer loop
    vertex -10.5948592900448 -245.779814341478 3.0
    vertex -10.6103974082857 -247.139450568275 2.29122276707017e-015
    vertex -10.6103974082857 -247.139450568275 3.0
  endloop
endfacet
facet normal -0.989888550452461 0.141847304109472 0.0
  outer loop
    vertex -10.6103974082857 -247.139450568275 2.29122276707017e-015
    vertex -10.5948592900448 -245.779814341478 3.0
    vertex -10.5948592900448 -245.779814341478 2.29122276707017e-015
  endloop
endfacet
facet normal -0.599655716015023 0.800258097272693 0.0
  outer loop
    vertex -12.6429754511059 -250.568868093504 3.0
    vertex -11.6705803464154 -249.618447206363 2.29122276707017e-015
    vertex -12.6429754511059 -250.568868093504 2.29122276707017e-015
  endloop
endfacet
facet normal -0.786344979552452 0.617787644043367 0.0
  outer loop
    vertex -11.6705803464154 -249.618447206363 2.29122276707017e-015
    vertex -12.6429754511059 -250.568868093504 3.0
    vertex -11.6705803464154 -249.618447206363 3.0
  endloop
endfacet
facet normal -0.989888550452461 0.141847304109472 0.0
  outer loop
    vertex -10.6103974082857 -247.139450568275 3.0
    vertex -10.977305827893 -248.448736753171 2.29122276707017e-015
    vertex -10.977305827893 -248.448736753171 3.0
  endloop
endfacet
facet normal -0.919446132229901 0.393215983814843 0.0
  outer loop
    vertex -10.977305827893 -248.448736753171 2.29122276707017e-015
    vertex -10.6103974082857 -247.139450568275 3.0
    vertex -10.6103974082857 -247.139450568275 2.29122276707017e-015
  endloop
endfacet
facet normal -0.928192283661921 -0.372100906409092 0.0
  outer loop
    vertex -10.9317503702506 -244.46248503473 3.0
    vertex -10.5948592900448 -245.779814341478 2.29122276707017e-015
    vertex -10.5948592900448 -245.779814341478 3.0
  endloop
endfacet
facet normal -0.992871699829861 -0.119188034957212 0.0
  outer loop
    vertex -10.5948592900448 -245.779814341478 2.29122276707017e-015
    vertex -10.9317503702506 -244.46248503473 3.0
    vertex -10.9317503702506 -244.46248503473 2.29122276707017e-015
  endloop
endfacet
facet normal -0.393215983814838 -0.919446132229903 0.0
  outer loop
    vertex -13.7182434188581 -241.611566840084 3.0
    vertex -15.0275296037543 -241.244658420477 2.29122276707017e-015
    vertex -13.7182434188581 -241.611566840084 2.29122276707017e-015
  endloop
endfacet
facet normal -0.141847304109477 -0.989888550452461 0.0
  outer loop
    vertex -15.0275296037543 -241.244658420477 2.29122276707017e-015
    vertex -13.7182434188581 -241.611566840084 3.0
    vertex -15.0275296037543 -241.244658420477 3.0
  endloop
endfacet
facet normal -0.119188034957202 0.992871699829862 0.0
  outer loop
    vertex -16.5073823343646 -240.227681151647 3.0
    vertex -14.8844583048492 -240.246228160744 2.0
    vertex -16.5073823343646 -240.227681151647 2.0
  endloop
endfacet
facet normal 0.141847304109472 0.989888550452461 0.0
  outer loop
    vertex -14.8844583048492 -240.246228160744 2.0
    vertex -16.5073823343646 -240.227681151647 3.0
    vertex -14.8844583048492 -240.246228160744 3.0
  endloop
endfacet
facet normal 0.141847304109472 0.989888550452461 0.0
  outer loop
    vertex -14.8844583048492 -240.246228160744 3.0
    vertex -13.3216343898194 -240.684186843424 2.0
    vertex -14.8844583048492 -240.246228160744 2.0
  endloop
endfacet
facet normal 0.393215983814834 0.919446132229905 0.0
  outer loop
    vertex -13.3216343898194 -240.684186843424 2.0
    vertex -14.8844583048492 -240.246228160744 3.0
    vertex -13.3216343898194 -240.684186843424 3.0
  endloop
endfacet
facet normal 0.393215983814834 0.919446132229905 0.0
  outer loop
    vertex -13.3216343898194 -240.684186843424 3.0
    vertex -11.9254144563954 -241.511711039223 2.0
    vertex -13.3216343898194 -240.684186843424 2.0
  endloop
endfacet
facet normal 0.617787644043368 0.786344979552451 0.0
  outer loop
    vertex -11.9254144563954 -241.511711039223 2.0
    vertex -13.3216343898194 -240.684186843424 3.0
    vertex -11.9254144563954 -241.511711039223 3.0
  endloop
endfacet
facet normal 0.617787644043368 0.786344979552451 0.0
  outer loop
    vertex -11.9254144563954 -241.511711039223 2.0
    vertex -10.7909485856778 -242.672406341747 3.0
    vertex -10.7909485856778 -242.672406341747 2.0
  endloop
endfacet
facet normal 0.800258097272697 0.599655716015017 0.0
  outer loop
    vertex -10.7909485856778 -242.672406341747 3.0
    vertex -11.9254144563954 -241.511711039223 2.0
    vertex -11.9254144563954 -241.511711039223 3.0
  endloop
endfacet
facet normal 0.800258097272697 0.599655716015017 0.0
  outer loop
    vertex -10.7909485856778 -242.672406341747 2.0
    vertex -9.99554875196213 -244.087173284267 3.0
    vertex -9.99554875196213 -244.087173284267 2.0
  endloop
endfacet
facet normal 0.928192283661922 0.372100906409091 0.0
  outer loop
    vertex -9.99554875196213 -244.087173284267 3.0
    vertex -10.7909485856778 -242.672406341747 2.0
    vertex -10.7909485856778 -242.672406341747 3.0
  endloop
endfacet
facet normal 0.928192283661922 0.372100906409091 0.0
  outer loop
    vertex -9.99554875196213 -244.087173284267 2.0
    vertex -9.59342013945598 -245.659597837665 3.0
    vertex -9.59342013945598 -245.659597837665 2.0
  endloop
endfacet
facet normal 0.992871699829861 0.119188034957215 0.0
  outer loop
    vertex -9.59342013945598 -245.659597837665 3.0
    vertex -9.99554875196213 -244.087173284267 2.0
    vertex -9.99554875196213 -244.087173284267 3.0
  endloop
endfacet
facet normal 0.992871699829861 0.119188034957215 0.0
  outer loop
    vertex -9.59342013945598 -245.659597837665 2.0
    vertex -9.61196714855263 -247.28252186718 3.0
    vertex -9.61196714855263 -247.28252186718 2.0
  endloop
endfacet
facet normal 0.989888550452461 -0.141847304109471 0.0
  outer loop
    vertex -9.61196714855263 -247.28252186718 3.0
    vertex -9.59342013945598 -245.659597837665 2.0
    vertex -9.59342013945598 -245.659597837665 3.0
  endloop
endfacet
facet normal 0.989888550452461 -0.141847304109471 0.0
  outer loop
    vertex -9.61196714855263 -247.28252186718 2.0
    vertex -10.0499258312325 -248.84534578221 3.0
    vertex -10.0499258312325 -248.84534578221 2.0
  endloop
endfacet
facet normal 0.919446132229901 -0.393215983814844 0.0
  outer loop
    vertex -10.0499258312325 -248.84534578221 3.0
    vertex -9.61196714855263 -247.28252186718 2.0
    vertex -9.61196714855263 -247.28252186718 3.0
  endloop
endfacet
facet normal 0.919446132229901 -0.393215983814844 0.0
  outer loop
    vertex -10.0499258312325 -248.84534578221 2.0
    vertex -10.877450027032 -250.241565715634 3.0
    vertex -10.877450027032 -250.241565715634 2.0
  endloop
endfacet
facet normal 0.786344979552449 -0.617787644043371 0.0
  outer loop
    vertex -10.877450027032 -250.241565715634 3.0
    vertex -10.0499258312325 -248.84534578221 2.0
    vertex -10.0499258312325 -248.84534578221 3.0
  endloop
endfacet
facet normal 0.786344979552449 -0.617787644043371 0.0
  outer loop
    vertex -10.877450027032 -250.241565715634 3.0
    vertex -12.0381453295557 -251.376031586352 2.0
    vertex -10.877450027032 -250.241565715634 2.0
  endloop
endfacet
facet normal 0.599655716015019 -0.800258097272695 0.0
  outer loop
    vertex -12.0381453295557 -251.376031586352 2.0
    vertex -10.877450027032 -250.241565715634 3.0
    vertex -12.0381453295557 -251.376031586352 3.0
  endloop
endfacet
facet normal 0.599655716015019 -0.800258097272695 0.0
  outer loop
    vertex -12.0381453295557 -251.376031586352 3.0
    vertex -13.4529122720763 -252.171431420067 2.0
    vertex -12.0381453295557 -251.376031586352 2.0
  endloop
endfacet
facet normal 0.3721009064091 -0.928192283661918 0.0
  outer loop
    vertex -13.4529122720763 -252.171431420067 2.0
    vertex -12.0381453295557 -251.376031586352 3.0
    vertex -13.4529122720763 -252.171431420067 3.0
  endloop
endfacet
facet normal 0.3721009064091 -0.928192283661918 0.0
  outer loop
    vertex -13.4529122720763 -252.171431420067 3.0
    vertex -15.0253368254736 -252.573560032573 2.0
    vertex -13.4529122720763 -252.171431420067 2.0
  endloop
endfacet
facet normal 0.119188034957204 -0.992871699829862 0.0
  outer loop
    vertex -15.0253368254736 -252.573560032573 2.0
    vertex -13.4529122720763 -252.171431420067 3.0
    vertex -15.0253368254736 -252.573560032573 3.0
  endloop
endfacet
facet normal 0.119188034957204 -0.992871699829862 0.0
  outer loop
    vertex -15.0253368254736 -252.573560032573 3.0
    vertex -16.6482608549889 -252.555013023477 2.0
    vertex -15.0253368254736 -252.573560032573 2.0
  endloop
endfacet
facet normal -0.141847304109472 -0.989888550452461 0.0
  outer loop
    vertex -16.6482608549889 -252.555013023477 2.0
    vertex -15.0253368254736 -252.573560032573 3.0
    vertex -16.6482608549889 -252.555013023477 3.0
  endloop
endfacet
facet normal -0.141847304109472 -0.989888550452461 0.0
  outer loop
    vertex -16.6482608549889 -252.555013023477 3.0
    vertex -18.2110847700188 -252.117054340797 2.0
    vertex -16.6482608549889 -252.555013023477 2.0
  endloop
endfacet
facet normal -0.393215983814838 -0.919446132229903 0.0
  outer loop
    vertex -18.2110847700188 -252.117054340797 2.0
    vertex -16.6482608549889 -252.555013023477 3.0
    vertex -18.2110847700188 -252.117054340797 3.0
  endloop
endfacet
facet normal -0.393215983814838 -0.919446132229903 0.0
  outer loop
    vertex -18.2110847700188 -252.117054340797 3.0
    vertex -19.6073047034427 -251.289530144997 2.0
    vertex -18.2110847700188 -252.117054340797 2.0
  endloop
endfacet
facet normal -0.617787644043369 -0.786344979552451 0.0
  outer loop
    vertex -19.6073047034427 -251.289530144997 2.0
    vertex -18.2110847700188 -252.117054340797 3.0
    vertex -19.6073047034427 -251.289530144997 3.0
  endloop
endfacet
facet normal -0.800258097272694 -0.599655716015021 0.0
  outer loop
    vertex -20.7417705741604 -250.128834842474 3.0
    vertex -19.6073047034427 -251.289530144997 2.0
    vertex -19.6073047034427 -251.289530144997 3.0
  endloop
endfacet
facet normal -0.617787644043369 -0.786344979552451 0.0
  outer loop
    vertex -19.6073047034427 -251.289530144997 2.0
    vertex -20.7417705741604 -250.128834842474 3.0
    vertex -20.7417705741604 -250.128834842474 2.0
  endloop
endfacet
facet normal -0.928192283661922 -0.372100906409091 0.0
  outer loop
    vertex -21.537170407876 -248.714067899953 3.0
    vertex -20.7417705741604 -250.128834842474 2.0
    vertex -20.7417705741604 -250.128834842474 3.0
  endloop
endfacet
facet normal -0.800258097272694 -0.599655716015021 0.0
  outer loop
    vertex -20.7417705741604 -250.128834842474 2.0
    vertex -21.537170407876 -248.714067899953 3.0
    vertex -21.537170407876 -248.714067899953 2.0
  endloop
endfacet
facet normal -0.992871699829861 -0.119188034957215 0.0
  outer loop
    vertex -21.9392990203822 -247.141643346556 3.0
    vertex -21.537170407876 -248.714067899953 2.0
    vertex -21.537170407876 -248.714067899953 3.0
  endloop
endfacet
facet normal -0.928192283661922 -0.372100906409091 0.0
  outer loop
    vertex -21.537170407876 -248.714067899953 2.0
    vertex -21.9392990203822 -247.141643346556 3.0
    vertex -21.9392990203822 -247.141643346556 2.0
  endloop
endfacet
facet normal -0.989888550452461 0.141847304109471 0.0
  outer loop
    vertex -21.9207520112855 -245.51871931704 3.0
    vertex -21.9392990203822 -247.141643346556 2.0
    vertex -21.9392990203822 -247.141643346556 3.0
  endloop
endfacet
facet normal -0.992871699829861 -0.119188034957215 0.0
  outer loop
    vertex -21.9392990203822 -247.141643346556 2.0
    vertex -21.9207520112855 -245.51871931704 3.0
    vertex -21.9207520112855 -245.51871931704 2.0
  endloop
endfacet
facet normal -0.919446132229901 0.393215983814845 0.0
  outer loop
    vertex -21.4827933286057 -243.955895402011 3.0
    vertex -21.9207520112855 -245.51871931704 2.0
    vertex -21.9207520112855 -245.51871931704 3.0
  endloop
endfacet
facet normal -0.989888550452461 0.141847304109471 0.0
  outer loop
    vertex -21.9207520112855 -245.51871931704 2.0
    vertex -21.4827933286057 -243.955895402011 3.0
    vertex -21.4827933286057 -243.955895402011 2.0
  endloop
endfacet
facet normal -0.786344979552449 0.61778764404337 0.0
  outer loop
    vertex -20.6552691328062 -242.559675468587 3.0
    vertex -21.4827933286057 -243.955895402011 2.0
    vertex -21.4827933286057 -243.955895402011 3.0
  endloop
endfacet
facet normal -0.919446132229901 0.393215983814845 0.0
  outer loop
    vertex -21.4827933286057 -243.955895402011 2.0
    vertex -20.6552691328062 -242.559675468587 3.0
    vertex -20.6552691328062 -242.559675468587 2.0
  endloop
endfacet
facet normal -0.786344979552449 0.61778764404337 0.0
  outer loop
    vertex -20.6552691328062 -242.559675468587 3.0
    vertex -19.4945738302824 -241.425209597869 2.0
    vertex -20.6552691328062 -242.559675468587 2.0
  endloop
endfacet
facet normal -0.599655716015023 0.800258097272692 0.0
  outer loop
    vertex -19.4945738302824 -241.425209597869 2.0
    vertex -20.6552691328062 -242.559675468587 3.0
    vertex -19.4945738302824 -241.425209597869 3.0
  endloop
endfacet
facet normal -0.599655716015023 0.800258097272692 0.0
  outer loop
    vertex -19.4945738302824 -241.425209597869 3.0
    vertex -18.0798068877619 -240.629809764153 2.0
    vertex -19.4945738302824 -241.425209597869 2.0
  endloop
endfacet
facet normal -0.372100906409103 0.928192283661917 0.0
  outer loop
    vertex -18.0798068877619 -240.629809764153 2.0
    vertex -19.4945738302824 -241.425209597869 3.0
    vertex -18.0798068877619 -240.629809764153 3.0
  endloop
endfacet
facet normal -0.372100906409103 0.928192283661917 0.0
  outer loop
    vertex -18.0798068877619 -240.629809764153 3.0
    vertex -16.5073823343646 -240.227681151647 2.0
    vertex -18.0798068877619 -240.629809764153 2.0
  endloop
endfacet
facet normal -0.119188034957202 0.992871699829862 0.0
  outer loop
    vertex -16.5073823343646 -240.227681151647 2.0
    vertex -18.0798068877619 -240.629809764153 3.0
    vertex -16.5073823343646 -240.227681151647 3.0
  endloop
endfacet
facet normal 0.0 0.0 1.0
  outer loop
    vertex -21.537170407876 -248.714067899953 3.0
    vertex -21.9207520112855 -245.51871931704 3.0
    vertex -21.9392990203822 -247.141643346556 3.0
  endloop
endfacet
facet normal 0.0 0.0 1.0
  outer loop
    vertex -21.9207520112855 -245.51871931704 3.0
    vertex -21.537170407876 -248.714067899953 3.0
    vertex -21.4827933286057 -243.955895402011 3.0
  endloop
endfacet
facet normal 0.0 0.0 1.0
  outer loop
    vertex -21.4827933286057 -243.955895402011 3.0
    vertex -21.537170407876 -248.714067899953 3.0
    vertex -20.7417705741604 -250.128834842474 3.0
  endloop
endfacet
facet normal 0.0 0.0 1.0
  outer loop
    vertex -21.4827933286057 -243.955895402011 3.0
    vertex -20.7417705741604 -250.128834842474 3.0
    vertex -20.9378598697934 -247.021426842743 3.0
  endloop
endfacet
facet normal 0.0 0.0 1.0
  outer loop
    vertex -20.9378598697934 -247.021426842743 3.0
    vertex -20.7417705741604 -250.128834842474 3.0
    vertex -20.6009687895876 -248.338756149491 3.0
  endloop
endfacet
facet normal 0.0 0.0 1.0
  outer loop
    vertex -20.6009687895876 -248.338756149491 3.0
    vertex -20.7417705741604 -250.128834842474 3.0
    vertex -19.6073047034427 -251.289530144997 3.0
  endloop
endfacet
facet normal 0.0 0.0 1.0
  outer loop
    vertex -20.6009687895876 -248.338756149491 3.0
    vertex -19.6073047034427 -251.289530144997 3.0
    vertex -19.9346070813124 -249.524004720924 3.0
  endloop
endfacet
facet normal 0.0 0.0 1.0
  outer loop
    vertex -19.9346070813124 -249.524004720924 3.0
    vertex -19.6073047034427 -251.289530144997 3.0
    vertex -18.984186194172 -250.496399825614 3.0
  endloop
endfacet
facet normal 0.0 0.0 1.0
  outer loop
    vertex -18.984186194172 -250.496399825614 3.0
    vertex -19.6073047034427 -251.289530144997 3.0
    vertex -18.2110847700188 -252.117054340797 3.0
  endloop
endfacet
facet normal 0.0 0.0 1.0
  outer loop
    vertex -18.984186194172 -250.496399825614 3.0
    vertex -18.2110847700188 -252.117054340797 3.0
    vertex -17.8144757409801 -251.189674344136 3.0
  endloop
endfacet
facet normal 0.0 0.0 1.0
  outer loop
    vertex -17.8144757409801 -251.189674344136 3.0
    vertex -18.2110847700188 -252.117054340797 3.0
    vertex -16.6482608549889 -252.555013023477 3.0
  endloop
endfacet
facet normal 0.0 0.0 1.0
  outer loop
    vertex -17.8144757409801 -251.189674344136 3.0
    vertex -16.6482608549889 -252.555013023477 3.0
    vertex -16.5051895560839 -251.556582763744 3.0
  endloop
endfacet
facet normal 0.0 0.0 1.0
  outer loop
    vertex -16.5051895560839 -251.556582763744 3.0
    vertex -16.6482608549889 -252.555013023477 3.0
    vertex -15.0253368254736 -252.573560032573 3.0
  endloop
endfacet
facet normal 0.0 0.0 1.0
  outer loop
    vertex -16.5051895560839 -251.556582763744 3.0
    vertex -15.0253368254736 -252.573560032573 3.0
    vertex -15.1455533292862 -251.572120881985 3.0
  endloop
endfacet
facet normal 0.0 0.0 1.0
  outer loop
    vertex -15.1455533292862 -251.572120881985 3.0
    vertex -15.0253368254736 -252.573560032573 3.0
    vertex -13.8282240225386 -251.235229801779 3.0
  endloop
endfacet
facet normal 0.0 0.0 1.0
  outer loop
    vertex -13.8282240225386 -251.235229801779 3.0
    vertex -15.0253368254736 -252.573560032573 3.0
    vertex -13.4529122720763 -252.171431420067 3.0
  endloop
endfacet
facet normal 0.0 0.0 1.0
  outer loop
    vertex -13.8282240225386 -251.235229801779 3.0
    vertex -13.4529122720763 -252.171431420067 3.0
    vertex -12.6429754511059 -250.568868093504 3.0
  endloop
endfacet
facet normal 0.0 0.0 1.0
  outer loop
    vertex -12.6429754511059 -250.568868093504 3.0
    vertex -13.4529122720763 -252.171431420067 3.0
    vertex -12.0381453295557 -251.376031586352 3.0
  endloop
endfacet
facet normal 0.0 0.0 1.0
  outer loop
    vertex -12.6429754511059 -250.568868093504 3.0
    vertex -12.0381453295557 -251.376031586352 3.0
    vertex -11.6705803464154 -249.618447206363 3.0
  endloop
endfacet
facet normal 0.0 0.0 1.0
  outer loop
    vertex -11.6705803464154 -249.618447206363 3.0
    vertex -12.0381453295557 -251.376031586352 3.0
    vertex -10.877450027032 -250.241565715634 3.0
  endloop
endfacet
facet normal 0.0 0.0 1.0
  outer loop
    vertex -11.6705803464154 -249.618447206363 3.0
    vertex -10.877450027032 -250.241565715634 3.0
    vertex -10.977305827893 -248.448736753171 3.0
  endloop
endfacet
facet normal 0.0 0.0 1.0
  outer loop
    vertex -10.977305827893 -248.448736753171 3.0
    vertex -10.877450027032 -250.241565715634 3.0
    vertex -10.6103974082857 -247.139450568275 3.0
  endloop
endfacet
facet normal 0.0 0.0 1.0
  outer loop
    vertex -10.6103974082857 -247.139450568275 3.0
    vertex -10.877450027032 -250.241565715634 3.0
    vertex -10.0499258312325 -248.84534578221 3.0
  endloop
endfacet
facet normal 0.0 0.0 1.0
  outer loop
    vertex -10.6103974082857 -247.139450568275 3.0
    vertex -10.0499258312325 -248.84534578221 3.0
    vertex -10.5948592900448 -245.779814341478 3.0
  endloop
endfacet
facet normal 0.0 0.0 1.0
  outer loop
    vertex -21.4827933286057 -243.955895402011 3.0
    vertex -20.9223217515525 -245.661790615945 3.0
    vertex -20.6552691328062 -242.559675468587 3.0
  endloop
endfacet
facet normal 0.0 0.0 1.0
  outer loop
    vertex -20.9223217515525 -245.661790615945 3.0
    vertex -21.4827933286057 -243.955895402011 3.0
    vertex -20.9378598697934 -247.021426842743 3.0
  endloop
endfacet
facet normal 0.0 0.0 1.0
  outer loop
    vertex -20.6552691328062 -242.559675468587 3.0
    vertex -20.9223217515525 -245.661790615945 3.0
    vertex -20.5554133319452 -244.352504431049 3.0
  endloop
endfacet
facet normal 0.0 0.0 1.0
  outer loop
    vertex -20.6552691328062 -242.559675468587 3.0
    vertex -20.5554133319452 -244.352504431049 3.0
    vertex -19.4945738302824 -241.425209597869 3.0
  endloop
endfacet
facet normal 0.0 0.0 1.0
  outer loop
    vertex -19.4945738302824 -241.425209597869 3.0
    vertex -20.5554133319452 -244.352504431049 3.0
    vertex -19.8621388134228 -243.182793977857 3.0
  endloop
endfacet
facet normal 0.0 0.0 1.0
  outer loop
    vertex -19.4945738302824 -241.425209597869 3.0
    vertex -19.8621388134228 -243.182793977857 3.0
    vertex -18.8897437087323 -242.232373090717 3.0
  endloop
endfacet
facet normal 0.0 0.0 1.0
  outer loop
    vertex -19.4945738302824 -241.425209597869 3.0
    vertex -18.8897437087323 -242.232373090717 3.0
    vertex -18.0798068877619 -240.629809764153 3.0
  endloop
endfacet
facet normal 0.0 0.0 1.0
  outer loop
    vertex -18.0798068877619 -240.629809764153 3.0
    vertex -18.8897437087323 -242.232373090717 3.0
    vertex -17.7044951372996 -241.566011382442 3.0
  endloop
endfacet
facet normal 0.0 0.0 1.0
  outer loop
    vertex -18.0798068877619 -240.629809764153 3.0
    vertex -17.7044951372996 -241.566011382442 3.0
    vertex -16.5073823343646 -240.227681151647 3.0
  endloop
endfacet
facet normal 0.0 0.0 1.0
  outer loop
    vertex -16.5073823343646 -240.227681151647 3.0
    vertex -17.7044951372996 -241.566011382442 3.0
    vertex -16.387165830552 -241.229120302236 3.0
  endloop
endfacet
facet normal 0.0 0.0 1.0
  outer loop
    vertex -16.5073823343646 -240.227681151647 3.0
    vertex -16.387165830552 -241.229120302236 3.0
    vertex -14.8844583048492 -240.246228160744 3.0
  endloop
endfacet
facet normal 0.0 0.0 1.0
  outer loop
    vertex -14.8844583048492 -240.246228160744 3.0
    vertex -16.387165830552 -241.229120302236 3.0
    vertex -15.0275296037543 -241.244658420477 3.0
  endloop
endfacet
facet normal 0.0 0.0 1.0
  outer loop
    vertex -14.8844583048492 -240.246228160744 3.0
    vertex -15.0275296037543 -241.244658420477 3.0
    vertex -13.7182434188581 -241.611566840084 3.0
  endloop
endfacet
facet normal 0.0 0.0 1.0
  outer loop
    vertex -14.8844583048492 -240.246228160744 3.0
    vertex -13.7182434188581 -241.611566840084 3.0
    vertex -13.3216343898194 -240.684186843424 3.0
  endloop
endfacet
facet normal 0.0 0.0 1.0
  outer loop
    vertex -13.3216343898194 -240.684186843424 3.0
    vertex -13.7182434188581 -241.611566840084 3.0
    vertex -12.5485329656662 -242.304841358607 3.0
  endloop
endfacet
facet normal 0.0 0.0 1.0
  outer loop
    vertex -13.3216343898194 -240.684186843424 3.0
    vertex -12.5485329656662 -242.304841358607 3.0
    vertex -11.9254144563954 -241.511711039223 3.0
  endloop
endfacet
facet normal 0.0 0.0 1.0
  outer loop
    vertex -11.9254144563954 -241.511711039223 3.0
    vertex -12.5485329656662 -242.304841358607 3.0
    vertex -11.5981120785258 -243.277236463297 3.0
  endloop
endfacet
facet normal 0.0 0.0 1.0
  outer loop
    vertex -11.9254144563954 -241.511711039223 3.0
    vertex -11.5981120785258 -243.277236463297 3.0
    vertex -10.7909485856778 -242.672406341747 3.0
  endloop
endfacet
facet normal 0.0 0.0 1.0
  outer loop
    vertex -10.7909485856778 -242.672406341747 3.0
    vertex -11.5981120785258 -243.277236463297 3.0
    vertex -10.9317503702506 -244.46248503473 3.0
  endloop
endfacet
facet normal 0.0 0.0 1.0
  outer loop
    vertex -10.7909485856778 -242.672406341747 3.0
    vertex -10.9317503702506 -244.46248503473 3.0
    vertex -10.5948592900448 -245.779814341478 3.0
  endloop
endfacet
facet normal 0.0 0.0 1.0
  outer loop
    vertex -10.7909485856778 -242.672406341747 3.0
    vertex -10.5948592900448 -245.779814341478 3.0
    vertex -9.99554875196213 -244.087173284267 3.0
  endloop
endfacet
facet normal 0.0 0.0 1.0
  outer loop
    vertex -9.99554875196213 -244.087173284267 3.0
    vertex -10.5948592900448 -245.779814341478 3.0
    vertex -10.0499258312325 -248.84534578221 3.0
  endloop
endfacet
facet normal 0.0 0.0 1.0
  outer loop
    vertex -9.99554875196213 -244.087173284267 3.0
    vertex -10.0499258312325 -248.84534578221 3.0
    vertex -9.61196714855263 -247.28252186718 3.0
  endloop
endfacet
facet normal 0.0 0.0 1.0
  outer loop
    vertex -9.99554875196213 -244.087173284267 3.0
    vertex -9.61196714855263 -247.28252186718 3.0
    vertex -9.59342013945598 -245.659597837665 3.0
  endloop
endfacet
facet normal 0.372100906409096 -0.928192283661919 0.0
  outer loop
    vertex -17.7044951372996 -241.566011382442 3.0
    vertex -18.8897437087323 -242.232373090717 2.29122276707017e-015
    vertex -17.7044951372996 -241.566011382442 2.29122276707017e-015
  endloop
endfacet
facet normal 0.599655716015022 -0.800258097272693 0.0
  outer loop
    vertex -18.8897437087323 -242.232373090717 2.29122276707017e-015
    vertex -17.7044951372996 -241.566011382442 3.0
    vertex -18.8897437087323 -242.232373090717 3.0
  endloop
endfacet
facet normal 0.800258097272696 0.599655716015018 0.0
  outer loop
    vertex -19.9346070813124 -249.524004720924 2.29122276707017e-015
    vertex -18.984186194172 -250.496399825614 3.0
    vertex -18.984186194172 -250.496399825614 2.29122276707017e-015
  endloop
endfacet
facet normal 0.617787644043364 0.786344979552455 0.0
  outer loop
    vertex -18.984186194172 -250.496399825614 3.0
    vertex -19.9346070813124 -249.524004720924 2.29122276707017e-015
    vertex -19.9346070813124 -249.524004720924 3.0
  endloop
endfacet
facet normal 0.393215983814838 0.919446132229903 0.0
  outer loop
    vertex -17.8144757409801 -251.189674344136 3.0
    vertex -16.5051895560839 -251.556582763744 2.29122276707017e-015
    vertex -17.8144757409801 -251.189674344136 2.29122276707017e-015
  endloop
endfacet
facet normal 0.141847304109476 0.989888550452461 0.0
  outer loop
    vertex -16.5051895560839 -251.556582763744 2.29122276707017e-015
    vertex -17.8144757409801 -251.189674344136 3.0
    vertex -16.5051895560839 -251.556582763744 3.0
  endloop
endfacet
facet normal 0.141847304109476 0.989888550452461 0.0
  outer loop
    vertex -16.5051895560839 -251.556582763744 3.0
    vertex -15.1455533292862 -251.572120881985 2.29122276707017e-015
    vertex -16.5051895560839 -251.556582763744 2.29122276707017e-015
  endloop
endfacet
facet normal -0.1191880349572 0.992871699829863 0.0
  outer loop
    vertex -15.1455533292862 -251.572120881985 2.29122276707017e-015
    vertex -16.5051895560839 -251.556582763744 3.0
    vertex -15.1455533292862 -251.572120881985 3.0
  endloop
endfacet
facet normal 0.119188034957199 -0.992871699829863 0.0
  outer loop
    vertex -16.387165830552 -241.229120302236 3.0
    vertex -17.7044951372996 -241.566011382442 2.29122276707017e-015
    vertex -16.387165830552 -241.229120302236 2.29122276707017e-015
  endloop
endfacet
facet normal 0.372100906409096 -0.928192283661919 0.0
  outer loop
    vertex -17.7044951372996 -241.566011382442 2.29122276707017e-015
    vertex -16.387165830552 -241.229120302236 3.0
    vertex -17.7044951372996 -241.566011382442 3.0
  endloop
endfacet
facet normal -0.1191880349572 0.992871699829863 0.0
  outer loop
    vertex -15.1455533292862 -251.572120881985 3.0
    vertex -13.8282240225386 -251.235229801779 2.29122276707017e-015
    vertex -15.1455533292862 -251.572120881985 2.29122276707017e-015
  endloop
endfacet
facet normal -0.372100906409096 0.92819228366192 0.0
  outer loop
    vertex -13.8282240225386 -251.235229801779 2.29122276707017e-015
    vertex -15.1455533292862 -251.572120881985 3.0
    vertex -13.8282240225386 -251.235229801779 3.0
  endloop
endfacet
facet normal -0.141847304109477 -0.989888550452461 0.0
  outer loop
    vertex -15.0275296037543 -241.244658420477 3.0
    vertex -16.387165830552 -241.229120302236 2.29122276707017e-015
    vertex -15.0275296037543 -241.244658420477 2.29122276707017e-015
  endloop
endfacet
facet normal 0.119188034957199 -0.992871699829863 0.0
  outer loop
    vertex -16.387165830552 -241.229120302236 2.29122276707017e-015
    vertex -15.0275296037543 -241.244658420477 3.0
    vertex -16.387165830552 -241.229120302236 3.0
  endloop
endfacet
facet normal 0.617787644043364 0.786344979552455 0.0
  outer loop
    vertex -18.984186194172 -250.496399825614 3.0
    vertex -17.8144757409801 -251.189674344136 2.29122276707017e-015
    vertex -18.984186194172 -250.496399825614 2.29122276707017e-015
  endloop
endfacet
facet normal 0.393215983814838 0.919446132229903 0.0
  outer loop
    vertex -17.8144757409801 -251.189674344136 2.29122276707017e-015
    vertex -18.984186194172 -250.496399825614 3.0
    vertex -17.8144757409801 -251.189674344136 3.0
  endloop
endfacet
facet normal 0.599655716015022 -0.800258097272693 0.0
  outer loop
    vertex -18.8897437087323 -242.232373090717 3.0
    vertex -19.8621388134228 -243.182793977857 2.29122276707017e-015
    vertex -18.8897437087323 -242.232373090717 2.29122276707017e-015
  endloop
endfacet
facet normal 0.786344979552452 -0.617787644043367 0.0
  outer loop
    vertex -19.8621388134228 -243.182793977857 2.29122276707017e-015
    vertex -18.8897437087323 -242.232373090717 3.0
    vertex -19.8621388134228 -243.182793977857 3.0
  endloop
endfacet
facet normal 0.786344979552452 -0.617787644043367 0.0
  outer loop
    vertex -19.8621388134228 -243.182793977857 2.29122276707017e-015
    vertex -20.5554133319452 -244.352504431049 3.0
    vertex -20.5554133319452 -244.352504431049 2.29122276707017e-015
  endloop
endfacet
facet normal 0.919446132229902 -0.393215983814841 0.0
  outer loop
    vertex -20.5554133319452 -244.352504431049 3.0
    vertex -19.8621388134228 -243.182793977857 2.29122276707017e-015
    vertex -19.8621388134228 -243.182793977857 3.0
  endloop
endfacet
facet normal 0.928192283661923 0.372100906409088 0.0
  outer loop
    vertex -20.6009687895876 -248.338756149491 2.29122276707017e-015
    vertex -19.9346070813124 -249.524004720924 3.0
    vertex -19.9346070813124 -249.524004720924 2.29122276707017e-015
  endloop
endfacet
facet normal 0.800258097272696 0.599655716015018 0.0
  outer loop
    vertex -19.9346070813124 -249.524004720924 3.0
    vertex -20.6009687895876 -248.338756149491 2.29122276707017e-015
    vertex -20.6009687895876 -248.338756149491 3.0
  endloop
endfacet
facet normal 0.919446132229902 -0.393215983814841 0.0
  outer loop
    vertex -20.5554133319452 -244.352504431049 2.29122276707017e-015
    vertex -20.9223217515525 -245.661790615945 3.0
    vertex -20.9223217515525 -245.661790615945 2.29122276707017e-015
  endloop
endfacet
facet normal 0.989888550452461 -0.141847304109472 0.0
  outer loop
    vertex -20.9223217515525 -245.661790615945 3.0
    vertex -20.5554133319452 -244.352504431049 2.29122276707017e-015
    vertex -20.5554133319452 -244.352504431049 3.0
  endloop
endfacet
facet normal 0.989888550452461 -0.141847304109472 0.0
  outer loop
    vertex -20.9223217515525 -245.661790615945 2.29122276707017e-015
    vertex -20.9378598697934 -247.021426842743 3.0
    vertex -20.9378598697934 -247.021426842743 2.29122276707017e-015
  endloop
endfacet
facet normal 0.992871699829861 0.119188034957213 0.0
  outer loop
    vertex -20.9378598697934 -247.021426842743 3.0
    vertex -20.9223217515525 -245.661790615945 2.29122276707017e-015
    vertex -20.9223217515525 -245.661790615945 3.0
  endloop
endfacet
facet normal 0.992871699829861 0.119188034957213 0.0
  outer loop
    vertex -20.9378598697934 -247.021426842743 2.29122276707017e-015
    vertex -20.6009687895876 -248.338756149491 3.0
    vertex -20.6009687895876 -248.338756149491 2.29122276707017e-015
  endloop
endfacet
facet normal 0.928192283661923 0.372100906409088 0.0
  outer loop
    vertex -20.6009687895876 -248.338756149491 3.0
    vertex -20.9378598697934 -247.021426842743 2.29122276707017e-015
    vertex -20.9378598697934 -247.021426842743 3.0
  endloop
endfacet
facet normal -6.28233247643107e-015 1.0 0.0
  outer loop
    vertex -15.7663595799191 -232.39199163153 2.0
    vertex -12.1406596091464 -232.869324088185 2.29122276707017e-015
    vertex -15.7663595799191 -232.39199163153 2.29122276707017e-015
  endloop
endfacet
facet normal 0.258819045102523 0.965925826289068 0.0
  outer loop
    vertex -12.1406596091464 -232.869324088185 2.29122276707017e-015
    vertex -15.7663595799191 -232.39199163153 2.0
    vertex -12.1406596091464 -232.869324088185 2.0
  endloop
endfacet
facet normal -0.372100906409096 0.92819228366192 0.0
  outer loop
    vertex -13.8282240225386 -251.235229801779 3.0
    vertex -12.6429754511059 -250.568868093504 2.29122276707017e-015
    vertex -13.8282240225386 -251.235229801779 2.29122276707017e-015
  endloop
endfacet
facet normal -0.599655716015023 0.800258097272693 0.0
  outer loop
    vertex -12.6429754511059 -250.568868093504 2.29122276707017e-015
    vertex -13.8282240225386 -251.235229801779 3.0
    vertex -12.6429754511059 -250.568868093504 3.0
  endloop
endfacet
facet normal 0.258819045102523 0.965925826289068 0.0
  outer loop
    vertex -12.1406596091464 -232.869324088185 2.0
    vertex -8.76204509962896 -234.268792040058 2.29122276707017e-015
    vertex -12.1406596091464 -232.869324088185 2.29122276707017e-015
  endloop
endfacet
facet normal 0.500000000000001 0.866025403784438 0.0
  outer loop
    vertex -8.76204509962896 -234.268792040058 2.29122276707017e-015
    vertex -12.1406596091464 -232.869324088185 2.0
    vertex -8.76204509962896 -234.268792040058 2.0
  endloop
endfacet
facet normal 0.0 0.0 -1.0
  outer loop
    vertex -22.7706740602092 -234.268792040058 2.29122276707017e-015
    vertex -20.9223217515525 -245.661790615945 2.29122276707017e-015
    vertex -20.9378598697934 -247.021426842743 2.29122276707017e-015
  endloop
endfacet
facet normal 0.0 0.0 -1.0
  outer loop
    vertex -20.9223217515525 -245.661790615945 2.29122276707017e-015
    vertex -22.7706740602092 -234.268792040058 2.29122276707017e-015
    vertex -19.3920595506918 -232.869324088185 2.29122276707017e-015
  endloop
endfacet
facet normal 0.0 0.0 -1.0
  outer loop
    vertex -20.9223217515525 -245.661790615945 2.29122276707017e-015
    vertex -19.3920595506918 -232.869324088185 2.29122276707017e-015
    vertex -20.5554133319452 -244.352504431049 2.29122276707017e-015
  endloop
endfacet
facet normal 0.0 0.0 -1.0
  outer loop
    vertex -20.5554133319452 -244.352504431049 2.29122276707017e-015
    vertex -19.3920595506918 -232.869324088185 2.29122276707017e-015
    vertex -19.8621388134228 -243.182793977857 2.29122276707017e-015
  endloop
endfacet
facet normal 0.0 0.0 -1.0
  outer loop
    vertex -19.8621388134228 -243.182793977857 2.29122276707017e-015
    vertex -19.3920595506918 -232.869324088185 2.29122276707017e-015
    vertex -18.8897437087323 -242.232373090717 2.29122276707017e-015
  endloop
endfacet
facet normal 0.0 0.0 -1.0
  outer loop
    vertex -18.8897437087323 -242.232373090717 2.29122276707017e-015
    vertex -19.3920595506918 -232.869324088185 2.29122276707017e-015
    vertex -15.7663595799191 -232.39199163153 2.29122276707017e-015
  endloop
endfacet
facet normal 0.0 0.0 -1.0
  outer loop
    vertex -18.8897437087323 -242.232373090717 2.29122276707017e-015
    vertex -15.7663595799191 -232.39199163153 2.29122276707017e-015
    vertex -17.7044951372996 -241.566011382442 2.29122276707017e-015
  endloop
endfacet
facet normal 0.0 0.0 -1.0
  outer loop
    vertex -17.7044951372996 -241.566011382442 2.29122276707017e-015
    vertex -15.7663595799191 -232.39199163153 2.29122276707017e-015
    vertex -16.387165830552 -241.229120302236 2.29122276707017e-015
  endloop
endfacet
facet normal 0.0 0.0 -1.0
  outer loop
    vertex -16.387165830552 -241.229120302236 2.29122276707017e-015
    vertex -15.7663595799191 -232.39199163153 2.29122276707017e-015
    vertex -15.0275296037543 -241.244658420477 2.29122276707017e-015
  endloop
endfacet
facet normal 0.0 0.0 -1.0
  outer loop
    vertex -15.0275296037543 -241.244658420477 2.29122276707017e-015
    vertex -15.7663595799191 -232.39199163153 2.29122276707017e-015
    vertex -12.1406596091464 -232.869324088185 2.29122276707017e-015
  endloop
endfacet
facet normal 0.0 0.0 -1.0
  outer loop
    vertex -15.0275296037543 -241.244658420477 2.29122276707017e-015
    vertex -12.1406596091464 -232.869324088185 2.29122276707017e-015
    vertex -13.7182434188581 -241.611566840084 2.29122276707017e-015
  endloop
endfacet
facet normal 0.0 0.0 -1.0
  outer loop
    vertex -13.7182434188581 -241.611566840084 2.29122276707017e-015
    vertex -12.1406596091464 -232.869324088185 2.29122276707017e-015
    vertex -12.5485329656662 -242.304841358607 2.29122276707017e-015
  endloop
endfacet
facet normal 0.0 0.0 -1.0
  outer loop
    vertex -12.5485329656662 -242.304841358607 2.29122276707017e-015
    vertex -12.1406596091464 -232.869324088185 2.29122276707017e-015
    vertex -11.5981120785258 -243.277236463297 2.29122276707017e-015
  endloop
endfacet
facet normal 0.0 0.0 -1.0
  outer loop
    vertex -11.5981120785258 -243.277236463297 2.29122276707017e-015
    vertex -12.1406596091464 -232.869324088185 2.29122276707017e-015
    vertex -8.76204509962896 -234.268792040058 2.29122276707017e-015
  endloop
endfacet
facet normal 0.0 0.0 -1.0
  outer loop
    vertex -11.5981120785258 -243.277236463297 2.29122276707017e-015
    vertex -8.76204509962896 -234.268792040058 2.29122276707017e-015
    vertex -10.9317503702506 -244.46248503473 2.29122276707017e-015
  endloop
endfacet
facet normal 0.0 0.0 -1.0
  outer loop
    vertex -10.9317503702506 -244.46248503473 2.29122276707017e-015
    vertex -8.76204509962896 -234.268792040058 2.29122276707017e-015
    vertex -10.5948592900448 -245.779814341478 2.29122276707017e-015
  endloop
endfacet
facet normal 0.0 0.0 -1.0
  outer loop
    vertex -29.2976560838444 -242.774920621337 2.29122276707017e-015
    vertex -29.2976560838444 -250.026320562883 2.29122276707017e-015
    vertex -29.7749885404992 -246.40062059211 2.29122276707017e-015
  endloop
endfacet
facet normal 0.0 0.0 -1.0
  outer loop
    vertex -29.2976560838444 -250.026320562883 2.29122276707017e-015
    vertex -29.2976560838444 -242.774920621337 2.29122276707017e-015
    vertex -27.8981881319719 -253.4049350724 2.29122276707017e-015
  endloop
endfacet
facet normal 0.0 0.0 -1.0
  outer loop
    vertex -27.8981881319719 -253.4049350724 2.29122276707017e-015
    vertex -29.2976560838444 -242.774920621337 2.29122276707017e-015
    vertex -27.8981881319719 -239.39630611182 2.29122276707017e-015
  endloop
endfacet
facet normal 0.0 0.0 -1.0
  outer loop
    vertex -27.8981881319719 -253.4049350724 2.29122276707017e-015
    vertex -27.8981881319719 -239.39630611182 2.29122276707017e-015
    vertex -25.6719561130715 -236.495024058958 2.29122276707017e-015
  endloop
endfacet
facet normal 0.0 0.0 -1.0
  outer loop
    vertex -27.8981881319719 -253.4049350724 2.29122276707017e-015
    vertex -25.6719561130715 -236.495024058958 2.29122276707017e-015
    vertex -25.6719561130715 -256.306217125263 2.29122276707017e-015
  endloop
endfacet
facet normal 0.0 0.0 -1.0
  outer loop
    vertex -25.6719561130715 -256.306217125263 2.29122276707017e-015
    vertex -25.6719561130715 -236.495024058958 2.29122276707017e-015
    vertex -22.7706740602093 -258.532449144163 2.29122276707017e-015
  endloop
endfacet
facet normal 0.0 0.0 -1.0
  outer loop
    vertex -22.7706740602093 -258.532449144163 2.29122276707017e-015
    vertex -25.6719561130715 -236.495024058958 2.29122276707017e-015
    vertex -22.7706740602092 -234.268792040058 2.29122276707017e-015
  endloop
endfacet
facet normal 0.0 0.0 -1.0
  outer loop
    vertex -22.7706740602093 -258.532449144163 2.29122276707017e-015
    vertex -22.7706740602092 -234.268792040058 2.29122276707017e-015
    vertex -19.3920595506918 -259.931917096036 2.29122276707017e-015
  endloop
endfacet
facet normal 0.0 0.0 -1.0
  outer loop
    vertex -19.3920595506918 -259.931917096036 2.29122276707017e-015
    vertex -22.7706740602092 -234.268792040058 2.29122276707017e-015
    vertex -20.9378598697934 -247.021426842743 2.29122276707017e-015
  endloop
endfacet
facet normal 0.0 0.0 -1.0
  outer loop
    vertex -19.3920595506918 -259.931917096036 2.29122276707017e-015
    vertex -20.9378598697934 -247.021426842743 2.29122276707017e-015
    vertex -20.6009687895876 -248.338756149491 2.29122276707017e-015
  endloop
endfacet
facet normal 0.0 0.0 -1.0
  outer loop
    vertex -19.3920595506918 -259.931917096036 2.29122276707017e-015
    vertex -20.6009687895876 -248.338756149491 2.29122276707017e-015
    vertex -19.9346070813124 -249.524004720924 2.29122276707017e-015
  endloop
endfacet
facet normal 0.0 0.0 -1.0
  outer loop
    vertex -19.3920595506918 -259.931917096036 2.29122276707017e-015
    vertex -19.9346070813124 -249.524004720924 2.29122276707017e-015
    vertex -18.984186194172 -250.496399825614 2.29122276707017e-015
  endloop
endfacet
facet normal 0.0 0.0 -1.0
  outer loop
    vertex -19.3920595506918 -259.931917096036 2.29122276707017e-015
    vertex -18.984186194172 -250.496399825614 2.29122276707017e-015
    vertex -15.7663595799191 -260.40924955269 2.29122276707017e-015
  endloop
endfacet
facet normal 0.0 0.0 -1.0
  outer loop
    vertex -15.7663595799191 -260.40924955269 2.29122276707017e-015
    vertex -18.984186194172 -250.496399825614 2.29122276707017e-015
    vertex -17.8144757409801 -251.189674344136 2.29122276707017e-015
  endloop
endfacet
facet normal 0.0 0.0 -1.0
  outer loop
    vertex -15.7663595799191 -260.40924955269 2.29122276707017e-015
    vertex -17.8144757409801 -251.189674344136 2.29122276707017e-015
    vertex -16.5051895560839 -251.556582763744 2.29122276707017e-015
  endloop
endfacet
facet normal 0.0 0.0 -1.0
  outer loop
    vertex -15.7663595799191 -260.40924955269 2.29122276707017e-015
    vertex -16.5051895560839 -251.556582763744 2.29122276707017e-015
    vertex -15.1455533292862 -251.572120881985 2.29122276707017e-015
  endloop
endfacet
facet normal 0.0 0.0 -1.0
  outer loop
    vertex -15.7663595799191 -260.40924955269 2.29122276707017e-015
    vertex -15.1455533292862 -251.572120881985 2.29122276707017e-015
    vertex -12.1406596091464 -259.931917096036 2.29122276707017e-015
  endloop
endfacet
facet normal 0.0 0.0 -1.0
  outer loop
    vertex -12.1406596091464 -259.931917096036 2.29122276707017e-015
    vertex -15.1455533292862 -251.572120881985 2.29122276707017e-015
    vertex -13.8282240225386 -251.235229801779 2.29122276707017e-015
  endloop
endfacet
facet normal 0.0 0.0 -1.0
  outer loop
    vertex -12.1406596091464 -259.931917096036 2.29122276707017e-015
    vertex -13.8282240225386 -251.235229801779 2.29122276707017e-015
    vertex -12.6429754511059 -250.568868093504 2.29122276707017e-015
  endloop
endfacet
facet normal 0.0 0.0 -1.0
  outer loop
    vertex -12.1406596091464 -259.931917096036 2.29122276707017e-015
    vertex -12.6429754511059 -250.568868093504 2.29122276707017e-015
    vertex -11.6705803464154 -249.618447206363 2.29122276707017e-015
  endloop
endfacet
facet normal 0.0 0.0 -1.0
  outer loop
    vertex -12.1406596091464 -259.931917096036 2.29122276707017e-015
    vertex -11.6705803464154 -249.618447206363 2.29122276707017e-015
    vertex -8.76204509962895 -258.532449144163 2.29122276707017e-015
  endloop
endfacet
facet normal 0.0 0.0 -1.0
  outer loop
    vertex -8.76204509962895 -258.532449144163 2.29122276707017e-015
    vertex -11.6705803464154 -249.618447206363 2.29122276707017e-015
    vertex -10.977305827893 -248.448736753171 2.29122276707017e-015
  endloop
endfacet
facet normal 0.0 0.0 -1.0
  outer loop
    vertex -8.76204509962895 -258.532449144163 2.29122276707017e-015
    vertex -10.977305827893 -248.448736753171 2.29122276707017e-015
    vertex -10.6103974082857 -247.139450568275 2.29122276707017e-015
  endloop
endfacet
facet normal 0.0 0.0 -1.0
  outer loop
    vertex -8.76204509962895 -258.532449144163 2.29122276707017e-015
    vertex -10.6103974082857 -247.139450568275 2.29122276707017e-015
    vertex -10.5948592900448 -245.779814341478 2.29122276707017e-015
  endloop
endfacet
facet normal 0.0 0.0 -1.0
  outer loop
    vertex -8.76204509962895 -258.532449144163 2.29122276707017e-015
    vertex -10.5948592900448 -245.779814341478 2.29122276707017e-015
    vertex -8.76204509962896 -234.268792040058 2.29122276707017e-015
  endloop
endfacet
facet normal 0.0 0.0 -1.0
  outer loop
    vertex -8.76204509962895 -258.532449144163 2.29122276707017e-015
    vertex -8.76204509962896 -234.268792040058 2.29122276707017e-015
    vertex -5.86076304676663 -236.495024058958 2.29122276707017e-015
  endloop
endfacet
facet normal 0.0 0.0 -1.0
  outer loop
    vertex -8.76204509962895 -258.532449144163 2.29122276707017e-015
    vertex -5.86076304676663 -236.495024058958 2.29122276707017e-015
    vertex -5.86076304676666 -256.306217125263 2.29122276707017e-015
  endloop
endfacet
facet normal 0.0 0.0 -1.0
  outer loop
    vertex -5.86076304676666 -256.306217125263 2.29122276707017e-015
    vertex -5.86076304676663 -236.495024058958 2.29122276707017e-015
    vertex -3.63453102786625 -253.4049350724 2.29122276707017e-015
  endloop
endfacet
facet normal 0.0 0.0 -1.0
  outer loop
    vertex -3.63453102786625 -253.4049350724 2.29122276707017e-015
    vertex -5.86076304676663 -236.495024058958 2.29122276707017e-015
    vertex -3.63453102786624 -239.39630611182 2.29122276707017e-015
  endloop
endfacet
facet normal 0.0 0.0 -1.0
  outer loop
    vertex -3.63453102786625 -253.4049350724 2.29122276707017e-015
    vertex -3.63453102786624 -239.39630611182 2.29122276707017e-015
    vertex -2.23506307599378 -250.026320562883 2.29122276707017e-015
  endloop
endfacet
facet normal 0.0 0.0 -1.0
  outer loop
    vertex -2.23506307599378 -250.026320562883 2.29122276707017e-015
    vertex -3.63453102786624 -239.39630611182 2.29122276707017e-015
    vertex -2.23506307599377 -242.774920621337 2.29122276707017e-015
  endloop
endfacet
facet normal 0.0 0.0 -1.0
  outer loop
    vertex -2.23506307599378 -250.026320562883 2.29122276707017e-015
    vertex -2.23506307599377 -242.774920621337 2.29122276707017e-015
    vertex -1.75773061933896 -246.40062059211 2.29122276707017e-015
  endloop
endfacet
facet normal -0.258819045102523 0.965925826289068 0.0
  outer loop
    vertex -19.3920595506918 -232.869324088185 2.0
    vertex -15.7663595799191 -232.39199163153 2.29122276707017e-015
    vertex -19.3920595506918 -232.869324088185 2.29122276707017e-015
  endloop
endfacet
facet normal -6.28233247643107e-015 1.0 0.0
  outer loop
    vertex -15.7663595799191 -232.39199163153 2.29122276707017e-015
    vertex -19.3920595506918 -232.869324088185 2.0
    vertex -15.7663595799191 -232.39199163153 2.0
  endloop
endfacet
facet normal 1.89949392353389e-033 4.33315599420242e-050 1.0
  outer loop
    vertex -29.2976560838444 -250.026320562883 2.0
    vertex -29.2976560838444 -242.774920621337 2.0
    vertex -29.7749885404992 -246.40062059211 2.0
  endloop
endfacet
facet normal 1.89949392353389e-033 4.33315599420242e-050 1.0
  outer loop
    vertex -29.2976560838444 -242.774920621337 2.0
    vertex -29.2976560838444 -250.026320562883 2.0
    vertex -27.8981881319719 -253.4049350724 2.0
  endloop
endfacet
facet normal 1.89949392353389e-033 4.33315599420242e-050 1.0
  outer loop
    vertex -29.2976560838444 -242.774920621337 2.0
    vertex -27.8981881319719 -253.4049350724 2.0
    vertex -27.8981881319719 -239.39630611182 2.0
  endloop
endfacet
facet normal 1.89949392353389e-033 4.33315599420242e-050 1.0
  outer loop
    vertex -27.8981881319719 -239.39630611182 2.0
    vertex -27.8981881319719 -253.4049350724 2.0
    vertex -25.6719561130715 -236.495024058958 2.0
  endloop
endfacet
facet normal 1.89949392353389e-033 4.33315599420242e-050 1.0
  outer loop
    vertex -25.6719561130715 -236.495024058958 2.0
    vertex -27.8981881319719 -253.4049350724 2.0
    vertex -25.6719561130715 -256.306217125263 2.0
  endloop
endfacet
facet normal 1.89949392353389e-033 4.33315599420242e-050 1.0
  outer loop
    vertex -25.6719561130715 -236.495024058958 2.0
    vertex -25.6719561130715 -256.306217125263 2.0
    vertex -22.7706740602093 -258.532449144163 2.0
  endloop
endfacet
facet normal 1.89949392353389e-033 4.33315599420242e-050 1.0
  outer loop
    vertex -25.6719561130715 -236.495024058958 2.0
    vertex -22.7706740602093 -258.532449144163 2.0
    vertex -22.7706740602092 -234.268792040058 2.0
  endloop
endfacet
facet normal 1.89949392353389e-033 4.33315599420242e-050 1.0
  outer loop
    vertex -22.7706740602092 -234.268792040058 2.0
    vertex -22.7706740602093 -258.532449144163 2.0
    vertex -21.9392990203822 -247.141643346556 2.0
  endloop
endfacet
facet normal 1.89949392353389e-033 4.33315599420242e-050 1.0
  outer loop
    vertex -21.9392990203822 -247.141643346556 2.0
    vertex -22.7706740602093 -258.532449144163 2.0
    vertex -19.3920595506918 -259.931917096036 2.0
  endloop
endfacet
facet normal 1.89949392353389e-033 4.33315599420242e-050 1.0
  outer loop
    vertex -21.9392990203822 -247.141643346556 2.0
    vertex -19.3920595506918 -259.931917096036 2.0
    vertex -21.537170407876 -248.714067899953 2.0
  endloop
endfacet
facet normal 1.89949392353389e-033 4.33315599420242e-050 1.0
  outer loop
    vertex -21.537170407876 -248.714067899953 2.0
    vertex -19.3920595506918 -259.931917096036 2.0
    vertex -20.7417705741604 -250.128834842474 2.0
  endloop
endfacet
facet normal 1.89949392353389e-033 4.33315599420242e-050 1.0
  outer loop
    vertex -20.7417705741604 -250.128834842474 2.0
    vertex -19.3920595506918 -259.931917096036 2.0
    vertex -19.6073047034427 -251.289530144997 2.0
  endloop
endfacet
facet normal 1.89949392353389e-033 4.33315599420242e-050 1.0
  outer loop
    vertex -19.6073047034427 -251.289530144997 2.0
    vertex -19.3920595506918 -259.931917096036 2.0
    vertex -18.2110847700188 -252.117054340797 2.0
  endloop
endfacet
facet normal 1.89949392353389e-033 4.33315599420242e-050 1.0
  outer loop
    vertex -18.2110847700188 -252.117054340797 2.0
    vertex -19.3920595506918 -259.931917096036 2.0
    vertex -15.7663595799191 -260.40924955269 2.0
  endloop
endfacet
facet normal 1.89949392353389e-033 4.33315599420242e-050 1.0
  outer loop
    vertex -18.2110847700188 -252.117054340797 2.0
    vertex -15.7663595799191 -260.40924955269 2.0
    vertex -16.6482608549889 -252.555013023477 2.0
  endloop
endfacet
facet normal 1.89949392353389e-033 4.33315599420242e-050 1.0
  outer loop
    vertex -16.6482608549889 -252.555013023477 2.0
    vertex -15.7663595799191 -260.40924955269 2.0
    vertex -15.0253368254736 -252.573560032573 2.0
  endloop
endfacet
facet normal 1.89949392353389e-033 4.33315599420242e-050 1.0
  outer loop
    vertex -15.0253368254736 -252.573560032573 2.0
    vertex -15.7663595799191 -260.40924955269 2.0
    vertex -12.1406596091464 -259.931917096036 2.0
  endloop
endfacet
facet normal 1.89949392353389e-033 4.33315599420242e-050 1.0
  outer loop
    vertex -15.0253368254736 -252.573560032573 2.0
    vertex -12.1406596091464 -259.931917096036 2.0
    vertex -13.4529122720763 -252.171431420067 2.0
  endloop
endfacet
facet normal 1.89949392353389e-033 4.33315599420242e-050 1.0
  outer loop
    vertex -13.4529122720763 -252.171431420067 2.0
    vertex -12.1406596091464 -259.931917096036 2.0
    vertex -12.0381453295557 -251.376031586352 2.0
  endloop
endfacet
facet normal 1.89949392353389e-033 4.33315599420242e-050 1.0
  outer loop
    vertex -12.0381453295557 -251.376031586352 2.0
    vertex -12.1406596091464 -259.931917096036 2.0
    vertex -8.76204509962895 -258.532449144163 2.0
  endloop
endfacet
facet normal 1.89949392353389e-033 4.33315599420242e-050 1.0
  outer loop
    vertex -12.0381453295557 -251.376031586352 2.0
    vertex -8.76204509962895 -258.532449144163 2.0
    vertex -10.877450027032 -250.241565715634 2.0
  endloop
endfacet
facet normal 1.89949392353389e-033 4.33315599420242e-050 1.0
  outer loop
    vertex -10.877450027032 -250.241565715634 2.0
    vertex -8.76204509962895 -258.532449144163 2.0
    vertex -10.0499258312325 -248.84534578221 2.0
  endloop
endfacet
facet normal 1.89949392353389e-033 4.33315599420242e-050 1.0
  outer loop
    vertex -10.0499258312325 -248.84534578221 2.0
    vertex -8.76204509962895 -258.532449144163 2.0
    vertex -9.61196714855263 -247.28252186718 2.0
  endloop
endfacet
facet normal 1.89949392353389e-033 4.33315599420242e-050 1.0
  outer loop
    vertex -9.61196714855263 -247.28252186718 2.0
    vertex -8.76204509962895 -258.532449144163 2.0
    vertex -9.59342013945598 -245.659597837665 2.0
  endloop
endfacet
facet normal 1.89949392353389e-033 4.33315599420242e-050 1.0
  outer loop
    vertex -9.59342013945598 -245.659597837665 2.0
    vertex -8.76204509962895 -258.532449144163 2.0
    vertex -8.76204509962896 -234.268792040058 2.0
  endloop
endfacet
facet normal 1.89949392353389e-033 4.33315599420242e-050 1.0
  outer loop
    vertex -8.76204509962896 -234.268792040058 2.0
    vertex -8.76204509962895 -258.532449144163 2.0
    vertex -5.86076304676663 -236.495024058958 2.0
  endloop
endfacet
facet normal 1.89949392353389e-033 4.33315599420242e-050 1.0
  outer loop
    vertex -5.86076304676663 -236.495024058958 2.0
    vertex -8.76204509962895 -258.532449144163 2.0
    vertex -5.86076304676666 -256.306217125263 2.0
  endloop
endfacet
facet normal 1.89949392353389e-033 4.33315599420242e-050 1.0
  outer loop
    vertex -5.86076304676663 -236.495024058958 2.0
    vertex -5.86076304676666 -256.306217125263 2.0
    vertex -3.63453102786625 -253.4049350724 2.0
  endloop
endfacet
facet normal 1.89949392353389e-033 4.33315599420242e-050 1.0
  outer loop
    vertex -5.86076304676663 -236.495024058958 2.0
    vertex -3.63453102786625 -253.4049350724 2.0
    vertex -3.63453102786624 -239.39630611182 2.0
  endloop
endfacet
facet normal 1.89949392353389e-033 4.33315599420242e-050 1.0
  outer loop
    vertex -3.63453102786624 -239.39630611182 2.0
    vertex -3.63453102786625 -253.4049350724 2.0
    vertex -2.23506307599378 -250.026320562883 2.0
  endloop
endfacet
facet normal 1.89949392353389e-033 4.33315599420242e-050 1.0
  outer loop
    vertex -3.63453102786624 -239.39630611182 2.0
    vertex -2.23506307599378 -250.026320562883 2.0
    vertex -2.23506307599377 -242.774920621337 2.0
  endloop
endfacet
facet normal 1.89949392353389e-033 4.33315599420242e-050 1.0
  outer loop
    vertex -2.23506307599377 -242.774920621337 2.0
    vertex -2.23506307599378 -250.026320562883 2.0
    vertex -1.75773061933896 -246.40062059211 2.0
  endloop
endfacet
facet normal 1.89949392353389e-033 4.33315599420242e-050 1.0
  outer loop
    vertex -22.7706740602092 -234.268792040058 2.0
    vertex -21.9207520112855 -245.51871931704 2.0
    vertex -19.3920595506918 -232.869324088185 2.0
  endloop
endfacet
facet normal 1.89949392353389e-033 4.33315599420242e-050 1.0
  outer loop
    vertex -21.9207520112855 -245.51871931704 2.0
    vertex -22.7706740602092 -234.268792040058 2.0
    vertex -21.9392990203822 -247.141643346556 2.0
  endloop
endfacet
facet normal 1.89949392353389e-033 4.33315599420242e-050 1.0
  outer loop
    vertex -19.3920595506918 -232.869324088185 2.0
    vertex -21.9207520112855 -245.51871931704 2.0
    vertex -21.4827933286057 -243.955895402011 2.0
  endloop
endfacet
facet normal 1.89949392353389e-033 4.33315599420242e-050 1.0
  outer loop
    vertex -19.3920595506918 -232.869324088185 2.0
    vertex -21.4827933286057 -243.955895402011 2.0
    vertex -20.6552691328062 -242.559675468587 2.0
  endloop
endfacet
facet normal 1.89949392353389e-033 4.33315599420242e-050 1.0
  outer loop
    vertex -19.3920595506918 -232.869324088185 2.0
    vertex -20.6552691328062 -242.559675468587 2.0
    vertex -19.4945738302824 -241.425209597869 2.0
  endloop
endfacet
facet normal 1.89949392353389e-033 4.33315599420242e-050 1.0
  outer loop
    vertex -19.3920595506918 -232.869324088185 2.0
    vertex -19.4945738302824 -241.425209597869 2.0
    vertex -18.0798068877619 -240.629809764153 2.0
  endloop
endfacet
facet normal 1.89949392353389e-033 4.33315599420242e-050 1.0
  outer loop
    vertex -19.3920595506918 -232.869324088185 2.0
    vertex -18.0798068877619 -240.629809764153 2.0
    vertex -15.7663595799191 -232.39199163153 2.0
  endloop
endfacet
facet normal 1.89949392353389e-033 4.33315599420242e-050 1.0
  outer loop
    vertex -15.7663595799191 -232.39199163153 2.0
    vertex -18.0798068877619 -240.629809764153 2.0
    vertex -16.5073823343646 -240.227681151647 2.0
  endloop
endfacet
facet normal 1.89949392353389e-033 4.33315599420242e-050 1.0
  outer loop
    vertex -15.7663595799191 -232.39199163153 2.0
    vertex -16.5073823343646 -240.227681151647 2.0
    vertex -14.8844583048492 -240.246228160744 2.0
  endloop
endfacet
facet normal 1.89949392353389e-033 4.33315599420242e-050 1.0
  outer loop
    vertex -15.7663595799191 -232.39199163153 2.0
    vertex -14.8844583048492 -240.246228160744 2.0
    vertex -12.1406596091464 -232.869324088185 2.0
  endloop
endfacet
facet normal 1.89949392353389e-033 4.33315599420242e-050 1.0
  outer loop
    vertex -12.1406596091464 -232.869324088185 2.0
    vertex -14.8844583048492 -240.246228160744 2.0
    vertex -13.3216343898194 -240.684186843424 2.0
  endloop
endfacet
facet normal 1.89949392353389e-033 4.33315599420242e-050 1.0
  outer loop
    vertex -12.1406596091464 -232.869324088185 2.0
    vertex -13.3216343898194 -240.684186843424 2.0
    vertex -11.9254144563954 -241.511711039223 2.0
  endloop
endfacet
facet normal 1.89949392353389e-033 4.33315599420242e-050 1.0
  outer loop
    vertex -12.1406596091464 -232.869324088185 2.0
    vertex -11.9254144563954 -241.511711039223 2.0
    vertex -8.76204509962896 -234.268792040058 2.0
  endloop
endfacet
facet normal 1.89949392353389e-033 4.33315599420242e-050 1.0
  outer loop
    vertex -8.76204509962896 -234.268792040058 2.0
    vertex -11.9254144563954 -241.511711039223 2.0
    vertex -10.7909485856778 -242.672406341747 2.0
  endloop
endfacet
facet normal 1.89949392353389e-033 4.33315599420242e-050 1.0
  outer loop
    vertex -8.76204509962896 -234.268792040058 2.0
    vertex -10.7909485856778 -242.672406341747 2.0
    vertex -9.99554875196213 -244.087173284267 2.0
  endloop
endfacet
facet normal 1.89949392353389e-033 4.33315599420242e-050 1.0
  outer loop
    vertex -8.76204509962896 -234.268792040058 2.0
    vertex -9.99554875196213 -244.087173284267 2.0
    vertex -9.59342013945598 -245.659597837665 2.0
  endloop
endfacet
facet normal 0.500000000000007 -0.866025403784434 0.0
  outer loop
    vertex -8.76204509962895 -258.532449144163 2.0
    vertex -12.1406596091464 -259.931917096036 2.29122276707017e-015
    vertex -8.76204509962895 -258.532449144163 2.29122276707017e-015
  endloop
endfacet
facet normal 0.258819045102522 -0.965925826289068 0.0
  outer loop
    vertex -12.1406596091464 -259.931917096036 2.29122276707017e-015
    vertex -8.76204509962895 -258.532449144163 2.0
    vertex -12.1406596091464 -259.931917096036 2.0
  endloop
endfacet
facet normal 0.707106781186547 -0.707106781186548 0.0
  outer loop
    vertex -5.86076304676666 -256.306217125263 2.0
    vertex -8.76204509962895 -258.532449144163 2.29122276707017e-015
    vertex -5.86076304676666 -256.306217125263 2.29122276707017e-015
  endloop
endfacet
facet normal 0.500000000000007 -0.866025403784434 0.0
  outer loop
    vertex -8.76204509962895 -258.532449144163 2.29122276707017e-015
    vertex -5.86076304676666 -256.306217125263 2.0
    vertex -8.76204509962895 -258.532449144163 2.0
  endloop
endfacet
facet normal 0.866025403784436 -0.500000000000005 0.0
  outer loop
    vertex -3.63453102786625 -253.4049350724 2.29122276707017e-015
    vertex -5.86076304676666 -256.306217125263 2.0
    vertex -5.86076304676666 -256.306217125263 2.29122276707017e-015
  endloop
endfacet
facet normal 0.707106781186547 -0.707106781186548 0.0
  outer loop
    vertex -5.86076304676666 -256.306217125263 2.0
    vertex -3.63453102786625 -253.4049350724 2.29122276707017e-015
    vertex -3.63453102786625 -253.4049350724 2.0
  endloop
endfacet
facet normal 0.965925826289069 -0.25881904510252 0.0
  outer loop
    vertex -2.23506307599378 -250.026320562883 2.29122276707017e-015
    vertex -3.63453102786625 -253.4049350724 2.0
    vertex -3.63453102786625 -253.4049350724 2.29122276707017e-015
  endloop
endfacet
facet normal 0.866025403784436 -0.500000000000005 0.0
  outer loop
    vertex -3.63453102786625 -253.4049350724 2.0
    vertex -2.23506307599378 -250.026320562883 2.29122276707017e-015
    vertex -2.23506307599378 -250.026320562883 2.0
  endloop
endfacet
facet normal 1.0 -1.42577758330351e-016 0.0
  outer loop
    vertex -1.75773061933896 -246.40062059211 2.29122276707017e-015
    vertex -2.23506307599378 -250.026320562883 2.0
    vertex -2.23506307599378 -250.026320562883 2.29122276707017e-015
  endloop
endfacet
facet normal 0.965925826289069 -0.25881904510252 0.0
  outer loop
    vertex -2.23506307599378 -250.026320562883 2.0
    vertex -1.75773061933896 -246.40062059211 2.29122276707017e-015
    vertex -1.75773061933896 -246.40062059211 2.0
  endloop
endfacet
facet normal 0.500000000000001 0.866025403784438 0.0
  outer loop
    vertex -8.76204509962896 -234.268792040058 2.0
    vertex -5.86076304676663 -236.495024058958 2.29122276707017e-015
    vertex -8.76204509962896 -234.268792040058 2.29122276707017e-015
  endloop
endfacet
facet normal 0.707106781186548 0.707106781186547 0.0
  outer loop
    vertex -5.86076304676663 -236.495024058958 2.29122276707017e-015
    vertex -8.76204509962896 -234.268792040058 2.0
    vertex -5.86076304676663 -236.495024058958 2.0
  endloop
endfacet
facet normal 0.965925826289069 0.258819045102519 0.0
  outer loop
    vertex -2.23506307599377 -242.774920621337 2.29122276707017e-015
    vertex -1.75773061933896 -246.40062059211 2.0
    vertex -1.75773061933896 -246.40062059211 2.29122276707017e-015
  endloop
endfacet
facet normal 1.0 -1.42577758330351e-016 0.0
  outer loop
    vertex -1.75773061933896 -246.40062059211 2.0
    vertex -2.23506307599377 -242.774920621337 2.29122276707017e-015
    vertex -2.23506307599377 -242.774920621337 2.0
  endloop
endfacet
facet normal 0.866025403784441 0.499999999999996 0.0
  outer loop
    vertex -3.63453102786624 -239.39630611182 2.29122276707017e-015
    vertex -2.23506307599377 -242.774920621337 2.0
    vertex -2.23506307599377 -242.774920621337 2.29122276707017e-015
  endloop
endfacet
facet normal 0.965925826289069 0.258819045102519 0.0
  outer loop
    vertex -2.23506307599377 -242.774920621337 2.0
    vertex -3.63453102786624 -239.39630611182 2.29122276707017e-015
    vertex -3.63453102786624 -239.39630611182 2.0
  endloop
endfacet
facet normal 0.707106781186548 0.707106781186547 0.0
  outer loop
    vertex -5.86076304676663 -236.495024058958 2.29122276707017e-015
    vertex -3.63453102786624 -239.39630611182 2.0
    vertex -3.63453102786624 -239.39630611182 2.29122276707017e-015
  endloop
endfacet
facet normal 0.866025403784441 0.499999999999996 0.0
  outer loop
    vertex -3.63453102786624 -239.39630611182 2.0
    vertex -5.86076304676663 -236.495024058958 2.29122276707017e-015
    vertex -5.86076304676663 -236.495024058958 2.0
  endloop
endfacet
facet normal -0.707106781186547 0.707106781186548 0.0
  outer loop
    vertex -25.6719561130715 -236.495024058958 2.0
    vertex -27.8981881319719 -239.39630611182 2.29122276707017e-015
    vertex -27.8981881319719 -239.39630611182 2.0
  endloop
endfacet
facet normal -0.866025403784438 0.500000000000001 0.0
  outer loop
    vertex -27.8981881319719 -239.39630611182 2.29122276707017e-015
    vertex -25.6719561130715 -236.495024058958 2.0
    vertex -25.6719561130715 -236.495024058958 2.29122276707017e-015
  endloop
endfacet
facet normal -5.56944368477932e-015 -1.0 0.0
  outer loop
    vertex -15.7663595799191 -260.40924955269 2.0
    vertex -19.3920595506918 -259.931917096036 2.29122276707017e-015
    vertex -15.7663595799191 -260.40924955269 2.29122276707017e-015
  endloop
endfacet
facet normal -0.258819045102522 -0.965925826289068 0.0
  outer loop
    vertex -19.3920595506918 -259.931917096036 2.29122276707017e-015
    vertex -15.7663595799191 -260.40924955269 2.0
    vertex -19.3920595506918 -259.931917096036 2.0
  endloop
endfacet
facet normal 0.258819045102522 -0.965925826289068 0.0
  outer loop
    vertex -12.1406596091464 -259.931917096036 2.0
    vertex -15.7663595799191 -260.40924955269 2.29122276707017e-015
    vertex -12.1406596091464 -259.931917096036 2.29122276707017e-015
  endloop
endfacet
facet normal -5.56944368477932e-015 -1.0 0.0
  outer loop
    vertex -15.7663595799191 -260.40924955269 2.29122276707017e-015
    vertex -12.1406596091464 -259.931917096036 2.0
    vertex -15.7663595799191 -260.40924955269 2.0
  endloop
endfacet
facet normal -1.0 -3.56444395825876e-017 0.0
  outer loop
    vertex -29.7749885404992 -246.40062059211 2.0
    vertex -29.2976560838444 -250.026320562883 2.29122276707017e-015
    vertex -29.2976560838444 -250.026320562883 2.0
  endloop
endfacet
facet normal -0.965925826289068 -0.25881904510252 0.0
  outer loop
    vertex -29.2976560838444 -250.026320562883 2.29122276707017e-015
    vertex -29.7749885404992 -246.40062059211 2.0
    vertex -29.7749885404992 -246.40062059211 2.29122276707017e-015
  endloop
endfacet
facet normal -0.5 -0.866025403784439 0.0
  outer loop
    vertex -22.7706740602093 -258.532449144163 2.0
    vertex -25.6719561130715 -256.306217125263 2.29122276707017e-015
    vertex -22.7706740602093 -258.532449144163 2.29122276707017e-015
  endloop
endfacet
facet normal -0.707106781186551 -0.707106781186544 0.0
  outer loop
    vertex -25.6719561130715 -256.306217125263 2.29122276707017e-015
    vertex -22.7706740602093 -258.532449144163 2.0
    vertex -25.6719561130715 -256.306217125263 2.0
  endloop
endfacet
facet normal -0.965925826289069 0.25881904510252 0.0
  outer loop
    vertex -29.2976560838444 -242.774920621337 2.0
    vertex -29.7749885404992 -246.40062059211 2.29122276707017e-015
    vertex -29.7749885404992 -246.40062059211 2.0
  endloop
endfacet
facet normal -1.0 -3.56444395825876e-017 0.0
  outer loop
    vertex -29.7749885404992 -246.40062059211 2.29122276707017e-015
    vertex -29.2976560838444 -242.774920621337 2.0
    vertex -29.2976560838444 -242.774920621337 2.29122276707017e-015
  endloop
endfacet
facet normal -0.866025403784438 0.500000000000001 0.0
  outer loop
    vertex -27.8981881319719 -239.39630611182 2.0
    vertex -29.2976560838444 -242.774920621337 2.29122276707017e-015
    vertex -29.2976560838444 -242.774920621337 2.0
  endloop
endfacet
facet normal -0.965925826289069 0.25881904510252 0.0
  outer loop
    vertex -29.2976560838444 -242.774920621337 2.29122276707017e-015
    vertex -27.8981881319719 -239.39630611182 2.0
    vertex -27.8981881319719 -239.39630611182 2.29122276707017e-015
  endloop
endfacet
facet normal -0.965925826289068 -0.25881904510252 0.0
  outer loop
    vertex -29.2976560838444 -250.026320562883 2.0
    vertex -27.8981881319719 -253.4049350724 2.29122276707017e-015
    vertex -27.8981881319719 -253.4049350724 2.0
  endloop
endfacet
facet normal -0.866025403784439 -0.499999999999999 0.0
  outer loop
    vertex -27.8981881319719 -253.4049350724 2.29122276707017e-015
    vertex -29.2976560838444 -250.026320562883 2.0
    vertex -29.2976560838444 -250.026320562883 2.29122276707017e-015
  endloop
endfacet
facet normal -0.499999999999998 0.86602540378444 0.0
  outer loop
    vertex -22.7706740602092 -234.268792040058 2.0
    vertex -19.3920595506918 -232.869324088185 2.29122276707017e-015
    vertex -22.7706740602092 -234.268792040058 2.29122276707017e-015
  endloop
endfacet
facet normal -0.258819045102523 0.965925826289068 0.0
  outer loop
    vertex -19.3920595506918 -232.869324088185 2.29122276707017e-015
    vertex -22.7706740602092 -234.268792040058 2.0
    vertex -19.3920595506918 -232.869324088185 2.0
  endloop
endfacet
facet normal -0.866025403784439 -0.499999999999999 0.0
  outer loop
    vertex -27.8981881319719 -253.4049350724 2.0
    vertex -25.6719561130715 -256.306217125263 2.29122276707017e-015
    vertex -25.6719561130715 -256.306217125263 2.0
  endloop
endfacet
facet normal -0.707106781186551 -0.707106781186544 0.0
  outer loop
    vertex -25.6719561130715 -256.306217125263 2.29122276707017e-015
    vertex -27.8981881319719 -253.4049350724 2.0
    vertex -27.8981881319719 -253.4049350724 2.29122276707017e-015
  endloop
endfacet
facet normal -0.258819045102522 -0.965925826289068 0.0
  outer loop
    vertex -19.3920595506918 -259.931917096036 2.0
    vertex -22.7706740602093 -258.532449144163 2.29122276707017e-015
    vertex -19.3920595506918 -259.931917096036 2.29122276707017e-015
  endloop
endfacet
facet normal -0.5 -0.866025403784439 0.0
  outer loop
    vertex -22.7706740602093 -258.532449144163 2.29122276707017e-015
    vertex -19.3920595506918 -259.931917096036 2.0
    vertex -22.7706740602093 -258.532449144163 2.0
  endloop
endfacet
facet normal -0.707106781186547 0.707106781186548 0.0
  outer loop
    vertex -25.6719561130715 -236.495024058958 2.0
    vertex -22.7706740602092 -234.268792040058 2.29122276707017e-015
    vertex -25.6719561130715 -236.495024058958 2.29122276707017e-015
  endloop
endfacet
facet normal -0.499999999999998 0.86602540378444 0.0
  outer loop
    vertex -22.7706740602092 -234.268792040058 2.29122276707017e-015
    vertex -25.6719561130715 -236.495024058958 2.0
    vertex -22.7706740602092 -234.268792040058 2.0
  endloop
endfacet
endsolid xyz-y-carriage-left
