solid kossel-cable-org
facet normal 0.0 0.0 -1.0
  outer loop
    vertex 4.44708572938488 65.7955549577344 0.0
    vertex 4.5511112605664 60.3882285676538 0.0
    vertex 4.5 60.0 0.0
  endloop
endfacet
facet normal 0.0 0.0 -1.0
  outer loop
    vertex 4.5511112605664 60.3882285676538 0.0
    vertex 4.44708572938488 65.7955549577344 0.0
    vertex 6.0 66.0 0.0
  endloop
endfacet
facet normal 0.0 0.0 -1.0
  outer loop
    vertex 4.5511112605664 60.3882285676538 0.0
    vertex 6.0 66.0 0.0
    vertex 4.70096189432334 60.75 0.0
  endloop
endfacet
facet normal 0.0 0.0 -1.0
  outer loop
    vertex 4.70096189432334 60.75 0.0
    vertex 6.0 66.0 0.0
    vertex 4.93933982822018 61.0606601717798 0.0
  endloop
endfacet
facet normal 0.0 0.0 -1.0
  outer loop
    vertex 4.93933982822018 61.0606601717798 0.0
    vertex 6.0 66.0 0.0
    vertex 5.25 61.2990381056767 0.0
  endloop
endfacet
facet normal 0.0 0.0 -1.0
  outer loop
    vertex 5.25 61.2990381056767 0.0
    vertex 6.0 66.0 0.0
    vertex 5.61177143234622 61.4488887394336 0.0
  endloop
endfacet
facet normal 0.0 0.0 -1.0
  outer loop
    vertex 5.61177143234622 61.4488887394336 0.0
    vertex 6.0 66.0 0.0
    vertex 6.0 61.5 0.0
  endloop
endfacet
facet normal 0.0 0.0 -1.0
  outer loop
    vertex 6.0 61.5 0.0
    vertex 6.0 66.0 0.0
    vertex 6.38822856765378 61.4488887394336 0.0
  endloop
endfacet
facet normal 0.0 0.0 -1.0
  outer loop
    vertex 6.38822856765378 61.4488887394336 0.0
    vertex 6.0 66.0 0.0
    vertex 7.55291427061513 65.7955549577344 0.0
  endloop
endfacet
facet normal 0.0 0.0 -1.0
  outer loop
    vertex 6.38822856765378 61.4488887394336 0.0
    vertex 7.55291427061513 65.7955549577344 0.0
    vertex 6.75 61.2990381056767 0.0
  endloop
endfacet
facet normal 0.0 0.0 -1.0
  outer loop
    vertex 6.75 61.2990381056767 0.0
    vertex 7.55291427061513 65.7955549577344 0.0
    vertex 7.06066017177982 61.0606601717798 0.0
  endloop
endfacet
facet normal 0.0 0.0 -1.0
  outer loop
    vertex 7.06066017177982 61.0606601717798 0.0
    vertex 7.55291427061513 65.7955549577344 0.0
    vertex 7.29903810567666 60.75 0.0
  endloop
endfacet
facet normal 0.0 0.0 -1.0
  outer loop
    vertex 7.29903810567666 60.75 0.0
    vertex 7.55291427061513 65.7955549577344 0.0
    vertex 7.4488887394336 60.3882285676538 0.0
  endloop
endfacet
facet normal 0.0 0.0 -1.0
  outer loop
    vertex 7.4488887394336 60.3882285676538 0.0
    vertex 7.55291427061513 65.7955549577344 0.0
    vertex 7.5 60.0 0.0
  endloop
endfacet
facet normal 0.0 0.0 -1.0
  outer loop
    vertex 7.5 60.0 0.0
    vertex 7.55291427061513 65.7955549577344 0.0
    vertex 7.5 0.0 0.0
  endloop
endfacet
facet normal 0.0 0.0 -1.0
  outer loop
    vertex 7.5 0.0 0.0
    vertex 7.55291427061513 65.7955549577344 0.0
    vertex 7.55291427061512 -5.79555495773441 0.0
  endloop
endfacet
facet normal 0.0 0.0 -1.0
  outer loop
    vertex 7.55291427061512 -5.79555495773441 0.0
    vertex 7.55291427061513 65.7955549577344 0.0
    vertex 9.0 -5.19615242270663 0.0
  endloop
endfacet
facet normal 0.0 0.0 -1.0
  outer loop
    vertex 9.0 -5.19615242270663 0.0
    vertex 7.55291427061513 65.7955549577344 0.0
    vertex 9.0 65.1961524227066 0.0
  endloop
endfacet
facet normal 0.0 0.0 -1.0
  outer loop
    vertex 9.0 -5.19615242270663 0.0
    vertex 9.0 65.1961524227066 0.0
    vertex 10.2426406871193 -4.24264068711929 0.0
  endloop
endfacet
facet normal 0.0 0.0 -1.0
  outer loop
    vertex 10.2426406871193 -4.24264068711929 0.0
    vertex 9.0 65.1961524227066 0.0
    vertex 10.2426406871193 64.2426406871193 0.0
  endloop
endfacet
facet normal 0.0 0.0 -1.0
  outer loop
    vertex 10.2426406871193 -4.24264068711929 0.0
    vertex 10.2426406871193 64.2426406871193 0.0
    vertex 11.1961524227066 63.0 0.0
  endloop
endfacet
facet normal 0.0 0.0 -1.0
  outer loop
    vertex 10.2426406871193 -4.24264068711929 0.0
    vertex 11.1961524227066 63.0 0.0
    vertex 11.1961524227066 -3.0 0.0
  endloop
endfacet
facet normal 0.0 0.0 -1.0
  outer loop
    vertex 11.1961524227066 -3.0 0.0
    vertex 11.1961524227066 63.0 0.0
    vertex 11.7955549577344 -1.55291427061513 0.0
  endloop
endfacet
facet normal 0.0 0.0 -1.0
  outer loop
    vertex 11.7955549577344 -1.55291427061513 0.0
    vertex 11.1961524227066 63.0 0.0
    vertex 11.7955549577344 61.5529142706151 0.0
  endloop
endfacet
facet normal 0.0 0.0 -1.0
  outer loop
    vertex 11.7955549577344 -1.55291427061513 0.0
    vertex 11.7955549577344 61.5529142706151 0.0
    vertex 12.0 0.0 0.0
  endloop
endfacet
facet normal 0.0 0.0 -1.0
  outer loop
    vertex 12.0 0.0 0.0
    vertex 11.7955549577344 61.5529142706151 0.0
    vertex 12.0 60.0 0.0
  endloop
endfacet
facet normal 0.0 0.0 -1.0
  outer loop
    vertex 0.204445042265591 61.5529142706151 0.0
    vertex 0.0 0.0 0.0
    vertex 0.0 60.0 0.0
  endloop
endfacet
facet normal 0.0 0.0 -1.0
  outer loop
    vertex 0.0 0.0 0.0
    vertex 0.204445042265591 61.5529142706151 0.0
    vertex 0.204445042265591 -1.55291427061512 0.0
  endloop
endfacet
facet normal 0.0 0.0 -1.0
  outer loop
    vertex 0.204445042265591 -1.55291427061512 0.0
    vertex 0.204445042265591 61.5529142706151 0.0
    vertex 0.803847577293368 -3.0 0.0
  endloop
endfacet
facet normal 0.0 0.0 -1.0
  outer loop
    vertex 0.803847577293368 -3.0 0.0
    vertex 0.204445042265591 61.5529142706151 0.0
    vertex 0.80384757729337 63.0 0.0
  endloop
endfacet
facet normal 0.0 0.0 -1.0
  outer loop
    vertex 0.803847577293368 -3.0 0.0
    vertex 0.80384757729337 63.0 0.0
    vertex 1.75735931288071 -4.24264068711928 0.0
  endloop
endfacet
facet normal 0.0 0.0 -1.0
  outer loop
    vertex 1.75735931288071 -4.24264068711928 0.0
    vertex 0.80384757729337 63.0 0.0
    vertex 1.75735931288072 64.2426406871193 0.0
  endloop
endfacet
facet normal 0.0 0.0 -1.0
  outer loop
    vertex 1.75735931288071 -4.24264068711928 0.0
    vertex 1.75735931288072 64.2426406871193 0.0
    vertex 3.0 -5.19615242270663 0.0
  endloop
endfacet
facet normal 0.0 0.0 -1.0
  outer loop
    vertex 3.0 -5.19615242270663 0.0
    vertex 1.75735931288072 64.2426406871193 0.0
    vertex 3.0 65.1961524227066 0.0
  endloop
endfacet
facet normal 0.0 0.0 -1.0
  outer loop
    vertex 3.0 -5.19615242270663 0.0
    vertex 3.0 65.1961524227066 0.0
    vertex 4.44708572938487 -5.79555495773441 0.0
  endloop
endfacet
facet normal 0.0 0.0 -1.0
  outer loop
    vertex 4.44708572938487 -5.79555495773441 0.0
    vertex 3.0 65.1961524227066 0.0
    vertex 4.44708572938488 65.7955549577344 0.0
  endloop
endfacet
facet normal 0.0 0.0 -1.0
  outer loop
    vertex 4.44708572938487 -5.79555495773441 0.0
    vertex 4.44708572938488 65.7955549577344 0.0
    vertex 4.5 0.0 0.0
  endloop
endfacet
facet normal 0.0 0.0 -1.0
  outer loop
    vertex 4.44708572938487 -5.79555495773441 0.0
    vertex 4.5 0.0 0.0
    vertex 4.5511112605664 -0.388228567653781 0.0
  endloop
endfacet
facet normal 0.0 0.0 -1.0
  outer loop
    vertex 4.44708572938487 -5.79555495773441 0.0
    vertex 4.5511112605664 -0.388228567653781 0.0
    vertex 6.0 -6.0 0.0
  endloop
endfacet
facet normal 0.0 0.0 -1.0
  outer loop
    vertex 4.5 0.0 0.0
    vertex 4.44708572938488 65.7955549577344 0.0
    vertex 4.5 60.0 0.0
  endloop
endfacet
facet normal 0.0 0.0 -1.0
  outer loop
    vertex 6.0 -6.0 0.0
    vertex 4.5511112605664 -0.388228567653781 0.0
    vertex 4.70096189432334 -0.749999999999999 0.0
  endloop
endfacet
facet normal 0.0 0.0 -1.0
  outer loop
    vertex 6.0 -6.0 0.0
    vertex 4.70096189432334 -0.749999999999999 0.0
    vertex 4.93933982822018 -1.06066017177982 0.0
  endloop
endfacet
facet normal 0.0 0.0 -1.0
  outer loop
    vertex 6.0 -6.0 0.0
    vertex 4.93933982822018 -1.06066017177982 0.0
    vertex 5.25 -1.29903810567666 0.0
  endloop
endfacet
facet normal 0.0 0.0 -1.0
  outer loop
    vertex 6.0 -6.0 0.0
    vertex 5.25 -1.29903810567666 0.0
    vertex 5.61177143234622 -1.4488887394336 0.0
  endloop
endfacet
facet normal 0.0 0.0 -1.0
  outer loop
    vertex 6.0 -6.0 0.0
    vertex 5.61177143234622 -1.4488887394336 0.0
    vertex 6.0 -1.5 0.0
  endloop
endfacet
facet normal 0.0 0.0 -1.0
  outer loop
    vertex 6.0 -6.0 0.0
    vertex 6.0 -1.5 0.0
    vertex 7.55291427061512 -5.79555495773441 0.0
  endloop
endfacet
facet normal 0.0 0.0 -1.0
  outer loop
    vertex 7.55291427061512 -5.79555495773441 0.0
    vertex 6.0 -1.5 0.0
    vertex 6.38822856765378 -1.4488887394336 0.0
  endloop
endfacet
facet normal 0.0 0.0 -1.0
  outer loop
    vertex 7.55291427061512 -5.79555495773441 0.0
    vertex 6.38822856765378 -1.4488887394336 0.0
    vertex 6.75 -1.29903810567666 0.0
  endloop
endfacet
facet normal 0.0 0.0 -1.0
  outer loop
    vertex 7.55291427061512 -5.79555495773441 0.0
    vertex 6.75 -1.29903810567666 0.0
    vertex 7.06066017177982 -1.06066017177982 0.0
  endloop
endfacet
facet normal 0.0 0.0 -1.0
  outer loop
    vertex 7.55291427061512 -5.79555495773441 0.0
    vertex 7.06066017177982 -1.06066017177982 0.0
    vertex 7.29903810567666 -0.750000000000001 0.0
  endloop
endfacet
facet normal 0.0 0.0 -1.0
  outer loop
    vertex 7.55291427061512 -5.79555495773441 0.0
    vertex 7.29903810567666 -0.750000000000001 0.0
    vertex 7.4488887394336 -0.388228567653783 0.0
  endloop
endfacet
facet normal 0.0 0.0 -1.0
  outer loop
    vertex 7.55291427061512 -5.79555495773441 0.0
    vertex 7.4488887394336 -0.388228567653783 0.0
    vertex 7.5 0.0 0.0
  endloop
endfacet
facet normal 0.0 0.0 -1.0
  outer loop
    vertex 4.5511112605664 59.6117714323462 0.0
    vertex 4.5 0.0 0.0
    vertex 4.5 60.0 0.0
  endloop
endfacet
facet normal 0.0 0.0 -1.0
  outer loop
    vertex 4.5 0.0 0.0
    vertex 4.5511112605664 59.6117714323462 0.0
    vertex 4.5511112605664 0.388228567653781 0.0
  endloop
endfacet
facet normal 0.0 0.0 -1.0
  outer loop
    vertex 4.5511112605664 0.388228567653781 0.0
    vertex 4.5511112605664 59.6117714323462 0.0
    vertex 4.70096189432334 59.25 0.0
  endloop
endfacet
facet normal 0.0 0.0 -1.0
  outer loop
    vertex 4.5511112605664 0.388228567653781 0.0
    vertex 4.70096189432334 59.25 0.0
    vertex 4.70096189432334 0.75 0.0
  endloop
endfacet
facet normal 0.0 0.0 -1.0
  outer loop
    vertex 4.70096189432334 0.75 0.0
    vertex 4.70096189432334 59.25 0.0
    vertex 4.93933982822018 58.9393398282202 0.0
  endloop
endfacet
facet normal 0.0 0.0 -1.0
  outer loop
    vertex 4.70096189432334 0.75 0.0
    vertex 4.93933982822018 58.9393398282202 0.0
    vertex 4.93933982822018 1.06066017177982 0.0
  endloop
endfacet
facet normal 0.0 0.0 -1.0
  outer loop
    vertex 4.93933982822018 1.06066017177982 0.0
    vertex 4.93933982822018 58.9393398282202 0.0
    vertex 5.25 58.7009618943233 0.0
  endloop
endfacet
facet normal 0.0 0.0 -1.0
  outer loop
    vertex 4.93933982822018 1.06066017177982 0.0
    vertex 5.25 58.7009618943233 0.0
    vertex 5.25 1.29903810567666 0.0
  endloop
endfacet
facet normal 0.0 0.0 -1.0
  outer loop
    vertex 5.25 1.29903810567666 0.0
    vertex 5.25 58.7009618943233 0.0
    vertex 5.61177143234622 58.5511112605664 0.0
  endloop
endfacet
facet normal 0.0 0.0 -1.0
  outer loop
    vertex 5.25 1.29903810567666 0.0
    vertex 5.61177143234622 58.5511112605664 0.0
    vertex 5.61177143234622 1.4488887394336 0.0
  endloop
endfacet
facet normal 0.0 0.0 -1.0
  outer loop
    vertex 5.61177143234622 1.4488887394336 0.0
    vertex 5.61177143234622 58.5511112605664 0.0
    vertex 6.0 58.5 0.0
  endloop
endfacet
facet normal 0.0 0.0 -1.0
  outer loop
    vertex 5.61177143234622 1.4488887394336 0.0
    vertex 6.0 58.5 0.0
    vertex 6.0 1.5 0.0
  endloop
endfacet
facet normal 0.0 0.0 -1.0
  outer loop
    vertex 6.0 1.5 0.0
    vertex 6.0 58.5 0.0
    vertex 6.38822856765378 58.5511112605664 0.0
  endloop
endfacet
facet normal 0.0 0.0 -1.0
  outer loop
    vertex 6.0 1.5 0.0
    vertex 6.38822856765378 58.5511112605664 0.0
    vertex 6.38822856765378 1.4488887394336 0.0
  endloop
endfacet
facet normal 0.0 0.0 -1.0
  outer loop
    vertex 6.38822856765378 1.4488887394336 0.0
    vertex 6.38822856765378 58.5511112605664 0.0
    vertex 6.75 58.7009618943233 0.0
  endloop
endfacet
facet normal 0.0 0.0 -1.0
  outer loop
    vertex 6.38822856765378 1.4488887394336 0.0
    vertex 6.75 58.7009618943233 0.0
    vertex 6.75 1.29903810567666 0.0
  endloop
endfacet
facet normal 0.0 0.0 -1.0
  outer loop
    vertex 6.75 1.29903810567666 0.0
    vertex 6.75 58.7009618943233 0.0
    vertex 7.06066017177982 58.9393398282202 0.0
  endloop
endfacet
facet normal 0.0 0.0 -1.0
  outer loop
    vertex 6.75 1.29903810567666 0.0
    vertex 7.06066017177982 58.9393398282202 0.0
    vertex 7.06066017177982 1.06066017177982 0.0
  endloop
endfacet
facet normal 0.0 0.0 -1.0
  outer loop
    vertex 7.06066017177982 1.06066017177982 0.0
    vertex 7.06066017177982 58.9393398282202 0.0
    vertex 7.29903810567666 59.25 0.0
  endloop
endfacet
facet normal 0.0 0.0 -1.0
  outer loop
    vertex 7.06066017177982 1.06066017177982 0.0
    vertex 7.29903810567666 59.25 0.0
    vertex 7.29903810567666 0.75 0.0
  endloop
endfacet
facet normal 0.0 0.0 -1.0
  outer loop
    vertex 7.29903810567666 0.75 0.0
    vertex 7.29903810567666 59.25 0.0
    vertex 7.4488887394336 59.6117714323462 0.0
  endloop
endfacet
facet normal 0.0 0.0 -1.0
  outer loop
    vertex 7.29903810567666 0.75 0.0
    vertex 7.4488887394336 59.6117714323462 0.0
    vertex 7.4488887394336 0.388228567653781 0.0
  endloop
endfacet
facet normal 0.0 0.0 -1.0
  outer loop
    vertex 7.4488887394336 0.388228567653781 0.0
    vertex 7.4488887394336 59.6117714323462 0.0
    vertex 7.5 60.0 0.0
  endloop
endfacet
facet normal 0.0 0.0 -1.0
  outer loop
    vertex 7.4488887394336 0.388228567653781 0.0
    vertex 7.5 60.0 0.0
    vertex 7.5 0.0 0.0
  endloop
endfacet
facet normal -0.965925826289068 0.258819045102522 0.0
  outer loop
    vertex 7.4488887394336 -0.388228567653783 6.0
    vertex 7.29903810567666 -0.750000000000001 0.0
    vertex 7.29903810567666 -0.750000000000001 6.0
  endloop
endfacet
facet normal -0.866025403784438 0.500000000000001 0.0
  outer loop
    vertex 7.29903810567666 -0.750000000000001 0.0
    vertex 7.4488887394336 -0.388228567653783 6.0
    vertex 7.4488887394336 -0.388228567653783 0.0
  endloop
endfacet
facet normal 0.0 0.0 1.0
  outer loop
    vertex 6.0 6.0 4.0
    vertex 5.5 54.0 4.0
    vertex 5.5 6.00000000000001 4.0
  endloop
endfacet
facet normal 0.0 0.0 1.0
  outer loop
    vertex 5.5 54.0 4.0
    vertex 6.0 6.0 4.0
    vertex 6.0 54.0 4.0
  endloop
endfacet
facet normal 0.0 0.0 1.0
  outer loop
    vertex 7.55291427061513 5.79555495773441 4.0
    vertex 6.5 6.00000000000001 4.0
    vertex 6.0 6.0 4.0
  endloop
endfacet
facet normal 0.0 0.0 1.0
  outer loop
    vertex 6.5 6.00000000000001 4.0
    vertex 7.55291427061513 5.79555495773441 4.0
    vertex 6.5 54.0 4.0
  endloop
endfacet
facet normal 0.0 0.0 1.0
  outer loop
    vertex 6.5 54.0 4.0
    vertex 7.55291427061513 5.79555495773441 4.0
    vertex 7.55291427061512 54.2044450422656 4.0
  endloop
endfacet
facet normal 0.0 0.0 1.0
  outer loop
    vertex 7.55291427061512 54.2044450422656 4.0
    vertex 7.55291427061513 5.79555495773441 4.0
    vertex 9.0 54.8038475772934 4.0
  endloop
endfacet
facet normal 0.0 0.0 1.0
  outer loop
    vertex 9.0 54.8038475772934 4.0
    vertex 7.55291427061513 5.79555495773441 4.0
    vertex 9.0 5.19615242270663 4.0
  endloop
endfacet
facet normal 0.0 0.0 1.0
  outer loop
    vertex 9.0 54.8038475772934 4.0
    vertex 9.0 5.19615242270663 4.0
    vertex 10.2426406871193 55.7573593128807 4.0
  endloop
endfacet
facet normal 0.0 0.0 1.0
  outer loop
    vertex 10.2426406871193 55.7573593128807 4.0
    vertex 9.0 5.19615242270663 4.0
    vertex 10.2426406871193 4.24264068711928 4.0
  endloop
endfacet
facet normal 0.0 0.0 1.0
  outer loop
    vertex 10.2426406871193 55.7573593128807 4.0
    vertex 10.2426406871193 4.24264068711928 4.0
    vertex 11.1961524227066 3.0 4.0
  endloop
endfacet
facet normal 0.0 0.0 1.0
  outer loop
    vertex 10.2426406871193 55.7573593128807 4.0
    vertex 11.1961524227066 3.0 4.0
    vertex 11.1961524227066 57.0 4.0
  endloop
endfacet
facet normal 0.0 0.0 1.0
  outer loop
    vertex 11.1961524227066 57.0 4.0
    vertex 11.1961524227066 3.0 4.0
    vertex 11.7955549577344 58.4470857293849 4.0
  endloop
endfacet
facet normal 0.0 0.0 1.0
  outer loop
    vertex 11.7955549577344 58.4470857293849 4.0
    vertex 11.1961524227066 3.0 4.0
    vertex 11.7955549577344 1.55291427061512 4.0
  endloop
endfacet
facet normal 0.0 0.0 1.0
  outer loop
    vertex 11.7955549577344 58.4470857293849 4.0
    vertex 11.7955549577344 1.55291427061512 4.0
    vertex 12.0 60.0 4.0
  endloop
endfacet
facet normal 0.0 0.0 1.0
  outer loop
    vertex 12.0 60.0 4.0
    vertex 11.7955549577344 1.55291427061512 4.0
    vertex 12.0 0.0 4.0
  endloop
endfacet
facet normal 0.0 0.0 1.0
  outer loop
    vertex 7.55291427061512 54.2044450422656 4.0
    vertex 6.0 54.0 4.0
    vertex 6.5 54.0 4.0
  endloop
endfacet
facet normal 0.672882972781368 0.0 0.739748947238797
  outer loop
    vertex 6.42055185798836 6.00000000000001 4.83734309202425
    vertex 6.2254557245723 54.0 4.95791913354905
    vertex 6.2254557245723 6.00000000000001 4.95791913354905
  endloop
endfacet
facet normal 0.360729159315686 8.62870113139494e-034 0.932670613678483
  outer loop
    vertex 6.2254557245723 54.0 4.95791913354905
    vertex 6.42055185798836 6.00000000000001 4.83734309202425
    vertex 6.42055185798836 54.0 4.83734309202425
  endloop
endfacet
facet normal -0.894427190999917 0.0 0.447213595499957
  outer loop
    vertex 5.44098300562505 54.0 4.65450849718747
    vertex 5.37779441158759 6.00000000000001 4.43403563117613
    vertex 5.44098300562505 6.00000000000001 4.65450849718747
  endloop
endfacet
facet normal -0.995528941459859 0.0 0.0944570098818167
  outer loop
    vertex 5.37779441158759 6.00000000000001 4.43403563117613
    vertex 5.44098300562505 54.0 4.65450849718747
    vertex 5.37779441158759 54.0 4.43403563117613
  endloop
endfacet
facet normal 2.5164857376095e-016 -1.61053005260432e-034 1.0
  outer loop
    vertex 6.0 6.00000000000001 5.0
    vertex 5.7745442754277 54.0 4.95791913354905
    vertex 5.7745442754277 6.00000000000001 4.95791913354905
  endloop
endfacet
facet normal -0.360729159315687 -1.02392311839993e-033 0.932670613678483
  outer loop
    vertex 5.7745442754277 54.0 4.95791913354905
    vertex 6.0 6.00000000000001 5.0
    vertex 6.0 54.0 5.0
  endloop
endfacet
facet normal -0.995528941459859 0.0 0.0944570098818167
  outer loop
    vertex 5.37779441158759 54.0 4.43403563117613
    vertex 5.39839125841738 6.00000000000001 4.20561309952841
    vertex 5.37779441158759 6.00000000000001 4.43403563117613
  endloop
endfacet
facet normal -0.962573986532198 0.0 -0.271019040754541
  outer loop
    vertex 5.39839125841738 6.00000000000001 4.20561309952841
    vertex 5.37779441158759 54.0 4.43403563117613
    vertex 5.39839125841738 54.0 4.20561309952841
  endloop
endfacet
facet normal 0.360729159315686 8.62870113139494e-034 0.932670613678483
  outer loop
    vertex 6.2254557245723 6.00000000000001 4.95791913354905
    vertex 6.0 54.0 5.0
    vertex 6.0 6.00000000000001 5.0
  endloop
endfacet
facet normal 2.5164857376095e-016 -1.61053005260432e-034 1.0
  outer loop
    vertex 6.0 54.0 5.0
    vertex 6.2254557245723 6.00000000000001 4.95791913354905
    vertex 6.2254557245723 54.0 4.95791913354905
  endloop
endfacet
facet normal -0.962573986532198 0.0 -0.271019040754541
  outer loop
    vertex 5.39839125841738 54.0 4.20561309952841
    vertex 5.5 6.00000000000001 4.0
    vertex 5.39839125841738 6.00000000000001 4.20561309952841
  endloop
endfacet
facet normal -0.896506487643294 -0.0 -0.443030605729994
  outer loop
    vertex 5.5 6.00000000000001 4.0
    vertex 5.39839125841738 54.0 4.20561309952841
    vertex 5.5 54.0 4.0
  endloop
endfacet
facet normal -0.360729159315687 -1.02392311839993e-033 0.932670613678483
  outer loop
    vertex 5.7745442754277 6.00000000000001 4.95791913354905
    vertex 5.57944814201164 54.0 4.83734309202425
    vertex 5.57944814201164 6.00000000000001 4.83734309202425
  endloop
endfacet
facet normal -0.672882972781369 0.0 0.739748947238796
  outer loop
    vertex 5.57944814201164 54.0 4.83734309202425
    vertex 5.7745442754277 6.00000000000001 4.95791913354905
    vertex 5.7745442754277 54.0 4.95791913354905
  endloop
endfacet
facet normal -0.672882972781369 0.0 0.739748947238796
  outer loop
    vertex 5.57944814201164 54.0 4.83734309202425
    vertex 5.44098300562505 6.00000000000001 4.65450849718747
    vertex 5.57944814201164 6.00000000000001 4.83734309202425
  endloop
endfacet
facet normal -0.894427190999917 0.0 0.447213595499957
  outer loop
    vertex 5.44098300562505 6.00000000000001 4.65450849718747
    vertex 5.57944814201164 54.0 4.83734309202425
    vertex 5.44098300562505 54.0 4.65450849718747
  endloop
endfacet
facet normal 0.995528941459858 0.0 0.0944570098818166
  outer loop
    vertex 6.62220558841241 54.0 4.43403563117614
    vertex 6.55901699437495 6.00000000000001 4.65450849718747
    vertex 6.62220558841241 6.00000000000001 4.43403563117614
  endloop
endfacet
facet normal 0.894427190999916 0.0 0.447213595499958
  outer loop
    vertex 6.55901699437495 6.00000000000001 4.65450849718747
    vertex 6.62220558841241 54.0 4.43403563117614
    vertex 6.55901699437495 54.0 4.65450849718747
  endloop
endfacet
facet normal 0.962573986532199 0.0 -0.271019040754539
  outer loop
    vertex 6.60160874158262 54.0 4.20561309952841
    vertex 6.62220558841241 6.00000000000001 4.43403563117614
    vertex 6.60160874158262 6.00000000000001 4.20561309952841
  endloop
endfacet
facet normal 0.995528941459858 0.0 0.0944570098818166
  outer loop
    vertex 6.62220558841241 6.00000000000001 4.43403563117614
    vertex 6.60160874158262 54.0 4.20561309952841
    vertex 6.62220558841241 54.0 4.43403563117614
  endloop
endfacet
facet normal 0.896506487643297 0.0 -0.443030605729987
  outer loop
    vertex 6.5 54.0 4.0
    vertex 6.60160874158262 6.00000000000001 4.20561309952841
    vertex 6.5 6.00000000000001 4.0
  endloop
endfacet
facet normal 0.962573986532199 0.0 -0.271019040754539
  outer loop
    vertex 6.60160874158262 6.00000000000001 4.20561309952841
    vertex 6.5 54.0 4.0
    vertex 6.60160874158262 54.0 4.20561309952841
  endloop
endfacet
facet normal 1.09452337734914e-029 1.0 1.2342729522207e-014
  outer loop
    vertex 6.0 54.0 5.0
    vertex 6.5 54.0 4.0
    vertex 6.0 54.0 4.0
  endloop
endfacet
facet normal 1.09452337734914e-029 1.0 1.2342729522207e-014
  outer loop
    vertex 6.5 54.0 4.0
    vertex 6.0 54.0 5.0
    vertex 6.60160874158262 54.0 4.20561309952841
  endloop
endfacet
facet normal 1.09452337734914e-029 1.0 1.2342729522207e-014
  outer loop
    vertex 6.60160874158262 54.0 4.20561309952841
    vertex 6.0 54.0 5.0
    vertex 6.62220558841241 54.0 4.43403563117614
  endloop
endfacet
facet normal 1.09452337734914e-029 1.0 1.2342729522207e-014
  outer loop
    vertex 6.62220558841241 54.0 4.43403563117614
    vertex 6.0 54.0 5.0
    vertex 6.55901699437495 54.0 4.65450849718747
  endloop
endfacet
facet normal 1.09452337734914e-029 1.0 1.2342729522207e-014
  outer loop
    vertex 6.55901699437495 54.0 4.65450849718747
    vertex 6.0 54.0 5.0
    vertex 6.42055185798836 54.0 4.83734309202425
  endloop
endfacet
facet normal 1.09452337734914e-029 1.0 1.2342729522207e-014
  outer loop
    vertex 6.42055185798836 54.0 4.83734309202425
    vertex 6.0 54.0 5.0
    vertex 6.2254557245723 54.0 4.95791913354905
  endloop
endfacet
facet normal 0.894427190999916 0.0 0.447213595499958
  outer loop
    vertex 6.55901699437495 54.0 4.65450849718747
    vertex 6.42055185798836 6.00000000000001 4.83734309202425
    vertex 6.55901699437495 6.00000000000001 4.65450849718747
  endloop
endfacet
facet normal 0.672882972781368 0.0 0.739748947238797
  outer loop
    vertex 6.42055185798836 6.00000000000001 4.83734309202425
    vertex 6.55901699437495 54.0 4.65450849718747
    vertex 6.42055185798836 54.0 4.83734309202425
  endloop
endfacet
facet normal -0.866025403784438 0.500000000000001 0.0
  outer loop
    vertex 7.29903810567666 -0.750000000000001 6.0
    vertex 7.06066017177982 -1.06066017177982 0.0
    vertex 7.06066017177982 -1.06066017177982 6.0
  endloop
endfacet
facet normal -0.707106781186547 0.707106781186548 0.0
  outer loop
    vertex 7.06066017177982 -1.06066017177982 0.0
    vertex 7.29903810567666 -0.750000000000001 6.0
    vertex 7.29903810567666 -0.750000000000001 0.0
  endloop
endfacet
facet normal -0.499999999999999 0.866025403784439 0.0
  outer loop
    vertex 6.75 -1.29903810567666 6.0
    vertex 7.06066017177982 -1.06066017177982 0.0
    vertex 6.75 -1.29903810567666 0.0
  endloop
endfacet
facet normal -0.707106781186547 0.707106781186548 0.0
  outer loop
    vertex 7.06066017177982 -1.06066017177982 0.0
    vertex 6.75 -1.29903810567666 6.0
    vertex 7.06066017177982 -1.06066017177982 6.0
  endloop
endfacet
facet normal -0.25881904510252 0.965925826289068 0.0
  outer loop
    vertex 6.38822856765378 -1.4488887394336 6.0
    vertex 6.75 -1.29903810567666 0.0
    vertex 6.38822856765378 -1.4488887394336 0.0
  endloop
endfacet
facet normal -0.499999999999999 0.866025403784439 0.0
  outer loop
    vertex 6.75 -1.29903810567666 0.0
    vertex 6.38822856765378 -1.4488887394336 6.0
    vertex 6.75 -1.29903810567666 6.0
  endloop
endfacet
facet normal 1.06933318747763e-016 1.0 0.0
  outer loop
    vertex 6.0 -1.5 6.0
    vertex 6.38822856765378 -1.4488887394336 0.0
    vertex 6.0 -1.5 0.0
  endloop
endfacet
facet normal -0.25881904510252 0.965925826289068 0.0
  outer loop
    vertex 6.38822856765378 -1.4488887394336 0.0
    vertex 6.0 -1.5 6.0
    vertex 6.38822856765378 -1.4488887394336 6.0
  endloop
endfacet
facet normal 0.258819045102521 0.965925826289068 0.0
  outer loop
    vertex 5.61177143234622 -1.4488887394336 6.0
    vertex 6.0 -1.5 0.0
    vertex 5.61177143234622 -1.4488887394336 0.0
  endloop
endfacet
facet normal 1.06933318747763e-016 1.0 0.0
  outer loop
    vertex 6.0 -1.5 0.0
    vertex 5.61177143234622 -1.4488887394336 6.0
    vertex 6.0 -1.5 6.0
  endloop
endfacet
facet normal 0.500000000000001 0.866025403784438 0.0
  outer loop
    vertex 5.25 -1.29903810567666 6.0
    vertex 5.61177143234622 -1.4488887394336 0.0
    vertex 5.25 -1.29903810567666 0.0
  endloop
endfacet
facet normal 0.258819045102521 0.965925826289068 0.0
  outer loop
    vertex 5.61177143234622 -1.4488887394336 0.0
    vertex 5.25 -1.29903810567666 6.0
    vertex 5.61177143234622 -1.4488887394336 6.0
  endloop
endfacet
facet normal 0.707106781186548 0.707106781186547 0.0
  outer loop
    vertex 4.93933982822018 -1.06066017177982 6.0
    vertex 5.25 -1.29903810567666 0.0
    vertex 4.93933982822018 -1.06066017177982 0.0
  endloop
endfacet
facet normal 0.500000000000001 0.866025403784438 0.0
  outer loop
    vertex 5.25 -1.29903810567666 0.0
    vertex 4.93933982822018 -1.06066017177982 6.0
    vertex 5.25 -1.29903810567666 6.0
  endloop
endfacet
facet normal 0.866025403784439 0.5 0.0
  outer loop
    vertex 4.70096189432334 -0.749999999999999 0.0
    vertex 4.93933982822018 -1.06066017177982 6.0
    vertex 4.93933982822018 -1.06066017177982 0.0
  endloop
endfacet
facet normal 0.707106781186548 0.707106781186547 0.0
  outer loop
    vertex 4.93933982822018 -1.06066017177982 6.0
    vertex 4.70096189432334 -0.749999999999999 0.0
    vertex 4.70096189432334 -0.749999999999999 6.0
  endloop
endfacet
facet normal 0.965925826289068 0.258819045102521 0.0
  outer loop
    vertex 4.5511112605664 -0.388228567653781 0.0
    vertex 4.70096189432334 -0.749999999999999 6.0
    vertex 4.70096189432334 -0.749999999999999 0.0
  endloop
endfacet
facet normal 0.866025403784439 0.5 0.0
  outer loop
    vertex 4.70096189432334 -0.749999999999999 6.0
    vertex 4.5511112605664 -0.388228567653781 0.0
    vertex 4.5511112605664 -0.388228567653781 6.0
  endloop
endfacet
facet normal 0.99144486137381 0.130526192220052 0.0
  outer loop
    vertex 4.5 0.0 0.0
    vertex 4.5511112605664 -0.388228567653781 6.0
    vertex 4.5511112605664 -0.388228567653781 0.0
  endloop
endfacet
facet normal 0.965925826289068 0.258819045102521 0.0
  outer loop
    vertex 4.5511112605664 -0.388228567653781 6.0
    vertex 4.5 0.0 0.0
    vertex 4.5 0.0 6.0
  endloop
endfacet
facet normal 0.965925826289068 -0.258819045102521 0.0
  outer loop
    vertex 4.5511112605664 0.388228567653781 0.0
    vertex 4.5 0.0 6.0
    vertex 4.5 0.0 0.0
  endloop
endfacet
facet normal 0.99144486137381 -0.130526192220052 0.0
  outer loop
    vertex 4.5 0.0 6.0
    vertex 4.5511112605664 0.388228567653781 0.0
    vertex 4.5511112605664 0.388228567653781 6.0
  endloop
endfacet
facet normal 0.866025403784439 -0.5 0.0
  outer loop
    vertex 4.70096189432334 0.75 0.0
    vertex 4.5511112605664 0.388228567653781 6.0
    vertex 4.5511112605664 0.388228567653781 0.0
  endloop
endfacet
facet normal 0.965925826289068 -0.258819045102521 0.0
  outer loop
    vertex 4.5511112605664 0.388228567653781 6.0
    vertex 4.70096189432334 0.75 0.0
    vertex 4.70096189432334 0.75 6.0
  endloop
endfacet
facet normal 0.707106781186547 -0.707106781186548 0.0
  outer loop
    vertex 4.93933982822018 1.06066017177982 0.0
    vertex 4.70096189432334 0.75 6.0
    vertex 4.70096189432334 0.75 0.0
  endloop
endfacet
facet normal 0.866025403784439 -0.5 0.0
  outer loop
    vertex 4.70096189432334 0.75 6.0
    vertex 4.93933982822018 1.06066017177982 0.0
    vertex 4.93933982822018 1.06066017177982 6.0
  endloop
endfacet
facet normal 0.5 -0.866025403784439 0.0
  outer loop
    vertex 5.25 1.29903810567666 6.0
    vertex 4.93933982822018 1.06066017177982 0.0
    vertex 5.25 1.29903810567666 0.0
  endloop
endfacet
facet normal 0.707106781186547 -0.707106781186548 0.0
  outer loop
    vertex 4.93933982822018 1.06066017177982 0.0
    vertex 5.25 1.29903810567666 6.0
    vertex 4.93933982822018 1.06066017177982 6.0
  endloop
endfacet
facet normal 0.258819045102521 -0.965925826289068 0.0
  outer loop
    vertex 5.61177143234622 1.4488887394336 6.0
    vertex 5.25 1.29903810567666 0.0
    vertex 5.61177143234622 1.4488887394336 0.0
  endloop
endfacet
facet normal 0.5 -0.866025403784439 0.0
  outer loop
    vertex 5.25 1.29903810567666 0.0
    vertex 5.61177143234622 1.4488887394336 6.0
    vertex 5.25 1.29903810567666 6.0
  endloop
endfacet
facet normal -9.80222088521159e-017 -1.0 0.0
  outer loop
    vertex 6.0 1.5 6.0
    vertex 5.61177143234622 1.4488887394336 0.0
    vertex 6.0 1.5 0.0
  endloop
endfacet
facet normal 0.258819045102521 -0.965925826289068 0.0
  outer loop
    vertex 5.61177143234622 1.4488887394336 0.0
    vertex 6.0 1.5 6.0
    vertex 5.61177143234622 1.4488887394336 6.0
  endloop
endfacet
facet normal -0.258819045102521 -0.965925826289068 0.0
  outer loop
    vertex 6.38822856765378 1.4488887394336 6.0
    vertex 6.0 1.5 0.0
    vertex 6.38822856765378 1.4488887394336 0.0
  endloop
endfacet
facet normal -9.80222088521159e-017 -1.0 0.0
  outer loop
    vertex 6.0 1.5 0.0
    vertex 6.38822856765378 1.4488887394336 6.0
    vertex 6.0 1.5 6.0
  endloop
endfacet
facet normal -0.5 -0.866025403784439 0.0
  outer loop
    vertex 6.75 1.29903810567666 6.0
    vertex 6.38822856765378 1.4488887394336 0.0
    vertex 6.75 1.29903810567666 0.0
  endloop
endfacet
facet normal -0.258819045102521 -0.965925826289068 0.0
  outer loop
    vertex 6.38822856765378 1.4488887394336 0.0
    vertex 6.75 1.29903810567666 6.0
    vertex 6.38822856765378 1.4488887394336 6.0
  endloop
endfacet
facet normal -0.707106781186548 -0.707106781186547 0.0
  outer loop
    vertex 7.06066017177982 1.06066017177982 6.0
    vertex 6.75 1.29903810567666 0.0
    vertex 7.06066017177982 1.06066017177982 0.0
  endloop
endfacet
facet normal -0.5 -0.866025403784439 0.0
  outer loop
    vertex 6.75 1.29903810567666 0.0
    vertex 7.06066017177982 1.06066017177982 6.0
    vertex 6.75 1.29903810567666 6.0
  endloop
endfacet
facet normal -0.707106781186548 -0.707106781186547 0.0
  outer loop
    vertex 7.06066017177982 1.06066017177982 6.0
    vertex 7.29903810567666 0.75 0.0
    vertex 7.29903810567666 0.75 6.0
  endloop
endfacet
facet normal -0.866025403784439 -0.5 0.0
  outer loop
    vertex 7.29903810567666 0.75 0.0
    vertex 7.06066017177982 1.06066017177982 6.0
    vertex 7.06066017177982 1.06066017177982 0.0
  endloop
endfacet
facet normal -0.866025403784439 -0.5 0.0
  outer loop
    vertex 7.29903810567666 0.75 6.0
    vertex 7.4488887394336 0.388228567653781 0.0
    vertex 7.4488887394336 0.388228567653781 6.0
  endloop
endfacet
facet normal -0.965925826289068 -0.258819045102522 0.0
  outer loop
    vertex 7.4488887394336 0.388228567653781 0.0
    vertex 7.29903810567666 0.75 6.0
    vertex 7.29903810567666 0.75 0.0
  endloop
endfacet
facet normal 0.0 0.0 1.0
  outer loop
    vertex 6.0 6.0 4.0
    vertex 6.5 54.0 4.0
    vertex 6.0 54.0 4.0
  endloop
endfacet
facet normal 0.0 0.0 1.0
  outer loop
    vertex 6.5 54.0 4.0
    vertex 6.0 6.0 4.0
    vertex 6.5 6.00000000000001 4.0
  endloop
endfacet
facet normal -0.965925826289068 -0.258819045102522 0.0
  outer loop
    vertex 7.4488887394336 0.388228567653781 6.0
    vertex 7.5 0.0 0.0
    vertex 7.5 0.0 6.0
  endloop
endfacet
facet normal -0.99144486137381 -0.130526192220052 -0.0
  outer loop
    vertex 7.5 0.0 0.0
    vertex 7.4488887394336 0.388228567653781 6.0
    vertex 7.4488887394336 0.388228567653781 0.0
  endloop
endfacet
facet normal -0.991444861373811 0.130526192220051 0.0
  outer loop
    vertex 7.5 0.0 6.0
    vertex 7.4488887394336 -0.388228567653783 0.0
    vertex 7.4488887394336 -0.388228567653783 6.0
  endloop
endfacet
facet normal -0.965925826289068 0.258819045102522 0.0
  outer loop
    vertex 7.4488887394336 -0.388228567653783 0.0
    vertex 7.5 0.0 6.0
    vertex 7.5 0.0 0.0
  endloop
endfacet
facet normal 0.866025403784439 0.5 2.66509277246308e-018
  outer loop
    vertex 11.1961524227066 3.0 4.0
    vertex 11.7955549577344 1.55291427061512 6.0
    vertex 11.7955549577344 1.55291427061512 4.0
  endloop
endfacet
facet normal 0.965925826289068 0.258819045102521 -1.3156823037474e-018
  outer loop
    vertex 11.7955549577344 1.55291427061512 6.0
    vertex 11.1961524227066 3.0 4.0
    vertex 11.1961524227066 3.0 6.0
  endloop
endfacet
facet normal 0.707106781186547 0.707106781186548 4.95055160612249e-018
  outer loop
    vertex 10.2426406871193 4.24264068711928 4.0
    vertex 11.1961524227066 3.0 6.0
    vertex 11.1961524227066 3.0 4.0
  endloop
endfacet
facet normal 0.866025403784439 0.5 2.66509277246308e-018
  outer loop
    vertex 11.1961524227066 3.0 6.0
    vertex 10.2426406871193 4.24264068711928 4.0
    vertex 10.2426406871193 4.24264068711928 6.0
  endloop
endfacet
facet normal 0.5 0.866025403784439 2.52819279677661e-019
  outer loop
    vertex 9.0 5.19615242270663 6.0
    vertex 10.2426406871193 4.24264068711928 4.0
    vertex 9.0 5.19615242270663 4.0
  endloop
endfacet
facet normal 0.707106781186547 0.707106781186548 4.95055160612249e-018
  outer loop
    vertex 10.2426406871193 4.24264068711928 4.0
    vertex 9.0 5.19615242270663 6.0
    vertex 10.2426406871193 4.24264068711928 6.0
  endloop
endfacet
facet normal 0.258819045102522 0.965925826289068 -7.23189368245345e-019
  outer loop
    vertex 7.55291427061513 5.79555495773441 6.0
    vertex 9.0 5.19615242270663 4.0
    vertex 7.55291427061513 5.79555495773441 4.0
  endloop
endfacet
facet normal 0.5 0.866025403784439 2.52819279677661e-019
  outer loop
    vertex 9.0 5.19615242270663 4.0
    vertex 7.55291427061513 5.79555495773441 6.0
    vertex 9.0 5.19615242270663 6.0
  endloop
endfacet
facet normal 1.96044417704232e-016 1.0 0.0
  outer loop
    vertex 6.0 6.00000000000001 5.0
    vertex 7.55291427061513 5.79555495773441 4.0
    vertex 6.0 6.0 4.0
  endloop
endfacet
facet normal 0.258819045102522 0.965925826289068 -7.23189368245345e-019
  outer loop
    vertex 7.55291427061513 5.79555495773441 4.0
    vertex 6.0 6.00000000000001 5.0
    vertex 7.55291427061513 5.79555495773441 6.0
  endloop
endfacet
facet normal 0.258819045102522 0.965925826289068 -7.23189368245345e-019
  outer loop
    vertex 7.55291427061513 5.79555495773441 6.0
    vertex 6.0 6.00000000000001 5.0
    vertex 6.0 6.0 6.0
  endloop
endfacet
facet normal -0.258819045102521 0.965925826289068 -5.11372106368316e-019
  outer loop
    vertex 4.44708572938488 5.79555495773441 6.0
    vertex 6.0 6.0 4.0
    vertex 4.44708572938488 5.79555495773441 4.0
  endloop
endfacet
facet normal -0.130526192220053 0.99144486137381 0.0
  outer loop
    vertex 6.0 6.0 4.0
    vertex 4.44708572938488 5.79555495773441 6.0
    vertex 6.0 6.00000000000001 5.0
  endloop
endfacet
facet normal 1.96044417704232e-016 1.0 0.0
  outer loop
    vertex 6.0 6.00000000000001 5.0
    vertex 4.44708572938488 5.79555495773441 6.0
    vertex 6.0 6.0 6.0
  endloop
endfacet
facet normal -0.5 0.866025403784439 -8.4604580227674e-018
  outer loop
    vertex 3.0 5.19615242270663 6.0
    vertex 4.44708572938488 5.79555495773441 4.0
    vertex 3.0 5.19615242270663 4.0
  endloop
endfacet
facet normal -0.258819045102521 0.965925826289068 -5.11372106368316e-019
  outer loop
    vertex 4.44708572938488 5.79555495773441 4.0
    vertex 3.0 5.19615242270663 6.0
    vertex 4.44708572938488 5.79555495773441 6.0
  endloop
endfacet
facet normal -0.707106781186547 0.707106781186548 -8.69871949396822e-018
  outer loop
    vertex 1.75735931288072 4.24264068711929 6.0
    vertex 3.0 5.19615242270663 4.0
    vertex 1.75735931288072 4.24264068711929 4.0
  endloop
endfacet
facet normal -0.5 0.866025403784439 -8.4604580227674e-018
  outer loop
    vertex 3.0 5.19615242270663 4.0
    vertex 1.75735931288072 4.24264068711929 6.0
    vertex 3.0 5.19615242270663 6.0
  endloop
endfacet
facet normal -0.707106781186547 0.707106781186548 -8.69871949396822e-018
  outer loop
    vertex 1.75735931288072 4.24264068711929 6.0
    vertex 0.80384757729337 3.0 4.0
    vertex 0.80384757729337 3.0 6.0
  endloop
endfacet
facet normal -0.866025403784439 0.5 -1.54771165693732e-018
  outer loop
    vertex 0.80384757729337 3.0 4.0
    vertex 1.75735931288072 4.24264068711929 6.0
    vertex 1.75735931288072 4.24264068711929 4.0
  endloop
endfacet
facet normal -0.866025403784439 0.5 -1.54771165693732e-018
  outer loop
    vertex 0.80384757729337 3.0 6.0
    vertex 0.204445042265591 1.55291427061513 4.0
    vertex 0.204445042265591 1.55291427061513 6.0
  endloop
endfacet
facet normal -0.965925826289068 0.258819045102521 -1.03228026918986e-018
  outer loop
    vertex 0.204445042265591 1.55291427061513 4.0
    vertex 0.80384757729337 3.0 6.0
    vertex 0.80384757729337 3.0 4.0
  endloop
endfacet
facet normal -0.965925826289068 0.258819045102521 -1.03228026918986e-018
  outer loop
    vertex 0.204445042265591 1.55291427061513 6.0
    vertex 0.0 0.0 4.0
    vertex 0.0 0.0 6.0
  endloop
endfacet
facet normal -0.99144486137381 0.130526192220052 -4.64397115242395e-019
  outer loop
    vertex 0.0 0.0 4.0
    vertex 0.204445042265591 1.55291427061513 6.0
    vertex 0.204445042265591 1.55291427061513 4.0
  endloop
endfacet
facet normal -0.99144486137381 -0.130526192220052 0.0
  outer loop
    vertex 0.0 0.0 6.0
    vertex 0.204445042265591 -1.55291427061512 0.0
    vertex 0.204445042265591 -1.55291427061512 6.0
  endloop
endfacet
facet normal -0.965925826289068 -0.258819045102521 0.0
  outer loop
    vertex 0.204445042265591 -1.55291427061512 0.0
    vertex 0.0 0.0 6.0
    vertex 0.0 0.0 0.0
  endloop
endfacet
facet normal -0.99144486137381 -0.130526192220052 0.0
  outer loop
    vertex 0.0 0.0 0.0
    vertex 0.0 0.0 6.0
    vertex 0.0 0.0 4.0
  endloop
endfacet
facet normal -0.965925826289068 -0.258819045102521 0.0
  outer loop
    vertex 0.204445042265591 -1.55291427061512 6.0
    vertex 0.803847577293368 -3.0 0.0
    vertex 0.803847577293368 -3.0 6.0
  endloop
endfacet
facet normal -0.866025403784439 -0.5 0.0
  outer loop
    vertex 0.803847577293368 -3.0 0.0
    vertex 0.204445042265591 -1.55291427061512 6.0
    vertex 0.204445042265591 -1.55291427061512 0.0
  endloop
endfacet
facet normal -0.866025403784439 -0.5 0.0
  outer loop
    vertex 0.803847577293368 -3.0 6.0
    vertex 1.75735931288071 -4.24264068711928 0.0
    vertex 1.75735931288071 -4.24264068711928 6.0
  endloop
endfacet
facet normal -0.707106781186548 -0.707106781186547 0.0
  outer loop
    vertex 1.75735931288071 -4.24264068711928 0.0
    vertex 0.803847577293368 -3.0 6.0
    vertex 0.803847577293368 -3.0 0.0
  endloop
endfacet
facet normal -0.500000000000001 -0.866025403784438 0.0
  outer loop
    vertex 3.0 -5.19615242270663 6.0
    vertex 1.75735931288071 -4.24264068711928 0.0
    vertex 3.0 -5.19615242270663 0.0
  endloop
endfacet
facet normal -0.707106781186548 -0.707106781186547 0.0
  outer loop
    vertex 1.75735931288071 -4.24264068711928 0.0
    vertex 3.0 -5.19615242270663 6.0
    vertex 1.75735931288071 -4.24264068711928 6.0
  endloop
endfacet
facet normal -0.258819045102521 -0.965925826289068 0.0
  outer loop
    vertex 4.44708572938487 -5.79555495773441 6.0
    vertex 3.0 -5.19615242270663 0.0
    vertex 4.44708572938487 -5.79555495773441 0.0
  endloop
endfacet
facet normal -0.500000000000001 -0.866025403784438 0.0
  outer loop
    vertex 3.0 -5.19615242270663 0.0
    vertex 4.44708572938487 -5.79555495773441 6.0
    vertex 3.0 -5.19615242270663 6.0
  endloop
endfacet
facet normal -2.40599967182466e-016 -1.0 0.0
  outer loop
    vertex 6.0 -6.0 6.0
    vertex 4.44708572938487 -5.79555495773441 0.0
    vertex 6.0 -6.0 0.0
  endloop
endfacet
facet normal -0.258819045102521 -0.965925826289068 0.0
  outer loop
    vertex 4.44708572938487 -5.79555495773441 0.0
    vertex 6.0 -6.0 6.0
    vertex 4.44708572938487 -5.79555495773441 6.0
  endloop
endfacet
facet normal 0.25881904510252 -0.965925826289068 0.0
  outer loop
    vertex 7.55291427061512 -5.79555495773441 6.0
    vertex 6.0 -6.0 0.0
    vertex 7.55291427061512 -5.79555495773441 0.0
  endloop
endfacet
facet normal -2.40599967182466e-016 -1.0 0.0
  outer loop
    vertex 6.0 -6.0 0.0
    vertex 7.55291427061512 -5.79555495773441 6.0
    vertex 6.0 -6.0 6.0
  endloop
endfacet
facet normal 0.499999999999999 -0.866025403784439 0.0
  outer loop
    vertex 9.0 -5.19615242270663 6.0
    vertex 7.55291427061512 -5.79555495773441 0.0
    vertex 9.0 -5.19615242270663 0.0
  endloop
endfacet
facet normal 0.25881904510252 -0.965925826289068 0.0
  outer loop
    vertex 7.55291427061512 -5.79555495773441 0.0
    vertex 9.0 -5.19615242270663 6.0
    vertex 7.55291427061512 -5.79555495773441 6.0
  endloop
endfacet
facet normal -1.68639878522757e-030 -1.0 1.54284119027587e-015
  outer loop
    vertex 6.0 6.00000000000001 5.0
    vertex 5.5 6.00000000000001 4.0
    vertex 6.0 6.0 4.0
  endloop
endfacet
facet normal -1.68639878522757e-030 -1.0 1.54284119027587e-015
  outer loop
    vertex 5.5 6.00000000000001 4.0
    vertex 6.0 6.00000000000001 5.0
    vertex 5.39839125841738 6.00000000000001 4.20561309952841
  endloop
endfacet
facet normal -1.68639878522757e-030 -1.0 1.54284119027587e-015
  outer loop
    vertex 5.39839125841738 6.00000000000001 4.20561309952841
    vertex 6.0 6.00000000000001 5.0
    vertex 5.37779441158759 6.00000000000001 4.43403563117613
  endloop
endfacet
facet normal -1.68639878522757e-030 -1.0 1.54284119027587e-015
  outer loop
    vertex 5.37779441158759 6.00000000000001 4.43403563117613
    vertex 6.0 6.00000000000001 5.0
    vertex 5.44098300562505 6.00000000000001 4.65450849718747
  endloop
endfacet
facet normal -1.68639878522757e-030 -1.0 1.54284119027587e-015
  outer loop
    vertex 5.44098300562505 6.00000000000001 4.65450849718747
    vertex 6.0 6.00000000000001 5.0
    vertex 5.57944814201164 6.00000000000001 4.83734309202425
  endloop
endfacet
facet normal -1.68639878522757e-030 -1.0 1.54284119027587e-015
  outer loop
    vertex 5.57944814201164 6.00000000000001 4.83734309202425
    vertex 6.0 6.00000000000001 5.0
    vertex 5.7745442754277 6.00000000000001 4.95791913354905
  endloop
endfacet
facet normal 0.707106781186547 -0.707106781186548 0.0
  outer loop
    vertex 10.2426406871193 -4.24264068711929 6.0
    vertex 9.0 -5.19615242270663 0.0
    vertex 10.2426406871193 -4.24264068711929 0.0
  endloop
endfacet
facet normal 0.499999999999999 -0.866025403784439 0.0
  outer loop
    vertex 9.0 -5.19615242270663 0.0
    vertex 10.2426406871193 -4.24264068711929 6.0
    vertex 9.0 -5.19615242270663 6.0
  endloop
endfacet
facet normal -0.965925826289068 0.258819045102521 0.0
  outer loop
    vertex 7.4488887394336 59.6117714323462 6.0
    vertex 7.29903810567666 59.25 0.0
    vertex 7.29903810567666 59.25 6.0
  endloop
endfacet
facet normal -0.86602540378444 0.499999999999997 0.0
  outer loop
    vertex 7.29903810567666 59.25 0.0
    vertex 7.4488887394336 59.6117714323462 6.0
    vertex 7.4488887394336 59.6117714323462 0.0
  endloop
endfacet
facet normal -0.86602540378444 0.499999999999997 0.0
  outer loop
    vertex 7.29903810567666 59.25 6.0
    vertex 7.06066017177982 58.9393398282202 0.0
    vertex 7.06066017177982 58.9393398282202 6.0
  endloop
endfacet
facet normal -0.70710678118655 0.707106781186545 0.0
  outer loop
    vertex 7.06066017177982 58.9393398282202 0.0
    vertex 7.29903810567666 59.25 6.0
    vertex 7.29903810567666 59.25 0.0
  endloop
endfacet
facet normal -0.499999999999997 0.866025403784441 0.0
  outer loop
    vertex 6.75 58.7009618943233 6.0
    vertex 7.06066017177982 58.9393398282202 0.0
    vertex 6.75 58.7009618943233 0.0
  endloop
endfacet
facet normal -0.70710678118655 0.707106781186545 0.0
  outer loop
    vertex 7.06066017177982 58.9393398282202 0.0
    vertex 6.75 58.7009618943233 6.0
    vertex 7.06066017177982 58.9393398282202 6.0
  endloop
endfacet
facet normal -0.258819045102514 0.96592582628907 0.0
  outer loop
    vertex 6.38822856765378 58.5511112605664 6.0
    vertex 6.75 58.7009618943233 0.0
    vertex 6.38822856765378 58.5511112605664 0.0
  endloop
endfacet
facet normal -0.499999999999997 0.866025403784441 0.0
  outer loop
    vertex 6.75 58.7009618943233 0.0
    vertex 6.38822856765378 58.5511112605664 6.0
    vertex 6.75 58.7009618943233 6.0
  endloop
endfacet
facet normal -3.65355505721523e-016 1.0 0.0
  outer loop
    vertex 6.0 58.5 6.0
    vertex 6.38822856765378 58.5511112605664 0.0
    vertex 6.0 58.5 0.0
  endloop
endfacet
facet normal -0.258819045102514 0.96592582628907 0.0
  outer loop
    vertex 6.38822856765378 58.5511112605664 0.0
    vertex 6.0 58.5 6.0
    vertex 6.38822856765378 58.5511112605664 6.0
  endloop
endfacet
facet normal 0.258819045102513 0.96592582628907 0.0
  outer loop
    vertex 5.61177143234622 58.5511112605664 6.0
    vertex 6.0 58.5 0.0
    vertex 5.61177143234622 58.5511112605664 0.0
  endloop
endfacet
facet normal -3.65355505721523e-016 1.0 0.0
  outer loop
    vertex 6.0 58.5 0.0
    vertex 5.61177143234622 58.5511112605664 6.0
    vertex 6.0 58.5 6.0
  endloop
endfacet
facet normal 0.499999999999997 0.86602540378444 0.0
  outer loop
    vertex 5.25 58.7009618943233 6.0
    vertex 5.61177143234622 58.5511112605664 0.0
    vertex 5.25 58.7009618943233 0.0
  endloop
endfacet
facet normal 0.258819045102513 0.96592582628907 0.0
  outer loop
    vertex 5.61177143234622 58.5511112605664 0.0
    vertex 5.25 58.7009618943233 6.0
    vertex 5.61177143234622 58.5511112605664 6.0
  endloop
endfacet
facet normal 0.866025403784439 -0.5 0.0
  outer loop
    vertex 11.1961524227066 -3.0 0.0
    vertex 10.2426406871193 -4.24264068711929 6.0
    vertex 10.2426406871193 -4.24264068711929 0.0
  endloop
endfacet
facet normal 0.707106781186547 -0.707106781186548 0.0
  outer loop
    vertex 10.2426406871193 -4.24264068711929 6.0
    vertex 11.1961524227066 -3.0 0.0
    vertex 11.1961524227066 -3.0 6.0
  endloop
endfacet
facet normal 0.965925826289068 -0.258819045102522 0.0
  outer loop
    vertex 11.7955549577344 -1.55291427061513 0.0
    vertex 11.1961524227066 -3.0 6.0
    vertex 11.1961524227066 -3.0 0.0
  endloop
endfacet
facet normal 0.866025403784439 -0.5 0.0
  outer loop
    vertex 11.1961524227066 -3.0 6.0
    vertex 11.7955549577344 -1.55291427061513 0.0
    vertex 11.7955549577344 -1.55291427061513 6.0
  endloop
endfacet
facet normal 0.99144486137381 -0.130526192220052 0.0
  outer loop
    vertex 12.0 0.0 0.0
    vertex 11.7955549577344 -1.55291427061513 6.0
    vertex 11.7955549577344 -1.55291427061513 0.0
  endloop
endfacet
facet normal 0.965925826289068 -0.258819045102522 0.0
  outer loop
    vertex 11.7955549577344 -1.55291427061513 6.0
    vertex 12.0 0.0 0.0
    vertex 12.0 0.0 6.0
  endloop
endfacet
facet normal 0.99144486137381 -0.130526192220052 0.0
  outer loop
    vertex 12.0 0.0 6.0
    vertex 12.0 0.0 0.0
    vertex 12.0 0.0 4.0
  endloop
endfacet
facet normal -1.0 0.0 0.0
  outer loop
    vertex 0.0 60.0 4.0
    vertex 0.0 0.0 0.0
    vertex 0.0 0.0 4.0
  endloop
endfacet
facet normal -1.0 0.0 0.0
  outer loop
    vertex 0.0 0.0 0.0
    vertex 0.0 60.0 4.0
    vertex 0.0 60.0 0.0
  endloop
endfacet
facet normal 0.707106781186551 0.707106781186544 0.0
  outer loop
    vertex 4.93933982822018 58.9393398282202 6.0
    vertex 5.25 58.7009618943233 0.0
    vertex 4.93933982822018 58.9393398282202 0.0
  endloop
endfacet
facet normal 0.499999999999997 0.86602540378444 0.0
  outer loop
    vertex 5.25 58.7009618943233 0.0
    vertex 4.93933982822018 58.9393398282202 6.0
    vertex 5.25 58.7009618943233 6.0
  endloop
endfacet
facet normal 0.866025403784441 0.499999999999996 0.0
  outer loop
    vertex 4.70096189432334 59.25 0.0
    vertex 4.93933982822018 58.9393398282202 6.0
    vertex 4.93933982822018 58.9393398282202 0.0
  endloop
endfacet
facet normal 0.707106781186551 0.707106781186544 0.0
  outer loop
    vertex 4.93933982822018 58.9393398282202 6.0
    vertex 4.70096189432334 59.25 0.0
    vertex 4.70096189432334 59.25 6.0
  endloop
endfacet
facet normal 0.965925826289068 0.258819045102521 0.0
  outer loop
    vertex 4.5511112605664 59.6117714323462 0.0
    vertex 4.70096189432334 59.25 6.0
    vertex 4.70096189432334 59.25 0.0
  endloop
endfacet
facet normal 0.866025403784441 0.499999999999996 0.0
  outer loop
    vertex 4.70096189432334 59.25 6.0
    vertex 4.5511112605664 59.6117714323462 0.0
    vertex 4.5511112605664 59.6117714323462 6.0
  endloop
endfacet
facet normal 0.99144486137381 0.130526192220053 0.0
  outer loop
    vertex 4.5 60.0 0.0
    vertex 4.5511112605664 59.6117714323462 6.0
    vertex 4.5511112605664 59.6117714323462 0.0
  endloop
endfacet
facet normal 0.965925826289068 0.258819045102521 0.0
  outer loop
    vertex 4.5511112605664 59.6117714323462 6.0
    vertex 4.5 60.0 0.0
    vertex 4.5 60.0 6.0
  endloop
endfacet
facet normal 0.965925826289068 -0.258819045102521 0.0
  outer loop
    vertex 4.5511112605664 60.3882285676538 0.0
    vertex 4.5 60.0 6.0
    vertex 4.5 60.0 0.0
  endloop
endfacet
facet normal 0.99144486137381 -0.130526192220053 0.0
  outer loop
    vertex 4.5 60.0 6.0
    vertex 4.5511112605664 60.3882285676538 0.0
    vertex 4.5511112605664 60.3882285676538 6.0
  endloop
endfacet
facet normal 0.86602540378444 -0.499999999999997 0.0
  outer loop
    vertex 4.70096189432334 60.75 0.0
    vertex 4.5511112605664 60.3882285676538 6.0
    vertex 4.5511112605664 60.3882285676538 0.0
  endloop
endfacet
facet normal 0.965925826289068 -0.258819045102521 0.0
  outer loop
    vertex 4.5511112605664 60.3882285676538 6.0
    vertex 4.70096189432334 60.75 0.0
    vertex 4.70096189432334 60.75 6.0
  endloop
endfacet
facet normal 0.70710678118655 -0.707106781186545 0.0
  outer loop
    vertex 4.93933982822018 61.0606601717798 0.0
    vertex 4.70096189432334 60.75 6.0
    vertex 4.70096189432334 60.75 0.0
  endloop
endfacet
facet normal 0.86602540378444 -0.499999999999997 0.0
  outer loop
    vertex 4.70096189432334 60.75 6.0
    vertex 4.93933982822018 61.0606601717798 0.0
    vertex 4.93933982822018 61.0606601717798 6.0
  endloop
endfacet
facet normal 0.499999999999997 -0.86602540378444 0.0
  outer loop
    vertex 5.25 61.2990381056767 6.0
    vertex 4.93933982822018 61.0606601717798 0.0
    vertex 5.25 61.2990381056767 0.0
  endloop
endfacet
facet normal 0.70710678118655 -0.707106781186545 0.0
  outer loop
    vertex 4.93933982822018 61.0606601717798 0.0
    vertex 5.25 61.2990381056767 6.0
    vertex 4.93933982822018 61.0606601717798 6.0
  endloop
endfacet
facet normal 0.258819045102514 -0.96592582628907 0.0
  outer loop
    vertex 5.61177143234622 61.4488887394336 6.0
    vertex 5.25 61.2990381056767 0.0
    vertex 5.61177143234622 61.4488887394336 0.0
  endloop
endfacet
facet normal 0.499999999999997 -0.86602540378444 0.0
  outer loop
    vertex 5.25 61.2990381056767 0.0
    vertex 5.61177143234622 61.4488887394336 6.0
    vertex 5.25 61.2990381056767 6.0
  endloop
endfacet
facet normal 1.1584442864341e-016 -1.0 0.0
  outer loop
    vertex 6.0 61.5 6.0
    vertex 5.61177143234622 61.4488887394336 0.0
    vertex 6.0 61.5 0.0
  endloop
endfacet
facet normal 0.258819045102514 -0.96592582628907 0.0
  outer loop
    vertex 5.61177143234622 61.4488887394336 0.0
    vertex 6.0 61.5 6.0
    vertex 5.61177143234622 61.4488887394336 6.0
  endloop
endfacet
facet normal -0.258819045102513 -0.96592582628907 0.0
  outer loop
    vertex 6.38822856765378 61.4488887394336 6.0
    vertex 6.0 61.5 0.0
    vertex 6.38822856765378 61.4488887394336 0.0
  endloop
endfacet
facet normal 1.1584442864341e-016 -1.0 0.0
  outer loop
    vertex 6.0 61.5 0.0
    vertex 6.38822856765378 61.4488887394336 6.0
    vertex 6.0 61.5 6.0
  endloop
endfacet
facet normal -0.499999999999997 -0.86602540378444 0.0
  outer loop
    vertex 6.75 61.2990381056767 6.0
    vertex 6.38822856765378 61.4488887394336 0.0
    vertex 6.75 61.2990381056767 0.0
  endloop
endfacet
facet normal -0.258819045102513 -0.96592582628907 0.0
  outer loop
    vertex 6.38822856765378 61.4488887394336 0.0
    vertex 6.75 61.2990381056767 6.0
    vertex 6.38822856765378 61.4488887394336 6.0
  endloop
endfacet
facet normal 0.965925826289068 0.258819045102521 -1.3156823037474e-018
  outer loop
    vertex 11.7955549577344 1.55291427061512 4.0
    vertex 12.0 0.0 6.0
    vertex 12.0 0.0 4.0
  endloop
endfacet
facet normal 0.99144486137381 0.130526192220052 -1.23576027549731e-020
  outer loop
    vertex 12.0 0.0 6.0
    vertex 11.7955549577344 1.55291427061512 4.0
    vertex 11.7955549577344 1.55291427061512 6.0
  endloop
endfacet
facet normal -0.707106781186551 -0.707106781186544 0.0
  outer loop
    vertex 7.06066017177982 61.0606601717798 6.0
    vertex 6.75 61.2990381056767 0.0
    vertex 7.06066017177982 61.0606601717798 0.0
  endloop
endfacet
facet normal -0.499999999999997 -0.86602540378444 0.0
  outer loop
    vertex 6.75 61.2990381056767 0.0
    vertex 7.06066017177982 61.0606601717798 6.0
    vertex 6.75 61.2990381056767 6.0
  endloop
endfacet
facet normal -0.707106781186551 -0.707106781186544 0.0
  outer loop
    vertex 7.06066017177982 61.0606601717798 6.0
    vertex 7.29903810567666 60.75 0.0
    vertex 7.29903810567666 60.75 6.0
  endloop
endfacet
facet normal -0.86602540378444 -0.499999999999997 0.0
  outer loop
    vertex 7.29903810567666 60.75 0.0
    vertex 7.06066017177982 61.0606601717798 6.0
    vertex 7.06066017177982 61.0606601717798 0.0
  endloop
endfacet
facet normal -0.86602540378444 -0.499999999999997 0.0
  outer loop
    vertex 7.29903810567666 60.75 6.0
    vertex 7.4488887394336 60.3882285676538 0.0
    vertex 7.4488887394336 60.3882285676538 6.0
  endloop
endfacet
facet normal -0.965925826289068 -0.258819045102521 0.0
  outer loop
    vertex 7.4488887394336 60.3882285676538 0.0
    vertex 7.29903810567666 60.75 6.0
    vertex 7.29903810567666 60.75 0.0
  endloop
endfacet
facet normal -0.965925826289068 -0.258819045102521 0.0
  outer loop
    vertex 7.4488887394336 60.3882285676538 6.0
    vertex 7.5 60.0 0.0
    vertex 7.5 60.0 6.0
  endloop
endfacet
facet normal -0.99144486137381 -0.130526192220053 -0.0
  outer loop
    vertex 7.5 60.0 0.0
    vertex 7.4488887394336 60.3882285676538 6.0
    vertex 7.4488887394336 60.3882285676538 0.0
  endloop
endfacet
facet normal -0.99144486137381 0.130526192220053 0.0
  outer loop
    vertex 7.5 60.0 6.0
    vertex 7.4488887394336 59.6117714323462 0.0
    vertex 7.4488887394336 59.6117714323462 6.0
  endloop
endfacet
facet normal -0.965925826289068 0.258819045102521 0.0
  outer loop
    vertex 7.4488887394336 59.6117714323462 0.0
    vertex 7.5 60.0 6.0
    vertex 7.5 60.0 0.0
  endloop
endfacet
facet normal 0.866025403784439 0.5 0.0
  outer loop
    vertex 11.1961524227066 63.0 0.0
    vertex 11.7955549577344 61.5529142706151 6.0
    vertex 11.7955549577344 61.5529142706151 0.0
  endloop
endfacet
facet normal 0.965925826289068 0.258819045102521 2.8733802706047e-019
  outer loop
    vertex 11.7955549577344 61.5529142706151 6.0
    vertex 11.1961524227066 63.0 0.0
    vertex 11.1961524227066 63.0 6.0
  endloop
endfacet
facet normal 0.707106781186549 0.707106781186546 0.0
  outer loop
    vertex 10.2426406871193 64.2426406871193 0.0
    vertex 11.1961524227066 63.0 6.0
    vertex 11.1961524227066 63.0 0.0
  endloop
endfacet
facet normal 0.866025403784439 0.5 0.0
  outer loop
    vertex 11.1961524227066 63.0 6.0
    vertex 10.2426406871193 64.2426406871193 0.0
    vertex 10.2426406871193 64.2426406871193 6.0
  endloop
endfacet
facet normal 0.5 0.866025403784439 0.0
  outer loop
    vertex 9.0 65.1961524227066 6.0
    vertex 10.2426406871193 64.2426406871193 0.0
    vertex 9.0 65.1961524227066 0.0
  endloop
endfacet
facet normal 0.707106781186549 0.707106781186546 0.0
  outer loop
    vertex 10.2426406871193 64.2426406871193 0.0
    vertex 9.0 65.1961524227066 6.0
    vertex 10.2426406871193 64.2426406871193 6.0
  endloop
endfacet
facet normal 0.25881904510252 0.965925826289069 0.0
  outer loop
    vertex 7.55291427061513 65.7955549577344 6.0
    vertex 9.0 65.1961524227066 0.0
    vertex 7.55291427061513 65.7955549577344 0.0
  endloop
endfacet
facet normal 0.5 0.866025403784439 0.0
  outer loop
    vertex 9.0 65.1961524227066 0.0
    vertex 7.55291427061513 65.7955549577344 6.0
    vertex 9.0 65.1961524227066 6.0
  endloop
endfacet
facet normal 0.0 1.0 0.0
  outer loop
    vertex 6.0 66.0 6.0
    vertex 7.55291427061513 65.7955549577344 0.0
    vertex 6.0 66.0 0.0
  endloop
endfacet
facet normal 0.25881904510252 0.965925826289069 0.0
  outer loop
    vertex 7.55291427061513 65.7955549577344 0.0
    vertex 6.0 66.0 6.0
    vertex 7.55291427061513 65.7955549577344 6.0
  endloop
endfacet
facet normal -0.25881904510252 0.965925826289069 0.0
  outer loop
    vertex 4.44708572938488 65.7955549577344 6.0
    vertex 6.0 66.0 0.0
    vertex 4.44708572938488 65.7955549577344 0.0
  endloop
endfacet
facet normal 0.0 1.0 0.0
  outer loop
    vertex 6.0 66.0 0.0
    vertex 4.44708572938488 65.7955549577344 6.0
    vertex 6.0 66.0 6.0
  endloop
endfacet
facet normal -0.5 0.866025403784439 0.0
  outer loop
    vertex 3.0 65.1961524227066 6.0
    vertex 4.44708572938488 65.7955549577344 0.0
    vertex 3.0 65.1961524227066 0.0
  endloop
endfacet
facet normal -0.25881904510252 0.965925826289069 0.0
  outer loop
    vertex 4.44708572938488 65.7955549577344 0.0
    vertex 3.0 65.1961524227066 6.0
    vertex 4.44708572938488 65.7955549577344 6.0
  endloop
endfacet
facet normal 1.0 0.0 0.0
  outer loop
    vertex 12.0 60.0 0.0
    vertex 12.0 0.0 4.0
    vertex 12.0 0.0 0.0
  endloop
endfacet
facet normal 1.0 0.0 0.0
  outer loop
    vertex 12.0 0.0 4.0
    vertex 12.0 60.0 0.0
    vertex 12.0 60.0 4.0
  endloop
endfacet
facet normal 0.0 0.0 1.0
  outer loop
    vertex 6.0 6.0 4.0
    vertex 5.5 6.00000000000001 4.0
    vertex 4.44708572938488 5.79555495773441 4.0
  endloop
endfacet
facet normal 0.0 0.0 1.0
  outer loop
    vertex 0.204445042265591 1.55291427061513 4.0
    vertex 0.0 60.0 4.0
    vertex 0.0 0.0 4.0
  endloop
endfacet
facet normal 0.0 0.0 1.0
  outer loop
    vertex 0.0 60.0 4.0
    vertex 0.204445042265591 1.55291427061513 4.0
    vertex 0.204445042265591 58.4470857293849 4.0
  endloop
endfacet
facet normal 0.0 0.0 1.0
  outer loop
    vertex 0.204445042265591 58.4470857293849 4.0
    vertex 0.204445042265591 1.55291427061513 4.0
    vertex 0.803847577293368 57.0 4.0
  endloop
endfacet
facet normal 0.0 0.0 1.0
  outer loop
    vertex 0.803847577293368 57.0 4.0
    vertex 0.204445042265591 1.55291427061513 4.0
    vertex 0.80384757729337 3.0 4.0
  endloop
endfacet
facet normal 0.0 0.0 1.0
  outer loop
    vertex 0.803847577293368 57.0 4.0
    vertex 0.80384757729337 3.0 4.0
    vertex 1.75735931288071 55.7573593128807 4.0
  endloop
endfacet
facet normal 0.0 0.0 1.0
  outer loop
    vertex 1.75735931288071 55.7573593128807 4.0
    vertex 0.80384757729337 3.0 4.0
    vertex 1.75735931288072 4.24264068711929 4.0
  endloop
endfacet
facet normal 0.0 0.0 1.0
  outer loop
    vertex 1.75735931288071 55.7573593128807 4.0
    vertex 1.75735931288072 4.24264068711929 4.0
    vertex 3.0 54.8038475772934 4.0
  endloop
endfacet
facet normal 0.0 0.0 1.0
  outer loop
    vertex 3.0 54.8038475772934 4.0
    vertex 1.75735931288072 4.24264068711929 4.0
    vertex 3.0 5.19615242270663 4.0
  endloop
endfacet
facet normal 0.0 0.0 1.0
  outer loop
    vertex 3.0 54.8038475772934 4.0
    vertex 3.0 5.19615242270663 4.0
    vertex 4.44708572938487 54.2044450422656 4.0
  endloop
endfacet
facet normal 0.0 0.0 1.0
  outer loop
    vertex 4.44708572938487 54.2044450422656 4.0
    vertex 3.0 5.19615242270663 4.0
    vertex 4.44708572938488 5.79555495773441 4.0
  endloop
endfacet
facet normal 0.0 0.0 1.0
  outer loop
    vertex 4.44708572938487 54.2044450422656 4.0
    vertex 4.44708572938488 5.79555495773441 4.0
    vertex 5.5 54.0 4.0
  endloop
endfacet
facet normal 0.0 0.0 1.0
  outer loop
    vertex 4.44708572938487 54.2044450422656 4.0
    vertex 5.5 54.0 4.0
    vertex 6.0 54.0 4.0
  endloop
endfacet
facet normal 0.0 0.0 1.0
  outer loop
    vertex 5.5 54.0 4.0
    vertex 4.44708572938488 5.79555495773441 4.0
    vertex 5.5 6.00000000000001 4.0
  endloop
endfacet
facet normal -0.707106781186547 0.707106781186548 0.0
  outer loop
    vertex 1.75735931288072 64.2426406871193 6.0
    vertex 3.0 65.1961524227066 0.0
    vertex 1.75735931288072 64.2426406871193 0.0
  endloop
endfacet
facet normal -0.5 0.866025403784439 0.0
  outer loop
    vertex 3.0 65.1961524227066 0.0
    vertex 1.75735931288072 64.2426406871193 6.0
    vertex 3.0 65.1961524227066 6.0
  endloop
endfacet
facet normal -0.707106781186547 0.707106781186548 0.0
  outer loop
    vertex 1.75735931288072 64.2426406871193 6.0
    vertex 0.80384757729337 63.0 0.0
    vertex 0.80384757729337 63.0 6.0
  endloop
endfacet
facet normal -0.866025403784438 0.500000000000001 0.0
  outer loop
    vertex 0.80384757729337 63.0 0.0
    vertex 1.75735931288072 64.2426406871193 6.0
    vertex 1.75735931288072 64.2426406871193 0.0
  endloop
endfacet
facet normal -0.866025403784438 0.500000000000001 0.0
  outer loop
    vertex 0.80384757729337 63.0 6.0
    vertex 0.204445042265591 61.5529142706151 0.0
    vertex 0.204445042265591 61.5529142706151 6.0
  endloop
endfacet
facet normal -0.965925826289068 0.258819045102521 1.72402816236282e-018
  outer loop
    vertex 0.204445042265591 61.5529142706151 0.0
    vertex 0.80384757729337 63.0 6.0
    vertex 0.80384757729337 63.0 0.0
  endloop
endfacet
facet normal -0.965925826289068 0.258819045102521 1.72402816236282e-018
  outer loop
    vertex 0.204445042265591 61.5529142706151 6.0
    vertex 0.0 60.0 4.0
    vertex 0.0 60.0 6.0
  endloop
endfacet
facet normal -0.99144486137381 0.130526192220052 3.4185577248767e-018
  outer loop
    vertex 0.0 60.0 4.0
    vertex 0.204445042265591 61.5529142706151 6.0
    vertex 0.0 60.0 0.0
  endloop
endfacet
facet normal -0.99144486137381 0.130526192220052 3.4185577248767e-018
  outer loop
    vertex 0.0 60.0 0.0
    vertex 0.204445042265591 61.5529142706151 6.0
    vertex 0.204445042265591 61.5529142706151 0.0
  endloop
endfacet
facet normal -0.99144486137381 -0.130526192220052 6.52149761003163e-019
  outer loop
    vertex 0.0 60.0 6.0
    vertex 0.204445042265591 58.4470857293849 4.0
    vertex 0.204445042265591 58.4470857293849 6.0
  endloop
endfacet
facet normal -0.965925826289068 -0.258819045102521 3.28888567791662e-019
  outer loop
    vertex 0.204445042265591 58.4470857293849 4.0
    vertex 0.0 60.0 6.0
    vertex 0.0 60.0 4.0
  endloop
endfacet
facet normal -0.965925826289068 -0.258819045102521 3.28888567791662e-019
  outer loop
    vertex 0.204445042265591 58.4470857293849 6.0
    vertex 0.803847577293368 57.0 4.0
    vertex 0.803847577293368 57.0 6.0
  endloop
endfacet
facet normal -0.866025403784439 -0.499999999999999 -2.53341563719632e-018
  outer loop
    vertex 0.803847577293368 57.0 4.0
    vertex 0.204445042265591 58.4470857293849 6.0
    vertex 0.204445042265591 58.4470857293849 4.0
  endloop
endfacet
facet normal -0.866025403784439 -0.499999999999999 -2.53341563719632e-018
  outer loop
    vertex 0.803847577293368 57.0 6.0
    vertex 1.75735931288071 55.7573593128807 4.0
    vertex 1.75735931288071 55.7573593128807 6.0
  endloop
endfacet
facet normal -0.707106781186549 -0.707106781186546 2.32559336540082e-019
  outer loop
    vertex 1.75735931288071 55.7573593128807 4.0
    vertex 0.803847577293368 57.0 6.0
    vertex 0.803847577293368 57.0 4.0
  endloop
endfacet
facet normal 0.0 0.0 1.0
  outer loop
    vertex 0.204445042265591 -1.55291427061512 6.0
    vertex 0.204445042265591 1.55291427061513 6.0
    vertex 0.0 0.0 6.0
  endloop
endfacet
facet normal 0.0 0.0 1.0
  outer loop
    vertex 0.204445042265591 1.55291427061513 6.0
    vertex 0.204445042265591 -1.55291427061512 6.0
    vertex 0.803847577293368 -3.0 6.0
  endloop
endfacet
facet normal 0.0 0.0 1.0
  outer loop
    vertex 0.204445042265591 1.55291427061513 6.0
    vertex 0.803847577293368 -3.0 6.0
    vertex 0.80384757729337 3.0 6.0
  endloop
endfacet
facet normal 0.0 0.0 1.0
  outer loop
    vertex 0.80384757729337 3.0 6.0
    vertex 0.803847577293368 -3.0 6.0
    vertex 1.75735931288071 -4.24264068711928 6.0
  endloop
endfacet
facet normal 0.0 0.0 1.0
  outer loop
    vertex 0.80384757729337 3.0 6.0
    vertex 1.75735931288071 -4.24264068711928 6.0
    vertex 1.75735931288072 4.24264068711929 6.0
  endloop
endfacet
facet normal 0.0 0.0 1.0
  outer loop
    vertex 1.75735931288072 4.24264068711929 6.0
    vertex 1.75735931288071 -4.24264068711928 6.0
    vertex 3.0 -5.19615242270663 6.0
  endloop
endfacet
facet normal 0.0 0.0 1.0
  outer loop
    vertex 1.75735931288072 4.24264068711929 6.0
    vertex 3.0 -5.19615242270663 6.0
    vertex 3.0 5.19615242270663 6.0
  endloop
endfacet
facet normal 0.0 0.0 1.0
  outer loop
    vertex 3.0 5.19615242270663 6.0
    vertex 3.0 -5.19615242270663 6.0
    vertex 4.44708572938487 -5.79555495773441 6.0
  endloop
endfacet
facet normal 0.0 0.0 1.0
  outer loop
    vertex 3.0 5.19615242270663 6.0
    vertex 4.44708572938487 -5.79555495773441 6.0
    vertex 4.44708572938488 5.79555495773441 6.0
  endloop
endfacet
facet normal 0.0 0.0 1.0
  outer loop
    vertex 4.44708572938488 5.79555495773441 6.0
    vertex 4.44708572938487 -5.79555495773441 6.0
    vertex 4.5 0.0 6.0
  endloop
endfacet
facet normal 0.0 0.0 1.0
  outer loop
    vertex 4.5 0.0 6.0
    vertex 4.44708572938487 -5.79555495773441 6.0
    vertex 4.5511112605664 -0.388228567653781 6.0
  endloop
endfacet
facet normal 0.0 0.0 1.0
  outer loop
    vertex 4.5511112605664 -0.388228567653781 6.0
    vertex 4.44708572938487 -5.79555495773441 6.0
    vertex 6.0 -6.0 6.0
  endloop
endfacet
facet normal 0.0 0.0 1.0
  outer loop
    vertex 4.5511112605664 -0.388228567653781 6.0
    vertex 6.0 -6.0 6.0
    vertex 4.70096189432334 -0.749999999999999 6.0
  endloop
endfacet
facet normal 0.0 0.0 1.0
  outer loop
    vertex 4.70096189432334 -0.749999999999999 6.0
    vertex 6.0 -6.0 6.0
    vertex 4.93933982822018 -1.06066017177982 6.0
  endloop
endfacet
facet normal 0.0 0.0 1.0
  outer loop
    vertex 4.93933982822018 -1.06066017177982 6.0
    vertex 6.0 -6.0 6.0
    vertex 5.25 -1.29903810567666 6.0
  endloop
endfacet
facet normal 0.0 0.0 1.0
  outer loop
    vertex 5.25 -1.29903810567666 6.0
    vertex 6.0 -6.0 6.0
    vertex 5.61177143234622 -1.4488887394336 6.0
  endloop
endfacet
facet normal 0.0 0.0 1.0
  outer loop
    vertex 5.61177143234622 -1.4488887394336 6.0
    vertex 6.0 -6.0 6.0
    vertex 6.0 -1.5 6.0
  endloop
endfacet
facet normal 0.0 0.0 1.0
  outer loop
    vertex 6.0 -1.5 6.0
    vertex 6.0 -6.0 6.0
    vertex 7.55291427061512 -5.79555495773441 6.0
  endloop
endfacet
facet normal 0.0 0.0 1.0
  outer loop
    vertex 6.0 -1.5 6.0
    vertex 7.55291427061512 -5.79555495773441 6.0
    vertex 6.38822856765378 -1.4488887394336 6.0
  endloop
endfacet
facet normal 0.0 0.0 1.0
  outer loop
    vertex 6.38822856765378 -1.4488887394336 6.0
    vertex 7.55291427061512 -5.79555495773441 6.0
    vertex 6.75 -1.29903810567666 6.0
  endloop
endfacet
facet normal 0.0 0.0 1.0
  outer loop
    vertex 6.75 -1.29903810567666 6.0
    vertex 7.55291427061512 -5.79555495773441 6.0
    vertex 7.06066017177982 -1.06066017177982 6.0
  endloop
endfacet
facet normal 0.0 0.0 1.0
  outer loop
    vertex 7.06066017177982 -1.06066017177982 6.0
    vertex 7.55291427061512 -5.79555495773441 6.0
    vertex 7.29903810567666 -0.750000000000001 6.0
  endloop
endfacet
facet normal 0.0 0.0 1.0
  outer loop
    vertex 7.29903810567666 -0.750000000000001 6.0
    vertex 7.55291427061512 -5.79555495773441 6.0
    vertex 7.4488887394336 -0.388228567653783 6.0
  endloop
endfacet
facet normal 0.0 0.0 1.0
  outer loop
    vertex 7.4488887394336 -0.388228567653783 6.0
    vertex 7.55291427061512 -5.79555495773441 6.0
    vertex 7.5 0.0 6.0
  endloop
endfacet
facet normal 0.0 0.0 1.0
  outer loop
    vertex 4.44708572938488 5.79555495773441 6.0
    vertex 4.5511112605664 0.388228567653781 6.0
    vertex 6.0 6.0 6.0
  endloop
endfacet
facet normal 0.0 0.0 1.0
  outer loop
    vertex 4.5511112605664 0.388228567653781 6.0
    vertex 4.44708572938488 5.79555495773441 6.0
    vertex 4.5 0.0 6.0
  endloop
endfacet
facet normal 0.0 0.0 1.0
  outer loop
    vertex 6.0 6.0 6.0
    vertex 4.5511112605664 0.388228567653781 6.0
    vertex 4.70096189432334 0.75 6.0
  endloop
endfacet
facet normal 0.0 0.0 1.0
  outer loop
    vertex 6.0 6.0 6.0
    vertex 4.70096189432334 0.75 6.0
    vertex 4.93933982822018 1.06066017177982 6.0
  endloop
endfacet
facet normal 0.0 0.0 1.0
  outer loop
    vertex 6.0 6.0 6.0
    vertex 4.93933982822018 1.06066017177982 6.0
    vertex 5.25 1.29903810567666 6.0
  endloop
endfacet
facet normal 0.0 0.0 1.0
  outer loop
    vertex 6.0 6.0 6.0
    vertex 5.25 1.29903810567666 6.0
    vertex 5.61177143234622 1.4488887394336 6.0
  endloop
endfacet
facet normal 0.0 0.0 1.0
  outer loop
    vertex 6.0 6.0 6.0
    vertex 5.61177143234622 1.4488887394336 6.0
    vertex 6.0 1.5 6.0
  endloop
endfacet
facet normal 0.0 0.0 1.0
  outer loop
    vertex 6.0 6.0 6.0
    vertex 6.0 1.5 6.0
    vertex 6.38822856765378 1.4488887394336 6.0
  endloop
endfacet
facet normal 0.0 0.0 1.0
  outer loop
    vertex 6.0 6.0 6.0
    vertex 6.38822856765378 1.4488887394336 6.0
    vertex 7.55291427061513 5.79555495773441 6.0
  endloop
endfacet
facet normal 0.0 0.0 1.0
  outer loop
    vertex 7.55291427061513 5.79555495773441 6.0
    vertex 6.38822856765378 1.4488887394336 6.0
    vertex 6.75 1.29903810567666 6.0
  endloop
endfacet
facet normal 0.0 0.0 1.0
  outer loop
    vertex 7.55291427061513 5.79555495773441 6.0
    vertex 6.75 1.29903810567666 6.0
    vertex 7.06066017177982 1.06066017177982 6.0
  endloop
endfacet
facet normal 0.0 0.0 1.0
  outer loop
    vertex 7.55291427061513 5.79555495773441 6.0
    vertex 7.06066017177982 1.06066017177982 6.0
    vertex 7.29903810567666 0.75 6.0
  endloop
endfacet
facet normal 0.0 0.0 1.0
  outer loop
    vertex 7.55291427061513 5.79555495773441 6.0
    vertex 7.29903810567666 0.75 6.0
    vertex 7.4488887394336 0.388228567653781 6.0
  endloop
endfacet
facet normal 0.0 0.0 1.0
  outer loop
    vertex 7.55291427061513 5.79555495773441 6.0
    vertex 7.4488887394336 0.388228567653781 6.0
    vertex 7.5 0.0 6.0
  endloop
endfacet
facet normal 0.0 0.0 1.0
  outer loop
    vertex 7.55291427061513 5.79555495773441 6.0
    vertex 7.5 0.0 6.0
    vertex 7.55291427061512 -5.79555495773441 6.0
  endloop
endfacet
facet normal 0.0 0.0 1.0
  outer loop
    vertex 7.55291427061513 5.79555495773441 6.0
    vertex 7.55291427061512 -5.79555495773441 6.0
    vertex 9.0 -5.19615242270663 6.0
  endloop
endfacet
facet normal 0.0 0.0 1.0
  outer loop
    vertex 7.55291427061513 5.79555495773441 6.0
    vertex 9.0 -5.19615242270663 6.0
    vertex 9.0 5.19615242270663 6.0
  endloop
endfacet
facet normal 0.0 0.0 1.0
  outer loop
    vertex 9.0 5.19615242270663 6.0
    vertex 9.0 -5.19615242270663 6.0
    vertex 10.2426406871193 -4.24264068711929 6.0
  endloop
endfacet
facet normal 0.0 0.0 1.0
  outer loop
    vertex 9.0 5.19615242270663 6.0
    vertex 10.2426406871193 -4.24264068711929 6.0
    vertex 10.2426406871193 4.24264068711928 6.0
  endloop
endfacet
facet normal 0.0 0.0 1.0
  outer loop
    vertex 10.2426406871193 4.24264068711928 6.0
    vertex 10.2426406871193 -4.24264068711929 6.0
    vertex 11.1961524227066 -3.0 6.0
  endloop
endfacet
facet normal 0.0 0.0 1.0
  outer loop
    vertex 10.2426406871193 4.24264068711928 6.0
    vertex 11.1961524227066 -3.0 6.0
    vertex 11.1961524227066 3.0 6.0
  endloop
endfacet
facet normal 0.0 0.0 1.0
  outer loop
    vertex 11.1961524227066 3.0 6.0
    vertex 11.1961524227066 -3.0 6.0
    vertex 11.7955549577344 -1.55291427061513 6.0
  endloop
endfacet
facet normal 0.0 0.0 1.0
  outer loop
    vertex 11.1961524227066 3.0 6.0
    vertex 11.7955549577344 -1.55291427061513 6.0
    vertex 11.7955549577344 1.55291427061512 6.0
  endloop
endfacet
facet normal 0.0 0.0 1.0
  outer loop
    vertex 11.7955549577344 1.55291427061512 6.0
    vertex 11.7955549577344 -1.55291427061513 6.0
    vertex 12.0 0.0 6.0
  endloop
endfacet
facet normal -0.5 -0.866025403784439 6.44041353670623e-018
  outer loop
    vertex 3.0 54.8038475772934 6.0
    vertex 1.75735931288071 55.7573593128807 4.0
    vertex 3.0 54.8038475772934 4.0
  endloop
endfacet
facet normal -0.707106781186549 -0.707106781186546 2.32559336540082e-019
  outer loop
    vertex 1.75735931288071 55.7573593128807 4.0
    vertex 3.0 54.8038475772934 6.0
    vertex 1.75735931288071 55.7573593128807 6.0
  endloop
endfacet
facet normal -0.258819045102525 -0.965925826289067 3.67443856296977e-018
  outer loop
    vertex 4.44708572938487 54.2044450422656 6.0
    vertex 3.0 54.8038475772934 4.0
    vertex 4.44708572938487 54.2044450422656 4.0
  endloop
endfacet
facet normal -0.5 -0.866025403784439 6.44041353670623e-018
  outer loop
    vertex 3.0 54.8038475772934 4.0
    vertex 4.44708572938487 54.2044450422656 6.0
    vertex 3.0 54.8038475772934 6.0
  endloop
endfacet
facet normal 2.40599967182467e-016 -1.0 0.0
  outer loop
    vertex 6.0 54.0 5.0
    vertex 4.44708572938487 54.2044450422656 4.0
    vertex 6.0 54.0 4.0
  endloop
endfacet
facet normal -0.258819045102525 -0.965925826289067 3.67443856296977e-018
  outer loop
    vertex 4.44708572938487 54.2044450422656 4.0
    vertex 6.0 54.0 5.0
    vertex 4.44708572938487 54.2044450422656 6.0
  endloop
endfacet
facet normal -0.258819045102525 -0.965925826289067 3.67443856296977e-018
  outer loop
    vertex 4.44708572938487 54.2044450422656 6.0
    vertex 6.0 54.0 5.0
    vertex 6.0 54.0 6.0
  endloop
endfacet
facet normal 0.258819045102525 -0.965925826289067 1.74593358098212e-018
  outer loop
    vertex 7.55291427061512 54.2044450422656 6.0
    vertex 6.0 54.0 4.0
    vertex 7.55291427061512 54.2044450422656 4.0
  endloop
endfacet
facet normal 0.130526192220061 -0.991444861373809 0.0
  outer loop
    vertex 6.0 54.0 4.0
    vertex 7.55291427061512 54.2044450422656 6.0
    vertex 6.0 54.0 5.0
  endloop
endfacet
facet normal 2.40599967182467e-016 -1.0 0.0
  outer loop
    vertex 6.0 54.0 5.0
    vertex 7.55291427061512 54.2044450422656 6.0
    vertex 6.0 54.0 6.0
  endloop
endfacet
facet normal 0.5 -0.866025403784439 -1.02004139275434e-018
  outer loop
    vertex 9.0 54.8038475772934 6.0
    vertex 7.55291427061512 54.2044450422656 4.0
    vertex 9.0 54.8038475772934 4.0
  endloop
endfacet
facet normal 0.258819045102525 -0.965925826289067 1.74593358098212e-018
  outer loop
    vertex 7.55291427061512 54.2044450422656 4.0
    vertex 9.0 54.8038475772934 6.0
    vertex 7.55291427061512 54.2044450422656 6.0
  endloop
endfacet
facet normal 0.707106781186547 -0.707106781186548 3.76548641049528e-018
  outer loop
    vertex 10.2426406871193 55.7573593128807 6.0
    vertex 9.0 54.8038475772934 4.0
    vertex 10.2426406871193 55.7573593128807 4.0
  endloop
endfacet
facet normal 0.5 -0.866025403784439 -1.02004139275434e-018
  outer loop
    vertex 9.0 54.8038475772934 4.0
    vertex 10.2426406871193 55.7573593128807 6.0
    vertex 9.0 54.8038475772934 6.0
  endloop
endfacet
facet normal 0.866025403784438 -0.5 8.27739496521388e-018
  outer loop
    vertex 11.1961524227066 57.0 4.0
    vertex 10.2426406871193 55.7573593128807 6.0
    vertex 10.2426406871193 55.7573593128807 4.0
  endloop
endfacet
facet normal 0.707106781186547 -0.707106781186548 3.76548641049528e-018
  outer loop
    vertex 10.2426406871193 55.7573593128807 6.0
    vertex 11.1961524227066 57.0 4.0
    vertex 11.1961524227066 57.0 6.0
  endloop
endfacet
facet normal 0.965925826289068 -0.258819045102521 2.71598030299425e-018
  outer loop
    vertex 11.7955549577344 58.4470857293849 4.0
    vertex 11.1961524227066 57.0 6.0
    vertex 11.1961524227066 57.0 4.0
  endloop
endfacet
facet normal 0.866025403784438 -0.5 8.27739496521388e-018
  outer loop
    vertex 11.1961524227066 57.0 6.0
    vertex 11.7955549577344 58.4470857293849 4.0
    vertex 11.7955549577344 58.4470857293849 6.0
  endloop
endfacet
facet normal 0.99144486137381 -0.130526192220053 1.92349567566286e-018
  outer loop
    vertex 12.0 60.0 4.0
    vertex 11.7955549577344 58.4470857293849 6.0
    vertex 11.7955549577344 58.4470857293849 4.0
  endloop
endfacet
facet normal 0.965925826289068 -0.258819045102521 2.71598030299425e-018
  outer loop
    vertex 11.7955549577344 58.4470857293849 6.0
    vertex 12.0 60.0 4.0
    vertex 12.0 60.0 6.0
  endloop
endfacet
facet normal 0.965925826289068 0.258819045102521 2.8733802706047e-019
  outer loop
    vertex 11.7955549577344 61.5529142706151 0.0
    vertex 12.0 60.0 4.0
    vertex 12.0 60.0 0.0
  endloop
endfacet
facet normal 0.99144486137381 0.130526192220052 5.69759620812784e-019
  outer loop
    vertex 12.0 60.0 4.0
    vertex 11.7955549577344 61.5529142706151 0.0
    vertex 12.0 60.0 6.0
  endloop
endfacet
facet normal 0.99144486137381 0.130526192220052 5.69759620812784e-019
  outer loop
    vertex 12.0 60.0 6.0
    vertex 11.7955549577344 61.5529142706151 0.0
    vertex 11.7955549577344 61.5529142706151 6.0
  endloop
endfacet
facet normal 0.0 0.0 1.0
  outer loop
    vertex 0.204445042265591 58.4470857293849 6.0
    vertex 0.204445042265591 61.5529142706151 6.0
    vertex 0.0 60.0 6.0
  endloop
endfacet
facet normal 0.0 0.0 1.0
  outer loop
    vertex 0.204445042265591 61.5529142706151 6.0
    vertex 0.204445042265591 58.4470857293849 6.0
    vertex 0.803847577293368 57.0 6.0
  endloop
endfacet
facet normal 0.0 0.0 1.0
  outer loop
    vertex 0.204445042265591 61.5529142706151 6.0
    vertex 0.803847577293368 57.0 6.0
    vertex 0.80384757729337 63.0 6.0
  endloop
endfacet
facet normal 0.0 0.0 1.0
  outer loop
    vertex 0.80384757729337 63.0 6.0
    vertex 0.803847577293368 57.0 6.0
    vertex 1.75735931288071 55.7573593128807 6.0
  endloop
endfacet
facet normal 0.0 0.0 1.0
  outer loop
    vertex 0.80384757729337 63.0 6.0
    vertex 1.75735931288071 55.7573593128807 6.0
    vertex 1.75735931288072 64.2426406871193 6.0
  endloop
endfacet
facet normal 0.0 0.0 1.0
  outer loop
    vertex 1.75735931288072 64.2426406871193 6.0
    vertex 1.75735931288071 55.7573593128807 6.0
    vertex 3.0 54.8038475772934 6.0
  endloop
endfacet
facet normal 0.0 0.0 1.0
  outer loop
    vertex 1.75735931288072 64.2426406871193 6.0
    vertex 3.0 54.8038475772934 6.0
    vertex 3.0 65.1961524227066 6.0
  endloop
endfacet
facet normal 0.0 0.0 1.0
  outer loop
    vertex 3.0 65.1961524227066 6.0
    vertex 3.0 54.8038475772934 6.0
    vertex 4.44708572938487 54.2044450422656 6.0
  endloop
endfacet
facet normal 0.0 0.0 1.0
  outer loop
    vertex 3.0 65.1961524227066 6.0
    vertex 4.44708572938487 54.2044450422656 6.0
    vertex 4.44708572938488 65.7955549577344 6.0
  endloop
endfacet
facet normal 0.0 0.0 1.0
  outer loop
    vertex 4.44708572938488 65.7955549577344 6.0
    vertex 4.44708572938487 54.2044450422656 6.0
    vertex 4.5 60.0 6.0
  endloop
endfacet
facet normal 0.0 0.0 1.0
  outer loop
    vertex 4.5 60.0 6.0
    vertex 4.44708572938487 54.2044450422656 6.0
    vertex 4.5511112605664 59.6117714323462 6.0
  endloop
endfacet
facet normal 0.0 0.0 1.0
  outer loop
    vertex 4.5511112605664 59.6117714323462 6.0
    vertex 4.44708572938487 54.2044450422656 6.0
    vertex 6.0 54.0 6.0
  endloop
endfacet
facet normal 0.0 0.0 1.0
  outer loop
    vertex 4.5511112605664 59.6117714323462 6.0
    vertex 6.0 54.0 6.0
    vertex 4.70096189432334 59.25 6.0
  endloop
endfacet
facet normal 0.0 0.0 1.0
  outer loop
    vertex 4.70096189432334 59.25 6.0
    vertex 6.0 54.0 6.0
    vertex 4.93933982822018 58.9393398282202 6.0
  endloop
endfacet
facet normal 0.0 0.0 1.0
  outer loop
    vertex 4.93933982822018 58.9393398282202 6.0
    vertex 6.0 54.0 6.0
    vertex 5.25 58.7009618943233 6.0
  endloop
endfacet
facet normal 0.0 0.0 1.0
  outer loop
    vertex 5.25 58.7009618943233 6.0
    vertex 6.0 54.0 6.0
    vertex 5.61177143234622 58.5511112605664 6.0
  endloop
endfacet
facet normal 0.0 0.0 1.0
  outer loop
    vertex 5.61177143234622 58.5511112605664 6.0
    vertex 6.0 54.0 6.0
    vertex 6.0 58.5 6.0
  endloop
endfacet
facet normal 0.0 0.0 1.0
  outer loop
    vertex 6.0 58.5 6.0
    vertex 6.0 54.0 6.0
    vertex 7.55291427061512 54.2044450422656 6.0
  endloop
endfacet
facet normal 0.0 0.0 1.0
  outer loop
    vertex 6.0 58.5 6.0
    vertex 7.55291427061512 54.2044450422656 6.0
    vertex 6.38822856765378 58.5511112605664 6.0
  endloop
endfacet
facet normal 0.0 0.0 1.0
  outer loop
    vertex 6.38822856765378 58.5511112605664 6.0
    vertex 7.55291427061512 54.2044450422656 6.0
    vertex 6.75 58.7009618943233 6.0
  endloop
endfacet
facet normal 0.0 0.0 1.0
  outer loop
    vertex 6.75 58.7009618943233 6.0
    vertex 7.55291427061512 54.2044450422656 6.0
    vertex 7.06066017177982 58.9393398282202 6.0
  endloop
endfacet
facet normal 0.0 0.0 1.0
  outer loop
    vertex 7.06066017177982 58.9393398282202 6.0
    vertex 7.55291427061512 54.2044450422656 6.0
    vertex 7.29903810567666 59.25 6.0
  endloop
endfacet
facet normal 0.0 0.0 1.0
  outer loop
    vertex 7.29903810567666 59.25 6.0
    vertex 7.55291427061512 54.2044450422656 6.0
    vertex 7.4488887394336 59.6117714323462 6.0
  endloop
endfacet
facet normal 0.0 0.0 1.0
  outer loop
    vertex 7.4488887394336 59.6117714323462 6.0
    vertex 7.55291427061512 54.2044450422656 6.0
    vertex 7.5 60.0 6.0
  endloop
endfacet
facet normal 0.0 0.0 1.0
  outer loop
    vertex 4.44708572938488 65.7955549577344 6.0
    vertex 4.5511112605664 60.3882285676538 6.0
    vertex 6.0 66.0 6.0
  endloop
endfacet
facet normal 0.0 0.0 1.0
  outer loop
    vertex 4.5511112605664 60.3882285676538 6.0
    vertex 4.44708572938488 65.7955549577344 6.0
    vertex 4.5 60.0 6.0
  endloop
endfacet
facet normal 0.0 0.0 1.0
  outer loop
    vertex 6.0 66.0 6.0
    vertex 4.5511112605664 60.3882285676538 6.0
    vertex 4.70096189432334 60.75 6.0
  endloop
endfacet
facet normal 0.0 0.0 1.0
  outer loop
    vertex 6.0 66.0 6.0
    vertex 4.70096189432334 60.75 6.0
    vertex 4.93933982822018 61.0606601717798 6.0
  endloop
endfacet
facet normal 0.0 0.0 1.0
  outer loop
    vertex 6.0 66.0 6.0
    vertex 4.93933982822018 61.0606601717798 6.0
    vertex 5.25 61.2990381056767 6.0
  endloop
endfacet
facet normal 0.0 0.0 1.0
  outer loop
    vertex 6.0 66.0 6.0
    vertex 5.25 61.2990381056767 6.0
    vertex 5.61177143234622 61.4488887394336 6.0
  endloop
endfacet
facet normal 0.0 0.0 1.0
  outer loop
    vertex 6.0 66.0 6.0
    vertex 5.61177143234622 61.4488887394336 6.0
    vertex 6.0 61.5 6.0
  endloop
endfacet
facet normal 0.0 0.0 1.0
  outer loop
    vertex 6.0 66.0 6.0
    vertex 6.0 61.5 6.0
    vertex 6.38822856765378 61.4488887394336 6.0
  endloop
endfacet
facet normal 0.0 0.0 1.0
  outer loop
    vertex 6.0 66.0 6.0
    vertex 6.38822856765378 61.4488887394336 6.0
    vertex 7.55291427061513 65.7955549577344 6.0
  endloop
endfacet
facet normal 0.0 0.0 1.0
  outer loop
    vertex 7.55291427061513 65.7955549577344 6.0
    vertex 6.38822856765378 61.4488887394336 6.0
    vertex 6.75 61.2990381056767 6.0
  endloop
endfacet
facet normal 0.0 0.0 1.0
  outer loop
    vertex 7.55291427061513 65.7955549577344 6.0
    vertex 6.75 61.2990381056767 6.0
    vertex 7.06066017177982 61.0606601717798 6.0
  endloop
endfacet
facet normal 0.0 0.0 1.0
  outer loop
    vertex 7.55291427061513 65.7955549577344 6.0
    vertex 7.06066017177982 61.0606601717798 6.0
    vertex 7.29903810567666 60.75 6.0
  endloop
endfacet
facet normal 0.0 0.0 1.0
  outer loop
    vertex 7.55291427061513 65.7955549577344 6.0
    vertex 7.29903810567666 60.75 6.0
    vertex 7.4488887394336 60.3882285676538 6.0
  endloop
endfacet
facet normal 0.0 0.0 1.0
  outer loop
    vertex 7.55291427061513 65.7955549577344 6.0
    vertex 7.4488887394336 60.3882285676538 6.0
    vertex 7.5 60.0 6.0
  endloop
endfacet
facet normal 0.0 0.0 1.0
  outer loop
    vertex 7.55291427061513 65.7955549577344 6.0
    vertex 7.5 60.0 6.0
    vertex 7.55291427061512 54.2044450422656 6.0
  endloop
endfacet
facet normal 0.0 0.0 1.0
  outer loop
    vertex 7.55291427061513 65.7955549577344 6.0
    vertex 7.55291427061512 54.2044450422656 6.0
    vertex 9.0 54.8038475772934 6.0
  endloop
endfacet
facet normal 0.0 0.0 1.0
  outer loop
    vertex 7.55291427061513 65.7955549577344 6.0
    vertex 9.0 54.8038475772934 6.0
    vertex 9.0 65.1961524227066 6.0
  endloop
endfacet
facet normal 0.0 0.0 1.0
  outer loop
    vertex 9.0 65.1961524227066 6.0
    vertex 9.0 54.8038475772934 6.0
    vertex 10.2426406871193 55.7573593128807 6.0
  endloop
endfacet
facet normal 0.0 0.0 1.0
  outer loop
    vertex 9.0 65.1961524227066 6.0
    vertex 10.2426406871193 55.7573593128807 6.0
    vertex 10.2426406871193 64.2426406871193 6.0
  endloop
endfacet
facet normal 0.0 0.0 1.0
  outer loop
    vertex 10.2426406871193 64.2426406871193 6.0
    vertex 10.2426406871193 55.7573593128807 6.0
    vertex 11.1961524227066 57.0 6.0
  endloop
endfacet
facet normal 0.0 0.0 1.0
  outer loop
    vertex 10.2426406871193 64.2426406871193 6.0
    vertex 11.1961524227066 57.0 6.0
    vertex 11.1961524227066 63.0 6.0
  endloop
endfacet
facet normal 0.0 0.0 1.0
  outer loop
    vertex 11.1961524227066 63.0 6.0
    vertex 11.1961524227066 57.0 6.0
    vertex 11.7955549577344 58.4470857293849 6.0
  endloop
endfacet
facet normal 0.0 0.0 1.0
  outer loop
    vertex 11.1961524227066 63.0 6.0
    vertex 11.7955549577344 58.4470857293849 6.0
    vertex 11.7955549577344 61.5529142706151 6.0
  endloop
endfacet
facet normal 0.0 0.0 1.0
  outer loop
    vertex 11.7955549577344 61.5529142706151 6.0
    vertex 11.7955549577344 58.4470857293849 6.0
    vertex 12.0 60.0 6.0
  endloop
endfacet
endsolid kossel-cable-org
