solid kossel1515-effector-blank
facet normal -0.258819045102527 -0.965925826289067 -0.0
  outer loop
    vertex 27.8616098515751 423.272643122092 23.0
    vertex 26.5678339116088 423.619309340393 0.0
    vertex 27.8616098515751 423.272643122092 0.0
  endloop
endfacet
facet normal -0.258819045102527 -0.965925826289067 -0.0
  outer loop
    vertex 26.5678339116088 423.619309340393 0.0
    vertex 27.8616098515751 423.272643122092 23.0
    vertex 26.5678339116088 423.619309340393 23.0
  endloop
endfacet
facet normal 0.707106781186548 -0.707106781186548 0.0
  outer loop
    vertex 28.208276069876 423.619309340393 0.0
    vertex 27.8616098515751 423.272643122092 23.0
    vertex 27.8616098515751 423.272643122092 0.0
  endloop
endfacet
facet normal 0.707106781186548 -0.707106781186548 0.0
  outer loop
    vertex 27.8616098515751 423.272643122092 23.0
    vertex 28.208276069876 423.619309340393 0.0
    vertex 28.208276069876 423.619309340393 23.0
  endloop
endfacet
facet normal 0.707106781186548 -0.707106781186548 0.0
  outer loop
    vertex 30.6969241486138 426.107957419131 0.0
    vertex 28.208276069876 423.619309340393 23.0
    vertex 28.208276069876 423.619309340393 0.0
  endloop
endfacet
facet normal 0.707106781186548 -0.707106781186548 0.0
  outer loop
    vertex 28.208276069876 423.619309340393 23.0
    vertex 30.6969241486138 426.107957419131 0.0
    vertex 30.6969241486138 426.107957419131 23.0
  endloop
endfacet
facet normal 0.707106781186548 -0.707106781186548 0.0
  outer loop
    vertex 31.0435903669146 426.454623637431 0.0
    vertex 30.6969241486138 426.107957419131 23.0
    vertex 30.6969241486138 426.107957419131 0.0
  endloop
endfacet
facet normal 0.707106781186548 -0.707106781186548 0.0
  outer loop
    vertex 30.6969241486138 426.107957419131 23.0
    vertex 31.0435903669146 426.454623637431 0.0
    vertex 31.0435903669146 426.454623637431 23.0
  endloop
endfacet
facet normal 0.965925826289067 0.258819045102527 0.0
  outer loop
    vertex 30.6969241486138 427.748399577398 0.0
    vertex 31.0435903669146 426.454623637431 23.0
    vertex 31.0435903669146 426.454623637431 0.0
  endloop
endfacet
facet normal 0.965925826289067 0.258819045102527 0.0
  outer loop
    vertex 31.0435903669146 426.454623637431 23.0
    vertex 30.6969241486138 427.748399577398 0.0
    vertex 30.6969241486138 427.748399577398 23.0
  endloop
endfacet
facet normal 0.965925826289068 0.258819045102523 0.0
  outer loop
    vertex 29.8789046639532 430.801289855732 0.0
    vertex 30.6969241486138 427.748399577398 23.0
    vertex 30.6969241486138 427.748399577398 0.0
  endloop
endfacet
facet normal 0.965925826289068 0.258819045102523 0.0
  outer loop
    vertex 30.6969241486138 427.748399577398 23.0
    vertex 29.8789046639532 430.801289855732 0.0
    vertex 29.8789046639532 430.801289855732 23.0
  endloop
endfacet
facet normal 0.258819045102523 0.965925826289068 0.0
  outer loop
    vertex 26.8260143856188 431.619309340393 23.0
    vertex 29.8789046639532 430.801289855732 0.0
    vertex 26.8260143856188 431.619309340393 0.0
  endloop
endfacet
facet normal 0.258819045102523 0.965925826289068 0.0
  outer loop
    vertex 29.8789046639532 430.801289855732 0.0
    vertex 26.8260143856188 431.619309340393 23.0
    vertex 29.8789046639532 430.801289855732 23.0
  endloop
endfacet
facet normal 0.258819045102527 0.965925826289067 0.0
  outer loop
    vertex 25.5322384456524 431.965975558694 23.0
    vertex 26.8260143856188 431.619309340393 0.0
    vertex 25.5322384456524 431.965975558694 0.0
  endloop
endfacet
facet normal 0.258819045102527 0.965925826289067 0.0
  outer loop
    vertex 26.8260143856188 431.619309340393 0.0
    vertex 25.5322384456524 431.965975558694 23.0
    vertex 26.8260143856188 431.619309340393 23.0
  endloop
endfacet
facet normal -0.707106781186548 0.707106781186548 0.0
  outer loop
    vertex 25.5322384456524 431.965975558694 23.0
    vertex 25.1855722273516 431.619309340393 0.0
    vertex 25.1855722273516 431.619309340393 23.0
  endloop
endfacet
facet normal -0.707106781186548 0.707106781186548 0.0
  outer loop
    vertex 25.1855722273516 431.619309340393 0.0
    vertex 25.5322384456524 431.965975558694 23.0
    vertex 25.5322384456524 431.965975558694 0.0
  endloop
endfacet
facet normal -0.707106781186548 0.707106781186548 0.0
  outer loop
    vertex 25.1855722273516 431.619309340393 23.0
    vertex 22.6969241486138 429.130661261655 0.0
    vertex 22.6969241486138 429.130661261655 23.0
  endloop
endfacet
facet normal -0.707106781186548 0.707106781186548 0.0
  outer loop
    vertex 22.6969241486138 429.130661261655 0.0
    vertex 25.1855722273516 431.619309340393 23.0
    vertex 25.1855722273516 431.619309340393 0.0
  endloop
endfacet
facet normal -0.707106781186548 0.707106781186548 0.0
  outer loop
    vertex 22.6969241486138 429.130661261655 23.0
    vertex 22.350257930313 428.783995043354 0.0
    vertex 22.350257930313 428.783995043354 23.0
  endloop
endfacet
facet normal -0.707106781186548 0.707106781186548 0.0
  outer loop
    vertex 22.350257930313 428.783995043354 0.0
    vertex 22.6969241486138 429.130661261655 23.0
    vertex 22.6969241486138 429.130661261655 0.0
  endloop
endfacet
facet normal -0.965925826289067 -0.258819045102527 -0.0
  outer loop
    vertex 22.350257930313 428.783995043354 23.0
    vertex 22.6969241486138 427.490219103388 0.0
    vertex 22.6969241486138 427.490219103388 23.0
  endloop
endfacet
facet normal -0.965925826289067 -0.258819045102527 -0.0
  outer loop
    vertex 22.6969241486138 427.490219103388 0.0
    vertex 22.350257930313 428.783995043354 23.0
    vertex 22.350257930313 428.783995043354 0.0
  endloop
endfacet
facet normal -0.965925826289068 -0.258819045102523 -0.0
  outer loop
    vertex 22.6969241486138 427.490219103388 23.0
    vertex 23.5149436332743 424.437328825053 0.0
    vertex 23.5149436332743 424.437328825053 23.0
  endloop
endfacet
facet normal -0.965925826289068 -0.258819045102523 -0.0
  outer loop
    vertex 23.5149436332743 424.437328825053 0.0
    vertex 22.6969241486138 427.490219103388 23.0
    vertex 22.6969241486138 427.490219103388 0.0
  endloop
endfacet
facet normal -0.258819045102523 -0.965925826289068 -0.0
  outer loop
    vertex 26.5678339116088 423.619309340393 23.0
    vertex 23.5149436332743 424.437328825053 0.0
    vertex 26.5678339116088 423.619309340393 0.0
  endloop
endfacet
facet normal -0.258819045102523 -0.965925826289068 -0.0
  outer loop
    vertex 23.5149436332743 424.437328825053 0.0
    vertex 26.5678339116088 423.619309340393 23.0
    vertex 23.5149436332743 424.437328825053 23.0
  endloop
endfacet
facet normal 0.0 0.0 1.0
  outer loop
    vertex 23.5149436332743 424.437328825053 23.0
    vertex 25.4729646606484 426.395349852427 23.0
    vertex 25.0249643948501 428.067309606191 23.0
  endloop
endfacet
facet normal 0.0 0.0 1.0
  outer loop
    vertex 25.4729646606484 426.395349852427 23.0
    vertex 23.5149436332743 424.437328825053 23.0
    vertex 26.5678339116088 423.619309340393 23.0
  endloop
endfacet
facet normal 0.0 0.0 1.0
  outer loop
    vertex 25.4729646606484 426.395349852427 23.0
    vertex 26.5678339116088 423.619309340393 23.0
    vertex 27.1449244144121 425.947349586629 23.0
  endloop
endfacet
facet normal 0.0 0.0 1.0
  outer loop
    vertex 27.1449244144121 425.947349586629 23.0
    vertex 26.5678339116088 423.619309340393 23.0
    vertex 27.8616098515751 423.272643122092 23.0
  endloop
endfacet
facet normal 0.0 0.0 1.0
  outer loop
    vertex 27.1449244144121 425.947349586629 23.0
    vertex 27.8616098515751 423.272643122092 23.0
    vertex 28.3688839023774 427.171309074594 23.0
  endloop
endfacet
facet normal 0.0 0.0 1.0
  outer loop
    vertex 28.3688839023774 427.171309074594 23.0
    vertex 27.8616098515751 423.272643122092 23.0
    vertex 28.208276069876 423.619309340393 23.0
  endloop
endfacet
facet normal 0.0 0.0 1.0
  outer loop
    vertex 28.3688839023774 427.171309074594 23.0
    vertex 28.208276069876 423.619309340393 23.0
    vertex 30.6969241486138 426.107957419131 23.0
  endloop
endfacet
facet normal 0.0 0.0 1.0
  outer loop
    vertex 28.3688839023774 427.171309074594 23.0
    vertex 30.6969241486138 426.107957419131 23.0
    vertex 29.8789046639532 430.801289855732 23.0
  endloop
endfacet
facet normal 0.0 0.0 1.0
  outer loop
    vertex 29.8789046639532 430.801289855732 23.0
    vertex 30.6969241486138 426.107957419131 23.0
    vertex 30.6969241486138 427.748399577398 23.0
  endloop
endfacet
facet normal 0.0 0.0 1.0
  outer loop
    vertex 30.6969241486138 427.748399577398 23.0
    vertex 30.6969241486138 426.107957419131 23.0
    vertex 31.0435903669146 426.454623637431 23.0
  endloop
endfacet
facet normal 0.0 0.0 1.0
  outer loop
    vertex 22.6969241486138 427.490219103388 23.0
    vertex 22.6969241486138 429.130661261655 23.0
    vertex 22.350257930313 428.783995043354 23.0
  endloop
endfacet
facet normal 0.0 0.0 1.0
  outer loop
    vertex 22.6969241486138 429.130661261655 23.0
    vertex 22.6969241486138 427.490219103388 23.0
    vertex 23.5149436332743 424.437328825053 23.0
  endloop
endfacet
facet normal 0.0 0.0 1.0
  outer loop
    vertex 22.6969241486138 429.130661261655 23.0
    vertex 23.5149436332743 424.437328825053 23.0
    vertex 25.1855722273516 431.619309340393 23.0
  endloop
endfacet
facet normal 0.0 0.0 1.0
  outer loop
    vertex 25.1855722273516 431.619309340393 23.0
    vertex 23.5149436332743 424.437328825053 23.0
    vertex 25.0249643948501 428.067309606191 23.0
  endloop
endfacet
facet normal 0.0 0.0 1.0
  outer loop
    vertex 25.1855722273516 431.619309340393 23.0
    vertex 25.0249643948501 428.067309606191 23.0
    vertex 26.2489238828155 429.291269094156 23.0
  endloop
endfacet
facet normal 0.0 0.0 1.0
  outer loop
    vertex 25.1855722273516 431.619309340393 23.0
    vertex 26.2489238828155 429.291269094156 23.0
    vertex 25.5322384456524 431.965975558694 23.0
  endloop
endfacet
facet normal 0.0 0.0 1.0
  outer loop
    vertex 25.5322384456524 431.965975558694 23.0
    vertex 26.2489238828155 429.291269094156 23.0
    vertex 26.8260143856188 431.619309340393 23.0
  endloop
endfacet
facet normal 0.0 0.0 1.0
  outer loop
    vertex 26.8260143856188 431.619309340393 23.0
    vertex 26.2489238828155 429.291269094156 23.0
    vertex 27.9208836365791 428.843268828358 23.0
  endloop
endfacet
facet normal 0.0 0.0 1.0
  outer loop
    vertex 26.8260143856188 431.619309340393 23.0
    vertex 27.9208836365791 428.843268828358 23.0
    vertex 29.8789046639532 430.801289855732 23.0
  endloop
endfacet
facet normal 0.0 0.0 1.0
  outer loop
    vertex 29.8789046639532 430.801289855732 23.0
    vertex 27.9208836365791 428.843268828358 23.0
    vertex 28.3688839023774 427.171309074594 23.0
  endloop
endfacet
facet normal 0.965925826289074 0.258819045102498 0.0
  outer loop
    vertex 25.0249643948501 428.067309606191 1.12798659301916e-014
    vertex 25.4729646606484 426.395349852427 23.0
    vertex 25.4729646606484 426.395349852427 1.12798659301916e-014
  endloop
endfacet
facet normal 0.965925826289074 0.258819045102498 0.0
  outer loop
    vertex 25.4729646606484 426.395349852427 23.0
    vertex 25.0249643948501 428.067309606191 1.12798659301916e-014
    vertex 25.0249643948501 428.067309606191 23.0
  endloop
endfacet
facet normal 0.258819045102516 0.96592582628907 0.0
  outer loop
    vertex 25.4729646606484 426.395349852427 23.0
    vertex 27.1449244144121 425.947349586629 1.12798659301916e-014
    vertex 25.4729646606484 426.395349852427 1.12798659301916e-014
  endloop
endfacet
facet normal 0.258819045102516 0.96592582628907 0.0
  outer loop
    vertex 27.1449244144121 425.947349586629 1.12798659301916e-014
    vertex 25.4729646606484 426.395349852427 23.0
    vertex 27.1449244144121 425.947349586629 23.0
  endloop
endfacet
facet normal -0.707106781186533 0.707106781186562 0.0
  outer loop
    vertex 27.1449244144121 425.947349586629 23.0
    vertex 28.3688839023774 427.171309074594 1.12798659301916e-014
    vertex 27.1449244144121 425.947349586629 1.12798659301916e-014
  endloop
endfacet
facet normal -0.707106781186533 0.707106781186562 0.0
  outer loop
    vertex 28.3688839023774 427.171309074594 1.12798659301916e-014
    vertex 27.1449244144121 425.947349586629 23.0
    vertex 28.3688839023774 427.171309074594 23.0
  endloop
endfacet
facet normal -0.965925826289074 -0.2588190451025 -0.0
  outer loop
    vertex 27.9208836365791 428.843268828358 23.0
    vertex 28.3688839023774 427.171309074594 1.12798659301916e-014
    vertex 28.3688839023774 427.171309074594 23.0
  endloop
endfacet
facet normal -0.965925826289074 -0.2588190451025 -0.0
  outer loop
    vertex 28.3688839023774 427.171309074594 1.12798659301916e-014
    vertex 27.9208836365791 428.843268828358 23.0
    vertex 27.9208836365791 428.843268828358 1.12798659301916e-014
  endloop
endfacet
facet normal -0.258819045102516 -0.96592582628907 -0.0
  outer loop
    vertex 27.9208836365791 428.843268828358 23.0
    vertex 26.2489238828155 429.291269094156 1.12798659301916e-014
    vertex 27.9208836365791 428.843268828358 1.12798659301916e-014
  endloop
endfacet
facet normal -0.258819045102516 -0.96592582628907 -0.0
  outer loop
    vertex 26.2489238828155 429.291269094156 1.12798659301916e-014
    vertex 27.9208836365791 428.843268828358 23.0
    vertex 26.2489238828155 429.291269094156 23.0
  endloop
endfacet
facet normal 0.707106781186534 -0.707106781186561 0.0
  outer loop
    vertex 26.2489238828155 429.291269094156 23.0
    vertex 25.0249643948501 428.067309606191 1.12798659301916e-014
    vertex 26.2489238828155 429.291269094156 1.12798659301916e-014
  endloop
endfacet
facet normal 0.707106781186534 -0.707106781186561 0.0
  outer loop
    vertex 25.0249643948501 428.067309606191 1.12798659301916e-014
    vertex 26.2489238828155 429.291269094156 23.0
    vertex 25.0249643948501 428.067309606191 23.0
  endloop
endfacet
facet normal 1.9170825807233e-018 -1.69776452238994e-017 -1.0
  outer loop
    vertex 22.6969241486138 429.130661261655 0.0
    vertex 22.6969241486138 427.490219103388 0.0
    vertex 22.350257930313 428.783995043354 0.0
  endloop
endfacet
facet normal 1.9170825807233e-018 -1.69776452238994e-017 -1.0
  outer loop
    vertex 22.6969241486138 427.490219103388 0.0
    vertex 22.6969241486138 429.130661261655 0.0
    vertex 25.1855722273516 431.619309340393 0.0
  endloop
endfacet
facet normal 1.9170825807233e-018 -1.69776452238994e-017 -1.0
  outer loop
    vertex 22.6969241486138 427.490219103388 0.0
    vertex 25.1855722273516 431.619309340393 0.0
    vertex 23.5149436332743 424.437328825053 0.0
  endloop
endfacet
facet normal 1.9170825807233e-018 -1.69776452238994e-017 -1.0
  outer loop
    vertex 23.5149436332743 424.437328825053 0.0
    vertex 25.1855722273516 431.619309340393 0.0
    vertex 25.0249643948501 428.067309606191 1.12798659301916e-014
  endloop
endfacet
facet normal 1.9170825807233e-018 -1.69776452238994e-017 -1.0
  outer loop
    vertex 25.0249643948501 428.067309606191 1.12798659301916e-014
    vertex 25.1855722273516 431.619309340393 0.0
    vertex 26.2489238828155 429.291269094156 1.12798659301916e-014
  endloop
endfacet
facet normal 1.9170825807233e-018 -1.69776452238994e-017 -1.0
  outer loop
    vertex 26.2489238828155 429.291269094156 1.12798659301916e-014
    vertex 25.1855722273516 431.619309340393 0.0
    vertex 25.5322384456524 431.965975558694 0.0
  endloop
endfacet
facet normal 1.9170825807233e-018 -1.69776452238994e-017 -1.0
  outer loop
    vertex 26.2489238828155 429.291269094156 1.12798659301916e-014
    vertex 25.5322384456524 431.965975558694 0.0
    vertex 26.8260143856188 431.619309340393 0.0
  endloop
endfacet
facet normal 1.9170825807233e-018 -1.69776452238994e-017 -1.0
  outer loop
    vertex 26.2489238828155 429.291269094156 1.12798659301916e-014
    vertex 26.8260143856188 431.619309340393 0.0
    vertex 27.9208836365791 428.843268828358 1.12798659301916e-014
  endloop
endfacet
facet normal 1.9170825807233e-018 -1.69776452238994e-017 -1.0
  outer loop
    vertex 27.9208836365791 428.843268828358 1.12798659301916e-014
    vertex 26.8260143856188 431.619309340393 0.0
    vertex 29.8789046639532 430.801289855732 0.0
  endloop
endfacet
facet normal 1.9170825807233e-018 -1.69776452238994e-017 -1.0
  outer loop
    vertex 27.9208836365791 428.843268828358 1.12798659301916e-014
    vertex 29.8789046639532 430.801289855732 0.0
    vertex 28.3688839023774 427.171309074594 1.12798659301916e-014
  endloop
endfacet
facet normal 1.9170825807233e-018 -1.69776452238994e-017 -1.0
  outer loop
    vertex 23.5149436332743 424.437328825053 0.0
    vertex 25.4729646606484 426.395349852427 1.12798659301916e-014
    vertex 26.5678339116088 423.619309340393 0.0
  endloop
endfacet
facet normal 1.9170825807233e-018 -1.69776452238994e-017 -1.0
  outer loop
    vertex 25.4729646606484 426.395349852427 1.12798659301916e-014
    vertex 23.5149436332743 424.437328825053 0.0
    vertex 25.0249643948501 428.067309606191 1.12798659301916e-014
  endloop
endfacet
facet normal 1.9170825807233e-018 -1.69776452238994e-017 -1.0
  outer loop
    vertex 26.5678339116088 423.619309340393 0.0
    vertex 25.4729646606484 426.395349852427 1.12798659301916e-014
    vertex 27.1449244144121 425.947349586629 1.12798659301916e-014
  endloop
endfacet
facet normal 1.9170825807233e-018 -1.69776452238994e-017 -1.0
  outer loop
    vertex 26.5678339116088 423.619309340393 0.0
    vertex 27.1449244144121 425.947349586629 1.12798659301916e-014
    vertex 27.8616098515751 423.272643122092 0.0
  endloop
endfacet
facet normal 1.9170825807233e-018 -1.69776452238994e-017 -1.0
  outer loop
    vertex 27.8616098515751 423.272643122092 0.0
    vertex 27.1449244144121 425.947349586629 1.12798659301916e-014
    vertex 28.3688839023774 427.171309074594 1.12798659301916e-014
  endloop
endfacet
facet normal 1.9170825807233e-018 -1.69776452238994e-017 -1.0
  outer loop
    vertex 27.8616098515751 423.272643122092 0.0
    vertex 28.3688839023774 427.171309074594 1.12798659301916e-014
    vertex 28.208276069876 423.619309340393 0.0
  endloop
endfacet
facet normal 1.9170825807233e-018 -1.69776452238994e-017 -1.0
  outer loop
    vertex 28.208276069876 423.619309340393 0.0
    vertex 28.3688839023774 427.171309074594 1.12798659301916e-014
    vertex 30.6969241486138 426.107957419131 0.0
  endloop
endfacet
facet normal 1.9170825807233e-018 -1.69776452238994e-017 -1.0
  outer loop
    vertex 30.6969241486138 426.107957419131 0.0
    vertex 28.3688839023774 427.171309074594 1.12798659301916e-014
    vertex 29.8789046639532 430.801289855732 0.0
  endloop
endfacet
facet normal 1.9170825807233e-018 -1.69776452238994e-017 -1.0
  outer loop
    vertex 30.6969241486138 426.107957419131 0.0
    vertex 29.8789046639532 430.801289855732 0.0
    vertex 30.6969241486138 427.748399577398 0.0
  endloop
endfacet
facet normal 1.9170825807233e-018 -1.69776452238994e-017 -1.0
  outer loop
    vertex 30.6969241486138 426.107957419131 0.0
    vertex 30.6969241486138 427.748399577398 0.0
    vertex 31.0435903669146 426.454623637431 0.0
  endloop
endfacet
endsolid kossel1515-effector-blank
