solid kossel1515-effector-blank
facet normal 0.449587528064844 0.893236281511529 0.0
  outer loop
    vertex -65.4295876356966 436.668433862153 21.0
    vertex -64.4581850651368 436.007842398991 -5.0
    vertex -65.4295876356966 436.668433862153 -5.0
  endloop
endfacet
facet normal 0.66545476596703 0.746438178586657 0.0
  outer loop
    vertex -64.4581850651368 436.007842398991 -5.0
    vertex -65.4295876356966 436.668433862153 21.0
    vertex -64.4581850651368 436.007842398991 21.0
  endloop
endfacet
facet normal 0.203081643103585 0.979161807994137 0.0
  outer loop
    vertex -66.5388641180224 437.055098731324 21.0
    vertex -65.4295876356966 436.668433862153 -5.0
    vertex -66.5388641180224 437.055098731324 -5.0
  endloop
endfacet
facet normal 0.449587528064844 0.893236281511529 0.0
  outer loop
    vertex -65.4295876356966 436.668433862153 -5.0
    vertex -66.5388641180224 437.055098731324 21.0
    vertex -65.4295876356966 436.668433862153 21.0
  endloop
endfacet
facet normal -0.0572639202269283 0.998359075403356 0.0
  outer loop
    vertex -67.7104191530097 437.141486434666 21.0
    vertex -66.5388641180224 437.055098731324 -5.0
    vertex -67.7104191530097 437.141486434666 -5.0
  endloop
endfacet
facet normal 0.203081643103585 0.979161807994137 0.0
  outer loop
    vertex -66.5388641180224 437.055098731324 -5.0
    vertex -67.7104191530097 437.141486434666 21.0
    vertex -66.5388641180224 437.055098731324 21.0
  endloop
endfacet
facet normal -0.313707042027121 0.949519821690203 0.0
  outer loop
    vertex -68.8644132011104 436.921709792957 21.0
    vertex -67.7104191530097 437.141486434666 -5.0
    vertex -68.8644132011104 436.921709792957 -5.0
  endloop
endfacet
facet normal -0.0572639202269283 0.998359075403356 0.0
  outer loop
    vertex -67.7104191530097 437.141486434666 -5.0
    vertex -68.8644132011104 436.921709792957 21.0
    vertex -67.7104191530097 437.141486434666 21.0
  endloop
endfacet
facet normal -0.54877154733853 0.835972361284556 0.0
  outer loop
    vertex -69.9222034750117 436.410746221131 21.0
    vertex -68.8644132011104 436.921709792957 -5.0
    vertex -69.9222034750117 436.410746221131 -5.0
  endloop
endfacet
facet normal -0.313707042027121 0.949519821690203 0.0
  outer loop
    vertex -68.8644132011104 436.921709792957 -5.0
    vertex -69.9222034750117 436.410746221131 21.0
    vertex -68.8644132011104 436.921709792957 21.0
  endloop
endfacet
facet normal -0.746438178586642 0.665454765967047 0.0
  outer loop
    vertex -70.8117033156284 435.643417042202 21.0
    vertex -69.9222034750117 436.410746221131 -5.0
    vertex -70.8117033156284 435.643417042202 -5.0
  endloop
endfacet
facet normal -0.54877154733853 0.835972361284556 0.0
  outer loop
    vertex -69.9222034750117 436.410746221131 -5.0
    vertex -70.8117033156284 435.643417042202 21.0
    vertex -69.9222034750117 436.410746221131 21.0
  endloop
endfacet
facet normal -0.746438178586642 0.665454765967047 0.0
  outer loop
    vertex -70.8117033156284 435.643417042202 21.0
    vertex -71.4722947787903 434.672014471643 -5.0
    vertex -71.4722947787903 434.672014471643 21.0
  endloop
endfacet
facet normal -0.893236281511517 0.449587528064867 0.0
  outer loop
    vertex -71.4722947787903 434.672014471643 -5.0
    vertex -70.8117033156284 435.643417042202 21.0
    vertex -70.8117033156284 435.643417042202 -5.0
  endloop
endfacet
facet normal -0.893236281511517 0.449587528064867 0.0
  outer loop
    vertex -71.4722947787903 434.672014471643 21.0
    vertex -71.8589596479621 433.562737989317 -5.0
    vertex -71.8589596479621 433.562737989317 21.0
  endloop
endfacet
facet normal -0.979161807994142 0.203081643103563 0.0
  outer loop
    vertex -71.8589596479621 433.562737989317 -5.0
    vertex -71.4722947787903 434.672014471643 21.0
    vertex -71.4722947787903 434.672014471643 -5.0
  endloop
endfacet
facet normal -0.979161807994142 0.203081643103563 0.0
  outer loop
    vertex -71.8589596479621 433.562737989317 21.0
    vertex -71.9453473513035 432.391182954329 -5.0
    vertex -71.9453473513035 432.391182954329 21.0
  endloop
endfacet
facet normal -0.998359075403355 -0.0572639202269549 0.0
  outer loop
    vertex -71.9453473513035 432.391182954329 -5.0
    vertex -71.8589596479621 433.562737989317 21.0
    vertex -71.8589596479621 433.562737989317 -5.0
  endloop
endfacet
facet normal -0.998359075403355 -0.0572639202269549 0.0
  outer loop
    vertex -71.9453473513035 432.391182954329 21.0
    vertex -71.7255707095944 431.237188906229 -5.0
    vertex -71.7255707095944 431.237188906229 21.0
  endloop
endfacet
facet normal -0.949519821690207 -0.313707042027106 0.0
  outer loop
    vertex -71.7255707095944 431.237188906229 -5.0
    vertex -71.9453473513035 432.391182954329 21.0
    vertex -71.9453473513035 432.391182954329 -5.0
  endloop
endfacet
facet normal -0.949519821690207 -0.313707042027106 0.0
  outer loop
    vertex -71.7255707095944 431.237188906229 21.0
    vertex -71.214607137769 430.179398632327 -5.0
    vertex -71.214607137769 430.179398632327 21.0
  endloop
endfacet
facet normal -0.835972361284571 -0.548771547338506 0.0
  outer loop
    vertex -71.214607137769 430.179398632327 -5.0
    vertex -71.7255707095944 431.237188906229 21.0
    vertex -71.7255707095944 431.237188906229 -5.0
  endloop
endfacet
facet normal -0.835972361284571 -0.548771547338506 0.0
  outer loop
    vertex -71.214607137769 430.179398632327 21.0
    vertex -70.4472779588401 429.289898791711 -5.0
    vertex -70.4472779588401 429.289898791711 21.0
  endloop
endfacet
facet normal -0.66545476596703 -0.746438178586657 0.0
  outer loop
    vertex -70.4472779588401 429.289898791711 -5.0
    vertex -71.214607137769 430.179398632327 21.0
    vertex -71.214607137769 430.179398632327 -5.0
  endloop
endfacet
facet normal -0.449587528064844 -0.893236281511529 0.0
  outer loop
    vertex -69.4758753882803 428.629307328549 21.0
    vertex -70.4472779588401 429.289898791711 -5.0
    vertex -69.4758753882803 428.629307328549 -5.0
  endloop
endfacet
facet normal -0.66545476596703 -0.746438178586657 0.0
  outer loop
    vertex -70.4472779588401 429.289898791711 -5.0
    vertex -69.4758753882803 428.629307328549 21.0
    vertex -70.4472779588401 429.289898791711 21.0
  endloop
endfacet
facet normal -0.203081643103585 -0.979161807994137 0.0
  outer loop
    vertex -68.3665989059545 428.242642459377 21.0
    vertex -69.4758753882803 428.629307328549 -5.0
    vertex -68.3665989059545 428.242642459377 -5.0
  endloop
endfacet
facet normal -0.449587528064844 -0.893236281511529 0.0
  outer loop
    vertex -69.4758753882803 428.629307328549 -5.0
    vertex -68.3665989059545 428.242642459377 21.0
    vertex -69.4758753882803 428.629307328549 21.0
  endloop
endfacet
facet normal 0.0 0.0 -1.0
  outer loop
    vertex -71.8589596479621 433.562737989317 -5.0
    vertex -71.7255707095944 431.237188906229 -5.0
    vertex -71.9453473513035 432.391182954329 -5.0
  endloop
endfacet
facet normal 0.0 0.0 -1.0
  outer loop
    vertex -71.7255707095944 431.237188906229 -5.0
    vertex -71.8589596479621 433.562737989317 -5.0
    vertex -71.4722947787903 434.672014471643 -5.0
  endloop
endfacet
facet normal 0.0 0.0 -1.0
  outer loop
    vertex -71.7255707095944 431.237188906229 -5.0
    vertex -71.4722947787903 434.672014471643 -5.0
    vertex -71.214607137769 430.179398632327 -5.0
  endloop
endfacet
facet normal 0.0 0.0 -1.0
  outer loop
    vertex -71.214607137769 430.179398632327 -5.0
    vertex -71.4722947787903 434.672014471643 -5.0
    vertex -70.8117033156284 435.643417042202 -5.0
  endloop
endfacet
facet normal 0.0 0.0 -1.0
  outer loop
    vertex -71.214607137769 430.179398632327 -5.0
    vertex -70.8117033156284 435.643417042202 -5.0
    vertex -70.4472779588401 429.289898791711 -5.0
  endloop
endfacet
facet normal 0.0 0.0 -1.0
  outer loop
    vertex -70.4472779588401 429.289898791711 -5.0
    vertex -70.8117033156284 435.643417042202 -5.0
    vertex -69.9222034750117 436.410746221131 -5.0
  endloop
endfacet
facet normal 0.0 0.0 -1.0
  outer loop
    vertex -70.4472779588401 429.289898791711 -5.0
    vertex -69.9222034750117 436.410746221131 -5.0
    vertex -69.4758753882803 428.629307328549 -5.0
  endloop
endfacet
facet normal 0.0 0.0 -1.0
  outer loop
    vertex -69.4758753882803 428.629307328549 -5.0
    vertex -69.9222034750117 436.410746221131 -5.0
    vertex -68.8644132011104 436.921709792957 -5.0
  endloop
endfacet
facet normal 0.0 0.0 -1.0
  outer loop
    vertex -69.4758753882803 428.629307328549 -5.0
    vertex -68.8644132011104 436.921709792957 -5.0
    vertex -69.0527315119884 432.648870595351 -5.0
  endloop
endfacet
facet normal 0.0 0.0 -1.0
  outer loop
    vertex -69.0527315119884 432.648870595351 -5.0
    vertex -68.8644132011104 436.921709792957 -5.0
    vertex -68.9982128340509 433.062981067515 -5.0
  endloop
endfacet
facet normal 0.0 0.0 -1.0
  outer loop
    vertex -68.9982128340509 433.062981067515 -5.0
    vertex -68.8644132011104 436.921709792957 -5.0
    vertex -68.8383721580435 433.448870595351 -5.0
  endloop
endfacet
facet normal 0.0 0.0 -1.0
  outer loop
    vertex -68.8383721580435 433.448870595351 -5.0
    vertex -68.8644132011104 436.921709792957 -5.0
    vertex -67.7104191530097 437.141486434666 -5.0
  endloop
endfacet
facet normal 0.0 0.0 -1.0
  outer loop
    vertex -68.8383721580435 433.448870595351 -5.0
    vertex -67.7104191530097 437.141486434666 -5.0
    vertex -68.5841023618869 433.780241445249 -5.0
  endloop
endfacet
facet normal 0.0 0.0 -1.0
  outer loop
    vertex -68.5841023618869 433.780241445249 -5.0
    vertex -67.7104191530097 437.141486434666 -5.0
    vertex -68.3256176932292 433.978583707489 -5.0
  endloop
endfacet
facet normal 0.0 0.0 -1.0
  outer loop
    vertex -68.3256176932292 433.978583707489 -5.0
    vertex -67.7104191530097 437.141486434666 -5.0
    vertex -68.2527315119884 434.034511241406 -5.0
  endloop
endfacet
facet normal 0.0 0.0 -1.0
  outer loop
    vertex -68.2527315119884 434.034511241406 -5.0
    vertex -67.7104191530097 437.141486434666 -5.0
    vertex -67.8668419841525 434.194351917413 -5.0
  endloop
endfacet
facet normal 0.0 0.0 -1.0
  outer loop
    vertex -67.8668419841525 434.194351917413 -5.0
    vertex -67.7104191530097 437.141486434666 -5.0
    vertex -67.4527315119884 434.248870595351 -5.0
  endloop
endfacet
facet normal 0.0 0.0 -1.0
  outer loop
    vertex -67.4527315119884 434.248870595351 -5.0
    vertex -67.7104191530097 437.141486434666 -5.0
    vertex -66.5388641180224 437.055098731324 -5.0
  endloop
endfacet
facet normal 0.0 0.0 -1.0
  outer loop
    vertex -67.4527315119884 434.248870595351 -5.0
    vertex -66.5388641180224 437.055098731324 -5.0
    vertex -67.0386210398244 434.194351917413 -5.0
  endloop
endfacet
facet normal 0.0 0.0 -1.0
  outer loop
    vertex -67.0386210398244 434.194351917413 -5.0
    vertex -66.5388641180224 437.055098731324 -5.0
    vertex -66.6527315119884 434.034511241406 -5.0
  endloop
endfacet
facet normal 0.0 0.0 -1.0
  outer loop
    vertex -66.6527315119884 434.034511241406 -5.0
    vertex -66.5388641180224 437.055098731324 -5.0
    vertex -66.32136066209 433.780241445249 -5.0
  endloop
endfacet
facet normal 0.0 0.0 -1.0
  outer loop
    vertex -66.32136066209 433.780241445249 -5.0
    vertex -66.5388641180224 437.055098731324 -5.0
    vertex -65.4295876356966 436.668433862153 -5.0
  endloop
endfacet
facet normal 0.0 0.0 -1.0
  outer loop
    vertex -66.32136066209 433.780241445249 -5.0
    vertex -65.4295876356966 436.668433862153 -5.0
    vertex -66.0670908659333 433.448870595351 -5.0
  endloop
endfacet
facet normal 0.0 0.0 -1.0
  outer loop
    vertex -66.0670908659333 433.448870595351 -5.0
    vertex -65.4295876356966 436.668433862153 -5.0
    vertex -65.9072501899259 433.062981067515 -5.0
  endloop
endfacet
facet normal 0.0 0.0 -1.0
  outer loop
    vertex -65.9072501899259 433.062981067515 -5.0
    vertex -65.4295876356966 436.668433862153 -5.0
    vertex -65.8527315119884 432.648870595351 -5.0
  endloop
endfacet
facet normal 0.0 0.0 -1.0
  outer loop
    vertex -69.4758753882803 428.629307328549 -5.0
    vertex -68.9982128340509 432.234760123187 -5.0
    vertex -68.3665989059545 428.242642459377 -5.0
  endloop
endfacet
facet normal 0.0 0.0 -1.0
  outer loop
    vertex -68.9982128340509 432.234760123187 -5.0
    vertex -69.4758753882803 428.629307328549 -5.0
    vertex -69.0527315119884 432.648870595351 -5.0
  endloop
endfacet
facet normal 0.0 0.0 -1.0
  outer loop
    vertex -68.3665989059545 428.242642459377 -5.0
    vertex -68.9982128340509 432.234760123187 -5.0
    vertex -68.8383721580435 431.848870595351 -5.0
  endloop
endfacet
facet normal 0.0 0.0 -1.0
  outer loop
    vertex -68.3665989059545 428.242642459377 -5.0
    vertex -68.8383721580435 431.848870595351 -5.0
    vertex -68.5841023618869 431.517499745452 -5.0
  endloop
endfacet
facet normal 0.0 0.0 -1.0
  outer loop
    vertex -68.3665989059545 428.242642459377 -5.0
    vertex -68.5841023618869 431.517499745452 -5.0
    vertex -68.2527315119884 431.263229949296 -5.0
  endloop
endfacet
facet normal 0.0 0.0 -1.0
  outer loop
    vertex -68.3665989059545 428.242642459377 -5.0
    vertex -68.2527315119884 431.263229949296 -5.0
    vertex -67.1950438709671 428.156254756036 -5.0
  endloop
endfacet
facet normal 0.0 0.0 -1.0
  outer loop
    vertex -67.1950438709671 428.156254756036 -5.0
    vertex -68.2527315119884 431.263229949296 -5.0
    vertex -67.8668419841525 431.103389273288 -5.0
  endloop
endfacet
facet normal 0.0 0.0 -1.0
  outer loop
    vertex -67.1950438709671 428.156254756036 -5.0
    vertex -67.8668419841525 431.103389273288 -5.0
    vertex -67.4527315119884 431.048870595351 -5.0
  endloop
endfacet
facet normal 0.0 0.0 -1.0
  outer loop
    vertex -67.1950438709671 428.156254756036 -5.0
    vertex -67.4527315119884 431.048870595351 -5.0
    vertex -67.0386210398244 431.103389273288 -5.0
  endloop
endfacet
facet normal 0.0 0.0 -1.0
  outer loop
    vertex -67.1950438709671 428.156254756036 -5.0
    vertex -67.0386210398244 431.103389273288 -5.0
    vertex -66.0410498228665 428.376031397745 -5.0
  endloop
endfacet
facet normal 0.0 0.0 -1.0
  outer loop
    vertex -66.0410498228665 428.376031397745 -5.0
    vertex -67.0386210398244 431.103389273288 -5.0
    vertex -66.6527315119884 431.263229949296 -5.0
  endloop
endfacet
facet normal 0.0 0.0 -1.0
  outer loop
    vertex -66.0410498228665 428.376031397745 -5.0
    vertex -66.6527315119884 431.263229949296 -5.0
    vertex -66.5798453307477 431.319157483212 -5.0
  endloop
endfacet
facet normal 0.0 0.0 -1.0
  outer loop
    vertex -66.0410498228665 428.376031397745 -5.0
    vertex -66.5798453307477 431.319157483212 -5.0
    vertex -66.32136066209 431.517499745452 -5.0
  endloop
endfacet
facet normal 0.0 0.0 -1.0
  outer loop
    vertex -66.0410498228665 428.376031397745 -5.0
    vertex -66.32136066209 431.517499745452 -5.0
    vertex -66.0670908659333 431.848870595351 -5.0
  endloop
endfacet
facet normal 0.0 0.0 -1.0
  outer loop
    vertex -66.0410498228665 428.376031397745 -5.0
    vertex -66.0670908659333 431.848870595351 -5.0
    vertex -65.9072501899259 432.234760123187 -5.0
  endloop
endfacet
facet normal 0.0 0.0 -1.0
  outer loop
    vertex -66.0410498228665 428.376031397745 -5.0
    vertex -65.9072501899259 432.234760123187 -5.0
    vertex -64.9832595489652 428.88699496957 -5.0
  endloop
endfacet
facet normal 0.0 0.0 -1.0
  outer loop
    vertex -64.9832595489652 428.88699496957 -5.0
    vertex -65.9072501899259 432.234760123187 -5.0
    vertex -65.8527315119884 432.648870595351 -5.0
  endloop
endfacet
facet normal 0.0 0.0 -1.0
  outer loop
    vertex -64.9832595489652 428.88699496957 -5.0
    vertex -65.8527315119884 432.648870595351 -5.0
    vertex -65.4295876356966 436.668433862153 -5.0
  endloop
endfacet
facet normal 0.0 0.0 -1.0
  outer loop
    vertex -64.9832595489652 428.88699496957 -5.0
    vertex -65.4295876356966 436.668433862153 -5.0
    vertex -64.4581850651368 436.007842398991 -5.0
  endloop
endfacet
facet normal 0.0 0.0 -1.0
  outer loop
    vertex -64.9832595489652 428.88699496957 -5.0
    vertex -64.4581850651368 436.007842398991 -5.0
    vertex -64.0937597083485 429.654324148499 -5.0
  endloop
endfacet
facet normal 0.0 0.0 -1.0
  outer loop
    vertex -64.0937597083485 429.654324148499 -5.0
    vertex -64.4581850651368 436.007842398991 -5.0
    vertex -63.6908558862079 435.118342558374 -5.0
  endloop
endfacet
facet normal 0.0 0.0 -1.0
  outer loop
    vertex -64.0937597083485 429.654324148499 -5.0
    vertex -63.6908558862079 435.118342558374 -5.0
    vertex -63.4331682451866 430.625726719059 -5.0
  endloop
endfacet
facet normal 0.0 0.0 -1.0
  outer loop
    vertex -63.4331682451866 430.625726719059 -5.0
    vertex -63.6908558862079 435.118342558374 -5.0
    vertex -63.1798923143825 434.060552284473 -5.0
  endloop
endfacet
facet normal 0.0 0.0 -1.0
  outer loop
    vertex -63.4331682451866 430.625726719059 -5.0
    vertex -63.1798923143825 434.060552284473 -5.0
    vertex -63.0465033760148 431.735003201385 -5.0
  endloop
endfacet
facet normal 0.0 0.0 -1.0
  outer loop
    vertex -63.0465033760148 431.735003201385 -5.0
    vertex -63.1798923143825 434.060552284473 -5.0
    vertex -62.9601156726733 432.906558236372 -5.0
  endloop
endfacet
facet normal 0.0572639202269275 -0.998359075403356 0.0
  outer loop
    vertex -67.1950438709671 428.156254756036 21.0
    vertex -68.3665989059545 428.242642459377 -5.0
    vertex -67.1950438709671 428.156254756036 -5.0
  endloop
endfacet
facet normal -0.203081643103585 -0.979161807994137 0.0
  outer loop
    vertex -68.3665989059545 428.242642459377 -5.0
    vertex -67.1950438709671 428.156254756036 21.0
    vertex -68.3665989059545 428.242642459377 21.0
  endloop
endfacet
facet normal 0.313707042027122 -0.949519821690202 0.0
  outer loop
    vertex -66.0410498228665 428.376031397745 21.0
    vertex -67.1950438709671 428.156254756036 -5.0
    vertex -66.0410498228665 428.376031397745 -5.0
  endloop
endfacet
facet normal 0.0572639202269275 -0.998359075403356 0.0
  outer loop
    vertex -67.1950438709671 428.156254756036 -5.0
    vertex -66.0410498228665 428.376031397745 21.0
    vertex -67.1950438709671 428.156254756036 21.0
  endloop
endfacet
facet normal 0.548771547338529 -0.835972361284556 0.0
  outer loop
    vertex -64.9832595489652 428.88699496957 21.0
    vertex -66.0410498228665 428.376031397745 -5.0
    vertex -64.9832595489652 428.88699496957 -5.0
  endloop
endfacet
facet normal 0.313707042027122 -0.949519821690202 0.0
  outer loop
    vertex -66.0410498228665 428.376031397745 -5.0
    vertex -64.9832595489652 428.88699496957 21.0
    vertex -66.0410498228665 428.376031397745 21.0
  endloop
endfacet
facet normal 0.746438178586642 -0.665454765967046 0.0
  outer loop
    vertex -64.0937597083485 429.654324148499 21.0
    vertex -64.9832595489652 428.88699496957 -5.0
    vertex -64.0937597083485 429.654324148499 -5.0
  endloop
endfacet
facet normal 0.548771547338529 -0.835972361284556 0.0
  outer loop
    vertex -64.9832595489652 428.88699496957 -5.0
    vertex -64.0937597083485 429.654324148499 21.0
    vertex -64.9832595489652 428.88699496957 21.0
  endloop
endfacet
facet normal 0.893236281511519 -0.449587528064864 0.0
  outer loop
    vertex -63.4331682451866 430.625726719059 -5.0
    vertex -64.0937597083485 429.654324148499 21.0
    vertex -64.0937597083485 429.654324148499 -5.0
  endloop
endfacet
facet normal 0.746438178586642 -0.665454765967046 0.0
  outer loop
    vertex -64.0937597083485 429.654324148499 21.0
    vertex -63.4331682451866 430.625726719059 -5.0
    vertex -63.4331682451866 430.625726719059 21.0
  endloop
endfacet
facet normal 0.979161807994142 -0.203081643103563 0.0
  outer loop
    vertex -63.0465033760148 431.735003201385 -5.0
    vertex -63.4331682451866 430.625726719059 21.0
    vertex -63.4331682451866 430.625726719059 -5.0
  endloop
endfacet
facet normal 0.893236281511519 -0.449587528064864 0.0
  outer loop
    vertex -63.4331682451866 430.625726719059 21.0
    vertex -63.0465033760148 431.735003201385 -5.0
    vertex -63.0465033760148 431.735003201385 21.0
  endloop
endfacet
facet normal 0.998359075403355 0.0572639202269549 0.0
  outer loop
    vertex -62.9601156726733 432.906558236372 -5.0
    vertex -63.0465033760148 431.735003201385 21.0
    vertex -63.0465033760148 431.735003201385 -5.0
  endloop
endfacet
facet normal 0.979161807994142 -0.203081643103563 0.0
  outer loop
    vertex -63.0465033760148 431.735003201385 21.0
    vertex -62.9601156726733 432.906558236372 -5.0
    vertex -62.9601156726733 432.906558236372 21.0
  endloop
endfacet
facet normal 0.949519821690207 0.313707042027106 0.0
  outer loop
    vertex -63.1798923143825 434.060552284473 -5.0
    vertex -62.9601156726733 432.906558236372 21.0
    vertex -62.9601156726733 432.906558236372 -5.0
  endloop
endfacet
facet normal 0.998359075403355 0.0572639202269549 0.0
  outer loop
    vertex -62.9601156726733 432.906558236372 21.0
    vertex -63.1798923143825 434.060552284473 -5.0
    vertex -63.1798923143825 434.060552284473 21.0
  endloop
endfacet
facet normal 0.835972361284571 0.548771547338506 0.0
  outer loop
    vertex -63.6908558862079 435.118342558374 -5.0
    vertex -63.1798923143825 434.060552284473 21.0
    vertex -63.1798923143825 434.060552284473 -5.0
  endloop
endfacet
facet normal 0.949519821690207 0.313707042027106 0.0
  outer loop
    vertex -63.1798923143825 434.060552284473 21.0
    vertex -63.6908558862079 435.118342558374 -5.0
    vertex -63.6908558862079 435.118342558374 21.0
  endloop
endfacet
facet normal 0.66545476596703 0.746438178586657 0.0
  outer loop
    vertex -64.4581850651368 436.007842398991 -5.0
    vertex -63.6908558862079 435.118342558374 21.0
    vertex -63.6908558862079 435.118342558374 -5.0
  endloop
endfacet
facet normal 0.835972361284571 0.548771547338506 0.0
  outer loop
    vertex -63.6908558862079 435.118342558374 21.0
    vertex -64.4581850651368 436.007842398991 -5.0
    vertex -64.4581850651368 436.007842398991 21.0
  endloop
endfacet
facet normal 0.0 0.0 1.0
  outer loop
    vertex -71.7255707095944 431.237188906229 21.0
    vertex -71.8589596479621 433.562737989317 21.0
    vertex -71.9453473513035 432.391182954329 21.0
  endloop
endfacet
facet normal 0.0 0.0 1.0
  outer loop
    vertex -71.8589596479621 433.562737989317 21.0
    vertex -71.7255707095944 431.237188906229 21.0
    vertex -71.4722947787903 434.672014471643 21.0
  endloop
endfacet
facet normal 0.0 0.0 1.0
  outer loop
    vertex -71.4722947787903 434.672014471643 21.0
    vertex -71.7255707095944 431.237188906229 21.0
    vertex -71.214607137769 430.179398632327 21.0
  endloop
endfacet
facet normal 0.0 0.0 1.0
  outer loop
    vertex -71.4722947787903 434.672014471643 21.0
    vertex -71.214607137769 430.179398632327 21.0
    vertex -70.8117033156284 435.643417042202 21.0
  endloop
endfacet
facet normal 0.0 0.0 1.0
  outer loop
    vertex -70.8117033156284 435.643417042202 21.0
    vertex -71.214607137769 430.179398632327 21.0
    vertex -70.6474805532792 432.465626050625 21.0
  endloop
endfacet
facet normal 0.0 0.0 1.0
  outer loop
    vertex -70.6474805532792 432.465626050625 21.0
    vertex -71.214607137769 430.179398632327 21.0
    vertex -70.4472779588401 429.289898791711 21.0
  endloop
endfacet
facet normal 0.0 0.0 1.0
  outer loop
    vertex -70.6474805532792 432.465626050625 21.0
    vertex -70.4472779588401 429.289898791711 21.0
    vertex -68.8914116017959 429.790514494514 21.0
  endloop
endfacet
facet normal 0.0 0.0 1.0
  outer loop
    vertex -68.8914116017959 429.790514494514 21.0
    vertex -70.4472779588401 429.289898791711 21.0
    vertex -69.4758753882803 428.629307328549 21.0
  endloop
endfacet
facet normal 0.0 0.0 1.0
  outer loop
    vertex -68.8914116017959 429.790514494514 21.0
    vertex -69.4758753882803 428.629307328549 21.0
    vertex -68.3665989059545 428.242642459377 21.0
  endloop
endfacet
facet normal 0.0 0.0 1.0
  outer loop
    vertex -68.8914116017959 429.790514494514 21.0
    vertex -68.3665989059545 428.242642459377 21.0
    vertex -65.6966625605052 429.97375903924 21.0
  endloop
endfacet
facet normal 0.0 0.0 1.0
  outer loop
    vertex -65.6966625605052 429.97375903924 21.0
    vertex -68.3665989059545 428.242642459377 21.0
    vertex -67.1950438709671 428.156254756036 21.0
  endloop
endfacet
facet normal 0.0 0.0 1.0
  outer loop
    vertex -65.6966625605052 429.97375903924 21.0
    vertex -67.1950438709671 428.156254756036 21.0
    vertex -66.0410498228665 428.376031397745 21.0
  endloop
endfacet
facet normal 0.0 0.0 1.0
  outer loop
    vertex -65.6966625605052 429.97375903924 21.0
    vertex -66.0410498228665 428.376031397745 21.0
    vertex -64.9832595489652 428.88699496957 21.0
  endloop
endfacet
facet normal 0.0 0.0 1.0
  outer loop
    vertex -65.6966625605052 429.97375903924 21.0
    vertex -64.9832595489652 428.88699496957 21.0
    vertex -64.2579824706977 432.832115140077 21.0
  endloop
endfacet
facet normal 0.0 0.0 1.0
  outer loop
    vertex -64.2579824706977 432.832115140077 21.0
    vertex -64.9832595489652 428.88699496957 21.0
    vertex -64.0937597083485 429.654324148499 21.0
  endloop
endfacet
facet normal 0.0 0.0 1.0
  outer loop
    vertex -70.6474805532792 432.465626050625 21.0
    vertex -69.9222034750117 436.410746221131 21.0
    vertex -70.8117033156284 435.643417042202 21.0
  endloop
endfacet
facet normal 0.0 0.0 1.0
  outer loop
    vertex -69.9222034750117 436.410746221131 21.0
    vertex -70.6474805532792 432.465626050625 21.0
    vertex -69.2088004634717 435.323982151461 21.0
  endloop
endfacet
facet normal 0.0 0.0 1.0
  outer loop
    vertex -69.9222034750117 436.410746221131 21.0
    vertex -69.2088004634717 435.323982151461 21.0
    vertex -68.8644132011104 436.921709792957 21.0
  endloop
endfacet
facet normal 0.0 0.0 1.0
  outer loop
    vertex -68.8644132011104 436.921709792957 21.0
    vertex -69.2088004634717 435.323982151461 21.0
    vertex -66.0140514221809 435.507226696188 21.0
  endloop
endfacet
facet normal 0.0 0.0 1.0
  outer loop
    vertex -68.8644132011104 436.921709792957 21.0
    vertex -66.0140514221809 435.507226696188 21.0
    vertex -67.7104191530097 437.141486434666 21.0
  endloop
endfacet
facet normal 0.0 0.0 1.0
  outer loop
    vertex -67.7104191530097 437.141486434666 21.0
    vertex -66.0140514221809 435.507226696188 21.0
    vertex -66.5388641180224 437.055098731324 21.0
  endloop
endfacet
facet normal 0.0 0.0 1.0
  outer loop
    vertex -66.5388641180224 437.055098731324 21.0
    vertex -66.0140514221809 435.507226696188 21.0
    vertex -65.4295876356966 436.668433862153 21.0
  endloop
endfacet
facet normal 0.0 0.0 1.0
  outer loop
    vertex -65.4295876356966 436.668433862153 21.0
    vertex -66.0140514221809 435.507226696188 21.0
    vertex -64.2579824706977 432.832115140077 21.0
  endloop
endfacet
facet normal 0.0 0.0 1.0
  outer loop
    vertex -65.4295876356966 436.668433862153 21.0
    vertex -64.2579824706977 432.832115140077 21.0
    vertex -64.4581850651368 436.007842398991 21.0
  endloop
endfacet
facet normal 0.0 0.0 1.0
  outer loop
    vertex -64.4581850651368 436.007842398991 21.0
    vertex -64.2579824706977 432.832115140077 21.0
    vertex -63.6908558862079 435.118342558374 21.0
  endloop
endfacet
facet normal 0.0 0.0 1.0
  outer loop
    vertex -63.6908558862079 435.118342558374 21.0
    vertex -64.2579824706977 432.832115140077 21.0
    vertex -64.0937597083485 429.654324148499 21.0
  endloop
endfacet
facet normal 0.0 0.0 1.0
  outer loop
    vertex -63.6908558862079 435.118342558374 21.0
    vertex -64.0937597083485 429.654324148499 21.0
    vertex -63.4331682451866 430.625726719059 21.0
  endloop
endfacet
facet normal 0.0 0.0 1.0
  outer loop
    vertex -63.6908558862079 435.118342558374 21.0
    vertex -63.4331682451866 430.625726719059 21.0
    vertex -63.1798923143825 434.060552284473 21.0
  endloop
endfacet
facet normal 0.0 0.0 1.0
  outer loop
    vertex -63.1798923143825 434.060552284473 21.0
    vertex -63.4331682451866 430.625726719059 21.0
    vertex -63.0465033760148 431.735003201385 21.0
  endloop
endfacet
facet normal 0.0 0.0 1.0
  outer loop
    vertex -63.1798923143825 434.060552284473 21.0
    vertex -63.0465033760148 431.735003201385 21.0
    vertex -62.9601156726733 432.906558236372 21.0
  endloop
endfacet
facet normal -0.25881904510249 -0.965925826289076 0.0
  outer loop
    vertex -67.0386210398244 434.194351917413 17.0
    vertex -67.4527315119884 434.248870595351 -5.0
    vertex -67.0386210398244 434.194351917413 -5.0
  endloop
endfacet
facet normal 0.0 -1.0 0.0
  outer loop
    vertex -67.4527315119884 434.248870595351 -5.0
    vertex -67.0386210398244 434.194351917413 17.0
    vertex -67.4527315119884 434.248870595351 17.0
  endloop
endfacet
facet normal -0.83597236128457 -0.548771547338508 -0.0
  outer loop
    vertex -66.0140514221809 435.507226696188 21.0
    vertex -64.2579824706977 432.832115140077 17.0
    vertex -64.2579824706977 432.832115140077 21.0
  endloop
endfacet
facet normal -0.83597236128457 -0.548771547338508 -0.0
  outer loop
    vertex -64.2579824706977 432.832115140077 17.0
    vertex -66.0140514221809 435.507226696188 21.0
    vertex -66.0140514221809 435.507226696188 17.0
  endloop
endfacet
facet normal 0.0 -1.0 0.0
  outer loop
    vertex -67.4527315119884 434.248870595351 17.0
    vertex -67.8668419841525 434.194351917413 -5.0
    vertex -67.4527315119884 434.248870595351 -5.0
  endloop
endfacet
facet normal 0.25881904510249 -0.965925826289076 0.0
  outer loop
    vertex -67.8668419841525 434.194351917413 -5.0
    vertex -67.4527315119884 434.248870595351 17.0
    vertex -67.8668419841525 434.194351917413 17.0
  endloop
endfacet
facet normal -0.499999999999938 -0.866025403784474 0.0
  outer loop
    vertex -66.6527315119884 434.034511241406 17.0
    vertex -67.0386210398244 434.194351917413 -5.0
    vertex -66.6527315119884 434.034511241406 -5.0
  endloop
endfacet
facet normal -0.25881904510249 -0.965925826289076 0.0
  outer loop
    vertex -67.0386210398244 434.194351917413 -5.0
    vertex -66.6527315119884 434.034511241406 17.0
    vertex -67.0386210398244 434.194351917413 17.0
  endloop
endfacet
facet normal -0.893236281511527 0.449587528064848 0.0
  outer loop
    vertex -64.2579824706977 432.832115140077 21.0
    vertex -65.6966625605052 429.97375903924 17.0
    vertex -65.6966625605052 429.97375903924 21.0
  endloop
endfacet
facet normal -0.893236281511527 0.449587528064848 0.0
  outer loop
    vertex -65.6966625605052 429.97375903924 17.0
    vertex -64.2579824706977 432.832115140077 21.0
    vertex -64.2579824706977 432.832115140077 17.0
  endloop
endfacet
facet normal -0.057263920226954 0.998359075403355 0.0
  outer loop
    vertex -68.8914116017959 429.790514494514 21.0
    vertex -65.6966625605052 429.97375903924 17.0
    vertex -68.8914116017959 429.790514494514 17.0
  endloop
endfacet
facet normal -0.057263920226954 0.998359075403355 0.0
  outer loop
    vertex -65.6966625605052 429.97375903924 17.0
    vertex -68.8914116017959 429.790514494514 21.0
    vertex -65.6966625605052 429.97375903924 21.0
  endloop
endfacet
facet normal -0.707106781186563 -0.707106781186532 0.0
  outer loop
    vertex -66.32136066209 433.780241445249 17.0
    vertex -66.6527315119884 434.034511241406 -5.0
    vertex -66.32136066209 433.780241445249 -5.0
  endloop
endfacet
facet normal -0.499999999999938 -0.866025403784474 0.0
  outer loop
    vertex -66.6527315119884 434.034511241406 -5.0
    vertex -66.32136066209 433.780241445249 17.0
    vertex -66.6527315119884 434.034511241406 17.0
  endloop
endfacet
facet normal -0.707106781186563 -0.707106781186532 0.0
  outer loop
    vertex -66.32136066209 433.780241445249 17.0
    vertex -66.0670908659333 433.448870595351 -5.0
    vertex -66.0670908659333 433.448870595351 17.0
  endloop
endfacet
facet normal -0.866025403784449 -0.499999999999982 0.0
  outer loop
    vertex -66.0670908659333 433.448870595351 -5.0
    vertex -66.32136066209 433.780241445249 17.0
    vertex -66.32136066209 433.780241445249 -5.0
  endloop
endfacet
facet normal 0.83597236128457 0.548771547338508 0.0
  outer loop
    vertex -70.6474805532792 432.465626050625 17.0
    vertex -68.8914116017959 429.790514494514 21.0
    vertex -68.8914116017959 429.790514494514 17.0
  endloop
endfacet
facet normal 0.83597236128457 0.548771547338508 0.0
  outer loop
    vertex -68.8914116017959 429.790514494514 21.0
    vertex -70.6474805532792 432.465626050625 17.0
    vertex -70.6474805532792 432.465626050625 21.0
  endloop
endfacet
facet normal -0.866025403784449 -0.499999999999982 0.0
  outer loop
    vertex -66.0670908659333 433.448870595351 17.0
    vertex -65.9072501899259 433.062981067515 -5.0
    vertex -65.9072501899259 433.062981067515 17.0
  endloop
endfacet
facet normal -0.965925826289066 -0.258819045102531 0.0
  outer loop
    vertex -65.9072501899259 433.062981067515 -5.0
    vertex -66.0670908659333 433.448870595351 17.0
    vertex -66.0670908659333 433.448870595351 -5.0
  endloop
endfacet
facet normal -0.965925826289066 -0.258819045102531 0.0
  outer loop
    vertex -65.9072501899259 433.062981067515 17.0
    vertex -65.8527315119884 432.648870595351 -5.0
    vertex -65.8527315119884 432.648870595351 17.0
  endloop
endfacet
facet normal -1.0 0.0 0.0
  outer loop
    vertex -65.8527315119884 432.648870595351 -5.0
    vertex -65.9072501899259 433.062981067515 17.0
    vertex -65.9072501899259 433.062981067515 -5.0
  endloop
endfacet
facet normal -0.965925826289066 0.258819045102531 0.0
  outer loop
    vertex -65.9072501899259 432.234760123187 17.0
    vertex -66.0670908659333 431.848870595351 -5.0
    vertex -66.0670908659333 431.848870595351 17.0
  endloop
endfacet
facet normal -0.866025403784449 0.499999999999982 0.0
  outer loop
    vertex -66.0670908659333 431.848870595351 -5.0
    vertex -65.9072501899259 432.234760123187 17.0
    vertex -65.9072501899259 432.234760123187 -5.0
  endloop
endfacet
facet normal 0.893236281511527 -0.449587528064848 0.0
  outer loop
    vertex -69.2088004634717 435.323982151461 17.0
    vertex -70.6474805532792 432.465626050625 21.0
    vertex -70.6474805532792 432.465626050625 17.0
  endloop
endfacet
facet normal 0.893236281511527 -0.449587528064848 0.0
  outer loop
    vertex -70.6474805532792 432.465626050625 21.0
    vertex -69.2088004634717 435.323982151461 17.0
    vertex -69.2088004634717 435.323982151461 21.0
  endloop
endfacet
facet normal -0.866025403784449 0.499999999999982 0.0
  outer loop
    vertex -66.0670908659333 431.848870595351 17.0
    vertex -66.32136066209 431.517499745452 -5.0
    vertex -66.32136066209 431.517499745452 17.0
  endloop
endfacet
facet normal -0.707106781186574 0.707106781186521 0.0
  outer loop
    vertex -66.32136066209 431.517499745452 -5.0
    vertex -66.0670908659333 431.848870595351 17.0
    vertex -66.0670908659333 431.848870595351 -5.0
  endloop
endfacet
facet normal -0.25881904510249 0.965925826289076 0.0
  outer loop
    vertex -67.0386210398244 431.103389273288 17.0
    vertex -66.6527315119884 431.263229949296 -5.0
    vertex -67.0386210398244 431.103389273288 -5.0
  endloop
endfacet
facet normal -0.49999999999989 0.866025403784502 0.0
  outer loop
    vertex -66.6527315119884 431.263229949296 -5.0
    vertex -67.0386210398244 431.103389273288 17.0
    vertex -66.6527315119884 431.263229949296 17.0
  endloop
endfacet
facet normal 0.0 1.0 0.0
  outer loop
    vertex -67.4527315119884 431.048870595351 17.0
    vertex -67.0386210398244 431.103389273288 -5.0
    vertex -67.4527315119884 431.048870595351 -5.0
  endloop
endfacet
facet normal -0.25881904510249 0.965925826289076 0.0
  outer loop
    vertex -67.0386210398244 431.103389273288 -5.0
    vertex -67.4527315119884 431.048870595351 17.0
    vertex -67.0386210398244 431.103389273288 17.0
  endloop
endfacet
facet normal 0.25881904510249 0.965925826289076 0.0
  outer loop
    vertex -67.8668419841525 431.103389273288 17.0
    vertex -67.4527315119884 431.048870595351 -5.0
    vertex -67.8668419841525 431.103389273288 -5.0
  endloop
endfacet
facet normal 0.0 1.0 0.0
  outer loop
    vertex -67.4527315119884 431.048870595351 -5.0
    vertex -67.8668419841525 431.103389273288 17.0
    vertex -67.4527315119884 431.048870595351 17.0
  endloop
endfacet
facet normal 0.499999999999938 0.866025403784474 0.0
  outer loop
    vertex -68.2527315119884 431.263229949296 17.0
    vertex -67.8668419841525 431.103389273288 -5.0
    vertex -68.2527315119884 431.263229949296 -5.0
  endloop
endfacet
facet normal 0.25881904510249 0.965925826289076 0.0
  outer loop
    vertex -67.8668419841525 431.103389273288 -5.0
    vertex -68.2527315119884 431.263229949296 17.0
    vertex -67.8668419841525 431.103389273288 17.0
  endloop
endfacet
facet normal -1.0 0.0 0.0
  outer loop
    vertex -65.8527315119884 432.648870595351 17.0
    vertex -65.9072501899259 432.234760123187 -5.0
    vertex -65.9072501899259 432.234760123187 17.0
  endloop
endfacet
facet normal -0.965925826289066 0.258819045102531 0.0
  outer loop
    vertex -65.9072501899259 432.234760123187 -5.0
    vertex -65.8527315119884 432.648870595351 17.0
    vertex -65.8527315119884 432.648870595351 -5.0
  endloop
endfacet
facet normal 0.707106781186563 0.707106781186532 0.0
  outer loop
    vertex -68.5841023618869 431.517499745452 17.0
    vertex -68.2527315119884 431.263229949296 -5.0
    vertex -68.5841023618869 431.517499745452 -5.0
  endloop
endfacet
facet normal 0.499999999999938 0.866025403784474 0.0
  outer loop
    vertex -68.2527315119884 431.263229949296 -5.0
    vertex -68.5841023618869 431.517499745452 17.0
    vertex -68.2527315119884 431.263229949296 17.0
  endloop
endfacet
facet normal 0.866025403784449 0.499999999999982 0.0
  outer loop
    vertex -68.8383721580435 431.848870595351 -5.0
    vertex -68.5841023618869 431.517499745452 17.0
    vertex -68.5841023618869 431.517499745452 -5.0
  endloop
endfacet
facet normal 0.707106781186563 0.707106781186532 0.0
  outer loop
    vertex -68.5841023618869 431.517499745452 17.0
    vertex -68.8383721580435 431.848870595351 -5.0
    vertex -68.8383721580435 431.848870595351 17.0
  endloop
endfacet
facet normal 0.965925826289066 0.258819045102531 0.0
  outer loop
    vertex -68.9982128340509 432.234760123187 -5.0
    vertex -68.8383721580435 431.848870595351 17.0
    vertex -68.8383721580435 431.848870595351 -5.0
  endloop
endfacet
facet normal 0.866025403784449 0.499999999999982 0.0
  outer loop
    vertex -68.8383721580435 431.848870595351 17.0
    vertex -68.9982128340509 432.234760123187 -5.0
    vertex -68.9982128340509 432.234760123187 17.0
  endloop
endfacet
facet normal 1.0 0.0 0.0
  outer loop
    vertex -69.0527315119884 432.648870595351 -5.0
    vertex -68.9982128340509 432.234760123187 17.0
    vertex -68.9982128340509 432.234760123187 -5.0
  endloop
endfacet
facet normal 0.965925826289066 0.258819045102531 0.0
  outer loop
    vertex -68.9982128340509 432.234760123187 17.0
    vertex -69.0527315119884 432.648870595351 -5.0
    vertex -69.0527315119884 432.648870595351 17.0
  endloop
endfacet
facet normal 0.057263920226954 -0.998359075403355 0.0
  outer loop
    vertex -66.0140514221809 435.507226696188 21.0
    vertex -69.2088004634717 435.323982151461 17.0
    vertex -66.0140514221809 435.507226696188 17.0
  endloop
endfacet
facet normal 0.057263920226954 -0.998359075403355 0.0
  outer loop
    vertex -69.2088004634717 435.323982151461 17.0
    vertex -66.0140514221809 435.507226696188 21.0
    vertex -69.2088004634717 435.323982151461 21.0
  endloop
endfacet
facet normal 0.965925826289066 -0.258819045102531 0.0
  outer loop
    vertex -68.9982128340509 433.062981067515 -5.0
    vertex -69.0527315119884 432.648870595351 17.0
    vertex -69.0527315119884 432.648870595351 -5.0
  endloop
endfacet
facet normal 1.0 0.0 0.0
  outer loop
    vertex -69.0527315119884 432.648870595351 17.0
    vertex -68.9982128340509 433.062981067515 -5.0
    vertex -68.9982128340509 433.062981067515 17.0
  endloop
endfacet
facet normal 0.25881904510249 -0.965925826289076 0.0
  outer loop
    vertex -67.8668419841525 434.194351917413 17.0
    vertex -68.2527315119884 434.034511241406 -5.0
    vertex -67.8668419841525 434.194351917413 -5.0
  endloop
endfacet
facet normal 0.49999999999989 -0.866025403784502 0.0
  outer loop
    vertex -68.2527315119884 434.034511241406 -5.0
    vertex -67.8668419841525 434.194351917413 17.0
    vertex -68.2527315119884 434.034511241406 17.0
  endloop
endfacet
facet normal -0.49999999999989 0.866025403784502 0.0
  outer loop
    vertex -66.6527315119884 431.263229949296 17.0
    vertex -66.5798453307477 431.319157483212 -5.0
    vertex -66.6527315119884 431.263229949296 -5.0
  endloop
endfacet
facet normal -0.608761429008622 0.793353340291311 0.0
  outer loop
    vertex -66.5798453307477 431.319157483212 -5.0
    vertex -66.6527315119884 431.263229949296 17.0
    vertex -66.5798453307477 431.319157483212 17.0
  endloop
endfacet
facet normal -0.608761429008734 0.793353340291225 0.0
  outer loop
    vertex -66.5798453307477 431.319157483212 17.0
    vertex -66.32136066209 431.517499745452 -5.0
    vertex -66.5798453307477 431.319157483212 -5.0
  endloop
endfacet
facet normal -0.707106781186574 0.707106781186521 0.0
  outer loop
    vertex -66.32136066209 431.517499745452 -5.0
    vertex -66.5798453307477 431.319157483212 17.0
    vertex -66.32136066209 431.517499745452 17.0
  endloop
endfacet
facet normal 0.0 0.0 1.0
  outer loop
    vertex -68.8914116017959 429.790514494514 17.0
    vertex -69.2088004634717 435.323982151461 17.0
    vertex -70.6474805532792 432.465626050625 17.0
  endloop
endfacet
facet normal 0.0 0.0 1.0
  outer loop
    vertex -69.2088004634717 435.323982151461 17.0
    vertex -68.8914116017959 429.790514494514 17.0
    vertex -69.0527315119884 432.648870595351 17.0
  endloop
endfacet
facet normal 0.0 0.0 1.0
  outer loop
    vertex -69.0527315119884 432.648870595351 17.0
    vertex -68.8914116017959 429.790514494514 17.0
    vertex -68.9982128340509 432.234760123187 17.0
  endloop
endfacet
facet normal 0.0 0.0 1.0
  outer loop
    vertex -68.9982128340509 432.234760123187 17.0
    vertex -68.8914116017959 429.790514494514 17.0
    vertex -68.8383721580435 431.848870595351 17.0
  endloop
endfacet
facet normal 0.0 0.0 1.0
  outer loop
    vertex -68.8383721580435 431.848870595351 17.0
    vertex -68.8914116017959 429.790514494514 17.0
    vertex -68.5841023618869 431.517499745452 17.0
  endloop
endfacet
facet normal 0.0 0.0 1.0
  outer loop
    vertex -68.5841023618869 431.517499745452 17.0
    vertex -68.8914116017959 429.790514494514 17.0
    vertex -68.2527315119884 431.263229949296 17.0
  endloop
endfacet
facet normal 0.0 0.0 1.0
  outer loop
    vertex -68.2527315119884 431.263229949296 17.0
    vertex -68.8914116017959 429.790514494514 17.0
    vertex -65.6966625605052 429.97375903924 17.0
  endloop
endfacet
facet normal 0.0 0.0 1.0
  outer loop
    vertex -68.2527315119884 431.263229949296 17.0
    vertex -65.6966625605052 429.97375903924 17.0
    vertex -67.8668419841525 431.103389273288 17.0
  endloop
endfacet
facet normal 0.0 0.0 1.0
  outer loop
    vertex -67.8668419841525 431.103389273288 17.0
    vertex -65.6966625605052 429.97375903924 17.0
    vertex -67.4527315119884 431.048870595351 17.0
  endloop
endfacet
facet normal 0.0 0.0 1.0
  outer loop
    vertex -67.4527315119884 431.048870595351 17.0
    vertex -65.6966625605052 429.97375903924 17.0
    vertex -67.0386210398244 431.103389273288 17.0
  endloop
endfacet
facet normal 0.0 0.0 1.0
  outer loop
    vertex -67.0386210398244 431.103389273288 17.0
    vertex -65.6966625605052 429.97375903924 17.0
    vertex -66.6527315119884 431.263229949296 17.0
  endloop
endfacet
facet normal 0.0 0.0 1.0
  outer loop
    vertex -66.6527315119884 431.263229949296 17.0
    vertex -65.6966625605052 429.97375903924 17.0
    vertex -66.5798453307477 431.319157483212 17.0
  endloop
endfacet
facet normal 0.0 0.0 1.0
  outer loop
    vertex -66.5798453307477 431.319157483212 17.0
    vertex -65.6966625605052 429.97375903924 17.0
    vertex -66.32136066209 431.517499745452 17.0
  endloop
endfacet
facet normal 0.0 0.0 1.0
  outer loop
    vertex -66.32136066209 431.517499745452 17.0
    vertex -65.6966625605052 429.97375903924 17.0
    vertex -66.0670908659333 431.848870595351 17.0
  endloop
endfacet
facet normal 0.0 0.0 1.0
  outer loop
    vertex -66.0670908659333 431.848870595351 17.0
    vertex -65.6966625605052 429.97375903924 17.0
    vertex -65.9072501899259 432.234760123187 17.0
  endloop
endfacet
facet normal 0.0 0.0 1.0
  outer loop
    vertex -65.9072501899259 432.234760123187 17.0
    vertex -65.6966625605052 429.97375903924 17.0
    vertex -65.8527315119884 432.648870595351 17.0
  endloop
endfacet
facet normal 0.0 0.0 1.0
  outer loop
    vertex -69.2088004634717 435.323982151461 17.0
    vertex -68.2527315119884 434.034511241406 17.0
    vertex -66.0140514221809 435.507226696188 17.0
  endloop
endfacet
facet normal 0.0 0.0 1.0
  outer loop
    vertex -68.2527315119884 434.034511241406 17.0
    vertex -69.2088004634717 435.323982151461 17.0
    vertex -68.3256176932292 433.978583707489 17.0
  endloop
endfacet
facet normal 0.0 0.0 1.0
  outer loop
    vertex -68.3256176932292 433.978583707489 17.0
    vertex -69.2088004634717 435.323982151461 17.0
    vertex -68.5841023618869 433.780241445249 17.0
  endloop
endfacet
facet normal 0.0 0.0 1.0
  outer loop
    vertex -68.5841023618869 433.780241445249 17.0
    vertex -69.2088004634717 435.323982151461 17.0
    vertex -68.8383721580435 433.448870595351 17.0
  endloop
endfacet
facet normal 0.0 0.0 1.0
  outer loop
    vertex -68.8383721580435 433.448870595351 17.0
    vertex -69.2088004634717 435.323982151461 17.0
    vertex -68.9982128340509 433.062981067515 17.0
  endloop
endfacet
facet normal 0.0 0.0 1.0
  outer loop
    vertex -68.9982128340509 433.062981067515 17.0
    vertex -69.2088004634717 435.323982151461 17.0
    vertex -69.0527315119884 432.648870595351 17.0
  endloop
endfacet
facet normal 0.0 0.0 1.0
  outer loop
    vertex -66.0140514221809 435.507226696188 17.0
    vertex -68.2527315119884 434.034511241406 17.0
    vertex -67.8668419841525 434.194351917413 17.0
  endloop
endfacet
facet normal 0.0 0.0 1.0
  outer loop
    vertex -66.0140514221809 435.507226696188 17.0
    vertex -67.8668419841525 434.194351917413 17.0
    vertex -67.4527315119884 434.248870595351 17.0
  endloop
endfacet
facet normal 0.0 0.0 1.0
  outer loop
    vertex -66.0140514221809 435.507226696188 17.0
    vertex -67.4527315119884 434.248870595351 17.0
    vertex -67.0386210398244 434.194351917413 17.0
  endloop
endfacet
facet normal 0.0 0.0 1.0
  outer loop
    vertex -66.0140514221809 435.507226696188 17.0
    vertex -67.0386210398244 434.194351917413 17.0
    vertex -66.6527315119884 434.034511241406 17.0
  endloop
endfacet
facet normal 0.0 0.0 1.0
  outer loop
    vertex -66.0140514221809 435.507226696188 17.0
    vertex -66.6527315119884 434.034511241406 17.0
    vertex -66.32136066209 433.780241445249 17.0
  endloop
endfacet
facet normal 0.0 0.0 1.0
  outer loop
    vertex -66.0140514221809 435.507226696188 17.0
    vertex -66.32136066209 433.780241445249 17.0
    vertex -66.0670908659333 433.448870595351 17.0
  endloop
endfacet
facet normal 0.0 0.0 1.0
  outer loop
    vertex -66.0140514221809 435.507226696188 17.0
    vertex -66.0670908659333 433.448870595351 17.0
    vertex -65.9072501899259 433.062981067515 17.0
  endloop
endfacet
facet normal 0.0 0.0 1.0
  outer loop
    vertex -66.0140514221809 435.507226696188 17.0
    vertex -65.9072501899259 433.062981067515 17.0
    vertex -64.2579824706977 432.832115140077 17.0
  endloop
endfacet
facet normal 0.0 0.0 1.0
  outer loop
    vertex -64.2579824706977 432.832115140077 17.0
    vertex -65.9072501899259 433.062981067515 17.0
    vertex -65.8527315119884 432.648870595351 17.0
  endloop
endfacet
facet normal 0.0 0.0 1.0
  outer loop
    vertex -64.2579824706977 432.832115140077 17.0
    vertex -65.8527315119884 432.648870595351 17.0
    vertex -65.6966625605052 429.97375903924 17.0
  endloop
endfacet
facet normal 0.866025403784449 -0.499999999999982 0.0
  outer loop
    vertex -68.8383721580435 433.448870595351 -5.0
    vertex -68.9982128340509 433.062981067515 17.0
    vertex -68.9982128340509 433.062981067515 -5.0
  endloop
endfacet
facet normal 0.965925826289066 -0.258819045102531 0.0
  outer loop
    vertex -68.9982128340509 433.062981067515 17.0
    vertex -68.8383721580435 433.448870595351 -5.0
    vertex -68.8383721580435 433.448870595351 17.0
  endloop
endfacet
facet normal 0.707106781186574 -0.707106781186521 0.0
  outer loop
    vertex -68.5841023618869 433.780241445249 -5.0
    vertex -68.8383721580435 433.448870595351 17.0
    vertex -68.8383721580435 433.448870595351 -5.0
  endloop
endfacet
facet normal 0.866025403784449 -0.499999999999982 0.0
  outer loop
    vertex -68.8383721580435 433.448870595351 17.0
    vertex -68.5841023618869 433.780241445249 -5.0
    vertex -68.5841023618869 433.780241445249 17.0
  endloop
endfacet
facet normal 0.608761429008734 -0.793353340291225 0.0
  outer loop
    vertex -68.3256176932292 433.978583707489 17.0
    vertex -68.5841023618869 433.780241445249 -5.0
    vertex -68.3256176932292 433.978583707489 -5.0
  endloop
endfacet
facet normal 0.707106781186574 -0.707106781186521 0.0
  outer loop
    vertex -68.5841023618869 433.780241445249 -5.0
    vertex -68.3256176932292 433.978583707489 17.0
    vertex -68.5841023618869 433.780241445249 17.0
  endloop
endfacet
facet normal 0.49999999999989 -0.866025403784502 0.0
  outer loop
    vertex -68.2527315119884 434.034511241406 17.0
    vertex -68.3256176932292 433.978583707489 -5.0
    vertex -68.2527315119884 434.034511241406 -5.0
  endloop
endfacet
facet normal 0.608761429008622 -0.793353340291311 0.0
  outer loop
    vertex -68.3256176932292 433.978583707489 -5.0
    vertex -68.2527315119884 434.034511241406 17.0
    vertex -68.3256176932292 433.978583707489 17.0
  endloop
endfacet
endsolid kossel1515-effector-blank
