solid kossel1515-effector-blank
facet normal -0.499999999999999 3.4744071434398e-018 -0.866025403784439
  outer loop
    vertex -39.055428074131 462.590407694705 4.25
    vertex -40.3544661798077 451.044935194558 5.0
    vertex -40.3544661798077 459.705641624351 5.0
  endloop
endfacet
facet normal -0.499999999999999 3.4744071434398e-018 -0.866025403784439
  outer loop
    vertex -40.3544661798077 451.044935194558 5.0
    vertex -39.055428074131 462.590407694705 4.25
    vertex -39.055428074131 451.044935194558 4.25
  endloop
endfacet
facet normal 2.12644618171943e-017 4.99481951570502e-017 1.0
  outer loop
    vertex -44.2544661798077 451.044935194558 7.0
    vertex -36.7826694100832 461.479445910879 7.0
    vertex -38.5005647074745 463.822589419643 7.0
  endloop
endfacet
facet normal 2.12644618171943e-017 4.99481951570502e-017 1.0
  outer loop
    vertex -36.7826694100832 461.479445910879 7.0
    vertex -44.2544661798077 451.044935194558 7.0
    vertex -35.5113204293001 459.822591661387 7.0
  endloop
endfacet
facet normal 2.12644618171943e-017 4.99481951570502e-017 1.0
  outer loop
    vertex -35.5113204293001 459.822591661387 7.0
    vertex -44.2544661798077 451.044935194558 7.0
    vertex -33.8544661798077 458.551242680604 7.0
  endloop
endfacet
facet normal 2.12644618171943e-017 4.99481951570502e-017 1.0
  outer loop
    vertex -33.8544661798077 458.551242680604 7.0
    vertex -44.2544661798077 451.044935194558 7.0
    vertex -31.9250185406279 457.752039300567 7.0
  endloop
endfacet
facet normal 2.12644618171943e-017 4.99481951570502e-017 1.0
  outer loop
    vertex -31.9250185406279 457.752039300567 7.0
    vertex -44.2544661798077 451.044935194558 7.0
    vertex -15.4544661798077 451.044935194558 7.0
  endloop
endfacet
facet normal 2.12644618171943e-017 4.99481951570502e-017 1.0
  outer loop
    vertex -38.5005647074745 463.822589419643 7.0
    vertex -36.7826694100832 461.479445910879 7.0
    vertex -37.5818727901203 463.408893550059 7.0
  endloop
endfacet
facet normal 2.12644618171943e-017 4.99481951570502e-017 1.0
  outer loop
    vertex -31.9250185406279 457.752039300567 7.0
    vertex -15.4544661798077 451.044935194558 7.0
    vertex -29.8544661798077 457.479445910879 7.0
  endloop
endfacet
facet normal 2.12644618171943e-017 4.99481951570502e-017 1.0
  outer loop
    vertex -29.8544661798077 457.479445910879 7.0
    vertex -15.4544661798077 451.044935194558 7.0
    vertex -27.7839138189876 457.752039300567 7.0
  endloop
endfacet
facet normal 2.12644618171943e-017 4.99481951570502e-017 1.0
  outer loop
    vertex -27.7839138189876 457.752039300567 7.0
    vertex -15.4544661798077 451.044935194558 7.0
    vertex -25.8544661798077 458.551242680604 7.0
  endloop
endfacet
facet normal 2.12644618171943e-017 4.99481951570502e-017 1.0
  outer loop
    vertex -25.8544661798077 458.551242680604 7.0
    vertex -15.4544661798077 451.044935194558 7.0
    vertex -24.1976119303153 459.822591661387 7.0
  endloop
endfacet
facet normal 2.12644618171943e-017 4.99481951570502e-017 1.0
  outer loop
    vertex -24.1976119303153 459.822591661387 7.0
    vertex -15.4544661798077 451.044935194558 7.0
    vertex -22.9262629495322 461.479445910879 7.0
  endloop
endfacet
facet normal 2.12644618171943e-017 4.99481951570502e-017 1.0
  outer loop
    vertex -22.9262629495322 461.479445910879 7.0
    vertex -15.4544661798077 451.044935194558 7.0
    vertex -22.1270595694952 463.408893550059 7.0
  endloop
endfacet
facet normal 2.12644618171943e-017 4.99481951570502e-017 1.0
  outer loop
    vertex -22.1270595694952 463.408893550059 7.0
    vertex -15.4544661798077 451.044935194558 7.0
    vertex -21.2593290466904 463.935759080526 7.0
  endloop
endfacet
facet normal 0.999999988909326 -0.000148934036383151 -1.85203478560436e-020
  outer loop
    vertex -41.6526437667579 456.822786502732 2.75
    vertex -41.6535042854844 451.044935194558 4.25
    vertex -41.6535042854844 451.044935194558 2.75
  endloop
endfacet
facet normal 0.999999988909326 -0.000148934036383151 -1.85203478560436e-020
  outer loop
    vertex -41.6535042854844 451.044935194558 4.25
    vertex -41.6526437667579 456.822786502732 2.75
    vertex -41.6526437667579 456.822786502732 4.25
  endloop
endfacet
facet normal 1.0 -1.22124342789441e-016 2.8199664825479e-015
  outer loop
    vertex -20.6535042854844 462.590407694705 2.75
    vertex -20.6535042854844 451.044935194558 4.25
    vertex -20.6535042854844 451.044935194558 2.75
  endloop
endfacet
facet normal 1.0 -1.22124342789441e-016 2.8199664825479e-015
  outer loop
    vertex -20.6535042854844 451.044935194558 4.25
    vertex -20.6535042854844 462.590407694705 2.75
    vertex -20.6535042854844 462.590407694705 4.25
  endloop
endfacet
facet normal -0.500143266945778 -2.29391115542498e-005 -0.865942672468912
  outer loop
    vertex -18.0562885928576 456.822786502732 4.25
    vertex -19.3544661798077 451.044935194558 5.0
    vertex -19.3544661798077 459.705641624351 5.0
  endloop
endfacet
facet normal -0.500143266945778 -2.29391115542498e-005 -0.865942672468912
  outer loop
    vertex -19.3544661798077 451.044935194558 5.0
    vertex -18.0562885928576 456.822786502732 4.25
    vertex -18.0554280741311 451.044935194558 4.25
  endloop
endfacet
facet normal -0.500143266945779 -2.29391115542699e-005 0.865942672468912
  outer loop
    vertex -18.0554280741311 451.044935194558 2.75
    vertex -19.3544661798077 459.705641624351 2.0
    vertex -19.3544661798077 451.044935194558 2.0
  endloop
endfacet
facet normal -0.500143266945779 -2.29391115542699e-005 0.865942672468912
  outer loop
    vertex -19.3544661798077 459.705641624351 2.0
    vertex -18.0554280741311 451.044935194558 2.75
    vertex -18.0562885928576 456.822786502732 2.75
  endloop
endfacet
facet normal 0.5 -4.34300892929976e-017 -0.866025403784439
  outer loop
    vertex -20.6535042854844 462.590407694705 4.25
    vertex -19.3544661798077 451.044935194558 5.0
    vertex -20.6535042854844 451.044935194558 4.25
  endloop
endfacet
facet normal 0.5 -4.34300892929976e-017 -0.866025403784439
  outer loop
    vertex -19.3544661798077 451.044935194558 5.0
    vertex -20.6535042854844 462.590407694705 4.25
    vertex -19.3544661798077 459.705641624351 5.0
  endloop
endfacet
facet normal -0.999999988909326 -0.000148934036383642 -4.41789493027677e-031
  outer loop
    vertex -18.0562885928576 456.822786502732 4.25
    vertex -18.0554280741311 451.044935194558 2.75
    vertex -18.0554280741311 451.044935194558 4.25
  endloop
endfacet
facet normal -0.999999988909326 -0.000148934036383642 -4.41789493027677e-031
  outer loop
    vertex -18.0554280741311 451.044935194558 2.75
    vertex -18.0562885928576 456.822786502732 4.25
    vertex -18.0562885928576 456.822786502732 2.75
  endloop
endfacet
facet normal 0.500143266945777 -2.29391115541829e-005 -0.865942672468913
  outer loop
    vertex -41.6526437667579 456.822786502732 4.25
    vertex -40.3544661798077 451.044935194558 5.0
    vertex -41.6535042854844 451.044935194558 4.25
  endloop
endfacet
facet normal 0.500143266945777 -2.29391115541829e-005 -0.865942672468913
  outer loop
    vertex -40.3544661798077 451.044935194558 5.0
    vertex -41.6526437667579 456.822786502732 4.25
    vertex -40.3544661798077 459.705641624351 5.0
  endloop
endfacet
facet normal 0.500143266945777 -2.29391115541795e-005 -0.865942672468913
  outer loop
    vertex -41.6526437667579 456.822786502732 4.25
    vertex -40.3544661798077 451.044935194558 5.0
    vertex -41.6535042854844 451.044935194558 4.25
  endloop
endfacet
facet normal 0.500143266945777 -2.29391115541795e-005 -0.865942672468913
  outer loop
    vertex -40.3544661798077 451.044935194558 5.0
    vertex -41.6526437667579 456.822786502732 4.25
    vertex -40.3544661798077 459.705641624351 5.0
  endloop
endfacet
facet normal 0.5 1.73720357171992e-018 0.866025403784438
  outer loop
    vertex -19.3544661798077 451.044935194558 2.0
    vertex -20.6535042854844 462.590407694705 2.75
    vertex -20.6535042854844 451.044935194558 2.75
  endloop
endfacet
facet normal 0.5 1.73720357171992e-018 0.866025403784438
  outer loop
    vertex -20.6535042854844 462.590407694705 2.75
    vertex -19.3544661798077 451.044935194558 2.0
    vertex -19.3544661798077 459.705641624351 2.0
  endloop
endfacet
facet normal 0.410599488947726 0.911815803589665 -2.35700844047586e-018
  outer loop
    vertex -38.5005647074745 463.822589419643 7.0
    vertex -37.5818727901203 463.408893550059 0.0
    vertex -38.5005647074745 463.822589419643 -7.04991620636974e-016
  endloop
endfacet
facet normal 0.410599488947726 0.911815803589665 -2.35700844047586e-018
  outer loop
    vertex -37.5818727901203 463.408893550059 0.0
    vertex -38.5005647074745 463.822589419643 7.0
    vertex -37.5818727901203 463.408893550059 2.0
  endloop
endfacet
facet normal 0.410599488947726 0.911815803589665 -2.35700844047586e-018
  outer loop
    vertex -37.5818727901203 463.408893550059 2.0
    vertex -38.5005647074745 463.822589419643 7.0
    vertex -37.5818727901203 463.408893550059 7.0
  endloop
endfacet
facet normal 0.500143266945776 -2.29391115541762e-005 0.865942672468913
  outer loop
    vertex -40.3544661798077 451.044935194558 2.0
    vertex -41.6526437667579 456.822786502732 2.75
    vertex -41.6535042854844 451.044935194558 2.75
  endloop
endfacet
facet normal 0.500143266945776 -2.29391115541762e-005 0.865942672468913
  outer loop
    vertex -41.6526437667579 456.822786502732 2.75
    vertex -40.3544661798077 451.044935194558 2.0
    vertex -40.3544661798077 459.705641624351 2.0
  endloop
endfacet
facet normal 0.500143266945776 -2.29391115541795e-005 0.865942672468913
  outer loop
    vertex -40.3544661798077 451.044935194558 2.0
    vertex -41.6526437667579 456.822786502732 2.75
    vertex -41.6535042854844 451.044935194558 2.75
  endloop
endfacet
facet normal 0.500143266945776 -2.29391115541795e-005 0.865942672468913
  outer loop
    vertex -41.6526437667579 456.822786502732 2.75
    vertex -40.3544661798077 451.044935194558 2.0
    vertex -40.3544661798077 459.705641624351 2.0
  endloop
endfacet
facet normal 0.923879532511285 0.382683432365095 8.1631677767851e-019
  outer loop
    vertex -37.5818727901203 463.408893550059 2.0
    vertex -36.7826694100832 461.479445910879 7.0
    vertex -36.7826694100832 461.479445910879 2.0
  endloop
endfacet
facet normal 0.86602540378444 0.499999999999998 2.31402571900132e-018
  outer loop
    vertex -36.7826694100832 461.479445910879 7.0
    vertex -37.5818727901203 463.408893550059 2.0
    vertex -37.5818727901203 463.408893550059 7.0
  endloop
endfacet
facet normal 1.34882112616407e-018 -1.60479357149833e-017 -1.0
  outer loop
    vertex -44.2544661798077 451.044935194558 0.0
    vertex -32.8544661798077 460.283293488173 0.0
    vertex -15.4544661798077 451.044935194558 0.0
  endloop
endfacet
facet normal 1.34882112616407e-018 -1.60479357149833e-017 -1.0
  outer loop
    vertex -32.8544661798077 460.283293488173 0.0
    vertex -44.2544661798077 451.044935194558 0.0
    vertex -38.5005647074745 463.822589419643 -7.04991620636974e-016
  endloop
endfacet
facet normal 1.34882112616407e-018 -1.60479357149833e-017 -1.0
  outer loop
    vertex -32.8544661798077 460.283293488173 0.0
    vertex -38.5005647074745 463.822589419643 -7.04991620636974e-016
    vertex -37.5818727901203 463.408893550059 0.0
  endloop
endfacet
facet normal 1.34882112616407e-018 -1.60479357149833e-017 -1.0
  outer loop
    vertex -32.8544661798077 460.283293488173 0.0
    vertex -37.5818727901203 463.408893550059 0.0
    vertex -34.097106866927 461.23680522376 0.0
  endloop
endfacet
facet normal 1.34882112616407e-018 -1.60479357149833e-017 -1.0
  outer loop
    vertex -34.097106866927 461.23680522376 0.0
    vertex -37.5818727901203 463.408893550059 0.0
    vertex -35.0506186025143 462.479445910879 0.0
  endloop
endfacet
facet normal 1.34882112616407e-018 -1.60479357149833e-017 -1.0
  outer loop
    vertex -35.0506186025143 462.479445910879 0.0
    vertex -37.5818727901203 463.408893550059 0.0
    vertex -35.4356084201783 463.408893550059 0.0
  endloop
endfacet
facet normal 1.34882112616407e-018 -1.60479357149833e-017 -1.0
  outer loop
    vertex -15.4544661798077 451.044935194558 0.0
    vertex -32.8544661798077 460.283293488173 0.0
    vertex -31.4073804504228 459.683890953145 0.0
  endloop
endfacet
facet normal 1.34882112616407e-018 -1.60479357149833e-017 -1.0
  outer loop
    vertex -15.4544661798077 451.044935194558 0.0
    vertex -31.4073804504228 459.683890953145 0.0
    vertex -29.8544661798077 459.479445910879 0.0
  endloop
endfacet
facet normal 1.34882112616407e-018 -1.60479357149833e-017 -1.0
  outer loop
    vertex -15.4544661798077 451.044935194558 0.0
    vertex -29.8544661798077 459.479445910879 0.0
    vertex -28.3015519091926 459.683890953145 0.0
  endloop
endfacet
facet normal 1.34882112616407e-018 -1.60479357149833e-017 -1.0
  outer loop
    vertex -15.4544661798077 451.044935194558 0.0
    vertex -28.3015519091926 459.683890953145 0.0
    vertex -26.8544661798077 460.283293488173 0.0
  endloop
endfacet
facet normal 1.34882112616407e-018 -1.60479357149833e-017 -1.0
  outer loop
    vertex -15.4544661798077 451.044935194558 0.0
    vertex -26.8544661798077 460.283293488173 0.0
    vertex -25.6118254926884 461.23680522376 0.0
  endloop
endfacet
facet normal 1.34882112616407e-018 -1.60479357149833e-017 -1.0
  outer loop
    vertex -15.4544661798077 451.044935194558 0.0
    vertex -25.6118254926884 461.23680522376 0.0
    vertex -24.6583137571011 462.479445910879 0.0
  endloop
endfacet
facet normal 1.34882112616407e-018 -1.60479357149833e-017 -1.0
  outer loop
    vertex -15.4544661798077 451.044935194558 0.0
    vertex -24.6583137571011 462.479445910879 0.0
    vertex -24.2733239394372 463.408893550059 0.0
  endloop
endfacet
facet normal 1.34882112616407e-018 -1.60479357149833e-017 -1.0
  outer loop
    vertex -15.4544661798077 451.044935194558 0.0
    vertex -24.2733239394372 463.408893550059 0.0
    vertex -22.1270595694952 463.408893550059 0.0
  endloop
endfacet
facet normal 1.34882112616407e-018 -1.60479357149833e-017 -1.0
  outer loop
    vertex -15.4544661798077 451.044935194558 0.0
    vertex -22.1270595694952 463.408893550059 0.0
    vertex -21.2593290466904 463.935759080526 -7.04991620636974e-016
  endloop
endfacet
facet normal -0.866025403784441 0.499999999999997 0.0
  outer loop
    vertex -24.6583137571011 462.479445910879 2.0
    vertex -25.6118254926884 461.23680522376 0.0
    vertex -25.6118254926884 461.23680522376 2.0
  endloop
endfacet
facet normal -0.707106781186542 0.707106781186553 0.0
  outer loop
    vertex -25.6118254926884 461.23680522376 0.0
    vertex -24.6583137571011 462.479445910879 2.0
    vertex -24.6583137571011 462.479445910879 0.0
  endloop
endfacet
facet normal -0.923879532511288 0.382683432365087 0.0
  outer loop
    vertex -24.2733239394372 463.408893550059 2.0
    vertex -24.6583137571011 462.479445910879 0.0
    vertex -24.6583137571011 462.479445910879 2.0
  endloop
endfacet
facet normal -0.866025403784441 0.499999999999997 0.0
  outer loop
    vertex -24.6583137571011 462.479445910879 0.0
    vertex -24.2733239394372 463.408893550059 2.0
    vertex -24.2733239394372 463.408893550059 0.0
  endloop
endfacet
facet normal 0.86602540378444 0.499999999999998 2.31402571900132e-018
  outer loop
    vertex -36.7826694100832 461.479445910879 2.0
    vertex -35.5113204293001 459.822591661387 7.0
    vertex -35.5113204293001 459.822591661387 2.0
  endloop
endfacet
facet normal 0.70710678118655 0.707106781186545 -3.22919079568204e-018
  outer loop
    vertex -35.5113204293001 459.822591661387 7.0
    vertex -36.7826694100832 461.479445910879 2.0
    vertex -36.7826694100832 461.479445910879 7.0
  endloop
endfacet
facet normal -0.911815803589642 0.410599488947777 8.40784982223152e-018
  outer loop
    vertex -44.2544661798077 451.044935194558 7.0
    vertex -41.6526437667579 456.822786502732 4.25
    vertex -44.2544661798077 451.044935194558 0.0
  endloop
endfacet
facet normal -0.911815803589642 0.410599488947777 8.40784982223152e-018
  outer loop
    vertex -41.6526437667579 456.822786502732 4.25
    vertex -44.2544661798077 451.044935194558 7.0
    vertex -38.5005647074745 463.822589419643 7.0
  endloop
endfacet
facet normal -0.911815803589642 0.410599488947777 8.40784982223152e-018
  outer loop
    vertex -41.6526437667579 456.822786502732 4.25
    vertex -38.5005647074745 463.822589419643 7.0
    vertex -40.3544661798077 459.705641624351 5.0
  endloop
endfacet
facet normal -0.911815803589642 0.410599488947777 8.40784982223152e-018
  outer loop
    vertex -40.3544661798077 459.705641624351 5.0
    vertex -38.5005647074745 463.822589419643 7.0
    vertex -39.055428074131 462.590407694705 4.25
  endloop
endfacet
facet normal -0.911815803589642 0.410599488947777 8.40784982223152e-018
  outer loop
    vertex -39.055428074131 462.590407694705 4.25
    vertex -38.5005647074745 463.822589419643 7.0
    vertex -39.055428074131 462.590407694705 2.75
  endloop
endfacet
facet normal -0.911815803589642 0.410599488947777 8.40784982223152e-018
  outer loop
    vertex -44.2544661798077 451.044935194558 0.0
    vertex -41.6526437667579 456.822786502732 2.75
    vertex -38.5005647074745 463.822589419643 -7.04991620636974e-016
  endloop
endfacet
facet normal -0.911815803589642 0.410599488947777 8.40784982223152e-018
  outer loop
    vertex -41.6526437667579 456.822786502732 2.75
    vertex -44.2544661798077 451.044935194558 0.0
    vertex -41.6526437667579 456.822786502732 4.25
  endloop
endfacet
facet normal -0.911815803589642 0.410599488947777 8.40784982223152e-018
  outer loop
    vertex -38.5005647074745 463.822589419643 -7.04991620636974e-016
    vertex -41.6526437667579 456.822786502732 2.75
    vertex -40.3544661798077 459.705641624351 2.0
  endloop
endfacet
facet normal -0.911815803589642 0.410599488947777 8.40784982223152e-018
  outer loop
    vertex -38.5005647074745 463.822589419643 -7.04991620636974e-016
    vertex -40.3544661798077 459.705641624351 2.0
    vertex -39.055428074131 462.590407694705 2.75
  endloop
endfacet
facet normal -0.911815803589642 0.410599488947777 8.40784982223152e-018
  outer loop
    vertex -38.5005647074745 463.822589419643 -7.04991620636974e-016
    vertex -39.055428074131 462.590407694705 2.75
    vertex -38.5005647074745 463.822589419643 7.0
  endloop
endfacet
facet normal 0.911815803589643 0.410599488947775 -2.4502340342592e-016
  outer loop
    vertex -15.4544661798077 451.044935194558 0.0
    vertex -18.0562885928576 456.822786502732 2.75
    vertex -15.4544661798077 451.044935194558 7.0
  endloop
endfacet
facet normal 0.911815803589643 0.410599488947775 -2.4502340342592e-016
  outer loop
    vertex -18.0562885928576 456.822786502732 2.75
    vertex -15.4544661798077 451.044935194558 0.0
    vertex -21.2593290466904 463.935759080526 -7.04991620636974e-016
  endloop
endfacet
facet normal 0.911815803589643 0.410599488947775 -2.4502340342592e-016
  outer loop
    vertex -18.0562885928576 456.822786502732 2.75
    vertex -21.2593290466904 463.935759080526 -7.04991620636974e-016
    vertex -19.3544661798077 459.705641624351 2.0
  endloop
endfacet
facet normal 0.911815803589643 0.410599488947775 -2.4502340342592e-016
  outer loop
    vertex -19.3544661798077 459.705641624351 2.0
    vertex -21.2593290466904 463.935759080526 -7.04991620636974e-016
    vertex -20.6535042854844 462.590407694705 2.75
  endloop
endfacet
facet normal 0.911815803589643 0.410599488947775 -2.4502340342592e-016
  outer loop
    vertex -20.6535042854844 462.590407694705 2.75
    vertex -21.2593290466904 463.935759080526 -7.04991620636974e-016
    vertex -20.6535042854844 462.590407694705 4.25
  endloop
endfacet
facet normal 0.911815803589643 0.410599488947775 -2.4502340342592e-016
  outer loop
    vertex -15.4544661798077 451.044935194558 7.0
    vertex -18.0562885928576 456.822786502732 4.25
    vertex -21.2593290466904 463.935759080526 7.0
  endloop
endfacet
facet normal 0.911815803589643 0.410599488947775 -2.4502340342592e-016
  outer loop
    vertex -18.0562885928576 456.822786502732 4.25
    vertex -15.4544661798077 451.044935194558 7.0
    vertex -18.0562885928576 456.822786502732 2.75
  endloop
endfacet
facet normal 0.911815803589643 0.410599488947775 -2.4502340342592e-016
  outer loop
    vertex -21.2593290466904 463.935759080526 7.0
    vertex -18.0562885928576 456.822786502732 4.25
    vertex -19.3544661798077 459.705641624351 5.0
  endloop
endfacet
facet normal 0.911815803589643 0.410599488947775 -2.4502340342592e-016
  outer loop
    vertex -21.2593290466904 463.935759080526 7.0
    vertex -19.3544661798077 459.705641624351 5.0
    vertex -20.6535042854844 462.590407694705 4.25
  endloop
endfacet
facet normal 0.911815803589643 0.410599488947775 -2.4502340342592e-016
  outer loop
    vertex -21.2593290466904 463.935759080526 7.0
    vertex -20.6535042854844 462.590407694705 4.25
    vertex -21.2593290466904 463.935759080526 -7.04991620636974e-016
  endloop
endfacet
facet normal 0.866025403784441 0.499999999999997 0.0
  outer loop
    vertex -35.0506186025143 462.479445910879 0.0
    vertex -34.097106866927 461.23680522376 2.0
    vertex -34.097106866927 461.23680522376 0.0
  endloop
endfacet
facet normal 0.707106781186542 0.707106781186553 0.0
  outer loop
    vertex -34.097106866927 461.23680522376 2.0
    vertex -35.0506186025143 462.479445910879 0.0
    vertex -35.0506186025143 462.479445910879 2.0
  endloop
endfacet
facet normal 0.258819045102526 0.965925826289067 0.0
  outer loop
    vertex -31.4073804504228 459.683890953145 2.0
    vertex -29.8544661798077 459.479445910879 0.0
    vertex -31.4073804504228 459.683890953145 0.0
  endloop
endfacet
facet normal 4.81199934364932e-016 1.0 0.0
  outer loop
    vertex -29.8544661798077 459.479445910879 0.0
    vertex -31.4073804504228 459.683890953145 2.0
    vertex -29.8544661798077 459.479445910879 2.0
  endloop
endfacet
facet normal 4.81199934364932e-016 1.0 0.0
  outer loop
    vertex -29.8544661798077 459.479445910879 2.0
    vertex -28.3015519091926 459.683890953145 0.0
    vertex -29.8544661798077 459.479445910879 0.0
  endloop
endfacet
facet normal -0.258819045102527 0.965925826289067 0.0
  outer loop
    vertex -28.3015519091926 459.683890953145 0.0
    vertex -29.8544661798077 459.479445910879 2.0
    vertex -28.3015519091926 459.683890953145 2.0
  endloop
endfacet
facet normal -0.258819045102527 0.965925826289067 0.0
  outer loop
    vertex -28.3015519091926 459.683890953145 2.0
    vertex -26.8544661798077 460.283293488173 0.0
    vertex -28.3015519091926 459.683890953145 0.0
  endloop
endfacet
facet normal -0.500000000000001 0.866025403784438 0.0
  outer loop
    vertex -26.8544661798077 460.283293488173 0.0
    vertex -28.3015519091926 459.683890953145 2.0
    vertex -26.8544661798077 460.283293488173 2.0
  endloop
endfacet
facet normal 0.923879532511288 0.382683432365086 0.0
  outer loop
    vertex -35.4356084201783 463.408893550059 0.0
    vertex -35.0506186025143 462.479445910879 2.0
    vertex -35.0506186025143 462.479445910879 0.0
  endloop
endfacet
facet normal 0.866025403784441 0.499999999999997 0.0
  outer loop
    vertex -35.0506186025143 462.479445910879 2.0
    vertex -35.4356084201783 463.408893550059 0.0
    vertex -35.4356084201783 463.408893550059 2.0
  endloop
endfacet
facet normal 0.70710678118655 0.707106781186545 -3.22919079568204e-018
  outer loop
    vertex -35.5113204293001 459.822591661387 7.0
    vertex -33.8544661798077 458.551242680604 2.0
    vertex -35.5113204293001 459.822591661387 2.0
  endloop
endfacet
facet normal 0.499999999999995 0.866025403784442 -3.46636499562088e-018
  outer loop
    vertex -33.8544661798077 458.551242680604 2.0
    vertex -35.5113204293001 459.822591661387 7.0
    vertex -33.8544661798077 458.551242680604 7.0
  endloop
endfacet
facet normal 0.499999999999999 0.866025403784439 0.0
  outer loop
    vertex -32.8544661798077 460.283293488173 2.0
    vertex -31.4073804504228 459.683890953145 0.0
    vertex -32.8544661798077 460.283293488173 0.0
  endloop
endfacet
facet normal 0.258819045102526 0.965925826289067 0.0
  outer loop
    vertex -31.4073804504228 459.683890953145 0.0
    vertex -32.8544661798077 460.283293488173 2.0
    vertex -31.4073804504228 459.683890953145 2.0
  endloop
endfacet
facet normal 0.0 1.0 1.22337077472066e-030
  outer loop
    vertex -29.8544661798077 457.479445910879 7.0
    vertex -27.7839138189876 457.752039300567 2.0
    vertex -29.8544661798077 457.479445910879 2.0
  endloop
endfacet
facet normal -0.258819045102517 0.965925826289069 -2.01041015369481e-018
  outer loop
    vertex -27.7839138189876 457.752039300567 2.0
    vertex -29.8544661798077 457.479445910879 7.0
    vertex -27.7839138189876 457.752039300567 7.0
  endloop
endfacet
facet normal -0.500000000000002 0.866025403784437 -1.9156196638485e-018
  outer loop
    vertex -25.8544661798077 458.551242680604 7.0
    vertex -24.1976119303153 459.822591661387 2.0
    vertex -25.8544661798077 458.551242680604 2.0
  endloop
endfacet
facet normal -0.707106781186551 0.707106781186544 -5.00897032547409e-019
  outer loop
    vertex -24.1976119303153 459.822591661387 2.0
    vertex -25.8544661798077 458.551242680604 7.0
    vertex -24.1976119303153 459.822591661387 7.0
  endloop
endfacet
facet normal -1.0 0.0 0.0
  outer loop
    vertex -39.055428074131 462.590407694705 4.25
    vertex -39.055428074131 451.044935194558 2.75
    vertex -39.055428074131 451.044935194558 4.25
  endloop
endfacet
facet normal -1.0 0.0 0.0
  outer loop
    vertex -39.055428074131 451.044935194558 2.75
    vertex -39.055428074131 462.590407694705 4.25
    vertex -39.055428074131 462.590407694705 2.75
  endloop
endfacet
facet normal 0.499999999999995 0.866025403784442 -3.46636499562088e-018
  outer loop
    vertex -33.8544661798077 458.551242680604 7.0
    vertex -31.9250185406279 457.752039300567 2.0
    vertex -33.8544661798077 458.551242680604 2.0
  endloop
endfacet
facet normal 0.258819045102517 0.965925826289069 2.01041015369604e-018
  outer loop
    vertex -31.9250185406279 457.752039300567 2.0
    vertex -33.8544661798077 458.551242680604 7.0
    vertex -31.9250185406279 457.752039300567 7.0
  endloop
endfacet
facet normal 0.0 1.0 0.0
  outer loop
    vertex -24.2733239394372 463.408893550059 2.0
    vertex -22.1270595694952 463.408893550059 0.0
    vertex -24.2733239394372 463.408893550059 0.0
  endloop
endfacet
facet normal 0.0 1.0 0.0
  outer loop
    vertex -22.1270595694952 463.408893550059 0.0
    vertex -24.2733239394372 463.408893550059 2.0
    vertex -22.1270595694952 463.408893550059 2.0
  endloop
endfacet
facet normal -0.499999999999999 -1.59765115099422e-019 0.866025403784439
  outer loop
    vertex -39.055428074131 451.044935194558 2.75
    vertex -40.3544661798077 459.705641624351 2.0
    vertex -40.3544661798077 451.044935194558 2.0
  endloop
endfacet
facet normal -0.499999999999999 -1.59765115099422e-019 0.866025403784439
  outer loop
    vertex -40.3544661798077 459.705641624351 2.0
    vertex -39.055428074131 451.044935194558 2.75
    vertex -39.055428074131 462.590407694705 2.75
  endloop
endfacet
facet normal 0.0 0.0 1.0
  outer loop
    vertex -36.7826694100832 461.479445910879 2.0
    vertex -35.4356084201783 463.408893550059 2.0
    vertex -37.5818727901203 463.408893550059 2.0
  endloop
endfacet
facet normal 0.0 0.0 1.0
  outer loop
    vertex -35.4356084201783 463.408893550059 2.0
    vertex -36.7826694100832 461.479445910879 2.0
    vertex -35.5113204293001 459.822591661387 2.0
  endloop
endfacet
facet normal 0.0 0.0 1.0
  outer loop
    vertex -35.4356084201783 463.408893550059 2.0
    vertex -35.5113204293001 459.822591661387 2.0
    vertex -33.8544661798077 458.551242680604 2.0
  endloop
endfacet
facet normal 0.0 0.0 1.0
  outer loop
    vertex -35.4356084201783 463.408893550059 2.0
    vertex -33.8544661798077 458.551242680604 2.0
    vertex -35.0506186025143 462.479445910879 2.0
  endloop
endfacet
facet normal 0.0 0.0 1.0
  outer loop
    vertex -35.0506186025143 462.479445910879 2.0
    vertex -33.8544661798077 458.551242680604 2.0
    vertex -34.097106866927 461.23680522376 2.0
  endloop
endfacet
facet normal 0.0 0.0 1.0
  outer loop
    vertex -34.097106866927 461.23680522376 2.0
    vertex -33.8544661798077 458.551242680604 2.0
    vertex -32.8544661798077 460.283293488173 2.0
  endloop
endfacet
facet normal 0.0 0.0 1.0
  outer loop
    vertex -32.8544661798077 460.283293488173 2.0
    vertex -33.8544661798077 458.551242680604 2.0
    vertex -31.9250185406279 457.752039300567 2.0
  endloop
endfacet
facet normal 0.0 0.0 1.0
  outer loop
    vertex -32.8544661798077 460.283293488173 2.0
    vertex -31.9250185406279 457.752039300567 2.0
    vertex -31.4073804504228 459.683890953145 2.0
  endloop
endfacet
facet normal 0.0 0.0 1.0
  outer loop
    vertex -31.4073804504228 459.683890953145 2.0
    vertex -31.9250185406279 457.752039300567 2.0
    vertex -29.8544661798077 457.479445910879 2.0
  endloop
endfacet
facet normal 0.0 0.0 1.0
  outer loop
    vertex -31.4073804504228 459.683890953145 2.0
    vertex -29.8544661798077 457.479445910879 2.0
    vertex -29.8544661798077 459.479445910879 2.0
  endloop
endfacet
facet normal 0.0 0.0 1.0
  outer loop
    vertex -29.8544661798077 459.479445910879 2.0
    vertex -29.8544661798077 457.479445910879 2.0
    vertex -27.7839138189876 457.752039300567 2.0
  endloop
endfacet
facet normal 0.0 0.0 1.0
  outer loop
    vertex -29.8544661798077 459.479445910879 2.0
    vertex -27.7839138189876 457.752039300567 2.0
    vertex -28.3015519091926 459.683890953145 2.0
  endloop
endfacet
facet normal 0.0 0.0 1.0
  outer loop
    vertex -28.3015519091926 459.683890953145 2.0
    vertex -27.7839138189876 457.752039300567 2.0
    vertex -26.8544661798077 460.283293488173 2.0
  endloop
endfacet
facet normal 0.0 0.0 1.0
  outer loop
    vertex -26.8544661798077 460.283293488173 2.0
    vertex -27.7839138189876 457.752039300567 2.0
    vertex -25.8544661798077 458.551242680604 2.0
  endloop
endfacet
facet normal 0.0 0.0 1.0
  outer loop
    vertex -26.8544661798077 460.283293488173 2.0
    vertex -25.8544661798077 458.551242680604 2.0
    vertex -25.6118254926884 461.23680522376 2.0
  endloop
endfacet
facet normal 0.0 0.0 1.0
  outer loop
    vertex -25.6118254926884 461.23680522376 2.0
    vertex -25.8544661798077 458.551242680604 2.0
    vertex -24.1976119303153 459.822591661387 2.0
  endloop
endfacet
facet normal 0.0 0.0 1.0
  outer loop
    vertex -25.6118254926884 461.23680522376 2.0
    vertex -24.1976119303153 459.822591661387 2.0
    vertex -24.6583137571011 462.479445910879 2.0
  endloop
endfacet
facet normal 0.0 0.0 1.0
  outer loop
    vertex -24.6583137571011 462.479445910879 2.0
    vertex -24.1976119303153 459.822591661387 2.0
    vertex -24.2733239394372 463.408893550059 2.0
  endloop
endfacet
facet normal 0.0 0.0 1.0
  outer loop
    vertex -24.2733239394372 463.408893550059 2.0
    vertex -24.1976119303153 459.822591661387 2.0
    vertex -22.1270595694952 463.408893550059 2.0
  endloop
endfacet
facet normal 0.0 0.0 1.0
  outer loop
    vertex -22.1270595694952 463.408893550059 2.0
    vertex -24.1976119303153 459.822591661387 2.0
    vertex -22.9262629495322 461.479445910879 2.0
  endloop
endfacet
facet normal -0.258819045102517 0.965925826289069 -2.01041015369481e-018
  outer loop
    vertex -27.7839138189876 457.752039300567 7.0
    vertex -25.8544661798077 458.551242680604 2.0
    vertex -27.7839138189876 457.752039300567 2.0
  endloop
endfacet
facet normal -0.500000000000002 0.866025403784437 -1.9156196638485e-018
  outer loop
    vertex -25.8544661798077 458.551242680604 2.0
    vertex -27.7839138189876 457.752039300567 7.0
    vertex -25.8544661798077 458.551242680604 7.0
  endloop
endfacet
facet normal 0.707106781186542 0.707106781186553 0.0
  outer loop
    vertex -34.097106866927 461.23680522376 2.0
    vertex -32.8544661798077 460.283293488173 0.0
    vertex -34.097106866927 461.23680522376 0.0
  endloop
endfacet
facet normal 0.499999999999999 0.866025403784439 0.0
  outer loop
    vertex -32.8544661798077 460.283293488173 0.0
    vertex -34.097106866927 461.23680522376 2.0
    vertex -32.8544661798077 460.283293488173 2.0
  endloop
endfacet
facet normal 0.0 -1.0 0.0
  outer loop
    vertex -15.4544661798077 451.044935194558 0.0
    vertex -19.3544661798077 451.044935194558 2.0
    vertex -44.2544661798077 451.044935194558 0.0
  endloop
endfacet
facet normal 0.0 -1.0 0.0
  outer loop
    vertex -19.3544661798077 451.044935194558 2.0
    vertex -15.4544661798077 451.044935194558 0.0
    vertex -18.0554280741311 451.044935194558 2.75
  endloop
endfacet
facet normal 0.0 -1.0 0.0
  outer loop
    vertex -18.0554280741311 451.044935194558 2.75
    vertex -15.4544661798077 451.044935194558 0.0
    vertex -15.4544661798077 451.044935194558 7.0
  endloop
endfacet
facet normal 0.0 -1.0 0.0
  outer loop
    vertex -18.0554280741311 451.044935194558 2.75
    vertex -15.4544661798077 451.044935194558 7.0
    vertex -18.0554280741311 451.044935194558 4.25
  endloop
endfacet
facet normal 0.0 -1.0 0.0
  outer loop
    vertex -18.0554280741311 451.044935194558 4.25
    vertex -15.4544661798077 451.044935194558 7.0
    vertex -19.3544661798077 451.044935194558 5.0
  endloop
endfacet
facet normal 0.0 -1.0 0.0
  outer loop
    vertex -19.3544661798077 451.044935194558 5.0
    vertex -15.4544661798077 451.044935194558 7.0
    vertex -40.3544661798077 451.044935194558 5.0
  endloop
endfacet
facet normal 0.0 -1.0 0.0
  outer loop
    vertex -44.2544661798077 451.044935194558 0.0
    vertex -41.6535042854844 451.044935194558 2.75
    vertex -44.2544661798077 451.044935194558 7.0
  endloop
endfacet
facet normal 0.0 -1.0 0.0
  outer loop
    vertex -41.6535042854844 451.044935194558 2.75
    vertex -44.2544661798077 451.044935194558 0.0
    vertex -40.3544661798077 451.044935194558 2.0
  endloop
endfacet
facet normal 0.0 -1.0 0.0
  outer loop
    vertex -40.3544661798077 451.044935194558 2.0
    vertex -44.2544661798077 451.044935194558 0.0
    vertex -19.3544661798077 451.044935194558 2.0
  endloop
endfacet
facet normal 0.0 -1.0 0.0
  outer loop
    vertex -44.2544661798077 451.044935194558 7.0
    vertex -41.6535042854844 451.044935194558 2.75
    vertex -41.6535042854844 451.044935194558 4.25
  endloop
endfacet
facet normal 0.0 -1.0 0.0
  outer loop
    vertex -44.2544661798077 451.044935194558 7.0
    vertex -41.6535042854844 451.044935194558 4.25
    vertex -40.3544661798077 451.044935194558 5.0
  endloop
endfacet
facet normal 0.0 -1.0 0.0
  outer loop
    vertex -44.2544661798077 451.044935194558 7.0
    vertex -40.3544661798077 451.044935194558 5.0
    vertex -15.4544661798077 451.044935194558 7.0
  endloop
endfacet
facet normal 0.0 -1.0 0.0
  outer loop
    vertex -20.6535042854844 451.044935194558 2.75
    vertex -40.3544661798077 451.044935194558 2.0
    vertex -19.3544661798077 451.044935194558 2.0
  endloop
endfacet
facet normal 0.0 -1.0 0.0
  outer loop
    vertex -40.3544661798077 451.044935194558 2.0
    vertex -20.6535042854844 451.044935194558 2.75
    vertex -39.055428074131 451.044935194558 2.75
  endloop
endfacet
facet normal 0.0 -1.0 0.0
  outer loop
    vertex -39.055428074131 451.044935194558 2.75
    vertex -20.6535042854844 451.044935194558 2.75
    vertex -20.6535042854844 451.044935194558 4.25
  endloop
endfacet
facet normal 0.0 -1.0 0.0
  outer loop
    vertex -39.055428074131 451.044935194558 2.75
    vertex -20.6535042854844 451.044935194558 4.25
    vertex -39.055428074131 451.044935194558 4.25
  endloop
endfacet
facet normal 0.0 -1.0 0.0
  outer loop
    vertex -39.055428074131 451.044935194558 4.25
    vertex -20.6535042854844 451.044935194558 4.25
    vertex -19.3544661798077 451.044935194558 5.0
  endloop
endfacet
facet normal 0.0 -1.0 0.0
  outer loop
    vertex -39.055428074131 451.044935194558 4.25
    vertex -19.3544661798077 451.044935194558 5.0
    vertex -40.3544661798077 451.044935194558 5.0
  endloop
endfacet
facet normal -0.923879532511285 0.382683432365095 4.33139263835069e-018
  outer loop
    vertex -22.1270595694952 463.408893550059 7.0
    vertex -22.9262629495322 461.479445910879 2.0
    vertex -22.9262629495322 461.479445910879 7.0
  endloop
endfacet
facet normal -0.866025403784436 0.500000000000004 1.9339355110677e-018
  outer loop
    vertex -22.9262629495322 461.479445910879 2.0
    vertex -22.1270595694952 463.408893550059 7.0
    vertex -22.1270595694952 463.408893550059 2.0
  endloop
endfacet
facet normal -0.866025403784436 0.500000000000004 1.9339355110677e-018
  outer loop
    vertex -22.9262629495322 461.479445910879 7.0
    vertex -24.1976119303153 459.822591661387 2.0
    vertex -24.1976119303153 459.822591661387 7.0
  endloop
endfacet
facet normal -0.707106781186551 0.707106781186544 -5.00897032547409e-019
  outer loop
    vertex -24.1976119303153 459.822591661387 2.0
    vertex -22.9262629495322 461.479445910879 7.0
    vertex -22.9262629495322 461.479445910879 2.0
  endloop
endfacet
facet normal -0.518999108839517 0.854774780292322 -8.25571154807807e-019
  outer loop
    vertex -22.1270595694952 463.408893550059 0.0
    vertex -21.2593290466904 463.935759080526 7.0
    vertex -21.2593290466904 463.935759080526 -7.04991620636974e-016
  endloop
endfacet
facet normal -0.518999108839517 0.854774780292322 -8.25571154807807e-019
  outer loop
    vertex -21.2593290466904 463.935759080526 7.0
    vertex -22.1270595694952 463.408893550059 0.0
    vertex -22.1270595694952 463.408893550059 2.0
  endloop
endfacet
facet normal -0.518999108839517 0.854774780292322 -8.25571154807807e-019
  outer loop
    vertex -21.2593290466904 463.935759080526 7.0
    vertex -22.1270595694952 463.408893550059 2.0
    vertex -22.1270595694952 463.408893550059 7.0
  endloop
endfacet
facet normal 0.258819045102517 0.965925826289069 2.01041015369604e-018
  outer loop
    vertex -31.9250185406279 457.752039300567 7.0
    vertex -29.8544661798077 457.479445910879 2.0
    vertex -31.9250185406279 457.752039300567 2.0
  endloop
endfacet
facet normal 0.0 1.0 1.22337077472066e-030
  outer loop
    vertex -29.8544661798077 457.479445910879 2.0
    vertex -31.9250185406279 457.752039300567 7.0
    vertex -29.8544661798077 457.479445910879 7.0
  endloop
endfacet
facet normal -0.500000000000001 0.866025403784438 0.0
  outer loop
    vertex -26.8544661798077 460.283293488173 2.0
    vertex -25.6118254926884 461.23680522376 0.0
    vertex -26.8544661798077 460.283293488173 0.0
  endloop
endfacet
facet normal -0.707106781186542 0.707106781186553 0.0
  outer loop
    vertex -25.6118254926884 461.23680522376 0.0
    vertex -26.8544661798077 460.283293488173 2.0
    vertex -25.6118254926884 461.23680522376 2.0
  endloop
endfacet
facet normal 0.0 1.0 0.0
  outer loop
    vertex -37.5818727901203 463.408893550059 2.0
    vertex -35.4356084201783 463.408893550059 0.0
    vertex -37.5818727901203 463.408893550059 0.0
  endloop
endfacet
facet normal 0.0 1.0 0.0
  outer loop
    vertex -35.4356084201783 463.408893550059 0.0
    vertex -37.5818727901203 463.408893550059 2.0
    vertex -35.4356084201783 463.408893550059 2.0
  endloop
endfacet
endsolid kossel1515-effector-blank
