solid switch-box
facet normal 0.500000000000006 0.866025403784435 0.0
  outer loop
    vertex 87.7391236185802 -109.194586320509 3.0
    vertex 88.2214855283752 -109.394387165519 -5.63993296509579e-015
    vertex 87.7391236185802 -109.194586320509 -5.63993296509579e-015
  endloop
endfacet
facet normal 0.258819045102525 0.965925826289067 0.0
  outer loop
    vertex 88.2214855283752 -109.394387165519 -5.63993296509579e-015
    vertex 87.7391236185802 -109.194586320509 3.0
    vertex 88.2214855283752 -109.394387165519 3.0
  endloop
endfacet
facet normal 0.866025403784438 0.500000000000001 0.0
  outer loop
    vertex 87.0070728110114 -108.46253551294 -5.63993296509579e-015
    vertex 87.3249100562072 -108.876749075314 3.0
    vertex 87.3249100562072 -108.876749075314 -5.63993296509579e-015
  endloop
endfacet
facet normal 0.70710678118654 0.707106781186555 0.0
  outer loop
    vertex 87.3249100562072 -108.876749075314 3.0
    vertex 87.0070728110114 -108.46253551294 -5.63993296509579e-015
    vertex 87.0070728110114 -108.46253551294 3.0
  endloop
endfacet
facet normal -0.866025403784438 0.500000000000001 0.0
  outer loop
    vertex 90.4711744261491 -108.46253551294 3.0
    vertex 90.1533371809533 -108.876749075314 -5.63993296509579e-015
    vertex 90.1533371809533 -108.876749075314 3.0
  endloop
endfacet
facet normal -0.70710678118654 0.707106781186555 0.0
  outer loop
    vertex 90.1533371809533 -108.876749075314 -5.63993296509579e-015
    vertex 90.4711744261491 -108.46253551294 3.0
    vertex 90.4711744261491 -108.46253551294 -5.63993296509579e-015
  endloop
endfacet
facet normal -1.9987619495936e-014 1.0 0.0
  outer loop
    vertex 88.7391236185802 -109.46253551294 3.0
    vertex 89.2567617087853 -109.394387165519 -5.63993296509579e-015
    vertex 88.7391236185802 -109.46253551294 -5.63993296509579e-015
  endloop
endfacet
facet normal -0.258819045102529 0.965925826289066 0.0
  outer loop
    vertex 89.2567617087853 -109.394387165519 -5.63993296509579e-015
    vertex 88.7391236185802 -109.46253551294 3.0
    vertex 89.2567617087853 -109.394387165519 3.0
  endloop
endfacet
facet normal -0.499999999999992 0.866025403784443 0.0
  outer loop
    vertex 89.7391236185802 -109.194586320509 3.0
    vertex 90.1533371809533 -108.876749075314 -5.63993296509579e-015
    vertex 89.7391236185802 -109.194586320509 -5.63993296509579e-015
  endloop
endfacet
facet normal -0.70710678118654 0.707106781186555 0.0
  outer loop
    vertex 90.1533371809533 -108.876749075314 -5.63993296509579e-015
    vertex 89.7391236185802 -109.194586320509 3.0
    vertex 90.1533371809533 -108.876749075314 3.0
  endloop
endfacet
facet normal -0.258819045102529 0.965925826289066 0.0
  outer loop
    vertex 89.2567617087853 -109.394387165519 3.0
    vertex 89.7391236185802 -109.194586320509 -5.63993296509579e-015
    vertex 89.2567617087853 -109.394387165519 -5.63993296509579e-015
  endloop
endfacet
facet normal -0.499999999999992 0.866025403784443 0.0
  outer loop
    vertex 89.7391236185802 -109.194586320509 -5.63993296509579e-015
    vertex 89.2567617087853 -109.394387165519 3.0
    vertex 89.7391236185802 -109.194586320509 3.0
  endloop
endfacet
facet normal -0.965925826289069 0.258819045102518 0.0
  outer loop
    vertex 90.6709752711584 -107.980173603146 3.0
    vertex 90.4711744261491 -108.46253551294 -5.63993296509579e-015
    vertex 90.4711744261491 -108.46253551294 3.0
  endloop
endfacet
facet normal -0.866025403784438 0.500000000000001 0.0
  outer loop
    vertex 90.4711744261491 -108.46253551294 -5.63993296509579e-015
    vertex 90.6709752711584 -107.980173603146 3.0
    vertex 90.6709752711584 -107.980173603146 -5.63993296509579e-015
  endloop
endfacet
facet normal 0.258819045102525 0.965925826289067 0.0
  outer loop
    vertex 88.2214855283752 -109.394387165519 3.0
    vertex 88.7391236185802 -109.46253551294 -5.63993296509579e-015
    vertex 88.2214855283752 -109.394387165519 -5.63993296509579e-015
  endloop
endfacet
facet normal -1.9987619495936e-014 1.0 0.0
  outer loop
    vertex 88.7391236185802 -109.46253551294 -5.63993296509579e-015
    vertex 88.2214855283752 -109.394387165519 3.0
    vertex 88.7391236185802 -109.46253551294 3.0
  endloop
endfacet
facet normal 0.70710678118654 0.707106781186555 0.0
  outer loop
    vertex 87.3249100562072 -108.876749075314 3.0
    vertex 87.7391236185802 -109.194586320509 -5.63993296509579e-015
    vertex 87.3249100562072 -108.876749075314 -5.63993296509579e-015
  endloop
endfacet
facet normal 0.500000000000006 0.866025403784435 0.0
  outer loop
    vertex 87.7391236185802 -109.194586320509 -5.63993296509579e-015
    vertex 87.3249100562072 -108.876749075314 3.0
    vertex 87.7391236185802 -109.194586320509 3.0
  endloop
endfacet
facet normal -0.707731052183941 -0.706481958562717 0.0
  outer loop
    vertex 82.3417733452564 -113.462537853293 3.0
    vertex 83.8391236185802 -114.96253551294 0.0
    vertex 83.8391236185802 -114.96253551294 3.0
  endloop
endfacet
facet normal -0.707731052183941 -0.706481958562717 0.0
  outer loop
    vertex 83.8391236185802 -114.96253551294 0.0
    vertex 82.3417733452564 -113.462537853293 3.0
    vertex 82.3417733452564 -113.462537853293 0.0
  endloop
endfacet
facet normal 0.707731052183941 -0.706481958562717 0.0
  outer loop
    vertex 95.1364738919041 -113.462537853293 0.0
    vertex 93.6391236185802 -114.96253551294 3.0
    vertex 93.6391236185802 -114.96253551294 0.0
  endloop
endfacet
facet normal 0.707731052183941 -0.706481958562717 0.0
  outer loop
    vertex 93.6391236185802 -114.96253551294 3.0
    vertex 95.1364738919041 -113.462537853293 0.0
    vertex 95.1364738919041 -113.462537853293 3.0
  endloop
endfacet
facet normal -0.999999306560835 9.38334868605938e-016 0.00117765778066509
  outer loop
    vertex 82.3523722726321 -107.46253551294 3.0
    vertex 82.3417733452564 -113.462537853293 0.0
    vertex 82.3417733452564 -113.462537853293 3.0
  endloop
endfacet
facet normal -0.999999306560835 9.38334868605938e-016 0.00117765778066509
  outer loop
    vertex 82.3417733452564 -113.462537853293 0.0
    vertex 82.3523722726321 -107.46253551294 3.0
    vertex 82.3417733452564 -101.462533172588 1.76247905159244e-016
  endloop
endfacet
facet normal -0.999999306560835 9.38334868605938e-016 0.00117765778066509
  outer loop
    vertex 82.3417733452564 -101.462533172588 1.76247905159244e-016
    vertex 82.3523722726321 -107.46253551294 3.0
    vertex 82.3417733452564 -101.462533172588 3.0
  endloop
endfacet
facet normal 0.0 0.0 1.0
  outer loop
    vertex 86.9891236185802 -110.493624426186 3.0
    vertex 86.7391236185802 -107.46253551294 3.0
    vertex 85.2391236185802 -107.46253551294 3.0
  endloop
endfacet
facet normal 0.0 0.0 1.0
  outer loop
    vertex 86.7391236185802 -107.46253551294 3.0
    vertex 86.9891236185802 -110.493624426186 3.0
    vertex 86.8072719660021 -107.980173603146 3.0
  endloop
endfacet
facet normal 0.0 0.0 1.0
  outer loop
    vertex 86.8072719660021 -107.980173603146 3.0
    vertex 86.9891236185802 -110.493624426186 3.0
    vertex 87.0070728110114 -108.46253551294 3.0
  endloop
endfacet
facet normal 0.0 0.0 1.0
  outer loop
    vertex 87.0070728110114 -108.46253551294 3.0
    vertex 86.9891236185802 -110.493624426186 3.0
    vertex 87.3249100562072 -108.876749075314 3.0
  endloop
endfacet
facet normal 0.0 0.0 1.0
  outer loop
    vertex 87.3249100562072 -108.876749075314 3.0
    vertex 86.9891236185802 -110.493624426186 3.0
    vertex 87.7391236185802 -109.194586320509 3.0
  endloop
endfacet
facet normal 0.0 0.0 1.0
  outer loop
    vertex 87.7391236185802 -109.194586320509 3.0
    vertex 86.9891236185802 -110.493624426186 3.0
    vertex 90.4891236185803 -110.493624426186 3.0
  endloop
endfacet
facet normal 0.0 0.0 1.0
  outer loop
    vertex 87.7391236185802 -109.194586320509 3.0
    vertex 90.4891236185803 -110.493624426186 3.0
    vertex 88.2214855283752 -109.394387165519 3.0
  endloop
endfacet
facet normal 0.0 0.0 1.0
  outer loop
    vertex 88.2214855283752 -109.394387165519 3.0
    vertex 90.4891236185803 -110.493624426186 3.0
    vertex 88.7391236185802 -109.46253551294 3.0
  endloop
endfacet
facet normal 0.0 0.0 1.0
  outer loop
    vertex 88.7391236185802 -109.46253551294 3.0
    vertex 90.4891236185803 -110.493624426186 3.0
    vertex 89.2567617087853 -109.394387165519 3.0
  endloop
endfacet
facet normal 0.0 0.0 1.0
  outer loop
    vertex 89.2567617087853 -109.394387165519 3.0
    vertex 90.4891236185803 -110.493624426186 3.0
    vertex 89.7391236185802 -109.194586320509 3.0
  endloop
endfacet
facet normal 0.0 0.0 1.0
  outer loop
    vertex 89.7391236185802 -109.194586320509 3.0
    vertex 90.4891236185803 -110.493624426186 3.0
    vertex 90.1533371809533 -108.876749075314 3.0
  endloop
endfacet
facet normal 0.0 0.0 1.0
  outer loop
    vertex 90.1533371809533 -108.876749075314 3.0
    vertex 90.4891236185803 -110.493624426186 3.0
    vertex 90.4711744261491 -108.46253551294 3.0
  endloop
endfacet
facet normal 0.0 0.0 1.0
  outer loop
    vertex 90.4711744261491 -108.46253551294 3.0
    vertex 90.4891236185803 -110.493624426186 3.0
    vertex 90.6709752711584 -107.980173603146 3.0
  endloop
endfacet
facet normal 0.0 0.0 1.0
  outer loop
    vertex 90.6709752711584 -107.980173603146 3.0
    vertex 90.4891236185803 -110.493624426186 3.0
    vertex 92.2391236185803 -107.46253551294 3.0
  endloop
endfacet
facet normal 0.0 0.0 1.0
  outer loop
    vertex 90.6709752711584 -107.980173603146 3.0
    vertex 92.2391236185803 -107.46253551294 3.0
    vertex 90.7391236185802 -107.46253551294 3.0
  endloop
endfacet
facet normal 0.0 0.0 1.0
  outer loop
    vertex 86.7391236185802 -107.46253551294 3.0
    vertex 86.9891236185802 -104.431446599695 3.0
    vertex 85.2391236185802 -107.46253551294 3.0
  endloop
endfacet
facet normal 0.0 0.0 1.0
  outer loop
    vertex 86.9891236185802 -104.431446599695 3.0
    vertex 86.7391236185802 -107.46253551294 3.0
    vertex 86.8072719660021 -106.944897422735 3.0
  endloop
endfacet
facet normal 0.0 0.0 1.0
  outer loop
    vertex 86.9891236185802 -104.431446599695 3.0
    vertex 86.8072719660021 -106.944897422735 3.0
    vertex 87.0070728110114 -106.46253551294 3.0
  endloop
endfacet
facet normal 0.0 0.0 1.0
  outer loop
    vertex 86.9891236185802 -104.431446599695 3.0
    vertex 87.0070728110114 -106.46253551294 3.0
    vertex 87.3249100562072 -106.048321950567 3.0
  endloop
endfacet
facet normal 0.0 0.0 1.0
  outer loop
    vertex 86.9891236185802 -104.431446599695 3.0
    vertex 87.3249100562072 -106.048321950567 3.0
    vertex 87.7391236185802 -105.730484705372 3.0
  endloop
endfacet
facet normal 0.0 0.0 1.0
  outer loop
    vertex 86.9891236185802 -104.431446599695 3.0
    vertex 87.7391236185802 -105.730484705372 3.0
    vertex 90.4891236185802 -104.431446599695 3.0
  endloop
endfacet
facet normal 0.0 0.0 1.0
  outer loop
    vertex 90.4891236185802 -104.431446599695 3.0
    vertex 87.7391236185802 -105.730484705372 3.0
    vertex 88.2214855283752 -105.530683860362 3.0
  endloop
endfacet
facet normal 0.0 0.0 1.0
  outer loop
    vertex 90.4891236185802 -104.431446599695 3.0
    vertex 88.2214855283752 -105.530683860362 3.0
    vertex 88.7391236185802 -105.46253551294 3.0
  endloop
endfacet
facet normal 0.0 0.0 1.0
  outer loop
    vertex 90.4891236185802 -104.431446599695 3.0
    vertex 88.7391236185802 -105.46253551294 3.0
    vertex 89.2567617087853 -105.530683860362 3.0
  endloop
endfacet
facet normal 0.0 0.0 1.0
  outer loop
    vertex 90.4891236185802 -104.431446599695 3.0
    vertex 89.2567617087853 -105.530683860362 3.0
    vertex 89.7391236185802 -105.730484705372 3.0
  endloop
endfacet
facet normal 0.0 0.0 1.0
  outer loop
    vertex 90.4891236185802 -104.431446599695 3.0
    vertex 89.7391236185802 -105.730484705372 3.0
    vertex 90.1533371809533 -106.048321950567 3.0
  endloop
endfacet
facet normal 0.0 0.0 1.0
  outer loop
    vertex 90.4891236185802 -104.431446599695 3.0
    vertex 90.1533371809533 -106.048321950567 3.0
    vertex 90.4711744261491 -106.46253551294 3.0
  endloop
endfacet
facet normal 0.0 0.0 1.0
  outer loop
    vertex 90.4891236185802 -104.431446599695 3.0
    vertex 90.4711744261491 -106.46253551294 3.0
    vertex 90.6709752711584 -106.944897422735 3.0
  endloop
endfacet
facet normal 0.0 0.0 1.0
  outer loop
    vertex 90.4891236185802 -104.431446599695 3.0
    vertex 90.6709752711584 -106.944897422735 3.0
    vertex 92.2391236185803 -107.46253551294 3.0
  endloop
endfacet
facet normal 0.0 0.0 1.0
  outer loop
    vertex 92.2391236185803 -107.46253551294 3.0
    vertex 90.6709752711584 -106.944897422735 3.0
    vertex 90.7391236185802 -107.46253551294 3.0
  endloop
endfacet
facet normal 0.0 1.0 0.0
  outer loop
    vertex 86.9891236185802 -110.493624426186 5.0
    vertex 90.4891236185803 -110.493624426186 3.0
    vertex 86.9891236185802 -110.493624426186 3.0
  endloop
endfacet
facet normal 0.0 1.0 0.0
  outer loop
    vertex 90.4891236185803 -110.493624426186 3.0
    vertex 86.9891236185802 -110.493624426186 5.0
    vertex 90.4891236185803 -110.493624426186 5.0
  endloop
endfacet
facet normal -0.866025403784439 0.499999999999999 0.0
  outer loop
    vertex 92.2391236185803 -107.46253551294 5.0
    vertex 90.4891236185803 -110.493624426186 3.0
    vertex 90.4891236185803 -110.493624426186 5.0
  endloop
endfacet
facet normal -0.866025403784439 0.499999999999999 0.0
  outer loop
    vertex 90.4891236185803 -110.493624426186 3.0
    vertex 92.2391236185803 -107.46253551294 5.0
    vertex 92.2391236185803 -107.46253551294 3.0
  endloop
endfacet
facet normal -1.0 0.0 0.0
  outer loop
    vertex 90.7391236185802 -107.46253551294 3.0
    vertex 90.6709752711584 -107.980173603146 -5.63993296509579e-015
    vertex 90.6709752711584 -107.980173603146 3.0
  endloop
endfacet
facet normal -0.965925826289069 0.258819045102518 0.0
  outer loop
    vertex 90.6709752711584 -107.980173603146 -5.63993296509579e-015
    vertex 90.7391236185802 -107.46253551294 3.0
    vertex 90.7391236185802 -107.46253551294 -5.63993296509579e-015
  endloop
endfacet
facet normal -0.965925826289069 -0.258819045102518 0.0
  outer loop
    vertex 90.6709752711584 -106.944897422735 3.0
    vertex 90.7391236185802 -107.46253551294 -5.63993296509579e-015
    vertex 90.7391236185802 -107.46253551294 3.0
  endloop
endfacet
facet normal -1.0 0.0 0.0
  outer loop
    vertex 90.7391236185802 -107.46253551294 -5.63993296509579e-015
    vertex 90.6709752711584 -106.944897422735 3.0
    vertex 90.6709752711584 -106.944897422735 -5.63993296509579e-015
  endloop
endfacet
facet normal -0.866025403784438 -0.500000000000001 -0.0
  outer loop
    vertex 90.4891236185802 -104.431446599695 5.0
    vertex 92.2391236185803 -107.46253551294 3.0
    vertex 92.2391236185803 -107.46253551294 5.0
  endloop
endfacet
facet normal -0.866025403784438 -0.500000000000001 -0.0
  outer loop
    vertex 92.2391236185803 -107.46253551294 3.0
    vertex 90.4891236185802 -104.431446599695 5.0
    vertex 90.4891236185802 -104.431446599695 3.0
  endloop
endfacet
facet normal -0.866025403784438 -0.500000000000001 0.0
  outer loop
    vertex 90.4711744261491 -106.46253551294 3.0
    vertex 90.6709752711584 -106.944897422735 -5.63993296509579e-015
    vertex 90.6709752711584 -106.944897422735 3.0
  endloop
endfacet
facet normal -0.965925826289069 -0.258819045102518 0.0
  outer loop
    vertex 90.6709752711584 -106.944897422735 -5.63993296509579e-015
    vertex 90.4711744261491 -106.46253551294 3.0
    vertex 90.4711744261491 -106.46253551294 -5.63993296509579e-015
  endloop
endfacet
facet normal -0.70710678118654 -0.707106781186555 0.0
  outer loop
    vertex 90.1533371809533 -106.048321950567 3.0
    vertex 90.4711744261491 -106.46253551294 -5.63993296509579e-015
    vertex 90.4711744261491 -106.46253551294 3.0
  endloop
endfacet
facet normal -0.866025403784438 -0.500000000000001 0.0
  outer loop
    vertex 90.4711744261491 -106.46253551294 -5.63993296509579e-015
    vertex 90.1533371809533 -106.048321950567 3.0
    vertex 90.1533371809533 -106.048321950567 -5.63993296509579e-015
  endloop
endfacet
facet normal -0.70710678118654 -0.707106781186555 0.0
  outer loop
    vertex 90.1533371809533 -106.048321950567 3.0
    vertex 89.7391236185802 -105.730484705372 -5.63993296509579e-015
    vertex 90.1533371809533 -106.048321950567 -5.63993296509579e-015
  endloop
endfacet
facet normal -0.500000000000009 -0.866025403784433 0.0
  outer loop
    vertex 89.7391236185802 -105.730484705372 -5.63993296509579e-015
    vertex 90.1533371809533 -106.048321950567 3.0
    vertex 89.7391236185802 -105.730484705372 3.0
  endloop
endfacet
facet normal -0.500000000000009 -0.866025403784433 0.0
  outer loop
    vertex 89.7391236185802 -105.730484705372 3.0
    vertex 89.2567617087853 -105.530683860362 -5.63993296509579e-015
    vertex 89.7391236185802 -105.730484705372 -5.63993296509579e-015
  endloop
endfacet
facet normal -0.258819045102527 -0.965925826289067 0.0
  outer loop
    vertex 89.2567617087853 -105.530683860362 -5.63993296509579e-015
    vertex 89.7391236185802 -105.730484705372 3.0
    vertex 89.2567617087853 -105.530683860362 3.0
  endloop
endfacet
facet normal -0.258819045102527 -0.965925826289067 0.0
  outer loop
    vertex 89.2567617087853 -105.530683860362 3.0
    vertex 88.7391236185802 -105.46253551294 -5.63993296509579e-015
    vertex 89.2567617087853 -105.530683860362 -5.63993296509579e-015
  endloop
endfacet
facet normal 2.14044859693439e-014 -1.0 0.0
  outer loop
    vertex 88.7391236185802 -105.46253551294 -5.63993296509579e-015
    vertex 89.2567617087853 -105.530683860362 3.0
    vertex 88.7391236185802 -105.46253551294 3.0
  endloop
endfacet
facet normal 2.14044859693439e-014 -1.0 0.0
  outer loop
    vertex 88.7391236185802 -105.46253551294 3.0
    vertex 88.2214855283752 -105.530683860362 -5.63993296509579e-015
    vertex 88.7391236185802 -105.46253551294 -5.63993296509579e-015
  endloop
endfacet
facet normal 0.258819045102529 -0.965925826289066 0.0
  outer loop
    vertex 88.2214855283752 -105.530683860362 -5.63993296509579e-015
    vertex 88.7391236185802 -105.46253551294 3.0
    vertex 88.2214855283752 -105.530683860362 3.0
  endloop
endfacet
facet normal 0.258819045102529 -0.965925826289066 0.0
  outer loop
    vertex 88.2214855283752 -105.530683860362 3.0
    vertex 87.7391236185802 -105.730484705372 -5.63993296509579e-015
    vertex 88.2214855283752 -105.530683860362 -5.63993296509579e-015
  endloop
endfacet
facet normal 0.499999999999992 -0.866025403784443 0.0
  outer loop
    vertex 87.7391236185802 -105.730484705372 -5.63993296509579e-015
    vertex 88.2214855283752 -105.530683860362 3.0
    vertex 87.7391236185802 -105.730484705372 3.0
  endloop
endfacet
facet normal 0.499999999999992 -0.866025403784443 0.0
  outer loop
    vertex 87.7391236185802 -105.730484705372 3.0
    vertex 87.3249100562072 -106.048321950567 -5.63993296509579e-015
    vertex 87.7391236185802 -105.730484705372 -5.63993296509579e-015
  endloop
endfacet
facet normal 0.70710678118654 -0.707106781186555 0.0
  outer loop
    vertex 87.3249100562072 -106.048321950567 -5.63993296509579e-015
    vertex 87.7391236185802 -105.730484705372 3.0
    vertex 87.3249100562072 -106.048321950567 3.0
  endloop
endfacet
facet normal 0.70710678118654 -0.707106781186555 0.0
  outer loop
    vertex 87.3249100562072 -106.048321950567 -5.63993296509579e-015
    vertex 87.0070728110114 -106.46253551294 3.0
    vertex 87.0070728110114 -106.46253551294 -5.63993296509579e-015
  endloop
endfacet
facet normal 0.866025403784438 -0.500000000000001 0.0
  outer loop
    vertex 87.0070728110114 -106.46253551294 3.0
    vertex 87.3249100562072 -106.048321950567 -5.63993296509579e-015
    vertex 87.3249100562072 -106.048321950567 3.0
  endloop
endfacet
facet normal 0.866025403784438 -0.500000000000001 0.0
  outer loop
    vertex 87.0070728110114 -106.46253551294 -5.63993296509579e-015
    vertex 86.8072719660021 -106.944897422735 3.0
    vertex 86.8072719660021 -106.944897422735 -5.63993296509579e-015
  endloop
endfacet
facet normal 0.965925826289069 -0.258819045102518 0.0
  outer loop
    vertex 86.8072719660021 -106.944897422735 3.0
    vertex 87.0070728110114 -106.46253551294 -5.63993296509579e-015
    vertex 87.0070728110114 -106.46253551294 3.0
  endloop
endfacet
facet normal 0.965925826289069 -0.258819045102518 0.0
  outer loop
    vertex 86.8072719660021 -106.944897422735 -5.63993296509579e-015
    vertex 86.7391236185802 -107.46253551294 3.0
    vertex 86.7391236185802 -107.46253551294 -5.63993296509579e-015
  endloop
endfacet
facet normal 1.0 0.0 0.0
  outer loop
    vertex 86.7391236185802 -107.46253551294 3.0
    vertex 86.8072719660021 -106.944897422735 -5.63993296509579e-015
    vertex 86.8072719660021 -106.944897422735 3.0
  endloop
endfacet
facet normal 1.0 0.0 0.0
  outer loop
    vertex 86.7391236185802 -107.46253551294 -5.63993296509579e-015
    vertex 86.8072719660021 -107.980173603146 3.0
    vertex 86.8072719660021 -107.980173603146 -5.63993296509579e-015
  endloop
endfacet
facet normal 0.965925826289069 0.258819045102518 0.0
  outer loop
    vertex 86.8072719660021 -107.980173603146 3.0
    vertex 86.7391236185802 -107.46253551294 -5.63993296509579e-015
    vertex 86.7391236185802 -107.46253551294 3.0
  endloop
endfacet
facet normal 0.965925826289069 0.258819045102518 0.0
  outer loop
    vertex 86.8072719660021 -107.980173603146 -5.63993296509579e-015
    vertex 87.0070728110114 -108.46253551294 3.0
    vertex 87.0070728110114 -108.46253551294 -5.63993296509579e-015
  endloop
endfacet
facet normal 0.866025403784438 0.500000000000001 0.0
  outer loop
    vertex 87.0070728110114 -108.46253551294 3.0
    vertex 86.8072719660021 -107.980173603146 -5.63993296509579e-015
    vertex 86.8072719660021 -107.980173603146 3.0
  endloop
endfacet
facet normal 0.0 0.0 1.0
  outer loop
    vertex 95.1258749645284 -107.46253551294 3.0
    vertex 93.6391236185802 -99.9625355129405 3.0
    vertex 91.9324992915543 -101.931446599695 3.0
  endloop
endfacet
facet normal 0.0 0.0 1.0
  outer loop
    vertex 93.6391236185802 -99.9625355129405 3.0
    vertex 95.1258749645284 -107.46253551294 3.0
    vertex 95.1364738919041 -101.462533172588 3.0
  endloop
endfacet
facet normal 0.0 0.0 1.0
  outer loop
    vertex 93.6391236185802 -116.96253551294 3.0
    vertex 83.8391236185802 -114.96253551294 3.0
    vertex 83.8391236185802 -116.96253551294 3.0
  endloop
endfacet
facet normal 0.0 0.0 1.0
  outer loop
    vertex 83.8391236185802 -114.96253551294 3.0
    vertex 93.6391236185802 -116.96253551294 3.0
    vertex 85.5457479456062 -112.993624426186 3.0
  endloop
endfacet
facet normal 0.0 0.0 1.0
  outer loop
    vertex 85.5457479456062 -112.993624426186 3.0
    vertex 93.6391236185802 -116.96253551294 3.0
    vertex 91.9324992915543 -112.993624426186 3.0
  endloop
endfacet
facet normal 0.0 0.0 1.0
  outer loop
    vertex 91.9324992915543 -112.993624426186 3.0
    vertex 93.6391236185802 -116.96253551294 3.0
    vertex 93.6391236185802 -114.96253551294 3.0
  endloop
endfacet
facet normal 0.0 0.0 1.0
  outer loop
    vertex 91.9324992915543 -112.993624426186 3.0
    vertex 93.6391236185802 -114.96253551294 3.0
    vertex 95.1258749645284 -107.46253551294 3.0
  endloop
endfacet
facet normal 0.0 0.0 1.0
  outer loop
    vertex 95.1258749645284 -107.46253551294 3.0
    vertex 93.6391236185802 -114.96253551294 3.0
    vertex 95.1364738919041 -113.462537853293 3.0
  endloop
endfacet
facet normal 0.0 0.0 1.0
  outer loop
    vertex 82.3523722726321 -107.46253551294 3.0
    vertex 83.8391236185802 -99.9625355129405 3.0
    vertex 82.3417733452564 -101.462533172588 3.0
  endloop
endfacet
facet normal 0.0 0.0 1.0
  outer loop
    vertex 83.8391236185802 -99.9625355129405 3.0
    vertex 82.3523722726321 -107.46253551294 3.0
    vertex 85.5457479456062 -101.931446599695 3.0
  endloop
endfacet
facet normal 0.0 0.0 1.0
  outer loop
    vertex 83.8391236185802 -99.9625355129405 3.0
    vertex 85.5457479456062 -101.931446599695 3.0
    vertex 83.8391236185802 -97.9625355129405 3.0
  endloop
endfacet
facet normal 0.0 0.0 1.0
  outer loop
    vertex 83.8391236185802 -97.9625355129405 3.0
    vertex 85.5457479456062 -101.931446599695 3.0
    vertex 93.6391236185802 -97.9625355129405 3.0
  endloop
endfacet
facet normal 0.0 0.0 1.0
  outer loop
    vertex 93.6391236185802 -97.9625355129405 3.0
    vertex 85.5457479456062 -101.931446599695 3.0
    vertex 91.9324992915543 -101.931446599695 3.0
  endloop
endfacet
facet normal 0.0 0.0 1.0
  outer loop
    vertex 93.6391236185802 -97.9625355129405 3.0
    vertex 91.9324992915543 -101.931446599695 3.0
    vertex 93.6391236185802 -99.9625355129405 3.0
  endloop
endfacet
facet normal 0.0 0.0 1.0
  outer loop
    vertex 83.8391236185802 -114.96253551294 3.0
    vertex 82.3523722726321 -107.46253551294 3.0
    vertex 82.3417733452564 -113.462537853293 3.0
  endloop
endfacet
facet normal 0.0 0.0 1.0
  outer loop
    vertex 82.3523722726321 -107.46253551294 3.0
    vertex 83.8391236185802 -114.96253551294 3.0
    vertex 85.5457479456062 -112.993624426186 3.0
  endloop
endfacet
facet normal 0.866025403784439 -0.499999999999999 0.0
  outer loop
    vertex 86.9891236185802 -104.431446599695 3.0
    vertex 85.2391236185802 -107.46253551294 5.0
    vertex 85.2391236185802 -107.46253551294 3.0
  endloop
endfacet
facet normal 0.866025403784439 -0.499999999999999 0.0
  outer loop
    vertex 85.2391236185802 -107.46253551294 5.0
    vertex 86.9891236185802 -104.431446599695 3.0
    vertex 86.9891236185802 -104.431446599695 5.0
  endloop
endfacet
facet normal 0.86602540378444 -0.499999999999998 -1.72170417748644e-030
  outer loop
    vertex 95.1258749645284 -107.46253551294 3.0
    vertex 91.9324992915543 -112.993624426186 5.0
    vertex 91.9324992915543 -112.993624426186 3.0
  endloop
endfacet
facet normal 0.86602540378444 -0.499999999999998 -1.72170417748644e-030
  outer loop
    vertex 91.9324992915543 -112.993624426186 5.0
    vertex 95.1258749645284 -107.46253551294 3.0
    vertex 95.1258749645284 -107.46253551294 5.0
  endloop
endfacet
facet normal 0.0 -1.0 0.0
  outer loop
    vertex 91.9324992915543 -112.993624426186 5.0
    vertex 85.5457479456062 -112.993624426186 3.0
    vertex 91.9324992915543 -112.993624426186 3.0
  endloop
endfacet
facet normal 0.0 -1.0 0.0
  outer loop
    vertex 85.5457479456062 -112.993624426186 3.0
    vertex 91.9324992915543 -112.993624426186 5.0
    vertex 85.5457479456062 -112.993624426186 5.0
  endloop
endfacet
facet normal -0.866025403784437 -0.500000000000002 -3.44340835497286e-030
  outer loop
    vertex 82.3523722726321 -107.46253551294 5.0
    vertex 85.5457479456062 -112.993624426186 3.0
    vertex 85.5457479456062 -112.993624426186 5.0
  endloop
endfacet
facet normal -0.866025403784437 -0.500000000000002 -3.44340835497286e-030
  outer loop
    vertex 85.5457479456062 -112.993624426186 3.0
    vertex 82.3523722726321 -107.46253551294 5.0
    vertex 82.3523722726321 -107.46253551294 3.0
  endloop
endfacet
facet normal -0.86602540378444 0.499999999999998 -1.72170417748644e-030
  outer loop
    vertex 85.5457479456062 -101.931446599695 5.0
    vertex 82.3523722726321 -107.46253551294 3.0
    vertex 82.3523722726321 -107.46253551294 5.0
  endloop
endfacet
facet normal -0.86602540378444 0.499999999999998 -1.72170417748644e-030
  outer loop
    vertex 82.3523722726321 -107.46253551294 3.0
    vertex 85.5457479456062 -101.931446599695 5.0
    vertex 85.5457479456062 -101.931446599695 3.0
  endloop
endfacet
facet normal 0.0 1.0 0.0
  outer loop
    vertex 85.5457479456062 -101.931446599695 5.0
    vertex 91.9324992915543 -101.931446599695 3.0
    vertex 85.5457479456062 -101.931446599695 3.0
  endloop
endfacet
facet normal 0.0 1.0 0.0
  outer loop
    vertex 91.9324992915543 -101.931446599695 3.0
    vertex 85.5457479456062 -101.931446599695 5.0
    vertex 91.9324992915543 -101.931446599695 5.0
  endloop
endfacet
facet normal 0.866025403784437 0.500000000000002 0.0
  outer loop
    vertex 91.9324992915543 -101.931446599695 3.0
    vertex 95.1258749645284 -107.46253551294 5.0
    vertex 95.1258749645284 -107.46253551294 3.0
  endloop
endfacet
facet normal 0.866025403784437 0.500000000000002 0.0
  outer loop
    vertex 95.1258749645284 -107.46253551294 5.0
    vertex 91.9324992915543 -101.931446599695 3.0
    vertex 91.9324992915543 -101.931446599695 5.0
  endloop
endfacet
facet normal 0.866025403784438 0.500000000000001 0.0
  outer loop
    vertex 85.2391236185802 -107.46253551294 3.0
    vertex 86.9891236185802 -110.493624426186 5.0
    vertex 86.9891236185802 -110.493624426186 3.0
  endloop
endfacet
facet normal 0.866025403784438 0.500000000000001 0.0
  outer loop
    vertex 86.9891236185802 -110.493624426186 5.0
    vertex 85.2391236185802 -107.46253551294 3.0
    vertex 85.2391236185802 -107.46253551294 5.0
  endloop
endfacet
facet normal 0.999999306560835 5.39769767103623e-019 0.00117765778066572
  outer loop
    vertex 95.1364738919041 -101.462533172588 -1.76247905159244e-016
    vertex 95.1364738919041 -113.462537853293 3.0
    vertex 95.1364738919041 -113.462537853293 0.0
  endloop
endfacet
facet normal 0.999999306560835 5.39769767103623e-019 0.00117765778066572
  outer loop
    vertex 95.1364738919041 -113.462537853293 3.0
    vertex 95.1364738919041 -101.462533172588 -1.76247905159244e-016
    vertex 95.1258749645284 -107.46253551294 3.0
  endloop
endfacet
facet normal 0.999999306560835 5.39769767103623e-019 0.00117765778066572
  outer loop
    vertex 95.1258749645284 -107.46253551294 3.0
    vertex 95.1364738919041 -101.462533172588 -1.76247905159244e-016
    vertex 95.1364738919041 -101.462533172588 3.0
  endloop
endfacet
facet normal 0.707731052183941 0.706481958562717 -1.56334073105994e-031
  outer loop
    vertex 93.6391236185802 -99.9625355129405 -1.76247905159244e-016
    vertex 95.1364738919041 -101.462533172588 3.0
    vertex 95.1364738919041 -101.462533172588 -1.76247905159244e-016
  endloop
endfacet
facet normal 0.707731052183941 0.706481958562717 -1.56334073105994e-031
  outer loop
    vertex 95.1364738919041 -101.462533172588 3.0
    vertex 93.6391236185802 -99.9625355129405 -1.76247905159244e-016
    vertex 93.6391236185802 -99.9625355129405 3.0
  endloop
endfacet
facet normal -0.707731052183943 0.706481958562714 -3.12116309768202e-031
  outer loop
    vertex 83.8391236185802 -99.9625355129405 3.0
    vertex 82.3417733452564 -101.462533172588 1.76247905159244e-016
    vertex 82.3417733452564 -101.462533172588 3.0
  endloop
endfacet
facet normal -0.707731052183943 0.706481958562714 -3.12116309768202e-031
  outer loop
    vertex 82.3417733452564 -101.462533172588 1.76247905159244e-016
    vertex 83.8391236185802 -99.9625355129405 3.0
    vertex 83.8391236185802 -99.9625355129405 1.76247905159244e-016
  endloop
endfacet
facet normal 0.0 -1.0 0.0
  outer loop
    vertex 93.6391236185802 -116.96253551294 3.0
    vertex 83.8391236185802 -116.96253551294 0.0
    vertex 93.6391236185802 -116.96253551294 0.0
  endloop
endfacet
facet normal 0.0 -1.0 0.0
  outer loop
    vertex 83.8391236185802 -116.96253551294 0.0
    vertex 93.6391236185802 -116.96253551294 3.0
    vertex 83.8391236185802 -116.96253551294 3.0
  endloop
endfacet
facet normal 1.0 0.0 0.0
  outer loop
    vertex 93.6391236185802 -114.96253551294 0.0
    vertex 93.6391236185802 -116.96253551294 3.0
    vertex 93.6391236185802 -116.96253551294 0.0
  endloop
endfacet
facet normal 1.0 0.0 0.0
  outer loop
    vertex 93.6391236185802 -116.96253551294 3.0
    vertex 93.6391236185802 -114.96253551294 0.0
    vertex 93.6391236185802 -114.96253551294 3.0
  endloop
endfacet
facet normal -1.0 -0.0 -0.0
  outer loop
    vertex 83.8391236185802 -114.96253551294 3.0
    vertex 83.8391236185802 -116.96253551294 0.0
    vertex 83.8391236185802 -116.96253551294 3.0
  endloop
endfacet
facet normal -1.0 -0.0 -0.0
  outer loop
    vertex 83.8391236185802 -116.96253551294 0.0
    vertex 83.8391236185802 -114.96253551294 3.0
    vertex 83.8391236185802 -114.96253551294 0.0
  endloop
endfacet
facet normal 0.0 1.0 0.0
  outer loop
    vertex 83.8391236185802 -97.9625355129405 1.76247905159244e-016
    vertex 93.6391236185802 -97.9625355129405 3.0
    vertex 93.6391236185802 -97.9625355129405 -1.76247905159244e-016
  endloop
endfacet
facet normal 0.0 1.0 0.0
  outer loop
    vertex 93.6391236185802 -97.9625355129405 3.0
    vertex 83.8391236185802 -97.9625355129405 1.76247905159244e-016
    vertex 83.8391236185802 -97.9625355129405 3.0
  endloop
endfacet
facet normal -1.0 0.0 0.0
  outer loop
    vertex 83.8391236185802 -97.9625355129405 3.0
    vertex 83.8391236185802 -99.9625355129405 1.76247905159244e-016
    vertex 83.8391236185802 -99.9625355129405 3.0
  endloop
endfacet
facet normal -1.0 0.0 0.0
  outer loop
    vertex 83.8391236185802 -99.9625355129405 1.76247905159244e-016
    vertex 83.8391236185802 -97.9625355129405 3.0
    vertex 83.8391236185802 -97.9625355129405 1.76247905159244e-016
  endloop
endfacet
facet normal 1.0 0.0 0.0
  outer loop
    vertex 93.6391236185802 -97.9625355129405 -1.76247905159244e-016
    vertex 93.6391236185802 -99.9625355129405 3.0
    vertex 93.6391236185802 -99.9625355129405 -1.76247905159244e-016
  endloop
endfacet
facet normal 1.0 0.0 0.0
  outer loop
    vertex 93.6391236185802 -99.9625355129405 3.0
    vertex 93.6391236185802 -97.9625355129405 -1.76247905159244e-016
    vertex 93.6391236185802 -97.9625355129405 3.0
  endloop
endfacet
facet normal 0.0 -1.0 0.0
  outer loop
    vertex 90.4891236185802 -104.431446599695 5.0
    vertex 86.9891236185802 -104.431446599695 3.0
    vertex 90.4891236185802 -104.431446599695 3.0
  endloop
endfacet
facet normal 0.0 -1.0 0.0
  outer loop
    vertex 86.9891236185802 -104.431446599695 3.0
    vertex 90.4891236185802 -104.431446599695 5.0
    vertex 86.9891236185802 -104.431446599695 5.0
  endloop
endfacet
facet normal 0.0 0.0 1.0
  outer loop
    vertex 85.5457479456062 -112.993624426186 5.0
    vertex 85.2391236185802 -107.46253551294 5.0
    vertex 82.3523722726321 -107.46253551294 5.0
  endloop
endfacet
facet normal 0.0 0.0 1.0
  outer loop
    vertex 85.2391236185802 -107.46253551294 5.0
    vertex 85.5457479456062 -112.993624426186 5.0
    vertex 86.9891236185802 -110.493624426186 5.0
  endloop
endfacet
facet normal 0.0 0.0 1.0
  outer loop
    vertex 86.9891236185802 -110.493624426186 5.0
    vertex 85.5457479456062 -112.993624426186 5.0
    vertex 91.9324992915543 -112.993624426186 5.0
  endloop
endfacet
facet normal 0.0 0.0 1.0
  outer loop
    vertex 86.9891236185802 -110.493624426186 5.0
    vertex 91.9324992915543 -112.993624426186 5.0
    vertex 90.4891236185803 -110.493624426186 5.0
  endloop
endfacet
facet normal 0.0 0.0 1.0
  outer loop
    vertex 90.4891236185803 -110.493624426186 5.0
    vertex 91.9324992915543 -112.993624426186 5.0
    vertex 92.2391236185803 -107.46253551294 5.0
  endloop
endfacet
facet normal 0.0 0.0 1.0
  outer loop
    vertex 92.2391236185803 -107.46253551294 5.0
    vertex 91.9324992915543 -112.993624426186 5.0
    vertex 95.1258749645284 -107.46253551294 5.0
  endloop
endfacet
facet normal 0.0 0.0 1.0
  outer loop
    vertex 85.2391236185802 -107.46253551294 5.0
    vertex 85.5457479456062 -101.931446599695 5.0
    vertex 82.3523722726321 -107.46253551294 5.0
  endloop
endfacet
facet normal 0.0 0.0 1.0
  outer loop
    vertex 85.5457479456062 -101.931446599695 5.0
    vertex 85.2391236185802 -107.46253551294 5.0
    vertex 86.9891236185802 -104.431446599695 5.0
  endloop
endfacet
facet normal 0.0 0.0 1.0
  outer loop
    vertex 85.5457479456062 -101.931446599695 5.0
    vertex 86.9891236185802 -104.431446599695 5.0
    vertex 91.9324992915543 -101.931446599695 5.0
  endloop
endfacet
facet normal 0.0 0.0 1.0
  outer loop
    vertex 91.9324992915543 -101.931446599695 5.0
    vertex 86.9891236185802 -104.431446599695 5.0
    vertex 90.4891236185802 -104.431446599695 5.0
  endloop
endfacet
facet normal 0.0 0.0 1.0
  outer loop
    vertex 91.9324992915543 -101.931446599695 5.0
    vertex 90.4891236185802 -104.431446599695 5.0
    vertex 92.2391236185803 -107.46253551294 5.0
  endloop
endfacet
facet normal 0.0 0.0 1.0
  outer loop
    vertex 91.9324992915543 -101.931446599695 5.0
    vertex 92.2391236185803 -107.46253551294 5.0
    vertex 95.1258749645284 -107.46253551294 5.0
  endloop
endfacet
facet normal -1.36468554578187e-017 -1.38965555312002e-018 -1.0
  outer loop
    vertex 93.6391236185802 -97.9625355129405 -1.76247905159244e-016
    vertex 83.8391236185802 -99.9625355129405 1.76247905159244e-016
    vertex 83.8391236185802 -97.9625355129405 1.76247905159244e-016
  endloop
endfacet
facet normal -1.36468554578187e-017 -1.38965555312002e-018 -1.0
  outer loop
    vertex 83.8391236185802 -99.9625355129405 1.76247905159244e-016
    vertex 93.6391236185802 -97.9625355129405 -1.76247905159244e-016
    vertex 86.22618017771 -103.109989796806 -5.63993296509579e-015
  endloop
endfacet
facet normal -1.36468554578187e-017 -1.38965555312002e-018 -1.0
  outer loop
    vertex 83.8391236185802 -99.9625355129405 1.76247905159244e-016
    vertex 86.22618017771 -103.109989796806 -5.63993296509579e-015
    vertex 85.1852849230251 -103.908696817385 -5.63993296509579e-015
  endloop
endfacet
facet normal -1.36468554578187e-017 -1.38965555312002e-018 -1.0
  outer loop
    vertex 83.8391236185802 -99.9625355129405 1.76247905159244e-016
    vertex 85.1852849230251 -103.908696817385 -5.63993296509579e-015
    vertex 84.386577902446 -104.94959207207 -5.63993296509579e-015
  endloop
endfacet
facet normal -1.36468554578187e-017 -1.38965555312002e-018 -1.0
  outer loop
    vertex 83.8391236185802 -99.9625355129405 1.76247905159244e-016
    vertex 84.386577902446 -104.94959207207 -5.63993296509579e-015
    vertex 83.8844896794997 -106.161740269415 -5.63993296509579e-015
  endloop
endfacet
facet normal -1.36468554578187e-017 -1.38965555312002e-018 -1.0
  outer loop
    vertex 86.22618017771 -103.109989796806 -5.63993296509579e-015
    vertex 93.6391236185802 -97.9625355129405 -1.76247905159244e-016
    vertex 87.4383283750549 -102.60790157386 -5.63993296509579e-015
  endloop
endfacet
facet normal -1.36468554578187e-017 -1.38965555312002e-018 -1.0
  outer loop
    vertex 87.4383283750549 -102.60790157386 -5.63993296509579e-015
    vertex 93.6391236185802 -97.9625355129405 -1.76247905159244e-016
    vertex 88.7391236185802 -102.4366486312 -5.63993296509579e-015
  endloop
endfacet
facet normal -1.36468554578187e-017 -1.38965555312002e-018 -1.0
  outer loop
    vertex 88.7391236185802 -102.4366486312 -5.63993296509579e-015
    vertex 93.6391236185802 -97.9625355129405 -1.76247905159244e-016
    vertex 90.0399188621056 -102.60790157386 -5.63993296509579e-015
  endloop
endfacet
facet normal -1.36468554578187e-017 -1.38965555312002e-018 -1.0
  outer loop
    vertex 90.0399188621056 -102.60790157386 -5.63993296509579e-015
    vertex 93.6391236185802 -97.9625355129405 -1.76247905159244e-016
    vertex 91.2520670594505 -103.109989796806 -5.63993296509579e-015
  endloop
endfacet
facet normal -1.36468554578187e-017 -1.38965555312002e-018 -1.0
  outer loop
    vertex 91.2520670594505 -103.109989796806 -5.63993296509579e-015
    vertex 93.6391236185802 -97.9625355129405 -1.76247905159244e-016
    vertex 92.2929623141354 -103.908696817385 -5.63993296509579e-015
  endloop
endfacet
facet normal -1.36468554578187e-017 -1.38965555312002e-018 -1.0
  outer loop
    vertex 92.2929623141354 -103.908696817385 -5.63993296509579e-015
    vertex 93.6391236185802 -97.9625355129405 -1.76247905159244e-016
    vertex 93.0916693347145 -104.94959207207 -5.63993296509579e-015
  endloop
endfacet
facet normal -1.36468554578187e-017 -1.38965555312002e-018 -1.0
  outer loop
    vertex 93.0916693347145 -104.94959207207 -5.63993296509579e-015
    vertex 93.6391236185802 -97.9625355129405 -1.76247905159244e-016
    vertex 93.5937575576608 -106.161740269415 -5.63993296509579e-015
  endloop
endfacet
facet normal -1.36468554578187e-017 -1.38965555312002e-018 -1.0
  outer loop
    vertex 93.5937575576608 -106.161740269415 -5.63993296509579e-015
    vertex 93.6391236185802 -97.9625355129405 -1.76247905159244e-016
    vertex 93.6391236185802 -99.9625355129405 -1.76247905159244e-016
  endloop
endfacet
facet normal -1.36468554578187e-017 -1.38965555312002e-018 -1.0
  outer loop
    vertex 93.5937575576608 -106.161740269415 -5.63993296509579e-015
    vertex 93.6391236185802 -99.9625355129405 -1.76247905159244e-016
    vertex 93.7650105003207 -107.46253551294 -5.63993296509579e-015
  endloop
endfacet
facet normal -1.36468554578187e-017 -1.38965555312002e-018 -1.0
  outer loop
    vertex 93.7650105003207 -107.46253551294 -5.63993296509579e-015
    vertex 93.6391236185802 -99.9625355129405 -1.76247905159244e-016
    vertex 95.1364738919041 -101.462533172588 -1.76247905159244e-016
  endloop
endfacet
facet normal -1.36468554578187e-017 -1.38965555312002e-018 -1.0
  outer loop
    vertex 93.7650105003207 -107.46253551294 -5.63993296509579e-015
    vertex 93.6391236185802 -114.96253551294 0.0
    vertex 93.5937575576608 -108.763330756466 -5.63993296509579e-015
  endloop
endfacet
facet normal -1.36468554578187e-017 -1.38965555312002e-018 -1.0
  outer loop
    vertex 93.6391236185802 -114.96253551294 0.0
    vertex 93.7650105003207 -107.46253551294 -5.63993296509579e-015
    vertex 95.1364738919041 -113.462537853293 0.0
  endloop
endfacet
facet normal -1.36468554578187e-017 -1.38965555312002e-018 -1.0
  outer loop
    vertex 95.1364738919041 -113.462537853293 0.0
    vertex 93.7650105003207 -107.46253551294 -5.63993296509579e-015
    vertex 95.1364738919041 -101.462533172588 -1.76247905159244e-016
  endloop
endfacet
facet normal -1.36468554578187e-017 -1.38965555312002e-018 -1.0
  outer loop
    vertex 82.3417733452564 -101.462533172588 1.76247905159244e-016
    vertex 83.8391236185802 -114.96253551294 0.0
    vertex 82.3417733452564 -113.462537853293 0.0
  endloop
endfacet
facet normal -1.36468554578187e-017 -1.38965555312002e-018 -1.0
  outer loop
    vertex 83.8391236185802 -114.96253551294 0.0
    vertex 82.3417733452564 -101.462533172588 1.76247905159244e-016
    vertex 83.7132367368398 -107.46253551294 -5.63993296509579e-015
  endloop
endfacet
facet normal -1.36468554578187e-017 -1.38965555312002e-018 -1.0
  outer loop
    vertex 83.8391236185802 -114.96253551294 0.0
    vertex 83.7132367368398 -107.46253551294 -5.63993296509579e-015
    vertex 83.8844896794997 -108.763330756466 -5.63993296509579e-015
  endloop
endfacet
facet normal -1.36468554578187e-017 -1.38965555312002e-018 -1.0
  outer loop
    vertex 83.8391236185802 -114.96253551294 0.0
    vertex 83.8844896794997 -108.763330756466 -5.63993296509579e-015
    vertex 83.8391236185802 -116.96253551294 0.0
  endloop
endfacet
facet normal -1.36468554578187e-017 -1.38965555312002e-018 -1.0
  outer loop
    vertex 83.8391236185802 -116.96253551294 0.0
    vertex 83.8844896794997 -108.763330756466 -5.63993296509579e-015
    vertex 84.386577902446 -109.975478953811 -5.63993296509579e-015
  endloop
endfacet
facet normal -1.36468554578187e-017 -1.38965555312002e-018 -1.0
  outer loop
    vertex 83.8391236185802 -116.96253551294 0.0
    vertex 84.386577902446 -109.975478953811 -5.63993296509579e-015
    vertex 85.1852849230251 -111.016374208496 -5.63993296509579e-015
  endloop
endfacet
facet normal -1.36468554578187e-017 -1.38965555312002e-018 -1.0
  outer loop
    vertex 83.8391236185802 -116.96253551294 0.0
    vertex 85.1852849230251 -111.016374208496 -5.63993296509579e-015
    vertex 86.22618017771 -111.815081229075 -5.63993296509579e-015
  endloop
endfacet
facet normal -1.36468554578187e-017 -1.38965555312002e-018 -1.0
  outer loop
    vertex 83.8391236185802 -116.96253551294 0.0
    vertex 86.22618017771 -111.815081229075 -5.63993296509579e-015
    vertex 93.6391236185802 -116.96253551294 0.0
  endloop
endfacet
facet normal -1.36468554578187e-017 -1.38965555312002e-018 -1.0
  outer loop
    vertex 93.6391236185802 -116.96253551294 0.0
    vertex 86.22618017771 -111.815081229075 -5.63993296509579e-015
    vertex 87.4383283750549 -112.317169452021 -5.63993296509579e-015
  endloop
endfacet
facet normal -1.36468554578187e-017 -1.38965555312002e-018 -1.0
  outer loop
    vertex 93.6391236185802 -116.96253551294 0.0
    vertex 87.4383283750549 -112.317169452021 -5.63993296509579e-015
    vertex 88.7391236185803 -112.488422394681 -5.63993296509579e-015
  endloop
endfacet
facet normal -1.36468554578187e-017 -1.38965555312002e-018 -1.0
  outer loop
    vertex 93.6391236185802 -116.96253551294 0.0
    vertex 88.7391236185803 -112.488422394681 -5.63993296509579e-015
    vertex 90.0399188621056 -112.317169452021 -5.63993296509579e-015
  endloop
endfacet
facet normal -1.36468554578187e-017 -1.38965555312002e-018 -1.0
  outer loop
    vertex 93.6391236185802 -116.96253551294 0.0
    vertex 90.0399188621056 -112.317169452021 -5.63993296509579e-015
    vertex 91.2520670594505 -111.815081229075 -5.63993296509579e-015
  endloop
endfacet
facet normal -1.36468554578187e-017 -1.38965555312002e-018 -1.0
  outer loop
    vertex 93.6391236185802 -116.96253551294 0.0
    vertex 91.2520670594505 -111.815081229075 -5.63993296509579e-015
    vertex 92.2929623141354 -111.016374208496 -5.63993296509579e-015
  endloop
endfacet
facet normal -1.36468554578187e-017 -1.38965555312002e-018 -1.0
  outer loop
    vertex 93.6391236185802 -116.96253551294 0.0
    vertex 92.2929623141354 -111.016374208496 -5.63993296509579e-015
    vertex 93.0916693347145 -109.975478953811 -5.63993296509579e-015
  endloop
endfacet
facet normal -1.36468554578187e-017 -1.38965555312002e-018 -1.0
  outer loop
    vertex 93.6391236185802 -116.96253551294 0.0
    vertex 93.0916693347145 -109.975478953811 -5.63993296509579e-015
    vertex 93.5937575576608 -108.763330756466 -5.63993296509579e-015
  endloop
endfacet
facet normal -1.36468554578187e-017 -1.38965555312002e-018 -1.0
  outer loop
    vertex 93.6391236185802 -116.96253551294 0.0
    vertex 93.5937575576608 -108.763330756466 -5.63993296509579e-015
    vertex 93.6391236185802 -114.96253551294 0.0
  endloop
endfacet
facet normal -1.36468554578187e-017 -1.38965555312002e-018 -1.0
  outer loop
    vertex 83.8391236185802 -99.9625355129405 1.76247905159244e-016
    vertex 83.7132367368398 -107.46253551294 -5.63993296509579e-015
    vertex 82.3417733452564 -101.462533172588 1.76247905159244e-016
  endloop
endfacet
facet normal -1.36468554578187e-017 -1.38965555312002e-018 -1.0
  outer loop
    vertex 83.7132367368398 -107.46253551294 -5.63993296509579e-015
    vertex 83.8391236185802 -99.9625355129405 1.76247905159244e-016
    vertex 83.8844896794997 -106.161740269415 -5.63993296509579e-015
  endloop
endfacet
facet normal 0.0 0.0 -1.0
  outer loop
    vertex 83.8844896794997 -106.161740269415 -5.63993296509579e-015
    vertex 83.8844896794997 -108.763330756466 -5.63993296509579e-015
    vertex 83.7132367368398 -107.46253551294 -5.63993296509579e-015
  endloop
endfacet
facet normal 0.0 0.0 -1.0
  outer loop
    vertex 83.8844896794997 -108.763330756466 -5.63993296509579e-015
    vertex 83.8844896794997 -106.161740269415 -5.63993296509579e-015
    vertex 84.386577902446 -104.94959207207 -5.63993296509579e-015
  endloop
endfacet
facet normal 0.0 0.0 -1.0
  outer loop
    vertex 83.8844896794997 -108.763330756466 -5.63993296509579e-015
    vertex 84.386577902446 -104.94959207207 -5.63993296509579e-015
    vertex 84.386577902446 -109.975478953811 -5.63993296509579e-015
  endloop
endfacet
facet normal 0.0 0.0 -1.0
  outer loop
    vertex 84.386577902446 -109.975478953811 -5.63993296509579e-015
    vertex 84.386577902446 -104.94959207207 -5.63993296509579e-015
    vertex 85.1852849230251 -103.908696817385 -5.63993296509579e-015
  endloop
endfacet
facet normal 0.0 0.0 -1.0
  outer loop
    vertex 84.386577902446 -109.975478953811 -5.63993296509579e-015
    vertex 85.1852849230251 -103.908696817385 -5.63993296509579e-015
    vertex 85.1852849230251 -111.016374208496 -5.63993296509579e-015
  endloop
endfacet
facet normal 0.0 0.0 -1.0
  outer loop
    vertex 85.1852849230251 -111.016374208496 -5.63993296509579e-015
    vertex 85.1852849230251 -103.908696817385 -5.63993296509579e-015
    vertex 86.22618017771 -103.109989796806 -5.63993296509579e-015
  endloop
endfacet
facet normal 0.0 0.0 -1.0
  outer loop
    vertex 85.1852849230251 -111.016374208496 -5.63993296509579e-015
    vertex 86.22618017771 -103.109989796806 -5.63993296509579e-015
    vertex 86.22618017771 -111.815081229075 -5.63993296509579e-015
  endloop
endfacet
facet normal 0.0 0.0 -1.0
  outer loop
    vertex 86.22618017771 -111.815081229075 -5.63993296509579e-015
    vertex 86.22618017771 -103.109989796806 -5.63993296509579e-015
    vertex 86.7391236185802 -107.46253551294 -5.63993296509579e-015
  endloop
endfacet
facet normal 0.0 0.0 -1.0
  outer loop
    vertex 86.7391236185802 -107.46253551294 -5.63993296509579e-015
    vertex 86.22618017771 -103.109989796806 -5.63993296509579e-015
    vertex 86.8072719660021 -106.944897422735 -5.63993296509579e-015
  endloop
endfacet
facet normal 0.0 0.0 -1.0
  outer loop
    vertex 86.8072719660021 -106.944897422735 -5.63993296509579e-015
    vertex 86.22618017771 -103.109989796806 -5.63993296509579e-015
    vertex 87.4383283750549 -102.60790157386 -5.63993296509579e-015
  endloop
endfacet
facet normal 0.0 0.0 -1.0
  outer loop
    vertex 86.8072719660021 -106.944897422735 -5.63993296509579e-015
    vertex 87.4383283750549 -102.60790157386 -5.63993296509579e-015
    vertex 87.0070728110114 -106.46253551294 -5.63993296509579e-015
  endloop
endfacet
facet normal 0.0 0.0 -1.0
  outer loop
    vertex 87.0070728110114 -106.46253551294 -5.63993296509579e-015
    vertex 87.4383283750549 -102.60790157386 -5.63993296509579e-015
    vertex 87.3249100562072 -106.048321950567 -5.63993296509579e-015
  endloop
endfacet
facet normal 0.0 0.0 -1.0
  outer loop
    vertex 87.3249100562072 -106.048321950567 -5.63993296509579e-015
    vertex 87.4383283750549 -102.60790157386 -5.63993296509579e-015
    vertex 87.7391236185802 -105.730484705372 -5.63993296509579e-015
  endloop
endfacet
facet normal 0.0 0.0 -1.0
  outer loop
    vertex 87.7391236185802 -105.730484705372 -5.63993296509579e-015
    vertex 87.4383283750549 -102.60790157386 -5.63993296509579e-015
    vertex 88.7391236185802 -102.4366486312 -5.63993296509579e-015
  endloop
endfacet
facet normal 0.0 0.0 -1.0
  outer loop
    vertex 87.7391236185802 -105.730484705372 -5.63993296509579e-015
    vertex 88.7391236185802 -102.4366486312 -5.63993296509579e-015
    vertex 88.2214855283752 -105.530683860362 -5.63993296509579e-015
  endloop
endfacet
facet normal 0.0 0.0 -1.0
  outer loop
    vertex 88.2214855283752 -105.530683860362 -5.63993296509579e-015
    vertex 88.7391236185802 -102.4366486312 -5.63993296509579e-015
    vertex 88.7391236185802 -105.46253551294 -5.63993296509579e-015
  endloop
endfacet
facet normal 0.0 0.0 -1.0
  outer loop
    vertex 88.7391236185802 -105.46253551294 -5.63993296509579e-015
    vertex 88.7391236185802 -102.4366486312 -5.63993296509579e-015
    vertex 90.0399188621056 -102.60790157386 -5.63993296509579e-015
  endloop
endfacet
facet normal 0.0 0.0 -1.0
  outer loop
    vertex 88.7391236185802 -105.46253551294 -5.63993296509579e-015
    vertex 90.0399188621056 -102.60790157386 -5.63993296509579e-015
    vertex 89.2567617087853 -105.530683860362 -5.63993296509579e-015
  endloop
endfacet
facet normal 0.0 0.0 -1.0
  outer loop
    vertex 89.2567617087853 -105.530683860362 -5.63993296509579e-015
    vertex 90.0399188621056 -102.60790157386 -5.63993296509579e-015
    vertex 89.7391236185802 -105.730484705372 -5.63993296509579e-015
  endloop
endfacet
facet normal 0.0 0.0 -1.0
  outer loop
    vertex 89.7391236185802 -105.730484705372 -5.63993296509579e-015
    vertex 90.0399188621056 -102.60790157386 -5.63993296509579e-015
    vertex 90.1533371809533 -106.048321950567 -5.63993296509579e-015
  endloop
endfacet
facet normal 0.0 0.0 -1.0
  outer loop
    vertex 90.1533371809533 -106.048321950567 -5.63993296509579e-015
    vertex 90.0399188621056 -102.60790157386 -5.63993296509579e-015
    vertex 91.2520670594505 -103.109989796806 -5.63993296509579e-015
  endloop
endfacet
facet normal 0.0 0.0 -1.0
  outer loop
    vertex 90.1533371809533 -106.048321950567 -5.63993296509579e-015
    vertex 91.2520670594505 -103.109989796806 -5.63993296509579e-015
    vertex 90.4711744261491 -106.46253551294 -5.63993296509579e-015
  endloop
endfacet
facet normal 0.0 0.0 -1.0
  outer loop
    vertex 90.4711744261491 -106.46253551294 -5.63993296509579e-015
    vertex 91.2520670594505 -103.109989796806 -5.63993296509579e-015
    vertex 90.6709752711584 -106.944897422735 -5.63993296509579e-015
  endloop
endfacet
facet normal 0.0 0.0 -1.0
  outer loop
    vertex 90.6709752711584 -106.944897422735 -5.63993296509579e-015
    vertex 91.2520670594505 -103.109989796806 -5.63993296509579e-015
    vertex 90.7391236185802 -107.46253551294 -5.63993296509579e-015
  endloop
endfacet
facet normal 0.0 0.0 -1.0
  outer loop
    vertex 90.7391236185802 -107.46253551294 -5.63993296509579e-015
    vertex 91.2520670594505 -103.109989796806 -5.63993296509579e-015
    vertex 91.2520670594505 -111.815081229075 -5.63993296509579e-015
  endloop
endfacet
facet normal 0.0 0.0 -1.0
  outer loop
    vertex 91.2520670594505 -111.815081229075 -5.63993296509579e-015
    vertex 91.2520670594505 -103.109989796806 -5.63993296509579e-015
    vertex 92.2929623141354 -111.016374208496 -5.63993296509579e-015
  endloop
endfacet
facet normal 0.0 0.0 -1.0
  outer loop
    vertex 92.2929623141354 -111.016374208496 -5.63993296509579e-015
    vertex 91.2520670594505 -103.109989796806 -5.63993296509579e-015
    vertex 92.2929623141354 -103.908696817385 -5.63993296509579e-015
  endloop
endfacet
facet normal 0.0 0.0 -1.0
  outer loop
    vertex 92.2929623141354 -111.016374208496 -5.63993296509579e-015
    vertex 92.2929623141354 -103.908696817385 -5.63993296509579e-015
    vertex 93.0916693347145 -104.94959207207 -5.63993296509579e-015
  endloop
endfacet
facet normal 0.0 0.0 -1.0
  outer loop
    vertex 92.2929623141354 -111.016374208496 -5.63993296509579e-015
    vertex 93.0916693347145 -104.94959207207 -5.63993296509579e-015
    vertex 93.0916693347145 -109.975478953811 -5.63993296509579e-015
  endloop
endfacet
facet normal 0.0 0.0 -1.0
  outer loop
    vertex 93.0916693347145 -109.975478953811 -5.63993296509579e-015
    vertex 93.0916693347145 -104.94959207207 -5.63993296509579e-015
    vertex 93.5937575576608 -106.161740269415 -5.63993296509579e-015
  endloop
endfacet
facet normal 0.0 0.0 -1.0
  outer loop
    vertex 93.0916693347145 -109.975478953811 -5.63993296509579e-015
    vertex 93.5937575576608 -106.161740269415 -5.63993296509579e-015
    vertex 93.5937575576608 -108.763330756466 -5.63993296509579e-015
  endloop
endfacet
facet normal 0.0 0.0 -1.0
  outer loop
    vertex 93.5937575576608 -108.763330756466 -5.63993296509579e-015
    vertex 93.5937575576608 -106.161740269415 -5.63993296509579e-015
    vertex 93.7650105003207 -107.46253551294 -5.63993296509579e-015
  endloop
endfacet
facet normal 0.0 0.0 -1.0
  outer loop
    vertex 86.22618017771 -111.815081229075 -5.63993296509579e-015
    vertex 86.8072719660021 -107.980173603146 -5.63993296509579e-015
    vertex 87.4383283750549 -112.317169452021 -5.63993296509579e-015
  endloop
endfacet
facet normal 0.0 0.0 -1.0
  outer loop
    vertex 86.8072719660021 -107.980173603146 -5.63993296509579e-015
    vertex 86.22618017771 -111.815081229075 -5.63993296509579e-015
    vertex 86.7391236185802 -107.46253551294 -5.63993296509579e-015
  endloop
endfacet
facet normal 0.0 0.0 -1.0
  outer loop
    vertex 87.4383283750549 -112.317169452021 -5.63993296509579e-015
    vertex 86.8072719660021 -107.980173603146 -5.63993296509579e-015
    vertex 87.0070728110114 -108.46253551294 -5.63993296509579e-015
  endloop
endfacet
facet normal 0.0 0.0 -1.0
  outer loop
    vertex 87.4383283750549 -112.317169452021 -5.63993296509579e-015
    vertex 87.0070728110114 -108.46253551294 -5.63993296509579e-015
    vertex 87.3249100562072 -108.876749075314 -5.63993296509579e-015
  endloop
endfacet
facet normal 0.0 0.0 -1.0
  outer loop
    vertex 87.4383283750549 -112.317169452021 -5.63993296509579e-015
    vertex 87.3249100562072 -108.876749075314 -5.63993296509579e-015
    vertex 87.7391236185802 -109.194586320509 -5.63993296509579e-015
  endloop
endfacet
facet normal 0.0 0.0 -1.0
  outer loop
    vertex 87.4383283750549 -112.317169452021 -5.63993296509579e-015
    vertex 87.7391236185802 -109.194586320509 -5.63993296509579e-015
    vertex 88.7391236185803 -112.488422394681 -5.63993296509579e-015
  endloop
endfacet
facet normal 0.0 0.0 -1.0
  outer loop
    vertex 88.7391236185803 -112.488422394681 -5.63993296509579e-015
    vertex 87.7391236185802 -109.194586320509 -5.63993296509579e-015
    vertex 88.2214855283752 -109.394387165519 -5.63993296509579e-015
  endloop
endfacet
facet normal 0.0 0.0 -1.0
  outer loop
    vertex 88.7391236185803 -112.488422394681 -5.63993296509579e-015
    vertex 88.2214855283752 -109.394387165519 -5.63993296509579e-015
    vertex 88.7391236185802 -109.46253551294 -5.63993296509579e-015
  endloop
endfacet
facet normal 0.0 0.0 -1.0
  outer loop
    vertex 88.7391236185803 -112.488422394681 -5.63993296509579e-015
    vertex 88.7391236185802 -109.46253551294 -5.63993296509579e-015
    vertex 89.2567617087853 -109.394387165519 -5.63993296509579e-015
  endloop
endfacet
facet normal 0.0 0.0 -1.0
  outer loop
    vertex 88.7391236185803 -112.488422394681 -5.63993296509579e-015
    vertex 89.2567617087853 -109.394387165519 -5.63993296509579e-015
    vertex 90.0399188621056 -112.317169452021 -5.63993296509579e-015
  endloop
endfacet
facet normal 0.0 0.0 -1.0
  outer loop
    vertex 90.0399188621056 -112.317169452021 -5.63993296509579e-015
    vertex 89.2567617087853 -109.394387165519 -5.63993296509579e-015
    vertex 89.7391236185802 -109.194586320509 -5.63993296509579e-015
  endloop
endfacet
facet normal 0.0 0.0 -1.0
  outer loop
    vertex 90.0399188621056 -112.317169452021 -5.63993296509579e-015
    vertex 89.7391236185802 -109.194586320509 -5.63993296509579e-015
    vertex 90.1533371809533 -108.876749075314 -5.63993296509579e-015
  endloop
endfacet
facet normal 0.0 0.0 -1.0
  outer loop
    vertex 90.0399188621056 -112.317169452021 -5.63993296509579e-015
    vertex 90.1533371809533 -108.876749075314 -5.63993296509579e-015
    vertex 91.2520670594505 -111.815081229075 -5.63993296509579e-015
  endloop
endfacet
facet normal 0.0 0.0 -1.0
  outer loop
    vertex 91.2520670594505 -111.815081229075 -5.63993296509579e-015
    vertex 90.1533371809533 -108.876749075314 -5.63993296509579e-015
    vertex 90.4711744261491 -108.46253551294 -5.63993296509579e-015
  endloop
endfacet
facet normal 0.0 0.0 -1.0
  outer loop
    vertex 91.2520670594505 -111.815081229075 -5.63993296509579e-015
    vertex 90.4711744261491 -108.46253551294 -5.63993296509579e-015
    vertex 90.6709752711584 -107.980173603146 -5.63993296509579e-015
  endloop
endfacet
facet normal 0.0 0.0 -1.0
  outer loop
    vertex 91.2520670594505 -111.815081229075 -5.63993296509579e-015
    vertex 90.6709752711584 -107.980173603146 -5.63993296509579e-015
    vertex 90.7391236185802 -107.46253551294 -5.63993296509579e-015
  endloop
endfacet
endsolid switch-box
