solid bowden-wade-body
facet normal -1.0 0.0 2.35253301245078e-015
  outer loop
    vertex -2300.30016310908 26.0 299.782915306014
    vertex -2300.13660707527 6.0 298.540583889522
    vertex -2300.30016310908 6.0 299.782915306014
  endloop
endfacet
facet normal -0.965925826289059 0.0 -0.258819045102554
  outer loop
    vertex -2300.13660707527 6.0 298.540583889522
    vertex -2300.30016310908 26.0 299.782915306014
    vertex -2300.13660707527 26.0 298.540583889522
  endloop
endfacet
facet normal 0.965925826289059 0.0 0.258819045102554
  outer loop
    vertex -2290.86371914289 26.0 301.025246722506
    vertex -2291.34324117091 6.0 302.182915306014
    vertex -2290.86371914289 6.0 301.025246722506
  endloop
endfacet
facet normal 0.866025403784423 0.0 0.500000000000028
  outer loop
    vertex -2291.34324117091 6.0 302.182915306014
    vertex -2290.86371914289 26.0 301.025246722506
    vertex -2291.34324117091 26.0 302.182915306014
  endloop
endfacet
facet normal 0.500000000000013 0.0 0.866025403784431
  outer loop
    vertex -2293.10016310908 6.0 303.939837244179
    vertex -2294.25783169259 26.0 304.419359272201
    vertex -2294.25783169259 6.0 304.419359272201
  endloop
endfacet
facet normal 0.258819045102553 0.0 0.96592582628906
  outer loop
    vertex -2294.25783169259 26.0 304.419359272201
    vertex -2293.10016310908 6.0 303.939837244179
    vertex -2293.10016310908 26.0 303.939837244179
  endloop
endfacet
facet normal 0.258819045102553 0.0 0.96592582628906
  outer loop
    vertex -2294.25783169259 6.0 304.419359272201
    vertex -2295.50016310908 26.0 304.582915306014
    vertex -2295.50016310908 6.0 304.582915306014
  endloop
endfacet
facet normal 0.0 0.0 1.0
  outer loop
    vertex -2295.50016310908 26.0 304.582915306014
    vertex -2294.25783169259 6.0 304.419359272201
    vertex -2294.25783169259 26.0 304.419359272201
  endloop
endfacet
facet normal 0.707106781186534 0.0 0.707106781186561
  outer loop
    vertex -2292.10605055938 6.0 303.177027855709
    vertex -2293.10016310908 26.0 303.939837244179
    vertex -2293.10016310908 6.0 303.939837244179
  endloop
endfacet
facet normal 0.500000000000013 0.0 0.866025403784431
  outer loop
    vertex -2293.10016310908 26.0 303.939837244179
    vertex -2292.10605055938 6.0 303.177027855709
    vertex -2292.10605055938 26.0 303.177027855709
  endloop
endfacet
facet normal 0.866025403784423 0.0 0.500000000000028
  outer loop
    vertex -2291.34324117091 26.0 302.182915306014
    vertex -2292.10605055938 6.0 303.177027855709
    vertex -2291.34324117091 6.0 302.182915306014
  endloop
endfacet
facet normal 0.707106781186534 0.0 0.707106781186561
  outer loop
    vertex -2292.10605055938 6.0 303.177027855709
    vertex -2291.34324117091 26.0 302.182915306014
    vertex -2292.10605055938 26.0 303.177027855709
  endloop
endfacet
facet normal -0.258819045102358 0.0 -0.965925826289112
  outer loop
    vertex -2294.98029167954 26.0 301.723101894471
    vertex -2295.50016310908 5.0 301.791544266594
    vertex -2295.50016310908 26.0 301.791544266594
  endloop
endfacet
facet normal 0.0 0.0 -1.0
  outer loop
    vertex -2295.50016310908 5.0 301.791544266594
    vertex -2294.98029167954 26.0 301.723101894471
    vertex -2294.98029167954 5.0 301.723101894471
  endloop
endfacet
facet normal 3.28868558885274e-021 -1.0 6.61203017726818e-018
  outer loop
    vertex -2294.29510163508 1.01171772579555e-016 295.285564658812
    vertex -2296.70522458308 1.01171772579555e-016 295.285564658812
    vertex -2295.50016310908 1.04740726281479e-016 295.126915306014
  endloop
endfacet
facet normal 3.28868558885274e-021 -1.0 6.61203017726818e-018
  outer loop
    vertex -2296.70522458308 1.01171772579555e-016 295.285564658812
    vertex -2294.29510163508 1.01171772579555e-016 295.285564658812
    vertex -2293.17216310908 9.07081297705941e-017 295.750701025994
  endloop
endfacet
facet normal 3.28868558885274e-021 -1.0 6.61203017726818e-018
  outer loop
    vertex -2296.70522458308 1.01171772579555e-016 295.285564658812
    vertex -2293.17216310908 9.07081297705941e-017 295.750701025994
    vertex -2297.82816310908 9.07081297705941e-017 295.750701025994
  endloop
endfacet
facet normal 3.28868558885274e-021 -1.0 6.61203017726818e-018
  outer loop
    vertex -2297.82816310908 9.07081297705941e-017 295.750701025994
    vertex -2293.17216310908 9.07081297705941e-017 295.750701025994
    vertex -2295.50016310908 -1.8358310892092e-016 295.763441081506
  endloop
endfacet
facet normal 3.28868558885274e-021 -1.0 6.61203017726818e-018
  outer loop
    vertex -2295.50016310908 -1.8358310892092e-016 295.763441081506
    vertex -2293.17216310908 9.07081297705941e-017 295.750701025994
    vertex -2294.45984662848 -1.77327666177146e-016 295.900401344459
  endloop
endfacet
facet normal 3.28868558885274e-021 -1.0 6.61203017726818e-018
  outer loop
    vertex -2294.45984662848 -1.77327666177146e-016 295.900401344459
    vertex -2293.17216310908 9.07081297705941e-017 295.750701025994
    vertex -2292.20787393587 7.40628778200388e-017 296.490626132809
  endloop
endfacet
facet normal 3.28868558885274e-021 -1.0 6.61203017726818e-018
  outer loop
    vertex -2294.45984662848 -1.77327666177146e-016 295.900401344459
    vertex -2292.20787393587 7.40628778200388e-017 296.490626132809
    vertex -2293.49042599682 -1.58987636031226e-016 296.301948517733
  endloop
endfacet
facet normal 3.28868558885274e-021 -1.0 6.61203017726818e-018
  outer loop
    vertex -2293.49042599682 -1.58987636031226e-016 296.301948517733
    vertex -2292.20787393587 7.40628778200388e-017 296.490626132809
    vertex -2292.65796562812 -1.29812861229259e-016 296.94071782506
  endloop
endfacet
facet normal 3.28868558885274e-021 -1.0 6.61203017726818e-018
  outer loop
    vertex -2292.65796562812 -1.29812861229259e-016 296.94071782506
    vertex -2292.20787393587 7.40628778200388e-017 296.490626132809
    vertex -2291.46794882906 5.23703631407418e-017 297.454915306014
  endloop
endfacet
facet normal 3.28868558885274e-021 -1.0 6.61203017726818e-018
  outer loop
    vertex -2292.65796562812 -1.29812861229259e-016 296.94071782506
    vertex -2291.46794882906 5.23703631407418e-017 297.454915306014
    vertex -2292.0191963208 -9.17915544604444e-017 297.77317819376
  endloop
endfacet
facet normal 3.28868558885274e-021 -1.0 6.61203017726818e-018
  outer loop
    vertex -2292.0191963208 -9.17915544604444e-017 297.77317819376
    vertex -2291.46794882906 5.23703631407418e-017 297.454915306014
    vertex -2291.00281246188 2.71088947595207e-017 298.577853832017
  endloop
endfacet
facet normal 3.28868558885274e-021 -1.0 6.61203017726818e-018
  outer loop
    vertex -2292.0191963208 -9.17915544604444e-017 297.77317819376
    vertex -2291.00281246188 2.71088947595207e-017 298.577853832017
    vertex -2291.61764914752 -4.75148049478396e-017 298.742598825412
  endloop
endfacet
facet normal 3.28868558885274e-021 -1.0 6.61203017726818e-018
  outer loop
    vertex -2291.61764914752 -4.75148049478396e-017 298.742598825412
    vertex -2291.00281246188 2.71088947595207e-017 298.577853832017
    vertex -2290.84416310908 4.69618757639384e-030 299.782915306014
  endloop
endfacet
facet normal 3.28868558885274e-021 -1.0 6.61203017726818e-018
  outer loop
    vertex -2291.61764914752 -4.75148049478396e-017 298.742598825412
    vertex -2290.84416310908 4.69618757639384e-030 299.782915306014
    vertex -2291.48068888457 5.2597300855611e-029 299.782915306014
  endloop
endfacet
facet normal 3.28868558885274e-021 -1.0 6.61203017726818e-018
  outer loop
    vertex -2291.48068888457 5.2597300855611e-029 299.782915306014
    vertex -2290.84416310908 4.69618757639384e-030 299.782915306014
    vertex -2291.61764914752 4.75148049479241e-017 300.823231786615
  endloop
endfacet
facet normal 3.28868558885274e-021 -1.0 6.61203017726818e-018
  outer loop
    vertex -2291.61764914752 4.75148049479241e-017 300.823231786615
    vertex -2290.84416310908 4.69618757639384e-030 299.782915306014
    vertex -2291.00281246188 -2.71088947595116e-017 300.987976780011
  endloop
endfacet
facet normal 3.28868558885274e-021 -1.0 6.61203017726818e-018
  outer loop
    vertex -2291.61764914752 4.75148049479241e-017 300.823231786615
    vertex -2291.00281246188 -2.71088947595116e-017 300.987976780011
    vertex -2292.0191963208 9.17915544605411e-017 301.792652418268
  endloop
endfacet
facet normal 3.28868558885274e-021 -1.0 6.61203017726818e-018
  outer loop
    vertex -2292.0191963208 9.17915544605411e-017 301.792652418268
    vertex -2291.00281246188 -2.71088947595116e-017 300.987976780011
    vertex -2291.46794882906 -5.23703631407324e-017 302.110915306014
  endloop
endfacet
facet normal 3.28868558885274e-021 -1.0 6.61203017726818e-018
  outer loop
    vertex -2292.0191963208 9.17915544605411e-017 301.792652418268
    vertex -2291.46794882906 -5.23703631407324e-017 302.110915306014
    vertex -2292.65796562812 1.29812861229355e-016 302.625112786967
  endloop
endfacet
facet normal 3.28868558885274e-021 -1.0 6.61203017726818e-018
  outer loop
    vertex -2292.65796562812 1.29812861229355e-016 302.625112786967
    vertex -2291.46794882906 -5.23703631407324e-017 302.110915306014
    vertex -2292.20787393587 -7.40628778200294e-017 303.075204479218
  endloop
endfacet
facet normal 3.28868558885274e-021 -1.0 6.61203017726818e-018
  outer loop
    vertex -2292.65796562812 1.29812861229355e-016 302.625112786967
    vertex -2292.20787393587 -7.40628778200294e-017 303.075204479218
    vertex -2293.49042599682 1.58987636031311e-016 303.263882094294
  endloop
endfacet
facet normal 3.28868558885274e-021 -1.0 6.61203017726818e-018
  outer loop
    vertex -2293.49042599682 1.58987636031311e-016 303.263882094294
    vertex -2292.20787393587 -7.40628778200294e-017 303.075204479218
    vertex -2293.17216310908 -9.07081297705847e-017 303.815129586034
  endloop
endfacet
facet normal 3.28868558885274e-021 -1.0 6.61203017726818e-018
  outer loop
    vertex -2293.49042599682 1.58987636031311e-016 303.263882094294
    vertex -2293.17216310908 -9.07081297705847e-017 303.815129586034
    vertex -2294.45984662848 1.77327666177242e-016 303.665429267569
  endloop
endfacet
facet normal 3.28868558885274e-021 -1.0 6.61203017726818e-018
  outer loop
    vertex -2294.45984662848 1.77327666177242e-016 303.665429267569
    vertex -2293.17216310908 -9.07081297705847e-017 303.815129586034
    vertex -2295.50016310908 1.83583108921008e-016 303.802389530521
  endloop
endfacet
facet normal 3.28868558885274e-021 -1.0 6.61203017726818e-018
  outer loop
    vertex -2297.82816310908 9.07081297705941e-017 295.750701025994
    vertex -2296.54047958968 -1.77327666177146e-016 295.900401344459
    vertex -2298.79245228228 7.40628778200388e-017 296.490626132809
  endloop
endfacet
facet normal 3.28868558885274e-021 -1.0 6.61203017726818e-018
  outer loop
    vertex -2296.54047958968 -1.77327666177146e-016 295.900401344459
    vertex -2297.82816310908 9.07081297705941e-017 295.750701025994
    vertex -2295.50016310908 -1.8358310892092e-016 295.763441081506
  endloop
endfacet
facet normal 3.28868558885274e-021 -1.0 6.61203017726818e-018
  outer loop
    vertex -2298.79245228228 7.40628778200388e-017 296.490626132809
    vertex -2296.54047958968 -1.77327666177146e-016 295.900401344459
    vertex -2297.50990022133 -1.58987636031226e-016 296.301948517733
  endloop
endfacet
facet normal 3.28868558885274e-021 -1.0 6.61203017726818e-018
  outer loop
    vertex -2298.79245228228 7.40628778200388e-017 296.490626132809
    vertex -2297.50990022133 -1.58987636031226e-016 296.301948517733
    vertex -2298.34236059003 -1.2981286122924e-016 296.940717825061
  endloop
endfacet
facet normal 3.28868558885274e-021 -1.0 6.61203017726818e-018
  outer loop
    vertex -2298.79245228228 7.40628778200388e-017 296.490626132809
    vertex -2298.34236059003 -1.2981286122924e-016 296.940717825061
    vertex -2299.5323773891 5.23703631407418e-017 297.454915306014
  endloop
endfacet
facet normal 3.28868558885274e-021 -1.0 6.61203017726818e-018
  outer loop
    vertex -2299.5323773891 5.23703631407418e-017 297.454915306014
    vertex -2298.34236059003 -1.2981286122924e-016 296.940717825061
    vertex -2298.98112989736 -9.17915544604243e-017 297.77317819376
  endloop
endfacet
facet normal 3.28868558885274e-021 -1.0 6.61203017726818e-018
  outer loop
    vertex -2299.5323773891 5.23703631407418e-017 297.454915306014
    vertex -2298.98112989736 -9.17915544604243e-017 297.77317819376
    vertex -2299.99751375628 2.71088947595207e-017 298.577853832017
  endloop
endfacet
facet normal 3.28868558885274e-021 -1.0 6.61203017726818e-018
  outer loop
    vertex -2299.99751375628 2.71088947595207e-017 298.577853832017
    vertex -2298.98112989736 -9.17915544604243e-017 297.77317819376
    vertex -2299.38267707063 -4.75148049478584e-017 298.742598825412
  endloop
endfacet
facet normal 3.28868558885274e-021 -1.0 6.61203017726818e-018
  outer loop
    vertex -2299.99751375628 2.71088947595207e-017 298.577853832017
    vertex -2299.38267707063 -4.75148049478584e-017 298.742598825412
    vertex -2300.15616310908 4.69618757639384e-030 299.782915306014
  endloop
endfacet
facet normal 3.28868558885274e-021 -1.0 6.61203017726818e-018
  outer loop
    vertex -2300.15616310908 4.69618757639384e-030 299.782915306014
    vertex -2299.38267707063 -4.75148049478584e-017 298.742598825412
    vertex -2299.51963733359 4.66487965921788e-029 299.782915306013
  endloop
endfacet
facet normal 3.28868558885274e-021 -1.0 6.61203017726818e-018
  outer loop
    vertex -2300.15616310908 4.69618757639384e-030 299.782915306014
    vertex -2299.51963733359 4.66487965921788e-029 299.782915306013
    vertex -2299.38267707063 4.75148049479614e-017 300.823231786616
  endloop
endfacet
facet normal 3.28868558885274e-021 -1.0 6.61203017726818e-018
  outer loop
    vertex -2300.15616310908 4.69618757639384e-030 299.782915306014
    vertex -2299.38267707063 4.75148049479614e-017 300.823231786616
    vertex -2299.99751375628 -2.71088947595104e-017 300.987976780011
  endloop
endfacet
facet normal 3.28868558885274e-021 -1.0 6.61203017726818e-018
  outer loop
    vertex -2299.99751375628 -2.71088947595104e-017 300.987976780011
    vertex -2299.38267707063 4.75148049479614e-017 300.823231786616
    vertex -2298.98112989736 9.17915544605063e-017 301.792652418267
  endloop
endfacet
facet normal 3.28868558885274e-021 -1.0 6.61203017726818e-018
  outer loop
    vertex -2299.99751375628 -2.71088947595104e-017 300.987976780011
    vertex -2298.98112989736 9.17915544605063e-017 301.792652418267
    vertex -2299.5323773891 -5.23703631407324e-017 302.110915306014
  endloop
endfacet
facet normal 3.28868558885274e-021 -1.0 6.61203017726818e-018
  outer loop
    vertex -2299.5323773891 -5.23703631407324e-017 302.110915306014
    vertex -2298.98112989736 9.17915544605063e-017 301.792652418267
    vertex -2298.34236059003 1.29812861229353e-016 302.625112786967
  endloop
endfacet
facet normal 3.28868558885274e-021 -1.0 6.61203017726818e-018
  outer loop
    vertex -2299.5323773891 -5.23703631407324e-017 302.110915306014
    vertex -2298.34236059003 1.29812861229353e-016 302.625112786967
    vertex -2298.79245228228 -7.40628778200294e-017 303.075204479218
  endloop
endfacet
facet normal 3.28868558885274e-021 -1.0 6.61203017726818e-018
  outer loop
    vertex -2298.79245228228 -7.40628778200294e-017 303.075204479218
    vertex -2298.34236059003 1.29812861229353e-016 302.625112786967
    vertex -2297.50990022133 1.58987636031322e-016 303.263882094294
  endloop
endfacet
facet normal 3.28868558885274e-021 -1.0 6.61203017726818e-018
  outer loop
    vertex -2298.79245228228 -7.40628778200294e-017 303.075204479218
    vertex -2297.50990022133 1.58987636031322e-016 303.263882094294
    vertex -2297.82816310908 -9.07081297705847e-017 303.815129586034
  endloop
endfacet
facet normal 3.28868558885274e-021 -1.0 6.61203017726818e-018
  outer loop
    vertex -2297.82816310908 -9.07081297705847e-017 303.815129586034
    vertex -2297.50990022133 1.58987636031322e-016 303.263882094294
    vertex -2296.54047958968 1.77327666177239e-016 303.665429267569
  endloop
endfacet
facet normal 3.28868558885274e-021 -1.0 6.61203017726818e-018
  outer loop
    vertex -2297.82816310908 -9.07081297705847e-017 303.815129586034
    vertex -2296.54047958968 1.77327666177239e-016 303.665429267569
    vertex -2295.50016310908 1.83583108921008e-016 303.802389530521
  endloop
endfacet
facet normal 3.28868558885274e-021 -1.0 6.61203017726818e-018
  outer loop
    vertex -2297.82816310908 -9.07081297705847e-017 303.815129586034
    vertex -2295.50016310908 1.83583108921008e-016 303.802389530521
    vertex -2293.17216310908 -9.07081297705847e-017 303.815129586034
  endloop
endfacet
facet normal 3.28868558885274e-021 -1.0 6.61203017726818e-018
  outer loop
    vertex -2297.82816310908 -9.07081297705847e-017 303.815129586034
    vertex -2293.17216310908 -9.07081297705847e-017 303.815129586034
    vertex -2294.29510163508 -1.01171772579546e-016 304.280265953216
  endloop
endfacet
facet normal 3.28868558885274e-021 -1.0 6.61203017726818e-018
  outer loop
    vertex -2297.82816310908 -9.07081297705847e-017 303.815129586034
    vertex -2294.29510163508 -1.01171772579546e-016 304.280265953216
    vertex -2296.70522458308 -1.01171772579546e-016 304.280265953216
  endloop
endfacet
facet normal 3.28868558885274e-021 -1.0 6.61203017726818e-018
  outer loop
    vertex -2296.70522458308 -1.01171772579546e-016 304.280265953216
    vertex -2294.29510163508 -1.01171772579546e-016 304.280265953216
    vertex -2295.50016310908 -1.04740726281469e-016 304.438915306014
  endloop
endfacet
facet normal 0.707106781186921 0.0 0.707106781186174
  outer loop
    vertex -2296.92047826799 26.0 298.3626001471
    vertex -2297.23968681572 5.0 298.778600825724
    vertex -2296.92047826799 5.0 298.3626001471
  endloop
endfacet
facet normal 0.866025403784613 0.0 0.499999999999698
  outer loop
    vertex -2297.23968681572 5.0 298.778600825724
    vertex -2296.92047826799 26.0 298.3626001471
    vertex -2297.23968681572 26.0 298.778600825724
  endloop
endfacet
facet normal 0.0 0.0 -1.0
  outer loop
    vertex -2295.50016310908 26.0 301.791544266594
    vertex -2296.02003453862 5.0 301.723101894471
    vertex -2296.02003453862 26.0 301.723101894471
  endloop
endfacet
facet normal 0.258819045102689 0.0 -0.965925826289023
  outer loop
    vertex -2296.02003453862 5.0 301.723101894471
    vertex -2295.50016310908 26.0 301.791544266594
    vertex -2295.50016310908 5.0 301.791544266594
  endloop
endfacet
facet normal -0.965925826288975 0.0 -0.258819045102871
  outer loop
    vertex -2293.55997652062 26.0 300.302786735557
    vertex -2293.4915341485 5.0 299.782915306014
    vertex -2293.55997652062 5.0 300.302786735557
  endloop
endfacet
facet normal -1.0 0.0 0.0
  outer loop
    vertex -2293.4915341485 5.0 299.782915306014
    vertex -2293.55997652062 26.0 300.302786735557
    vertex -2293.4915341485 26.0 299.782915306014
  endloop
endfacet
facet normal 0.258819045102358 0.0 0.965925826289112
  outer loop
    vertex -2296.02003453862 5.0 297.842728717557
    vertex -2296.50447758937 26.0 298.043391599374
    vertex -2296.50447758937 5.0 298.043391599374
  endloop
endfacet
facet normal 0.500000000000106 0.0 0.866025403784378
  outer loop
    vertex -2296.50447758937 26.0 298.043391599374
    vertex -2296.02003453862 5.0 297.842728717557
    vertex -2296.02003453862 26.0 297.842728717557
  endloop
endfacet
facet normal 0.965925826288975 0.0 0.258819045102871
  outer loop
    vertex -2297.44034969754 26.0 299.263043876471
    vertex -2297.50879206966 5.0 299.782915306014
    vertex -2297.44034969754 5.0 299.263043876471
  endloop
endfacet
facet normal 1.0 0.0 0.0
  outer loop
    vertex -2297.50879206966 5.0 299.782915306014
    vertex -2297.44034969754 26.0 299.263043876471
    vertex -2297.50879206966 26.0 299.782915306014
  endloop
endfacet
facet normal -0.500000000000106 0.0 -0.866025403784378
  outer loop
    vertex -2294.49584862879 26.0 301.522439012654
    vertex -2294.98029167954 5.0 301.723101894471
    vertex -2294.98029167954 26.0 301.723101894471
  endloop
endfacet
facet normal -0.258819045102358 0.0 -0.965925826289112
  outer loop
    vertex -2294.98029167954 5.0 301.723101894471
    vertex -2294.49584862879 26.0 301.522439012654
    vertex -2294.49584862879 5.0 301.522439012654
  endloop
endfacet
facet normal 0.0 0.0 1.0
  outer loop
    vertex -2295.50016310908 5.0 297.774286345434
    vertex -2296.02003453862 26.0 297.842728717557
    vertex -2296.02003453862 5.0 297.842728717557
  endloop
endfacet
facet normal 0.258819045102358 0.0 0.965925826289112
  outer loop
    vertex -2296.02003453862 26.0 297.842728717557
    vertex -2295.50016310908 5.0 297.774286345434
    vertex -2295.50016310908 26.0 297.774286345434
  endloop
endfacet
facet normal 1.0 0.0 0.0
  outer loop
    vertex -2297.50879206966 26.0 299.782915306014
    vertex -2297.44034969754 5.0 300.302786735557
    vertex -2297.50879206966 5.0 299.782915306014
  endloop
endfacet
facet normal 0.965925826288975 0.0 -0.258819045102871
  outer loop
    vertex -2297.44034969754 5.0 300.302786735557
    vertex -2297.50879206966 26.0 299.782915306014
    vertex -2297.44034969754 26.0 300.302786735557
  endloop
endfacet
facet normal -0.707106781186549 0.0 0.707106781186546
  outer loop
    vertex -2294.07984795016 5.0 298.3626001471
    vertex -2294.49584862879 26.0 298.043391599374
    vertex -2294.49584862879 5.0 298.043391599374
  endloop
endfacet
facet normal -0.499999999999833 0.0 0.866025403784535
  outer loop
    vertex -2294.49584862879 26.0 298.043391599374
    vertex -2294.07984795016 5.0 298.3626001471
    vertex -2294.07984795016 26.0 298.3626001471
  endloop
endfacet
facet normal 0.500000000000041 0.0 -0.866025403784415
  outer loop
    vertex -2293.10016310908 26.0 295.625993367849
    vertex -2294.25783169259 6.0 295.146471339826
    vertex -2294.25783169259 26.0 295.146471339826
  endloop
endfacet
facet normal 0.2588190451025 0.0 -0.965925826289074
  outer loop
    vertex -2294.25783169259 6.0 295.146471339826
    vertex -2293.10016310908 26.0 295.625993367849
    vertex -2293.10016310908 6.0 295.625993367849
  endloop
endfacet
facet normal -0.866025403784613 0.0 -0.499999999999698
  outer loop
    vertex -2293.76063940244 26.0 300.787229786304
    vertex -2293.55997652062 5.0 300.302786735557
    vertex -2293.76063940244 5.0 300.787229786304
  endloop
endfacet
facet normal -0.965925826288975 0.0 -0.258819045102871
  outer loop
    vertex -2293.55997652062 5.0 300.302786735557
    vertex -2293.76063940244 26.0 300.787229786304
    vertex -2293.55997652062 26.0 300.302786735557
  endloop
endfacet
facet normal -0.707106781186921 0.0 -0.707106781186174
  outer loop
    vertex -2294.07984795016 26.0 301.203230464927
    vertex -2294.49584862879 5.0 301.522439012654
    vertex -2294.49584862879 26.0 301.522439012654
  endloop
endfacet
facet normal -0.500000000000106 0.0 -0.866025403784378
  outer loop
    vertex -2294.49584862879 5.0 301.522439012654
    vertex -2294.07984795016 26.0 301.203230464927
    vertex -2294.07984795016 5.0 301.203230464927
  endloop
endfacet
facet normal -0.965925826288975 0.0 0.258819045102871
  outer loop
    vertex -2293.55997652062 26.0 299.263043876471
    vertex -2293.76063940244 5.0 298.778600825724
    vertex -2293.55997652062 5.0 299.263043876471
  endloop
endfacet
facet normal -0.866025403784678 0.0 0.499999999999585
  outer loop
    vertex -2293.76063940244 5.0 298.778600825724
    vertex -2293.55997652062 26.0 299.263043876471
    vertex -2293.76063940244 26.0 298.778600825724
  endloop
endfacet
facet normal -1.0 0.0 0.0
  outer loop
    vertex -2293.4915341485 26.0 299.782915306014
    vertex -2293.55997652062 5.0 299.263043876471
    vertex -2293.4915341485 5.0 299.782915306014
  endloop
endfacet
facet normal -0.965925826288975 0.0 0.258819045102871
  outer loop
    vertex -2293.55997652062 5.0 299.263043876471
    vertex -2293.4915341485 26.0 299.782915306014
    vertex -2293.55997652062 26.0 299.263043876471
  endloop
endfacet
facet normal -0.499999999999833 0.0 0.866025403784535
  outer loop
    vertex -2294.49584862879 5.0 298.043391599374
    vertex -2294.98029167954 26.0 297.842728717557
    vertex -2294.98029167954 5.0 297.842728717557
  endloop
endfacet
facet normal -0.258819045102689 0.0 0.965925826289023
  outer loop
    vertex -2294.98029167954 26.0 297.842728717557
    vertex -2294.49584862879 5.0 298.043391599374
    vertex -2294.49584862879 26.0 298.043391599374
  endloop
endfacet
facet normal -0.707106781186921 0.0 -0.707106781186174
  outer loop
    vertex -2294.07984795016 26.0 301.203230464927
    vertex -2293.76063940244 5.0 300.787229786304
    vertex -2294.07984795016 5.0 301.203230464927
  endloop
endfacet
facet normal -0.866025403784613 0.0 -0.499999999999698
  outer loop
    vertex -2293.76063940244 5.0 300.787229786304
    vertex -2294.07984795016 26.0 301.203230464927
    vertex -2293.76063940244 26.0 300.787229786304
  endloop
endfacet
facet normal 0.866025403784678 0.0 -0.499999999999585
  outer loop
    vertex -2297.23968681572 26.0 300.787229786304
    vertex -2296.92047826799 5.0 301.203230464928
    vertex -2297.23968681572 5.0 300.787229786304
  endloop
endfacet
facet normal 0.707106781186549 0.0 -0.707106781186546
  outer loop
    vertex -2296.92047826799 5.0 301.203230464928
    vertex -2297.23968681572 26.0 300.787229786304
    vertex -2296.92047826799 26.0 301.203230464928
  endloop
endfacet
facet normal -0.866025403784678 0.0 0.499999999999585
  outer loop
    vertex -2293.76063940244 26.0 298.778600825724
    vertex -2294.07984795016 5.0 298.3626001471
    vertex -2293.76063940244 5.0 298.778600825724
  endloop
endfacet
facet normal -0.707106781186549 0.0 0.707106781186546
  outer loop
    vertex -2294.07984795016 5.0 298.3626001471
    vertex -2293.76063940244 26.0 298.778600825724
    vertex -2294.07984795016 26.0 298.3626001471
  endloop
endfacet
facet normal 0.707106781186596 0.0 -0.707106781186499
  outer loop
    vertex -2292.10605055938 26.0 296.388802756319
    vertex -2293.10016310908 6.0 295.625993367849
    vertex -2293.10016310908 26.0 295.625993367849
  endloop
endfacet
facet normal 0.500000000000041 0.0 -0.866025403784415
  outer loop
    vertex -2293.10016310908 6.0 295.625993367849
    vertex -2292.10605055938 26.0 296.388802756319
    vertex -2292.10605055938 6.0 296.388802756319
  endloop
endfacet
facet normal 0.500000000000106 0.0 0.866025403784378
  outer loop
    vertex -2296.50447758937 5.0 298.043391599374
    vertex -2296.92047826799 26.0 298.3626001471
    vertex -2296.92047826799 5.0 298.3626001471
  endloop
endfacet
facet normal 0.707106781186921 0.0 0.707106781186174
  outer loop
    vertex -2296.92047826799 26.0 298.3626001471
    vertex -2296.50447758937 5.0 298.043391599374
    vertex -2296.50447758937 26.0 298.043391599374
  endloop
endfacet
facet normal 0.707106781186596 0.0 -0.707106781186499
  outer loop
    vertex -2292.10605055938 26.0 296.388802756319
    vertex -2291.34324117091 6.0 297.382915306014
    vertex -2292.10605055938 6.0 296.388802756319
  endloop
endfacet
facet normal 0.866025403784423 0.0 -0.500000000000028
  outer loop
    vertex -2291.34324117091 6.0 297.382915306014
    vertex -2292.10605055938 26.0 296.388802756319
    vertex -2291.34324117091 26.0 297.382915306014
  endloop
endfacet
facet normal 0.965925826288975 0.0 -0.258819045102871
  outer loop
    vertex -2297.44034969754 26.0 300.302786735557
    vertex -2297.23968681572 5.0 300.787229786304
    vertex -2297.44034969754 5.0 300.302786735557
  endloop
endfacet
facet normal 0.866025403784678 0.0 -0.499999999999585
  outer loop
    vertex -2297.23968681572 5.0 300.787229786304
    vertex -2297.44034969754 26.0 300.302786735557
    vertex -2297.23968681572 26.0 300.787229786304
  endloop
endfacet
facet normal 0.258819045102689 0.0 -0.965925826289023
  outer loop
    vertex -2296.02003453862 26.0 301.723101894471
    vertex -2296.50447758937 5.0 301.522439012653
    vertex -2296.50447758937 26.0 301.522439012653
  endloop
endfacet
facet normal 0.499999999999833 0.0 -0.866025403784535
  outer loop
    vertex -2296.50447758937 5.0 301.522439012653
    vertex -2296.02003453862 26.0 301.723101894471
    vertex -2296.02003453862 5.0 301.723101894471
  endloop
endfacet
facet normal -0.258819045102689 0.0 0.965925826289023
  outer loop
    vertex -2294.98029167954 5.0 297.842728717557
    vertex -2295.50016310908 26.0 297.774286345434
    vertex -2295.50016310908 5.0 297.774286345434
  endloop
endfacet
facet normal 0.0 0.0 1.0
  outer loop
    vertex -2295.50016310908 26.0 297.774286345434
    vertex -2294.98029167954 5.0 297.842728717557
    vertex -2294.98029167954 26.0 297.842728717557
  endloop
endfacet
facet normal 0.499999999999833 0.0 -0.866025403784535
  outer loop
    vertex -2296.50447758937 26.0 301.522439012653
    vertex -2296.92047826799 5.0 301.203230464928
    vertex -2296.92047826799 26.0 301.203230464928
  endloop
endfacet
facet normal 0.707106781186549 0.0 -0.707106781186546
  outer loop
    vertex -2296.92047826799 5.0 301.203230464928
    vertex -2296.50447758937 26.0 301.522439012653
    vertex -2296.50447758937 5.0 301.522439012653
  endloop
endfacet
facet normal 0.866025403784613 0.0 0.499999999999698
  outer loop
    vertex -2297.23968681572 26.0 298.778600825724
    vertex -2297.44034969754 5.0 299.263043876471
    vertex -2297.23968681572 5.0 298.778600825724
  endloop
endfacet
facet normal 0.965925826288975 0.0 0.258819045102871
  outer loop
    vertex -2297.44034969754 5.0 299.263043876471
    vertex -2297.23968681572 26.0 298.778600825724
    vertex -2297.44034969754 26.0 299.263043876471
  endloop
endfacet
facet normal 0.706903222366829 -0.0239930909845533 -0.706903222366683
  outer loop
    vertex -2292.20787393587 7.40628778200388e-017 296.490626132809
    vertex -2291.34324117091 6.0 297.382915306014
    vertex -2291.46794882906 5.23703631407418e-017 297.454915306014
  endloop
endfacet
facet normal 0.865776096163872 -0.0239930909845667 -0.499856062178156
  outer loop
    vertex -2291.34324117091 6.0 297.382915306014
    vertex -2292.20787393587 7.40628778200388e-017 296.490626132809
    vertex -2292.10605055938 6.0 296.388802756319
  endloop
endfacet
facet normal -0.99971212435631 -0.0239930909845763 1.82148904776892e-015
  outer loop
    vertex -2300.30016310908 6.0 299.782915306014
    vertex -2299.99751375628 2.71088947595207e-017 298.577853832017
    vertex -2300.15616310908 4.69618757639384e-030 299.782915306014
  endloop
endfacet
facet normal -0.965647759770076 -0.0239930909845623 -0.258744537403287
  outer loop
    vertex -2299.99751375628 2.71088947595207e-017 298.577853832017
    vertex -2300.30016310908 6.0 299.782915306014
    vertex -2300.13660707527 6.0 298.540583889522
  endloop
endfacet
facet normal -0.706903222366779 -0.0239930909845673 0.706903222366733
  outer loop
    vertex -2298.89427565877 6.0 303.177027855709
    vertex -2299.5323773891 -5.23703631407324e-017 302.110915306014
    vertex -2298.79245228228 -7.40628778200294e-017 303.075204479218
  endloop
endfacet
facet normal -0.865776096163851 -0.023993090984557 0.499856062178193
  outer loop
    vertex -2299.5323773891 -5.23703631407324e-017 302.110915306014
    vertex -2298.89427565877 6.0 303.177027855709
    vertex -2299.65708504724 6.0 302.182915306014
  endloop
endfacet
facet normal 0.499856062178196 -0.0239930909845469 -0.865776096163849
  outer loop
    vertex -2293.10016310908 6.0 295.625993367849
    vertex -2292.20787393587 7.40628778200388e-017 296.490626132809
    vertex -2293.17216310908 9.07081297705941e-017 295.750701025994
  endloop
endfacet
facet normal 0.706903222366829 -0.0239930909845533 -0.706903222366683
  outer loop
    vertex -2292.20787393587 7.40628778200388e-017 296.490626132809
    vertex -2293.10016310908 6.0 295.625993367849
    vertex -2292.10605055938 6.0 296.388802756319
  endloop
endfacet
facet normal 0.258744537403312 -0.0239930909845432 -0.965647759770069
  outer loop
    vertex -2294.25783169259 6.0 295.146471339826
    vertex -2293.17216310908 9.07081297705941e-017 295.750701025994
    vertex -2294.29510163508 1.01171772579555e-016 295.285564658812
  endloop
endfacet
facet normal 0.499856062178194 -0.0239930909845469 -0.865776096163851
  outer loop
    vertex -2293.17216310908 9.07081297705941e-017 295.750701025994
    vertex -2294.25783169259 6.0 295.146471339826
    vertex -2293.10016310908 6.0 295.625993367849
  endloop
endfacet
facet normal 1.0 0.0 0.0
  outer loop
    vertex -2290.70016310908 26.0 299.782915306014
    vertex -2290.86371914289 6.0 301.025246722506
    vertex -2290.70016310908 6.0 299.782915306014
  endloop
endfacet
facet normal 0.965925826289059 0.0 0.258819045102554
  outer loop
    vertex -2290.86371914289 6.0 301.025246722506
    vertex -2290.70016310908 26.0 299.782915306014
    vertex -2290.86371914289 26.0 301.025246722506
  endloop
endfacet
facet normal 0.258744537403312 -0.0239930909845432 -0.965647759770069
  outer loop
    vertex -2294.25783169259 6.0 295.146471339826
    vertex -2295.50016310908 1.04740726281479e-016 295.126915306014
    vertex -2295.50016310908 6.0 294.982915306014
  endloop
endfacet
facet normal -9.41804214015083e-015 -0.0239930909845429 -0.999712124356311
  outer loop
    vertex -2295.50016310908 1.04740726281479e-016 295.126915306014
    vertex -2294.25783169259 6.0 295.146471339826
    vertex -2294.29510163508 1.01171772579555e-016 295.285564658812
  endloop
endfacet
facet normal 0.96564775977004 -0.0239930909845635 0.258744537403419
  outer loop
    vertex -2291.00281246188 -2.71088947595116e-017 300.987976780011
    vertex -2291.34324117091 6.0 302.182915306014
    vertex -2291.46794882906 -5.23703631407324e-017 302.110915306014
  endloop
endfacet
facet normal 0.865776096163872 -0.0239930909845704 0.499856062178157
  outer loop
    vertex -2291.34324117091 6.0 302.182915306014
    vertex -2291.00281246188 -2.71088947595116e-017 300.987976780011
    vertex -2290.86371914289 6.0 301.025246722506
  endloop
endfacet
facet normal -9.37531127528121e-015 -0.0239930909845429 -0.999712124356311
  outer loop
    vertex -2295.50016310908 6.0 294.982915306014
    vertex -2296.70522458308 1.01171772579555e-016 295.285564658812
    vertex -2296.74249452557 6.0 295.146471339826
  endloop
endfacet
facet normal -0.258744537403347 -0.023993090984551 -0.96564775977006
  outer loop
    vertex -2296.70522458308 1.01171772579555e-016 295.285564658812
    vertex -2295.50016310908 6.0 294.982915306014
    vertex -2295.50016310908 1.04740726281479e-016 295.126915306014
  endloop
endfacet
facet normal 0.96564775977004 -0.0239930909845613 -0.258744537403421
  outer loop
    vertex -2291.00281246188 2.71088947595207e-017 298.577853832017
    vertex -2290.70016310908 6.0 299.782915306014
    vertex -2290.84416310908 4.69618757639384e-030 299.782915306014
  endloop
endfacet
facet normal 0.999712124356311 -0.0239930909845467 -5.8037641227932e-016
  outer loop
    vertex -2290.70016310908 6.0 299.782915306014
    vertex -2291.00281246188 2.71088947595207e-017 298.577853832017
    vertex -2290.86371914289 6.0 298.540583889522
  endloop
endfacet
facet normal -0.258744537403353 -0.023993090984551 -0.965647759770058
  outer loop
    vertex -2296.74249452557 6.0 295.146471339826
    vertex -2297.82816310908 9.07081297705941e-017 295.750701025994
    vertex -2297.90016310908 6.0 295.625993367849
  endloop
endfacet
facet normal -0.499856062178179 -0.0239930909845617 -0.865776096163859
  outer loop
    vertex -2297.82816310908 9.07081297705941e-017 295.750701025994
    vertex -2296.74249452557 6.0 295.146471339826
    vertex -2296.70522458308 1.01171772579555e-016 295.285564658812
  endloop
endfacet
facet normal -0.499856062178181 -0.0239930909845617 -0.865776096163857
  outer loop
    vertex -2297.90016310908 6.0 295.625993367849
    vertex -2298.79245228228 7.40628778200388e-017 296.490626132809
    vertex -2298.89427565877 6.0 296.388802756319
  endloop
endfacet
facet normal -0.706903222366713 -0.0239930909845623 -0.706903222366799
  outer loop
    vertex -2298.79245228228 7.40628778200388e-017 296.490626132809
    vertex -2297.90016310908 6.0 295.625993367849
    vertex -2297.82816310908 9.07081297705941e-017 295.750701025994
  endloop
endfacet
facet normal 0.706903222366766 -0.0239930909845588 0.706903222366746
  outer loop
    vertex -2292.20787393587 -7.40628778200294e-017 303.075204479218
    vertex -2293.10016310908 6.0 303.939837244179
    vertex -2293.17216310908 -9.07081297705847e-017 303.815129586034
  endloop
endfacet
facet normal 0.49985606217816 -0.0239930909845547 0.86577609616387
  outer loop
    vertex -2293.10016310908 6.0 303.939837244179
    vertex -2292.20787393587 -7.40628778200294e-017 303.075204479218
    vertex -2292.10605055938 6.0 303.177027855709
  endloop
endfacet
facet normal -0.865776096163847 -0.0239930909845532 -0.4998560621782
  outer loop
    vertex -2299.65708504724 6.0 297.382915306014
    vertex -2298.79245228228 7.40628778200388e-017 296.490626132809
    vertex -2299.5323773891 5.23703631407418e-017 297.454915306014
  endloop
endfacet
facet normal -0.706903222366713 -0.0239930909845623 -0.706903222366799
  outer loop
    vertex -2298.79245228228 7.40628778200388e-017 296.490626132809
    vertex -2299.65708504724 6.0 297.382915306014
    vertex -2298.89427565877 6.0 296.388802756319
  endloop
endfacet
facet normal -0.965647759770076 -0.0239930909845623 -0.258744537403287
  outer loop
    vertex -2300.13660707527 6.0 298.540583889522
    vertex -2299.5323773891 5.23703631407418e-017 297.454915306014
    vertex -2299.99751375628 2.71088947595207e-017 298.577853832017
  endloop
endfacet
facet normal -0.865776096163847 -0.0239930909845532 -0.499856062178199
  outer loop
    vertex -2299.5323773891 5.23703631407418e-017 297.454915306014
    vertex -2300.13660707527 6.0 298.540583889522
    vertex -2299.65708504724 6.0 297.382915306014
  endloop
endfacet
facet normal 0.499856062178158 -0.0239930909845547 0.865776096163871
  outer loop
    vertex -2293.17216310908 -9.07081297705847e-017 303.815129586034
    vertex -2294.25783169259 6.0 304.419359272201
    vertex -2294.29510163508 -1.01171772579546e-016 304.280265953216
  endloop
endfacet
facet normal 0.258744537403357 -0.0239930909845561 0.965647759770057
  outer loop
    vertex -2294.25783169259 6.0 304.419359272201
    vertex -2293.17216310908 -9.07081297705847e-017 303.815129586034
    vertex -2293.10016310908 6.0 303.939837244179
  endloop
endfacet
facet normal 0.86577609616387 -0.0239930909845667 -0.49985606217816
  outer loop
    vertex -2291.46794882906 5.23703631407418e-017 297.454915306014
    vertex -2290.86371914289 6.0 298.540583889522
    vertex -2291.00281246188 2.71088947595207e-017 298.577853832017
  endloop
endfacet
facet normal 0.96564775977004 -0.0239930909845613 -0.25874453740342
  outer loop
    vertex -2290.86371914289 6.0 298.540583889522
    vertex -2291.46794882906 5.23703631407418e-017 297.454915306014
    vertex -2291.34324117091 6.0 297.382915306014
  endloop
endfacet
facet normal -0.706903222366777 -0.0239930909845673 0.706903222366735
  outer loop
    vertex -2298.79245228228 -7.40628778200294e-017 303.075204479218
    vertex -2297.90016310908 6.0 303.939837244179
    vertex -2298.89427565877 6.0 303.177027855709
  endloop
endfacet
facet normal -0.499856062178202 -0.0239930909845705 0.865776096163845
  outer loop
    vertex -2297.90016310908 6.0 303.939837244179
    vertex -2298.79245228228 -7.40628778200294e-017 303.075204479218
    vertex -2297.82816310908 -9.07081297705847e-017 303.815129586034
  endloop
endfacet
facet normal -0.86577609616385 -0.023993090984557 0.499856062178194
  outer loop
    vertex -2299.65708504724 6.0 302.182915306014
    vertex -2299.99751375628 -2.71088947595104e-017 300.987976780011
    vertex -2299.5323773891 -5.23703631407324e-017 302.110915306014
  endloop
endfacet
facet normal -0.965647759770077 -0.0239930909845645 0.258744537403281
  outer loop
    vertex -2299.99751375628 -2.71088947595104e-017 300.987976780011
    vertex -2299.65708504724 6.0 302.182915306014
    vertex -2300.13660707527 6.0 301.025246722506
  endloop
endfacet
facet normal 0.965925826289059 0.0 -0.258819045102554
  outer loop
    vertex -2290.86371914289 26.0 298.540583889522
    vertex -2290.70016310908 6.0 299.782915306014
    vertex -2290.86371914289 6.0 298.540583889522
  endloop
endfacet
facet normal 1.0 0.0 0.0
  outer loop
    vertex -2290.70016310908 6.0 299.782915306014
    vertex -2290.86371914289 26.0 298.540583889522
    vertex -2290.70016310908 26.0 299.782915306014
  endloop
endfacet
facet normal 0.258744537403361 -0.0239930909845561 0.965647759770056
  outer loop
    vertex -2294.29510163508 -1.01171772579546e-016 304.280265953216
    vertex -2295.50016310908 6.0 304.582915306014
    vertex -2295.50016310908 -1.04740726281469e-016 304.438915306014
  endloop
endfacet
facet normal -9.39316901104367e-015 -0.0239930909845579 0.99971212435631
  outer loop
    vertex -2295.50016310908 6.0 304.582915306014
    vertex -2294.29510163508 -1.01171772579546e-016 304.280265953216
    vertex -2294.25783169259 6.0 304.419359272201
  endloop
endfacet
facet normal -0.965647759770077 -0.0239930909845645 0.258744537403282
  outer loop
    vertex -2300.13660707527 6.0 301.025246722506
    vertex -2300.15616310908 4.69618757639384e-030 299.782915306014
    vertex -2299.99751375628 -2.71088947595104e-017 300.987976780011
  endloop
endfacet
facet normal -0.99971212435631 -0.0239930909845763 5.7806679802625e-016
  outer loop
    vertex -2300.15616310908 4.69618757639384e-030 299.782915306014
    vertex -2300.13660707527 6.0 301.025246722506
    vertex -2300.30016310908 6.0 299.782915306014
  endloop
endfacet
facet normal -0.258744537403285 -0.0239930909845636 0.965647759770076
  outer loop
    vertex -2296.70522458308 -1.01171772579546e-016 304.280265953216
    vertex -2295.50016310908 6.0 304.582915306014
    vertex -2296.74249452557 6.0 304.419359272201
  endloop
endfacet
facet normal -9.39316901104367e-015 -0.0239930909845579 0.99971212435631
  outer loop
    vertex -2295.50016310908 6.0 304.582915306014
    vertex -2296.70522458308 -1.01171772579546e-016 304.280265953216
    vertex -2295.50016310908 -1.04740726281469e-016 304.438915306014
  endloop
endfacet
facet normal 0.866025403784423 0.0 -0.500000000000028
  outer loop
    vertex -2291.34324117091 26.0 297.382915306014
    vertex -2290.86371914289 6.0 298.540583889522
    vertex -2291.34324117091 6.0 297.382915306014
  endloop
endfacet
facet normal 0.965925826289059 0.0 -0.258819045102554
  outer loop
    vertex -2290.86371914289 6.0 298.540583889522
    vertex -2291.34324117091 26.0 297.382915306014
    vertex -2290.86371914289 26.0 298.540583889522
  endloop
endfacet
facet normal 0.999712124356311 -0.0239930909845467 -1.82313374762128e-015
  outer loop
    vertex -2290.84416310908 4.69618757639384e-030 299.782915306014
    vertex -2290.86371914289 6.0 301.025246722506
    vertex -2291.00281246188 -2.71088947595116e-017 300.987976780011
  endloop
endfacet
facet normal 0.96564775977004 -0.0239930909845635 0.258744537403419
  outer loop
    vertex -2290.86371914289 6.0 301.025246722506
    vertex -2290.84416310908 4.69618757639384e-030 299.782915306014
    vertex -2290.70016310908 6.0 299.782915306014
  endloop
endfacet
facet normal 0.86577609616387 -0.0239930909845704 0.499856062178159
  outer loop
    vertex -2291.46794882906 -5.23703631407324e-017 302.110915306014
    vertex -2292.10605055938 6.0 303.177027855709
    vertex -2292.20787393587 -7.40628778200294e-017 303.075204479218
  endloop
endfacet
facet normal 0.706903222366764 -0.0239930909845588 0.706903222366748
  outer loop
    vertex -2292.10605055938 6.0 303.177027855709
    vertex -2291.46794882906 -5.23703631407324e-017 302.110915306014
    vertex -2291.34324117091 6.0 302.182915306014
  endloop
endfacet
facet normal -0.499856062178201 -0.0239930909845704 0.865776096163846
  outer loop
    vertex -2297.82816310908 -9.07081297705847e-017 303.815129586034
    vertex -2296.74249452557 6.0 304.419359272201
    vertex -2297.90016310908 6.0 303.939837244179
  endloop
endfacet
facet normal -0.25874453740329 -0.0239930909845636 0.965647759770075
  outer loop
    vertex -2296.74249452557 6.0 304.419359272201
    vertex -2297.82816310908 -9.07081297705847e-017 303.815129586034
    vertex -2296.70522458308 -1.01171772579546e-016 304.280265953216
  endloop
endfacet
facet normal 0.2588190451025 0.0 -0.965925826289074
  outer loop
    vertex -2294.25783169259 26.0 295.146471339826
    vertex -2295.50016310908 6.0 294.982915306014
    vertex -2295.50016310908 26.0 294.982915306014
  endloop
endfacet
facet normal 0.0 0.0 -1.0
  outer loop
    vertex -2295.50016310908 6.0 294.982915306014
    vertex -2294.25783169259 26.0 295.146471339826
    vertex -2294.25783169259 6.0 295.146471339826
  endloop
endfacet
facet normal 0.0 0.0 -1.0
  outer loop
    vertex -2295.50016310908 26.0 294.982915306014
    vertex -2296.74249452557 6.0 295.146471339826
    vertex -2296.74249452557 26.0 295.146471339826
  endloop
endfacet
facet normal -0.258819045102553 0.0 -0.96592582628906
  outer loop
    vertex -2296.74249452557 6.0 295.146471339826
    vertex -2295.50016310908 26.0 294.982915306014
    vertex -2295.50016310908 6.0 294.982915306014
  endloop
endfacet
facet normal -0.258819045102553 0.0 -0.96592582628906
  outer loop
    vertex -2296.74249452557 26.0 295.146471339826
    vertex -2297.90016310908 6.0 295.625993367849
    vertex -2297.90016310908 26.0 295.625993367849
  endloop
endfacet
facet normal -0.500000000000013 0.0 -0.866025403784431
  outer loop
    vertex -2297.90016310908 6.0 295.625993367849
    vertex -2296.74249452557 26.0 295.146471339826
    vertex -2296.74249452557 6.0 295.146471339826
  endloop
endfacet
facet normal -0.500000000000013 0.0 -0.866025403784431
  outer loop
    vertex -2297.90016310908 26.0 295.625993367849
    vertex -2298.89427565877 6.0 296.388802756319
    vertex -2298.89427565877 26.0 296.388802756319
  endloop
endfacet
facet normal -0.707106781186534 0.0 -0.707106781186561
  outer loop
    vertex -2298.89427565877 6.0 296.388802756319
    vertex -2297.90016310908 26.0 295.625993367849
    vertex -2297.90016310908 6.0 295.625993367849
  endloop
endfacet
facet normal -0.866025403784423 0.0 -0.500000000000028
  outer loop
    vertex -2299.65708504724 26.0 297.382915306014
    vertex -2298.89427565877 6.0 296.388802756319
    vertex -2299.65708504724 6.0 297.382915306014
  endloop
endfacet
facet normal -0.707106781186534 0.0 -0.707106781186561
  outer loop
    vertex -2298.89427565877 6.0 296.388802756319
    vertex -2299.65708504724 26.0 297.382915306014
    vertex -2298.89427565877 26.0 296.388802756319
  endloop
endfacet
facet normal -0.965925826289059 0.0 -0.258819045102554
  outer loop
    vertex -2300.13660707527 26.0 298.540583889522
    vertex -2299.65708504724 6.0 297.382915306014
    vertex -2300.13660707527 6.0 298.540583889522
  endloop
endfacet
facet normal -0.866025403784423 0.0 -0.500000000000028
  outer loop
    vertex -2299.65708504724 6.0 297.382915306014
    vertex -2300.13660707527 26.0 298.540583889522
    vertex -2299.65708504724 26.0 297.382915306014
  endloop
endfacet
facet normal 0.704174670855089 -0.0909728852572024 0.704174670855255
  outer loop
    vertex -2298.08397900086 4.0 297.199099414238
    vertex -2298.98112989736 -9.17915544604243e-017 297.77317819376
    vertex -2298.34236059003 -1.2981286122924e-016 296.940717825061
  endloop
endfacet
facet normal 0.862434316693706 -0.0909728852572014 0.497926684901543
  outer loop
    vertex -2298.98112989736 -9.17915544604243e-017 297.77317819376
    vertex -2298.08397900086 4.0 297.199099414238
    vertex -2298.66467837115 4.0 297.955881567601
  endloop
endfacet
facet normal 4.63486576135891e-018 -1.0 -6.84558258865237e-017
  outer loop
    vertex -2294.25783169259 26.0 295.146471339826
    vertex -2296.74249452557 26.0 295.146471339826
    vertex -2295.50016310908 26.0 294.982915306014
  endloop
endfacet
facet normal 4.63486576135891e-018 -1.0 -6.84558258865237e-017
  outer loop
    vertex -2296.74249452557 26.0 295.146471339826
    vertex -2294.25783169259 26.0 295.146471339826
    vertex -2293.10016310908 26.0 295.625993367849
  endloop
endfacet
facet normal 4.63486576135891e-018 -1.0 -6.84558258865237e-017
  outer loop
    vertex -2296.74249452557 26.0 295.146471339826
    vertex -2293.10016310908 26.0 295.625993367849
    vertex -2297.90016310908 26.0 295.625993367849
  endloop
endfacet
facet normal 4.63486576135891e-018 -1.0 -6.84558258865237e-017
  outer loop
    vertex -2297.90016310908 26.0 295.625993367849
    vertex -2293.10016310908 26.0 295.625993367849
    vertex -2292.10605055938 26.0 296.388802756319
  endloop
endfacet
facet normal 4.63486576135891e-018 -1.0 -6.84558258865237e-017
  outer loop
    vertex -2297.90016310908 26.0 295.625993367849
    vertex -2292.10605055938 26.0 296.388802756319
    vertex -2298.89427565877 26.0 296.388802756319
  endloop
endfacet
facet normal 4.63486576135891e-018 -1.0 -6.84558258865237e-017
  outer loop
    vertex -2298.89427565877 26.0 296.388802756319
    vertex -2292.10605055938 26.0 296.388802756319
    vertex -2291.34324117091 26.0 297.382915306014
  endloop
endfacet
facet normal 4.63486576135891e-018 -1.0 -6.84558258865237e-017
  outer loop
    vertex -2298.89427565877 26.0 296.388802756319
    vertex -2291.34324117091 26.0 297.382915306014
    vertex -2299.65708504724 26.0 297.382915306014
  endloop
endfacet
facet normal 4.63486576135891e-018 -1.0 -6.84558258865237e-017
  outer loop
    vertex -2299.65708504724 26.0 297.382915306014
    vertex -2291.34324117091 26.0 297.382915306014
    vertex -2295.50016310908 26.0 297.774286345434
  endloop
endfacet
facet normal 4.63486576135891e-018 -1.0 -6.84558258865237e-017
  outer loop
    vertex -2295.50016310908 26.0 297.774286345434
    vertex -2291.34324117091 26.0 297.382915306014
    vertex -2294.98029167954 26.0 297.842728717557
  endloop
endfacet
facet normal 4.63486576135891e-018 -1.0 -6.84558258865237e-017
  outer loop
    vertex -2294.98029167954 26.0 297.842728717557
    vertex -2291.34324117091 26.0 297.382915306014
    vertex -2290.86371914289 26.0 298.540583889522
  endloop
endfacet
facet normal 4.63486576135891e-018 -1.0 -6.84558258865237e-017
  outer loop
    vertex -2294.98029167954 26.0 297.842728717557
    vertex -2290.86371914289 26.0 298.540583889522
    vertex -2294.49584862879 26.0 298.043391599374
  endloop
endfacet
facet normal 4.63486576135891e-018 -1.0 -6.84558258865237e-017
  outer loop
    vertex -2294.49584862879 26.0 298.043391599374
    vertex -2290.86371914289 26.0 298.540583889522
    vertex -2294.07984795016 26.0 298.3626001471
  endloop
endfacet
facet normal 4.63486576135891e-018 -1.0 -6.84558258865237e-017
  outer loop
    vertex -2294.07984795016 26.0 298.3626001471
    vertex -2290.86371914289 26.0 298.540583889522
    vertex -2293.76063940244 26.0 298.778600825724
  endloop
endfacet
facet normal 4.63486576135891e-018 -1.0 -6.84558258865237e-017
  outer loop
    vertex -2293.76063940244 26.0 298.778600825724
    vertex -2290.86371914289 26.0 298.540583889522
    vertex -2290.70016310908 26.0 299.782915306014
  endloop
endfacet
facet normal 4.63486576135891e-018 -1.0 -6.84558258865237e-017
  outer loop
    vertex -2293.76063940244 26.0 298.778600825724
    vertex -2290.70016310908 26.0 299.782915306014
    vertex -2293.55997652062 26.0 299.263043876471
  endloop
endfacet
facet normal 4.63486576135891e-018 -1.0 -6.84558258865237e-017
  outer loop
    vertex -2293.55997652062 26.0 299.263043876471
    vertex -2290.70016310908 26.0 299.782915306014
    vertex -2293.4915341485 26.0 299.782915306014
  endloop
endfacet
facet normal 4.63486576135891e-018 -1.0 -6.84558258865237e-017
  outer loop
    vertex -2293.4915341485 26.0 299.782915306014
    vertex -2290.70016310908 26.0 299.782915306014
    vertex -2290.86371914289 26.0 301.025246722506
  endloop
endfacet
facet normal 4.63486576135891e-018 -1.0 -6.84558258865237e-017
  outer loop
    vertex -2293.4915341485 26.0 299.782915306014
    vertex -2290.86371914289 26.0 301.025246722506
    vertex -2293.55997652062 26.0 300.302786735557
  endloop
endfacet
facet normal 4.63486576135891e-018 -1.0 -6.84558258865237e-017
  outer loop
    vertex -2293.55997652062 26.0 300.302786735557
    vertex -2290.86371914289 26.0 301.025246722506
    vertex -2293.76063940244 26.0 300.787229786304
  endloop
endfacet
facet normal 4.63486576135891e-018 -1.0 -6.84558258865237e-017
  outer loop
    vertex -2293.76063940244 26.0 300.787229786304
    vertex -2290.86371914289 26.0 301.025246722506
    vertex -2294.07984795016 26.0 301.203230464927
  endloop
endfacet
facet normal 4.63486576135891e-018 -1.0 -6.84558258865237e-017
  outer loop
    vertex -2294.07984795016 26.0 301.203230464927
    vertex -2290.86371914289 26.0 301.025246722506
    vertex -2291.34324117091 26.0 302.182915306014
  endloop
endfacet
facet normal 4.63486576135891e-018 -1.0 -6.84558258865237e-017
  outer loop
    vertex -2294.07984795016 26.0 301.203230464927
    vertex -2291.34324117091 26.0 302.182915306014
    vertex -2294.49584862879 26.0 301.522439012654
  endloop
endfacet
facet normal 4.63486576135891e-018 -1.0 -6.84558258865237e-017
  outer loop
    vertex -2294.49584862879 26.0 301.522439012654
    vertex -2291.34324117091 26.0 302.182915306014
    vertex -2294.98029167954 26.0 301.723101894471
  endloop
endfacet
facet normal 4.63486576135891e-018 -1.0 -6.84558258865237e-017
  outer loop
    vertex -2294.98029167954 26.0 301.723101894471
    vertex -2291.34324117091 26.0 302.182915306014
    vertex -2295.50016310908 26.0 301.791544266594
  endloop
endfacet
facet normal 4.63486576135891e-018 -1.0 -6.84558258865237e-017
  outer loop
    vertex -2299.65708504724 26.0 297.382915306014
    vertex -2296.02003453862 26.0 297.842728717557
    vertex -2300.13660707527 26.0 298.540583889522
  endloop
endfacet
facet normal 4.63486576135891e-018 -1.0 -6.84558258865237e-017
  outer loop
    vertex -2296.02003453862 26.0 297.842728717557
    vertex -2299.65708504724 26.0 297.382915306014
    vertex -2295.50016310908 26.0 297.774286345434
  endloop
endfacet
facet normal 4.63486576135891e-018 -1.0 -6.84558258865237e-017
  outer loop
    vertex -2300.13660707527 26.0 298.540583889522
    vertex -2296.02003453862 26.0 297.842728717557
    vertex -2296.50447758937 26.0 298.043391599374
  endloop
endfacet
facet normal 4.63486576135891e-018 -1.0 -6.84558258865237e-017
  outer loop
    vertex -2300.13660707527 26.0 298.540583889522
    vertex -2296.50447758937 26.0 298.043391599374
    vertex -2296.92047826799 26.0 298.3626001471
  endloop
endfacet
facet normal 4.63486576135891e-018 -1.0 -6.84558258865237e-017
  outer loop
    vertex -2300.13660707527 26.0 298.540583889522
    vertex -2296.92047826799 26.0 298.3626001471
    vertex -2297.23968681572 26.0 298.778600825724
  endloop
endfacet
facet normal 4.63486576135891e-018 -1.0 -6.84558258865237e-017
  outer loop
    vertex -2300.13660707527 26.0 298.540583889522
    vertex -2297.23968681572 26.0 298.778600825724
    vertex -2300.30016310908 26.0 299.782915306014
  endloop
endfacet
facet normal 4.63486576135891e-018 -1.0 -6.84558258865237e-017
  outer loop
    vertex -2300.30016310908 26.0 299.782915306014
    vertex -2297.23968681572 26.0 298.778600825724
    vertex -2297.44034969754 26.0 299.263043876471
  endloop
endfacet
facet normal 4.63486576135891e-018 -1.0 -6.84558258865237e-017
  outer loop
    vertex -2300.30016310908 26.0 299.782915306014
    vertex -2297.44034969754 26.0 299.263043876471
    vertex -2297.50879206966 26.0 299.782915306014
  endloop
endfacet
facet normal 4.63486576135891e-018 -1.0 -6.84558258865237e-017
  outer loop
    vertex -2300.30016310908 26.0 299.782915306014
    vertex -2297.50879206966 26.0 299.782915306014
    vertex -2297.44034969754 26.0 300.302786735557
  endloop
endfacet
facet normal 4.63486576135891e-018 -1.0 -6.84558258865237e-017
  outer loop
    vertex -2300.30016310908 26.0 299.782915306014
    vertex -2297.44034969754 26.0 300.302786735557
    vertex -2300.13660707527 26.0 301.025246722506
  endloop
endfacet
facet normal 4.63486576135891e-018 -1.0 -6.84558258865237e-017
  outer loop
    vertex -2300.13660707527 26.0 301.025246722506
    vertex -2297.44034969754 26.0 300.302786735557
    vertex -2297.23968681572 26.0 300.787229786304
  endloop
endfacet
facet normal 4.63486576135891e-018 -1.0 -6.84558258865237e-017
  outer loop
    vertex -2300.13660707527 26.0 301.025246722506
    vertex -2297.23968681572 26.0 300.787229786304
    vertex -2296.92047826799 26.0 301.203230464928
  endloop
endfacet
facet normal 4.63486576135891e-018 -1.0 -6.84558258865237e-017
  outer loop
    vertex -2300.13660707527 26.0 301.025246722506
    vertex -2296.92047826799 26.0 301.203230464928
    vertex -2299.65708504724 26.0 302.182915306014
  endloop
endfacet
facet normal 4.63486576135891e-018 -1.0 -6.84558258865237e-017
  outer loop
    vertex -2299.65708504724 26.0 302.182915306014
    vertex -2296.92047826799 26.0 301.203230464928
    vertex -2296.50447758937 26.0 301.522439012653
  endloop
endfacet
facet normal 4.63486576135891e-018 -1.0 -6.84558258865237e-017
  outer loop
    vertex -2299.65708504724 26.0 302.182915306014
    vertex -2296.50447758937 26.0 301.522439012653
    vertex -2296.02003453862 26.0 301.723101894471
  endloop
endfacet
facet normal 4.63486576135891e-018 -1.0 -6.84558258865237e-017
  outer loop
    vertex -2299.65708504724 26.0 302.182915306014
    vertex -2296.02003453862 26.0 301.723101894471
    vertex -2295.50016310908 26.0 301.791544266594
  endloop
endfacet
facet normal 4.63486576135891e-018 -1.0 -6.84558258865237e-017
  outer loop
    vertex -2299.65708504724 26.0 302.182915306014
    vertex -2295.50016310908 26.0 301.791544266594
    vertex -2291.34324117091 26.0 302.182915306014
  endloop
endfacet
facet normal 4.63486576135891e-018 -1.0 -6.84558258865237e-017
  outer loop
    vertex -2299.65708504724 26.0 302.182915306014
    vertex -2291.34324117091 26.0 302.182915306014
    vertex -2292.10605055938 26.0 303.177027855709
  endloop
endfacet
facet normal 4.63486576135891e-018 -1.0 -6.84558258865237e-017
  outer loop
    vertex -2299.65708504724 26.0 302.182915306014
    vertex -2292.10605055938 26.0 303.177027855709
    vertex -2298.89427565877 26.0 303.177027855709
  endloop
endfacet
facet normal 4.63486576135891e-018 -1.0 -6.84558258865237e-017
  outer loop
    vertex -2298.89427565877 26.0 303.177027855709
    vertex -2292.10605055938 26.0 303.177027855709
    vertex -2293.10016310908 26.0 303.939837244179
  endloop
endfacet
facet normal 4.63486576135891e-018 -1.0 -6.84558258865237e-017
  outer loop
    vertex -2298.89427565877 26.0 303.177027855709
    vertex -2293.10016310908 26.0 303.939837244179
    vertex -2297.90016310908 26.0 303.939837244179
  endloop
endfacet
facet normal 4.63486576135891e-018 -1.0 -6.84558258865237e-017
  outer loop
    vertex -2297.90016310908 26.0 303.939837244179
    vertex -2293.10016310908 26.0 303.939837244179
    vertex -2294.25783169259 26.0 304.419359272201
  endloop
endfacet
facet normal 4.63486576135891e-018 -1.0 -6.84558258865237e-017
  outer loop
    vertex -2297.90016310908 26.0 303.939837244179
    vertex -2294.25783169259 26.0 304.419359272201
    vertex -2296.74249452557 26.0 304.419359272201
  endloop
endfacet
facet normal 4.63486576135891e-018 -1.0 -6.84558258865237e-017
  outer loop
    vertex -2296.74249452557 26.0 304.419359272201
    vertex -2294.25783169259 26.0 304.419359272201
    vertex -2295.50016310908 26.0 304.582915306014
  endloop
endfacet
facet normal 0.257745818234344 -0.0909728852570851 0.961920489089774
  outer loop
    vertex -2296.54047958968 -1.77327666177146e-016 295.900401344459
    vertex -2297.32719684749 4.0 296.618400043941
    vertex -2297.50990022133 -1.58987636031226e-016 296.301948517733
  endloop
endfacet
facet normal 0.497926684901337 -0.0909728852571459 0.862434316693831
  outer loop
    vertex -2297.32719684749 4.0 296.618400043941
    vertex -2296.54047958968 -1.77327666177146e-016 295.900401344459
    vertex -2296.44590536417 4.0 296.253357159146
  endloop
endfacet
facet normal -0.497926684901614 -0.0909728852571736 -0.862434316693668
  outer loop
    vertex -2293.67312937067 4.0 302.947430568087
    vertex -2294.45984662848 1.77327666177242e-016 303.665429267569
    vertex -2294.55442085399 4.0 303.312473452882
  endloop
endfacet
facet normal -0.257745818234695 -0.0909728852571658 -0.961920489089672
  outer loop
    vertex -2294.45984662848 1.77327666177242e-016 303.665429267569
    vertex -2293.67312937067 4.0 302.947430568087
    vertex -2293.49042599682 1.58987636031311e-016 303.263882094294
  endloop
endfacet
facet normal -0.449771498583421 -0.854560783141104 -0.259675695780887
  outer loop
    vertex -2292.33564784701 4.0 301.609949044427
    vertex -2294.07984795016 5.0 301.203230464927
    vertex -2293.76063940244 5.0 300.787229786304
  endloop
endfacet
facet normal -0.367236890792148 -0.854560783141119 -0.36723689079197
  outer loop
    vertex -2294.07984795016 5.0 301.203230464927
    vertex -2292.33564784701 4.0 301.609949044427
    vertex -2292.9163472173 4.0 302.36673119779
  endloop
endfacet
facet normal -0.704174670855329 -0.0909728852571198 -0.704174670855026
  outer loop
    vertex -2292.9163472173 4.0 302.36673119779
    vertex -2293.49042599682 1.58987636031311e-016 303.263882094294
    vertex -2293.67312937067 4.0 302.947430568087
  endloop
endfacet
facet normal -0.497926684901626 -0.0909728852571736 -0.862434316693661
  outer loop
    vertex -2293.49042599682 1.58987636031311e-016 303.263882094294
    vertex -2292.9163472173 4.0 302.36673119779
    vertex -2292.65796562812 1.29812861229355e-016 302.625112786967
  endloop
endfacet
facet normal -0.704174670855338 -0.0909728852571198 -0.704174670855017
  outer loop
    vertex -2292.65796562812 1.29812861229355e-016 302.625112786967
    vertex -2292.33564784701 4.0 301.609949044427
    vertex -2292.0191963208 9.17915544605411e-017 301.792652418268
  endloop
endfacet
facet normal -0.862434316693801 -0.0909728852570764 -0.497926684901401
  outer loop
    vertex -2292.33564784701 4.0 301.609949044427
    vertex -2292.65796562812 1.29812861229355e-016 302.625112786967
    vertex -2292.9163472173 4.0 302.36673119779
  endloop
endfacet
facet normal 0.86243431669366 -0.0909728852571404 -0.497926684901635
  outer loop
    vertex -2298.66467837115 4.0 301.609949044426
    vertex -2298.34236059003 1.29812861229353e-016 302.625112786967
    vertex -2298.98112989736 9.17915544605063e-017 301.792652418267
  endloop
endfacet
facet normal 0.704174670855132 -0.0909728852571072 -0.704174670855225
  outer loop
    vertex -2298.34236059003 1.29812861229353e-016 302.625112786967
    vertex -2298.66467837115 4.0 301.609949044426
    vertex -2298.08397900085 4.0 302.36673119779
  endloop
endfacet
facet normal -0.519351391561813 -0.854560783141146 -2.28814050980786e-015
  outer loop
    vertex -2291.84609563225 4.0 299.782915306014
    vertex -2293.55997652062 5.0 299.263043876471
    vertex -2291.97060496221 4.0 298.837173050922
  endloop
endfacet
facet normal -0.50165492202871 -0.854560783141126 0.134418031236866
  outer loop
    vertex -2293.55997652062 5.0 299.263043876471
    vertex -2291.84609563225 4.0 299.782915306014
    vertex -2293.4915341485 5.0 299.782915306014
  endloop
endfacet
facet normal -0.961920489089693 -0.0909728852570544 -0.257745818234658
  outer loop
    vertex -2291.61764914752 4.75148049479241e-017 300.823231786615
    vertex -2291.84609563225 4.0 299.782915306014
    vertex -2291.48068888457 5.2597300855611e-029 299.782915306014
  endloop
endfacet
facet normal -0.99585336980301 -0.0909728852570389 -4.21841016432149e-015
  outer loop
    vertex -2291.84609563225 4.0 299.782915306014
    vertex -2291.61764914752 4.75148049479241e-017 300.823231786615
    vertex -2291.97060496221 4.0 300.728657561106
  endloop
endfacet
facet normal 0.257745818234382 -0.0909728852570367 -0.961920489089768
  outer loop
    vertex -2296.44590536417 4.0 303.312473452882
    vertex -2295.50016310908 1.83583108921008e-016 303.802389530521
    vertex -2296.54047958968 1.77327666177239e-016 303.665429267569
  endloop
endfacet
facet normal 1.86749775455215e-013 -0.0909728852570778 -0.995853369803006
  outer loop
    vertex -2295.50016310908 1.83583108921008e-016 303.802389530521
    vertex -2296.44590536417 4.0 303.312473452882
    vertex -2295.50016310908 4.0 303.436982782839
  endloop
endfacet
facet normal 0.501654922028733 -0.854560783141142 0.134418031236678
  outer loop
    vertex -2297.44034969754 5.0 299.263043876471
    vertex -2299.1542305859 4.0 299.782915306014
    vertex -2299.02972125595 4.0 298.837173050921
  endloop
endfacet
facet normal 0.519351391561864 -0.854560783141115 3.20339671373013e-015
  outer loop
    vertex -2299.1542305859 4.0 299.782915306014
    vertex -2297.44034969754 5.0 299.263043876471
    vertex -2297.50879206966 5.0 299.782915306014
  endloop
endfacet
facet normal 0.995853369803014 -0.0909728852569874 2.0163469967825e-015
  outer loop
    vertex -2299.1542305859 4.0 299.782915306014
    vertex -2299.38267707063 4.75148049479614e-017 300.823231786616
    vertex -2299.51963733359 4.66487965921788e-029 299.782915306013
  endloop
endfacet
facet normal 0.961920489089859 -0.0909728852570689 -0.257745818234031
  outer loop
    vertex -2299.38267707063 4.75148049479614e-017 300.823231786616
    vertex -2299.1542305859 4.0 299.782915306014
    vertex -2299.02972125595 4.0 300.728657561107
  endloop
endfacet
facet normal 0.367236890792065 -0.854560783141108 -0.36723689079208
  outer loop
    vertex -2296.92047826799 5.0 301.203230464928
    vertex -2298.66467837115 4.0 301.609949044426
    vertex -2297.23968681572 5.0 300.787229786304
  endloop
endfacet
facet normal 0.449771498583344 -0.854560783141137 -0.259675695780909
  outer loop
    vertex -2298.66467837115 4.0 301.609949044426
    vertex -2296.92047826799 5.0 301.203230464928
    vertex -2298.08397900085 4.0 302.36673119779
  endloop
endfacet
facet normal 0.259675695780996 -0.854560783141085 0.449771498583392
  outer loop
    vertex -2296.50447758937 5.0 298.043391599374
    vertex -2298.08397900086 4.0 297.199099414238
    vertex -2297.32719684749 4.0 296.618400043941
  endloop
endfacet
facet normal 0.367236890792082 -0.854560783141097 0.367236890792088
  outer loop
    vertex -2298.08397900086 4.0 297.199099414238
    vertex -2296.50447758937 5.0 298.043391599374
    vertex -2296.92047826799 5.0 298.3626001471
  endloop
endfacet
facet normal -0.367236890792099 -0.854560783141119 0.367236890792019
  outer loop
    vertex -2292.9163472173 4.0 297.199099414238
    vertex -2294.49584862879 5.0 298.043391599374
    vertex -2293.67312937067 4.0 296.618400043941
  endloop
endfacet
facet normal -0.25967569578091 -0.854560783141127 0.449771498583363
  outer loop
    vertex -2294.49584862879 5.0 298.043391599374
    vertex -2292.9163472173 4.0 297.199099414238
    vertex -2294.07984795016 5.0 298.3626001471
  endloop
endfacet
facet normal 2.00055696956401e-013 -0.0909728852571307 0.995853369803001
  outer loop
    vertex -2295.50016310908 -1.8358310892092e-016 295.763441081506
    vertex -2296.44590536417 4.0 296.253357159146
    vertex -2296.54047958968 -1.77327666177146e-016 295.900401344459
  endloop
endfacet
facet normal 0.257745818234423 -0.0909728852570851 0.961920489089753
  outer loop
    vertex -2296.44590536417 4.0 296.253357159146
    vertex -2295.50016310908 -1.8358310892092e-016 295.763441081506
    vertex -2295.50016310908 4.0 296.128847829189
  endloop
endfacet
facet normal 0.367236890792097 -0.854560783141097 0.367236890792073
  outer loop
    vertex -2296.92047826799 5.0 298.3626001471
    vertex -2298.66467837115 4.0 297.955881567601
    vertex -2298.08397900086 4.0 297.199099414238
  endloop
endfacet
facet normal 0.449771498583327 -0.85456078314115 0.259675695780896
  outer loop
    vertex -2298.66467837115 4.0 297.955881567601
    vertex -2296.92047826799 5.0 298.3626001471
    vertex -2297.23968681572 5.0 298.778600825724
  endloop
endfacet
facet normal -0.501654922028724 -0.854560783141123 -0.134418031236828
  outer loop
    vertex -2291.97060496221 4.0 300.728657561106
    vertex -2293.76063940244 5.0 300.787229786304
    vertex -2293.55997652062 5.0 300.302786735557
  endloop
endfacet
facet normal -0.449771498583436 -0.854560783141104 -0.25967569578086
  outer loop
    vertex -2293.76063940244 5.0 300.787229786304
    vertex -2291.97060496221 4.0 300.728657561106
    vertex -2292.33564784701 4.0 301.609949044427
  endloop
endfacet
facet normal -0.257745818234683 -0.0909728852572169 0.961920489089671
  outer loop
    vertex -2294.45984662848 -1.77327666177146e-016 295.900401344459
    vertex -2295.50016310908 4.0 296.128847829189
    vertex -2295.50016310908 -1.8358310892092e-016 295.763441081506
  endloop
endfacet
facet normal 1.87909390296654e-013 -0.0909728852571307 0.995853369803001
  outer loop
    vertex -2295.50016310908 4.0 296.128847829189
    vertex -2294.45984662848 -1.77327666177146e-016 295.900401344459
    vertex -2294.55442085399 4.0 296.253357159146
  endloop
endfacet
facet normal 0.259675695780924 -0.854560783141123 -0.449771498583362
  outer loop
    vertex -2296.50447758937 5.0 301.522439012653
    vertex -2298.08397900085 4.0 302.36673119779
    vertex -2296.92047826799 5.0 301.203230464928
  endloop
endfacet
facet normal 0.36723689079205 -0.854560783141108 -0.367236890792095
  outer loop
    vertex -2298.08397900085 4.0 302.36673119779
    vertex -2296.50447758937 5.0 301.522439012653
    vertex -2297.32719684749 4.0 302.947430568087
  endloop
endfacet
facet normal -0.862434316693799 -0.0909728852570763 -0.497926684901405
  outer loop
    vertex -2292.0191963208 9.17915544605411e-017 301.792652418268
    vertex -2291.97060496221 4.0 300.728657561106
    vertex -2291.61764914752 4.75148049479241e-017 300.823231786615
  endloop
endfacet
facet normal -0.96192048908969 -0.0909728852570544 -0.25774581823467
  outer loop
    vertex -2291.97060496221 4.0 300.728657561106
    vertex -2292.0191963208 9.17915544605411e-017 301.792652418268
    vertex -2292.33564784701 4.0 301.609949044427
  endloop
endfacet
facet normal 0.497926684901462 -0.0909728852570728 -0.862434316693766
  outer loop
    vertex -2297.32719684749 4.0 302.947430568087
    vertex -2296.54047958968 1.77327666177239e-016 303.665429267569
    vertex -2297.50990022133 1.58987636031322e-016 303.263882094294
  endloop
endfacet
facet normal 0.257745818234319 -0.0909728852570367 -0.961920489089785
  outer loop
    vertex -2296.54047958968 1.77327666177239e-016 303.665429267569
    vertex -2297.32719684749 4.0 302.947430568087
    vertex -2296.44590536417 4.0 303.312473452882
  endloop
endfacet
facet normal -0.259675695780919 -0.854560783141101 -0.449771498583408
  outer loop
    vertex -2293.67312937067 4.0 302.947430568087
    vertex -2294.98029167954 5.0 301.723101894471
    vertex -2294.49584862879 5.0 301.522439012654
  endloop
endfacet
facet normal -0.13441803123671 -0.854560783141116 -0.501654922028769
  outer loop
    vertex -2294.98029167954 5.0 301.723101894471
    vertex -2293.67312937067 4.0 302.947430568087
    vertex -2294.55442085399 4.0 303.312473452882
  endloop
endfacet
facet normal -0.961920489089677 -0.0909728852570806 0.257745818234707
  outer loop
    vertex -2291.61764914752 -4.75148049478396e-017 298.742598825412
    vertex -2292.33564784701 4.0 297.955881567601
    vertex -2292.0191963208 -9.17915544604444e-017 297.77317819376
  endloop
endfacet
facet normal -0.862434316693746 -0.0909728852571099 0.49792668490149
  outer loop
    vertex -2292.33564784701 4.0 297.955881567601
    vertex -2291.61764914752 -4.75148049478396e-017 298.742598825412
    vertex -2291.97060496221 4.0 298.837173050922
  endloop
endfacet
facet normal 1.74431702476055e-013 -0.0909728852570777 -0.995853369803006
  outer loop
    vertex -2295.50016310908 4.0 303.436982782839
    vertex -2294.45984662848 1.77327666177242e-016 303.665429267569
    vertex -2295.50016310908 1.83583108921008e-016 303.802389530521
  endloop
endfacet
facet normal -0.257745818234695 -0.0909728852571658 -0.961920489089672
  outer loop
    vertex -2294.45984662848 1.77327666177242e-016 303.665429267569
    vertex -2295.50016310908 4.0 303.436982782839
    vertex -2294.55442085399 4.0 303.312473452882
  endloop
endfacet
facet normal -0.497926684901728 -0.0909728852572187 0.862434316693597
  outer loop
    vertex -2293.49042599682 -1.58987636031226e-016 296.301948517733
    vertex -2292.9163472173 4.0 297.199099414238
    vertex -2293.67312937067 4.0 296.618400043941
  endloop
endfacet
facet normal -0.704174670855375 -0.0909728852571546 0.704174670854975
  outer loop
    vertex -2292.9163472173 4.0 297.199099414238
    vertex -2293.49042599682 -1.58987636031226e-016 296.301948517733
    vertex -2292.65796562812 -1.29812861229259e-016 296.94071782506
  endloop
endfacet
facet normal -0.367236890792115 -0.854560783141119 -0.367236890792003
  outer loop
    vertex -2292.9163472173 4.0 302.36673119779
    vertex -2294.49584862879 5.0 301.522439012654
    vertex -2294.07984795016 5.0 301.203230464927
  endloop
endfacet
facet normal -0.259675695780937 -0.854560783141101 -0.449771498583397
  outer loop
    vertex -2294.49584862879 5.0 301.522439012654
    vertex -2292.9163472173 4.0 302.36673119779
    vertex -2293.67312937067 4.0 302.947430568087
  endloop
endfacet
facet normal 0.13441803123672 -0.854560783141117 0.501654922028764
  outer loop
    vertex -2296.02003453862 5.0 297.842728717557
    vertex -2297.32719684749 4.0 296.618400043941
    vertex -2296.44590536417 4.0 296.253357159146
  endloop
endfacet
facet normal 0.259675695780959 -0.854560783141085 0.449771498583414
  outer loop
    vertex -2297.32719684749 4.0 296.618400043941
    vertex -2296.02003453862 5.0 297.842728717557
    vertex -2296.50447758937 5.0 298.043391599374
  endloop
endfacet
facet normal -0.501654922028724 -0.854560783141123 -0.134418031236828
  outer loop
    vertex -2291.97060496221 4.0 300.728657561106
    vertex -2293.4915341485 5.0 299.782915306014
    vertex -2291.84609563225 4.0 299.782915306014
  endloop
endfacet
facet normal -0.519351391561813 -0.854560783141146 -2.52976941930637e-015
  outer loop
    vertex -2293.4915341485 5.0 299.782915306014
    vertex -2291.97060496221 4.0 300.728657561106
    vertex -2293.55997652062 5.0 300.302786735557
  endloop
endfacet
facet normal -0.862434316693741 -0.0909728852571099 0.497926684901499
  outer loop
    vertex -2292.0191963208 -9.17915544604444e-017 297.77317819376
    vertex -2292.9163472173 4.0 297.199099414238
    vertex -2292.65796562812 -1.29812861229259e-016 296.94071782506
  endloop
endfacet
facet normal -0.704174670855375 -0.0909728852571546 0.704174670854975
  outer loop
    vertex -2292.9163472173 4.0 297.199099414238
    vertex -2292.0191963208 -9.17915544604444e-017 297.77317819376
    vertex -2292.33564784701 4.0 297.955881567601
  endloop
endfacet
facet normal 0.704174670855126 -0.0909728852571072 -0.70417467085523
  outer loop
    vertex -2298.08397900085 4.0 302.36673119779
    vertex -2297.50990022133 1.58987636031322e-016 303.263882094294
    vertex -2298.34236059003 1.29812861229353e-016 302.625112786967
  endloop
endfacet
facet normal 0.497926684901477 -0.0909728852570728 -0.862434316693758
  outer loop
    vertex -2297.50990022133 1.58987636031322e-016 303.263882094294
    vertex -2298.08397900085 4.0 302.36673119779
    vertex -2297.32719684749 4.0 302.947430568087
  endloop
endfacet
facet normal -0.99585336980301 -0.0909728852570388 1.0621393479015e-014
  outer loop
    vertex -2291.48068888457 5.2597300855611e-029 299.782915306014
    vertex -2291.97060496221 4.0 298.837173050922
    vertex -2291.61764914752 -4.75148049478396e-017 298.742598825412
  endloop
endfacet
facet normal -0.961920489089678 -0.0909728852570805 0.257745818234702
  outer loop
    vertex -2291.97060496221 4.0 298.837173050922
    vertex -2291.48068888457 5.2597300855611e-029 299.782915306014
    vertex -2291.84609563225 4.0 299.782915306014
  endloop
endfacet
facet normal 9.68918222035438e-015 -0.854560783141125 -0.519351391561847
  outer loop
    vertex -2295.50016310908 5.0 301.791544266594
    vertex -2296.44590536417 4.0 303.312473452882
    vertex -2296.02003453862 5.0 301.723101894471
  endloop
endfacet
facet normal 0.134418031236707 -0.85456078314113 -0.501654922028745
  outer loop
    vertex -2296.44590536417 4.0 303.312473452882
    vertex -2295.50016310908 5.0 301.791544266594
    vertex -2295.50016310908 4.0 303.436982782839
  endloop
endfacet
facet normal 0.497926684901361 -0.0909728852571459 0.862434316693817
  outer loop
    vertex -2297.50990022133 -1.58987636031226e-016 296.301948517733
    vertex -2298.08397900086 4.0 297.199099414238
    vertex -2298.34236059003 -1.2981286122924e-016 296.940717825061
  endloop
endfacet
facet normal 0.704174670855089 -0.0909728852572024 0.704174670855255
  outer loop
    vertex -2298.08397900086 4.0 297.199099414238
    vertex -2297.50990022133 -1.58987636031226e-016 296.301948517733
    vertex -2297.32719684749 4.0 296.618400043941
  endloop
endfacet
facet normal -0.257745818234683 -0.0909728852572169 0.961920489089671
  outer loop
    vertex -2294.45984662848 -1.77327666177146e-016 295.900401344459
    vertex -2293.67312937067 4.0 296.618400043941
    vertex -2294.55442085399 4.0 296.253357159146
  endloop
endfacet
facet normal -0.49792668490172 -0.0909728852572187 0.862434316693602
  outer loop
    vertex -2293.67312937067 4.0 296.618400043941
    vertex -2294.45984662848 -1.77327666177146e-016 295.900401344459
    vertex -2293.49042599682 -1.58987636031226e-016 296.301948517733
  endloop
endfacet
facet normal 0.961920489089858 -0.0909728852570689 -0.257745818234037
  outer loop
    vertex -2299.02972125595 4.0 300.728657561107
    vertex -2298.98112989736 9.17915544605063e-017 301.792652418267
    vertex -2299.38267707063 4.75148049479614e-017 300.823231786616
  endloop
endfacet
facet normal 0.862434316693668 -0.0909728852571404 -0.497926684901621
  outer loop
    vertex -2298.98112989736 9.17915544605063e-017 301.792652418267
    vertex -2299.02972125595 4.0 300.728657561107
    vertex -2298.66467837115 4.0 301.609949044426
  endloop
endfacet
facet normal 0.449771498583343 -0.854560783141137 -0.259675695780911
  outer loop
    vertex -2297.23968681572 5.0 300.787229786304
    vertex -2299.02972125595 4.0 300.728657561107
    vertex -2297.44034969754 5.0 300.302786735557
  endloop
endfacet
facet normal 0.501654922028733 -0.854560783141141 -0.134418031236685
  outer loop
    vertex -2299.02972125595 4.0 300.728657561107
    vertex -2297.23968681572 5.0 300.787229786304
    vertex -2298.66467837115 4.0 301.609949044426
  endloop
endfacet
facet normal 1.02100171008e-014 -0.854560783141138 0.519351391561827
  outer loop
    vertex -2295.50016310908 5.0 297.774286345434
    vertex -2296.44590536417 4.0 296.253357159146
    vertex -2295.50016310908 4.0 296.128847829189
  endloop
endfacet
facet normal 0.1344180312367 -0.854560783141117 0.50165492202877
  outer loop
    vertex -2296.44590536417 4.0 296.253357159146
    vertex -2295.50016310908 5.0 297.774286345434
    vertex -2296.02003453862 5.0 297.842728717557
  endloop
endfacet
facet normal 0.862434316693703 -0.0909728852572014 0.497926684901548
  outer loop
    vertex -2298.66467837115 4.0 297.955881567601
    vertex -2299.38267707063 -4.75148049478584e-017 298.742598825412
    vertex -2298.98112989736 -9.17915544604243e-017 297.77317819376
  endloop
endfacet
facet normal 0.961920489089844 -0.0909728852571037 0.257745818234076
  outer loop
    vertex -2299.38267707063 -4.75148049478584e-017 298.742598825412
    vertex -2298.66467837115 4.0 297.955881567601
    vertex -2299.02972125595 4.0 298.837173050921
  endloop
endfacet
facet normal -0.449771498583423 -0.854560783141095 0.25967569578091
  outer loop
    vertex -2292.33564784701 4.0 297.955881567601
    vertex -2294.07984795016 5.0 298.3626001471
    vertex -2292.9163472173 4.0 297.199099414238
  endloop
endfacet
facet normal -0.36723689079211 -0.854560783141119 0.367236890792008
  outer loop
    vertex -2294.07984795016 5.0 298.3626001471
    vertex -2292.33564784701 4.0 297.955881567601
    vertex -2293.76063940244 5.0 298.778600825724
  endloop
endfacet
facet normal 0.134418031236718 -0.85456078314113 -0.501654922028742
  outer loop
    vertex -2296.02003453862 5.0 301.723101894471
    vertex -2297.32719684749 4.0 302.947430568087
    vertex -2296.50447758937 5.0 301.522439012653
  endloop
endfacet
facet normal 0.259675695780928 -0.854560783141124 -0.449771498583359
  outer loop
    vertex -2297.32719684749 4.0 302.947430568087
    vertex -2296.02003453862 5.0 301.723101894471
    vertex -2296.44590536417 4.0 303.312473452882
  endloop
endfacet
facet normal -0.259675695780917 -0.854560783141127 0.449771498583359
  outer loop
    vertex -2293.67312937067 4.0 296.618400043941
    vertex -2294.98029167954 5.0 297.842728717557
    vertex -2294.55442085399 4.0 296.253357159146
  endloop
endfacet
facet normal -0.134418031236739 -0.854560783141144 0.501654922028713
  outer loop
    vertex -2294.98029167954 5.0 297.842728717557
    vertex -2293.67312937067 4.0 296.618400043941
    vertex -2294.49584862879 5.0 298.043391599374
  endloop
endfacet
facet normal -0.134418031236707 -0.854560783141116 -0.50165492202877
  outer loop
    vertex -2294.55442085399 4.0 303.312473452882
    vertex -2295.50016310908 5.0 301.791544266594
    vertex -2294.98029167954 5.0 301.723101894471
  endloop
endfacet
facet normal 9.68918222035438e-015 -0.854560783141125 -0.519351391561847
  outer loop
    vertex -2295.50016310908 5.0 301.791544266594
    vertex -2294.55442085399 4.0 303.312473452882
    vertex -2295.50016310908 4.0 303.436982782839
  endloop
endfacet
facet normal -0.501654922028719 -0.854560783141126 0.134418031236833
  outer loop
    vertex -2291.97060496221 4.0 298.837173050922
    vertex -2293.76063940244 5.0 298.778600825724
    vertex -2292.33564784701 4.0 297.955881567601
  endloop
endfacet
facet normal -0.449771498583439 -0.854560783141095 0.259675695780882
  outer loop
    vertex -2293.76063940244 5.0 298.778600825724
    vertex -2291.97060496221 4.0 298.837173050922
    vertex -2293.55997652062 5.0 299.263043876471
  endloop
endfacet
facet normal -0.134418031236724 -0.854560783141144 0.501654922028717
  outer loop
    vertex -2294.55442085399 4.0 296.253357159146
    vertex -2295.50016310908 5.0 297.774286345434
    vertex -2295.50016310908 4.0 296.128847829189
  endloop
endfacet
facet normal 1.02100171008e-014 -0.854560783141138 0.519351391561827
  outer loop
    vertex -2295.50016310908 5.0 297.774286345434
    vertex -2294.55442085399 4.0 296.253357159146
    vertex -2294.98029167954 5.0 297.842728717557
  endloop
endfacet
facet normal 0.519351391561864 -0.854560783141115 1.41369467549472e-015
  outer loop
    vertex -2297.50879206966 5.0 299.782915306014
    vertex -2299.02972125595 4.0 300.728657561107
    vertex -2299.1542305859 4.0 299.782915306014
  endloop
endfacet
facet normal 0.501654922028733 -0.854560783141141 -0.134418031236685
  outer loop
    vertex -2299.02972125595 4.0 300.728657561107
    vertex -2297.50879206966 5.0 299.782915306014
    vertex -2297.44034969754 5.0 300.302786735557
  endloop
endfacet
facet normal 0.449771498583326 -0.85456078314115 0.259675695780897
  outer loop
    vertex -2297.23968681572 5.0 298.778600825724
    vertex -2299.02972125595 4.0 298.837173050921
    vertex -2298.66467837115 4.0 297.955881567601
  endloop
endfacet
facet normal 0.501654922028732 -0.854560783141142 0.13441803123668
  outer loop
    vertex -2299.02972125595 4.0 298.837173050921
    vertex -2297.23968681572 5.0 298.778600825724
    vertex -2297.44034969754 5.0 299.263043876471
  endloop
endfacet
facet normal 0.96192048908985 -0.0909728852571037 0.257745818234055
  outer loop
    vertex -2299.02972125595 4.0 298.837173050921
    vertex -2299.51963733359 4.66487965921788e-029 299.782915306013
    vertex -2299.38267707063 -4.75148049478584e-017 298.742598825412
  endloop
endfacet
facet normal 0.995853369803014 -0.0909728852569874 1.86031507088049e-014
  outer loop
    vertex -2299.51963733359 4.66487965921788e-029 299.782915306013
    vertex -2299.02972125595 4.0 298.837173050921
    vertex -2299.1542305859 4.0 299.782915306014
  endloop
endfacet
facet normal -0.96592582628906 0.0 0.25881904510255
  outer loop
    vertex -2300.13660707527 26.0 301.025246722506
    vertex -2300.30016310908 6.0 299.782915306014
    vertex -2300.13660707527 6.0 301.025246722506
  endloop
endfacet
facet normal -1.0 0.0 2.35253301245078e-015
  outer loop
    vertex -2300.30016310908 6.0 299.782915306014
    vertex -2300.13660707527 26.0 301.025246722506
    vertex -2300.30016310908 26.0 299.782915306014
  endloop
endfacet
facet normal -0.2588190451025 0.0 0.965925826289074
  outer loop
    vertex -2296.74249452557 6.0 304.419359272201
    vertex -2297.90016310908 26.0 303.939837244179
    vertex -2297.90016310908 6.0 303.939837244179
  endloop
endfacet
facet normal -0.500000000000041 0.0 0.866025403784415
  outer loop
    vertex -2297.90016310908 26.0 303.939837244179
    vertex -2296.74249452557 6.0 304.419359272201
    vertex -2296.74249452557 26.0 304.419359272201
  endloop
endfacet
facet normal -0.866025403784426 0.0 0.500000000000022
  outer loop
    vertex -2299.65708504724 26.0 302.182915306014
    vertex -2300.13660707527 6.0 301.025246722506
    vertex -2299.65708504724 6.0 302.182915306014
  endloop
endfacet
facet normal -0.96592582628906 0.0 0.25881904510255
  outer loop
    vertex -2300.13660707527 6.0 301.025246722506
    vertex -2299.65708504724 26.0 302.182915306014
    vertex -2300.13660707527 26.0 301.025246722506
  endloop
endfacet
facet normal -0.500000000000041 0.0 0.866025403784415
  outer loop
    vertex -2297.90016310908 6.0 303.939837244179
    vertex -2298.89427565877 26.0 303.177027855709
    vertex -2298.89427565877 6.0 303.177027855709
  endloop
endfacet
facet normal -0.707106781186596 0.0 0.707106781186499
  outer loop
    vertex -2298.89427565877 26.0 303.177027855709
    vertex -2297.90016310908 6.0 303.939837244179
    vertex -2297.90016310908 26.0 303.939837244179
  endloop
endfacet
facet normal -0.707106781186596 0.0 0.707106781186499
  outer loop
    vertex -2298.89427565877 26.0 303.177027855709
    vertex -2299.65708504724 6.0 302.182915306014
    vertex -2298.89427565877 6.0 303.177027855709
  endloop
endfacet
facet normal -0.866025403784426 0.0 0.500000000000022
  outer loop
    vertex -2299.65708504724 6.0 302.182915306014
    vertex -2298.89427565877 26.0 303.177027855709
    vertex -2299.65708504724 26.0 302.182915306014
  endloop
endfacet
facet normal 0.0 0.0 1.0
  outer loop
    vertex -2295.50016310908 6.0 304.582915306014
    vertex -2296.74249452557 26.0 304.419359272201
    vertex -2296.74249452557 6.0 304.419359272201
  endloop
endfacet
facet normal -0.2588190451025 0.0 0.965925826289074
  outer loop
    vertex -2296.74249452557 26.0 304.419359272201
    vertex -2295.50016310908 6.0 304.582915306014
    vertex -2295.50016310908 26.0 304.582915306014
  endloop
endfacet
endsolid bowden-wade-body
